%TF.GenerationSoftware,KiCad,Pcbnew,7.0.6*%
%TF.CreationDate,2023-08-05T22:40:52+02:00*%
%TF.ProjectId,PCH-2xxxJIG_0805_Nano,5043482d-3278-4787-984a-49475f303830,rev?*%
%TF.SameCoordinates,Original*%
%TF.FileFunction,Legend,Top*%
%TF.FilePolarity,Positive*%
%FSLAX46Y46*%
G04 Gerber Fmt 4.6, Leading zero omitted, Abs format (unit mm)*
G04 Created by KiCad (PCBNEW 7.0.6) date 2023-08-05 22:40:52*
%MOMM*%
%LPD*%
G01*
G04 APERTURE LIST*
%ADD10C,0.125000*%
%ADD11C,0.120000*%
G04 APERTURE END LIST*
D10*
X62833334Y-42636119D02*
X63000000Y-43636119D01*
X63000000Y-43636119D02*
X63166667Y-42636119D01*
X63619047Y-43540880D02*
X63595238Y-43588500D01*
X63595238Y-43588500D02*
X63523809Y-43636119D01*
X63523809Y-43636119D02*
X63476190Y-43636119D01*
X63476190Y-43636119D02*
X63404762Y-43588500D01*
X63404762Y-43588500D02*
X63357143Y-43493261D01*
X63357143Y-43493261D02*
X63333333Y-43398023D01*
X63333333Y-43398023D02*
X63309524Y-43207547D01*
X63309524Y-43207547D02*
X63309524Y-43064690D01*
X63309524Y-43064690D02*
X63333333Y-42874214D01*
X63333333Y-42874214D02*
X63357143Y-42778976D01*
X63357143Y-42778976D02*
X63404762Y-42683738D01*
X63404762Y-42683738D02*
X63476190Y-42636119D01*
X63476190Y-42636119D02*
X63523809Y-42636119D01*
X63523809Y-42636119D02*
X63595238Y-42683738D01*
X63595238Y-42683738D02*
X63619047Y-42731357D01*
X64119047Y-43540880D02*
X64095238Y-43588500D01*
X64095238Y-43588500D02*
X64023809Y-43636119D01*
X64023809Y-43636119D02*
X63976190Y-43636119D01*
X63976190Y-43636119D02*
X63904762Y-43588500D01*
X63904762Y-43588500D02*
X63857143Y-43493261D01*
X63857143Y-43493261D02*
X63833333Y-43398023D01*
X63833333Y-43398023D02*
X63809524Y-43207547D01*
X63809524Y-43207547D02*
X63809524Y-43064690D01*
X63809524Y-43064690D02*
X63833333Y-42874214D01*
X63833333Y-42874214D02*
X63857143Y-42778976D01*
X63857143Y-42778976D02*
X63904762Y-42683738D01*
X63904762Y-42683738D02*
X63976190Y-42636119D01*
X63976190Y-42636119D02*
X64023809Y-42636119D01*
X64023809Y-42636119D02*
X64095238Y-42683738D01*
X64095238Y-42683738D02*
X64119047Y-42731357D01*
X73279048Y-32476119D02*
X73564762Y-32476119D01*
X73421905Y-33476119D02*
X73421905Y-32476119D01*
X73683809Y-32476119D02*
X74017142Y-33476119D01*
X74017142Y-32476119D02*
X73683809Y-33476119D01*
X75819047Y-32256119D02*
X75819047Y-31256119D01*
X75819047Y-31256119D02*
X76009523Y-31256119D01*
X76009523Y-31256119D02*
X76057142Y-31303738D01*
X76057142Y-31303738D02*
X76080952Y-31351357D01*
X76080952Y-31351357D02*
X76104761Y-31446595D01*
X76104761Y-31446595D02*
X76104761Y-31589452D01*
X76104761Y-31589452D02*
X76080952Y-31684690D01*
X76080952Y-31684690D02*
X76057142Y-31732309D01*
X76057142Y-31732309D02*
X76009523Y-31779928D01*
X76009523Y-31779928D02*
X75819047Y-31779928D01*
X76604761Y-32160880D02*
X76580952Y-32208500D01*
X76580952Y-32208500D02*
X76509523Y-32256119D01*
X76509523Y-32256119D02*
X76461904Y-32256119D01*
X76461904Y-32256119D02*
X76390476Y-32208500D01*
X76390476Y-32208500D02*
X76342857Y-32113261D01*
X76342857Y-32113261D02*
X76319047Y-32018023D01*
X76319047Y-32018023D02*
X76295238Y-31827547D01*
X76295238Y-31827547D02*
X76295238Y-31684690D01*
X76295238Y-31684690D02*
X76319047Y-31494214D01*
X76319047Y-31494214D02*
X76342857Y-31398976D01*
X76342857Y-31398976D02*
X76390476Y-31303738D01*
X76390476Y-31303738D02*
X76461904Y-31256119D01*
X76461904Y-31256119D02*
X76509523Y-31256119D01*
X76509523Y-31256119D02*
X76580952Y-31303738D01*
X76580952Y-31303738D02*
X76604761Y-31351357D01*
X65647143Y-39072428D02*
X65670952Y-39048619D01*
X65670952Y-39048619D02*
X65718571Y-39024809D01*
X65718571Y-39024809D02*
X65837619Y-39024809D01*
X65837619Y-39024809D02*
X65885238Y-39048619D01*
X65885238Y-39048619D02*
X65909047Y-39072428D01*
X65909047Y-39072428D02*
X65932857Y-39120047D01*
X65932857Y-39120047D02*
X65932857Y-39167666D01*
X65932857Y-39167666D02*
X65909047Y-39239095D01*
X65909047Y-39239095D02*
X65623333Y-39524809D01*
X65623333Y-39524809D02*
X65932857Y-39524809D01*
X66147142Y-39524809D02*
X66147142Y-39024809D01*
X66432856Y-39524809D02*
X66218571Y-39239095D01*
X66432856Y-39024809D02*
X66147142Y-39310523D01*
X63059523Y-36016119D02*
X63059523Y-35016119D01*
X63059523Y-35016119D02*
X63178571Y-35016119D01*
X63178571Y-35016119D02*
X63249999Y-35063738D01*
X63249999Y-35063738D02*
X63297618Y-35158976D01*
X63297618Y-35158976D02*
X63321428Y-35254214D01*
X63321428Y-35254214D02*
X63345237Y-35444690D01*
X63345237Y-35444690D02*
X63345237Y-35587547D01*
X63345237Y-35587547D02*
X63321428Y-35778023D01*
X63321428Y-35778023D02*
X63297618Y-35873261D01*
X63297618Y-35873261D02*
X63249999Y-35968500D01*
X63249999Y-35968500D02*
X63178571Y-36016119D01*
X63178571Y-36016119D02*
X63059523Y-36016119D01*
X63559523Y-35635166D02*
X63940476Y-35635166D01*
X60269525Y-31156119D02*
X60436191Y-32156119D01*
X60436191Y-32156119D02*
X60602858Y-31156119D01*
X60769524Y-32156119D02*
X60769524Y-31156119D01*
X60936191Y-31156119D02*
X61221905Y-31156119D01*
X61079048Y-32156119D02*
X61079048Y-31156119D01*
X61364762Y-31870404D02*
X61602857Y-31870404D01*
X61317143Y-32156119D02*
X61483809Y-31156119D01*
X61483809Y-31156119D02*
X61650476Y-32156119D01*
X73564762Y-40096119D02*
X73326667Y-40096119D01*
X73326667Y-40096119D02*
X73302858Y-40572309D01*
X73302858Y-40572309D02*
X73326667Y-40524690D01*
X73326667Y-40524690D02*
X73374286Y-40477071D01*
X73374286Y-40477071D02*
X73493334Y-40477071D01*
X73493334Y-40477071D02*
X73540953Y-40524690D01*
X73540953Y-40524690D02*
X73564762Y-40572309D01*
X73564762Y-40572309D02*
X73588572Y-40667547D01*
X73588572Y-40667547D02*
X73588572Y-40905642D01*
X73588572Y-40905642D02*
X73564762Y-41000880D01*
X73564762Y-41000880D02*
X73540953Y-41048500D01*
X73540953Y-41048500D02*
X73493334Y-41096119D01*
X73493334Y-41096119D02*
X73374286Y-41096119D01*
X73374286Y-41096119D02*
X73326667Y-41048500D01*
X73326667Y-41048500D02*
X73302858Y-41000880D01*
X73731429Y-40096119D02*
X73898095Y-41096119D01*
X73898095Y-41096119D02*
X74064762Y-40096119D01*
X73576666Y-36016119D02*
X73410000Y-35539928D01*
X73290952Y-36016119D02*
X73290952Y-35016119D01*
X73290952Y-35016119D02*
X73481428Y-35016119D01*
X73481428Y-35016119D02*
X73529047Y-35063738D01*
X73529047Y-35063738D02*
X73552857Y-35111357D01*
X73552857Y-35111357D02*
X73576666Y-35206595D01*
X73576666Y-35206595D02*
X73576666Y-35349452D01*
X73576666Y-35349452D02*
X73552857Y-35444690D01*
X73552857Y-35444690D02*
X73529047Y-35492309D01*
X73529047Y-35492309D02*
X73481428Y-35539928D01*
X73481428Y-35539928D02*
X73290952Y-35539928D01*
X73743333Y-35016119D02*
X74076666Y-36016119D01*
X74076666Y-35016119D02*
X73743333Y-36016119D01*
X71012857Y-33244809D02*
X70727143Y-33244809D01*
X70870000Y-33244809D02*
X70870000Y-32744809D01*
X70870000Y-32744809D02*
X70822381Y-32816238D01*
X70822381Y-32816238D02*
X70774762Y-32863857D01*
X70774762Y-32863857D02*
X70727143Y-32887666D01*
X71227142Y-33244809D02*
X71227142Y-32744809D01*
X71512856Y-33244809D02*
X71298571Y-32959095D01*
X71512856Y-32744809D02*
X71227142Y-33030523D01*
X63059523Y-33476119D02*
X63059523Y-32476119D01*
X63059523Y-32476119D02*
X63178571Y-32476119D01*
X63178571Y-32476119D02*
X63249999Y-32523738D01*
X63249999Y-32523738D02*
X63297618Y-32618976D01*
X63297618Y-32618976D02*
X63321428Y-32714214D01*
X63321428Y-32714214D02*
X63345237Y-32904690D01*
X63345237Y-32904690D02*
X63345237Y-33047547D01*
X63345237Y-33047547D02*
X63321428Y-33238023D01*
X63321428Y-33238023D02*
X63297618Y-33333261D01*
X63297618Y-33333261D02*
X63249999Y-33428500D01*
X63249999Y-33428500D02*
X63178571Y-33476119D01*
X63178571Y-33476119D02*
X63059523Y-33476119D01*
X63559523Y-33095166D02*
X63940476Y-33095166D01*
X63749999Y-33476119D02*
X63749999Y-32714214D01*
X73279047Y-37603738D02*
X73231428Y-37556119D01*
X73231428Y-37556119D02*
X73159999Y-37556119D01*
X73159999Y-37556119D02*
X73088571Y-37603738D01*
X73088571Y-37603738D02*
X73040952Y-37698976D01*
X73040952Y-37698976D02*
X73017142Y-37794214D01*
X73017142Y-37794214D02*
X72993333Y-37984690D01*
X72993333Y-37984690D02*
X72993333Y-38127547D01*
X72993333Y-38127547D02*
X73017142Y-38318023D01*
X73017142Y-38318023D02*
X73040952Y-38413261D01*
X73040952Y-38413261D02*
X73088571Y-38508500D01*
X73088571Y-38508500D02*
X73159999Y-38556119D01*
X73159999Y-38556119D02*
X73207618Y-38556119D01*
X73207618Y-38556119D02*
X73279047Y-38508500D01*
X73279047Y-38508500D02*
X73302856Y-38460880D01*
X73302856Y-38460880D02*
X73302856Y-38127547D01*
X73302856Y-38127547D02*
X73207618Y-38127547D01*
X73517142Y-38556119D02*
X73517142Y-37556119D01*
X73517142Y-37556119D02*
X73802856Y-38556119D01*
X73802856Y-38556119D02*
X73802856Y-37556119D01*
X74040952Y-38556119D02*
X74040952Y-37556119D01*
X74040952Y-37556119D02*
X74160000Y-37556119D01*
X74160000Y-37556119D02*
X74231428Y-37603738D01*
X74231428Y-37603738D02*
X74279047Y-37698976D01*
X74279047Y-37698976D02*
X74302857Y-37794214D01*
X74302857Y-37794214D02*
X74326666Y-37984690D01*
X74326666Y-37984690D02*
X74326666Y-38127547D01*
X74326666Y-38127547D02*
X74302857Y-38318023D01*
X74302857Y-38318023D02*
X74279047Y-38413261D01*
X74279047Y-38413261D02*
X74231428Y-38508500D01*
X74231428Y-38508500D02*
X74160000Y-38556119D01*
X74160000Y-38556119D02*
X74040952Y-38556119D01*
X65932857Y-31924809D02*
X65647143Y-31924809D01*
X65790000Y-31924809D02*
X65790000Y-31424809D01*
X65790000Y-31424809D02*
X65742381Y-31496238D01*
X65742381Y-31496238D02*
X65694762Y-31543857D01*
X65694762Y-31543857D02*
X65647143Y-31567666D01*
X66147142Y-31924809D02*
X66147142Y-31424809D01*
X66432856Y-31924809D02*
X66218571Y-31639095D01*
X66432856Y-31424809D02*
X66147142Y-31710523D01*
X63119047Y-37603738D02*
X63071428Y-37556119D01*
X63071428Y-37556119D02*
X62999999Y-37556119D01*
X62999999Y-37556119D02*
X62928571Y-37603738D01*
X62928571Y-37603738D02*
X62880952Y-37698976D01*
X62880952Y-37698976D02*
X62857142Y-37794214D01*
X62857142Y-37794214D02*
X62833333Y-37984690D01*
X62833333Y-37984690D02*
X62833333Y-38127547D01*
X62833333Y-38127547D02*
X62857142Y-38318023D01*
X62857142Y-38318023D02*
X62880952Y-38413261D01*
X62880952Y-38413261D02*
X62928571Y-38508500D01*
X62928571Y-38508500D02*
X62999999Y-38556119D01*
X62999999Y-38556119D02*
X63047618Y-38556119D01*
X63047618Y-38556119D02*
X63119047Y-38508500D01*
X63119047Y-38508500D02*
X63142856Y-38460880D01*
X63142856Y-38460880D02*
X63142856Y-38127547D01*
X63142856Y-38127547D02*
X63047618Y-38127547D01*
X63357142Y-38556119D02*
X63357142Y-37556119D01*
X63357142Y-37556119D02*
X63642856Y-38556119D01*
X63642856Y-38556119D02*
X63642856Y-37556119D01*
X63880952Y-38556119D02*
X63880952Y-37556119D01*
X63880952Y-37556119D02*
X64000000Y-37556119D01*
X64000000Y-37556119D02*
X64071428Y-37603738D01*
X64071428Y-37603738D02*
X64119047Y-37698976D01*
X64119047Y-37698976D02*
X64142857Y-37794214D01*
X64142857Y-37794214D02*
X64166666Y-37984690D01*
X64166666Y-37984690D02*
X64166666Y-38127547D01*
X64166666Y-38127547D02*
X64142857Y-38318023D01*
X64142857Y-38318023D02*
X64119047Y-38413261D01*
X64119047Y-38413261D02*
X64071428Y-38508500D01*
X64071428Y-38508500D02*
X64000000Y-38556119D01*
X64000000Y-38556119D02*
X63880952Y-38556119D01*
X63250000Y-41096119D02*
X63250000Y-40096119D01*
X63488095Y-41096119D02*
X63488095Y-40096119D01*
X63488095Y-40096119D02*
X63607143Y-40096119D01*
X63607143Y-40096119D02*
X63678571Y-40143738D01*
X63678571Y-40143738D02*
X63726190Y-40238976D01*
X63726190Y-40238976D02*
X63750000Y-40334214D01*
X63750000Y-40334214D02*
X63773809Y-40524690D01*
X63773809Y-40524690D02*
X63773809Y-40667547D01*
X63773809Y-40667547D02*
X63750000Y-40858023D01*
X63750000Y-40858023D02*
X63726190Y-40953261D01*
X63726190Y-40953261D02*
X63678571Y-41048500D01*
X63678571Y-41048500D02*
X63607143Y-41096119D01*
X63607143Y-41096119D02*
X63488095Y-41096119D01*
X70346191Y-37824809D02*
X70679524Y-37824809D01*
X70679524Y-37824809D02*
X70465239Y-38324809D01*
X70870000Y-38277190D02*
X70893810Y-38301000D01*
X70893810Y-38301000D02*
X70870000Y-38324809D01*
X70870000Y-38324809D02*
X70846191Y-38301000D01*
X70846191Y-38301000D02*
X70870000Y-38277190D01*
X70870000Y-38277190D02*
X70870000Y-38324809D01*
X71346190Y-37824809D02*
X71108095Y-37824809D01*
X71108095Y-37824809D02*
X71084286Y-38062904D01*
X71084286Y-38062904D02*
X71108095Y-38039095D01*
X71108095Y-38039095D02*
X71155714Y-38015285D01*
X71155714Y-38015285D02*
X71274762Y-38015285D01*
X71274762Y-38015285D02*
X71322381Y-38039095D01*
X71322381Y-38039095D02*
X71346190Y-38062904D01*
X71346190Y-38062904D02*
X71370000Y-38110523D01*
X71370000Y-38110523D02*
X71370000Y-38229571D01*
X71370000Y-38229571D02*
X71346190Y-38277190D01*
X71346190Y-38277190D02*
X71322381Y-38301000D01*
X71322381Y-38301000D02*
X71274762Y-38324809D01*
X71274762Y-38324809D02*
X71155714Y-38324809D01*
X71155714Y-38324809D02*
X71108095Y-38301000D01*
X71108095Y-38301000D02*
X71084286Y-38277190D01*
X71584285Y-38324809D02*
X71584285Y-37824809D01*
X71869999Y-38324809D02*
X71655714Y-38039095D01*
X71869999Y-37824809D02*
X71584285Y-38110523D01*
D11*
%TO.C,REF\u002A\u002A*%
X70892936Y-38665000D02*
X71347064Y-38665000D01*
X70892936Y-40135000D02*
X71347064Y-40135000D01*
X70892936Y-33565000D02*
X71347064Y-33565000D01*
X70892936Y-35035000D02*
X71347064Y-35035000D01*
X65812936Y-32285000D02*
X66267064Y-32285000D01*
X65812936Y-33755000D02*
X66267064Y-33755000D01*
X65812936Y-39905000D02*
X66267064Y-39905000D01*
X65812936Y-41375000D02*
X66267064Y-41375000D01*
%TD*%
M02*
