%TF.GenerationSoftware,KiCad,Pcbnew,(7.0.0)*%
%TF.CreationDate,2023-03-24T11:34:05+01:00*%
%TF.ProjectId,PCH-1000JIG,5043482d-3130-4303-904a-49472e6b6963,rev?*%
%TF.SameCoordinates,Original*%
%TF.FileFunction,Drillmap*%
%TF.FilePolarity,Positive*%
%FSLAX45Y45*%
G04 Gerber Fmt 4.5, Leading zero omitted, Abs format (unit mm)*
G04 Created by KiCad (PCBNEW (7.0.0)) date 2023-03-24 11:34:05*
%MOMM*%
%LPD*%
G01*
G04 APERTURE LIST*
%ADD10C,0.100000*%
%ADD11C,0.200000*%
G04 APERTURE END LIST*
D10*
X2032000Y-1352000D02*
X9398000Y-1352000D01*
X9398000Y-1352000D02*
X9398000Y-7448000D01*
X9398000Y-7448000D02*
X2032000Y-7448000D01*
X2032000Y-7448000D02*
X2032000Y-1352000D01*
D11*
X2274619Y-7746476D02*
X2274619Y-7546476D01*
X2274619Y-7546476D02*
X2322238Y-7546476D01*
X2322238Y-7546476D02*
X2350810Y-7556000D01*
X2350810Y-7556000D02*
X2369857Y-7575048D01*
X2369857Y-7575048D02*
X2379381Y-7594095D01*
X2379381Y-7594095D02*
X2388905Y-7632190D01*
X2388905Y-7632190D02*
X2388905Y-7660762D01*
X2388905Y-7660762D02*
X2379381Y-7698857D01*
X2379381Y-7698857D02*
X2369857Y-7717905D01*
X2369857Y-7717905D02*
X2350810Y-7736952D01*
X2350810Y-7736952D02*
X2322238Y-7746476D01*
X2322238Y-7746476D02*
X2274619Y-7746476D01*
X2474619Y-7746476D02*
X2474619Y-7613143D01*
X2474619Y-7651238D02*
X2484143Y-7632190D01*
X2484143Y-7632190D02*
X2493667Y-7622667D01*
X2493667Y-7622667D02*
X2512714Y-7613143D01*
X2512714Y-7613143D02*
X2531762Y-7613143D01*
X2598429Y-7746476D02*
X2598429Y-7613143D01*
X2598429Y-7546476D02*
X2588905Y-7556000D01*
X2588905Y-7556000D02*
X2598429Y-7565524D01*
X2598429Y-7565524D02*
X2607952Y-7556000D01*
X2607952Y-7556000D02*
X2598429Y-7546476D01*
X2598429Y-7546476D02*
X2598429Y-7565524D01*
X2722238Y-7746476D02*
X2703190Y-7736952D01*
X2703190Y-7736952D02*
X2693667Y-7717905D01*
X2693667Y-7717905D02*
X2693667Y-7546476D01*
X2827000Y-7746476D02*
X2807952Y-7736952D01*
X2807952Y-7736952D02*
X2798428Y-7717905D01*
X2798428Y-7717905D02*
X2798428Y-7546476D01*
X3023190Y-7746476D02*
X3023190Y-7546476D01*
X3023190Y-7546476D02*
X3089857Y-7689333D01*
X3089857Y-7689333D02*
X3156524Y-7546476D01*
X3156524Y-7546476D02*
X3156524Y-7746476D01*
X3337476Y-7746476D02*
X3337476Y-7641714D01*
X3337476Y-7641714D02*
X3327952Y-7622667D01*
X3327952Y-7622667D02*
X3308905Y-7613143D01*
X3308905Y-7613143D02*
X3270809Y-7613143D01*
X3270809Y-7613143D02*
X3251762Y-7622667D01*
X3337476Y-7736952D02*
X3318428Y-7746476D01*
X3318428Y-7746476D02*
X3270809Y-7746476D01*
X3270809Y-7746476D02*
X3251762Y-7736952D01*
X3251762Y-7736952D02*
X3242238Y-7717905D01*
X3242238Y-7717905D02*
X3242238Y-7698857D01*
X3242238Y-7698857D02*
X3251762Y-7679809D01*
X3251762Y-7679809D02*
X3270809Y-7670286D01*
X3270809Y-7670286D02*
X3318428Y-7670286D01*
X3318428Y-7670286D02*
X3337476Y-7660762D01*
X3432714Y-7613143D02*
X3432714Y-7813143D01*
X3432714Y-7622667D02*
X3451762Y-7613143D01*
X3451762Y-7613143D02*
X3489857Y-7613143D01*
X3489857Y-7613143D02*
X3508905Y-7622667D01*
X3508905Y-7622667D02*
X3518428Y-7632190D01*
X3518428Y-7632190D02*
X3527952Y-7651238D01*
X3527952Y-7651238D02*
X3527952Y-7708381D01*
X3527952Y-7708381D02*
X3518428Y-7727428D01*
X3518428Y-7727428D02*
X3508905Y-7736952D01*
X3508905Y-7736952D02*
X3489857Y-7746476D01*
X3489857Y-7746476D02*
X3451762Y-7746476D01*
X3451762Y-7746476D02*
X3432714Y-7736952D01*
X3613667Y-7727428D02*
X3623190Y-7736952D01*
X3623190Y-7736952D02*
X3613667Y-7746476D01*
X3613667Y-7746476D02*
X3604143Y-7736952D01*
X3604143Y-7736952D02*
X3613667Y-7727428D01*
X3613667Y-7727428D02*
X3613667Y-7746476D01*
X3613667Y-7622667D02*
X3623190Y-7632190D01*
X3623190Y-7632190D02*
X3613667Y-7641714D01*
X3613667Y-7641714D02*
X3604143Y-7632190D01*
X3604143Y-7632190D02*
X3613667Y-7622667D01*
X3613667Y-7622667D02*
X3613667Y-7641714D01*
M02*
