M48
; DRILL file {KiCad (7.0.0)} date Fri Mar 24 11:34:02 2023
; FORMAT={-:-/ absolute / inch / decimal}
; #@! TF.CreationDate,2023-03-24T11:34:02+01:00
; #@! TF.GenerationSoftware,Kicad,Pcbnew,(7.0.0)
; #@! TF.FileFunction,Plated,1,2,PTH
FMAT,2
INCH
; #@! TA.AperFunction,Plated,PTH,ViaDrill
T1C0.0157
; #@! TA.AperFunction,Plated,PTH,ComponentDrill
T2C0.0315
%
G90
G05
T1
X1.0Y-2.3323
X1.1Y-2.3323
X1.2Y-2.3323
X1.7Y-0.8323
X1.8Y-1.3323
X1.8Y-1.3323
X1.8Y-1.5323
X1.8Y-1.5323
X1.8Y-2.2
X2.1Y-2.1323
X2.5Y-1.8323
X2.5Y-2.2323
X2.8Y-2.2323
T2
X1.0Y-2.4323
X1.0Y-2.511
X1.05Y-0.8323
X1.0787Y-2.4323
X1.0787Y-2.511
X1.1Y-1.4323
X1.1575Y-2.4323
X1.1575Y-2.511
X1.2362Y-2.4323
X1.2362Y-2.511
X1.315Y-2.4323
X1.315Y-2.511
X1.55Y-0.8323
X1.6Y-1.4323
X1.9Y-0.8323
X2.4Y-0.8323
X2.8Y-1.4323
X3.3Y-1.4323
T0
M30
