%TF.GenerationSoftware,KiCad,Pcbnew,(7.0.0)*%
%TF.CreationDate,2023-03-24T11:34:11+01:00*%
%TF.ProjectId,PCH-1000JIG,5043482d-3130-4303-904a-49472e6b6963,rev?*%
%TF.SameCoordinates,Original*%
%TF.FileFunction,Legend,Top*%
%TF.FilePolarity,Positive*%
%FSLAX46Y46*%
G04 Gerber Fmt 4.6, Leading zero omitted, Abs format (unit mm)*
G04 Created by KiCad (PCBNEW (7.0.0)) date 2023-03-24 11:34:11*
%MOMM*%
%LPD*%
G01*
G04 APERTURE LIST*
%ADD10C,0.300000*%
%ADD11C,0.150000*%
%ADD12C,0.120000*%
G04 APERTURE END LIST*
D10*
X61317142Y-27723571D02*
X61317142Y-26223571D01*
X61317142Y-26223571D02*
X61888571Y-26223571D01*
X61888571Y-26223571D02*
X62031428Y-26295000D01*
X62031428Y-26295000D02*
X62102857Y-26366428D01*
X62102857Y-26366428D02*
X62174285Y-26509285D01*
X62174285Y-26509285D02*
X62174285Y-26723571D01*
X62174285Y-26723571D02*
X62102857Y-26866428D01*
X62102857Y-26866428D02*
X62031428Y-26937857D01*
X62031428Y-26937857D02*
X61888571Y-27009285D01*
X61888571Y-27009285D02*
X61317142Y-27009285D01*
X63674285Y-27580714D02*
X63602857Y-27652142D01*
X63602857Y-27652142D02*
X63388571Y-27723571D01*
X63388571Y-27723571D02*
X63245714Y-27723571D01*
X63245714Y-27723571D02*
X63031428Y-27652142D01*
X63031428Y-27652142D02*
X62888571Y-27509285D01*
X62888571Y-27509285D02*
X62817142Y-27366428D01*
X62817142Y-27366428D02*
X62745714Y-27080714D01*
X62745714Y-27080714D02*
X62745714Y-26866428D01*
X62745714Y-26866428D02*
X62817142Y-26580714D01*
X62817142Y-26580714D02*
X62888571Y-26437857D01*
X62888571Y-26437857D02*
X63031428Y-26295000D01*
X63031428Y-26295000D02*
X63245714Y-26223571D01*
X63245714Y-26223571D02*
X63388571Y-26223571D01*
X63388571Y-26223571D02*
X63602857Y-26295000D01*
X63602857Y-26295000D02*
X63674285Y-26366428D01*
X64317142Y-27723571D02*
X64317142Y-26223571D01*
X64317142Y-26937857D02*
X65174285Y-26937857D01*
X65174285Y-27723571D02*
X65174285Y-26223571D01*
X65888571Y-27152142D02*
X67031429Y-27152142D01*
X68531429Y-27723571D02*
X67674286Y-27723571D01*
X68102857Y-27723571D02*
X68102857Y-26223571D01*
X68102857Y-26223571D02*
X67960000Y-26437857D01*
X67960000Y-26437857D02*
X67817143Y-26580714D01*
X67817143Y-26580714D02*
X67674286Y-26652142D01*
X69460000Y-26223571D02*
X69602857Y-26223571D01*
X69602857Y-26223571D02*
X69745714Y-26295000D01*
X69745714Y-26295000D02*
X69817143Y-26366428D01*
X69817143Y-26366428D02*
X69888571Y-26509285D01*
X69888571Y-26509285D02*
X69960000Y-26795000D01*
X69960000Y-26795000D02*
X69960000Y-27152142D01*
X69960000Y-27152142D02*
X69888571Y-27437857D01*
X69888571Y-27437857D02*
X69817143Y-27580714D01*
X69817143Y-27580714D02*
X69745714Y-27652142D01*
X69745714Y-27652142D02*
X69602857Y-27723571D01*
X69602857Y-27723571D02*
X69460000Y-27723571D01*
X69460000Y-27723571D02*
X69317143Y-27652142D01*
X69317143Y-27652142D02*
X69245714Y-27580714D01*
X69245714Y-27580714D02*
X69174285Y-27437857D01*
X69174285Y-27437857D02*
X69102857Y-27152142D01*
X69102857Y-27152142D02*
X69102857Y-26795000D01*
X69102857Y-26795000D02*
X69174285Y-26509285D01*
X69174285Y-26509285D02*
X69245714Y-26366428D01*
X69245714Y-26366428D02*
X69317143Y-26295000D01*
X69317143Y-26295000D02*
X69460000Y-26223571D01*
X70888571Y-26223571D02*
X71031428Y-26223571D01*
X71031428Y-26223571D02*
X71174285Y-26295000D01*
X71174285Y-26295000D02*
X71245714Y-26366428D01*
X71245714Y-26366428D02*
X71317142Y-26509285D01*
X71317142Y-26509285D02*
X71388571Y-26795000D01*
X71388571Y-26795000D02*
X71388571Y-27152142D01*
X71388571Y-27152142D02*
X71317142Y-27437857D01*
X71317142Y-27437857D02*
X71245714Y-27580714D01*
X71245714Y-27580714D02*
X71174285Y-27652142D01*
X71174285Y-27652142D02*
X71031428Y-27723571D01*
X71031428Y-27723571D02*
X70888571Y-27723571D01*
X70888571Y-27723571D02*
X70745714Y-27652142D01*
X70745714Y-27652142D02*
X70674285Y-27580714D01*
X70674285Y-27580714D02*
X70602856Y-27437857D01*
X70602856Y-27437857D02*
X70531428Y-27152142D01*
X70531428Y-27152142D02*
X70531428Y-26795000D01*
X70531428Y-26795000D02*
X70602856Y-26509285D01*
X70602856Y-26509285D02*
X70674285Y-26366428D01*
X70674285Y-26366428D02*
X70745714Y-26295000D01*
X70745714Y-26295000D02*
X70888571Y-26223571D01*
X72317142Y-26223571D02*
X72459999Y-26223571D01*
X72459999Y-26223571D02*
X72602856Y-26295000D01*
X72602856Y-26295000D02*
X72674285Y-26366428D01*
X72674285Y-26366428D02*
X72745713Y-26509285D01*
X72745713Y-26509285D02*
X72817142Y-26795000D01*
X72817142Y-26795000D02*
X72817142Y-27152142D01*
X72817142Y-27152142D02*
X72745713Y-27437857D01*
X72745713Y-27437857D02*
X72674285Y-27580714D01*
X72674285Y-27580714D02*
X72602856Y-27652142D01*
X72602856Y-27652142D02*
X72459999Y-27723571D01*
X72459999Y-27723571D02*
X72317142Y-27723571D01*
X72317142Y-27723571D02*
X72174285Y-27652142D01*
X72174285Y-27652142D02*
X72102856Y-27580714D01*
X72102856Y-27580714D02*
X72031427Y-27437857D01*
X72031427Y-27437857D02*
X71959999Y-27152142D01*
X71959999Y-27152142D02*
X71959999Y-26795000D01*
X71959999Y-26795000D02*
X72031427Y-26509285D01*
X72031427Y-26509285D02*
X72102856Y-26366428D01*
X72102856Y-26366428D02*
X72174285Y-26295000D01*
X72174285Y-26295000D02*
X72317142Y-26223571D01*
X74788570Y-26223571D02*
X74788570Y-27295000D01*
X74788570Y-27295000D02*
X74717141Y-27509285D01*
X74717141Y-27509285D02*
X74574284Y-27652142D01*
X74574284Y-27652142D02*
X74359998Y-27723571D01*
X74359998Y-27723571D02*
X74217141Y-27723571D01*
X75502855Y-27723571D02*
X75502855Y-26223571D01*
X77002856Y-26295000D02*
X76859999Y-26223571D01*
X76859999Y-26223571D02*
X76645713Y-26223571D01*
X76645713Y-26223571D02*
X76431427Y-26295000D01*
X76431427Y-26295000D02*
X76288570Y-26437857D01*
X76288570Y-26437857D02*
X76217141Y-26580714D01*
X76217141Y-26580714D02*
X76145713Y-26866428D01*
X76145713Y-26866428D02*
X76145713Y-27080714D01*
X76145713Y-27080714D02*
X76217141Y-27366428D01*
X76217141Y-27366428D02*
X76288570Y-27509285D01*
X76288570Y-27509285D02*
X76431427Y-27652142D01*
X76431427Y-27652142D02*
X76645713Y-27723571D01*
X76645713Y-27723571D02*
X76788570Y-27723571D01*
X76788570Y-27723571D02*
X77002856Y-27652142D01*
X77002856Y-27652142D02*
X77074284Y-27580714D01*
X77074284Y-27580714D02*
X77074284Y-27080714D01*
X77074284Y-27080714D02*
X76788570Y-27080714D01*
X79117141Y-26937857D02*
X79331427Y-27009285D01*
X79331427Y-27009285D02*
X79402856Y-27080714D01*
X79402856Y-27080714D02*
X79474284Y-27223571D01*
X79474284Y-27223571D02*
X79474284Y-27437857D01*
X79474284Y-27437857D02*
X79402856Y-27580714D01*
X79402856Y-27580714D02*
X79331427Y-27652142D01*
X79331427Y-27652142D02*
X79188570Y-27723571D01*
X79188570Y-27723571D02*
X78617141Y-27723571D01*
X78617141Y-27723571D02*
X78617141Y-26223571D01*
X78617141Y-26223571D02*
X79117141Y-26223571D01*
X79117141Y-26223571D02*
X79259999Y-26295000D01*
X79259999Y-26295000D02*
X79331427Y-26366428D01*
X79331427Y-26366428D02*
X79402856Y-26509285D01*
X79402856Y-26509285D02*
X79402856Y-26652142D01*
X79402856Y-26652142D02*
X79331427Y-26795000D01*
X79331427Y-26795000D02*
X79259999Y-26866428D01*
X79259999Y-26866428D02*
X79117141Y-26937857D01*
X79117141Y-26937857D02*
X78617141Y-26937857D01*
X80402856Y-26223571D02*
X80688570Y-26223571D01*
X80688570Y-26223571D02*
X80831427Y-26295000D01*
X80831427Y-26295000D02*
X80974284Y-26437857D01*
X80974284Y-26437857D02*
X81045713Y-26723571D01*
X81045713Y-26723571D02*
X81045713Y-27223571D01*
X81045713Y-27223571D02*
X80974284Y-27509285D01*
X80974284Y-27509285D02*
X80831427Y-27652142D01*
X80831427Y-27652142D02*
X80688570Y-27723571D01*
X80688570Y-27723571D02*
X80402856Y-27723571D01*
X80402856Y-27723571D02*
X80259999Y-27652142D01*
X80259999Y-27652142D02*
X80117141Y-27509285D01*
X80117141Y-27509285D02*
X80045713Y-27223571D01*
X80045713Y-27223571D02*
X80045713Y-26723571D01*
X80045713Y-26723571D02*
X80117141Y-26437857D01*
X80117141Y-26437857D02*
X80259999Y-26295000D01*
X80259999Y-26295000D02*
X80402856Y-26223571D01*
X81617142Y-27295000D02*
X82331428Y-27295000D01*
X81474285Y-27723571D02*
X81974285Y-26223571D01*
X81974285Y-26223571D02*
X82474285Y-27723571D01*
X83831427Y-27723571D02*
X83331427Y-27009285D01*
X82974284Y-27723571D02*
X82974284Y-26223571D01*
X82974284Y-26223571D02*
X83545713Y-26223571D01*
X83545713Y-26223571D02*
X83688570Y-26295000D01*
X83688570Y-26295000D02*
X83759999Y-26366428D01*
X83759999Y-26366428D02*
X83831427Y-26509285D01*
X83831427Y-26509285D02*
X83831427Y-26723571D01*
X83831427Y-26723571D02*
X83759999Y-26866428D01*
X83759999Y-26866428D02*
X83688570Y-26937857D01*
X83688570Y-26937857D02*
X83545713Y-27009285D01*
X83545713Y-27009285D02*
X82974284Y-27009285D01*
X84474284Y-27723571D02*
X84474284Y-26223571D01*
X84474284Y-26223571D02*
X84831427Y-26223571D01*
X84831427Y-26223571D02*
X85045713Y-26295000D01*
X85045713Y-26295000D02*
X85188570Y-26437857D01*
X85188570Y-26437857D02*
X85259999Y-26580714D01*
X85259999Y-26580714D02*
X85331427Y-26866428D01*
X85331427Y-26866428D02*
X85331427Y-27080714D01*
X85331427Y-27080714D02*
X85259999Y-27366428D01*
X85259999Y-27366428D02*
X85188570Y-27509285D01*
X85188570Y-27509285D02*
X85045713Y-27652142D01*
X85045713Y-27652142D02*
X84831427Y-27723571D01*
X84831427Y-27723571D02*
X84474284Y-27723571D01*
X87659999Y-27723571D02*
X86802856Y-27723571D01*
X87231427Y-27723571D02*
X87231427Y-26223571D01*
X87231427Y-26223571D02*
X87088570Y-26437857D01*
X87088570Y-26437857D02*
X86945713Y-26580714D01*
X86945713Y-26580714D02*
X86802856Y-26652142D01*
X88302855Y-27580714D02*
X88374284Y-27652142D01*
X88374284Y-27652142D02*
X88302855Y-27723571D01*
X88302855Y-27723571D02*
X88231427Y-27652142D01*
X88231427Y-27652142D02*
X88302855Y-27580714D01*
X88302855Y-27580714D02*
X88302855Y-27723571D01*
X88874284Y-26223571D02*
X89802856Y-26223571D01*
X89802856Y-26223571D02*
X89302856Y-26795000D01*
X89302856Y-26795000D02*
X89517141Y-26795000D01*
X89517141Y-26795000D02*
X89659999Y-26866428D01*
X89659999Y-26866428D02*
X89731427Y-26937857D01*
X89731427Y-26937857D02*
X89802856Y-27080714D01*
X89802856Y-27080714D02*
X89802856Y-27437857D01*
X89802856Y-27437857D02*
X89731427Y-27580714D01*
X89731427Y-27580714D02*
X89659999Y-27652142D01*
X89659999Y-27652142D02*
X89517141Y-27723571D01*
X89517141Y-27723571D02*
X89088570Y-27723571D01*
X89088570Y-27723571D02*
X88945713Y-27652142D01*
X88945713Y-27652142D02*
X88874284Y-27580714D01*
X61817142Y-29367857D02*
X62031428Y-29439285D01*
X62031428Y-29439285D02*
X62102857Y-29510714D01*
X62102857Y-29510714D02*
X62174285Y-29653571D01*
X62174285Y-29653571D02*
X62174285Y-29867857D01*
X62174285Y-29867857D02*
X62102857Y-30010714D01*
X62102857Y-30010714D02*
X62031428Y-30082142D01*
X62031428Y-30082142D02*
X61888571Y-30153571D01*
X61888571Y-30153571D02*
X61317142Y-30153571D01*
X61317142Y-30153571D02*
X61317142Y-28653571D01*
X61317142Y-28653571D02*
X61817142Y-28653571D01*
X61817142Y-28653571D02*
X61960000Y-28725000D01*
X61960000Y-28725000D02*
X62031428Y-28796428D01*
X62031428Y-28796428D02*
X62102857Y-28939285D01*
X62102857Y-28939285D02*
X62102857Y-29082142D01*
X62102857Y-29082142D02*
X62031428Y-29225000D01*
X62031428Y-29225000D02*
X61960000Y-29296428D01*
X61960000Y-29296428D02*
X61817142Y-29367857D01*
X61817142Y-29367857D02*
X61317142Y-29367857D01*
X62674285Y-29153571D02*
X63031428Y-30153571D01*
X63388571Y-29153571D02*
X63031428Y-30153571D01*
X63031428Y-30153571D02*
X62888571Y-30510714D01*
X62888571Y-30510714D02*
X62817142Y-30582142D01*
X62817142Y-30582142D02*
X62674285Y-30653571D01*
X64859999Y-30153571D02*
X64859999Y-28653571D01*
X64859999Y-28653571D02*
X65359999Y-29725000D01*
X65359999Y-29725000D02*
X65859999Y-28653571D01*
X65859999Y-28653571D02*
X65859999Y-30153571D01*
X67217143Y-30153571D02*
X67217143Y-29367857D01*
X67217143Y-29367857D02*
X67145714Y-29225000D01*
X67145714Y-29225000D02*
X67002857Y-29153571D01*
X67002857Y-29153571D02*
X66717143Y-29153571D01*
X66717143Y-29153571D02*
X66574285Y-29225000D01*
X67217143Y-30082142D02*
X67074285Y-30153571D01*
X67074285Y-30153571D02*
X66717143Y-30153571D01*
X66717143Y-30153571D02*
X66574285Y-30082142D01*
X66574285Y-30082142D02*
X66502857Y-29939285D01*
X66502857Y-29939285D02*
X66502857Y-29796428D01*
X66502857Y-29796428D02*
X66574285Y-29653571D01*
X66574285Y-29653571D02*
X66717143Y-29582142D01*
X66717143Y-29582142D02*
X67074285Y-29582142D01*
X67074285Y-29582142D02*
X67217143Y-29510714D01*
X67717143Y-29153571D02*
X68288571Y-29153571D01*
X67931428Y-28653571D02*
X67931428Y-29939285D01*
X67931428Y-29939285D02*
X68002857Y-30082142D01*
X68002857Y-30082142D02*
X68145714Y-30153571D01*
X68145714Y-30153571D02*
X68288571Y-30153571D01*
X68788571Y-30153571D02*
X68788571Y-28653571D01*
X69431429Y-30153571D02*
X69431429Y-29367857D01*
X69431429Y-29367857D02*
X69360000Y-29225000D01*
X69360000Y-29225000D02*
X69217143Y-29153571D01*
X69217143Y-29153571D02*
X69002857Y-29153571D01*
X69002857Y-29153571D02*
X68860000Y-29225000D01*
X68860000Y-29225000D02*
X68788571Y-29296428D01*
X70145714Y-30153571D02*
X70145714Y-29153571D01*
X70145714Y-28653571D02*
X70074286Y-28725000D01*
X70074286Y-28725000D02*
X70145714Y-28796428D01*
X70145714Y-28796428D02*
X70217143Y-28725000D01*
X70217143Y-28725000D02*
X70145714Y-28653571D01*
X70145714Y-28653571D02*
X70145714Y-28796428D01*
X71431429Y-30082142D02*
X71288572Y-30153571D01*
X71288572Y-30153571D02*
X71002858Y-30153571D01*
X71002858Y-30153571D02*
X70860000Y-30082142D01*
X70860000Y-30082142D02*
X70788572Y-29939285D01*
X70788572Y-29939285D02*
X70788572Y-29367857D01*
X70788572Y-29367857D02*
X70860000Y-29225000D01*
X70860000Y-29225000D02*
X71002858Y-29153571D01*
X71002858Y-29153571D02*
X71288572Y-29153571D01*
X71288572Y-29153571D02*
X71431429Y-29225000D01*
X71431429Y-29225000D02*
X71502858Y-29367857D01*
X71502858Y-29367857D02*
X71502858Y-29510714D01*
X71502858Y-29510714D02*
X70788572Y-29653571D01*
X72788572Y-29153571D02*
X72788572Y-30153571D01*
X72145714Y-29153571D02*
X72145714Y-29939285D01*
X72145714Y-29939285D02*
X72217143Y-30082142D01*
X72217143Y-30082142D02*
X72360000Y-30153571D01*
X72360000Y-30153571D02*
X72574286Y-30153571D01*
X72574286Y-30153571D02*
X72717143Y-30082142D01*
X72717143Y-30082142D02*
X72788572Y-30010714D01*
X73717143Y-30153571D02*
X73574286Y-30082142D01*
X73574286Y-30082142D02*
X73502857Y-29939285D01*
X73502857Y-29939285D02*
X73502857Y-28653571D01*
X74288571Y-30153571D02*
X74288571Y-28653571D01*
X74931429Y-30153571D02*
X74931429Y-29367857D01*
X74931429Y-29367857D02*
X74860000Y-29225000D01*
X74860000Y-29225000D02*
X74717143Y-29153571D01*
X74717143Y-29153571D02*
X74502857Y-29153571D01*
X74502857Y-29153571D02*
X74360000Y-29225000D01*
X74360000Y-29225000D02*
X74288571Y-29296428D01*
D11*
%TO.C,3v3 VCC*%
X45340952Y-48989380D02*
X45959999Y-48989380D01*
X45959999Y-48989380D02*
X45626666Y-49370333D01*
X45626666Y-49370333D02*
X45769523Y-49370333D01*
X45769523Y-49370333D02*
X45864761Y-49417952D01*
X45864761Y-49417952D02*
X45912380Y-49465571D01*
X45912380Y-49465571D02*
X45959999Y-49560809D01*
X45959999Y-49560809D02*
X45959999Y-49798904D01*
X45959999Y-49798904D02*
X45912380Y-49894142D01*
X45912380Y-49894142D02*
X45864761Y-49941761D01*
X45864761Y-49941761D02*
X45769523Y-49989380D01*
X45769523Y-49989380D02*
X45483809Y-49989380D01*
X45483809Y-49989380D02*
X45388571Y-49941761D01*
X45388571Y-49941761D02*
X45340952Y-49894142D01*
X46293333Y-49322714D02*
X46531428Y-49989380D01*
X46531428Y-49989380D02*
X46769523Y-49322714D01*
X47055238Y-48989380D02*
X47674285Y-48989380D01*
X47674285Y-48989380D02*
X47340952Y-49370333D01*
X47340952Y-49370333D02*
X47483809Y-49370333D01*
X47483809Y-49370333D02*
X47579047Y-49417952D01*
X47579047Y-49417952D02*
X47626666Y-49465571D01*
X47626666Y-49465571D02*
X47674285Y-49560809D01*
X47674285Y-49560809D02*
X47674285Y-49798904D01*
X47674285Y-49798904D02*
X47626666Y-49894142D01*
X47626666Y-49894142D02*
X47579047Y-49941761D01*
X47579047Y-49941761D02*
X47483809Y-49989380D01*
X47483809Y-49989380D02*
X47198095Y-49989380D01*
X47198095Y-49989380D02*
X47102857Y-49941761D01*
X47102857Y-49941761D02*
X47055238Y-49894142D01*
X48560000Y-48989380D02*
X48893333Y-49989380D01*
X48893333Y-49989380D02*
X49226666Y-48989380D01*
X50131428Y-49894142D02*
X50083809Y-49941761D01*
X50083809Y-49941761D02*
X49940952Y-49989380D01*
X49940952Y-49989380D02*
X49845714Y-49989380D01*
X49845714Y-49989380D02*
X49702857Y-49941761D01*
X49702857Y-49941761D02*
X49607619Y-49846523D01*
X49607619Y-49846523D02*
X49560000Y-49751285D01*
X49560000Y-49751285D02*
X49512381Y-49560809D01*
X49512381Y-49560809D02*
X49512381Y-49417952D01*
X49512381Y-49417952D02*
X49560000Y-49227476D01*
X49560000Y-49227476D02*
X49607619Y-49132238D01*
X49607619Y-49132238D02*
X49702857Y-49037000D01*
X49702857Y-49037000D02*
X49845714Y-48989380D01*
X49845714Y-48989380D02*
X49940952Y-48989380D01*
X49940952Y-48989380D02*
X50083809Y-49037000D01*
X50083809Y-49037000D02*
X50131428Y-49084619D01*
X51131428Y-49894142D02*
X51083809Y-49941761D01*
X51083809Y-49941761D02*
X50940952Y-49989380D01*
X50940952Y-49989380D02*
X50845714Y-49989380D01*
X50845714Y-49989380D02*
X50702857Y-49941761D01*
X50702857Y-49941761D02*
X50607619Y-49846523D01*
X50607619Y-49846523D02*
X50560000Y-49751285D01*
X50560000Y-49751285D02*
X50512381Y-49560809D01*
X50512381Y-49560809D02*
X50512381Y-49417952D01*
X50512381Y-49417952D02*
X50560000Y-49227476D01*
X50560000Y-49227476D02*
X50607619Y-49132238D01*
X50607619Y-49132238D02*
X50702857Y-49037000D01*
X50702857Y-49037000D02*
X50845714Y-48989380D01*
X50845714Y-48989380D02*
X50940952Y-48989380D01*
X50940952Y-48989380D02*
X51083809Y-49037000D01*
X51083809Y-49037000D02*
X51131428Y-49084619D01*
%TO.C,1k Ohms*%
X31823333Y-34027380D02*
X31251905Y-34027380D01*
X31537619Y-34027380D02*
X31537619Y-33027380D01*
X31537619Y-33027380D02*
X31442381Y-33170238D01*
X31442381Y-33170238D02*
X31347143Y-33265476D01*
X31347143Y-33265476D02*
X31251905Y-33313095D01*
X32251905Y-34027380D02*
X32251905Y-33027380D01*
X32347143Y-33646428D02*
X32632857Y-34027380D01*
X32632857Y-33360714D02*
X32251905Y-33741666D01*
X33851905Y-33027380D02*
X34042381Y-33027380D01*
X34042381Y-33027380D02*
X34137619Y-33075000D01*
X34137619Y-33075000D02*
X34232857Y-33170238D01*
X34232857Y-33170238D02*
X34280476Y-33360714D01*
X34280476Y-33360714D02*
X34280476Y-33694047D01*
X34280476Y-33694047D02*
X34232857Y-33884523D01*
X34232857Y-33884523D02*
X34137619Y-33979761D01*
X34137619Y-33979761D02*
X34042381Y-34027380D01*
X34042381Y-34027380D02*
X33851905Y-34027380D01*
X33851905Y-34027380D02*
X33756667Y-33979761D01*
X33756667Y-33979761D02*
X33661429Y-33884523D01*
X33661429Y-33884523D02*
X33613810Y-33694047D01*
X33613810Y-33694047D02*
X33613810Y-33360714D01*
X33613810Y-33360714D02*
X33661429Y-33170238D01*
X33661429Y-33170238D02*
X33756667Y-33075000D01*
X33756667Y-33075000D02*
X33851905Y-33027380D01*
X34709048Y-34027380D02*
X34709048Y-33027380D01*
X35137619Y-34027380D02*
X35137619Y-33503571D01*
X35137619Y-33503571D02*
X35090000Y-33408333D01*
X35090000Y-33408333D02*
X34994762Y-33360714D01*
X34994762Y-33360714D02*
X34851905Y-33360714D01*
X34851905Y-33360714D02*
X34756667Y-33408333D01*
X34756667Y-33408333D02*
X34709048Y-33455952D01*
X35613810Y-34027380D02*
X35613810Y-33360714D01*
X35613810Y-33455952D02*
X35661429Y-33408333D01*
X35661429Y-33408333D02*
X35756667Y-33360714D01*
X35756667Y-33360714D02*
X35899524Y-33360714D01*
X35899524Y-33360714D02*
X35994762Y-33408333D01*
X35994762Y-33408333D02*
X36042381Y-33503571D01*
X36042381Y-33503571D02*
X36042381Y-34027380D01*
X36042381Y-33503571D02*
X36090000Y-33408333D01*
X36090000Y-33408333D02*
X36185238Y-33360714D01*
X36185238Y-33360714D02*
X36328095Y-33360714D01*
X36328095Y-33360714D02*
X36423334Y-33408333D01*
X36423334Y-33408333D02*
X36470953Y-33503571D01*
X36470953Y-33503571D02*
X36470953Y-34027380D01*
X36899524Y-33979761D02*
X36994762Y-34027380D01*
X36994762Y-34027380D02*
X37185238Y-34027380D01*
X37185238Y-34027380D02*
X37280476Y-33979761D01*
X37280476Y-33979761D02*
X37328095Y-33884523D01*
X37328095Y-33884523D02*
X37328095Y-33836904D01*
X37328095Y-33836904D02*
X37280476Y-33741666D01*
X37280476Y-33741666D02*
X37185238Y-33694047D01*
X37185238Y-33694047D02*
X37042381Y-33694047D01*
X37042381Y-33694047D02*
X36947143Y-33646428D01*
X36947143Y-33646428D02*
X36899524Y-33551190D01*
X36899524Y-33551190D02*
X36899524Y-33503571D01*
X36899524Y-33503571D02*
X36947143Y-33408333D01*
X36947143Y-33408333D02*
X37042381Y-33360714D01*
X37042381Y-33360714D02*
X37185238Y-33360714D01*
X37185238Y-33360714D02*
X37280476Y-33408333D01*
%TO.C,Pin Header*%
X23707380Y-66627618D02*
X22707380Y-66627618D01*
X22707380Y-66627618D02*
X22707380Y-66246666D01*
X22707380Y-66246666D02*
X22755000Y-66151428D01*
X22755000Y-66151428D02*
X22802619Y-66103809D01*
X22802619Y-66103809D02*
X22897857Y-66056190D01*
X22897857Y-66056190D02*
X23040714Y-66056190D01*
X23040714Y-66056190D02*
X23135952Y-66103809D01*
X23135952Y-66103809D02*
X23183571Y-66151428D01*
X23183571Y-66151428D02*
X23231190Y-66246666D01*
X23231190Y-66246666D02*
X23231190Y-66627618D01*
X23707380Y-65627618D02*
X23040714Y-65627618D01*
X22707380Y-65627618D02*
X22755000Y-65675237D01*
X22755000Y-65675237D02*
X22802619Y-65627618D01*
X22802619Y-65627618D02*
X22755000Y-65579999D01*
X22755000Y-65579999D02*
X22707380Y-65627618D01*
X22707380Y-65627618D02*
X22802619Y-65627618D01*
X23040714Y-65151428D02*
X23707380Y-65151428D01*
X23135952Y-65151428D02*
X23088333Y-65103809D01*
X23088333Y-65103809D02*
X23040714Y-65008571D01*
X23040714Y-65008571D02*
X23040714Y-64865714D01*
X23040714Y-64865714D02*
X23088333Y-64770476D01*
X23088333Y-64770476D02*
X23183571Y-64722857D01*
X23183571Y-64722857D02*
X23707380Y-64722857D01*
X23707380Y-63646666D02*
X22707380Y-63646666D01*
X23183571Y-63646666D02*
X23183571Y-63075238D01*
X23707380Y-63075238D02*
X22707380Y-63075238D01*
X23659761Y-62218095D02*
X23707380Y-62313333D01*
X23707380Y-62313333D02*
X23707380Y-62503809D01*
X23707380Y-62503809D02*
X23659761Y-62599047D01*
X23659761Y-62599047D02*
X23564523Y-62646666D01*
X23564523Y-62646666D02*
X23183571Y-62646666D01*
X23183571Y-62646666D02*
X23088333Y-62599047D01*
X23088333Y-62599047D02*
X23040714Y-62503809D01*
X23040714Y-62503809D02*
X23040714Y-62313333D01*
X23040714Y-62313333D02*
X23088333Y-62218095D01*
X23088333Y-62218095D02*
X23183571Y-62170476D01*
X23183571Y-62170476D02*
X23278809Y-62170476D01*
X23278809Y-62170476D02*
X23374047Y-62646666D01*
X23707380Y-61313333D02*
X23183571Y-61313333D01*
X23183571Y-61313333D02*
X23088333Y-61360952D01*
X23088333Y-61360952D02*
X23040714Y-61456190D01*
X23040714Y-61456190D02*
X23040714Y-61646666D01*
X23040714Y-61646666D02*
X23088333Y-61741904D01*
X23659761Y-61313333D02*
X23707380Y-61408571D01*
X23707380Y-61408571D02*
X23707380Y-61646666D01*
X23707380Y-61646666D02*
X23659761Y-61741904D01*
X23659761Y-61741904D02*
X23564523Y-61789523D01*
X23564523Y-61789523D02*
X23469285Y-61789523D01*
X23469285Y-61789523D02*
X23374047Y-61741904D01*
X23374047Y-61741904D02*
X23326428Y-61646666D01*
X23326428Y-61646666D02*
X23326428Y-61408571D01*
X23326428Y-61408571D02*
X23278809Y-61313333D01*
X23707380Y-60408571D02*
X22707380Y-60408571D01*
X23659761Y-60408571D02*
X23707380Y-60503809D01*
X23707380Y-60503809D02*
X23707380Y-60694285D01*
X23707380Y-60694285D02*
X23659761Y-60789523D01*
X23659761Y-60789523D02*
X23612142Y-60837142D01*
X23612142Y-60837142D02*
X23516904Y-60884761D01*
X23516904Y-60884761D02*
X23231190Y-60884761D01*
X23231190Y-60884761D02*
X23135952Y-60837142D01*
X23135952Y-60837142D02*
X23088333Y-60789523D01*
X23088333Y-60789523D02*
X23040714Y-60694285D01*
X23040714Y-60694285D02*
X23040714Y-60503809D01*
X23040714Y-60503809D02*
X23088333Y-60408571D01*
X23659761Y-59551428D02*
X23707380Y-59646666D01*
X23707380Y-59646666D02*
X23707380Y-59837142D01*
X23707380Y-59837142D02*
X23659761Y-59932380D01*
X23659761Y-59932380D02*
X23564523Y-59979999D01*
X23564523Y-59979999D02*
X23183571Y-59979999D01*
X23183571Y-59979999D02*
X23088333Y-59932380D01*
X23088333Y-59932380D02*
X23040714Y-59837142D01*
X23040714Y-59837142D02*
X23040714Y-59646666D01*
X23040714Y-59646666D02*
X23088333Y-59551428D01*
X23088333Y-59551428D02*
X23183571Y-59503809D01*
X23183571Y-59503809D02*
X23278809Y-59503809D01*
X23278809Y-59503809D02*
X23374047Y-59979999D01*
X23707380Y-59075237D02*
X23040714Y-59075237D01*
X23231190Y-59075237D02*
X23135952Y-59027618D01*
X23135952Y-59027618D02*
X23088333Y-58979999D01*
X23088333Y-58979999D02*
X23040714Y-58884761D01*
X23040714Y-58884761D02*
X23040714Y-58789523D01*
%TO.C,1k Ohms*%
X30553333Y-18787380D02*
X29981905Y-18787380D01*
X30267619Y-18787380D02*
X30267619Y-17787380D01*
X30267619Y-17787380D02*
X30172381Y-17930238D01*
X30172381Y-17930238D02*
X30077143Y-18025476D01*
X30077143Y-18025476D02*
X29981905Y-18073095D01*
X30981905Y-18787380D02*
X30981905Y-17787380D01*
X31077143Y-18406428D02*
X31362857Y-18787380D01*
X31362857Y-18120714D02*
X30981905Y-18501666D01*
X32581905Y-17787380D02*
X32772381Y-17787380D01*
X32772381Y-17787380D02*
X32867619Y-17835000D01*
X32867619Y-17835000D02*
X32962857Y-17930238D01*
X32962857Y-17930238D02*
X33010476Y-18120714D01*
X33010476Y-18120714D02*
X33010476Y-18454047D01*
X33010476Y-18454047D02*
X32962857Y-18644523D01*
X32962857Y-18644523D02*
X32867619Y-18739761D01*
X32867619Y-18739761D02*
X32772381Y-18787380D01*
X32772381Y-18787380D02*
X32581905Y-18787380D01*
X32581905Y-18787380D02*
X32486667Y-18739761D01*
X32486667Y-18739761D02*
X32391429Y-18644523D01*
X32391429Y-18644523D02*
X32343810Y-18454047D01*
X32343810Y-18454047D02*
X32343810Y-18120714D01*
X32343810Y-18120714D02*
X32391429Y-17930238D01*
X32391429Y-17930238D02*
X32486667Y-17835000D01*
X32486667Y-17835000D02*
X32581905Y-17787380D01*
X33439048Y-18787380D02*
X33439048Y-17787380D01*
X33867619Y-18787380D02*
X33867619Y-18263571D01*
X33867619Y-18263571D02*
X33820000Y-18168333D01*
X33820000Y-18168333D02*
X33724762Y-18120714D01*
X33724762Y-18120714D02*
X33581905Y-18120714D01*
X33581905Y-18120714D02*
X33486667Y-18168333D01*
X33486667Y-18168333D02*
X33439048Y-18215952D01*
X34343810Y-18787380D02*
X34343810Y-18120714D01*
X34343810Y-18215952D02*
X34391429Y-18168333D01*
X34391429Y-18168333D02*
X34486667Y-18120714D01*
X34486667Y-18120714D02*
X34629524Y-18120714D01*
X34629524Y-18120714D02*
X34724762Y-18168333D01*
X34724762Y-18168333D02*
X34772381Y-18263571D01*
X34772381Y-18263571D02*
X34772381Y-18787380D01*
X34772381Y-18263571D02*
X34820000Y-18168333D01*
X34820000Y-18168333D02*
X34915238Y-18120714D01*
X34915238Y-18120714D02*
X35058095Y-18120714D01*
X35058095Y-18120714D02*
X35153334Y-18168333D01*
X35153334Y-18168333D02*
X35200953Y-18263571D01*
X35200953Y-18263571D02*
X35200953Y-18787380D01*
X35629524Y-18739761D02*
X35724762Y-18787380D01*
X35724762Y-18787380D02*
X35915238Y-18787380D01*
X35915238Y-18787380D02*
X36010476Y-18739761D01*
X36010476Y-18739761D02*
X36058095Y-18644523D01*
X36058095Y-18644523D02*
X36058095Y-18596904D01*
X36058095Y-18596904D02*
X36010476Y-18501666D01*
X36010476Y-18501666D02*
X35915238Y-18454047D01*
X35915238Y-18454047D02*
X35772381Y-18454047D01*
X35772381Y-18454047D02*
X35677143Y-18406428D01*
X35677143Y-18406428D02*
X35629524Y-18311190D01*
X35629524Y-18311190D02*
X35629524Y-18263571D01*
X35629524Y-18263571D02*
X35677143Y-18168333D01*
X35677143Y-18168333D02*
X35772381Y-18120714D01*
X35772381Y-18120714D02*
X35915238Y-18120714D01*
X35915238Y-18120714D02*
X36010476Y-18168333D01*
%TO.C,Vita TX/7*%
X52413333Y-48989380D02*
X52746666Y-49989380D01*
X52746666Y-49989380D02*
X53079999Y-48989380D01*
X53413333Y-49989380D02*
X53413333Y-49322714D01*
X53413333Y-48989380D02*
X53365714Y-49037000D01*
X53365714Y-49037000D02*
X53413333Y-49084619D01*
X53413333Y-49084619D02*
X53460952Y-49037000D01*
X53460952Y-49037000D02*
X53413333Y-48989380D01*
X53413333Y-48989380D02*
X53413333Y-49084619D01*
X53746666Y-49322714D02*
X54127618Y-49322714D01*
X53889523Y-48989380D02*
X53889523Y-49846523D01*
X53889523Y-49846523D02*
X53937142Y-49941761D01*
X53937142Y-49941761D02*
X54032380Y-49989380D01*
X54032380Y-49989380D02*
X54127618Y-49989380D01*
X54889523Y-49989380D02*
X54889523Y-49465571D01*
X54889523Y-49465571D02*
X54841904Y-49370333D01*
X54841904Y-49370333D02*
X54746666Y-49322714D01*
X54746666Y-49322714D02*
X54556190Y-49322714D01*
X54556190Y-49322714D02*
X54460952Y-49370333D01*
X54889523Y-49941761D02*
X54794285Y-49989380D01*
X54794285Y-49989380D02*
X54556190Y-49989380D01*
X54556190Y-49989380D02*
X54460952Y-49941761D01*
X54460952Y-49941761D02*
X54413333Y-49846523D01*
X54413333Y-49846523D02*
X54413333Y-49751285D01*
X54413333Y-49751285D02*
X54460952Y-49656047D01*
X54460952Y-49656047D02*
X54556190Y-49608428D01*
X54556190Y-49608428D02*
X54794285Y-49608428D01*
X54794285Y-49608428D02*
X54889523Y-49560809D01*
X55822857Y-48989380D02*
X56394285Y-48989380D01*
X56108571Y-49989380D02*
X56108571Y-48989380D01*
X56632381Y-48989380D02*
X57299047Y-49989380D01*
X57299047Y-48989380D02*
X56632381Y-49989380D01*
X58394285Y-48941761D02*
X57537143Y-50227476D01*
X58632381Y-48989380D02*
X59299047Y-48989380D01*
X59299047Y-48989380D02*
X58870476Y-49989380D01*
%TO.C,PC RX*%
X23361905Y-49989380D02*
X23361905Y-48989380D01*
X23361905Y-48989380D02*
X23742857Y-48989380D01*
X23742857Y-48989380D02*
X23838095Y-49037000D01*
X23838095Y-49037000D02*
X23885714Y-49084619D01*
X23885714Y-49084619D02*
X23933333Y-49179857D01*
X23933333Y-49179857D02*
X23933333Y-49322714D01*
X23933333Y-49322714D02*
X23885714Y-49417952D01*
X23885714Y-49417952D02*
X23838095Y-49465571D01*
X23838095Y-49465571D02*
X23742857Y-49513190D01*
X23742857Y-49513190D02*
X23361905Y-49513190D01*
X24933333Y-49894142D02*
X24885714Y-49941761D01*
X24885714Y-49941761D02*
X24742857Y-49989380D01*
X24742857Y-49989380D02*
X24647619Y-49989380D01*
X24647619Y-49989380D02*
X24504762Y-49941761D01*
X24504762Y-49941761D02*
X24409524Y-49846523D01*
X24409524Y-49846523D02*
X24361905Y-49751285D01*
X24361905Y-49751285D02*
X24314286Y-49560809D01*
X24314286Y-49560809D02*
X24314286Y-49417952D01*
X24314286Y-49417952D02*
X24361905Y-49227476D01*
X24361905Y-49227476D02*
X24409524Y-49132238D01*
X24409524Y-49132238D02*
X24504762Y-49037000D01*
X24504762Y-49037000D02*
X24647619Y-48989380D01*
X24647619Y-48989380D02*
X24742857Y-48989380D01*
X24742857Y-48989380D02*
X24885714Y-49037000D01*
X24885714Y-49037000D02*
X24933333Y-49084619D01*
X26533333Y-49989380D02*
X26200000Y-49513190D01*
X25961905Y-49989380D02*
X25961905Y-48989380D01*
X25961905Y-48989380D02*
X26342857Y-48989380D01*
X26342857Y-48989380D02*
X26438095Y-49037000D01*
X26438095Y-49037000D02*
X26485714Y-49084619D01*
X26485714Y-49084619D02*
X26533333Y-49179857D01*
X26533333Y-49179857D02*
X26533333Y-49322714D01*
X26533333Y-49322714D02*
X26485714Y-49417952D01*
X26485714Y-49417952D02*
X26438095Y-49465571D01*
X26438095Y-49465571D02*
X26342857Y-49513190D01*
X26342857Y-49513190D02*
X25961905Y-49513190D01*
X26866667Y-48989380D02*
X27533333Y-49989380D01*
X27533333Y-48989380D02*
X26866667Y-49989380D01*
%TO.C,UDC 12*%
X76201905Y-48989380D02*
X76201905Y-49798904D01*
X76201905Y-49798904D02*
X76249524Y-49894142D01*
X76249524Y-49894142D02*
X76297143Y-49941761D01*
X76297143Y-49941761D02*
X76392381Y-49989380D01*
X76392381Y-49989380D02*
X76582857Y-49989380D01*
X76582857Y-49989380D02*
X76678095Y-49941761D01*
X76678095Y-49941761D02*
X76725714Y-49894142D01*
X76725714Y-49894142D02*
X76773333Y-49798904D01*
X76773333Y-49798904D02*
X76773333Y-48989380D01*
X77249524Y-49989380D02*
X77249524Y-48989380D01*
X77249524Y-48989380D02*
X77487619Y-48989380D01*
X77487619Y-48989380D02*
X77630476Y-49037000D01*
X77630476Y-49037000D02*
X77725714Y-49132238D01*
X77725714Y-49132238D02*
X77773333Y-49227476D01*
X77773333Y-49227476D02*
X77820952Y-49417952D01*
X77820952Y-49417952D02*
X77820952Y-49560809D01*
X77820952Y-49560809D02*
X77773333Y-49751285D01*
X77773333Y-49751285D02*
X77725714Y-49846523D01*
X77725714Y-49846523D02*
X77630476Y-49941761D01*
X77630476Y-49941761D02*
X77487619Y-49989380D01*
X77487619Y-49989380D02*
X77249524Y-49989380D01*
X78820952Y-49894142D02*
X78773333Y-49941761D01*
X78773333Y-49941761D02*
X78630476Y-49989380D01*
X78630476Y-49989380D02*
X78535238Y-49989380D01*
X78535238Y-49989380D02*
X78392381Y-49941761D01*
X78392381Y-49941761D02*
X78297143Y-49846523D01*
X78297143Y-49846523D02*
X78249524Y-49751285D01*
X78249524Y-49751285D02*
X78201905Y-49560809D01*
X78201905Y-49560809D02*
X78201905Y-49417952D01*
X78201905Y-49417952D02*
X78249524Y-49227476D01*
X78249524Y-49227476D02*
X78297143Y-49132238D01*
X78297143Y-49132238D02*
X78392381Y-49037000D01*
X78392381Y-49037000D02*
X78535238Y-48989380D01*
X78535238Y-48989380D02*
X78630476Y-48989380D01*
X78630476Y-48989380D02*
X78773333Y-49037000D01*
X78773333Y-49037000D02*
X78820952Y-49084619D01*
X80373333Y-49989380D02*
X79801905Y-49989380D01*
X80087619Y-49989380D02*
X80087619Y-48989380D01*
X80087619Y-48989380D02*
X79992381Y-49132238D01*
X79992381Y-49132238D02*
X79897143Y-49227476D01*
X79897143Y-49227476D02*
X79801905Y-49275095D01*
X80754286Y-49084619D02*
X80801905Y-49037000D01*
X80801905Y-49037000D02*
X80897143Y-48989380D01*
X80897143Y-48989380D02*
X81135238Y-48989380D01*
X81135238Y-48989380D02*
X81230476Y-49037000D01*
X81230476Y-49037000D02*
X81278095Y-49084619D01*
X81278095Y-49084619D02*
X81325714Y-49179857D01*
X81325714Y-49179857D02*
X81325714Y-49275095D01*
X81325714Y-49275095D02*
X81278095Y-49417952D01*
X81278095Y-49417952D02*
X80706667Y-49989380D01*
X80706667Y-49989380D02*
X81325714Y-49989380D01*
%TO.C,UDC 3/GND*%
X82250476Y-48989380D02*
X82250476Y-49798904D01*
X82250476Y-49798904D02*
X82298095Y-49894142D01*
X82298095Y-49894142D02*
X82345714Y-49941761D01*
X82345714Y-49941761D02*
X82440952Y-49989380D01*
X82440952Y-49989380D02*
X82631428Y-49989380D01*
X82631428Y-49989380D02*
X82726666Y-49941761D01*
X82726666Y-49941761D02*
X82774285Y-49894142D01*
X82774285Y-49894142D02*
X82821904Y-49798904D01*
X82821904Y-49798904D02*
X82821904Y-48989380D01*
X83298095Y-49989380D02*
X83298095Y-48989380D01*
X83298095Y-48989380D02*
X83536190Y-48989380D01*
X83536190Y-48989380D02*
X83679047Y-49037000D01*
X83679047Y-49037000D02*
X83774285Y-49132238D01*
X83774285Y-49132238D02*
X83821904Y-49227476D01*
X83821904Y-49227476D02*
X83869523Y-49417952D01*
X83869523Y-49417952D02*
X83869523Y-49560809D01*
X83869523Y-49560809D02*
X83821904Y-49751285D01*
X83821904Y-49751285D02*
X83774285Y-49846523D01*
X83774285Y-49846523D02*
X83679047Y-49941761D01*
X83679047Y-49941761D02*
X83536190Y-49989380D01*
X83536190Y-49989380D02*
X83298095Y-49989380D01*
X84869523Y-49894142D02*
X84821904Y-49941761D01*
X84821904Y-49941761D02*
X84679047Y-49989380D01*
X84679047Y-49989380D02*
X84583809Y-49989380D01*
X84583809Y-49989380D02*
X84440952Y-49941761D01*
X84440952Y-49941761D02*
X84345714Y-49846523D01*
X84345714Y-49846523D02*
X84298095Y-49751285D01*
X84298095Y-49751285D02*
X84250476Y-49560809D01*
X84250476Y-49560809D02*
X84250476Y-49417952D01*
X84250476Y-49417952D02*
X84298095Y-49227476D01*
X84298095Y-49227476D02*
X84345714Y-49132238D01*
X84345714Y-49132238D02*
X84440952Y-49037000D01*
X84440952Y-49037000D02*
X84583809Y-48989380D01*
X84583809Y-48989380D02*
X84679047Y-48989380D01*
X84679047Y-48989380D02*
X84821904Y-49037000D01*
X84821904Y-49037000D02*
X84869523Y-49084619D01*
X85802857Y-48989380D02*
X86421904Y-48989380D01*
X86421904Y-48989380D02*
X86088571Y-49370333D01*
X86088571Y-49370333D02*
X86231428Y-49370333D01*
X86231428Y-49370333D02*
X86326666Y-49417952D01*
X86326666Y-49417952D02*
X86374285Y-49465571D01*
X86374285Y-49465571D02*
X86421904Y-49560809D01*
X86421904Y-49560809D02*
X86421904Y-49798904D01*
X86421904Y-49798904D02*
X86374285Y-49894142D01*
X86374285Y-49894142D02*
X86326666Y-49941761D01*
X86326666Y-49941761D02*
X86231428Y-49989380D01*
X86231428Y-49989380D02*
X85945714Y-49989380D01*
X85945714Y-49989380D02*
X85850476Y-49941761D01*
X85850476Y-49941761D02*
X85802857Y-49894142D01*
X87564761Y-48941761D02*
X86707619Y-50227476D01*
X88421904Y-49037000D02*
X88326666Y-48989380D01*
X88326666Y-48989380D02*
X88183809Y-48989380D01*
X88183809Y-48989380D02*
X88040952Y-49037000D01*
X88040952Y-49037000D02*
X87945714Y-49132238D01*
X87945714Y-49132238D02*
X87898095Y-49227476D01*
X87898095Y-49227476D02*
X87850476Y-49417952D01*
X87850476Y-49417952D02*
X87850476Y-49560809D01*
X87850476Y-49560809D02*
X87898095Y-49751285D01*
X87898095Y-49751285D02*
X87945714Y-49846523D01*
X87945714Y-49846523D02*
X88040952Y-49941761D01*
X88040952Y-49941761D02*
X88183809Y-49989380D01*
X88183809Y-49989380D02*
X88279047Y-49989380D01*
X88279047Y-49989380D02*
X88421904Y-49941761D01*
X88421904Y-49941761D02*
X88469523Y-49894142D01*
X88469523Y-49894142D02*
X88469523Y-49560809D01*
X88469523Y-49560809D02*
X88279047Y-49560809D01*
X88898095Y-49989380D02*
X88898095Y-48989380D01*
X88898095Y-48989380D02*
X89469523Y-49989380D01*
X89469523Y-49989380D02*
X89469523Y-48989380D01*
X89945714Y-49989380D02*
X89945714Y-48989380D01*
X89945714Y-48989380D02*
X90183809Y-48989380D01*
X90183809Y-48989380D02*
X90326666Y-49037000D01*
X90326666Y-49037000D02*
X90421904Y-49132238D01*
X90421904Y-49132238D02*
X90469523Y-49227476D01*
X90469523Y-49227476D02*
X90517142Y-49417952D01*
X90517142Y-49417952D02*
X90517142Y-49560809D01*
X90517142Y-49560809D02*
X90469523Y-49751285D01*
X90469523Y-49751285D02*
X90421904Y-49846523D01*
X90421904Y-49846523D02*
X90326666Y-49941761D01*
X90326666Y-49941761D02*
X90183809Y-49989380D01*
X90183809Y-49989380D02*
X89945714Y-49989380D01*
%TO.C,PC GND*%
X38054286Y-49989380D02*
X38054286Y-48989380D01*
X38054286Y-48989380D02*
X38435238Y-48989380D01*
X38435238Y-48989380D02*
X38530476Y-49037000D01*
X38530476Y-49037000D02*
X38578095Y-49084619D01*
X38578095Y-49084619D02*
X38625714Y-49179857D01*
X38625714Y-49179857D02*
X38625714Y-49322714D01*
X38625714Y-49322714D02*
X38578095Y-49417952D01*
X38578095Y-49417952D02*
X38530476Y-49465571D01*
X38530476Y-49465571D02*
X38435238Y-49513190D01*
X38435238Y-49513190D02*
X38054286Y-49513190D01*
X39625714Y-49894142D02*
X39578095Y-49941761D01*
X39578095Y-49941761D02*
X39435238Y-49989380D01*
X39435238Y-49989380D02*
X39340000Y-49989380D01*
X39340000Y-49989380D02*
X39197143Y-49941761D01*
X39197143Y-49941761D02*
X39101905Y-49846523D01*
X39101905Y-49846523D02*
X39054286Y-49751285D01*
X39054286Y-49751285D02*
X39006667Y-49560809D01*
X39006667Y-49560809D02*
X39006667Y-49417952D01*
X39006667Y-49417952D02*
X39054286Y-49227476D01*
X39054286Y-49227476D02*
X39101905Y-49132238D01*
X39101905Y-49132238D02*
X39197143Y-49037000D01*
X39197143Y-49037000D02*
X39340000Y-48989380D01*
X39340000Y-48989380D02*
X39435238Y-48989380D01*
X39435238Y-48989380D02*
X39578095Y-49037000D01*
X39578095Y-49037000D02*
X39625714Y-49084619D01*
X41178095Y-49037000D02*
X41082857Y-48989380D01*
X41082857Y-48989380D02*
X40940000Y-48989380D01*
X40940000Y-48989380D02*
X40797143Y-49037000D01*
X40797143Y-49037000D02*
X40701905Y-49132238D01*
X40701905Y-49132238D02*
X40654286Y-49227476D01*
X40654286Y-49227476D02*
X40606667Y-49417952D01*
X40606667Y-49417952D02*
X40606667Y-49560809D01*
X40606667Y-49560809D02*
X40654286Y-49751285D01*
X40654286Y-49751285D02*
X40701905Y-49846523D01*
X40701905Y-49846523D02*
X40797143Y-49941761D01*
X40797143Y-49941761D02*
X40940000Y-49989380D01*
X40940000Y-49989380D02*
X41035238Y-49989380D01*
X41035238Y-49989380D02*
X41178095Y-49941761D01*
X41178095Y-49941761D02*
X41225714Y-49894142D01*
X41225714Y-49894142D02*
X41225714Y-49560809D01*
X41225714Y-49560809D02*
X41035238Y-49560809D01*
X41654286Y-49989380D02*
X41654286Y-48989380D01*
X41654286Y-48989380D02*
X42225714Y-49989380D01*
X42225714Y-49989380D02*
X42225714Y-48989380D01*
X42701905Y-49989380D02*
X42701905Y-48989380D01*
X42701905Y-48989380D02*
X42940000Y-48989380D01*
X42940000Y-48989380D02*
X43082857Y-49037000D01*
X43082857Y-49037000D02*
X43178095Y-49132238D01*
X43178095Y-49132238D02*
X43225714Y-49227476D01*
X43225714Y-49227476D02*
X43273333Y-49417952D01*
X43273333Y-49417952D02*
X43273333Y-49560809D01*
X43273333Y-49560809D02*
X43225714Y-49751285D01*
X43225714Y-49751285D02*
X43178095Y-49846523D01*
X43178095Y-49846523D02*
X43082857Y-49941761D01*
X43082857Y-49941761D02*
X42940000Y-49989380D01*
X42940000Y-49989380D02*
X42701905Y-49989380D01*
%TO.C,1k Ohms*%
X52143333Y-18787380D02*
X51571905Y-18787380D01*
X51857619Y-18787380D02*
X51857619Y-17787380D01*
X51857619Y-17787380D02*
X51762381Y-17930238D01*
X51762381Y-17930238D02*
X51667143Y-18025476D01*
X51667143Y-18025476D02*
X51571905Y-18073095D01*
X52571905Y-18787380D02*
X52571905Y-17787380D01*
X52667143Y-18406428D02*
X52952857Y-18787380D01*
X52952857Y-18120714D02*
X52571905Y-18501666D01*
X54171905Y-17787380D02*
X54362381Y-17787380D01*
X54362381Y-17787380D02*
X54457619Y-17835000D01*
X54457619Y-17835000D02*
X54552857Y-17930238D01*
X54552857Y-17930238D02*
X54600476Y-18120714D01*
X54600476Y-18120714D02*
X54600476Y-18454047D01*
X54600476Y-18454047D02*
X54552857Y-18644523D01*
X54552857Y-18644523D02*
X54457619Y-18739761D01*
X54457619Y-18739761D02*
X54362381Y-18787380D01*
X54362381Y-18787380D02*
X54171905Y-18787380D01*
X54171905Y-18787380D02*
X54076667Y-18739761D01*
X54076667Y-18739761D02*
X53981429Y-18644523D01*
X53981429Y-18644523D02*
X53933810Y-18454047D01*
X53933810Y-18454047D02*
X53933810Y-18120714D01*
X53933810Y-18120714D02*
X53981429Y-17930238D01*
X53981429Y-17930238D02*
X54076667Y-17835000D01*
X54076667Y-17835000D02*
X54171905Y-17787380D01*
X55029048Y-18787380D02*
X55029048Y-17787380D01*
X55457619Y-18787380D02*
X55457619Y-18263571D01*
X55457619Y-18263571D02*
X55410000Y-18168333D01*
X55410000Y-18168333D02*
X55314762Y-18120714D01*
X55314762Y-18120714D02*
X55171905Y-18120714D01*
X55171905Y-18120714D02*
X55076667Y-18168333D01*
X55076667Y-18168333D02*
X55029048Y-18215952D01*
X55933810Y-18787380D02*
X55933810Y-18120714D01*
X55933810Y-18215952D02*
X55981429Y-18168333D01*
X55981429Y-18168333D02*
X56076667Y-18120714D01*
X56076667Y-18120714D02*
X56219524Y-18120714D01*
X56219524Y-18120714D02*
X56314762Y-18168333D01*
X56314762Y-18168333D02*
X56362381Y-18263571D01*
X56362381Y-18263571D02*
X56362381Y-18787380D01*
X56362381Y-18263571D02*
X56410000Y-18168333D01*
X56410000Y-18168333D02*
X56505238Y-18120714D01*
X56505238Y-18120714D02*
X56648095Y-18120714D01*
X56648095Y-18120714D02*
X56743334Y-18168333D01*
X56743334Y-18168333D02*
X56790953Y-18263571D01*
X56790953Y-18263571D02*
X56790953Y-18787380D01*
X57219524Y-18739761D02*
X57314762Y-18787380D01*
X57314762Y-18787380D02*
X57505238Y-18787380D01*
X57505238Y-18787380D02*
X57600476Y-18739761D01*
X57600476Y-18739761D02*
X57648095Y-18644523D01*
X57648095Y-18644523D02*
X57648095Y-18596904D01*
X57648095Y-18596904D02*
X57600476Y-18501666D01*
X57600476Y-18501666D02*
X57505238Y-18454047D01*
X57505238Y-18454047D02*
X57362381Y-18454047D01*
X57362381Y-18454047D02*
X57267143Y-18406428D01*
X57267143Y-18406428D02*
X57219524Y-18311190D01*
X57219524Y-18311190D02*
X57219524Y-18263571D01*
X57219524Y-18263571D02*
X57267143Y-18168333D01*
X57267143Y-18168333D02*
X57362381Y-18120714D01*
X57362381Y-18120714D02*
X57505238Y-18120714D01*
X57505238Y-18120714D02*
X57600476Y-18168333D01*
%TO.C,UDC 11*%
X68581905Y-48989380D02*
X68581905Y-49798904D01*
X68581905Y-49798904D02*
X68629524Y-49894142D01*
X68629524Y-49894142D02*
X68677143Y-49941761D01*
X68677143Y-49941761D02*
X68772381Y-49989380D01*
X68772381Y-49989380D02*
X68962857Y-49989380D01*
X68962857Y-49989380D02*
X69058095Y-49941761D01*
X69058095Y-49941761D02*
X69105714Y-49894142D01*
X69105714Y-49894142D02*
X69153333Y-49798904D01*
X69153333Y-49798904D02*
X69153333Y-48989380D01*
X69629524Y-49989380D02*
X69629524Y-48989380D01*
X69629524Y-48989380D02*
X69867619Y-48989380D01*
X69867619Y-48989380D02*
X70010476Y-49037000D01*
X70010476Y-49037000D02*
X70105714Y-49132238D01*
X70105714Y-49132238D02*
X70153333Y-49227476D01*
X70153333Y-49227476D02*
X70200952Y-49417952D01*
X70200952Y-49417952D02*
X70200952Y-49560809D01*
X70200952Y-49560809D02*
X70153333Y-49751285D01*
X70153333Y-49751285D02*
X70105714Y-49846523D01*
X70105714Y-49846523D02*
X70010476Y-49941761D01*
X70010476Y-49941761D02*
X69867619Y-49989380D01*
X69867619Y-49989380D02*
X69629524Y-49989380D01*
X71200952Y-49894142D02*
X71153333Y-49941761D01*
X71153333Y-49941761D02*
X71010476Y-49989380D01*
X71010476Y-49989380D02*
X70915238Y-49989380D01*
X70915238Y-49989380D02*
X70772381Y-49941761D01*
X70772381Y-49941761D02*
X70677143Y-49846523D01*
X70677143Y-49846523D02*
X70629524Y-49751285D01*
X70629524Y-49751285D02*
X70581905Y-49560809D01*
X70581905Y-49560809D02*
X70581905Y-49417952D01*
X70581905Y-49417952D02*
X70629524Y-49227476D01*
X70629524Y-49227476D02*
X70677143Y-49132238D01*
X70677143Y-49132238D02*
X70772381Y-49037000D01*
X70772381Y-49037000D02*
X70915238Y-48989380D01*
X70915238Y-48989380D02*
X71010476Y-48989380D01*
X71010476Y-48989380D02*
X71153333Y-49037000D01*
X71153333Y-49037000D02*
X71200952Y-49084619D01*
X72753333Y-49989380D02*
X72181905Y-49989380D01*
X72467619Y-49989380D02*
X72467619Y-48989380D01*
X72467619Y-48989380D02*
X72372381Y-49132238D01*
X72372381Y-49132238D02*
X72277143Y-49227476D01*
X72277143Y-49227476D02*
X72181905Y-49275095D01*
X73705714Y-49989380D02*
X73134286Y-49989380D01*
X73420000Y-49989380D02*
X73420000Y-48989380D01*
X73420000Y-48989380D02*
X73324762Y-49132238D01*
X73324762Y-49132238D02*
X73229524Y-49227476D01*
X73229524Y-49227476D02*
X73134286Y-49275095D01*
%TO.C,PC TX*%
X31100952Y-49989380D02*
X31100952Y-48989380D01*
X31100952Y-48989380D02*
X31481904Y-48989380D01*
X31481904Y-48989380D02*
X31577142Y-49037000D01*
X31577142Y-49037000D02*
X31624761Y-49084619D01*
X31624761Y-49084619D02*
X31672380Y-49179857D01*
X31672380Y-49179857D02*
X31672380Y-49322714D01*
X31672380Y-49322714D02*
X31624761Y-49417952D01*
X31624761Y-49417952D02*
X31577142Y-49465571D01*
X31577142Y-49465571D02*
X31481904Y-49513190D01*
X31481904Y-49513190D02*
X31100952Y-49513190D01*
X32672380Y-49894142D02*
X32624761Y-49941761D01*
X32624761Y-49941761D02*
X32481904Y-49989380D01*
X32481904Y-49989380D02*
X32386666Y-49989380D01*
X32386666Y-49989380D02*
X32243809Y-49941761D01*
X32243809Y-49941761D02*
X32148571Y-49846523D01*
X32148571Y-49846523D02*
X32100952Y-49751285D01*
X32100952Y-49751285D02*
X32053333Y-49560809D01*
X32053333Y-49560809D02*
X32053333Y-49417952D01*
X32053333Y-49417952D02*
X32100952Y-49227476D01*
X32100952Y-49227476D02*
X32148571Y-49132238D01*
X32148571Y-49132238D02*
X32243809Y-49037000D01*
X32243809Y-49037000D02*
X32386666Y-48989380D01*
X32386666Y-48989380D02*
X32481904Y-48989380D01*
X32481904Y-48989380D02*
X32624761Y-49037000D01*
X32624761Y-49037000D02*
X32672380Y-49084619D01*
X33558095Y-48989380D02*
X34129523Y-48989380D01*
X33843809Y-49989380D02*
X33843809Y-48989380D01*
X34367619Y-48989380D02*
X35034285Y-49989380D01*
X35034285Y-48989380D02*
X34367619Y-49989380D01*
%TO.C,Vita RX/6*%
X59914286Y-48989380D02*
X60247619Y-49989380D01*
X60247619Y-49989380D02*
X60580952Y-48989380D01*
X60914286Y-49989380D02*
X60914286Y-49322714D01*
X60914286Y-48989380D02*
X60866667Y-49037000D01*
X60866667Y-49037000D02*
X60914286Y-49084619D01*
X60914286Y-49084619D02*
X60961905Y-49037000D01*
X60961905Y-49037000D02*
X60914286Y-48989380D01*
X60914286Y-48989380D02*
X60914286Y-49084619D01*
X61247619Y-49322714D02*
X61628571Y-49322714D01*
X61390476Y-48989380D02*
X61390476Y-49846523D01*
X61390476Y-49846523D02*
X61438095Y-49941761D01*
X61438095Y-49941761D02*
X61533333Y-49989380D01*
X61533333Y-49989380D02*
X61628571Y-49989380D01*
X62390476Y-49989380D02*
X62390476Y-49465571D01*
X62390476Y-49465571D02*
X62342857Y-49370333D01*
X62342857Y-49370333D02*
X62247619Y-49322714D01*
X62247619Y-49322714D02*
X62057143Y-49322714D01*
X62057143Y-49322714D02*
X61961905Y-49370333D01*
X62390476Y-49941761D02*
X62295238Y-49989380D01*
X62295238Y-49989380D02*
X62057143Y-49989380D01*
X62057143Y-49989380D02*
X61961905Y-49941761D01*
X61961905Y-49941761D02*
X61914286Y-49846523D01*
X61914286Y-49846523D02*
X61914286Y-49751285D01*
X61914286Y-49751285D02*
X61961905Y-49656047D01*
X61961905Y-49656047D02*
X62057143Y-49608428D01*
X62057143Y-49608428D02*
X62295238Y-49608428D01*
X62295238Y-49608428D02*
X62390476Y-49560809D01*
X64038095Y-49989380D02*
X63704762Y-49513190D01*
X63466667Y-49989380D02*
X63466667Y-48989380D01*
X63466667Y-48989380D02*
X63847619Y-48989380D01*
X63847619Y-48989380D02*
X63942857Y-49037000D01*
X63942857Y-49037000D02*
X63990476Y-49084619D01*
X63990476Y-49084619D02*
X64038095Y-49179857D01*
X64038095Y-49179857D02*
X64038095Y-49322714D01*
X64038095Y-49322714D02*
X63990476Y-49417952D01*
X63990476Y-49417952D02*
X63942857Y-49465571D01*
X63942857Y-49465571D02*
X63847619Y-49513190D01*
X63847619Y-49513190D02*
X63466667Y-49513190D01*
X64371429Y-48989380D02*
X65038095Y-49989380D01*
X65038095Y-48989380D02*
X64371429Y-49989380D01*
X66133333Y-48941761D02*
X65276191Y-50227476D01*
X66895238Y-48989380D02*
X66704762Y-48989380D01*
X66704762Y-48989380D02*
X66609524Y-49037000D01*
X66609524Y-49037000D02*
X66561905Y-49084619D01*
X66561905Y-49084619D02*
X66466667Y-49227476D01*
X66466667Y-49227476D02*
X66419048Y-49417952D01*
X66419048Y-49417952D02*
X66419048Y-49798904D01*
X66419048Y-49798904D02*
X66466667Y-49894142D01*
X66466667Y-49894142D02*
X66514286Y-49941761D01*
X66514286Y-49941761D02*
X66609524Y-49989380D01*
X66609524Y-49989380D02*
X66800000Y-49989380D01*
X66800000Y-49989380D02*
X66895238Y-49941761D01*
X66895238Y-49941761D02*
X66942857Y-49894142D01*
X66942857Y-49894142D02*
X66990476Y-49798904D01*
X66990476Y-49798904D02*
X66990476Y-49560809D01*
X66990476Y-49560809D02*
X66942857Y-49465571D01*
X66942857Y-49465571D02*
X66895238Y-49417952D01*
X66895238Y-49417952D02*
X66800000Y-49370333D01*
X66800000Y-49370333D02*
X66609524Y-49370333D01*
X66609524Y-49370333D02*
X66514286Y-49417952D01*
X66514286Y-49417952D02*
X66466667Y-49465571D01*
X66466667Y-49465571D02*
X66419048Y-49560809D01*
%TO.C,220 Ohms*%
X73884286Y-33122619D02*
X73931905Y-33075000D01*
X73931905Y-33075000D02*
X74027143Y-33027380D01*
X74027143Y-33027380D02*
X74265238Y-33027380D01*
X74265238Y-33027380D02*
X74360476Y-33075000D01*
X74360476Y-33075000D02*
X74408095Y-33122619D01*
X74408095Y-33122619D02*
X74455714Y-33217857D01*
X74455714Y-33217857D02*
X74455714Y-33313095D01*
X74455714Y-33313095D02*
X74408095Y-33455952D01*
X74408095Y-33455952D02*
X73836667Y-34027380D01*
X73836667Y-34027380D02*
X74455714Y-34027380D01*
X74836667Y-33122619D02*
X74884286Y-33075000D01*
X74884286Y-33075000D02*
X74979524Y-33027380D01*
X74979524Y-33027380D02*
X75217619Y-33027380D01*
X75217619Y-33027380D02*
X75312857Y-33075000D01*
X75312857Y-33075000D02*
X75360476Y-33122619D01*
X75360476Y-33122619D02*
X75408095Y-33217857D01*
X75408095Y-33217857D02*
X75408095Y-33313095D01*
X75408095Y-33313095D02*
X75360476Y-33455952D01*
X75360476Y-33455952D02*
X74789048Y-34027380D01*
X74789048Y-34027380D02*
X75408095Y-34027380D01*
X76027143Y-33027380D02*
X76122381Y-33027380D01*
X76122381Y-33027380D02*
X76217619Y-33075000D01*
X76217619Y-33075000D02*
X76265238Y-33122619D01*
X76265238Y-33122619D02*
X76312857Y-33217857D01*
X76312857Y-33217857D02*
X76360476Y-33408333D01*
X76360476Y-33408333D02*
X76360476Y-33646428D01*
X76360476Y-33646428D02*
X76312857Y-33836904D01*
X76312857Y-33836904D02*
X76265238Y-33932142D01*
X76265238Y-33932142D02*
X76217619Y-33979761D01*
X76217619Y-33979761D02*
X76122381Y-34027380D01*
X76122381Y-34027380D02*
X76027143Y-34027380D01*
X76027143Y-34027380D02*
X75931905Y-33979761D01*
X75931905Y-33979761D02*
X75884286Y-33932142D01*
X75884286Y-33932142D02*
X75836667Y-33836904D01*
X75836667Y-33836904D02*
X75789048Y-33646428D01*
X75789048Y-33646428D02*
X75789048Y-33408333D01*
X75789048Y-33408333D02*
X75836667Y-33217857D01*
X75836667Y-33217857D02*
X75884286Y-33122619D01*
X75884286Y-33122619D02*
X75931905Y-33075000D01*
X75931905Y-33075000D02*
X76027143Y-33027380D01*
X77579524Y-33027380D02*
X77770000Y-33027380D01*
X77770000Y-33027380D02*
X77865238Y-33075000D01*
X77865238Y-33075000D02*
X77960476Y-33170238D01*
X77960476Y-33170238D02*
X78008095Y-33360714D01*
X78008095Y-33360714D02*
X78008095Y-33694047D01*
X78008095Y-33694047D02*
X77960476Y-33884523D01*
X77960476Y-33884523D02*
X77865238Y-33979761D01*
X77865238Y-33979761D02*
X77770000Y-34027380D01*
X77770000Y-34027380D02*
X77579524Y-34027380D01*
X77579524Y-34027380D02*
X77484286Y-33979761D01*
X77484286Y-33979761D02*
X77389048Y-33884523D01*
X77389048Y-33884523D02*
X77341429Y-33694047D01*
X77341429Y-33694047D02*
X77341429Y-33360714D01*
X77341429Y-33360714D02*
X77389048Y-33170238D01*
X77389048Y-33170238D02*
X77484286Y-33075000D01*
X77484286Y-33075000D02*
X77579524Y-33027380D01*
X78436667Y-34027380D02*
X78436667Y-33027380D01*
X78865238Y-34027380D02*
X78865238Y-33503571D01*
X78865238Y-33503571D02*
X78817619Y-33408333D01*
X78817619Y-33408333D02*
X78722381Y-33360714D01*
X78722381Y-33360714D02*
X78579524Y-33360714D01*
X78579524Y-33360714D02*
X78484286Y-33408333D01*
X78484286Y-33408333D02*
X78436667Y-33455952D01*
X79341429Y-34027380D02*
X79341429Y-33360714D01*
X79341429Y-33455952D02*
X79389048Y-33408333D01*
X79389048Y-33408333D02*
X79484286Y-33360714D01*
X79484286Y-33360714D02*
X79627143Y-33360714D01*
X79627143Y-33360714D02*
X79722381Y-33408333D01*
X79722381Y-33408333D02*
X79770000Y-33503571D01*
X79770000Y-33503571D02*
X79770000Y-34027380D01*
X79770000Y-33503571D02*
X79817619Y-33408333D01*
X79817619Y-33408333D02*
X79912857Y-33360714D01*
X79912857Y-33360714D02*
X80055714Y-33360714D01*
X80055714Y-33360714D02*
X80150953Y-33408333D01*
X80150953Y-33408333D02*
X80198572Y-33503571D01*
X80198572Y-33503571D02*
X80198572Y-34027380D01*
X80627143Y-33979761D02*
X80722381Y-34027380D01*
X80722381Y-34027380D02*
X80912857Y-34027380D01*
X80912857Y-34027380D02*
X81008095Y-33979761D01*
X81008095Y-33979761D02*
X81055714Y-33884523D01*
X81055714Y-33884523D02*
X81055714Y-33836904D01*
X81055714Y-33836904D02*
X81008095Y-33741666D01*
X81008095Y-33741666D02*
X80912857Y-33694047D01*
X80912857Y-33694047D02*
X80770000Y-33694047D01*
X80770000Y-33694047D02*
X80674762Y-33646428D01*
X80674762Y-33646428D02*
X80627143Y-33551190D01*
X80627143Y-33551190D02*
X80627143Y-33503571D01*
X80627143Y-33503571D02*
X80674762Y-33408333D01*
X80674762Y-33408333D02*
X80770000Y-33360714D01*
X80770000Y-33360714D02*
X80912857Y-33360714D01*
X80912857Y-33360714D02*
X81008095Y-33408333D01*
D12*
%TO.C,3v3 VCC*%
X49460000Y-51620000D02*
G75*
G03*
X49460000Y-51620000I-1200000J0D01*
G01*
%TO.C,1k Ohms*%
X28980000Y-36380000D02*
X29670000Y-36380000D01*
X29670000Y-34660000D02*
X29670000Y-38100000D01*
X29670000Y-38100000D02*
X38910000Y-38100000D01*
X38910000Y-34660000D02*
X29670000Y-34660000D01*
X38910000Y-38100000D02*
X38910000Y-34660000D01*
X39600000Y-36380000D02*
X38910000Y-36380000D01*
%TO.C,Pin Header*%
X24340000Y-64840000D02*
X24340000Y-63780000D01*
X25400000Y-64840000D02*
X24340000Y-64840000D01*
X26400000Y-64840000D02*
X34460000Y-64840000D01*
X26400000Y-64840000D02*
X26400000Y-62780000D01*
X34460000Y-64840000D02*
X34460000Y-60720000D01*
X24340000Y-62780000D02*
X24340000Y-60720000D01*
X26400000Y-62780000D02*
X24340000Y-62780000D01*
X24340000Y-60720000D02*
X34460000Y-60720000D01*
%TO.C,1k Ohms*%
X27710000Y-21140000D02*
X28400000Y-21140000D01*
X28400000Y-19420000D02*
X28400000Y-22860000D01*
X28400000Y-22860000D02*
X37640000Y-22860000D01*
X37640000Y-19420000D02*
X28400000Y-19420000D01*
X37640000Y-22860000D02*
X37640000Y-19420000D01*
X38330000Y-21140000D02*
X37640000Y-21140000D01*
%TO.C,Vita TX/7*%
X57080000Y-51620000D02*
G75*
G03*
X57080000Y-51620000I-1200000J0D01*
G01*
%TO.C,PC RX*%
X26600000Y-51620000D02*
G75*
G03*
X26600000Y-51620000I-1200000J0D01*
G01*
%TO.C,UDC 12*%
X79940000Y-51620000D02*
G75*
G03*
X79940000Y-51620000I-1200000J0D01*
G01*
%TO.C,UDC 3/GND*%
X87560000Y-51620000D02*
G75*
G03*
X87560000Y-51620000I-1200000J0D01*
G01*
%TO.C,PC GND*%
X41840000Y-51620000D02*
G75*
G03*
X41840000Y-51620000I-1200000J0D01*
G01*
%TO.C,1k Ohms*%
X49300000Y-21140000D02*
X49990000Y-21140000D01*
X49990000Y-19420000D02*
X49990000Y-22860000D01*
X49990000Y-22860000D02*
X59230000Y-22860000D01*
X59230000Y-19420000D02*
X49990000Y-19420000D01*
X59230000Y-22860000D02*
X59230000Y-19420000D01*
X59920000Y-21140000D02*
X59230000Y-21140000D01*
%TO.C,UDC 11*%
X72320000Y-51620000D02*
G75*
G03*
X72320000Y-51620000I-1200000J0D01*
G01*
%TO.C,PC TX*%
X34220000Y-51620000D02*
G75*
G03*
X34220000Y-51620000I-1200000J0D01*
G01*
%TO.C,Vita RX/6*%
X64700000Y-51620000D02*
G75*
G03*
X64700000Y-51620000I-1200000J0D01*
G01*
%TO.C,220 Ohms*%
X72160000Y-36380000D02*
X72850000Y-36380000D01*
X72850000Y-34660000D02*
X72850000Y-38100000D01*
X72850000Y-38100000D02*
X82090000Y-38100000D01*
X82090000Y-34660000D02*
X72850000Y-34660000D01*
X82090000Y-38100000D02*
X82090000Y-34660000D01*
X82780000Y-36380000D02*
X82090000Y-36380000D01*
%TD*%
M02*
