%TF.GenerationSoftware,KiCad,Pcbnew,(7.0.0)*%
%TF.CreationDate,2023-03-24T11:34:11+01:00*%
%TF.ProjectId,PCH-1000JIG,5043482d-3130-4303-904a-49472e6b6963,rev?*%
%TF.SameCoordinates,Original*%
%TF.FileFunction,Copper,L1,Top*%
%TF.FilePolarity,Positive*%
%FSLAX46Y46*%
G04 Gerber Fmt 4.6, Leading zero omitted, Abs format (unit mm)*
G04 Created by KiCad (PCBNEW (7.0.0)) date 2023-03-24 11:34:11*
%MOMM*%
%LPD*%
G01*
G04 APERTURE LIST*
%TA.AperFunction,SMDPad,CuDef*%
%ADD10C,2.000000*%
%TD*%
%TA.AperFunction,ComponentPad*%
%ADD11C,1.600000*%
%TD*%
%TA.AperFunction,ComponentPad*%
%ADD12O,1.600000X1.600000*%
%TD*%
%TA.AperFunction,ComponentPad*%
%ADD13R,1.350000X1.350000*%
%TD*%
%TA.AperFunction,ComponentPad*%
%ADD14O,1.350000X1.350000*%
%TD*%
%TA.AperFunction,ViaPad*%
%ADD15C,0.800000*%
%TD*%
%TA.AperFunction,Conductor*%
%ADD16C,0.250000*%
%TD*%
G04 APERTURE END LIST*
D10*
%TO.P,3v3 VCC,1*%
%TO.N,N/C*%
X48260000Y-51620000D03*
%TD*%
D11*
%TO.P,1k Ohms,1*%
%TO.N,N/C*%
X27940000Y-36380000D03*
D12*
%TO.P,1k Ohms,2*%
X40639999Y-36379999D03*
%TD*%
D13*
%TO.P,Pin Header,1*%
%TO.N,N/C*%
X25399999Y-63779999D03*
D14*
%TO.P,Pin Header,2*%
X25399999Y-61779999D03*
%TO.P,Pin Header,3*%
X27399999Y-63779999D03*
%TO.P,Pin Header,4*%
X27399999Y-61779999D03*
%TO.P,Pin Header,5*%
X29399999Y-63779999D03*
%TO.P,Pin Header,6*%
X29399999Y-61779999D03*
%TO.P,Pin Header,7*%
X31399999Y-63779999D03*
%TO.P,Pin Header,8*%
X31399999Y-61779999D03*
%TO.P,Pin Header,9*%
X33399999Y-63779999D03*
%TO.P,Pin Header,10*%
X33399999Y-61779999D03*
%TD*%
D11*
%TO.P,1k Ohms,1*%
%TO.N,N/C*%
X26670000Y-21140000D03*
D12*
%TO.P,1k Ohms,2*%
X39369999Y-21139999D03*
%TD*%
D10*
%TO.P,Vita TX/7,1*%
%TO.N,N/C*%
X55880000Y-51620000D03*
%TD*%
%TO.P,PC RX,1*%
%TO.N,N/C*%
X25400000Y-51620000D03*
%TD*%
%TO.P,UDC 12,1*%
%TO.N,N/C*%
X78740000Y-51620000D03*
%TD*%
%TO.P,UDC 3/GND,1*%
%TO.N,N/C*%
X86360000Y-51620000D03*
%TD*%
%TO.P,PC GND,1*%
%TO.N,N/C*%
X40640000Y-51620000D03*
%TD*%
D11*
%TO.P,1k Ohms,1*%
%TO.N,N/C*%
X48260000Y-21140000D03*
D12*
%TO.P,1k Ohms,2*%
X60959999Y-21139999D03*
%TD*%
D10*
%TO.P,UDC 11,1*%
%TO.N,N/C*%
X71120000Y-51620000D03*
%TD*%
%TO.P,PC TX,1*%
%TO.N,N/C*%
X33020000Y-51620000D03*
%TD*%
%TO.P,Vita RX/6,1*%
%TO.N,N/C*%
X63500000Y-51620000D03*
%TD*%
D11*
%TO.P,220 Ohms,1*%
%TO.N,N/C*%
X71120000Y-36380000D03*
D12*
%TO.P,220 Ohms,2*%
X83819999Y-36379999D03*
%TD*%
D15*
%TO.N,*%
X45720000Y-55880000D03*
X71120000Y-56700000D03*
X25400000Y-59240000D03*
X30480000Y-59240000D03*
X45720000Y-33840000D03*
X45720000Y-33840000D03*
X63500000Y-46540000D03*
X53340000Y-54160000D03*
X43180000Y-21140000D03*
X63500000Y-56700000D03*
X45720000Y-38920000D03*
X45720000Y-38920000D03*
X27940000Y-59240000D03*
%TD*%
D16*
%TO.N,*%
X27400000Y-63780000D02*
X29400000Y-61780000D01*
X78740000Y-51620000D02*
X86360000Y-51620000D01*
X71120000Y-51620000D02*
X71120000Y-46540000D01*
X71120000Y-46540000D02*
X60960000Y-36380000D01*
X53340000Y-36380000D02*
X60960000Y-36380000D01*
X60960000Y-36380000D02*
X67760000Y-36380000D01*
X86360000Y-51620000D02*
X86360000Y-61780000D01*
X86360000Y-61780000D02*
X33400000Y-61780000D01*
X83820000Y-49080000D02*
X86360000Y-51620000D01*
X83820000Y-36380000D02*
X83820000Y-49080000D01*
X45720000Y-55880000D02*
X45720000Y-54160000D01*
X45720000Y-54160000D02*
X48260000Y-51620000D01*
X40640000Y-51620000D02*
X45720000Y-46540000D01*
X58420000Y-21140000D02*
X60960000Y-21140000D01*
X22985000Y-66860000D02*
X26320000Y-66860000D01*
X25400000Y-56700000D02*
X25400000Y-51620000D01*
X27940000Y-56700000D02*
X33020000Y-51620000D01*
X33400000Y-61780000D02*
X31400000Y-61780000D01*
X43180000Y-21140000D02*
X48260000Y-21140000D01*
X45720000Y-46540000D02*
X45720000Y-38920000D01*
X25400000Y-59240000D02*
X22985000Y-61655000D01*
X45720000Y-33840000D02*
X58420000Y-21140000D01*
X27940000Y-59240000D02*
X27940000Y-56700000D01*
X22985000Y-61655000D02*
X22985000Y-66860000D01*
X43180000Y-21140000D02*
X39370000Y-21140000D01*
X38100000Y-51620000D02*
X40640000Y-51620000D01*
X25400000Y-59240000D02*
X25400000Y-56700000D01*
X71120000Y-36380000D02*
X68580000Y-36380000D01*
X53340000Y-54160000D02*
X55880000Y-51620000D01*
X26320000Y-66860000D02*
X29400000Y-63780000D01*
X40640000Y-36380000D02*
X53340000Y-36380000D01*
X66040000Y-36380000D02*
X68580000Y-36380000D01*
X63500000Y-56700000D02*
X63500000Y-51620000D01*
X63500000Y-46540000D02*
X63500000Y-51620000D01*
X71120000Y-56700000D02*
X71120000Y-51620000D01*
X33020000Y-51620000D02*
X33020000Y-21140000D01*
X33020000Y-21140000D02*
X26670000Y-21140000D01*
X30480000Y-59240000D02*
X38100000Y-51620000D01*
X31400000Y-61780000D02*
X29400000Y-61780000D01*
%TD*%
M02*
