%TF.GenerationSoftware,KiCad,Pcbnew,(7.0.0)*%
%TF.CreationDate,2023-03-24T12:11:32+01:00*%
%TF.ProjectId,PCH-1000JIG_0805,5043482d-3130-4303-904a-49475f303830,rev?*%
%TF.SameCoordinates,Original*%
%TF.FileFunction,Legend,Bot*%
%TF.FilePolarity,Positive*%
%FSLAX46Y46*%
G04 Gerber Fmt 4.6, Leading zero omitted, Abs format (unit mm)*
G04 Created by KiCad (PCBNEW (7.0.0)) date 2023-03-24 12:11:32*
%MOMM*%
%LPD*%
G01*
G04 APERTURE LIST*
%ADD10C,0.100000*%
G04 APERTURE END LIST*
D10*
X39859047Y-37947666D02*
X39859047Y-37247666D01*
X39859047Y-37247666D02*
X40049523Y-37247666D01*
X40049523Y-37247666D02*
X40097142Y-37281000D01*
X40097142Y-37281000D02*
X40120952Y-37314333D01*
X40120952Y-37314333D02*
X40144761Y-37381000D01*
X40144761Y-37381000D02*
X40144761Y-37481000D01*
X40144761Y-37481000D02*
X40120952Y-37547666D01*
X40120952Y-37547666D02*
X40097142Y-37581000D01*
X40097142Y-37581000D02*
X40049523Y-37614333D01*
X40049523Y-37614333D02*
X39859047Y-37614333D01*
X40644761Y-37881000D02*
X40620952Y-37914333D01*
X40620952Y-37914333D02*
X40549523Y-37947666D01*
X40549523Y-37947666D02*
X40501904Y-37947666D01*
X40501904Y-37947666D02*
X40430476Y-37914333D01*
X40430476Y-37914333D02*
X40382857Y-37847666D01*
X40382857Y-37847666D02*
X40359047Y-37781000D01*
X40359047Y-37781000D02*
X40335238Y-37647666D01*
X40335238Y-37647666D02*
X40335238Y-37547666D01*
X40335238Y-37547666D02*
X40359047Y-37414333D01*
X40359047Y-37414333D02*
X40382857Y-37347666D01*
X40382857Y-37347666D02*
X40430476Y-37281000D01*
X40430476Y-37281000D02*
X40501904Y-37247666D01*
X40501904Y-37247666D02*
X40549523Y-37247666D01*
X40549523Y-37247666D02*
X40620952Y-37281000D01*
X40620952Y-37281000D02*
X40644761Y-37314333D01*
X40859047Y-37947666D02*
X40859047Y-37247666D01*
X40859047Y-37581000D02*
X41144761Y-37581000D01*
X41144761Y-37947666D02*
X41144761Y-37247666D01*
X41382857Y-37681000D02*
X41763810Y-37681000D01*
X42263810Y-37947666D02*
X41978096Y-37947666D01*
X42120953Y-37947666D02*
X42120953Y-37247666D01*
X42120953Y-37247666D02*
X42073334Y-37347666D01*
X42073334Y-37347666D02*
X42025715Y-37414333D01*
X42025715Y-37414333D02*
X41978096Y-37447666D01*
X42573333Y-37247666D02*
X42620952Y-37247666D01*
X42620952Y-37247666D02*
X42668571Y-37281000D01*
X42668571Y-37281000D02*
X42692381Y-37314333D01*
X42692381Y-37314333D02*
X42716190Y-37381000D01*
X42716190Y-37381000D02*
X42740000Y-37514333D01*
X42740000Y-37514333D02*
X42740000Y-37681000D01*
X42740000Y-37681000D02*
X42716190Y-37814333D01*
X42716190Y-37814333D02*
X42692381Y-37881000D01*
X42692381Y-37881000D02*
X42668571Y-37914333D01*
X42668571Y-37914333D02*
X42620952Y-37947666D01*
X42620952Y-37947666D02*
X42573333Y-37947666D01*
X42573333Y-37947666D02*
X42525714Y-37914333D01*
X42525714Y-37914333D02*
X42501905Y-37881000D01*
X42501905Y-37881000D02*
X42478095Y-37814333D01*
X42478095Y-37814333D02*
X42454286Y-37681000D01*
X42454286Y-37681000D02*
X42454286Y-37514333D01*
X42454286Y-37514333D02*
X42478095Y-37381000D01*
X42478095Y-37381000D02*
X42501905Y-37314333D01*
X42501905Y-37314333D02*
X42525714Y-37281000D01*
X42525714Y-37281000D02*
X42573333Y-37247666D01*
X43049523Y-37247666D02*
X43097142Y-37247666D01*
X43097142Y-37247666D02*
X43144761Y-37281000D01*
X43144761Y-37281000D02*
X43168571Y-37314333D01*
X43168571Y-37314333D02*
X43192380Y-37381000D01*
X43192380Y-37381000D02*
X43216190Y-37514333D01*
X43216190Y-37514333D02*
X43216190Y-37681000D01*
X43216190Y-37681000D02*
X43192380Y-37814333D01*
X43192380Y-37814333D02*
X43168571Y-37881000D01*
X43168571Y-37881000D02*
X43144761Y-37914333D01*
X43144761Y-37914333D02*
X43097142Y-37947666D01*
X43097142Y-37947666D02*
X43049523Y-37947666D01*
X43049523Y-37947666D02*
X43001904Y-37914333D01*
X43001904Y-37914333D02*
X42978095Y-37881000D01*
X42978095Y-37881000D02*
X42954285Y-37814333D01*
X42954285Y-37814333D02*
X42930476Y-37681000D01*
X42930476Y-37681000D02*
X42930476Y-37514333D01*
X42930476Y-37514333D02*
X42954285Y-37381000D01*
X42954285Y-37381000D02*
X42978095Y-37314333D01*
X42978095Y-37314333D02*
X43001904Y-37281000D01*
X43001904Y-37281000D02*
X43049523Y-37247666D01*
X43525713Y-37247666D02*
X43573332Y-37247666D01*
X43573332Y-37247666D02*
X43620951Y-37281000D01*
X43620951Y-37281000D02*
X43644761Y-37314333D01*
X43644761Y-37314333D02*
X43668570Y-37381000D01*
X43668570Y-37381000D02*
X43692380Y-37514333D01*
X43692380Y-37514333D02*
X43692380Y-37681000D01*
X43692380Y-37681000D02*
X43668570Y-37814333D01*
X43668570Y-37814333D02*
X43644761Y-37881000D01*
X43644761Y-37881000D02*
X43620951Y-37914333D01*
X43620951Y-37914333D02*
X43573332Y-37947666D01*
X43573332Y-37947666D02*
X43525713Y-37947666D01*
X43525713Y-37947666D02*
X43478094Y-37914333D01*
X43478094Y-37914333D02*
X43454285Y-37881000D01*
X43454285Y-37881000D02*
X43430475Y-37814333D01*
X43430475Y-37814333D02*
X43406666Y-37681000D01*
X43406666Y-37681000D02*
X43406666Y-37514333D01*
X43406666Y-37514333D02*
X43430475Y-37381000D01*
X43430475Y-37381000D02*
X43454285Y-37314333D01*
X43454285Y-37314333D02*
X43478094Y-37281000D01*
X43478094Y-37281000D02*
X43525713Y-37247666D01*
X44049522Y-37247666D02*
X44049522Y-37747666D01*
X44049522Y-37747666D02*
X44025713Y-37847666D01*
X44025713Y-37847666D02*
X43978094Y-37914333D01*
X43978094Y-37914333D02*
X43906665Y-37947666D01*
X43906665Y-37947666D02*
X43859046Y-37947666D01*
X44287617Y-37947666D02*
X44287617Y-37247666D01*
X44787617Y-37281000D02*
X44739998Y-37247666D01*
X44739998Y-37247666D02*
X44668569Y-37247666D01*
X44668569Y-37247666D02*
X44597141Y-37281000D01*
X44597141Y-37281000D02*
X44549522Y-37347666D01*
X44549522Y-37347666D02*
X44525712Y-37414333D01*
X44525712Y-37414333D02*
X44501903Y-37547666D01*
X44501903Y-37547666D02*
X44501903Y-37647666D01*
X44501903Y-37647666D02*
X44525712Y-37781000D01*
X44525712Y-37781000D02*
X44549522Y-37847666D01*
X44549522Y-37847666D02*
X44597141Y-37914333D01*
X44597141Y-37914333D02*
X44668569Y-37947666D01*
X44668569Y-37947666D02*
X44716188Y-37947666D01*
X44716188Y-37947666D02*
X44787617Y-37914333D01*
X44787617Y-37914333D02*
X44811426Y-37881000D01*
X44811426Y-37881000D02*
X44811426Y-37647666D01*
X44811426Y-37647666D02*
X44716188Y-37647666D01*
X45611426Y-37947666D02*
X45444760Y-37614333D01*
X45325712Y-37947666D02*
X45325712Y-37247666D01*
X45325712Y-37247666D02*
X45516188Y-37247666D01*
X45516188Y-37247666D02*
X45563807Y-37281000D01*
X45563807Y-37281000D02*
X45587617Y-37314333D01*
X45587617Y-37314333D02*
X45611426Y-37381000D01*
X45611426Y-37381000D02*
X45611426Y-37481000D01*
X45611426Y-37481000D02*
X45587617Y-37547666D01*
X45587617Y-37547666D02*
X45563807Y-37581000D01*
X45563807Y-37581000D02*
X45516188Y-37614333D01*
X45516188Y-37614333D02*
X45325712Y-37614333D01*
X46016188Y-37914333D02*
X45968569Y-37947666D01*
X45968569Y-37947666D02*
X45873331Y-37947666D01*
X45873331Y-37947666D02*
X45825712Y-37914333D01*
X45825712Y-37914333D02*
X45801903Y-37847666D01*
X45801903Y-37847666D02*
X45801903Y-37581000D01*
X45801903Y-37581000D02*
X45825712Y-37514333D01*
X45825712Y-37514333D02*
X45873331Y-37481000D01*
X45873331Y-37481000D02*
X45968569Y-37481000D01*
X45968569Y-37481000D02*
X46016188Y-37514333D01*
X46016188Y-37514333D02*
X46039998Y-37581000D01*
X46039998Y-37581000D02*
X46039998Y-37647666D01*
X46039998Y-37647666D02*
X45801903Y-37714333D01*
X46206664Y-37481000D02*
X46325712Y-37947666D01*
X46325712Y-37947666D02*
X46444759Y-37481000D01*
X46911426Y-37314333D02*
X46935235Y-37281000D01*
X46935235Y-37281000D02*
X46982854Y-37247666D01*
X46982854Y-37247666D02*
X47101902Y-37247666D01*
X47101902Y-37247666D02*
X47149521Y-37281000D01*
X47149521Y-37281000D02*
X47173330Y-37314333D01*
X47173330Y-37314333D02*
X47197140Y-37381000D01*
X47197140Y-37381000D02*
X47197140Y-37447666D01*
X47197140Y-37447666D02*
X47173330Y-37547666D01*
X47173330Y-37547666D02*
X46887616Y-37947666D01*
X46887616Y-37947666D02*
X47197140Y-37947666D01*
X47411425Y-37881000D02*
X47435235Y-37914333D01*
X47435235Y-37914333D02*
X47411425Y-37947666D01*
X47411425Y-37947666D02*
X47387616Y-37914333D01*
X47387616Y-37914333D02*
X47411425Y-37881000D01*
X47411425Y-37881000D02*
X47411425Y-37947666D01*
X47625711Y-37314333D02*
X47649520Y-37281000D01*
X47649520Y-37281000D02*
X47697139Y-37247666D01*
X47697139Y-37247666D02*
X47816187Y-37247666D01*
X47816187Y-37247666D02*
X47863806Y-37281000D01*
X47863806Y-37281000D02*
X47887615Y-37314333D01*
X47887615Y-37314333D02*
X47911425Y-37381000D01*
X47911425Y-37381000D02*
X47911425Y-37447666D01*
X47911425Y-37447666D02*
X47887615Y-37547666D01*
X47887615Y-37547666D02*
X47601901Y-37947666D01*
X47601901Y-37947666D02*
X47911425Y-37947666D01*
X48125710Y-37947666D02*
X48125710Y-37247666D01*
X48125710Y-37514333D02*
X48173329Y-37481000D01*
X48173329Y-37481000D02*
X48268567Y-37481000D01*
X48268567Y-37481000D02*
X48316186Y-37514333D01*
X48316186Y-37514333D02*
X48339996Y-37547666D01*
X48339996Y-37547666D02*
X48363805Y-37614333D01*
X48363805Y-37614333D02*
X48363805Y-37814333D01*
X48363805Y-37814333D02*
X48339996Y-37881000D01*
X48339996Y-37881000D02*
X48316186Y-37914333D01*
X48316186Y-37914333D02*
X48268567Y-37947666D01*
X48268567Y-37947666D02*
X48173329Y-37947666D01*
X48173329Y-37947666D02*
X48125710Y-37914333D01*
X48878091Y-37947666D02*
X48878091Y-37247666D01*
X48878091Y-37514333D02*
X48925710Y-37481000D01*
X48925710Y-37481000D02*
X49020948Y-37481000D01*
X49020948Y-37481000D02*
X49068567Y-37514333D01*
X49068567Y-37514333D02*
X49092377Y-37547666D01*
X49092377Y-37547666D02*
X49116186Y-37614333D01*
X49116186Y-37614333D02*
X49116186Y-37814333D01*
X49116186Y-37814333D02*
X49092377Y-37881000D01*
X49092377Y-37881000D02*
X49068567Y-37914333D01*
X49068567Y-37914333D02*
X49020948Y-37947666D01*
X49020948Y-37947666D02*
X48925710Y-37947666D01*
X48925710Y-37947666D02*
X48878091Y-37914333D01*
X49282853Y-37481000D02*
X49401901Y-37947666D01*
X49520948Y-37481000D02*
X49401901Y-37947666D01*
X49401901Y-37947666D02*
X49354282Y-38114333D01*
X49354282Y-38114333D02*
X49330472Y-38147666D01*
X49330472Y-38147666D02*
X49282853Y-38181000D01*
X50011424Y-37947666D02*
X50011424Y-37247666D01*
X50011424Y-37247666D02*
X50178091Y-37747666D01*
X50178091Y-37747666D02*
X50344757Y-37247666D01*
X50344757Y-37247666D02*
X50344757Y-37947666D01*
X50797139Y-37947666D02*
X50797139Y-37581000D01*
X50797139Y-37581000D02*
X50773329Y-37514333D01*
X50773329Y-37514333D02*
X50725710Y-37481000D01*
X50725710Y-37481000D02*
X50630472Y-37481000D01*
X50630472Y-37481000D02*
X50582853Y-37514333D01*
X50797139Y-37914333D02*
X50749520Y-37947666D01*
X50749520Y-37947666D02*
X50630472Y-37947666D01*
X50630472Y-37947666D02*
X50582853Y-37914333D01*
X50582853Y-37914333D02*
X50559044Y-37847666D01*
X50559044Y-37847666D02*
X50559044Y-37781000D01*
X50559044Y-37781000D02*
X50582853Y-37714333D01*
X50582853Y-37714333D02*
X50630472Y-37681000D01*
X50630472Y-37681000D02*
X50749520Y-37681000D01*
X50749520Y-37681000D02*
X50797139Y-37647666D01*
X50963806Y-37481000D02*
X51154282Y-37481000D01*
X51035234Y-37247666D02*
X51035234Y-37847666D01*
X51035234Y-37847666D02*
X51059044Y-37914333D01*
X51059044Y-37914333D02*
X51106663Y-37947666D01*
X51106663Y-37947666D02*
X51154282Y-37947666D01*
X51320948Y-37947666D02*
X51320948Y-37247666D01*
X51535234Y-37947666D02*
X51535234Y-37581000D01*
X51535234Y-37581000D02*
X51511424Y-37514333D01*
X51511424Y-37514333D02*
X51463805Y-37481000D01*
X51463805Y-37481000D02*
X51392377Y-37481000D01*
X51392377Y-37481000D02*
X51344758Y-37514333D01*
X51344758Y-37514333D02*
X51320948Y-37547666D01*
X51773329Y-37947666D02*
X51773329Y-37481000D01*
X51773329Y-37247666D02*
X51749520Y-37281000D01*
X51749520Y-37281000D02*
X51773329Y-37314333D01*
X51773329Y-37314333D02*
X51797139Y-37281000D01*
X51797139Y-37281000D02*
X51773329Y-37247666D01*
X51773329Y-37247666D02*
X51773329Y-37314333D01*
X52201900Y-37914333D02*
X52154281Y-37947666D01*
X52154281Y-37947666D02*
X52059043Y-37947666D01*
X52059043Y-37947666D02*
X52011424Y-37914333D01*
X52011424Y-37914333D02*
X51987615Y-37847666D01*
X51987615Y-37847666D02*
X51987615Y-37581000D01*
X51987615Y-37581000D02*
X52011424Y-37514333D01*
X52011424Y-37514333D02*
X52059043Y-37481000D01*
X52059043Y-37481000D02*
X52154281Y-37481000D01*
X52154281Y-37481000D02*
X52201900Y-37514333D01*
X52201900Y-37514333D02*
X52225710Y-37581000D01*
X52225710Y-37581000D02*
X52225710Y-37647666D01*
X52225710Y-37647666D02*
X51987615Y-37714333D01*
X52654281Y-37481000D02*
X52654281Y-37947666D01*
X52439995Y-37481000D02*
X52439995Y-37847666D01*
X52439995Y-37847666D02*
X52463805Y-37914333D01*
X52463805Y-37914333D02*
X52511424Y-37947666D01*
X52511424Y-37947666D02*
X52582852Y-37947666D01*
X52582852Y-37947666D02*
X52630471Y-37914333D01*
X52630471Y-37914333D02*
X52654281Y-37881000D01*
X52963805Y-37947666D02*
X52916186Y-37914333D01*
X52916186Y-37914333D02*
X52892376Y-37847666D01*
X52892376Y-37847666D02*
X52892376Y-37247666D01*
X53154281Y-37947666D02*
X53154281Y-37247666D01*
X53368567Y-37947666D02*
X53368567Y-37581000D01*
X53368567Y-37581000D02*
X53344757Y-37514333D01*
X53344757Y-37514333D02*
X53297138Y-37481000D01*
X53297138Y-37481000D02*
X53225710Y-37481000D01*
X53225710Y-37481000D02*
X53178091Y-37514333D01*
X53178091Y-37514333D02*
X53154281Y-37547666D01*
M02*
