%TF.GenerationSoftware,KiCad,Pcbnew,(7.0.0)*%
%TF.CreationDate,2023-08-25T10:13:16+02:00*%
%TF.ProjectId,JIG SWITCH,4a494720-5357-4495-9443-482e6b696361,rev?*%
%TF.SameCoordinates,Original*%
%TF.FileFunction,Soldermask,Top*%
%TF.FilePolarity,Negative*%
%FSLAX46Y46*%
G04 Gerber Fmt 4.6, Leading zero omitted, Abs format (unit mm)*
G04 Created by KiCad (PCBNEW (7.0.0)) date 2023-08-25 10:13:16*
%MOMM*%
%LPD*%
G01*
G04 APERTURE LIST*
%ADD10C,2.000000*%
%ADD11C,1.600000*%
%ADD12O,1.600000X1.600000*%
%ADD13C,1.524000*%
%ADD14O,2.200000X3.500000*%
%ADD15R,1.500000X2.500000*%
%ADD16O,1.500000X2.500000*%
%ADD17R,0.200000X1.800000*%
%ADD18O,1.000000X2.000000*%
G04 APERTURE END LIST*
D10*
%TO.C,PC RX*%
X36140000Y-57840000D03*
%TD*%
D11*
%TO.C,R3*%
X81280000Y-47680000D03*
D12*
X93979999Y-47679999D03*
%TD*%
D10*
%TO.C,UDC 3/GND*%
X117420000Y-106680000D03*
%TD*%
D11*
%TO.C,R5*%
X69160000Y-81970000D03*
D12*
X69159999Y-69269999D03*
%TD*%
D10*
%TO.C,PC TX*%
X36140000Y-68000000D03*
%TD*%
D11*
%TO.C,R7*%
X45030000Y-99750000D03*
D12*
X57729999Y-99749999D03*
%TD*%
D11*
%TO.C,R9*%
X75510000Y-75620000D03*
D12*
X88209999Y-75619999D03*
%TD*%
D13*
%TO.C,*%
X81860000Y-86011000D03*
X84400000Y-86011000D03*
X86940000Y-86011000D03*
X89480000Y-86011000D03*
X92020000Y-86011000D03*
X94560000Y-86011000D03*
X97100000Y-86011000D03*
X99640000Y-86011000D03*
X102180000Y-86011000D03*
X104720000Y-86011000D03*
X107260000Y-86011000D03*
X109800000Y-86011000D03*
%TD*%
D10*
%TO.C,PC GND*%
X36140000Y-47680000D03*
%TD*%
D14*
%TO.C,PCH2K < > PCH1K/PDEL/VTE*%
X65059999Y-62919999D03*
X73259999Y-62919999D03*
D15*
X67159999Y-62919999D03*
D16*
X69159999Y-62919999D03*
X71159999Y-62919999D03*
%TD*%
D11*
%TO.C,R1*%
X60270000Y-37520000D03*
D12*
X72969999Y-37519999D03*
%TD*%
D11*
%TO.C,R2*%
X60270000Y-47680000D03*
D12*
X72969999Y-47679999D03*
%TD*%
D11*
%TO.C,R8*%
X50110000Y-75620000D03*
D12*
X62809999Y-75619999D03*
%TD*%
D10*
%TO.C,UDC7/D-*%
X117420000Y-75620000D03*
%TD*%
%TO.C,UDC6/D+*%
X117420000Y-83240000D03*
%TD*%
D17*
%TO.C,UDC*%
X92257999Y-91706999D03*
X92657999Y-91706999D03*
X93057999Y-91706999D03*
X93457999Y-91706999D03*
X93857999Y-91706999D03*
X94257999Y-91706999D03*
X94657999Y-91706999D03*
X95057999Y-91706999D03*
X95457999Y-91706999D03*
X95857999Y-91706999D03*
X96257999Y-91706999D03*
X96657999Y-91706999D03*
X97057999Y-91706999D03*
X97457999Y-91706999D03*
X97857999Y-91706999D03*
X98257999Y-91706999D03*
X98657999Y-91706999D03*
X99057999Y-91706999D03*
X99457999Y-91706999D03*
X99857999Y-91706999D03*
X100257999Y-91706999D03*
X92457999Y-95706999D03*
X100457999Y-95706999D03*
D18*
X91257999Y-92106999D03*
X91257999Y-95206999D03*
X90257999Y-93706999D03*
X101757999Y-95206999D03*
X101757999Y-92106999D03*
X102757999Y-93606999D03*
%TD*%
D10*
%TO.C,VCC*%
X36140000Y-37520000D03*
%TD*%
D11*
%TO.C,R4*%
X101600000Y-47680000D03*
D12*
X114299999Y-47679999D03*
%TD*%
D10*
%TO.C,JIG SENSE 1/UDC 11/ID
*%
X117420000Y-91440000D03*
%TD*%
%TO.C,JIG SENSE 2/UDC 12*%
X117420000Y-99060000D03*
%TD*%
D13*
%TO.C,U3*%
X81860000Y-101251000D03*
X84400000Y-101251000D03*
X86940000Y-101251000D03*
X89480000Y-101251000D03*
X92020000Y-101251000D03*
X94560000Y-101251000D03*
X97100000Y-101251000D03*
X99640000Y-101251000D03*
X102180000Y-101251000D03*
X104720000Y-101251000D03*
X107260000Y-101251000D03*
X109800000Y-101251000D03*
%TD*%
D11*
%TO.C,R6*%
X69160000Y-99750000D03*
D12*
X69159999Y-87049999D03*
%TD*%
M02*
