%TF.GenerationSoftware,KiCad,Pcbnew,(7.0.0)*%
%TF.CreationDate,2023-08-25T10:13:16+02:00*%
%TF.ProjectId,JIG SWITCH,4a494720-5357-4495-9443-482e6b696361,rev?*%
%TF.SameCoordinates,Original*%
%TF.FileFunction,Copper,L2,Bot*%
%TF.FilePolarity,Positive*%
%FSLAX46Y46*%
G04 Gerber Fmt 4.6, Leading zero omitted, Abs format (unit mm)*
G04 Created by KiCad (PCBNEW (7.0.0)) date 2023-08-25 10:13:16*
%MOMM*%
%LPD*%
G01*
G04 APERTURE LIST*
%TA.AperFunction,ComponentPad*%
%ADD10C,1.600000*%
%TD*%
%TA.AperFunction,ComponentPad*%
%ADD11O,1.600000X1.600000*%
%TD*%
%TA.AperFunction,ComponentPad*%
%ADD12C,1.524000*%
%TD*%
%TA.AperFunction,ComponentPad*%
%ADD13O,2.200000X3.500000*%
%TD*%
%TA.AperFunction,ComponentPad*%
%ADD14R,1.500000X2.500000*%
%TD*%
%TA.AperFunction,ComponentPad*%
%ADD15O,1.500000X2.500000*%
%TD*%
%TA.AperFunction,ComponentPad*%
%ADD16O,1.000000X2.000000*%
%TD*%
%TA.AperFunction,ViaPad*%
%ADD17C,0.600000*%
%TD*%
%TA.AperFunction,ViaPad*%
%ADD18C,0.610000*%
%TD*%
%TA.AperFunction,Conductor*%
%ADD19C,0.150000*%
%TD*%
%TA.AperFunction,Conductor*%
%ADD20C,0.250000*%
%TD*%
G04 APERTURE END LIST*
D10*
%TO.P,R3,1*%
%TO.N,N/C*%
X81280000Y-47680000D03*
D11*
%TO.P,R3,2*%
X93979999Y-47679999D03*
%TD*%
D10*
%TO.P,R5,1*%
%TO.N,N/C*%
X69160000Y-81970000D03*
D11*
%TO.P,R5,2*%
X69159999Y-69269999D03*
%TD*%
D10*
%TO.P,R7,1*%
%TO.N,N/C*%
X45030000Y-99750000D03*
D11*
%TO.P,R7,2*%
X57729999Y-99749999D03*
%TD*%
D10*
%TO.P,R9,1*%
%TO.N,N/C*%
X75510000Y-75620000D03*
D11*
%TO.P,R9,2*%
X88209999Y-75619999D03*
%TD*%
D12*
%TO.P,,1*%
%TO.N,N/C*%
X81860000Y-86011000D03*
%TO.P,,2*%
X84400000Y-86011000D03*
%TO.P,,3*%
X86940000Y-86011000D03*
%TO.P,,4*%
X89480000Y-86011000D03*
%TO.P,,5*%
X92020000Y-86011000D03*
%TO.P,,6*%
X94560000Y-86011000D03*
%TO.P,,7*%
X97100000Y-86011000D03*
%TO.P,,8*%
X99640000Y-86011000D03*
%TO.P,,9*%
X102180000Y-86011000D03*
%TO.P,,10*%
X104720000Y-86011000D03*
%TO.P,,11*%
X107260000Y-86011000D03*
%TO.P,,12*%
X109800000Y-86011000D03*
%TD*%
D13*
%TO.P,PCH2K < > PCH1K/PDEL/VTE,*%
%TO.N,*%
X65059999Y-62919999D03*
X73259999Y-62919999D03*
D14*
%TO.P,PCH2K < > PCH1K/PDEL/VTE,1*%
%TO.N,N/C*%
X67159999Y-62919999D03*
D15*
%TO.P,PCH2K < > PCH1K/PDEL/VTE,2*%
X69159999Y-62919999D03*
%TO.P,PCH2K < > PCH1K/PDEL/VTE,3*%
X71159999Y-62919999D03*
%TD*%
D10*
%TO.P,R1,1*%
%TO.N,N/C*%
X60270000Y-37520000D03*
D11*
%TO.P,R1,2*%
X72969999Y-37519999D03*
%TD*%
D10*
%TO.P,R2,1*%
%TO.N,N/C*%
X60270000Y-47680000D03*
D11*
%TO.P,R2,2*%
X72969999Y-47679999D03*
%TD*%
D10*
%TO.P,R8,1*%
%TO.N,N/C*%
X50110000Y-75620000D03*
D11*
%TO.P,R8,2*%
X62809999Y-75619999D03*
%TD*%
D16*
%TO.P,UDC,24*%
%TO.N,N/C*%
X91257999Y-92106999D03*
%TO.P,UDC,25*%
X91257999Y-95206999D03*
%TO.P,UDC,26*%
X90257999Y-93706999D03*
%TO.P,UDC,27*%
X101757999Y-95206999D03*
%TO.P,UDC,28*%
X101757999Y-92106999D03*
%TO.P,UDC,29*%
X102757999Y-93606999D03*
%TD*%
D10*
%TO.P,R4,1*%
%TO.N,N/C*%
X101600000Y-47680000D03*
D11*
%TO.P,R4,2*%
X114299999Y-47679999D03*
%TD*%
D12*
%TO.P,U3,1*%
%TO.N,N/C*%
X81860000Y-101251000D03*
%TO.P,U3,2*%
X84400000Y-101251000D03*
%TO.P,U3,3*%
X86940000Y-101251000D03*
%TO.P,U3,4*%
X89480000Y-101251000D03*
%TO.P,U3,5*%
X92020000Y-101251000D03*
%TO.P,U3,6*%
X94560000Y-101251000D03*
%TO.P,U3,7*%
X97100000Y-101251000D03*
%TO.P,U3,8*%
X99640000Y-101251000D03*
%TO.P,U3,9*%
X102180000Y-101251000D03*
%TO.P,U3,10*%
X104720000Y-101251000D03*
%TO.P,U3,11*%
X107260000Y-101251000D03*
%TO.P,U3,12*%
X109800000Y-101251000D03*
%TD*%
D10*
%TO.P,R6,1*%
%TO.N,N/C*%
X69160000Y-99750000D03*
D11*
%TO.P,R6,2*%
X69159999Y-87049999D03*
%TD*%
D17*
%TO.N,*%
X43760000Y-68000000D03*
X46300000Y-68000000D03*
D18*
X100529000Y-93631000D03*
D17*
X46300000Y-65460000D03*
D18*
X100529000Y-98330000D03*
D17*
X97100000Y-80700000D03*
D18*
X104720000Y-99473000D03*
D17*
X97100000Y-75620000D03*
D18*
X93290000Y-94012000D03*
D17*
X112340000Y-106100000D03*
X112340000Y-111180000D03*
X43760000Y-65460000D03*
%TD*%
D19*
%TO.N,*%
X100529000Y-98330000D02*
X100529000Y-93631000D01*
D20*
X43760000Y-65460000D02*
X46300000Y-65460000D01*
X46300000Y-68000000D02*
X43760000Y-68000000D01*
D19*
X91258000Y-92107000D02*
X91258000Y-89313000D01*
D20*
X112340000Y-106100000D02*
X112340000Y-111180000D01*
D19*
X94179000Y-99473000D02*
X104720000Y-99473000D01*
X101926000Y-89059000D02*
X101758000Y-89227000D01*
D20*
X97100000Y-75620000D02*
X97100000Y-80700000D01*
D19*
X100910000Y-88043000D02*
X101926000Y-89059000D01*
X93290000Y-94012000D02*
X93290000Y-98584000D01*
X92528000Y-88043000D02*
X100910000Y-88043000D01*
X91258000Y-89313000D02*
X92528000Y-88043000D01*
X101758000Y-89227000D02*
X101758000Y-92107000D01*
X93290000Y-98584000D02*
X94179000Y-99473000D01*
%TD*%
M02*
