%TF.GenerationSoftware,KiCad,Pcbnew,(7.0.0)*%
%TF.CreationDate,2023-08-25T10:13:16+02:00*%
%TF.ProjectId,JIG SWITCH,4a494720-5357-4495-9443-482e6b696361,rev?*%
%TF.SameCoordinates,Original*%
%TF.FileFunction,Legend,Top*%
%TF.FilePolarity,Positive*%
%FSLAX46Y46*%
G04 Gerber Fmt 4.6, Leading zero omitted, Abs format (unit mm)*
G04 Created by KiCad (PCBNEW (7.0.0)) date 2023-08-25 10:13:16*
%MOMM*%
%LPD*%
G01*
G04 APERTURE LIST*
%ADD10C,0.200000*%
%ADD11C,0.300000*%
%ADD12C,0.100000*%
%ADD13C,0.150000*%
%ADD14C,0.400000*%
%ADD15C,0.152000*%
%ADD16C,0.120000*%
G04 APERTURE END LIST*
D10*
X33020000Y-82550000D02*
X50800000Y-82550000D01*
X50800000Y-82550000D02*
X50800000Y-115570000D01*
X50800000Y-115570000D02*
X33020000Y-115570000D01*
X33020000Y-115570000D02*
X33020000Y-82550000D01*
X93980000Y-51580000D02*
X109220000Y-51580000D01*
X109220000Y-51580000D02*
X109220000Y-83820000D01*
X109220000Y-83820000D02*
X93980000Y-83820000D01*
X93980000Y-83820000D02*
X93980000Y-51580000D01*
D11*
X84177142Y-34763571D02*
X84177142Y-33263571D01*
X84177142Y-33263571D02*
X84748571Y-33263571D01*
X84748571Y-33263571D02*
X84891428Y-33335000D01*
X84891428Y-33335000D02*
X84962857Y-33406428D01*
X84962857Y-33406428D02*
X85034285Y-33549285D01*
X85034285Y-33549285D02*
X85034285Y-33763571D01*
X85034285Y-33763571D02*
X84962857Y-33906428D01*
X84962857Y-33906428D02*
X84891428Y-33977857D01*
X84891428Y-33977857D02*
X84748571Y-34049285D01*
X84748571Y-34049285D02*
X84177142Y-34049285D01*
X86534285Y-34620714D02*
X86462857Y-34692142D01*
X86462857Y-34692142D02*
X86248571Y-34763571D01*
X86248571Y-34763571D02*
X86105714Y-34763571D01*
X86105714Y-34763571D02*
X85891428Y-34692142D01*
X85891428Y-34692142D02*
X85748571Y-34549285D01*
X85748571Y-34549285D02*
X85677142Y-34406428D01*
X85677142Y-34406428D02*
X85605714Y-34120714D01*
X85605714Y-34120714D02*
X85605714Y-33906428D01*
X85605714Y-33906428D02*
X85677142Y-33620714D01*
X85677142Y-33620714D02*
X85748571Y-33477857D01*
X85748571Y-33477857D02*
X85891428Y-33335000D01*
X85891428Y-33335000D02*
X86105714Y-33263571D01*
X86105714Y-33263571D02*
X86248571Y-33263571D01*
X86248571Y-33263571D02*
X86462857Y-33335000D01*
X86462857Y-33335000D02*
X86534285Y-33406428D01*
X87177142Y-34763571D02*
X87177142Y-33263571D01*
X87177142Y-33977857D02*
X88034285Y-33977857D01*
X88034285Y-34763571D02*
X88034285Y-33263571D01*
X90077143Y-33263571D02*
X90077143Y-34335000D01*
X90077143Y-34335000D02*
X90005714Y-34549285D01*
X90005714Y-34549285D02*
X89862857Y-34692142D01*
X89862857Y-34692142D02*
X89648571Y-34763571D01*
X89648571Y-34763571D02*
X89505714Y-34763571D01*
X90791428Y-34763571D02*
X90791428Y-33263571D01*
X92291429Y-33335000D02*
X92148572Y-33263571D01*
X92148572Y-33263571D02*
X91934286Y-33263571D01*
X91934286Y-33263571D02*
X91720000Y-33335000D01*
X91720000Y-33335000D02*
X91577143Y-33477857D01*
X91577143Y-33477857D02*
X91505714Y-33620714D01*
X91505714Y-33620714D02*
X91434286Y-33906428D01*
X91434286Y-33906428D02*
X91434286Y-34120714D01*
X91434286Y-34120714D02*
X91505714Y-34406428D01*
X91505714Y-34406428D02*
X91577143Y-34549285D01*
X91577143Y-34549285D02*
X91720000Y-34692142D01*
X91720000Y-34692142D02*
X91934286Y-34763571D01*
X91934286Y-34763571D02*
X92077143Y-34763571D01*
X92077143Y-34763571D02*
X92291429Y-34692142D01*
X92291429Y-34692142D02*
X92362857Y-34620714D01*
X92362857Y-34620714D02*
X92362857Y-34120714D01*
X92362857Y-34120714D02*
X92077143Y-34120714D01*
X93905714Y-34763571D02*
X93905714Y-33263571D01*
X93905714Y-33263571D02*
X94405714Y-34335000D01*
X94405714Y-34335000D02*
X94905714Y-33263571D01*
X94905714Y-33263571D02*
X94905714Y-34763571D01*
X95620000Y-33263571D02*
X95620000Y-34477857D01*
X95620000Y-34477857D02*
X95691429Y-34620714D01*
X95691429Y-34620714D02*
X95762858Y-34692142D01*
X95762858Y-34692142D02*
X95905715Y-34763571D01*
X95905715Y-34763571D02*
X96191429Y-34763571D01*
X96191429Y-34763571D02*
X96334286Y-34692142D01*
X96334286Y-34692142D02*
X96405715Y-34620714D01*
X96405715Y-34620714D02*
X96477143Y-34477857D01*
X96477143Y-34477857D02*
X96477143Y-33263571D01*
X97905715Y-34763571D02*
X97191429Y-34763571D01*
X97191429Y-34763571D02*
X97191429Y-33263571D01*
X98191430Y-33263571D02*
X99048573Y-33263571D01*
X98620001Y-34763571D02*
X98620001Y-33263571D01*
X99548572Y-34763571D02*
X99548572Y-33263571D01*
X101091430Y-34692142D02*
X101305716Y-34763571D01*
X101305716Y-34763571D02*
X101662858Y-34763571D01*
X101662858Y-34763571D02*
X101805716Y-34692142D01*
X101805716Y-34692142D02*
X101877144Y-34620714D01*
X101877144Y-34620714D02*
X101948573Y-34477857D01*
X101948573Y-34477857D02*
X101948573Y-34335000D01*
X101948573Y-34335000D02*
X101877144Y-34192142D01*
X101877144Y-34192142D02*
X101805716Y-34120714D01*
X101805716Y-34120714D02*
X101662858Y-34049285D01*
X101662858Y-34049285D02*
X101377144Y-33977857D01*
X101377144Y-33977857D02*
X101234287Y-33906428D01*
X101234287Y-33906428D02*
X101162858Y-33835000D01*
X101162858Y-33835000D02*
X101091430Y-33692142D01*
X101091430Y-33692142D02*
X101091430Y-33549285D01*
X101091430Y-33549285D02*
X101162858Y-33406428D01*
X101162858Y-33406428D02*
X101234287Y-33335000D01*
X101234287Y-33335000D02*
X101377144Y-33263571D01*
X101377144Y-33263571D02*
X101734287Y-33263571D01*
X101734287Y-33263571D02*
X101948573Y-33335000D01*
X102448572Y-33263571D02*
X102805715Y-34763571D01*
X102805715Y-34763571D02*
X103091429Y-33692142D01*
X103091429Y-33692142D02*
X103377144Y-34763571D01*
X103377144Y-34763571D02*
X103734287Y-33263571D01*
X104305715Y-34763571D02*
X104305715Y-33263571D01*
X104805716Y-33263571D02*
X105662859Y-33263571D01*
X105234287Y-34763571D02*
X105234287Y-33263571D01*
X107020001Y-34620714D02*
X106948573Y-34692142D01*
X106948573Y-34692142D02*
X106734287Y-34763571D01*
X106734287Y-34763571D02*
X106591430Y-34763571D01*
X106591430Y-34763571D02*
X106377144Y-34692142D01*
X106377144Y-34692142D02*
X106234287Y-34549285D01*
X106234287Y-34549285D02*
X106162858Y-34406428D01*
X106162858Y-34406428D02*
X106091430Y-34120714D01*
X106091430Y-34120714D02*
X106091430Y-33906428D01*
X106091430Y-33906428D02*
X106162858Y-33620714D01*
X106162858Y-33620714D02*
X106234287Y-33477857D01*
X106234287Y-33477857D02*
X106377144Y-33335000D01*
X106377144Y-33335000D02*
X106591430Y-33263571D01*
X106591430Y-33263571D02*
X106734287Y-33263571D01*
X106734287Y-33263571D02*
X106948573Y-33335000D01*
X106948573Y-33335000D02*
X107020001Y-33406428D01*
X107662858Y-34763571D02*
X107662858Y-33263571D01*
X107662858Y-33977857D02*
X108520001Y-33977857D01*
X108520001Y-34763571D02*
X108520001Y-33263571D01*
X110634287Y-33977857D02*
X110848573Y-34049285D01*
X110848573Y-34049285D02*
X110920002Y-34120714D01*
X110920002Y-34120714D02*
X110991430Y-34263571D01*
X110991430Y-34263571D02*
X110991430Y-34477857D01*
X110991430Y-34477857D02*
X110920002Y-34620714D01*
X110920002Y-34620714D02*
X110848573Y-34692142D01*
X110848573Y-34692142D02*
X110705716Y-34763571D01*
X110705716Y-34763571D02*
X110134287Y-34763571D01*
X110134287Y-34763571D02*
X110134287Y-33263571D01*
X110134287Y-33263571D02*
X110634287Y-33263571D01*
X110634287Y-33263571D02*
X110777145Y-33335000D01*
X110777145Y-33335000D02*
X110848573Y-33406428D01*
X110848573Y-33406428D02*
X110920002Y-33549285D01*
X110920002Y-33549285D02*
X110920002Y-33692142D01*
X110920002Y-33692142D02*
X110848573Y-33835000D01*
X110848573Y-33835000D02*
X110777145Y-33906428D01*
X110777145Y-33906428D02*
X110634287Y-33977857D01*
X110634287Y-33977857D02*
X110134287Y-33977857D01*
X111920002Y-33263571D02*
X112205716Y-33263571D01*
X112205716Y-33263571D02*
X112348573Y-33335000D01*
X112348573Y-33335000D02*
X112491430Y-33477857D01*
X112491430Y-33477857D02*
X112562859Y-33763571D01*
X112562859Y-33763571D02*
X112562859Y-34263571D01*
X112562859Y-34263571D02*
X112491430Y-34549285D01*
X112491430Y-34549285D02*
X112348573Y-34692142D01*
X112348573Y-34692142D02*
X112205716Y-34763571D01*
X112205716Y-34763571D02*
X111920002Y-34763571D01*
X111920002Y-34763571D02*
X111777145Y-34692142D01*
X111777145Y-34692142D02*
X111634287Y-34549285D01*
X111634287Y-34549285D02*
X111562859Y-34263571D01*
X111562859Y-34263571D02*
X111562859Y-33763571D01*
X111562859Y-33763571D02*
X111634287Y-33477857D01*
X111634287Y-33477857D02*
X111777145Y-33335000D01*
X111777145Y-33335000D02*
X111920002Y-33263571D01*
X113134288Y-34335000D02*
X113848574Y-34335000D01*
X112991431Y-34763571D02*
X113491431Y-33263571D01*
X113491431Y-33263571D02*
X113991431Y-34763571D01*
X115348573Y-34763571D02*
X114848573Y-34049285D01*
X114491430Y-34763571D02*
X114491430Y-33263571D01*
X114491430Y-33263571D02*
X115062859Y-33263571D01*
X115062859Y-33263571D02*
X115205716Y-33335000D01*
X115205716Y-33335000D02*
X115277145Y-33406428D01*
X115277145Y-33406428D02*
X115348573Y-33549285D01*
X115348573Y-33549285D02*
X115348573Y-33763571D01*
X115348573Y-33763571D02*
X115277145Y-33906428D01*
X115277145Y-33906428D02*
X115205716Y-33977857D01*
X115205716Y-33977857D02*
X115062859Y-34049285D01*
X115062859Y-34049285D02*
X114491430Y-34049285D01*
X115991430Y-34763571D02*
X115991430Y-33263571D01*
X115991430Y-33263571D02*
X116348573Y-33263571D01*
X116348573Y-33263571D02*
X116562859Y-33335000D01*
X116562859Y-33335000D02*
X116705716Y-33477857D01*
X116705716Y-33477857D02*
X116777145Y-33620714D01*
X116777145Y-33620714D02*
X116848573Y-33906428D01*
X116848573Y-33906428D02*
X116848573Y-34120714D01*
X116848573Y-34120714D02*
X116777145Y-34406428D01*
X116777145Y-34406428D02*
X116705716Y-34549285D01*
X116705716Y-34549285D02*
X116562859Y-34692142D01*
X116562859Y-34692142D02*
X116348573Y-34763571D01*
X116348573Y-34763571D02*
X115991430Y-34763571D01*
X118320002Y-33406428D02*
X118391430Y-33335000D01*
X118391430Y-33335000D02*
X118534288Y-33263571D01*
X118534288Y-33263571D02*
X118891430Y-33263571D01*
X118891430Y-33263571D02*
X119034288Y-33335000D01*
X119034288Y-33335000D02*
X119105716Y-33406428D01*
X119105716Y-33406428D02*
X119177145Y-33549285D01*
X119177145Y-33549285D02*
X119177145Y-33692142D01*
X119177145Y-33692142D02*
X119105716Y-33906428D01*
X119105716Y-33906428D02*
X118248573Y-34763571D01*
X118248573Y-34763571D02*
X119177145Y-34763571D01*
X119820001Y-34620714D02*
X119891430Y-34692142D01*
X119891430Y-34692142D02*
X119820001Y-34763571D01*
X119820001Y-34763571D02*
X119748573Y-34692142D01*
X119748573Y-34692142D02*
X119820001Y-34620714D01*
X119820001Y-34620714D02*
X119820001Y-34763571D01*
X120820002Y-33263571D02*
X120962859Y-33263571D01*
X120962859Y-33263571D02*
X121105716Y-33335000D01*
X121105716Y-33335000D02*
X121177145Y-33406428D01*
X121177145Y-33406428D02*
X121248573Y-33549285D01*
X121248573Y-33549285D02*
X121320002Y-33835000D01*
X121320002Y-33835000D02*
X121320002Y-34192142D01*
X121320002Y-34192142D02*
X121248573Y-34477857D01*
X121248573Y-34477857D02*
X121177145Y-34620714D01*
X121177145Y-34620714D02*
X121105716Y-34692142D01*
X121105716Y-34692142D02*
X120962859Y-34763571D01*
X120962859Y-34763571D02*
X120820002Y-34763571D01*
X120820002Y-34763571D02*
X120677145Y-34692142D01*
X120677145Y-34692142D02*
X120605716Y-34620714D01*
X120605716Y-34620714D02*
X120534287Y-34477857D01*
X120534287Y-34477857D02*
X120462859Y-34192142D01*
X120462859Y-34192142D02*
X120462859Y-33835000D01*
X120462859Y-33835000D02*
X120534287Y-33549285D01*
X120534287Y-33549285D02*
X120605716Y-33406428D01*
X120605716Y-33406428D02*
X120677145Y-33335000D01*
X120677145Y-33335000D02*
X120820002Y-33263571D01*
X84677142Y-36407857D02*
X84891428Y-36479285D01*
X84891428Y-36479285D02*
X84962857Y-36550714D01*
X84962857Y-36550714D02*
X85034285Y-36693571D01*
X85034285Y-36693571D02*
X85034285Y-36907857D01*
X85034285Y-36907857D02*
X84962857Y-37050714D01*
X84962857Y-37050714D02*
X84891428Y-37122142D01*
X84891428Y-37122142D02*
X84748571Y-37193571D01*
X84748571Y-37193571D02*
X84177142Y-37193571D01*
X84177142Y-37193571D02*
X84177142Y-35693571D01*
X84177142Y-35693571D02*
X84677142Y-35693571D01*
X84677142Y-35693571D02*
X84820000Y-35765000D01*
X84820000Y-35765000D02*
X84891428Y-35836428D01*
X84891428Y-35836428D02*
X84962857Y-35979285D01*
X84962857Y-35979285D02*
X84962857Y-36122142D01*
X84962857Y-36122142D02*
X84891428Y-36265000D01*
X84891428Y-36265000D02*
X84820000Y-36336428D01*
X84820000Y-36336428D02*
X84677142Y-36407857D01*
X84677142Y-36407857D02*
X84177142Y-36407857D01*
X85534285Y-36193571D02*
X85891428Y-37193571D01*
X86248571Y-36193571D02*
X85891428Y-37193571D01*
X85891428Y-37193571D02*
X85748571Y-37550714D01*
X85748571Y-37550714D02*
X85677142Y-37622142D01*
X85677142Y-37622142D02*
X85534285Y-37693571D01*
X87719999Y-37193571D02*
X87719999Y-35693571D01*
X87719999Y-35693571D02*
X88219999Y-36765000D01*
X88219999Y-36765000D02*
X88719999Y-35693571D01*
X88719999Y-35693571D02*
X88719999Y-37193571D01*
X90077143Y-37193571D02*
X90077143Y-36407857D01*
X90077143Y-36407857D02*
X90005714Y-36265000D01*
X90005714Y-36265000D02*
X89862857Y-36193571D01*
X89862857Y-36193571D02*
X89577143Y-36193571D01*
X89577143Y-36193571D02*
X89434285Y-36265000D01*
X90077143Y-37122142D02*
X89934285Y-37193571D01*
X89934285Y-37193571D02*
X89577143Y-37193571D01*
X89577143Y-37193571D02*
X89434285Y-37122142D01*
X89434285Y-37122142D02*
X89362857Y-36979285D01*
X89362857Y-36979285D02*
X89362857Y-36836428D01*
X89362857Y-36836428D02*
X89434285Y-36693571D01*
X89434285Y-36693571D02*
X89577143Y-36622142D01*
X89577143Y-36622142D02*
X89934285Y-36622142D01*
X89934285Y-36622142D02*
X90077143Y-36550714D01*
X90577143Y-36193571D02*
X91148571Y-36193571D01*
X90791428Y-35693571D02*
X90791428Y-36979285D01*
X90791428Y-36979285D02*
X90862857Y-37122142D01*
X90862857Y-37122142D02*
X91005714Y-37193571D01*
X91005714Y-37193571D02*
X91148571Y-37193571D01*
X91648571Y-37193571D02*
X91648571Y-35693571D01*
X92291429Y-37193571D02*
X92291429Y-36407857D01*
X92291429Y-36407857D02*
X92220000Y-36265000D01*
X92220000Y-36265000D02*
X92077143Y-36193571D01*
X92077143Y-36193571D02*
X91862857Y-36193571D01*
X91862857Y-36193571D02*
X91720000Y-36265000D01*
X91720000Y-36265000D02*
X91648571Y-36336428D01*
X93005714Y-37193571D02*
X93005714Y-36193571D01*
X93005714Y-35693571D02*
X92934286Y-35765000D01*
X92934286Y-35765000D02*
X93005714Y-35836428D01*
X93005714Y-35836428D02*
X93077143Y-35765000D01*
X93077143Y-35765000D02*
X93005714Y-35693571D01*
X93005714Y-35693571D02*
X93005714Y-35836428D01*
X94291429Y-37122142D02*
X94148572Y-37193571D01*
X94148572Y-37193571D02*
X93862858Y-37193571D01*
X93862858Y-37193571D02*
X93720000Y-37122142D01*
X93720000Y-37122142D02*
X93648572Y-36979285D01*
X93648572Y-36979285D02*
X93648572Y-36407857D01*
X93648572Y-36407857D02*
X93720000Y-36265000D01*
X93720000Y-36265000D02*
X93862858Y-36193571D01*
X93862858Y-36193571D02*
X94148572Y-36193571D01*
X94148572Y-36193571D02*
X94291429Y-36265000D01*
X94291429Y-36265000D02*
X94362858Y-36407857D01*
X94362858Y-36407857D02*
X94362858Y-36550714D01*
X94362858Y-36550714D02*
X93648572Y-36693571D01*
X95648572Y-36193571D02*
X95648572Y-37193571D01*
X95005714Y-36193571D02*
X95005714Y-36979285D01*
X95005714Y-36979285D02*
X95077143Y-37122142D01*
X95077143Y-37122142D02*
X95220000Y-37193571D01*
X95220000Y-37193571D02*
X95434286Y-37193571D01*
X95434286Y-37193571D02*
X95577143Y-37122142D01*
X95577143Y-37122142D02*
X95648572Y-37050714D01*
X96577143Y-37193571D02*
X96434286Y-37122142D01*
X96434286Y-37122142D02*
X96362857Y-36979285D01*
X96362857Y-36979285D02*
X96362857Y-35693571D01*
X97148571Y-37193571D02*
X97148571Y-35693571D01*
X97791429Y-37193571D02*
X97791429Y-36407857D01*
X97791429Y-36407857D02*
X97720000Y-36265000D01*
X97720000Y-36265000D02*
X97577143Y-36193571D01*
X97577143Y-36193571D02*
X97362857Y-36193571D01*
X97362857Y-36193571D02*
X97220000Y-36265000D01*
X97220000Y-36265000D02*
X97148571Y-36336428D01*
D12*
X34639047Y-89214761D02*
X33972380Y-88262380D01*
X33496190Y-89214761D02*
X33496190Y-87214761D01*
X33496190Y-87214761D02*
X34258095Y-87214761D01*
X34258095Y-87214761D02*
X34448571Y-87310000D01*
X34448571Y-87310000D02*
X34543809Y-87405238D01*
X34543809Y-87405238D02*
X34639047Y-87595714D01*
X34639047Y-87595714D02*
X34639047Y-87881428D01*
X34639047Y-87881428D02*
X34543809Y-88071904D01*
X34543809Y-88071904D02*
X34448571Y-88167142D01*
X34448571Y-88167142D02*
X34258095Y-88262380D01*
X34258095Y-88262380D02*
X33496190Y-88262380D01*
X36543809Y-89214761D02*
X35400952Y-89214761D01*
X35972380Y-89214761D02*
X35972380Y-87214761D01*
X35972380Y-87214761D02*
X35781904Y-87500476D01*
X35781904Y-87500476D02*
X35591428Y-87690952D01*
X35591428Y-87690952D02*
X35400952Y-87786190D01*
X38600952Y-88167142D02*
X40124762Y-88167142D01*
X40124762Y-88738571D02*
X38600952Y-88738571D01*
X42086666Y-87214761D02*
X43419999Y-87214761D01*
X43419999Y-87214761D02*
X42562856Y-89214761D01*
X44181904Y-89024285D02*
X44277142Y-89119523D01*
X44277142Y-89119523D02*
X44181904Y-89214761D01*
X44181904Y-89214761D02*
X44086666Y-89119523D01*
X44086666Y-89119523D02*
X44181904Y-89024285D01*
X44181904Y-89024285D02*
X44181904Y-89214761D01*
X46086666Y-87214761D02*
X45134285Y-87214761D01*
X45134285Y-87214761D02*
X45039047Y-88167142D01*
X45039047Y-88167142D02*
X45134285Y-88071904D01*
X45134285Y-88071904D02*
X45324761Y-87976666D01*
X45324761Y-87976666D02*
X45800952Y-87976666D01*
X45800952Y-87976666D02*
X45991428Y-88071904D01*
X45991428Y-88071904D02*
X46086666Y-88167142D01*
X46086666Y-88167142D02*
X46181904Y-88357619D01*
X46181904Y-88357619D02*
X46181904Y-88833809D01*
X46181904Y-88833809D02*
X46086666Y-89024285D01*
X46086666Y-89024285D02*
X45991428Y-89119523D01*
X45991428Y-89119523D02*
X45800952Y-89214761D01*
X45800952Y-89214761D02*
X45324761Y-89214761D01*
X45324761Y-89214761D02*
X45134285Y-89119523D01*
X45134285Y-89119523D02*
X45039047Y-89024285D01*
X47039047Y-89214761D02*
X47039047Y-87214761D01*
X48181904Y-89214761D02*
X47324761Y-88071904D01*
X48181904Y-87214761D02*
X47039047Y-88357619D01*
X34639047Y-92454761D02*
X33972380Y-91502380D01*
X33496190Y-92454761D02*
X33496190Y-90454761D01*
X33496190Y-90454761D02*
X34258095Y-90454761D01*
X34258095Y-90454761D02*
X34448571Y-90550000D01*
X34448571Y-90550000D02*
X34543809Y-90645238D01*
X34543809Y-90645238D02*
X34639047Y-90835714D01*
X34639047Y-90835714D02*
X34639047Y-91121428D01*
X34639047Y-91121428D02*
X34543809Y-91311904D01*
X34543809Y-91311904D02*
X34448571Y-91407142D01*
X34448571Y-91407142D02*
X34258095Y-91502380D01*
X34258095Y-91502380D02*
X33496190Y-91502380D01*
X35400952Y-90645238D02*
X35496190Y-90550000D01*
X35496190Y-90550000D02*
X35686666Y-90454761D01*
X35686666Y-90454761D02*
X36162857Y-90454761D01*
X36162857Y-90454761D02*
X36353333Y-90550000D01*
X36353333Y-90550000D02*
X36448571Y-90645238D01*
X36448571Y-90645238D02*
X36543809Y-90835714D01*
X36543809Y-90835714D02*
X36543809Y-91026190D01*
X36543809Y-91026190D02*
X36448571Y-91311904D01*
X36448571Y-91311904D02*
X35305714Y-92454761D01*
X35305714Y-92454761D02*
X36543809Y-92454761D01*
X38600952Y-91407142D02*
X40124762Y-91407142D01*
X40124762Y-91978571D02*
X38600952Y-91978571D01*
X43324761Y-92454761D02*
X42181904Y-92454761D01*
X42753332Y-92454761D02*
X42753332Y-90454761D01*
X42753332Y-90454761D02*
X42562856Y-90740476D01*
X42562856Y-90740476D02*
X42372380Y-90930952D01*
X42372380Y-90930952D02*
X42181904Y-91026190D01*
X44562856Y-90454761D02*
X44753333Y-90454761D01*
X44753333Y-90454761D02*
X44943809Y-90550000D01*
X44943809Y-90550000D02*
X45039047Y-90645238D01*
X45039047Y-90645238D02*
X45134285Y-90835714D01*
X45134285Y-90835714D02*
X45229523Y-91216666D01*
X45229523Y-91216666D02*
X45229523Y-91692857D01*
X45229523Y-91692857D02*
X45134285Y-92073809D01*
X45134285Y-92073809D02*
X45039047Y-92264285D01*
X45039047Y-92264285D02*
X44943809Y-92359523D01*
X44943809Y-92359523D02*
X44753333Y-92454761D01*
X44753333Y-92454761D02*
X44562856Y-92454761D01*
X44562856Y-92454761D02*
X44372380Y-92359523D01*
X44372380Y-92359523D02*
X44277142Y-92264285D01*
X44277142Y-92264285D02*
X44181904Y-92073809D01*
X44181904Y-92073809D02*
X44086666Y-91692857D01*
X44086666Y-91692857D02*
X44086666Y-91216666D01*
X44086666Y-91216666D02*
X44181904Y-90835714D01*
X44181904Y-90835714D02*
X44277142Y-90645238D01*
X44277142Y-90645238D02*
X44372380Y-90550000D01*
X44372380Y-90550000D02*
X44562856Y-90454761D01*
X46086666Y-92454761D02*
X46086666Y-90454761D01*
X47229523Y-92454761D02*
X46372380Y-91311904D01*
X47229523Y-90454761D02*
X46086666Y-91597619D01*
X34639047Y-95694761D02*
X33972380Y-94742380D01*
X33496190Y-95694761D02*
X33496190Y-93694761D01*
X33496190Y-93694761D02*
X34258095Y-93694761D01*
X34258095Y-93694761D02*
X34448571Y-93790000D01*
X34448571Y-93790000D02*
X34543809Y-93885238D01*
X34543809Y-93885238D02*
X34639047Y-94075714D01*
X34639047Y-94075714D02*
X34639047Y-94361428D01*
X34639047Y-94361428D02*
X34543809Y-94551904D01*
X34543809Y-94551904D02*
X34448571Y-94647142D01*
X34448571Y-94647142D02*
X34258095Y-94742380D01*
X34258095Y-94742380D02*
X33496190Y-94742380D01*
X35305714Y-93694761D02*
X36543809Y-93694761D01*
X36543809Y-93694761D02*
X35877142Y-94456666D01*
X35877142Y-94456666D02*
X36162857Y-94456666D01*
X36162857Y-94456666D02*
X36353333Y-94551904D01*
X36353333Y-94551904D02*
X36448571Y-94647142D01*
X36448571Y-94647142D02*
X36543809Y-94837619D01*
X36543809Y-94837619D02*
X36543809Y-95313809D01*
X36543809Y-95313809D02*
X36448571Y-95504285D01*
X36448571Y-95504285D02*
X36353333Y-95599523D01*
X36353333Y-95599523D02*
X36162857Y-95694761D01*
X36162857Y-95694761D02*
X35591428Y-95694761D01*
X35591428Y-95694761D02*
X35400952Y-95599523D01*
X35400952Y-95599523D02*
X35305714Y-95504285D01*
X38600952Y-94647142D02*
X40124762Y-94647142D01*
X40124762Y-95218571D02*
X38600952Y-95218571D01*
X42658094Y-93694761D02*
X42848571Y-93694761D01*
X42848571Y-93694761D02*
X43039047Y-93790000D01*
X43039047Y-93790000D02*
X43134285Y-93885238D01*
X43134285Y-93885238D02*
X43229523Y-94075714D01*
X43229523Y-94075714D02*
X43324761Y-94456666D01*
X43324761Y-94456666D02*
X43324761Y-94932857D01*
X43324761Y-94932857D02*
X43229523Y-95313809D01*
X43229523Y-95313809D02*
X43134285Y-95504285D01*
X43134285Y-95504285D02*
X43039047Y-95599523D01*
X43039047Y-95599523D02*
X42848571Y-95694761D01*
X42848571Y-95694761D02*
X42658094Y-95694761D01*
X42658094Y-95694761D02*
X42467618Y-95599523D01*
X42467618Y-95599523D02*
X42372380Y-95504285D01*
X42372380Y-95504285D02*
X42277142Y-95313809D01*
X42277142Y-95313809D02*
X42181904Y-94932857D01*
X42181904Y-94932857D02*
X42181904Y-94456666D01*
X42181904Y-94456666D02*
X42277142Y-94075714D01*
X42277142Y-94075714D02*
X42372380Y-93885238D01*
X42372380Y-93885238D02*
X42467618Y-93790000D01*
X42467618Y-93790000D02*
X42658094Y-93694761D01*
X34639047Y-98934761D02*
X33972380Y-97982380D01*
X33496190Y-98934761D02*
X33496190Y-96934761D01*
X33496190Y-96934761D02*
X34258095Y-96934761D01*
X34258095Y-96934761D02*
X34448571Y-97030000D01*
X34448571Y-97030000D02*
X34543809Y-97125238D01*
X34543809Y-97125238D02*
X34639047Y-97315714D01*
X34639047Y-97315714D02*
X34639047Y-97601428D01*
X34639047Y-97601428D02*
X34543809Y-97791904D01*
X34543809Y-97791904D02*
X34448571Y-97887142D01*
X34448571Y-97887142D02*
X34258095Y-97982380D01*
X34258095Y-97982380D02*
X33496190Y-97982380D01*
X36353333Y-97601428D02*
X36353333Y-98934761D01*
X35877142Y-96839523D02*
X35400952Y-98268095D01*
X35400952Y-98268095D02*
X36639047Y-98268095D01*
X38600952Y-97887142D02*
X40124762Y-97887142D01*
X40124762Y-98458571D02*
X38600952Y-98458571D01*
X42658094Y-96934761D02*
X42848571Y-96934761D01*
X42848571Y-96934761D02*
X43039047Y-97030000D01*
X43039047Y-97030000D02*
X43134285Y-97125238D01*
X43134285Y-97125238D02*
X43229523Y-97315714D01*
X43229523Y-97315714D02*
X43324761Y-97696666D01*
X43324761Y-97696666D02*
X43324761Y-98172857D01*
X43324761Y-98172857D02*
X43229523Y-98553809D01*
X43229523Y-98553809D02*
X43134285Y-98744285D01*
X43134285Y-98744285D02*
X43039047Y-98839523D01*
X43039047Y-98839523D02*
X42848571Y-98934761D01*
X42848571Y-98934761D02*
X42658094Y-98934761D01*
X42658094Y-98934761D02*
X42467618Y-98839523D01*
X42467618Y-98839523D02*
X42372380Y-98744285D01*
X42372380Y-98744285D02*
X42277142Y-98553809D01*
X42277142Y-98553809D02*
X42181904Y-98172857D01*
X42181904Y-98172857D02*
X42181904Y-97696666D01*
X42181904Y-97696666D02*
X42277142Y-97315714D01*
X42277142Y-97315714D02*
X42372380Y-97125238D01*
X42372380Y-97125238D02*
X42467618Y-97030000D01*
X42467618Y-97030000D02*
X42658094Y-96934761D01*
X34639047Y-102174761D02*
X33972380Y-101222380D01*
X33496190Y-102174761D02*
X33496190Y-100174761D01*
X33496190Y-100174761D02*
X34258095Y-100174761D01*
X34258095Y-100174761D02*
X34448571Y-100270000D01*
X34448571Y-100270000D02*
X34543809Y-100365238D01*
X34543809Y-100365238D02*
X34639047Y-100555714D01*
X34639047Y-100555714D02*
X34639047Y-100841428D01*
X34639047Y-100841428D02*
X34543809Y-101031904D01*
X34543809Y-101031904D02*
X34448571Y-101127142D01*
X34448571Y-101127142D02*
X34258095Y-101222380D01*
X34258095Y-101222380D02*
X33496190Y-101222380D01*
X36448571Y-100174761D02*
X35496190Y-100174761D01*
X35496190Y-100174761D02*
X35400952Y-101127142D01*
X35400952Y-101127142D02*
X35496190Y-101031904D01*
X35496190Y-101031904D02*
X35686666Y-100936666D01*
X35686666Y-100936666D02*
X36162857Y-100936666D01*
X36162857Y-100936666D02*
X36353333Y-101031904D01*
X36353333Y-101031904D02*
X36448571Y-101127142D01*
X36448571Y-101127142D02*
X36543809Y-101317619D01*
X36543809Y-101317619D02*
X36543809Y-101793809D01*
X36543809Y-101793809D02*
X36448571Y-101984285D01*
X36448571Y-101984285D02*
X36353333Y-102079523D01*
X36353333Y-102079523D02*
X36162857Y-102174761D01*
X36162857Y-102174761D02*
X35686666Y-102174761D01*
X35686666Y-102174761D02*
X35496190Y-102079523D01*
X35496190Y-102079523D02*
X35400952Y-101984285D01*
X38600952Y-101127142D02*
X40124762Y-101127142D01*
X40124762Y-101698571D02*
X38600952Y-101698571D01*
X42658094Y-100174761D02*
X42848571Y-100174761D01*
X42848571Y-100174761D02*
X43039047Y-100270000D01*
X43039047Y-100270000D02*
X43134285Y-100365238D01*
X43134285Y-100365238D02*
X43229523Y-100555714D01*
X43229523Y-100555714D02*
X43324761Y-100936666D01*
X43324761Y-100936666D02*
X43324761Y-101412857D01*
X43324761Y-101412857D02*
X43229523Y-101793809D01*
X43229523Y-101793809D02*
X43134285Y-101984285D01*
X43134285Y-101984285D02*
X43039047Y-102079523D01*
X43039047Y-102079523D02*
X42848571Y-102174761D01*
X42848571Y-102174761D02*
X42658094Y-102174761D01*
X42658094Y-102174761D02*
X42467618Y-102079523D01*
X42467618Y-102079523D02*
X42372380Y-101984285D01*
X42372380Y-101984285D02*
X42277142Y-101793809D01*
X42277142Y-101793809D02*
X42181904Y-101412857D01*
X42181904Y-101412857D02*
X42181904Y-100936666D01*
X42181904Y-100936666D02*
X42277142Y-100555714D01*
X42277142Y-100555714D02*
X42372380Y-100365238D01*
X42372380Y-100365238D02*
X42467618Y-100270000D01*
X42467618Y-100270000D02*
X42658094Y-100174761D01*
X34639047Y-105414761D02*
X33972380Y-104462380D01*
X33496190Y-105414761D02*
X33496190Y-103414761D01*
X33496190Y-103414761D02*
X34258095Y-103414761D01*
X34258095Y-103414761D02*
X34448571Y-103510000D01*
X34448571Y-103510000D02*
X34543809Y-103605238D01*
X34543809Y-103605238D02*
X34639047Y-103795714D01*
X34639047Y-103795714D02*
X34639047Y-104081428D01*
X34639047Y-104081428D02*
X34543809Y-104271904D01*
X34543809Y-104271904D02*
X34448571Y-104367142D01*
X34448571Y-104367142D02*
X34258095Y-104462380D01*
X34258095Y-104462380D02*
X33496190Y-104462380D01*
X36353333Y-103414761D02*
X35972380Y-103414761D01*
X35972380Y-103414761D02*
X35781904Y-103510000D01*
X35781904Y-103510000D02*
X35686666Y-103605238D01*
X35686666Y-103605238D02*
X35496190Y-103890952D01*
X35496190Y-103890952D02*
X35400952Y-104271904D01*
X35400952Y-104271904D02*
X35400952Y-105033809D01*
X35400952Y-105033809D02*
X35496190Y-105224285D01*
X35496190Y-105224285D02*
X35591428Y-105319523D01*
X35591428Y-105319523D02*
X35781904Y-105414761D01*
X35781904Y-105414761D02*
X36162857Y-105414761D01*
X36162857Y-105414761D02*
X36353333Y-105319523D01*
X36353333Y-105319523D02*
X36448571Y-105224285D01*
X36448571Y-105224285D02*
X36543809Y-105033809D01*
X36543809Y-105033809D02*
X36543809Y-104557619D01*
X36543809Y-104557619D02*
X36448571Y-104367142D01*
X36448571Y-104367142D02*
X36353333Y-104271904D01*
X36353333Y-104271904D02*
X36162857Y-104176666D01*
X36162857Y-104176666D02*
X35781904Y-104176666D01*
X35781904Y-104176666D02*
X35591428Y-104271904D01*
X35591428Y-104271904D02*
X35496190Y-104367142D01*
X35496190Y-104367142D02*
X35400952Y-104557619D01*
X38600952Y-104367142D02*
X40124762Y-104367142D01*
X40124762Y-104938571D02*
X38600952Y-104938571D01*
X42086666Y-103414761D02*
X43419999Y-103414761D01*
X43419999Y-103414761D02*
X42562856Y-105414761D01*
X44181904Y-105224285D02*
X44277142Y-105319523D01*
X44277142Y-105319523D02*
X44181904Y-105414761D01*
X44181904Y-105414761D02*
X44086666Y-105319523D01*
X44086666Y-105319523D02*
X44181904Y-105224285D01*
X44181904Y-105224285D02*
X44181904Y-105414761D01*
X46086666Y-103414761D02*
X45134285Y-103414761D01*
X45134285Y-103414761D02*
X45039047Y-104367142D01*
X45039047Y-104367142D02*
X45134285Y-104271904D01*
X45134285Y-104271904D02*
X45324761Y-104176666D01*
X45324761Y-104176666D02*
X45800952Y-104176666D01*
X45800952Y-104176666D02*
X45991428Y-104271904D01*
X45991428Y-104271904D02*
X46086666Y-104367142D01*
X46086666Y-104367142D02*
X46181904Y-104557619D01*
X46181904Y-104557619D02*
X46181904Y-105033809D01*
X46181904Y-105033809D02*
X46086666Y-105224285D01*
X46086666Y-105224285D02*
X45991428Y-105319523D01*
X45991428Y-105319523D02*
X45800952Y-105414761D01*
X45800952Y-105414761D02*
X45324761Y-105414761D01*
X45324761Y-105414761D02*
X45134285Y-105319523D01*
X45134285Y-105319523D02*
X45039047Y-105224285D01*
X47039047Y-105414761D02*
X47039047Y-103414761D01*
X48181904Y-105414761D02*
X47324761Y-104271904D01*
X48181904Y-103414761D02*
X47039047Y-104557619D01*
X34639047Y-108654761D02*
X33972380Y-107702380D01*
X33496190Y-108654761D02*
X33496190Y-106654761D01*
X33496190Y-106654761D02*
X34258095Y-106654761D01*
X34258095Y-106654761D02*
X34448571Y-106750000D01*
X34448571Y-106750000D02*
X34543809Y-106845238D01*
X34543809Y-106845238D02*
X34639047Y-107035714D01*
X34639047Y-107035714D02*
X34639047Y-107321428D01*
X34639047Y-107321428D02*
X34543809Y-107511904D01*
X34543809Y-107511904D02*
X34448571Y-107607142D01*
X34448571Y-107607142D02*
X34258095Y-107702380D01*
X34258095Y-107702380D02*
X33496190Y-107702380D01*
X35305714Y-106654761D02*
X36639047Y-106654761D01*
X36639047Y-106654761D02*
X35781904Y-108654761D01*
X38600952Y-107607142D02*
X40124762Y-107607142D01*
X40124762Y-108178571D02*
X38600952Y-108178571D01*
X42181904Y-106845238D02*
X42277142Y-106750000D01*
X42277142Y-106750000D02*
X42467618Y-106654761D01*
X42467618Y-106654761D02*
X42943809Y-106654761D01*
X42943809Y-106654761D02*
X43134285Y-106750000D01*
X43134285Y-106750000D02*
X43229523Y-106845238D01*
X43229523Y-106845238D02*
X43324761Y-107035714D01*
X43324761Y-107035714D02*
X43324761Y-107226190D01*
X43324761Y-107226190D02*
X43229523Y-107511904D01*
X43229523Y-107511904D02*
X42086666Y-108654761D01*
X42086666Y-108654761D02*
X43324761Y-108654761D01*
X44181904Y-108654761D02*
X44181904Y-106654761D01*
X45324761Y-108654761D02*
X44467618Y-107511904D01*
X45324761Y-106654761D02*
X44181904Y-107797619D01*
X34639047Y-111894761D02*
X33972380Y-110942380D01*
X33496190Y-111894761D02*
X33496190Y-109894761D01*
X33496190Y-109894761D02*
X34258095Y-109894761D01*
X34258095Y-109894761D02*
X34448571Y-109990000D01*
X34448571Y-109990000D02*
X34543809Y-110085238D01*
X34543809Y-110085238D02*
X34639047Y-110275714D01*
X34639047Y-110275714D02*
X34639047Y-110561428D01*
X34639047Y-110561428D02*
X34543809Y-110751904D01*
X34543809Y-110751904D02*
X34448571Y-110847142D01*
X34448571Y-110847142D02*
X34258095Y-110942380D01*
X34258095Y-110942380D02*
X33496190Y-110942380D01*
X35781904Y-110751904D02*
X35591428Y-110656666D01*
X35591428Y-110656666D02*
X35496190Y-110561428D01*
X35496190Y-110561428D02*
X35400952Y-110370952D01*
X35400952Y-110370952D02*
X35400952Y-110275714D01*
X35400952Y-110275714D02*
X35496190Y-110085238D01*
X35496190Y-110085238D02*
X35591428Y-109990000D01*
X35591428Y-109990000D02*
X35781904Y-109894761D01*
X35781904Y-109894761D02*
X36162857Y-109894761D01*
X36162857Y-109894761D02*
X36353333Y-109990000D01*
X36353333Y-109990000D02*
X36448571Y-110085238D01*
X36448571Y-110085238D02*
X36543809Y-110275714D01*
X36543809Y-110275714D02*
X36543809Y-110370952D01*
X36543809Y-110370952D02*
X36448571Y-110561428D01*
X36448571Y-110561428D02*
X36353333Y-110656666D01*
X36353333Y-110656666D02*
X36162857Y-110751904D01*
X36162857Y-110751904D02*
X35781904Y-110751904D01*
X35781904Y-110751904D02*
X35591428Y-110847142D01*
X35591428Y-110847142D02*
X35496190Y-110942380D01*
X35496190Y-110942380D02*
X35400952Y-111132857D01*
X35400952Y-111132857D02*
X35400952Y-111513809D01*
X35400952Y-111513809D02*
X35496190Y-111704285D01*
X35496190Y-111704285D02*
X35591428Y-111799523D01*
X35591428Y-111799523D02*
X35781904Y-111894761D01*
X35781904Y-111894761D02*
X36162857Y-111894761D01*
X36162857Y-111894761D02*
X36353333Y-111799523D01*
X36353333Y-111799523D02*
X36448571Y-111704285D01*
X36448571Y-111704285D02*
X36543809Y-111513809D01*
X36543809Y-111513809D02*
X36543809Y-111132857D01*
X36543809Y-111132857D02*
X36448571Y-110942380D01*
X36448571Y-110942380D02*
X36353333Y-110847142D01*
X36353333Y-110847142D02*
X36162857Y-110751904D01*
X38600952Y-110847142D02*
X40124762Y-110847142D01*
X40124762Y-111418571D02*
X38600952Y-111418571D01*
X42181904Y-110085238D02*
X42277142Y-109990000D01*
X42277142Y-109990000D02*
X42467618Y-109894761D01*
X42467618Y-109894761D02*
X42943809Y-109894761D01*
X42943809Y-109894761D02*
X43134285Y-109990000D01*
X43134285Y-109990000D02*
X43229523Y-110085238D01*
X43229523Y-110085238D02*
X43324761Y-110275714D01*
X43324761Y-110275714D02*
X43324761Y-110466190D01*
X43324761Y-110466190D02*
X43229523Y-110751904D01*
X43229523Y-110751904D02*
X42086666Y-111894761D01*
X42086666Y-111894761D02*
X43324761Y-111894761D01*
X44181904Y-111894761D02*
X44181904Y-109894761D01*
X45324761Y-111894761D02*
X44467618Y-110751904D01*
X45324761Y-109894761D02*
X44181904Y-111037619D01*
X34639047Y-115134761D02*
X33972380Y-114182380D01*
X33496190Y-115134761D02*
X33496190Y-113134761D01*
X33496190Y-113134761D02*
X34258095Y-113134761D01*
X34258095Y-113134761D02*
X34448571Y-113230000D01*
X34448571Y-113230000D02*
X34543809Y-113325238D01*
X34543809Y-113325238D02*
X34639047Y-113515714D01*
X34639047Y-113515714D02*
X34639047Y-113801428D01*
X34639047Y-113801428D02*
X34543809Y-113991904D01*
X34543809Y-113991904D02*
X34448571Y-114087142D01*
X34448571Y-114087142D02*
X34258095Y-114182380D01*
X34258095Y-114182380D02*
X33496190Y-114182380D01*
X35591428Y-115134761D02*
X35972380Y-115134761D01*
X35972380Y-115134761D02*
X36162857Y-115039523D01*
X36162857Y-115039523D02*
X36258095Y-114944285D01*
X36258095Y-114944285D02*
X36448571Y-114658571D01*
X36448571Y-114658571D02*
X36543809Y-114277619D01*
X36543809Y-114277619D02*
X36543809Y-113515714D01*
X36543809Y-113515714D02*
X36448571Y-113325238D01*
X36448571Y-113325238D02*
X36353333Y-113230000D01*
X36353333Y-113230000D02*
X36162857Y-113134761D01*
X36162857Y-113134761D02*
X35781904Y-113134761D01*
X35781904Y-113134761D02*
X35591428Y-113230000D01*
X35591428Y-113230000D02*
X35496190Y-113325238D01*
X35496190Y-113325238D02*
X35400952Y-113515714D01*
X35400952Y-113515714D02*
X35400952Y-113991904D01*
X35400952Y-113991904D02*
X35496190Y-114182380D01*
X35496190Y-114182380D02*
X35591428Y-114277619D01*
X35591428Y-114277619D02*
X35781904Y-114372857D01*
X35781904Y-114372857D02*
X36162857Y-114372857D01*
X36162857Y-114372857D02*
X36353333Y-114277619D01*
X36353333Y-114277619D02*
X36448571Y-114182380D01*
X36448571Y-114182380D02*
X36543809Y-113991904D01*
X38600952Y-114087142D02*
X40124762Y-114087142D01*
X40124762Y-114658571D02*
X38600952Y-114658571D01*
X43324761Y-115134761D02*
X42181904Y-115134761D01*
X42753332Y-115134761D02*
X42753332Y-113134761D01*
X42753332Y-113134761D02*
X42562856Y-113420476D01*
X42562856Y-113420476D02*
X42372380Y-113610952D01*
X42372380Y-113610952D02*
X42181904Y-113706190D01*
X44181904Y-115134761D02*
X44181904Y-113134761D01*
X45324761Y-115134761D02*
X44467618Y-113991904D01*
X45324761Y-113134761D02*
X44181904Y-114277619D01*
D13*
X117253333Y-86147380D02*
X116920000Y-85671190D01*
X116681905Y-86147380D02*
X116681905Y-85147380D01*
X116681905Y-85147380D02*
X117062857Y-85147380D01*
X117062857Y-85147380D02*
X117158095Y-85195000D01*
X117158095Y-85195000D02*
X117205714Y-85242619D01*
X117205714Y-85242619D02*
X117253333Y-85337857D01*
X117253333Y-85337857D02*
X117253333Y-85480714D01*
X117253333Y-85480714D02*
X117205714Y-85575952D01*
X117205714Y-85575952D02*
X117158095Y-85623571D01*
X117158095Y-85623571D02*
X117062857Y-85671190D01*
X117062857Y-85671190D02*
X116681905Y-85671190D01*
X117586667Y-85147380D02*
X118253333Y-86147380D01*
X118253333Y-85147380D02*
X117586667Y-86147380D01*
X116658095Y-77527380D02*
X117229523Y-77527380D01*
X116943809Y-78527380D02*
X116943809Y-77527380D01*
X117467619Y-77527380D02*
X118134285Y-78527380D01*
X118134285Y-77527380D02*
X117467619Y-78527380D01*
D14*
X94265714Y-52864761D02*
X95503809Y-52864761D01*
X95503809Y-52864761D02*
X94837142Y-53626666D01*
X94837142Y-53626666D02*
X95122857Y-53626666D01*
X95122857Y-53626666D02*
X95313333Y-53721904D01*
X95313333Y-53721904D02*
X95408571Y-53817142D01*
X95408571Y-53817142D02*
X95503809Y-54007619D01*
X95503809Y-54007619D02*
X95503809Y-54483809D01*
X95503809Y-54483809D02*
X95408571Y-54674285D01*
X95408571Y-54674285D02*
X95313333Y-54769523D01*
X95313333Y-54769523D02*
X95122857Y-54864761D01*
X95122857Y-54864761D02*
X94551428Y-54864761D01*
X94551428Y-54864761D02*
X94360952Y-54769523D01*
X94360952Y-54769523D02*
X94265714Y-54674285D01*
X96360952Y-54674285D02*
X96456190Y-54769523D01*
X96456190Y-54769523D02*
X96360952Y-54864761D01*
X96360952Y-54864761D02*
X96265714Y-54769523D01*
X96265714Y-54769523D02*
X96360952Y-54674285D01*
X96360952Y-54674285D02*
X96360952Y-54864761D01*
X97122857Y-52864761D02*
X98360952Y-52864761D01*
X98360952Y-52864761D02*
X97694285Y-53626666D01*
X97694285Y-53626666D02*
X97980000Y-53626666D01*
X97980000Y-53626666D02*
X98170476Y-53721904D01*
X98170476Y-53721904D02*
X98265714Y-53817142D01*
X98265714Y-53817142D02*
X98360952Y-54007619D01*
X98360952Y-54007619D02*
X98360952Y-54483809D01*
X98360952Y-54483809D02*
X98265714Y-54674285D01*
X98265714Y-54674285D02*
X98170476Y-54769523D01*
X98170476Y-54769523D02*
X97980000Y-54864761D01*
X97980000Y-54864761D02*
X97408571Y-54864761D01*
X97408571Y-54864761D02*
X97218095Y-54769523D01*
X97218095Y-54769523D02*
X97122857Y-54674285D01*
X98932381Y-52864761D02*
X99599047Y-54864761D01*
X99599047Y-54864761D02*
X100265714Y-52864761D01*
D12*
X95599047Y-57464761D02*
X94932380Y-56512380D01*
X94456190Y-57464761D02*
X94456190Y-55464761D01*
X94456190Y-55464761D02*
X95218095Y-55464761D01*
X95218095Y-55464761D02*
X95408571Y-55560000D01*
X95408571Y-55560000D02*
X95503809Y-55655238D01*
X95503809Y-55655238D02*
X95599047Y-55845714D01*
X95599047Y-55845714D02*
X95599047Y-56131428D01*
X95599047Y-56131428D02*
X95503809Y-56321904D01*
X95503809Y-56321904D02*
X95408571Y-56417142D01*
X95408571Y-56417142D02*
X95218095Y-56512380D01*
X95218095Y-56512380D02*
X94456190Y-56512380D01*
X97503809Y-57464761D02*
X96360952Y-57464761D01*
X96932380Y-57464761D02*
X96932380Y-55464761D01*
X96932380Y-55464761D02*
X96741904Y-55750476D01*
X96741904Y-55750476D02*
X96551428Y-55940952D01*
X96551428Y-55940952D02*
X96360952Y-56036190D01*
X99560952Y-56417142D02*
X101084762Y-56417142D01*
X101084762Y-56988571D02*
X99560952Y-56988571D01*
X104284761Y-57464761D02*
X103141904Y-57464761D01*
X103713332Y-57464761D02*
X103713332Y-55464761D01*
X103713332Y-55464761D02*
X103522856Y-55750476D01*
X103522856Y-55750476D02*
X103332380Y-55940952D01*
X103332380Y-55940952D02*
X103141904Y-56036190D01*
X105141904Y-57464761D02*
X105141904Y-55464761D01*
X106284761Y-57464761D02*
X105427618Y-56321904D01*
X106284761Y-55464761D02*
X105141904Y-56607619D01*
X95599047Y-60704761D02*
X94932380Y-59752380D01*
X94456190Y-60704761D02*
X94456190Y-58704761D01*
X94456190Y-58704761D02*
X95218095Y-58704761D01*
X95218095Y-58704761D02*
X95408571Y-58800000D01*
X95408571Y-58800000D02*
X95503809Y-58895238D01*
X95503809Y-58895238D02*
X95599047Y-59085714D01*
X95599047Y-59085714D02*
X95599047Y-59371428D01*
X95599047Y-59371428D02*
X95503809Y-59561904D01*
X95503809Y-59561904D02*
X95408571Y-59657142D01*
X95408571Y-59657142D02*
X95218095Y-59752380D01*
X95218095Y-59752380D02*
X94456190Y-59752380D01*
X96360952Y-58895238D02*
X96456190Y-58800000D01*
X96456190Y-58800000D02*
X96646666Y-58704761D01*
X96646666Y-58704761D02*
X97122857Y-58704761D01*
X97122857Y-58704761D02*
X97313333Y-58800000D01*
X97313333Y-58800000D02*
X97408571Y-58895238D01*
X97408571Y-58895238D02*
X97503809Y-59085714D01*
X97503809Y-59085714D02*
X97503809Y-59276190D01*
X97503809Y-59276190D02*
X97408571Y-59561904D01*
X97408571Y-59561904D02*
X96265714Y-60704761D01*
X96265714Y-60704761D02*
X97503809Y-60704761D01*
X99560952Y-59657142D02*
X101084762Y-59657142D01*
X101084762Y-60228571D02*
X99560952Y-60228571D01*
X104284761Y-60704761D02*
X103141904Y-60704761D01*
X103713332Y-60704761D02*
X103713332Y-58704761D01*
X103713332Y-58704761D02*
X103522856Y-58990476D01*
X103522856Y-58990476D02*
X103332380Y-59180952D01*
X103332380Y-59180952D02*
X103141904Y-59276190D01*
X105141904Y-60704761D02*
X105141904Y-58704761D01*
X106284761Y-60704761D02*
X105427618Y-59561904D01*
X106284761Y-58704761D02*
X105141904Y-59847619D01*
X95599047Y-63944761D02*
X94932380Y-62992380D01*
X94456190Y-63944761D02*
X94456190Y-61944761D01*
X94456190Y-61944761D02*
X95218095Y-61944761D01*
X95218095Y-61944761D02*
X95408571Y-62040000D01*
X95408571Y-62040000D02*
X95503809Y-62135238D01*
X95503809Y-62135238D02*
X95599047Y-62325714D01*
X95599047Y-62325714D02*
X95599047Y-62611428D01*
X95599047Y-62611428D02*
X95503809Y-62801904D01*
X95503809Y-62801904D02*
X95408571Y-62897142D01*
X95408571Y-62897142D02*
X95218095Y-62992380D01*
X95218095Y-62992380D02*
X94456190Y-62992380D01*
X96265714Y-61944761D02*
X97503809Y-61944761D01*
X97503809Y-61944761D02*
X96837142Y-62706666D01*
X96837142Y-62706666D02*
X97122857Y-62706666D01*
X97122857Y-62706666D02*
X97313333Y-62801904D01*
X97313333Y-62801904D02*
X97408571Y-62897142D01*
X97408571Y-62897142D02*
X97503809Y-63087619D01*
X97503809Y-63087619D02*
X97503809Y-63563809D01*
X97503809Y-63563809D02*
X97408571Y-63754285D01*
X97408571Y-63754285D02*
X97313333Y-63849523D01*
X97313333Y-63849523D02*
X97122857Y-63944761D01*
X97122857Y-63944761D02*
X96551428Y-63944761D01*
X96551428Y-63944761D02*
X96360952Y-63849523D01*
X96360952Y-63849523D02*
X96265714Y-63754285D01*
X99560952Y-62897142D02*
X101084762Y-62897142D01*
X101084762Y-63468571D02*
X99560952Y-63468571D01*
X104284761Y-63944761D02*
X103141904Y-63944761D01*
X103713332Y-63944761D02*
X103713332Y-61944761D01*
X103713332Y-61944761D02*
X103522856Y-62230476D01*
X103522856Y-62230476D02*
X103332380Y-62420952D01*
X103332380Y-62420952D02*
X103141904Y-62516190D01*
X105522856Y-61944761D02*
X105713333Y-61944761D01*
X105713333Y-61944761D02*
X105903809Y-62040000D01*
X105903809Y-62040000D02*
X105999047Y-62135238D01*
X105999047Y-62135238D02*
X106094285Y-62325714D01*
X106094285Y-62325714D02*
X106189523Y-62706666D01*
X106189523Y-62706666D02*
X106189523Y-63182857D01*
X106189523Y-63182857D02*
X106094285Y-63563809D01*
X106094285Y-63563809D02*
X105999047Y-63754285D01*
X105999047Y-63754285D02*
X105903809Y-63849523D01*
X105903809Y-63849523D02*
X105713333Y-63944761D01*
X105713333Y-63944761D02*
X105522856Y-63944761D01*
X105522856Y-63944761D02*
X105332380Y-63849523D01*
X105332380Y-63849523D02*
X105237142Y-63754285D01*
X105237142Y-63754285D02*
X105141904Y-63563809D01*
X105141904Y-63563809D02*
X105046666Y-63182857D01*
X105046666Y-63182857D02*
X105046666Y-62706666D01*
X105046666Y-62706666D02*
X105141904Y-62325714D01*
X105141904Y-62325714D02*
X105237142Y-62135238D01*
X105237142Y-62135238D02*
X105332380Y-62040000D01*
X105332380Y-62040000D02*
X105522856Y-61944761D01*
X107427618Y-61944761D02*
X107618095Y-61944761D01*
X107618095Y-61944761D02*
X107808571Y-62040000D01*
X107808571Y-62040000D02*
X107903809Y-62135238D01*
X107903809Y-62135238D02*
X107999047Y-62325714D01*
X107999047Y-62325714D02*
X108094285Y-62706666D01*
X108094285Y-62706666D02*
X108094285Y-63182857D01*
X108094285Y-63182857D02*
X107999047Y-63563809D01*
X107999047Y-63563809D02*
X107903809Y-63754285D01*
X107903809Y-63754285D02*
X107808571Y-63849523D01*
X107808571Y-63849523D02*
X107618095Y-63944761D01*
X107618095Y-63944761D02*
X107427618Y-63944761D01*
X107427618Y-63944761D02*
X107237142Y-63849523D01*
X107237142Y-63849523D02*
X107141904Y-63754285D01*
X107141904Y-63754285D02*
X107046666Y-63563809D01*
X107046666Y-63563809D02*
X106951428Y-63182857D01*
X106951428Y-63182857D02*
X106951428Y-62706666D01*
X106951428Y-62706666D02*
X107046666Y-62325714D01*
X107046666Y-62325714D02*
X107141904Y-62135238D01*
X107141904Y-62135238D02*
X107237142Y-62040000D01*
X107237142Y-62040000D02*
X107427618Y-61944761D01*
X95599047Y-67184761D02*
X94932380Y-66232380D01*
X94456190Y-67184761D02*
X94456190Y-65184761D01*
X94456190Y-65184761D02*
X95218095Y-65184761D01*
X95218095Y-65184761D02*
X95408571Y-65280000D01*
X95408571Y-65280000D02*
X95503809Y-65375238D01*
X95503809Y-65375238D02*
X95599047Y-65565714D01*
X95599047Y-65565714D02*
X95599047Y-65851428D01*
X95599047Y-65851428D02*
X95503809Y-66041904D01*
X95503809Y-66041904D02*
X95408571Y-66137142D01*
X95408571Y-66137142D02*
X95218095Y-66232380D01*
X95218095Y-66232380D02*
X94456190Y-66232380D01*
X97313333Y-65851428D02*
X97313333Y-67184761D01*
X96837142Y-65089523D02*
X96360952Y-66518095D01*
X96360952Y-66518095D02*
X97599047Y-66518095D01*
X99560952Y-66137142D02*
X101084762Y-66137142D01*
X101084762Y-66708571D02*
X99560952Y-66708571D01*
X104284761Y-67184761D02*
X103141904Y-67184761D01*
X103713332Y-67184761D02*
X103713332Y-65184761D01*
X103713332Y-65184761D02*
X103522856Y-65470476D01*
X103522856Y-65470476D02*
X103332380Y-65660952D01*
X103332380Y-65660952D02*
X103141904Y-65756190D01*
X105522856Y-65184761D02*
X105713333Y-65184761D01*
X105713333Y-65184761D02*
X105903809Y-65280000D01*
X105903809Y-65280000D02*
X105999047Y-65375238D01*
X105999047Y-65375238D02*
X106094285Y-65565714D01*
X106094285Y-65565714D02*
X106189523Y-65946666D01*
X106189523Y-65946666D02*
X106189523Y-66422857D01*
X106189523Y-66422857D02*
X106094285Y-66803809D01*
X106094285Y-66803809D02*
X105999047Y-66994285D01*
X105999047Y-66994285D02*
X105903809Y-67089523D01*
X105903809Y-67089523D02*
X105713333Y-67184761D01*
X105713333Y-67184761D02*
X105522856Y-67184761D01*
X105522856Y-67184761D02*
X105332380Y-67089523D01*
X105332380Y-67089523D02*
X105237142Y-66994285D01*
X105237142Y-66994285D02*
X105141904Y-66803809D01*
X105141904Y-66803809D02*
X105046666Y-66422857D01*
X105046666Y-66422857D02*
X105046666Y-65946666D01*
X105046666Y-65946666D02*
X105141904Y-65565714D01*
X105141904Y-65565714D02*
X105237142Y-65375238D01*
X105237142Y-65375238D02*
X105332380Y-65280000D01*
X105332380Y-65280000D02*
X105522856Y-65184761D01*
X107427618Y-65184761D02*
X107618095Y-65184761D01*
X107618095Y-65184761D02*
X107808571Y-65280000D01*
X107808571Y-65280000D02*
X107903809Y-65375238D01*
X107903809Y-65375238D02*
X107999047Y-65565714D01*
X107999047Y-65565714D02*
X108094285Y-65946666D01*
X108094285Y-65946666D02*
X108094285Y-66422857D01*
X108094285Y-66422857D02*
X107999047Y-66803809D01*
X107999047Y-66803809D02*
X107903809Y-66994285D01*
X107903809Y-66994285D02*
X107808571Y-67089523D01*
X107808571Y-67089523D02*
X107618095Y-67184761D01*
X107618095Y-67184761D02*
X107427618Y-67184761D01*
X107427618Y-67184761D02*
X107237142Y-67089523D01*
X107237142Y-67089523D02*
X107141904Y-66994285D01*
X107141904Y-66994285D02*
X107046666Y-66803809D01*
X107046666Y-66803809D02*
X106951428Y-66422857D01*
X106951428Y-66422857D02*
X106951428Y-65946666D01*
X106951428Y-65946666D02*
X107046666Y-65565714D01*
X107046666Y-65565714D02*
X107141904Y-65375238D01*
X107141904Y-65375238D02*
X107237142Y-65280000D01*
X107237142Y-65280000D02*
X107427618Y-65184761D01*
X95599047Y-70424761D02*
X94932380Y-69472380D01*
X94456190Y-70424761D02*
X94456190Y-68424761D01*
X94456190Y-68424761D02*
X95218095Y-68424761D01*
X95218095Y-68424761D02*
X95408571Y-68520000D01*
X95408571Y-68520000D02*
X95503809Y-68615238D01*
X95503809Y-68615238D02*
X95599047Y-68805714D01*
X95599047Y-68805714D02*
X95599047Y-69091428D01*
X95599047Y-69091428D02*
X95503809Y-69281904D01*
X95503809Y-69281904D02*
X95408571Y-69377142D01*
X95408571Y-69377142D02*
X95218095Y-69472380D01*
X95218095Y-69472380D02*
X94456190Y-69472380D01*
X97408571Y-68424761D02*
X96456190Y-68424761D01*
X96456190Y-68424761D02*
X96360952Y-69377142D01*
X96360952Y-69377142D02*
X96456190Y-69281904D01*
X96456190Y-69281904D02*
X96646666Y-69186666D01*
X96646666Y-69186666D02*
X97122857Y-69186666D01*
X97122857Y-69186666D02*
X97313333Y-69281904D01*
X97313333Y-69281904D02*
X97408571Y-69377142D01*
X97408571Y-69377142D02*
X97503809Y-69567619D01*
X97503809Y-69567619D02*
X97503809Y-70043809D01*
X97503809Y-70043809D02*
X97408571Y-70234285D01*
X97408571Y-70234285D02*
X97313333Y-70329523D01*
X97313333Y-70329523D02*
X97122857Y-70424761D01*
X97122857Y-70424761D02*
X96646666Y-70424761D01*
X96646666Y-70424761D02*
X96456190Y-70329523D01*
X96456190Y-70329523D02*
X96360952Y-70234285D01*
X99560952Y-69377142D02*
X101084762Y-69377142D01*
X101084762Y-69948571D02*
X99560952Y-69948571D01*
X104284761Y-70424761D02*
X103141904Y-70424761D01*
X103713332Y-70424761D02*
X103713332Y-68424761D01*
X103713332Y-68424761D02*
X103522856Y-68710476D01*
X103522856Y-68710476D02*
X103332380Y-68900952D01*
X103332380Y-68900952D02*
X103141904Y-68996190D01*
X105141904Y-70424761D02*
X105141904Y-68424761D01*
X106284761Y-70424761D02*
X105427618Y-69281904D01*
X106284761Y-68424761D02*
X105141904Y-69567619D01*
X95599047Y-73664761D02*
X94932380Y-72712380D01*
X94456190Y-73664761D02*
X94456190Y-71664761D01*
X94456190Y-71664761D02*
X95218095Y-71664761D01*
X95218095Y-71664761D02*
X95408571Y-71760000D01*
X95408571Y-71760000D02*
X95503809Y-71855238D01*
X95503809Y-71855238D02*
X95599047Y-72045714D01*
X95599047Y-72045714D02*
X95599047Y-72331428D01*
X95599047Y-72331428D02*
X95503809Y-72521904D01*
X95503809Y-72521904D02*
X95408571Y-72617142D01*
X95408571Y-72617142D02*
X95218095Y-72712380D01*
X95218095Y-72712380D02*
X94456190Y-72712380D01*
X97313333Y-71664761D02*
X96932380Y-71664761D01*
X96932380Y-71664761D02*
X96741904Y-71760000D01*
X96741904Y-71760000D02*
X96646666Y-71855238D01*
X96646666Y-71855238D02*
X96456190Y-72140952D01*
X96456190Y-72140952D02*
X96360952Y-72521904D01*
X96360952Y-72521904D02*
X96360952Y-73283809D01*
X96360952Y-73283809D02*
X96456190Y-73474285D01*
X96456190Y-73474285D02*
X96551428Y-73569523D01*
X96551428Y-73569523D02*
X96741904Y-73664761D01*
X96741904Y-73664761D02*
X97122857Y-73664761D01*
X97122857Y-73664761D02*
X97313333Y-73569523D01*
X97313333Y-73569523D02*
X97408571Y-73474285D01*
X97408571Y-73474285D02*
X97503809Y-73283809D01*
X97503809Y-73283809D02*
X97503809Y-72807619D01*
X97503809Y-72807619D02*
X97408571Y-72617142D01*
X97408571Y-72617142D02*
X97313333Y-72521904D01*
X97313333Y-72521904D02*
X97122857Y-72426666D01*
X97122857Y-72426666D02*
X96741904Y-72426666D01*
X96741904Y-72426666D02*
X96551428Y-72521904D01*
X96551428Y-72521904D02*
X96456190Y-72617142D01*
X96456190Y-72617142D02*
X96360952Y-72807619D01*
X99560952Y-72617142D02*
X101084762Y-72617142D01*
X101084762Y-73188571D02*
X99560952Y-73188571D01*
X104284761Y-73664761D02*
X103141904Y-73664761D01*
X103713332Y-73664761D02*
X103713332Y-71664761D01*
X103713332Y-71664761D02*
X103522856Y-71950476D01*
X103522856Y-71950476D02*
X103332380Y-72140952D01*
X103332380Y-72140952D02*
X103141904Y-72236190D01*
X105141904Y-73664761D02*
X105141904Y-71664761D01*
X106284761Y-73664761D02*
X105427618Y-72521904D01*
X106284761Y-71664761D02*
X105141904Y-72807619D01*
X95599047Y-76904761D02*
X94932380Y-75952380D01*
X94456190Y-76904761D02*
X94456190Y-74904761D01*
X94456190Y-74904761D02*
X95218095Y-74904761D01*
X95218095Y-74904761D02*
X95408571Y-75000000D01*
X95408571Y-75000000D02*
X95503809Y-75095238D01*
X95503809Y-75095238D02*
X95599047Y-75285714D01*
X95599047Y-75285714D02*
X95599047Y-75571428D01*
X95599047Y-75571428D02*
X95503809Y-75761904D01*
X95503809Y-75761904D02*
X95408571Y-75857142D01*
X95408571Y-75857142D02*
X95218095Y-75952380D01*
X95218095Y-75952380D02*
X94456190Y-75952380D01*
X96265714Y-74904761D02*
X97599047Y-74904761D01*
X97599047Y-74904761D02*
X96741904Y-76904761D01*
X99560952Y-75857142D02*
X101084762Y-75857142D01*
X101084762Y-76428571D02*
X99560952Y-76428571D01*
X104284761Y-76904761D02*
X103141904Y-76904761D01*
X103713332Y-76904761D02*
X103713332Y-74904761D01*
X103713332Y-74904761D02*
X103522856Y-75190476D01*
X103522856Y-75190476D02*
X103332380Y-75380952D01*
X103332380Y-75380952D02*
X103141904Y-75476190D01*
X105141904Y-76904761D02*
X105141904Y-74904761D01*
X106284761Y-76904761D02*
X105427618Y-75761904D01*
X106284761Y-74904761D02*
X105141904Y-76047619D01*
X95599047Y-80144761D02*
X94932380Y-79192380D01*
X94456190Y-80144761D02*
X94456190Y-78144761D01*
X94456190Y-78144761D02*
X95218095Y-78144761D01*
X95218095Y-78144761D02*
X95408571Y-78240000D01*
X95408571Y-78240000D02*
X95503809Y-78335238D01*
X95503809Y-78335238D02*
X95599047Y-78525714D01*
X95599047Y-78525714D02*
X95599047Y-78811428D01*
X95599047Y-78811428D02*
X95503809Y-79001904D01*
X95503809Y-79001904D02*
X95408571Y-79097142D01*
X95408571Y-79097142D02*
X95218095Y-79192380D01*
X95218095Y-79192380D02*
X94456190Y-79192380D01*
X96741904Y-79001904D02*
X96551428Y-78906666D01*
X96551428Y-78906666D02*
X96456190Y-78811428D01*
X96456190Y-78811428D02*
X96360952Y-78620952D01*
X96360952Y-78620952D02*
X96360952Y-78525714D01*
X96360952Y-78525714D02*
X96456190Y-78335238D01*
X96456190Y-78335238D02*
X96551428Y-78240000D01*
X96551428Y-78240000D02*
X96741904Y-78144761D01*
X96741904Y-78144761D02*
X97122857Y-78144761D01*
X97122857Y-78144761D02*
X97313333Y-78240000D01*
X97313333Y-78240000D02*
X97408571Y-78335238D01*
X97408571Y-78335238D02*
X97503809Y-78525714D01*
X97503809Y-78525714D02*
X97503809Y-78620952D01*
X97503809Y-78620952D02*
X97408571Y-78811428D01*
X97408571Y-78811428D02*
X97313333Y-78906666D01*
X97313333Y-78906666D02*
X97122857Y-79001904D01*
X97122857Y-79001904D02*
X96741904Y-79001904D01*
X96741904Y-79001904D02*
X96551428Y-79097142D01*
X96551428Y-79097142D02*
X96456190Y-79192380D01*
X96456190Y-79192380D02*
X96360952Y-79382857D01*
X96360952Y-79382857D02*
X96360952Y-79763809D01*
X96360952Y-79763809D02*
X96456190Y-79954285D01*
X96456190Y-79954285D02*
X96551428Y-80049523D01*
X96551428Y-80049523D02*
X96741904Y-80144761D01*
X96741904Y-80144761D02*
X97122857Y-80144761D01*
X97122857Y-80144761D02*
X97313333Y-80049523D01*
X97313333Y-80049523D02*
X97408571Y-79954285D01*
X97408571Y-79954285D02*
X97503809Y-79763809D01*
X97503809Y-79763809D02*
X97503809Y-79382857D01*
X97503809Y-79382857D02*
X97408571Y-79192380D01*
X97408571Y-79192380D02*
X97313333Y-79097142D01*
X97313333Y-79097142D02*
X97122857Y-79001904D01*
X99560952Y-79097142D02*
X101084762Y-79097142D01*
X101084762Y-79668571D02*
X99560952Y-79668571D01*
X104284761Y-80144761D02*
X103141904Y-80144761D01*
X103713332Y-80144761D02*
X103713332Y-78144761D01*
X103713332Y-78144761D02*
X103522856Y-78430476D01*
X103522856Y-78430476D02*
X103332380Y-78620952D01*
X103332380Y-78620952D02*
X103141904Y-78716190D01*
X105141904Y-80144761D02*
X105141904Y-78144761D01*
X106284761Y-80144761D02*
X105427618Y-79001904D01*
X106284761Y-78144761D02*
X105141904Y-79287619D01*
X95599047Y-83384761D02*
X94932380Y-82432380D01*
X94456190Y-83384761D02*
X94456190Y-81384761D01*
X94456190Y-81384761D02*
X95218095Y-81384761D01*
X95218095Y-81384761D02*
X95408571Y-81480000D01*
X95408571Y-81480000D02*
X95503809Y-81575238D01*
X95503809Y-81575238D02*
X95599047Y-81765714D01*
X95599047Y-81765714D02*
X95599047Y-82051428D01*
X95599047Y-82051428D02*
X95503809Y-82241904D01*
X95503809Y-82241904D02*
X95408571Y-82337142D01*
X95408571Y-82337142D02*
X95218095Y-82432380D01*
X95218095Y-82432380D02*
X94456190Y-82432380D01*
X96551428Y-83384761D02*
X96932380Y-83384761D01*
X96932380Y-83384761D02*
X97122857Y-83289523D01*
X97122857Y-83289523D02*
X97218095Y-83194285D01*
X97218095Y-83194285D02*
X97408571Y-82908571D01*
X97408571Y-82908571D02*
X97503809Y-82527619D01*
X97503809Y-82527619D02*
X97503809Y-81765714D01*
X97503809Y-81765714D02*
X97408571Y-81575238D01*
X97408571Y-81575238D02*
X97313333Y-81480000D01*
X97313333Y-81480000D02*
X97122857Y-81384761D01*
X97122857Y-81384761D02*
X96741904Y-81384761D01*
X96741904Y-81384761D02*
X96551428Y-81480000D01*
X96551428Y-81480000D02*
X96456190Y-81575238D01*
X96456190Y-81575238D02*
X96360952Y-81765714D01*
X96360952Y-81765714D02*
X96360952Y-82241904D01*
X96360952Y-82241904D02*
X96456190Y-82432380D01*
X96456190Y-82432380D02*
X96551428Y-82527619D01*
X96551428Y-82527619D02*
X96741904Y-82622857D01*
X96741904Y-82622857D02*
X97122857Y-82622857D01*
X97122857Y-82622857D02*
X97313333Y-82527619D01*
X97313333Y-82527619D02*
X97408571Y-82432380D01*
X97408571Y-82432380D02*
X97503809Y-82241904D01*
X99560952Y-82337142D02*
X101084762Y-82337142D01*
X101084762Y-82908571D02*
X99560952Y-82908571D01*
X104284761Y-83384761D02*
X103141904Y-83384761D01*
X103713332Y-83384761D02*
X103713332Y-81384761D01*
X103713332Y-81384761D02*
X103522856Y-81670476D01*
X103522856Y-81670476D02*
X103332380Y-81860952D01*
X103332380Y-81860952D02*
X103141904Y-81956190D01*
X105141904Y-83384761D02*
X105141904Y-81384761D01*
X106284761Y-83384761D02*
X105427618Y-82241904D01*
X106284761Y-81384761D02*
X105141904Y-82527619D01*
D14*
X34448571Y-83924761D02*
X33496190Y-83924761D01*
X33496190Y-83924761D02*
X33400952Y-84877142D01*
X33400952Y-84877142D02*
X33496190Y-84781904D01*
X33496190Y-84781904D02*
X33686666Y-84686666D01*
X33686666Y-84686666D02*
X34162857Y-84686666D01*
X34162857Y-84686666D02*
X34353333Y-84781904D01*
X34353333Y-84781904D02*
X34448571Y-84877142D01*
X34448571Y-84877142D02*
X34543809Y-85067619D01*
X34543809Y-85067619D02*
X34543809Y-85543809D01*
X34543809Y-85543809D02*
X34448571Y-85734285D01*
X34448571Y-85734285D02*
X34353333Y-85829523D01*
X34353333Y-85829523D02*
X34162857Y-85924761D01*
X34162857Y-85924761D02*
X33686666Y-85924761D01*
X33686666Y-85924761D02*
X33496190Y-85829523D01*
X33496190Y-85829523D02*
X33400952Y-85734285D01*
X35115238Y-83924761D02*
X35781904Y-85924761D01*
X35781904Y-85924761D02*
X36448571Y-83924761D01*
D13*
%TO.C,PC RX*%
X34101905Y-55209380D02*
X34101905Y-54209380D01*
X34101905Y-54209380D02*
X34482857Y-54209380D01*
X34482857Y-54209380D02*
X34578095Y-54257000D01*
X34578095Y-54257000D02*
X34625714Y-54304619D01*
X34625714Y-54304619D02*
X34673333Y-54399857D01*
X34673333Y-54399857D02*
X34673333Y-54542714D01*
X34673333Y-54542714D02*
X34625714Y-54637952D01*
X34625714Y-54637952D02*
X34578095Y-54685571D01*
X34578095Y-54685571D02*
X34482857Y-54733190D01*
X34482857Y-54733190D02*
X34101905Y-54733190D01*
X35673333Y-55114142D02*
X35625714Y-55161761D01*
X35625714Y-55161761D02*
X35482857Y-55209380D01*
X35482857Y-55209380D02*
X35387619Y-55209380D01*
X35387619Y-55209380D02*
X35244762Y-55161761D01*
X35244762Y-55161761D02*
X35149524Y-55066523D01*
X35149524Y-55066523D02*
X35101905Y-54971285D01*
X35101905Y-54971285D02*
X35054286Y-54780809D01*
X35054286Y-54780809D02*
X35054286Y-54637952D01*
X35054286Y-54637952D02*
X35101905Y-54447476D01*
X35101905Y-54447476D02*
X35149524Y-54352238D01*
X35149524Y-54352238D02*
X35244762Y-54257000D01*
X35244762Y-54257000D02*
X35387619Y-54209380D01*
X35387619Y-54209380D02*
X35482857Y-54209380D01*
X35482857Y-54209380D02*
X35625714Y-54257000D01*
X35625714Y-54257000D02*
X35673333Y-54304619D01*
X37273333Y-55209380D02*
X36940000Y-54733190D01*
X36701905Y-55209380D02*
X36701905Y-54209380D01*
X36701905Y-54209380D02*
X37082857Y-54209380D01*
X37082857Y-54209380D02*
X37178095Y-54257000D01*
X37178095Y-54257000D02*
X37225714Y-54304619D01*
X37225714Y-54304619D02*
X37273333Y-54399857D01*
X37273333Y-54399857D02*
X37273333Y-54542714D01*
X37273333Y-54542714D02*
X37225714Y-54637952D01*
X37225714Y-54637952D02*
X37178095Y-54685571D01*
X37178095Y-54685571D02*
X37082857Y-54733190D01*
X37082857Y-54733190D02*
X36701905Y-54733190D01*
X37606667Y-54209380D02*
X38273333Y-55209380D01*
X38273333Y-54209380D02*
X37606667Y-55209380D01*
D11*
%TO.C,R3*%
X87296666Y-48414761D02*
X86629999Y-47462380D01*
X86153809Y-48414761D02*
X86153809Y-46414761D01*
X86153809Y-46414761D02*
X86915714Y-46414761D01*
X86915714Y-46414761D02*
X87106190Y-46510000D01*
X87106190Y-46510000D02*
X87201428Y-46605238D01*
X87201428Y-46605238D02*
X87296666Y-46795714D01*
X87296666Y-46795714D02*
X87296666Y-47081428D01*
X87296666Y-47081428D02*
X87201428Y-47271904D01*
X87201428Y-47271904D02*
X87106190Y-47367142D01*
X87106190Y-47367142D02*
X86915714Y-47462380D01*
X86915714Y-47462380D02*
X86153809Y-47462380D01*
X87963333Y-46414761D02*
X89201428Y-46414761D01*
X89201428Y-46414761D02*
X88534761Y-47176666D01*
X88534761Y-47176666D02*
X88820476Y-47176666D01*
X88820476Y-47176666D02*
X89010952Y-47271904D01*
X89010952Y-47271904D02*
X89106190Y-47367142D01*
X89106190Y-47367142D02*
X89201428Y-47557619D01*
X89201428Y-47557619D02*
X89201428Y-48033809D01*
X89201428Y-48033809D02*
X89106190Y-48224285D01*
X89106190Y-48224285D02*
X89010952Y-48319523D01*
X89010952Y-48319523D02*
X88820476Y-48414761D01*
X88820476Y-48414761D02*
X88249047Y-48414761D01*
X88249047Y-48414761D02*
X88058571Y-48319523D01*
X88058571Y-48319523D02*
X87963333Y-48224285D01*
D13*
%TO.C,UDC 3/GND*%
X113570476Y-103049380D02*
X113570476Y-103858904D01*
X113570476Y-103858904D02*
X113618095Y-103954142D01*
X113618095Y-103954142D02*
X113665714Y-104001761D01*
X113665714Y-104001761D02*
X113760952Y-104049380D01*
X113760952Y-104049380D02*
X113951428Y-104049380D01*
X113951428Y-104049380D02*
X114046666Y-104001761D01*
X114046666Y-104001761D02*
X114094285Y-103954142D01*
X114094285Y-103954142D02*
X114141904Y-103858904D01*
X114141904Y-103858904D02*
X114141904Y-103049380D01*
X114618095Y-104049380D02*
X114618095Y-103049380D01*
X114618095Y-103049380D02*
X114856190Y-103049380D01*
X114856190Y-103049380D02*
X114999047Y-103097000D01*
X114999047Y-103097000D02*
X115094285Y-103192238D01*
X115094285Y-103192238D02*
X115141904Y-103287476D01*
X115141904Y-103287476D02*
X115189523Y-103477952D01*
X115189523Y-103477952D02*
X115189523Y-103620809D01*
X115189523Y-103620809D02*
X115141904Y-103811285D01*
X115141904Y-103811285D02*
X115094285Y-103906523D01*
X115094285Y-103906523D02*
X114999047Y-104001761D01*
X114999047Y-104001761D02*
X114856190Y-104049380D01*
X114856190Y-104049380D02*
X114618095Y-104049380D01*
X116189523Y-103954142D02*
X116141904Y-104001761D01*
X116141904Y-104001761D02*
X115999047Y-104049380D01*
X115999047Y-104049380D02*
X115903809Y-104049380D01*
X115903809Y-104049380D02*
X115760952Y-104001761D01*
X115760952Y-104001761D02*
X115665714Y-103906523D01*
X115665714Y-103906523D02*
X115618095Y-103811285D01*
X115618095Y-103811285D02*
X115570476Y-103620809D01*
X115570476Y-103620809D02*
X115570476Y-103477952D01*
X115570476Y-103477952D02*
X115618095Y-103287476D01*
X115618095Y-103287476D02*
X115665714Y-103192238D01*
X115665714Y-103192238D02*
X115760952Y-103097000D01*
X115760952Y-103097000D02*
X115903809Y-103049380D01*
X115903809Y-103049380D02*
X115999047Y-103049380D01*
X115999047Y-103049380D02*
X116141904Y-103097000D01*
X116141904Y-103097000D02*
X116189523Y-103144619D01*
X117122857Y-103049380D02*
X117741904Y-103049380D01*
X117741904Y-103049380D02*
X117408571Y-103430333D01*
X117408571Y-103430333D02*
X117551428Y-103430333D01*
X117551428Y-103430333D02*
X117646666Y-103477952D01*
X117646666Y-103477952D02*
X117694285Y-103525571D01*
X117694285Y-103525571D02*
X117741904Y-103620809D01*
X117741904Y-103620809D02*
X117741904Y-103858904D01*
X117741904Y-103858904D02*
X117694285Y-103954142D01*
X117694285Y-103954142D02*
X117646666Y-104001761D01*
X117646666Y-104001761D02*
X117551428Y-104049380D01*
X117551428Y-104049380D02*
X117265714Y-104049380D01*
X117265714Y-104049380D02*
X117170476Y-104001761D01*
X117170476Y-104001761D02*
X117122857Y-103954142D01*
X118884761Y-103001761D02*
X118027619Y-104287476D01*
X119741904Y-103097000D02*
X119646666Y-103049380D01*
X119646666Y-103049380D02*
X119503809Y-103049380D01*
X119503809Y-103049380D02*
X119360952Y-103097000D01*
X119360952Y-103097000D02*
X119265714Y-103192238D01*
X119265714Y-103192238D02*
X119218095Y-103287476D01*
X119218095Y-103287476D02*
X119170476Y-103477952D01*
X119170476Y-103477952D02*
X119170476Y-103620809D01*
X119170476Y-103620809D02*
X119218095Y-103811285D01*
X119218095Y-103811285D02*
X119265714Y-103906523D01*
X119265714Y-103906523D02*
X119360952Y-104001761D01*
X119360952Y-104001761D02*
X119503809Y-104049380D01*
X119503809Y-104049380D02*
X119599047Y-104049380D01*
X119599047Y-104049380D02*
X119741904Y-104001761D01*
X119741904Y-104001761D02*
X119789523Y-103954142D01*
X119789523Y-103954142D02*
X119789523Y-103620809D01*
X119789523Y-103620809D02*
X119599047Y-103620809D01*
X120218095Y-104049380D02*
X120218095Y-103049380D01*
X120218095Y-103049380D02*
X120789523Y-104049380D01*
X120789523Y-104049380D02*
X120789523Y-103049380D01*
X121265714Y-104049380D02*
X121265714Y-103049380D01*
X121265714Y-103049380D02*
X121503809Y-103049380D01*
X121503809Y-103049380D02*
X121646666Y-103097000D01*
X121646666Y-103097000D02*
X121741904Y-103192238D01*
X121741904Y-103192238D02*
X121789523Y-103287476D01*
X121789523Y-103287476D02*
X121837142Y-103477952D01*
X121837142Y-103477952D02*
X121837142Y-103620809D01*
X121837142Y-103620809D02*
X121789523Y-103811285D01*
X121789523Y-103811285D02*
X121741904Y-103906523D01*
X121741904Y-103906523D02*
X121646666Y-104001761D01*
X121646666Y-104001761D02*
X121503809Y-104049380D01*
X121503809Y-104049380D02*
X121265714Y-104049380D01*
D11*
%TO.C,R5*%
X69894761Y-75953333D02*
X68942380Y-76620000D01*
X69894761Y-77096190D02*
X67894761Y-77096190D01*
X67894761Y-77096190D02*
X67894761Y-76334285D01*
X67894761Y-76334285D02*
X67990000Y-76143809D01*
X67990000Y-76143809D02*
X68085238Y-76048571D01*
X68085238Y-76048571D02*
X68275714Y-75953333D01*
X68275714Y-75953333D02*
X68561428Y-75953333D01*
X68561428Y-75953333D02*
X68751904Y-76048571D01*
X68751904Y-76048571D02*
X68847142Y-76143809D01*
X68847142Y-76143809D02*
X68942380Y-76334285D01*
X68942380Y-76334285D02*
X68942380Y-77096190D01*
X67894761Y-74143809D02*
X67894761Y-75096190D01*
X67894761Y-75096190D02*
X68847142Y-75191428D01*
X68847142Y-75191428D02*
X68751904Y-75096190D01*
X68751904Y-75096190D02*
X68656666Y-74905714D01*
X68656666Y-74905714D02*
X68656666Y-74429523D01*
X68656666Y-74429523D02*
X68751904Y-74239047D01*
X68751904Y-74239047D02*
X68847142Y-74143809D01*
X68847142Y-74143809D02*
X69037619Y-74048571D01*
X69037619Y-74048571D02*
X69513809Y-74048571D01*
X69513809Y-74048571D02*
X69704285Y-74143809D01*
X69704285Y-74143809D02*
X69799523Y-74239047D01*
X69799523Y-74239047D02*
X69894761Y-74429523D01*
X69894761Y-74429523D02*
X69894761Y-74905714D01*
X69894761Y-74905714D02*
X69799523Y-75096190D01*
X69799523Y-75096190D02*
X69704285Y-75191428D01*
D13*
%TO.C,PC TX*%
X34220952Y-65369380D02*
X34220952Y-64369380D01*
X34220952Y-64369380D02*
X34601904Y-64369380D01*
X34601904Y-64369380D02*
X34697142Y-64417000D01*
X34697142Y-64417000D02*
X34744761Y-64464619D01*
X34744761Y-64464619D02*
X34792380Y-64559857D01*
X34792380Y-64559857D02*
X34792380Y-64702714D01*
X34792380Y-64702714D02*
X34744761Y-64797952D01*
X34744761Y-64797952D02*
X34697142Y-64845571D01*
X34697142Y-64845571D02*
X34601904Y-64893190D01*
X34601904Y-64893190D02*
X34220952Y-64893190D01*
X35792380Y-65274142D02*
X35744761Y-65321761D01*
X35744761Y-65321761D02*
X35601904Y-65369380D01*
X35601904Y-65369380D02*
X35506666Y-65369380D01*
X35506666Y-65369380D02*
X35363809Y-65321761D01*
X35363809Y-65321761D02*
X35268571Y-65226523D01*
X35268571Y-65226523D02*
X35220952Y-65131285D01*
X35220952Y-65131285D02*
X35173333Y-64940809D01*
X35173333Y-64940809D02*
X35173333Y-64797952D01*
X35173333Y-64797952D02*
X35220952Y-64607476D01*
X35220952Y-64607476D02*
X35268571Y-64512238D01*
X35268571Y-64512238D02*
X35363809Y-64417000D01*
X35363809Y-64417000D02*
X35506666Y-64369380D01*
X35506666Y-64369380D02*
X35601904Y-64369380D01*
X35601904Y-64369380D02*
X35744761Y-64417000D01*
X35744761Y-64417000D02*
X35792380Y-64464619D01*
X36678095Y-64369380D02*
X37249523Y-64369380D01*
X36963809Y-65369380D02*
X36963809Y-64369380D01*
X37487619Y-64369380D02*
X38154285Y-65369380D01*
X38154285Y-64369380D02*
X37487619Y-65369380D01*
D11*
%TO.C,R7*%
X51046666Y-100484761D02*
X50379999Y-99532380D01*
X49903809Y-100484761D02*
X49903809Y-98484761D01*
X49903809Y-98484761D02*
X50665714Y-98484761D01*
X50665714Y-98484761D02*
X50856190Y-98580000D01*
X50856190Y-98580000D02*
X50951428Y-98675238D01*
X50951428Y-98675238D02*
X51046666Y-98865714D01*
X51046666Y-98865714D02*
X51046666Y-99151428D01*
X51046666Y-99151428D02*
X50951428Y-99341904D01*
X50951428Y-99341904D02*
X50856190Y-99437142D01*
X50856190Y-99437142D02*
X50665714Y-99532380D01*
X50665714Y-99532380D02*
X49903809Y-99532380D01*
X51713333Y-98484761D02*
X53046666Y-98484761D01*
X53046666Y-98484761D02*
X52189523Y-100484761D01*
%TO.C,R9*%
X81526666Y-76354761D02*
X80859999Y-75402380D01*
X80383809Y-76354761D02*
X80383809Y-74354761D01*
X80383809Y-74354761D02*
X81145714Y-74354761D01*
X81145714Y-74354761D02*
X81336190Y-74450000D01*
X81336190Y-74450000D02*
X81431428Y-74545238D01*
X81431428Y-74545238D02*
X81526666Y-74735714D01*
X81526666Y-74735714D02*
X81526666Y-75021428D01*
X81526666Y-75021428D02*
X81431428Y-75211904D01*
X81431428Y-75211904D02*
X81336190Y-75307142D01*
X81336190Y-75307142D02*
X81145714Y-75402380D01*
X81145714Y-75402380D02*
X80383809Y-75402380D01*
X82479047Y-76354761D02*
X82859999Y-76354761D01*
X82859999Y-76354761D02*
X83050476Y-76259523D01*
X83050476Y-76259523D02*
X83145714Y-76164285D01*
X83145714Y-76164285D02*
X83336190Y-75878571D01*
X83336190Y-75878571D02*
X83431428Y-75497619D01*
X83431428Y-75497619D02*
X83431428Y-74735714D01*
X83431428Y-74735714D02*
X83336190Y-74545238D01*
X83336190Y-74545238D02*
X83240952Y-74450000D01*
X83240952Y-74450000D02*
X83050476Y-74354761D01*
X83050476Y-74354761D02*
X82669523Y-74354761D01*
X82669523Y-74354761D02*
X82479047Y-74450000D01*
X82479047Y-74450000D02*
X82383809Y-74545238D01*
X82383809Y-74545238D02*
X82288571Y-74735714D01*
X82288571Y-74735714D02*
X82288571Y-75211904D01*
X82288571Y-75211904D02*
X82383809Y-75402380D01*
X82383809Y-75402380D02*
X82479047Y-75497619D01*
X82479047Y-75497619D02*
X82669523Y-75592857D01*
X82669523Y-75592857D02*
X83050476Y-75592857D01*
X83050476Y-75592857D02*
X83240952Y-75497619D01*
X83240952Y-75497619D02*
X83336190Y-75402380D01*
X83336190Y-75402380D02*
X83431428Y-75211904D01*
D15*
%TO.C,*%
D13*
%TO.C,PC GND*%
X33554286Y-45049380D02*
X33554286Y-44049380D01*
X33554286Y-44049380D02*
X33935238Y-44049380D01*
X33935238Y-44049380D02*
X34030476Y-44097000D01*
X34030476Y-44097000D02*
X34078095Y-44144619D01*
X34078095Y-44144619D02*
X34125714Y-44239857D01*
X34125714Y-44239857D02*
X34125714Y-44382714D01*
X34125714Y-44382714D02*
X34078095Y-44477952D01*
X34078095Y-44477952D02*
X34030476Y-44525571D01*
X34030476Y-44525571D02*
X33935238Y-44573190D01*
X33935238Y-44573190D02*
X33554286Y-44573190D01*
X35125714Y-44954142D02*
X35078095Y-45001761D01*
X35078095Y-45001761D02*
X34935238Y-45049380D01*
X34935238Y-45049380D02*
X34840000Y-45049380D01*
X34840000Y-45049380D02*
X34697143Y-45001761D01*
X34697143Y-45001761D02*
X34601905Y-44906523D01*
X34601905Y-44906523D02*
X34554286Y-44811285D01*
X34554286Y-44811285D02*
X34506667Y-44620809D01*
X34506667Y-44620809D02*
X34506667Y-44477952D01*
X34506667Y-44477952D02*
X34554286Y-44287476D01*
X34554286Y-44287476D02*
X34601905Y-44192238D01*
X34601905Y-44192238D02*
X34697143Y-44097000D01*
X34697143Y-44097000D02*
X34840000Y-44049380D01*
X34840000Y-44049380D02*
X34935238Y-44049380D01*
X34935238Y-44049380D02*
X35078095Y-44097000D01*
X35078095Y-44097000D02*
X35125714Y-44144619D01*
X36678095Y-44097000D02*
X36582857Y-44049380D01*
X36582857Y-44049380D02*
X36440000Y-44049380D01*
X36440000Y-44049380D02*
X36297143Y-44097000D01*
X36297143Y-44097000D02*
X36201905Y-44192238D01*
X36201905Y-44192238D02*
X36154286Y-44287476D01*
X36154286Y-44287476D02*
X36106667Y-44477952D01*
X36106667Y-44477952D02*
X36106667Y-44620809D01*
X36106667Y-44620809D02*
X36154286Y-44811285D01*
X36154286Y-44811285D02*
X36201905Y-44906523D01*
X36201905Y-44906523D02*
X36297143Y-45001761D01*
X36297143Y-45001761D02*
X36440000Y-45049380D01*
X36440000Y-45049380D02*
X36535238Y-45049380D01*
X36535238Y-45049380D02*
X36678095Y-45001761D01*
X36678095Y-45001761D02*
X36725714Y-44954142D01*
X36725714Y-44954142D02*
X36725714Y-44620809D01*
X36725714Y-44620809D02*
X36535238Y-44620809D01*
X37154286Y-45049380D02*
X37154286Y-44049380D01*
X37154286Y-44049380D02*
X37725714Y-45049380D01*
X37725714Y-45049380D02*
X37725714Y-44049380D01*
X38201905Y-45049380D02*
X38201905Y-44049380D01*
X38201905Y-44049380D02*
X38440000Y-44049380D01*
X38440000Y-44049380D02*
X38582857Y-44097000D01*
X38582857Y-44097000D02*
X38678095Y-44192238D01*
X38678095Y-44192238D02*
X38725714Y-44287476D01*
X38725714Y-44287476D02*
X38773333Y-44477952D01*
X38773333Y-44477952D02*
X38773333Y-44620809D01*
X38773333Y-44620809D02*
X38725714Y-44811285D01*
X38725714Y-44811285D02*
X38678095Y-44906523D01*
X38678095Y-44906523D02*
X38582857Y-45001761D01*
X38582857Y-45001761D02*
X38440000Y-45049380D01*
X38440000Y-45049380D02*
X38201905Y-45049380D01*
%TO.C,PCH2K < > PCH1K/PDEL/VTE*%
X58093333Y-60297380D02*
X58093333Y-59297380D01*
X58093333Y-59297380D02*
X58474285Y-59297380D01*
X58474285Y-59297380D02*
X58569523Y-59345000D01*
X58569523Y-59345000D02*
X58617142Y-59392619D01*
X58617142Y-59392619D02*
X58664761Y-59487857D01*
X58664761Y-59487857D02*
X58664761Y-59630714D01*
X58664761Y-59630714D02*
X58617142Y-59725952D01*
X58617142Y-59725952D02*
X58569523Y-59773571D01*
X58569523Y-59773571D02*
X58474285Y-59821190D01*
X58474285Y-59821190D02*
X58093333Y-59821190D01*
X59664761Y-60202142D02*
X59617142Y-60249761D01*
X59617142Y-60249761D02*
X59474285Y-60297380D01*
X59474285Y-60297380D02*
X59379047Y-60297380D01*
X59379047Y-60297380D02*
X59236190Y-60249761D01*
X59236190Y-60249761D02*
X59140952Y-60154523D01*
X59140952Y-60154523D02*
X59093333Y-60059285D01*
X59093333Y-60059285D02*
X59045714Y-59868809D01*
X59045714Y-59868809D02*
X59045714Y-59725952D01*
X59045714Y-59725952D02*
X59093333Y-59535476D01*
X59093333Y-59535476D02*
X59140952Y-59440238D01*
X59140952Y-59440238D02*
X59236190Y-59345000D01*
X59236190Y-59345000D02*
X59379047Y-59297380D01*
X59379047Y-59297380D02*
X59474285Y-59297380D01*
X59474285Y-59297380D02*
X59617142Y-59345000D01*
X59617142Y-59345000D02*
X59664761Y-59392619D01*
X60093333Y-60297380D02*
X60093333Y-59297380D01*
X60093333Y-59773571D02*
X60664761Y-59773571D01*
X60664761Y-60297380D02*
X60664761Y-59297380D01*
X61093333Y-59392619D02*
X61140952Y-59345000D01*
X61140952Y-59345000D02*
X61236190Y-59297380D01*
X61236190Y-59297380D02*
X61474285Y-59297380D01*
X61474285Y-59297380D02*
X61569523Y-59345000D01*
X61569523Y-59345000D02*
X61617142Y-59392619D01*
X61617142Y-59392619D02*
X61664761Y-59487857D01*
X61664761Y-59487857D02*
X61664761Y-59583095D01*
X61664761Y-59583095D02*
X61617142Y-59725952D01*
X61617142Y-59725952D02*
X61045714Y-60297380D01*
X61045714Y-60297380D02*
X61664761Y-60297380D01*
X62093333Y-60297380D02*
X62093333Y-59297380D01*
X62664761Y-60297380D02*
X62236190Y-59725952D01*
X62664761Y-59297380D02*
X62093333Y-59868809D01*
X64455238Y-59630714D02*
X63693333Y-59916428D01*
X63693333Y-59916428D02*
X64455238Y-60202142D01*
X65531428Y-59630714D02*
X66293333Y-59916428D01*
X66293333Y-59916428D02*
X65531428Y-60202142D01*
X67369523Y-60297380D02*
X67369523Y-59297380D01*
X67369523Y-59297380D02*
X67750475Y-59297380D01*
X67750475Y-59297380D02*
X67845713Y-59345000D01*
X67845713Y-59345000D02*
X67893332Y-59392619D01*
X67893332Y-59392619D02*
X67940951Y-59487857D01*
X67940951Y-59487857D02*
X67940951Y-59630714D01*
X67940951Y-59630714D02*
X67893332Y-59725952D01*
X67893332Y-59725952D02*
X67845713Y-59773571D01*
X67845713Y-59773571D02*
X67750475Y-59821190D01*
X67750475Y-59821190D02*
X67369523Y-59821190D01*
X68940951Y-60202142D02*
X68893332Y-60249761D01*
X68893332Y-60249761D02*
X68750475Y-60297380D01*
X68750475Y-60297380D02*
X68655237Y-60297380D01*
X68655237Y-60297380D02*
X68512380Y-60249761D01*
X68512380Y-60249761D02*
X68417142Y-60154523D01*
X68417142Y-60154523D02*
X68369523Y-60059285D01*
X68369523Y-60059285D02*
X68321904Y-59868809D01*
X68321904Y-59868809D02*
X68321904Y-59725952D01*
X68321904Y-59725952D02*
X68369523Y-59535476D01*
X68369523Y-59535476D02*
X68417142Y-59440238D01*
X68417142Y-59440238D02*
X68512380Y-59345000D01*
X68512380Y-59345000D02*
X68655237Y-59297380D01*
X68655237Y-59297380D02*
X68750475Y-59297380D01*
X68750475Y-59297380D02*
X68893332Y-59345000D01*
X68893332Y-59345000D02*
X68940951Y-59392619D01*
X69369523Y-60297380D02*
X69369523Y-59297380D01*
X69369523Y-59773571D02*
X69940951Y-59773571D01*
X69940951Y-60297380D02*
X69940951Y-59297380D01*
X70940951Y-60297380D02*
X70369523Y-60297380D01*
X70655237Y-60297380D02*
X70655237Y-59297380D01*
X70655237Y-59297380D02*
X70559999Y-59440238D01*
X70559999Y-59440238D02*
X70464761Y-59535476D01*
X70464761Y-59535476D02*
X70369523Y-59583095D01*
X71369523Y-60297380D02*
X71369523Y-59297380D01*
X71940951Y-60297380D02*
X71512380Y-59725952D01*
X71940951Y-59297380D02*
X71369523Y-59868809D01*
X73083808Y-59249761D02*
X72226666Y-60535476D01*
X73417142Y-60297380D02*
X73417142Y-59297380D01*
X73417142Y-59297380D02*
X73798094Y-59297380D01*
X73798094Y-59297380D02*
X73893332Y-59345000D01*
X73893332Y-59345000D02*
X73940951Y-59392619D01*
X73940951Y-59392619D02*
X73988570Y-59487857D01*
X73988570Y-59487857D02*
X73988570Y-59630714D01*
X73988570Y-59630714D02*
X73940951Y-59725952D01*
X73940951Y-59725952D02*
X73893332Y-59773571D01*
X73893332Y-59773571D02*
X73798094Y-59821190D01*
X73798094Y-59821190D02*
X73417142Y-59821190D01*
X74417142Y-60297380D02*
X74417142Y-59297380D01*
X74417142Y-59297380D02*
X74655237Y-59297380D01*
X74655237Y-59297380D02*
X74798094Y-59345000D01*
X74798094Y-59345000D02*
X74893332Y-59440238D01*
X74893332Y-59440238D02*
X74940951Y-59535476D01*
X74940951Y-59535476D02*
X74988570Y-59725952D01*
X74988570Y-59725952D02*
X74988570Y-59868809D01*
X74988570Y-59868809D02*
X74940951Y-60059285D01*
X74940951Y-60059285D02*
X74893332Y-60154523D01*
X74893332Y-60154523D02*
X74798094Y-60249761D01*
X74798094Y-60249761D02*
X74655237Y-60297380D01*
X74655237Y-60297380D02*
X74417142Y-60297380D01*
X75417142Y-59773571D02*
X75750475Y-59773571D01*
X75893332Y-60297380D02*
X75417142Y-60297380D01*
X75417142Y-60297380D02*
X75417142Y-59297380D01*
X75417142Y-59297380D02*
X75893332Y-59297380D01*
X76798094Y-60297380D02*
X76321904Y-60297380D01*
X76321904Y-60297380D02*
X76321904Y-59297380D01*
X77845713Y-59249761D02*
X76988571Y-60535476D01*
X78036190Y-59297380D02*
X78369523Y-60297380D01*
X78369523Y-60297380D02*
X78702856Y-59297380D01*
X78893333Y-59297380D02*
X79464761Y-59297380D01*
X79179047Y-60297380D02*
X79179047Y-59297380D01*
X79798095Y-59773571D02*
X80131428Y-59773571D01*
X80274285Y-60297380D02*
X79798095Y-60297380D01*
X79798095Y-60297380D02*
X79798095Y-59297380D01*
X79798095Y-59297380D02*
X80274285Y-59297380D01*
D11*
%TO.C,R1*%
X66286666Y-38254761D02*
X65619999Y-37302380D01*
X65143809Y-38254761D02*
X65143809Y-36254761D01*
X65143809Y-36254761D02*
X65905714Y-36254761D01*
X65905714Y-36254761D02*
X66096190Y-36350000D01*
X66096190Y-36350000D02*
X66191428Y-36445238D01*
X66191428Y-36445238D02*
X66286666Y-36635714D01*
X66286666Y-36635714D02*
X66286666Y-36921428D01*
X66286666Y-36921428D02*
X66191428Y-37111904D01*
X66191428Y-37111904D02*
X66096190Y-37207142D01*
X66096190Y-37207142D02*
X65905714Y-37302380D01*
X65905714Y-37302380D02*
X65143809Y-37302380D01*
X68191428Y-38254761D02*
X67048571Y-38254761D01*
X67619999Y-38254761D02*
X67619999Y-36254761D01*
X67619999Y-36254761D02*
X67429523Y-36540476D01*
X67429523Y-36540476D02*
X67239047Y-36730952D01*
X67239047Y-36730952D02*
X67048571Y-36826190D01*
%TO.C,R2*%
X66286666Y-48414761D02*
X65619999Y-47462380D01*
X65143809Y-48414761D02*
X65143809Y-46414761D01*
X65143809Y-46414761D02*
X65905714Y-46414761D01*
X65905714Y-46414761D02*
X66096190Y-46510000D01*
X66096190Y-46510000D02*
X66191428Y-46605238D01*
X66191428Y-46605238D02*
X66286666Y-46795714D01*
X66286666Y-46795714D02*
X66286666Y-47081428D01*
X66286666Y-47081428D02*
X66191428Y-47271904D01*
X66191428Y-47271904D02*
X66096190Y-47367142D01*
X66096190Y-47367142D02*
X65905714Y-47462380D01*
X65905714Y-47462380D02*
X65143809Y-47462380D01*
X67048571Y-46605238D02*
X67143809Y-46510000D01*
X67143809Y-46510000D02*
X67334285Y-46414761D01*
X67334285Y-46414761D02*
X67810476Y-46414761D01*
X67810476Y-46414761D02*
X68000952Y-46510000D01*
X68000952Y-46510000D02*
X68096190Y-46605238D01*
X68096190Y-46605238D02*
X68191428Y-46795714D01*
X68191428Y-46795714D02*
X68191428Y-46986190D01*
X68191428Y-46986190D02*
X68096190Y-47271904D01*
X68096190Y-47271904D02*
X66953333Y-48414761D01*
X66953333Y-48414761D02*
X68191428Y-48414761D01*
%TO.C,R8*%
X56126666Y-76354761D02*
X55459999Y-75402380D01*
X54983809Y-76354761D02*
X54983809Y-74354761D01*
X54983809Y-74354761D02*
X55745714Y-74354761D01*
X55745714Y-74354761D02*
X55936190Y-74450000D01*
X55936190Y-74450000D02*
X56031428Y-74545238D01*
X56031428Y-74545238D02*
X56126666Y-74735714D01*
X56126666Y-74735714D02*
X56126666Y-75021428D01*
X56126666Y-75021428D02*
X56031428Y-75211904D01*
X56031428Y-75211904D02*
X55936190Y-75307142D01*
X55936190Y-75307142D02*
X55745714Y-75402380D01*
X55745714Y-75402380D02*
X54983809Y-75402380D01*
X57269523Y-75211904D02*
X57079047Y-75116666D01*
X57079047Y-75116666D02*
X56983809Y-75021428D01*
X56983809Y-75021428D02*
X56888571Y-74830952D01*
X56888571Y-74830952D02*
X56888571Y-74735714D01*
X56888571Y-74735714D02*
X56983809Y-74545238D01*
X56983809Y-74545238D02*
X57079047Y-74450000D01*
X57079047Y-74450000D02*
X57269523Y-74354761D01*
X57269523Y-74354761D02*
X57650476Y-74354761D01*
X57650476Y-74354761D02*
X57840952Y-74450000D01*
X57840952Y-74450000D02*
X57936190Y-74545238D01*
X57936190Y-74545238D02*
X58031428Y-74735714D01*
X58031428Y-74735714D02*
X58031428Y-74830952D01*
X58031428Y-74830952D02*
X57936190Y-75021428D01*
X57936190Y-75021428D02*
X57840952Y-75116666D01*
X57840952Y-75116666D02*
X57650476Y-75211904D01*
X57650476Y-75211904D02*
X57269523Y-75211904D01*
X57269523Y-75211904D02*
X57079047Y-75307142D01*
X57079047Y-75307142D02*
X56983809Y-75402380D01*
X56983809Y-75402380D02*
X56888571Y-75592857D01*
X56888571Y-75592857D02*
X56888571Y-75973809D01*
X56888571Y-75973809D02*
X56983809Y-76164285D01*
X56983809Y-76164285D02*
X57079047Y-76259523D01*
X57079047Y-76259523D02*
X57269523Y-76354761D01*
X57269523Y-76354761D02*
X57650476Y-76354761D01*
X57650476Y-76354761D02*
X57840952Y-76259523D01*
X57840952Y-76259523D02*
X57936190Y-76164285D01*
X57936190Y-76164285D02*
X58031428Y-75973809D01*
X58031428Y-75973809D02*
X58031428Y-75592857D01*
X58031428Y-75592857D02*
X57936190Y-75402380D01*
X57936190Y-75402380D02*
X57840952Y-75307142D01*
X57840952Y-75307142D02*
X57650476Y-75211904D01*
D13*
%TO.C,UDC7/D-*%
X114015238Y-71989380D02*
X114015238Y-72798904D01*
X114015238Y-72798904D02*
X114062857Y-72894142D01*
X114062857Y-72894142D02*
X114110476Y-72941761D01*
X114110476Y-72941761D02*
X114205714Y-72989380D01*
X114205714Y-72989380D02*
X114396190Y-72989380D01*
X114396190Y-72989380D02*
X114491428Y-72941761D01*
X114491428Y-72941761D02*
X114539047Y-72894142D01*
X114539047Y-72894142D02*
X114586666Y-72798904D01*
X114586666Y-72798904D02*
X114586666Y-71989380D01*
X115062857Y-72989380D02*
X115062857Y-71989380D01*
X115062857Y-71989380D02*
X115300952Y-71989380D01*
X115300952Y-71989380D02*
X115443809Y-72037000D01*
X115443809Y-72037000D02*
X115539047Y-72132238D01*
X115539047Y-72132238D02*
X115586666Y-72227476D01*
X115586666Y-72227476D02*
X115634285Y-72417952D01*
X115634285Y-72417952D02*
X115634285Y-72560809D01*
X115634285Y-72560809D02*
X115586666Y-72751285D01*
X115586666Y-72751285D02*
X115539047Y-72846523D01*
X115539047Y-72846523D02*
X115443809Y-72941761D01*
X115443809Y-72941761D02*
X115300952Y-72989380D01*
X115300952Y-72989380D02*
X115062857Y-72989380D01*
X116634285Y-72894142D02*
X116586666Y-72941761D01*
X116586666Y-72941761D02*
X116443809Y-72989380D01*
X116443809Y-72989380D02*
X116348571Y-72989380D01*
X116348571Y-72989380D02*
X116205714Y-72941761D01*
X116205714Y-72941761D02*
X116110476Y-72846523D01*
X116110476Y-72846523D02*
X116062857Y-72751285D01*
X116062857Y-72751285D02*
X116015238Y-72560809D01*
X116015238Y-72560809D02*
X116015238Y-72417952D01*
X116015238Y-72417952D02*
X116062857Y-72227476D01*
X116062857Y-72227476D02*
X116110476Y-72132238D01*
X116110476Y-72132238D02*
X116205714Y-72037000D01*
X116205714Y-72037000D02*
X116348571Y-71989380D01*
X116348571Y-71989380D02*
X116443809Y-71989380D01*
X116443809Y-71989380D02*
X116586666Y-72037000D01*
X116586666Y-72037000D02*
X116634285Y-72084619D01*
X116967619Y-71989380D02*
X117634285Y-71989380D01*
X117634285Y-71989380D02*
X117205714Y-72989380D01*
X118729523Y-71941761D02*
X117872381Y-73227476D01*
X119062857Y-72989380D02*
X119062857Y-71989380D01*
X119062857Y-71989380D02*
X119300952Y-71989380D01*
X119300952Y-71989380D02*
X119443809Y-72037000D01*
X119443809Y-72037000D02*
X119539047Y-72132238D01*
X119539047Y-72132238D02*
X119586666Y-72227476D01*
X119586666Y-72227476D02*
X119634285Y-72417952D01*
X119634285Y-72417952D02*
X119634285Y-72560809D01*
X119634285Y-72560809D02*
X119586666Y-72751285D01*
X119586666Y-72751285D02*
X119539047Y-72846523D01*
X119539047Y-72846523D02*
X119443809Y-72941761D01*
X119443809Y-72941761D02*
X119300952Y-72989380D01*
X119300952Y-72989380D02*
X119062857Y-72989380D01*
X120062857Y-72608428D02*
X120824762Y-72608428D01*
%TO.C,UDC6/D+*%
X114275238Y-79609380D02*
X114275238Y-80418904D01*
X114275238Y-80418904D02*
X114322857Y-80514142D01*
X114322857Y-80514142D02*
X114370476Y-80561761D01*
X114370476Y-80561761D02*
X114465714Y-80609380D01*
X114465714Y-80609380D02*
X114656190Y-80609380D01*
X114656190Y-80609380D02*
X114751428Y-80561761D01*
X114751428Y-80561761D02*
X114799047Y-80514142D01*
X114799047Y-80514142D02*
X114846666Y-80418904D01*
X114846666Y-80418904D02*
X114846666Y-79609380D01*
X115322857Y-80609380D02*
X115322857Y-79609380D01*
X115322857Y-79609380D02*
X115560952Y-79609380D01*
X115560952Y-79609380D02*
X115703809Y-79657000D01*
X115703809Y-79657000D02*
X115799047Y-79752238D01*
X115799047Y-79752238D02*
X115846666Y-79847476D01*
X115846666Y-79847476D02*
X115894285Y-80037952D01*
X115894285Y-80037952D02*
X115894285Y-80180809D01*
X115894285Y-80180809D02*
X115846666Y-80371285D01*
X115846666Y-80371285D02*
X115799047Y-80466523D01*
X115799047Y-80466523D02*
X115703809Y-80561761D01*
X115703809Y-80561761D02*
X115560952Y-80609380D01*
X115560952Y-80609380D02*
X115322857Y-80609380D01*
X116894285Y-80514142D02*
X116846666Y-80561761D01*
X116846666Y-80561761D02*
X116703809Y-80609380D01*
X116703809Y-80609380D02*
X116608571Y-80609380D01*
X116608571Y-80609380D02*
X116465714Y-80561761D01*
X116465714Y-80561761D02*
X116370476Y-80466523D01*
X116370476Y-80466523D02*
X116322857Y-80371285D01*
X116322857Y-80371285D02*
X116275238Y-80180809D01*
X116275238Y-80180809D02*
X116275238Y-80037952D01*
X116275238Y-80037952D02*
X116322857Y-79847476D01*
X116322857Y-79847476D02*
X116370476Y-79752238D01*
X116370476Y-79752238D02*
X116465714Y-79657000D01*
X116465714Y-79657000D02*
X116608571Y-79609380D01*
X116608571Y-79609380D02*
X116703809Y-79609380D01*
X116703809Y-79609380D02*
X116846666Y-79657000D01*
X116846666Y-79657000D02*
X116894285Y-79704619D01*
X117751428Y-79609380D02*
X117560952Y-79609380D01*
X117560952Y-79609380D02*
X117465714Y-79657000D01*
X117465714Y-79657000D02*
X117418095Y-79704619D01*
X117418095Y-79704619D02*
X117322857Y-79847476D01*
X117322857Y-79847476D02*
X117275238Y-80037952D01*
X117275238Y-80037952D02*
X117275238Y-80418904D01*
X117275238Y-80418904D02*
X117322857Y-80514142D01*
X117322857Y-80514142D02*
X117370476Y-80561761D01*
X117370476Y-80561761D02*
X117465714Y-80609380D01*
X117465714Y-80609380D02*
X117656190Y-80609380D01*
X117656190Y-80609380D02*
X117751428Y-80561761D01*
X117751428Y-80561761D02*
X117799047Y-80514142D01*
X117799047Y-80514142D02*
X117846666Y-80418904D01*
X117846666Y-80418904D02*
X117846666Y-80180809D01*
X117846666Y-80180809D02*
X117799047Y-80085571D01*
X117799047Y-80085571D02*
X117751428Y-80037952D01*
X117751428Y-80037952D02*
X117656190Y-79990333D01*
X117656190Y-79990333D02*
X117465714Y-79990333D01*
X117465714Y-79990333D02*
X117370476Y-80037952D01*
X117370476Y-80037952D02*
X117322857Y-80085571D01*
X117322857Y-80085571D02*
X117275238Y-80180809D01*
X118989523Y-79561761D02*
X118132381Y-80847476D01*
X119322857Y-80609380D02*
X119322857Y-79609380D01*
X119322857Y-79609380D02*
X119560952Y-79609380D01*
X119560952Y-79609380D02*
X119703809Y-79657000D01*
X119703809Y-79657000D02*
X119799047Y-79752238D01*
X119799047Y-79752238D02*
X119846666Y-79847476D01*
X119846666Y-79847476D02*
X119894285Y-80037952D01*
X119894285Y-80037952D02*
X119894285Y-80180809D01*
X119894285Y-80180809D02*
X119846666Y-80371285D01*
X119846666Y-80371285D02*
X119799047Y-80466523D01*
X119799047Y-80466523D02*
X119703809Y-80561761D01*
X119703809Y-80561761D02*
X119560952Y-80609380D01*
X119560952Y-80609380D02*
X119322857Y-80609380D01*
X120322857Y-80228428D02*
X121084762Y-80228428D01*
X120703809Y-80609380D02*
X120703809Y-79847476D01*
D15*
%TO.C,UDC*%
X96594142Y-89459916D02*
X96594142Y-90385202D01*
X96594142Y-90385202D02*
X96648571Y-90494059D01*
X96648571Y-90494059D02*
X96703000Y-90548487D01*
X96703000Y-90548487D02*
X96811857Y-90602916D01*
X96811857Y-90602916D02*
X97029571Y-90602916D01*
X97029571Y-90602916D02*
X97138428Y-90548487D01*
X97138428Y-90548487D02*
X97192857Y-90494059D01*
X97192857Y-90494059D02*
X97247285Y-90385202D01*
X97247285Y-90385202D02*
X97247285Y-89459916D01*
X97791571Y-90602916D02*
X97791571Y-89459916D01*
X97791571Y-89459916D02*
X98063714Y-89459916D01*
X98063714Y-89459916D02*
X98227000Y-89514345D01*
X98227000Y-89514345D02*
X98335857Y-89623202D01*
X98335857Y-89623202D02*
X98390286Y-89732059D01*
X98390286Y-89732059D02*
X98444714Y-89949773D01*
X98444714Y-89949773D02*
X98444714Y-90113059D01*
X98444714Y-90113059D02*
X98390286Y-90330773D01*
X98390286Y-90330773D02*
X98335857Y-90439630D01*
X98335857Y-90439630D02*
X98227000Y-90548487D01*
X98227000Y-90548487D02*
X98063714Y-90602916D01*
X98063714Y-90602916D02*
X97791571Y-90602916D01*
X99587714Y-90494059D02*
X99533286Y-90548487D01*
X99533286Y-90548487D02*
X99370000Y-90602916D01*
X99370000Y-90602916D02*
X99261143Y-90602916D01*
X99261143Y-90602916D02*
X99097857Y-90548487D01*
X99097857Y-90548487D02*
X98989000Y-90439630D01*
X98989000Y-90439630D02*
X98934571Y-90330773D01*
X98934571Y-90330773D02*
X98880143Y-90113059D01*
X98880143Y-90113059D02*
X98880143Y-89949773D01*
X98880143Y-89949773D02*
X98934571Y-89732059D01*
X98934571Y-89732059D02*
X98989000Y-89623202D01*
X98989000Y-89623202D02*
X99097857Y-89514345D01*
X99097857Y-89514345D02*
X99261143Y-89459916D01*
X99261143Y-89459916D02*
X99370000Y-89459916D01*
X99370000Y-89459916D02*
X99533286Y-89514345D01*
X99533286Y-89514345D02*
X99587714Y-89568773D01*
D13*
%TO.C,VCC*%
X34806667Y-33889380D02*
X35140000Y-34889380D01*
X35140000Y-34889380D02*
X35473333Y-33889380D01*
X36378095Y-34794142D02*
X36330476Y-34841761D01*
X36330476Y-34841761D02*
X36187619Y-34889380D01*
X36187619Y-34889380D02*
X36092381Y-34889380D01*
X36092381Y-34889380D02*
X35949524Y-34841761D01*
X35949524Y-34841761D02*
X35854286Y-34746523D01*
X35854286Y-34746523D02*
X35806667Y-34651285D01*
X35806667Y-34651285D02*
X35759048Y-34460809D01*
X35759048Y-34460809D02*
X35759048Y-34317952D01*
X35759048Y-34317952D02*
X35806667Y-34127476D01*
X35806667Y-34127476D02*
X35854286Y-34032238D01*
X35854286Y-34032238D02*
X35949524Y-33937000D01*
X35949524Y-33937000D02*
X36092381Y-33889380D01*
X36092381Y-33889380D02*
X36187619Y-33889380D01*
X36187619Y-33889380D02*
X36330476Y-33937000D01*
X36330476Y-33937000D02*
X36378095Y-33984619D01*
X37378095Y-34794142D02*
X37330476Y-34841761D01*
X37330476Y-34841761D02*
X37187619Y-34889380D01*
X37187619Y-34889380D02*
X37092381Y-34889380D01*
X37092381Y-34889380D02*
X36949524Y-34841761D01*
X36949524Y-34841761D02*
X36854286Y-34746523D01*
X36854286Y-34746523D02*
X36806667Y-34651285D01*
X36806667Y-34651285D02*
X36759048Y-34460809D01*
X36759048Y-34460809D02*
X36759048Y-34317952D01*
X36759048Y-34317952D02*
X36806667Y-34127476D01*
X36806667Y-34127476D02*
X36854286Y-34032238D01*
X36854286Y-34032238D02*
X36949524Y-33937000D01*
X36949524Y-33937000D02*
X37092381Y-33889380D01*
X37092381Y-33889380D02*
X37187619Y-33889380D01*
X37187619Y-33889380D02*
X37330476Y-33937000D01*
X37330476Y-33937000D02*
X37378095Y-33984619D01*
D11*
%TO.C,R4*%
X107616666Y-48414761D02*
X106949999Y-47462380D01*
X106473809Y-48414761D02*
X106473809Y-46414761D01*
X106473809Y-46414761D02*
X107235714Y-46414761D01*
X107235714Y-46414761D02*
X107426190Y-46510000D01*
X107426190Y-46510000D02*
X107521428Y-46605238D01*
X107521428Y-46605238D02*
X107616666Y-46795714D01*
X107616666Y-46795714D02*
X107616666Y-47081428D01*
X107616666Y-47081428D02*
X107521428Y-47271904D01*
X107521428Y-47271904D02*
X107426190Y-47367142D01*
X107426190Y-47367142D02*
X107235714Y-47462380D01*
X107235714Y-47462380D02*
X106473809Y-47462380D01*
X109330952Y-47081428D02*
X109330952Y-48414761D01*
X108854761Y-46319523D02*
X108378571Y-47748095D01*
X108378571Y-47748095D02*
X109616666Y-47748095D01*
D13*
%TO.C,JIG SENSE 1/UDC 11/ID
*%
X109065714Y-87809380D02*
X109065714Y-88523666D01*
X109065714Y-88523666D02*
X109018095Y-88666523D01*
X109018095Y-88666523D02*
X108922857Y-88761761D01*
X108922857Y-88761761D02*
X108780000Y-88809380D01*
X108780000Y-88809380D02*
X108684762Y-88809380D01*
X109541905Y-88809380D02*
X109541905Y-87809380D01*
X110541904Y-87857000D02*
X110446666Y-87809380D01*
X110446666Y-87809380D02*
X110303809Y-87809380D01*
X110303809Y-87809380D02*
X110160952Y-87857000D01*
X110160952Y-87857000D02*
X110065714Y-87952238D01*
X110065714Y-87952238D02*
X110018095Y-88047476D01*
X110018095Y-88047476D02*
X109970476Y-88237952D01*
X109970476Y-88237952D02*
X109970476Y-88380809D01*
X109970476Y-88380809D02*
X110018095Y-88571285D01*
X110018095Y-88571285D02*
X110065714Y-88666523D01*
X110065714Y-88666523D02*
X110160952Y-88761761D01*
X110160952Y-88761761D02*
X110303809Y-88809380D01*
X110303809Y-88809380D02*
X110399047Y-88809380D01*
X110399047Y-88809380D02*
X110541904Y-88761761D01*
X110541904Y-88761761D02*
X110589523Y-88714142D01*
X110589523Y-88714142D02*
X110589523Y-88380809D01*
X110589523Y-88380809D02*
X110399047Y-88380809D01*
X111570476Y-88761761D02*
X111713333Y-88809380D01*
X111713333Y-88809380D02*
X111951428Y-88809380D01*
X111951428Y-88809380D02*
X112046666Y-88761761D01*
X112046666Y-88761761D02*
X112094285Y-88714142D01*
X112094285Y-88714142D02*
X112141904Y-88618904D01*
X112141904Y-88618904D02*
X112141904Y-88523666D01*
X112141904Y-88523666D02*
X112094285Y-88428428D01*
X112094285Y-88428428D02*
X112046666Y-88380809D01*
X112046666Y-88380809D02*
X111951428Y-88333190D01*
X111951428Y-88333190D02*
X111760952Y-88285571D01*
X111760952Y-88285571D02*
X111665714Y-88237952D01*
X111665714Y-88237952D02*
X111618095Y-88190333D01*
X111618095Y-88190333D02*
X111570476Y-88095095D01*
X111570476Y-88095095D02*
X111570476Y-87999857D01*
X111570476Y-87999857D02*
X111618095Y-87904619D01*
X111618095Y-87904619D02*
X111665714Y-87857000D01*
X111665714Y-87857000D02*
X111760952Y-87809380D01*
X111760952Y-87809380D02*
X111999047Y-87809380D01*
X111999047Y-87809380D02*
X112141904Y-87857000D01*
X112570476Y-88285571D02*
X112903809Y-88285571D01*
X113046666Y-88809380D02*
X112570476Y-88809380D01*
X112570476Y-88809380D02*
X112570476Y-87809380D01*
X112570476Y-87809380D02*
X113046666Y-87809380D01*
X113475238Y-88809380D02*
X113475238Y-87809380D01*
X113475238Y-87809380D02*
X114046666Y-88809380D01*
X114046666Y-88809380D02*
X114046666Y-87809380D01*
X114475238Y-88761761D02*
X114618095Y-88809380D01*
X114618095Y-88809380D02*
X114856190Y-88809380D01*
X114856190Y-88809380D02*
X114951428Y-88761761D01*
X114951428Y-88761761D02*
X114999047Y-88714142D01*
X114999047Y-88714142D02*
X115046666Y-88618904D01*
X115046666Y-88618904D02*
X115046666Y-88523666D01*
X115046666Y-88523666D02*
X114999047Y-88428428D01*
X114999047Y-88428428D02*
X114951428Y-88380809D01*
X114951428Y-88380809D02*
X114856190Y-88333190D01*
X114856190Y-88333190D02*
X114665714Y-88285571D01*
X114665714Y-88285571D02*
X114570476Y-88237952D01*
X114570476Y-88237952D02*
X114522857Y-88190333D01*
X114522857Y-88190333D02*
X114475238Y-88095095D01*
X114475238Y-88095095D02*
X114475238Y-87999857D01*
X114475238Y-87999857D02*
X114522857Y-87904619D01*
X114522857Y-87904619D02*
X114570476Y-87857000D01*
X114570476Y-87857000D02*
X114665714Y-87809380D01*
X114665714Y-87809380D02*
X114903809Y-87809380D01*
X114903809Y-87809380D02*
X115046666Y-87857000D01*
X115475238Y-88285571D02*
X115808571Y-88285571D01*
X115951428Y-88809380D02*
X115475238Y-88809380D01*
X115475238Y-88809380D02*
X115475238Y-87809380D01*
X115475238Y-87809380D02*
X115951428Y-87809380D01*
X117503809Y-88809380D02*
X116932381Y-88809380D01*
X117218095Y-88809380D02*
X117218095Y-87809380D01*
X117218095Y-87809380D02*
X117122857Y-87952238D01*
X117122857Y-87952238D02*
X117027619Y-88047476D01*
X117027619Y-88047476D02*
X116932381Y-88095095D01*
X118646666Y-87761761D02*
X117789524Y-89047476D01*
X118980000Y-87809380D02*
X118980000Y-88618904D01*
X118980000Y-88618904D02*
X119027619Y-88714142D01*
X119027619Y-88714142D02*
X119075238Y-88761761D01*
X119075238Y-88761761D02*
X119170476Y-88809380D01*
X119170476Y-88809380D02*
X119360952Y-88809380D01*
X119360952Y-88809380D02*
X119456190Y-88761761D01*
X119456190Y-88761761D02*
X119503809Y-88714142D01*
X119503809Y-88714142D02*
X119551428Y-88618904D01*
X119551428Y-88618904D02*
X119551428Y-87809380D01*
X120027619Y-88809380D02*
X120027619Y-87809380D01*
X120027619Y-87809380D02*
X120265714Y-87809380D01*
X120265714Y-87809380D02*
X120408571Y-87857000D01*
X120408571Y-87857000D02*
X120503809Y-87952238D01*
X120503809Y-87952238D02*
X120551428Y-88047476D01*
X120551428Y-88047476D02*
X120599047Y-88237952D01*
X120599047Y-88237952D02*
X120599047Y-88380809D01*
X120599047Y-88380809D02*
X120551428Y-88571285D01*
X120551428Y-88571285D02*
X120503809Y-88666523D01*
X120503809Y-88666523D02*
X120408571Y-88761761D01*
X120408571Y-88761761D02*
X120265714Y-88809380D01*
X120265714Y-88809380D02*
X120027619Y-88809380D01*
X121599047Y-88714142D02*
X121551428Y-88761761D01*
X121551428Y-88761761D02*
X121408571Y-88809380D01*
X121408571Y-88809380D02*
X121313333Y-88809380D01*
X121313333Y-88809380D02*
X121170476Y-88761761D01*
X121170476Y-88761761D02*
X121075238Y-88666523D01*
X121075238Y-88666523D02*
X121027619Y-88571285D01*
X121027619Y-88571285D02*
X120980000Y-88380809D01*
X120980000Y-88380809D02*
X120980000Y-88237952D01*
X120980000Y-88237952D02*
X121027619Y-88047476D01*
X121027619Y-88047476D02*
X121075238Y-87952238D01*
X121075238Y-87952238D02*
X121170476Y-87857000D01*
X121170476Y-87857000D02*
X121313333Y-87809380D01*
X121313333Y-87809380D02*
X121408571Y-87809380D01*
X121408571Y-87809380D02*
X121551428Y-87857000D01*
X121551428Y-87857000D02*
X121599047Y-87904619D01*
X123151428Y-88809380D02*
X122580000Y-88809380D01*
X122865714Y-88809380D02*
X122865714Y-87809380D01*
X122865714Y-87809380D02*
X122770476Y-87952238D01*
X122770476Y-87952238D02*
X122675238Y-88047476D01*
X122675238Y-88047476D02*
X122580000Y-88095095D01*
X124103809Y-88809380D02*
X123532381Y-88809380D01*
X123818095Y-88809380D02*
X123818095Y-87809380D01*
X123818095Y-87809380D02*
X123722857Y-87952238D01*
X123722857Y-87952238D02*
X123627619Y-88047476D01*
X123627619Y-88047476D02*
X123532381Y-88095095D01*
X125246666Y-87761761D02*
X124389524Y-89047476D01*
X125580000Y-88809380D02*
X125580000Y-87809380D01*
X126056190Y-88809380D02*
X126056190Y-87809380D01*
X126056190Y-87809380D02*
X126294285Y-87809380D01*
X126294285Y-87809380D02*
X126437142Y-87857000D01*
X126437142Y-87857000D02*
X126532380Y-87952238D01*
X126532380Y-87952238D02*
X126579999Y-88047476D01*
X126579999Y-88047476D02*
X126627618Y-88237952D01*
X126627618Y-88237952D02*
X126627618Y-88380809D01*
X126627618Y-88380809D02*
X126579999Y-88571285D01*
X126579999Y-88571285D02*
X126532380Y-88666523D01*
X126532380Y-88666523D02*
X126437142Y-88761761D01*
X126437142Y-88761761D02*
X126294285Y-88809380D01*
X126294285Y-88809380D02*
X126056190Y-88809380D01*
%TO.C,JIG SENSE 2/UDC 12*%
X110327619Y-95429380D02*
X110327619Y-96143666D01*
X110327619Y-96143666D02*
X110280000Y-96286523D01*
X110280000Y-96286523D02*
X110184762Y-96381761D01*
X110184762Y-96381761D02*
X110041905Y-96429380D01*
X110041905Y-96429380D02*
X109946667Y-96429380D01*
X110803810Y-96429380D02*
X110803810Y-95429380D01*
X111803809Y-95477000D02*
X111708571Y-95429380D01*
X111708571Y-95429380D02*
X111565714Y-95429380D01*
X111565714Y-95429380D02*
X111422857Y-95477000D01*
X111422857Y-95477000D02*
X111327619Y-95572238D01*
X111327619Y-95572238D02*
X111280000Y-95667476D01*
X111280000Y-95667476D02*
X111232381Y-95857952D01*
X111232381Y-95857952D02*
X111232381Y-96000809D01*
X111232381Y-96000809D02*
X111280000Y-96191285D01*
X111280000Y-96191285D02*
X111327619Y-96286523D01*
X111327619Y-96286523D02*
X111422857Y-96381761D01*
X111422857Y-96381761D02*
X111565714Y-96429380D01*
X111565714Y-96429380D02*
X111660952Y-96429380D01*
X111660952Y-96429380D02*
X111803809Y-96381761D01*
X111803809Y-96381761D02*
X111851428Y-96334142D01*
X111851428Y-96334142D02*
X111851428Y-96000809D01*
X111851428Y-96000809D02*
X111660952Y-96000809D01*
X112832381Y-96381761D02*
X112975238Y-96429380D01*
X112975238Y-96429380D02*
X113213333Y-96429380D01*
X113213333Y-96429380D02*
X113308571Y-96381761D01*
X113308571Y-96381761D02*
X113356190Y-96334142D01*
X113356190Y-96334142D02*
X113403809Y-96238904D01*
X113403809Y-96238904D02*
X113403809Y-96143666D01*
X113403809Y-96143666D02*
X113356190Y-96048428D01*
X113356190Y-96048428D02*
X113308571Y-96000809D01*
X113308571Y-96000809D02*
X113213333Y-95953190D01*
X113213333Y-95953190D02*
X113022857Y-95905571D01*
X113022857Y-95905571D02*
X112927619Y-95857952D01*
X112927619Y-95857952D02*
X112880000Y-95810333D01*
X112880000Y-95810333D02*
X112832381Y-95715095D01*
X112832381Y-95715095D02*
X112832381Y-95619857D01*
X112832381Y-95619857D02*
X112880000Y-95524619D01*
X112880000Y-95524619D02*
X112927619Y-95477000D01*
X112927619Y-95477000D02*
X113022857Y-95429380D01*
X113022857Y-95429380D02*
X113260952Y-95429380D01*
X113260952Y-95429380D02*
X113403809Y-95477000D01*
X113832381Y-95905571D02*
X114165714Y-95905571D01*
X114308571Y-96429380D02*
X113832381Y-96429380D01*
X113832381Y-96429380D02*
X113832381Y-95429380D01*
X113832381Y-95429380D02*
X114308571Y-95429380D01*
X114737143Y-96429380D02*
X114737143Y-95429380D01*
X114737143Y-95429380D02*
X115308571Y-96429380D01*
X115308571Y-96429380D02*
X115308571Y-95429380D01*
X115737143Y-96381761D02*
X115880000Y-96429380D01*
X115880000Y-96429380D02*
X116118095Y-96429380D01*
X116118095Y-96429380D02*
X116213333Y-96381761D01*
X116213333Y-96381761D02*
X116260952Y-96334142D01*
X116260952Y-96334142D02*
X116308571Y-96238904D01*
X116308571Y-96238904D02*
X116308571Y-96143666D01*
X116308571Y-96143666D02*
X116260952Y-96048428D01*
X116260952Y-96048428D02*
X116213333Y-96000809D01*
X116213333Y-96000809D02*
X116118095Y-95953190D01*
X116118095Y-95953190D02*
X115927619Y-95905571D01*
X115927619Y-95905571D02*
X115832381Y-95857952D01*
X115832381Y-95857952D02*
X115784762Y-95810333D01*
X115784762Y-95810333D02*
X115737143Y-95715095D01*
X115737143Y-95715095D02*
X115737143Y-95619857D01*
X115737143Y-95619857D02*
X115784762Y-95524619D01*
X115784762Y-95524619D02*
X115832381Y-95477000D01*
X115832381Y-95477000D02*
X115927619Y-95429380D01*
X115927619Y-95429380D02*
X116165714Y-95429380D01*
X116165714Y-95429380D02*
X116308571Y-95477000D01*
X116737143Y-95905571D02*
X117070476Y-95905571D01*
X117213333Y-96429380D02*
X116737143Y-96429380D01*
X116737143Y-96429380D02*
X116737143Y-95429380D01*
X116737143Y-95429380D02*
X117213333Y-95429380D01*
X118194286Y-95524619D02*
X118241905Y-95477000D01*
X118241905Y-95477000D02*
X118337143Y-95429380D01*
X118337143Y-95429380D02*
X118575238Y-95429380D01*
X118575238Y-95429380D02*
X118670476Y-95477000D01*
X118670476Y-95477000D02*
X118718095Y-95524619D01*
X118718095Y-95524619D02*
X118765714Y-95619857D01*
X118765714Y-95619857D02*
X118765714Y-95715095D01*
X118765714Y-95715095D02*
X118718095Y-95857952D01*
X118718095Y-95857952D02*
X118146667Y-96429380D01*
X118146667Y-96429380D02*
X118765714Y-96429380D01*
X119908571Y-95381761D02*
X119051429Y-96667476D01*
X120241905Y-95429380D02*
X120241905Y-96238904D01*
X120241905Y-96238904D02*
X120289524Y-96334142D01*
X120289524Y-96334142D02*
X120337143Y-96381761D01*
X120337143Y-96381761D02*
X120432381Y-96429380D01*
X120432381Y-96429380D02*
X120622857Y-96429380D01*
X120622857Y-96429380D02*
X120718095Y-96381761D01*
X120718095Y-96381761D02*
X120765714Y-96334142D01*
X120765714Y-96334142D02*
X120813333Y-96238904D01*
X120813333Y-96238904D02*
X120813333Y-95429380D01*
X121289524Y-96429380D02*
X121289524Y-95429380D01*
X121289524Y-95429380D02*
X121527619Y-95429380D01*
X121527619Y-95429380D02*
X121670476Y-95477000D01*
X121670476Y-95477000D02*
X121765714Y-95572238D01*
X121765714Y-95572238D02*
X121813333Y-95667476D01*
X121813333Y-95667476D02*
X121860952Y-95857952D01*
X121860952Y-95857952D02*
X121860952Y-96000809D01*
X121860952Y-96000809D02*
X121813333Y-96191285D01*
X121813333Y-96191285D02*
X121765714Y-96286523D01*
X121765714Y-96286523D02*
X121670476Y-96381761D01*
X121670476Y-96381761D02*
X121527619Y-96429380D01*
X121527619Y-96429380D02*
X121289524Y-96429380D01*
X122860952Y-96334142D02*
X122813333Y-96381761D01*
X122813333Y-96381761D02*
X122670476Y-96429380D01*
X122670476Y-96429380D02*
X122575238Y-96429380D01*
X122575238Y-96429380D02*
X122432381Y-96381761D01*
X122432381Y-96381761D02*
X122337143Y-96286523D01*
X122337143Y-96286523D02*
X122289524Y-96191285D01*
X122289524Y-96191285D02*
X122241905Y-96000809D01*
X122241905Y-96000809D02*
X122241905Y-95857952D01*
X122241905Y-95857952D02*
X122289524Y-95667476D01*
X122289524Y-95667476D02*
X122337143Y-95572238D01*
X122337143Y-95572238D02*
X122432381Y-95477000D01*
X122432381Y-95477000D02*
X122575238Y-95429380D01*
X122575238Y-95429380D02*
X122670476Y-95429380D01*
X122670476Y-95429380D02*
X122813333Y-95477000D01*
X122813333Y-95477000D02*
X122860952Y-95524619D01*
X124413333Y-96429380D02*
X123841905Y-96429380D01*
X124127619Y-96429380D02*
X124127619Y-95429380D01*
X124127619Y-95429380D02*
X124032381Y-95572238D01*
X124032381Y-95572238D02*
X123937143Y-95667476D01*
X123937143Y-95667476D02*
X123841905Y-95715095D01*
X124794286Y-95524619D02*
X124841905Y-95477000D01*
X124841905Y-95477000D02*
X124937143Y-95429380D01*
X124937143Y-95429380D02*
X125175238Y-95429380D01*
X125175238Y-95429380D02*
X125270476Y-95477000D01*
X125270476Y-95477000D02*
X125318095Y-95524619D01*
X125318095Y-95524619D02*
X125365714Y-95619857D01*
X125365714Y-95619857D02*
X125365714Y-95715095D01*
X125365714Y-95715095D02*
X125318095Y-95857952D01*
X125318095Y-95857952D02*
X124746667Y-96429380D01*
X124746667Y-96429380D02*
X125365714Y-96429380D01*
D11*
%TO.C,R6*%
X69894761Y-93733333D02*
X68942380Y-94400000D01*
X69894761Y-94876190D02*
X67894761Y-94876190D01*
X67894761Y-94876190D02*
X67894761Y-94114285D01*
X67894761Y-94114285D02*
X67990000Y-93923809D01*
X67990000Y-93923809D02*
X68085238Y-93828571D01*
X68085238Y-93828571D02*
X68275714Y-93733333D01*
X68275714Y-93733333D02*
X68561428Y-93733333D01*
X68561428Y-93733333D02*
X68751904Y-93828571D01*
X68751904Y-93828571D02*
X68847142Y-93923809D01*
X68847142Y-93923809D02*
X68942380Y-94114285D01*
X68942380Y-94114285D02*
X68942380Y-94876190D01*
X67894761Y-92019047D02*
X67894761Y-92400000D01*
X67894761Y-92400000D02*
X67990000Y-92590476D01*
X67990000Y-92590476D02*
X68085238Y-92685714D01*
X68085238Y-92685714D02*
X68370952Y-92876190D01*
X68370952Y-92876190D02*
X68751904Y-92971428D01*
X68751904Y-92971428D02*
X69513809Y-92971428D01*
X69513809Y-92971428D02*
X69704285Y-92876190D01*
X69704285Y-92876190D02*
X69799523Y-92780952D01*
X69799523Y-92780952D02*
X69894761Y-92590476D01*
X69894761Y-92590476D02*
X69894761Y-92209523D01*
X69894761Y-92209523D02*
X69799523Y-92019047D01*
X69799523Y-92019047D02*
X69704285Y-91923809D01*
X69704285Y-91923809D02*
X69513809Y-91828571D01*
X69513809Y-91828571D02*
X69037619Y-91828571D01*
X69037619Y-91828571D02*
X68847142Y-91923809D01*
X68847142Y-91923809D02*
X68751904Y-92019047D01*
X68751904Y-92019047D02*
X68656666Y-92209523D01*
X68656666Y-92209523D02*
X68656666Y-92590476D01*
X68656666Y-92590476D02*
X68751904Y-92780952D01*
X68751904Y-92780952D02*
X68847142Y-92876190D01*
X68847142Y-92876190D02*
X69037619Y-92971428D01*
D16*
%TO.C,PC RX*%
X37340000Y-57840000D02*
G75*
G03*
X37340000Y-57840000I-1200000J0D01*
G01*
%TO.C,R3*%
X82320000Y-47680000D02*
X83010000Y-47680000D01*
X83010000Y-45960000D02*
X83010000Y-49400000D01*
X83010000Y-49400000D02*
X92250000Y-49400000D01*
X92250000Y-45960000D02*
X83010000Y-45960000D01*
X92250000Y-49400000D02*
X92250000Y-45960000D01*
X92940000Y-47680000D02*
X92250000Y-47680000D01*
%TO.C,UDC 3/GND*%
X118620000Y-106680000D02*
G75*
G03*
X118620000Y-106680000I-1200000J0D01*
G01*
%TO.C,R5*%
X69160000Y-80930000D02*
X69160000Y-80240000D01*
X67440000Y-80240000D02*
X70880000Y-80240000D01*
X70880000Y-80240000D02*
X70880000Y-71000000D01*
X67440000Y-71000000D02*
X67440000Y-80240000D01*
X70880000Y-71000000D02*
X67440000Y-71000000D01*
X69160000Y-70310000D02*
X69160000Y-71000000D01*
%TO.C,PC TX*%
X37340000Y-68000000D02*
G75*
G03*
X37340000Y-68000000I-1200000J0D01*
G01*
%TO.C,R7*%
X46070000Y-99750000D02*
X46760000Y-99750000D01*
X46760000Y-98030000D02*
X46760000Y-101470000D01*
X46760000Y-101470000D02*
X56000000Y-101470000D01*
X56000000Y-98030000D02*
X46760000Y-98030000D01*
X56000000Y-101470000D02*
X56000000Y-98030000D01*
X56690000Y-99750000D02*
X56000000Y-99750000D01*
%TO.C,R9*%
X76550000Y-75620000D02*
X77240000Y-75620000D01*
X77240000Y-73900000D02*
X77240000Y-77340000D01*
X77240000Y-77340000D02*
X86480000Y-77340000D01*
X86480000Y-73900000D02*
X77240000Y-73900000D01*
X86480000Y-77340000D02*
X86480000Y-73900000D01*
X87170000Y-75620000D02*
X86480000Y-75620000D01*
%TO.C,PC GND*%
X37340000Y-47680000D02*
G75*
G03*
X37340000Y-47680000I-1200000J0D01*
G01*
%TO.C,PCH2K < > PCH1K/PDEL/VTE*%
X64750000Y-60660000D02*
X73570000Y-60660000D01*
X64750000Y-60970000D02*
X64750000Y-60660000D01*
X64750000Y-65180000D02*
X64750000Y-64870000D01*
X66660000Y-59960000D02*
X67160000Y-60460000D01*
X67160000Y-60460000D02*
X67660000Y-59960000D01*
X67660000Y-59960000D02*
X66660000Y-59960000D01*
X73570000Y-60660000D02*
X73570000Y-60970000D01*
X73570000Y-65180000D02*
X64750000Y-65180000D01*
X73570000Y-65180000D02*
X73570000Y-64870000D01*
%TO.C,R1*%
X61310000Y-37520000D02*
X62000000Y-37520000D01*
X62000000Y-35800000D02*
X62000000Y-39240000D01*
X62000000Y-39240000D02*
X71240000Y-39240000D01*
X71240000Y-35800000D02*
X62000000Y-35800000D01*
X71240000Y-39240000D02*
X71240000Y-35800000D01*
X71930000Y-37520000D02*
X71240000Y-37520000D01*
%TO.C,R2*%
X61310000Y-47680000D02*
X62000000Y-47680000D01*
X62000000Y-45960000D02*
X62000000Y-49400000D01*
X62000000Y-49400000D02*
X71240000Y-49400000D01*
X71240000Y-45960000D02*
X62000000Y-45960000D01*
X71240000Y-49400000D02*
X71240000Y-45960000D01*
X71930000Y-47680000D02*
X71240000Y-47680000D01*
%TO.C,R8*%
X51150000Y-75620000D02*
X51840000Y-75620000D01*
X51840000Y-73900000D02*
X51840000Y-77340000D01*
X51840000Y-77340000D02*
X61080000Y-77340000D01*
X61080000Y-73900000D02*
X51840000Y-73900000D01*
X61080000Y-77340000D02*
X61080000Y-73900000D01*
X61770000Y-75620000D02*
X61080000Y-75620000D01*
%TO.C,UDC7/D-*%
X118620000Y-75620000D02*
G75*
G03*
X118620000Y-75620000I-1200000J0D01*
G01*
%TO.C,UDC6/D+*%
X118620000Y-83240000D02*
G75*
G03*
X118620000Y-83240000I-1200000J0D01*
G01*
%TO.C,VCC*%
X37340000Y-37520000D02*
G75*
G03*
X37340000Y-37520000I-1200000J0D01*
G01*
%TO.C,R4*%
X102640000Y-47680000D02*
X103330000Y-47680000D01*
X103330000Y-45960000D02*
X103330000Y-49400000D01*
X103330000Y-49400000D02*
X112570000Y-49400000D01*
X112570000Y-45960000D02*
X103330000Y-45960000D01*
X112570000Y-49400000D02*
X112570000Y-45960000D01*
X113260000Y-47680000D02*
X112570000Y-47680000D01*
%TO.C,JIG SENSE 1/UDC 11/ID
*%
X118620000Y-91440000D02*
G75*
G03*
X118620000Y-91440000I-1200000J0D01*
G01*
%TO.C,JIG SENSE 2/UDC 12*%
X118620000Y-99060000D02*
G75*
G03*
X118620000Y-99060000I-1200000J0D01*
G01*
%TO.C,R6*%
X69160000Y-98710000D02*
X69160000Y-98020000D01*
X67440000Y-98020000D02*
X70880000Y-98020000D01*
X70880000Y-98020000D02*
X70880000Y-88780000D01*
X67440000Y-88780000D02*
X67440000Y-98020000D01*
X70880000Y-88780000D02*
X67440000Y-88780000D01*
X69160000Y-88090000D02*
X69160000Y-88780000D01*
%TD*%
M02*
