M48
; DRILL file {KiCad (7.0.0)} date Fri Aug 25 10:13:14 2023
; FORMAT={-:-/ absolute / inch / decimal}
; #@! TF.CreationDate,2023-08-25T10:13:14+02:00
; #@! TF.GenerationSoftware,Kicad,Pcbnew,(7.0.0)
; #@! TF.FileFunction,Plated,1,2,PTH
FMAT,2
INCH
; #@! TA.AperFunction,Plated,PTH,ViaDrill
T1C0.0118
; #@! TA.AperFunction,Plated,PTH,ViaDrill
T2C0.0120
; #@! TA.AperFunction,Plated,PTH,ComponentDrill
T3C0.0295
; #@! TA.AperFunction,Plated,PTH,ComponentDrill
T4C0.0315
; #@! TA.AperFunction,Plated,PTH,ComponentDrill
T5C0.0360
; #@! TA.AperFunction,Plated,PTH,ComponentDrill
T6C0.0591
%
G90
G05
T1
X1.7228Y-2.5772
X1.7228Y-2.6772
X1.8228Y-2.5772
X1.8228Y-2.6772
X3.8228Y-2.9772
X3.8228Y-3.1772
X4.4228Y-4.1772
X4.4228Y-4.3772
T2
X3.6728Y-3.7013
X3.9578Y-3.6863
X3.9578Y-3.8713
X4.1228Y-3.9163
T4
X1.7728Y-3.9272
X1.9728Y-2.9772
X2.2728Y-3.9272
X2.3728Y-1.4772
X2.3728Y-1.8772
X2.4728Y-2.9772
X2.6441Y-2.4772
X2.7228Y-2.4772
X2.7228Y-2.7272
X2.7228Y-3.2272
X2.7228Y-3.4272
X2.7228Y-3.9272
X2.8016Y-2.4772
X2.8728Y-1.4772
X2.8728Y-1.8772
X2.9728Y-2.9772
X3.2Y-1.8772
X3.4728Y-2.9772
X3.7Y-1.8772
X4.0Y-1.8772
X4.5Y-1.8772
T5
X3.2228Y-3.3863
X3.2228Y-3.9863
X3.3228Y-3.3863
X3.3228Y-3.9863
X3.4228Y-3.3863
X3.4228Y-3.9863
X3.5228Y-3.3863
X3.5228Y-3.9863
X3.6228Y-3.3863
X3.6228Y-3.9863
X3.7228Y-3.3863
X3.7228Y-3.9863
X3.8228Y-3.3863
X3.8228Y-3.9863
X3.9228Y-3.3863
X3.9228Y-3.9863
X4.0228Y-3.3863
X4.0228Y-3.9863
X4.1228Y-3.3863
X4.1228Y-3.9863
X4.2228Y-3.3863
X4.2228Y-3.9863
X4.3228Y-3.3863
X4.3228Y-3.9863
T6
X2.5614Y-2.4772
X2.8843Y-2.4772
T3
G00X3.5535Y-3.6696
M15
G01X3.5535Y-3.7089
M16
G05
G00X3.5928Y-3.6066
M15
G01X3.5928Y-3.6459
M16
G05
G00X3.5928Y-3.7286
M15
G01X3.5928Y-3.768
M16
G05
G00X4.0062Y-3.6066
M15
G01X4.0062Y-3.6459
M16
G05
G00X4.0062Y-3.7286
M15
G01X4.0062Y-3.768
M16
G05
G00X4.0456Y-3.6656
M15
G01X4.0456Y-3.705
M16
G05
T0
M30
