%TF.GenerationSoftware,KiCad,Pcbnew,(7.0.0)*%
%TF.CreationDate,2023-08-25T10:13:16+02:00*%
%TF.ProjectId,JIG SWITCH,4a494720-5357-4495-9443-482e6b696361,rev?*%
%TF.SameCoordinates,Original*%
%TF.FileFunction,Legend,Bot*%
%TF.FilePolarity,Positive*%
%FSLAX46Y46*%
G04 Gerber Fmt 4.6, Leading zero omitted, Abs format (unit mm)*
G04 Created by KiCad (PCBNEW (7.0.0)) date 2023-08-25 10:13:16*
%MOMM*%
%LPD*%
G01*
G04 APERTURE LIST*
%ADD10C,0.200000*%
G04 APERTURE END LIST*
D10*
X33020000Y-35560000D02*
X124460000Y-35560000D01*
X124460000Y-35560000D02*
X124460000Y-48260000D01*
X124460000Y-48260000D02*
X33020000Y-48260000D01*
X33020000Y-48260000D02*
X33020000Y-35560000D01*
X121539047Y-36402380D02*
X121539047Y-36640476D01*
X121777142Y-36545238D02*
X121539047Y-36640476D01*
X121539047Y-36640476D02*
X121300952Y-36545238D01*
X121681904Y-36830952D02*
X121539047Y-36640476D01*
X121539047Y-36640476D02*
X121396190Y-36830952D01*
X120777142Y-36402380D02*
X120777142Y-36640476D01*
X121015237Y-36545238D02*
X120777142Y-36640476D01*
X120777142Y-36640476D02*
X120539047Y-36545238D01*
X120919999Y-36830952D02*
X120777142Y-36640476D01*
X120777142Y-36640476D02*
X120634285Y-36830952D01*
X118986666Y-37307142D02*
X119034285Y-37354761D01*
X119034285Y-37354761D02*
X119177142Y-37402380D01*
X119177142Y-37402380D02*
X119272380Y-37402380D01*
X119272380Y-37402380D02*
X119415237Y-37354761D01*
X119415237Y-37354761D02*
X119510475Y-37259523D01*
X119510475Y-37259523D02*
X119558094Y-37164285D01*
X119558094Y-37164285D02*
X119605713Y-36973809D01*
X119605713Y-36973809D02*
X119605713Y-36830952D01*
X119605713Y-36830952D02*
X119558094Y-36640476D01*
X119558094Y-36640476D02*
X119510475Y-36545238D01*
X119510475Y-36545238D02*
X119415237Y-36450000D01*
X119415237Y-36450000D02*
X119272380Y-36402380D01*
X119272380Y-36402380D02*
X119177142Y-36402380D01*
X119177142Y-36402380D02*
X119034285Y-36450000D01*
X119034285Y-36450000D02*
X118986666Y-36497619D01*
X118605713Y-37116666D02*
X118129523Y-37116666D01*
X118700951Y-37402380D02*
X118367618Y-36402380D01*
X118367618Y-36402380D02*
X118034285Y-37402380D01*
X117700951Y-36402380D02*
X117700951Y-37211904D01*
X117700951Y-37211904D02*
X117653332Y-37307142D01*
X117653332Y-37307142D02*
X117605713Y-37354761D01*
X117605713Y-37354761D02*
X117510475Y-37402380D01*
X117510475Y-37402380D02*
X117319999Y-37402380D01*
X117319999Y-37402380D02*
X117224761Y-37354761D01*
X117224761Y-37354761D02*
X117177142Y-37307142D01*
X117177142Y-37307142D02*
X117129523Y-37211904D01*
X117129523Y-37211904D02*
X117129523Y-36402380D01*
X116796189Y-36402380D02*
X116224761Y-36402380D01*
X116510475Y-37402380D02*
X116510475Y-36402380D01*
X115891427Y-37402380D02*
X115891427Y-36402380D01*
X115224761Y-36402380D02*
X115034285Y-36402380D01*
X115034285Y-36402380D02*
X114939047Y-36450000D01*
X114939047Y-36450000D02*
X114843809Y-36545238D01*
X114843809Y-36545238D02*
X114796190Y-36735714D01*
X114796190Y-36735714D02*
X114796190Y-37069047D01*
X114796190Y-37069047D02*
X114843809Y-37259523D01*
X114843809Y-37259523D02*
X114939047Y-37354761D01*
X114939047Y-37354761D02*
X115034285Y-37402380D01*
X115034285Y-37402380D02*
X115224761Y-37402380D01*
X115224761Y-37402380D02*
X115319999Y-37354761D01*
X115319999Y-37354761D02*
X115415237Y-37259523D01*
X115415237Y-37259523D02*
X115462856Y-37069047D01*
X115462856Y-37069047D02*
X115462856Y-36735714D01*
X115462856Y-36735714D02*
X115415237Y-36545238D01*
X115415237Y-36545238D02*
X115319999Y-36450000D01*
X115319999Y-36450000D02*
X115224761Y-36402380D01*
X114367618Y-37402380D02*
X114367618Y-36402380D01*
X114367618Y-36402380D02*
X113796190Y-37402380D01*
X113796190Y-37402380D02*
X113796190Y-36402380D01*
X112577142Y-36402380D02*
X112577142Y-36640476D01*
X112815237Y-36545238D02*
X112577142Y-36640476D01*
X112577142Y-36640476D02*
X112339047Y-36545238D01*
X112719999Y-36830952D02*
X112577142Y-36640476D01*
X112577142Y-36640476D02*
X112434285Y-36830952D01*
X111815237Y-36402380D02*
X111815237Y-36640476D01*
X112053332Y-36545238D02*
X111815237Y-36640476D01*
X111815237Y-36640476D02*
X111577142Y-36545238D01*
X111958094Y-36830952D02*
X111815237Y-36640476D01*
X111815237Y-36640476D02*
X111672380Y-36830952D01*
X121729523Y-42214761D02*
X121586666Y-42262380D01*
X121586666Y-42262380D02*
X121348571Y-42262380D01*
X121348571Y-42262380D02*
X121253333Y-42214761D01*
X121253333Y-42214761D02*
X121205714Y-42167142D01*
X121205714Y-42167142D02*
X121158095Y-42071904D01*
X121158095Y-42071904D02*
X121158095Y-41976666D01*
X121158095Y-41976666D02*
X121205714Y-41881428D01*
X121205714Y-41881428D02*
X121253333Y-41833809D01*
X121253333Y-41833809D02*
X121348571Y-41786190D01*
X121348571Y-41786190D02*
X121539047Y-41738571D01*
X121539047Y-41738571D02*
X121634285Y-41690952D01*
X121634285Y-41690952D02*
X121681904Y-41643333D01*
X121681904Y-41643333D02*
X121729523Y-41548095D01*
X121729523Y-41548095D02*
X121729523Y-41452857D01*
X121729523Y-41452857D02*
X121681904Y-41357619D01*
X121681904Y-41357619D02*
X121634285Y-41310000D01*
X121634285Y-41310000D02*
X121539047Y-41262380D01*
X121539047Y-41262380D02*
X121300952Y-41262380D01*
X121300952Y-41262380D02*
X121158095Y-41310000D01*
X120586666Y-42262380D02*
X120681904Y-42214761D01*
X120681904Y-42214761D02*
X120729523Y-42167142D01*
X120729523Y-42167142D02*
X120777142Y-42071904D01*
X120777142Y-42071904D02*
X120777142Y-41786190D01*
X120777142Y-41786190D02*
X120729523Y-41690952D01*
X120729523Y-41690952D02*
X120681904Y-41643333D01*
X120681904Y-41643333D02*
X120586666Y-41595714D01*
X120586666Y-41595714D02*
X120443809Y-41595714D01*
X120443809Y-41595714D02*
X120348571Y-41643333D01*
X120348571Y-41643333D02*
X120300952Y-41690952D01*
X120300952Y-41690952D02*
X120253333Y-41786190D01*
X120253333Y-41786190D02*
X120253333Y-42071904D01*
X120253333Y-42071904D02*
X120300952Y-42167142D01*
X120300952Y-42167142D02*
X120348571Y-42214761D01*
X120348571Y-42214761D02*
X120443809Y-42262380D01*
X120443809Y-42262380D02*
X120586666Y-42262380D01*
X119824761Y-42262380D02*
X119824761Y-41595714D01*
X119824761Y-41690952D02*
X119777142Y-41643333D01*
X119777142Y-41643333D02*
X119681904Y-41595714D01*
X119681904Y-41595714D02*
X119539047Y-41595714D01*
X119539047Y-41595714D02*
X119443809Y-41643333D01*
X119443809Y-41643333D02*
X119396190Y-41738571D01*
X119396190Y-41738571D02*
X119396190Y-42262380D01*
X119396190Y-41738571D02*
X119348571Y-41643333D01*
X119348571Y-41643333D02*
X119253333Y-41595714D01*
X119253333Y-41595714D02*
X119110476Y-41595714D01*
X119110476Y-41595714D02*
X119015237Y-41643333D01*
X119015237Y-41643333D02*
X118967618Y-41738571D01*
X118967618Y-41738571D02*
X118967618Y-42262380D01*
X118110476Y-42214761D02*
X118205714Y-42262380D01*
X118205714Y-42262380D02*
X118396190Y-42262380D01*
X118396190Y-42262380D02*
X118491428Y-42214761D01*
X118491428Y-42214761D02*
X118539047Y-42119523D01*
X118539047Y-42119523D02*
X118539047Y-41738571D01*
X118539047Y-41738571D02*
X118491428Y-41643333D01*
X118491428Y-41643333D02*
X118396190Y-41595714D01*
X118396190Y-41595714D02*
X118205714Y-41595714D01*
X118205714Y-41595714D02*
X118110476Y-41643333D01*
X118110476Y-41643333D02*
X118062857Y-41738571D01*
X118062857Y-41738571D02*
X118062857Y-41833809D01*
X118062857Y-41833809D02*
X118539047Y-41929047D01*
X117034285Y-41262380D02*
X117034285Y-42071904D01*
X117034285Y-42071904D02*
X116986666Y-42167142D01*
X116986666Y-42167142D02*
X116939047Y-42214761D01*
X116939047Y-42214761D02*
X116843809Y-42262380D01*
X116843809Y-42262380D02*
X116653333Y-42262380D01*
X116653333Y-42262380D02*
X116558095Y-42214761D01*
X116558095Y-42214761D02*
X116510476Y-42167142D01*
X116510476Y-42167142D02*
X116462857Y-42071904D01*
X116462857Y-42071904D02*
X116462857Y-41262380D01*
X116034285Y-41976666D02*
X115558095Y-41976666D01*
X116129523Y-42262380D02*
X115796190Y-41262380D01*
X115796190Y-41262380D02*
X115462857Y-42262380D01*
X114558095Y-42262380D02*
X114891428Y-41786190D01*
X115129523Y-42262380D02*
X115129523Y-41262380D01*
X115129523Y-41262380D02*
X114748571Y-41262380D01*
X114748571Y-41262380D02*
X114653333Y-41310000D01*
X114653333Y-41310000D02*
X114605714Y-41357619D01*
X114605714Y-41357619D02*
X114558095Y-41452857D01*
X114558095Y-41452857D02*
X114558095Y-41595714D01*
X114558095Y-41595714D02*
X114605714Y-41690952D01*
X114605714Y-41690952D02*
X114653333Y-41738571D01*
X114653333Y-41738571D02*
X114748571Y-41786190D01*
X114748571Y-41786190D02*
X115129523Y-41786190D01*
X114272380Y-41262380D02*
X113700952Y-41262380D01*
X113986666Y-42262380D02*
X113986666Y-41262380D01*
X112767618Y-42262380D02*
X112767618Y-41595714D01*
X112767618Y-41690952D02*
X112719999Y-41643333D01*
X112719999Y-41643333D02*
X112624761Y-41595714D01*
X112624761Y-41595714D02*
X112481904Y-41595714D01*
X112481904Y-41595714D02*
X112386666Y-41643333D01*
X112386666Y-41643333D02*
X112339047Y-41738571D01*
X112339047Y-41738571D02*
X112339047Y-42262380D01*
X112339047Y-41738571D02*
X112291428Y-41643333D01*
X112291428Y-41643333D02*
X112196190Y-41595714D01*
X112196190Y-41595714D02*
X112053333Y-41595714D01*
X112053333Y-41595714D02*
X111958094Y-41643333D01*
X111958094Y-41643333D02*
X111910475Y-41738571D01*
X111910475Y-41738571D02*
X111910475Y-42262380D01*
X111291428Y-42262380D02*
X111386666Y-42214761D01*
X111386666Y-42214761D02*
X111434285Y-42167142D01*
X111434285Y-42167142D02*
X111481904Y-42071904D01*
X111481904Y-42071904D02*
X111481904Y-41786190D01*
X111481904Y-41786190D02*
X111434285Y-41690952D01*
X111434285Y-41690952D02*
X111386666Y-41643333D01*
X111386666Y-41643333D02*
X111291428Y-41595714D01*
X111291428Y-41595714D02*
X111148571Y-41595714D01*
X111148571Y-41595714D02*
X111053333Y-41643333D01*
X111053333Y-41643333D02*
X111005714Y-41690952D01*
X111005714Y-41690952D02*
X110958095Y-41786190D01*
X110958095Y-41786190D02*
X110958095Y-42071904D01*
X110958095Y-42071904D02*
X111005714Y-42167142D01*
X111005714Y-42167142D02*
X111053333Y-42214761D01*
X111053333Y-42214761D02*
X111148571Y-42262380D01*
X111148571Y-42262380D02*
X111291428Y-42262380D01*
X110100952Y-42262380D02*
X110100952Y-41262380D01*
X110100952Y-42214761D02*
X110196190Y-42262380D01*
X110196190Y-42262380D02*
X110386666Y-42262380D01*
X110386666Y-42262380D02*
X110481904Y-42214761D01*
X110481904Y-42214761D02*
X110529523Y-42167142D01*
X110529523Y-42167142D02*
X110577142Y-42071904D01*
X110577142Y-42071904D02*
X110577142Y-41786190D01*
X110577142Y-41786190D02*
X110529523Y-41690952D01*
X110529523Y-41690952D02*
X110481904Y-41643333D01*
X110481904Y-41643333D02*
X110386666Y-41595714D01*
X110386666Y-41595714D02*
X110196190Y-41595714D01*
X110196190Y-41595714D02*
X110100952Y-41643333D01*
X109196190Y-41595714D02*
X109196190Y-42262380D01*
X109624761Y-41595714D02*
X109624761Y-42119523D01*
X109624761Y-42119523D02*
X109577142Y-42214761D01*
X109577142Y-42214761D02*
X109481904Y-42262380D01*
X109481904Y-42262380D02*
X109339047Y-42262380D01*
X109339047Y-42262380D02*
X109243809Y-42214761D01*
X109243809Y-42214761D02*
X109196190Y-42167142D01*
X108577142Y-42262380D02*
X108672380Y-42214761D01*
X108672380Y-42214761D02*
X108719999Y-42119523D01*
X108719999Y-42119523D02*
X108719999Y-41262380D01*
X107815237Y-42214761D02*
X107910475Y-42262380D01*
X107910475Y-42262380D02*
X108100951Y-42262380D01*
X108100951Y-42262380D02*
X108196189Y-42214761D01*
X108196189Y-42214761D02*
X108243808Y-42119523D01*
X108243808Y-42119523D02*
X108243808Y-41738571D01*
X108243808Y-41738571D02*
X108196189Y-41643333D01*
X108196189Y-41643333D02*
X108100951Y-41595714D01*
X108100951Y-41595714D02*
X107910475Y-41595714D01*
X107910475Y-41595714D02*
X107815237Y-41643333D01*
X107815237Y-41643333D02*
X107767618Y-41738571D01*
X107767618Y-41738571D02*
X107767618Y-41833809D01*
X107767618Y-41833809D02*
X108243808Y-41929047D01*
X107386665Y-42214761D02*
X107291427Y-42262380D01*
X107291427Y-42262380D02*
X107100951Y-42262380D01*
X107100951Y-42262380D02*
X107005713Y-42214761D01*
X107005713Y-42214761D02*
X106958094Y-42119523D01*
X106958094Y-42119523D02*
X106958094Y-42071904D01*
X106958094Y-42071904D02*
X107005713Y-41976666D01*
X107005713Y-41976666D02*
X107100951Y-41929047D01*
X107100951Y-41929047D02*
X107243808Y-41929047D01*
X107243808Y-41929047D02*
X107339046Y-41881428D01*
X107339046Y-41881428D02*
X107386665Y-41786190D01*
X107386665Y-41786190D02*
X107386665Y-41738571D01*
X107386665Y-41738571D02*
X107339046Y-41643333D01*
X107339046Y-41643333D02*
X107243808Y-41595714D01*
X107243808Y-41595714D02*
X107100951Y-41595714D01*
X107100951Y-41595714D02*
X107005713Y-41643333D01*
X105500951Y-42262380D02*
X105500951Y-41738571D01*
X105500951Y-41738571D02*
X105548570Y-41643333D01*
X105548570Y-41643333D02*
X105643808Y-41595714D01*
X105643808Y-41595714D02*
X105834284Y-41595714D01*
X105834284Y-41595714D02*
X105929522Y-41643333D01*
X105500951Y-42214761D02*
X105596189Y-42262380D01*
X105596189Y-42262380D02*
X105834284Y-42262380D01*
X105834284Y-42262380D02*
X105929522Y-42214761D01*
X105929522Y-42214761D02*
X105977141Y-42119523D01*
X105977141Y-42119523D02*
X105977141Y-42024285D01*
X105977141Y-42024285D02*
X105929522Y-41929047D01*
X105929522Y-41929047D02*
X105834284Y-41881428D01*
X105834284Y-41881428D02*
X105596189Y-41881428D01*
X105596189Y-41881428D02*
X105500951Y-41833809D01*
X104596189Y-42262380D02*
X104596189Y-41262380D01*
X104596189Y-42214761D02*
X104691427Y-42262380D01*
X104691427Y-42262380D02*
X104881903Y-42262380D01*
X104881903Y-42262380D02*
X104977141Y-42214761D01*
X104977141Y-42214761D02*
X105024760Y-42167142D01*
X105024760Y-42167142D02*
X105072379Y-42071904D01*
X105072379Y-42071904D02*
X105072379Y-41786190D01*
X105072379Y-41786190D02*
X105024760Y-41690952D01*
X105024760Y-41690952D02*
X104977141Y-41643333D01*
X104977141Y-41643333D02*
X104881903Y-41595714D01*
X104881903Y-41595714D02*
X104691427Y-41595714D01*
X104691427Y-41595714D02*
X104596189Y-41643333D01*
X104215236Y-41595714D02*
X103977141Y-42262380D01*
X103977141Y-42262380D02*
X103739046Y-41595714D01*
X102977141Y-42214761D02*
X103072379Y-42262380D01*
X103072379Y-42262380D02*
X103262855Y-42262380D01*
X103262855Y-42262380D02*
X103358093Y-42214761D01*
X103358093Y-42214761D02*
X103405712Y-42119523D01*
X103405712Y-42119523D02*
X103405712Y-41738571D01*
X103405712Y-41738571D02*
X103358093Y-41643333D01*
X103358093Y-41643333D02*
X103262855Y-41595714D01*
X103262855Y-41595714D02*
X103072379Y-41595714D01*
X103072379Y-41595714D02*
X102977141Y-41643333D01*
X102977141Y-41643333D02*
X102929522Y-41738571D01*
X102929522Y-41738571D02*
X102929522Y-41833809D01*
X102929522Y-41833809D02*
X103405712Y-41929047D01*
X102500950Y-42262380D02*
X102500950Y-41595714D01*
X102500950Y-41786190D02*
X102453331Y-41690952D01*
X102453331Y-41690952D02*
X102405712Y-41643333D01*
X102405712Y-41643333D02*
X102310474Y-41595714D01*
X102310474Y-41595714D02*
X102215236Y-41595714D01*
X102024759Y-41595714D02*
X101643807Y-41595714D01*
X101881902Y-41262380D02*
X101881902Y-42119523D01*
X101881902Y-42119523D02*
X101834283Y-42214761D01*
X101834283Y-42214761D02*
X101739045Y-42262380D01*
X101739045Y-42262380D02*
X101643807Y-42262380D01*
X101310473Y-42262380D02*
X101310473Y-41595714D01*
X101310473Y-41262380D02*
X101358092Y-41310000D01*
X101358092Y-41310000D02*
X101310473Y-41357619D01*
X101310473Y-41357619D02*
X101262854Y-41310000D01*
X101262854Y-41310000D02*
X101310473Y-41262380D01*
X101310473Y-41262380D02*
X101310473Y-41357619D01*
X100881902Y-42214761D02*
X100786664Y-42262380D01*
X100786664Y-42262380D02*
X100596188Y-42262380D01*
X100596188Y-42262380D02*
X100500950Y-42214761D01*
X100500950Y-42214761D02*
X100453331Y-42119523D01*
X100453331Y-42119523D02*
X100453331Y-42071904D01*
X100453331Y-42071904D02*
X100500950Y-41976666D01*
X100500950Y-41976666D02*
X100596188Y-41929047D01*
X100596188Y-41929047D02*
X100739045Y-41929047D01*
X100739045Y-41929047D02*
X100834283Y-41881428D01*
X100834283Y-41881428D02*
X100881902Y-41786190D01*
X100881902Y-41786190D02*
X100881902Y-41738571D01*
X100881902Y-41738571D02*
X100834283Y-41643333D01*
X100834283Y-41643333D02*
X100739045Y-41595714D01*
X100739045Y-41595714D02*
X100596188Y-41595714D01*
X100596188Y-41595714D02*
X100500950Y-41643333D01*
X99643807Y-42214761D02*
X99739045Y-42262380D01*
X99739045Y-42262380D02*
X99929521Y-42262380D01*
X99929521Y-42262380D02*
X100024759Y-42214761D01*
X100024759Y-42214761D02*
X100072378Y-42119523D01*
X100072378Y-42119523D02*
X100072378Y-41738571D01*
X100072378Y-41738571D02*
X100024759Y-41643333D01*
X100024759Y-41643333D02*
X99929521Y-41595714D01*
X99929521Y-41595714D02*
X99739045Y-41595714D01*
X99739045Y-41595714D02*
X99643807Y-41643333D01*
X99643807Y-41643333D02*
X99596188Y-41738571D01*
X99596188Y-41738571D02*
X99596188Y-41833809D01*
X99596188Y-41833809D02*
X100072378Y-41929047D01*
X98739045Y-42262380D02*
X98739045Y-41262380D01*
X98739045Y-42214761D02*
X98834283Y-42262380D01*
X98834283Y-42262380D02*
X99024759Y-42262380D01*
X99024759Y-42262380D02*
X99119997Y-42214761D01*
X99119997Y-42214761D02*
X99167616Y-42167142D01*
X99167616Y-42167142D02*
X99215235Y-42071904D01*
X99215235Y-42071904D02*
X99215235Y-41786190D01*
X99215235Y-41786190D02*
X99167616Y-41690952D01*
X99167616Y-41690952D02*
X99119997Y-41643333D01*
X99119997Y-41643333D02*
X99024759Y-41595714D01*
X99024759Y-41595714D02*
X98834283Y-41595714D01*
X98834283Y-41595714D02*
X98739045Y-41643333D01*
X97234283Y-42262380D02*
X97234283Y-41738571D01*
X97234283Y-41738571D02*
X97281902Y-41643333D01*
X97281902Y-41643333D02*
X97377140Y-41595714D01*
X97377140Y-41595714D02*
X97567616Y-41595714D01*
X97567616Y-41595714D02*
X97662854Y-41643333D01*
X97234283Y-42214761D02*
X97329521Y-42262380D01*
X97329521Y-42262380D02*
X97567616Y-42262380D01*
X97567616Y-42262380D02*
X97662854Y-42214761D01*
X97662854Y-42214761D02*
X97710473Y-42119523D01*
X97710473Y-42119523D02*
X97710473Y-42024285D01*
X97710473Y-42024285D02*
X97662854Y-41929047D01*
X97662854Y-41929047D02*
X97567616Y-41881428D01*
X97567616Y-41881428D02*
X97329521Y-41881428D01*
X97329521Y-41881428D02*
X97234283Y-41833809D01*
X96805711Y-42214761D02*
X96710473Y-42262380D01*
X96710473Y-42262380D02*
X96519997Y-42262380D01*
X96519997Y-42262380D02*
X96424759Y-42214761D01*
X96424759Y-42214761D02*
X96377140Y-42119523D01*
X96377140Y-42119523D02*
X96377140Y-42071904D01*
X96377140Y-42071904D02*
X96424759Y-41976666D01*
X96424759Y-41976666D02*
X96519997Y-41929047D01*
X96519997Y-41929047D02*
X96662854Y-41929047D01*
X96662854Y-41929047D02*
X96758092Y-41881428D01*
X96758092Y-41881428D02*
X96805711Y-41786190D01*
X96805711Y-41786190D02*
X96805711Y-41738571D01*
X96805711Y-41738571D02*
X96758092Y-41643333D01*
X96758092Y-41643333D02*
X96662854Y-41595714D01*
X96662854Y-41595714D02*
X96519997Y-41595714D01*
X96519997Y-41595714D02*
X96424759Y-41643333D01*
X94872378Y-41262380D02*
X95348568Y-41262380D01*
X95348568Y-41262380D02*
X95396187Y-41738571D01*
X95396187Y-41738571D02*
X95348568Y-41690952D01*
X95348568Y-41690952D02*
X95253330Y-41643333D01*
X95253330Y-41643333D02*
X95015235Y-41643333D01*
X95015235Y-41643333D02*
X94919997Y-41690952D01*
X94919997Y-41690952D02*
X94872378Y-41738571D01*
X94872378Y-41738571D02*
X94824759Y-41833809D01*
X94824759Y-41833809D02*
X94824759Y-42071904D01*
X94824759Y-42071904D02*
X94872378Y-42167142D01*
X94872378Y-42167142D02*
X94919997Y-42214761D01*
X94919997Y-42214761D02*
X95015235Y-42262380D01*
X95015235Y-42262380D02*
X95253330Y-42262380D01*
X95253330Y-42262380D02*
X95348568Y-42214761D01*
X95348568Y-42214761D02*
X95396187Y-42167142D01*
X94539044Y-41262380D02*
X94205711Y-42262380D01*
X94205711Y-42262380D02*
X93872378Y-41262380D01*
X92796187Y-42262380D02*
X92891425Y-42214761D01*
X92891425Y-42214761D02*
X92939044Y-42167142D01*
X92939044Y-42167142D02*
X92986663Y-42071904D01*
X92986663Y-42071904D02*
X92986663Y-41786190D01*
X92986663Y-41786190D02*
X92939044Y-41690952D01*
X92939044Y-41690952D02*
X92891425Y-41643333D01*
X92891425Y-41643333D02*
X92796187Y-41595714D01*
X92796187Y-41595714D02*
X92653330Y-41595714D01*
X92653330Y-41595714D02*
X92558092Y-41643333D01*
X92558092Y-41643333D02*
X92510473Y-41690952D01*
X92510473Y-41690952D02*
X92462854Y-41786190D01*
X92462854Y-41786190D02*
X92462854Y-42071904D01*
X92462854Y-42071904D02*
X92510473Y-42167142D01*
X92510473Y-42167142D02*
X92558092Y-42214761D01*
X92558092Y-42214761D02*
X92653330Y-42262380D01*
X92653330Y-42262380D02*
X92796187Y-42262380D01*
X92034282Y-42262380D02*
X92034282Y-41595714D01*
X92034282Y-41786190D02*
X91986663Y-41690952D01*
X91986663Y-41690952D02*
X91939044Y-41643333D01*
X91939044Y-41643333D02*
X91843806Y-41595714D01*
X91843806Y-41595714D02*
X91748568Y-41595714D01*
X90910472Y-41595714D02*
X90719996Y-42262380D01*
X90719996Y-42262380D02*
X90529520Y-41786190D01*
X90529520Y-41786190D02*
X90339044Y-42262380D01*
X90339044Y-42262380D02*
X90148568Y-41595714D01*
X89767615Y-42262380D02*
X89767615Y-41595714D01*
X89767615Y-41262380D02*
X89815234Y-41310000D01*
X89815234Y-41310000D02*
X89767615Y-41357619D01*
X89767615Y-41357619D02*
X89719996Y-41310000D01*
X89719996Y-41310000D02*
X89767615Y-41262380D01*
X89767615Y-41262380D02*
X89767615Y-41357619D01*
X89434282Y-41595714D02*
X89053330Y-41595714D01*
X89291425Y-41262380D02*
X89291425Y-42119523D01*
X89291425Y-42119523D02*
X89243806Y-42214761D01*
X89243806Y-42214761D02*
X89148568Y-42262380D01*
X89148568Y-42262380D02*
X89053330Y-42262380D01*
X88719996Y-42262380D02*
X88719996Y-41262380D01*
X88291425Y-42262380D02*
X88291425Y-41738571D01*
X88291425Y-41738571D02*
X88339044Y-41643333D01*
X88339044Y-41643333D02*
X88434282Y-41595714D01*
X88434282Y-41595714D02*
X88577139Y-41595714D01*
X88577139Y-41595714D02*
X88672377Y-41643333D01*
X88672377Y-41643333D02*
X88719996Y-41690952D01*
X86786663Y-42262380D02*
X86786663Y-41738571D01*
X86786663Y-41738571D02*
X86834282Y-41643333D01*
X86834282Y-41643333D02*
X86929520Y-41595714D01*
X86929520Y-41595714D02*
X87119996Y-41595714D01*
X87119996Y-41595714D02*
X87215234Y-41643333D01*
X86786663Y-42214761D02*
X86881901Y-42262380D01*
X86881901Y-42262380D02*
X87119996Y-42262380D01*
X87119996Y-42262380D02*
X87215234Y-42214761D01*
X87215234Y-42214761D02*
X87262853Y-42119523D01*
X87262853Y-42119523D02*
X87262853Y-42024285D01*
X87262853Y-42024285D02*
X87215234Y-41929047D01*
X87215234Y-41929047D02*
X87119996Y-41881428D01*
X87119996Y-41881428D02*
X86881901Y-41881428D01*
X86881901Y-41881428D02*
X86786663Y-41833809D01*
X85710472Y-41595714D02*
X85710472Y-42452857D01*
X85710472Y-42452857D02*
X85758091Y-42548095D01*
X85758091Y-42548095D02*
X85853329Y-42595714D01*
X85853329Y-42595714D02*
X85900948Y-42595714D01*
X85710472Y-41262380D02*
X85758091Y-41310000D01*
X85758091Y-41310000D02*
X85710472Y-41357619D01*
X85710472Y-41357619D02*
X85662853Y-41310000D01*
X85662853Y-41310000D02*
X85710472Y-41262380D01*
X85710472Y-41262380D02*
X85710472Y-41357619D01*
X84805711Y-41595714D02*
X84805711Y-42262380D01*
X85234282Y-41595714D02*
X85234282Y-42119523D01*
X85234282Y-42119523D02*
X85186663Y-42214761D01*
X85186663Y-42214761D02*
X85091425Y-42262380D01*
X85091425Y-42262380D02*
X84948568Y-42262380D01*
X84948568Y-42262380D02*
X84853330Y-42214761D01*
X84853330Y-42214761D02*
X84805711Y-42167142D01*
X84329520Y-42262380D02*
X84329520Y-41595714D01*
X84329520Y-41690952D02*
X84281901Y-41643333D01*
X84281901Y-41643333D02*
X84186663Y-41595714D01*
X84186663Y-41595714D02*
X84043806Y-41595714D01*
X84043806Y-41595714D02*
X83948568Y-41643333D01*
X83948568Y-41643333D02*
X83900949Y-41738571D01*
X83900949Y-41738571D02*
X83900949Y-42262380D01*
X83900949Y-41738571D02*
X83853330Y-41643333D01*
X83853330Y-41643333D02*
X83758092Y-41595714D01*
X83758092Y-41595714D02*
X83615235Y-41595714D01*
X83615235Y-41595714D02*
X83519996Y-41643333D01*
X83519996Y-41643333D02*
X83472377Y-41738571D01*
X83472377Y-41738571D02*
X83472377Y-42262380D01*
X82996187Y-41595714D02*
X82996187Y-42595714D01*
X82996187Y-41643333D02*
X82900949Y-41595714D01*
X82900949Y-41595714D02*
X82710473Y-41595714D01*
X82710473Y-41595714D02*
X82615235Y-41643333D01*
X82615235Y-41643333D02*
X82567616Y-41690952D01*
X82567616Y-41690952D02*
X82519997Y-41786190D01*
X82519997Y-41786190D02*
X82519997Y-42071904D01*
X82519997Y-42071904D02*
X82567616Y-42167142D01*
X82567616Y-42167142D02*
X82615235Y-42214761D01*
X82615235Y-42214761D02*
X82710473Y-42262380D01*
X82710473Y-42262380D02*
X82900949Y-42262380D01*
X82900949Y-42262380D02*
X82996187Y-42214761D01*
X81710473Y-42214761D02*
X81805711Y-42262380D01*
X81805711Y-42262380D02*
X81996187Y-42262380D01*
X81996187Y-42262380D02*
X82091425Y-42214761D01*
X82091425Y-42214761D02*
X82139044Y-42119523D01*
X82139044Y-42119523D02*
X82139044Y-41738571D01*
X82139044Y-41738571D02*
X82091425Y-41643333D01*
X82091425Y-41643333D02*
X81996187Y-41595714D01*
X81996187Y-41595714D02*
X81805711Y-41595714D01*
X81805711Y-41595714D02*
X81710473Y-41643333D01*
X81710473Y-41643333D02*
X81662854Y-41738571D01*
X81662854Y-41738571D02*
X81662854Y-41833809D01*
X81662854Y-41833809D02*
X82139044Y-41929047D01*
X81234282Y-42262380D02*
X81234282Y-41595714D01*
X81234282Y-41786190D02*
X81186663Y-41690952D01*
X81186663Y-41690952D02*
X81139044Y-41643333D01*
X81139044Y-41643333D02*
X81043806Y-41595714D01*
X81043806Y-41595714D02*
X80948568Y-41595714D01*
X80158091Y-41595714D02*
X79777139Y-41595714D01*
X80015234Y-41262380D02*
X80015234Y-42119523D01*
X80015234Y-42119523D02*
X79967615Y-42214761D01*
X79967615Y-42214761D02*
X79872377Y-42262380D01*
X79872377Y-42262380D02*
X79777139Y-42262380D01*
X79300948Y-42262380D02*
X79396186Y-42214761D01*
X79396186Y-42214761D02*
X79443805Y-42167142D01*
X79443805Y-42167142D02*
X79491424Y-42071904D01*
X79491424Y-42071904D02*
X79491424Y-41786190D01*
X79491424Y-41786190D02*
X79443805Y-41690952D01*
X79443805Y-41690952D02*
X79396186Y-41643333D01*
X79396186Y-41643333D02*
X79300948Y-41595714D01*
X79300948Y-41595714D02*
X79158091Y-41595714D01*
X79158091Y-41595714D02*
X79062853Y-41643333D01*
X79062853Y-41643333D02*
X79015234Y-41690952D01*
X79015234Y-41690952D02*
X78967615Y-41786190D01*
X78967615Y-41786190D02*
X78967615Y-42071904D01*
X78967615Y-42071904D02*
X79015234Y-42167142D01*
X79015234Y-42167142D02*
X79062853Y-42214761D01*
X79062853Y-42214761D02*
X79158091Y-42262380D01*
X79158091Y-42262380D02*
X79300948Y-42262380D01*
X77462853Y-41262380D02*
X77939043Y-41262380D01*
X77939043Y-41262380D02*
X77986662Y-41738571D01*
X77986662Y-41738571D02*
X77939043Y-41690952D01*
X77939043Y-41690952D02*
X77843805Y-41643333D01*
X77843805Y-41643333D02*
X77605710Y-41643333D01*
X77605710Y-41643333D02*
X77510472Y-41690952D01*
X77510472Y-41690952D02*
X77462853Y-41738571D01*
X77462853Y-41738571D02*
X77415234Y-41833809D01*
X77415234Y-41833809D02*
X77415234Y-42071904D01*
X77415234Y-42071904D02*
X77462853Y-42167142D01*
X77462853Y-42167142D02*
X77510472Y-42214761D01*
X77510472Y-42214761D02*
X77605710Y-42262380D01*
X77605710Y-42262380D02*
X77843805Y-42262380D01*
X77843805Y-42262380D02*
X77939043Y-42214761D01*
X77939043Y-42214761D02*
X77986662Y-42167142D01*
X77129519Y-41262380D02*
X76796186Y-42262380D01*
X76796186Y-42262380D02*
X76462853Y-41262380D01*
X75100948Y-42262380D02*
X75100948Y-41262380D01*
X75100948Y-42214761D02*
X75196186Y-42262380D01*
X75196186Y-42262380D02*
X75386662Y-42262380D01*
X75386662Y-42262380D02*
X75481900Y-42214761D01*
X75481900Y-42214761D02*
X75529519Y-42167142D01*
X75529519Y-42167142D02*
X75577138Y-42071904D01*
X75577138Y-42071904D02*
X75577138Y-41786190D01*
X75577138Y-41786190D02*
X75529519Y-41690952D01*
X75529519Y-41690952D02*
X75481900Y-41643333D01*
X75481900Y-41643333D02*
X75386662Y-41595714D01*
X75386662Y-41595714D02*
X75196186Y-41595714D01*
X75196186Y-41595714D02*
X75100948Y-41643333D01*
X74481900Y-42262380D02*
X74577138Y-42214761D01*
X74577138Y-42214761D02*
X74624757Y-42167142D01*
X74624757Y-42167142D02*
X74672376Y-42071904D01*
X74672376Y-42071904D02*
X74672376Y-41786190D01*
X74672376Y-41786190D02*
X74624757Y-41690952D01*
X74624757Y-41690952D02*
X74577138Y-41643333D01*
X74577138Y-41643333D02*
X74481900Y-41595714D01*
X74481900Y-41595714D02*
X74339043Y-41595714D01*
X74339043Y-41595714D02*
X74243805Y-41643333D01*
X74243805Y-41643333D02*
X74196186Y-41690952D01*
X74196186Y-41690952D02*
X74148567Y-41786190D01*
X74148567Y-41786190D02*
X74148567Y-42071904D01*
X74148567Y-42071904D02*
X74196186Y-42167142D01*
X74196186Y-42167142D02*
X74243805Y-42214761D01*
X74243805Y-42214761D02*
X74339043Y-42262380D01*
X74339043Y-42262380D02*
X74481900Y-42262380D01*
X73119995Y-42262380D02*
X73119995Y-41262380D01*
X73119995Y-41262380D02*
X72548567Y-42262380D01*
X72548567Y-42262380D02*
X72548567Y-41262380D01*
X71881900Y-41262380D02*
X71691424Y-41262380D01*
X71691424Y-41262380D02*
X71596186Y-41310000D01*
X71596186Y-41310000D02*
X71500948Y-41405238D01*
X71500948Y-41405238D02*
X71453329Y-41595714D01*
X71453329Y-41595714D02*
X71453329Y-41929047D01*
X71453329Y-41929047D02*
X71500948Y-42119523D01*
X71500948Y-42119523D02*
X71596186Y-42214761D01*
X71596186Y-42214761D02*
X71691424Y-42262380D01*
X71691424Y-42262380D02*
X71881900Y-42262380D01*
X71881900Y-42262380D02*
X71977138Y-42214761D01*
X71977138Y-42214761D02*
X72072376Y-42119523D01*
X72072376Y-42119523D02*
X72119995Y-41929047D01*
X72119995Y-41929047D02*
X72119995Y-41595714D01*
X72119995Y-41595714D02*
X72072376Y-41405238D01*
X72072376Y-41405238D02*
X71977138Y-41310000D01*
X71977138Y-41310000D02*
X71881900Y-41262380D01*
X71167614Y-41262380D02*
X70596186Y-41262380D01*
X70881900Y-42262380D02*
X70881900Y-41262380D01*
X69710471Y-42214761D02*
X69615233Y-42262380D01*
X69615233Y-42262380D02*
X69424757Y-42262380D01*
X69424757Y-42262380D02*
X69329519Y-42214761D01*
X69329519Y-42214761D02*
X69281900Y-42119523D01*
X69281900Y-42119523D02*
X69281900Y-42071904D01*
X69281900Y-42071904D02*
X69329519Y-41976666D01*
X69329519Y-41976666D02*
X69424757Y-41929047D01*
X69424757Y-41929047D02*
X69567614Y-41929047D01*
X69567614Y-41929047D02*
X69662852Y-41881428D01*
X69662852Y-41881428D02*
X69710471Y-41786190D01*
X69710471Y-41786190D02*
X69710471Y-41738571D01*
X69710471Y-41738571D02*
X69662852Y-41643333D01*
X69662852Y-41643333D02*
X69567614Y-41595714D01*
X69567614Y-41595714D02*
X69424757Y-41595714D01*
X69424757Y-41595714D02*
X69329519Y-41643333D01*
X68853328Y-42262380D02*
X68853328Y-41262380D01*
X68424757Y-42262380D02*
X68424757Y-41738571D01*
X68424757Y-41738571D02*
X68472376Y-41643333D01*
X68472376Y-41643333D02*
X68567614Y-41595714D01*
X68567614Y-41595714D02*
X68710471Y-41595714D01*
X68710471Y-41595714D02*
X68805709Y-41643333D01*
X68805709Y-41643333D02*
X68853328Y-41690952D01*
X67948566Y-42262380D02*
X67948566Y-41595714D01*
X67948566Y-41262380D02*
X67996185Y-41310000D01*
X67996185Y-41310000D02*
X67948566Y-41357619D01*
X67948566Y-41357619D02*
X67900947Y-41310000D01*
X67900947Y-41310000D02*
X67948566Y-41262380D01*
X67948566Y-41262380D02*
X67948566Y-41357619D01*
X67615233Y-41595714D02*
X67234281Y-41595714D01*
X67472376Y-42262380D02*
X67472376Y-41405238D01*
X67472376Y-41405238D02*
X67424757Y-41310000D01*
X67424757Y-41310000D02*
X67329519Y-41262380D01*
X67329519Y-41262380D02*
X67234281Y-41262380D01*
X67043804Y-41595714D02*
X66662852Y-41595714D01*
X66900947Y-41262380D02*
X66900947Y-42119523D01*
X66900947Y-42119523D02*
X66853328Y-42214761D01*
X66853328Y-42214761D02*
X66758090Y-42262380D01*
X66758090Y-42262380D02*
X66662852Y-42262380D01*
X65872375Y-41595714D02*
X65491423Y-41595714D01*
X65729518Y-41262380D02*
X65729518Y-42119523D01*
X65729518Y-42119523D02*
X65681899Y-42214761D01*
X65681899Y-42214761D02*
X65586661Y-42262380D01*
X65586661Y-42262380D02*
X65491423Y-42262380D01*
X65158089Y-42262380D02*
X65158089Y-41262380D01*
X64729518Y-42262380D02*
X64729518Y-41738571D01*
X64729518Y-41738571D02*
X64777137Y-41643333D01*
X64777137Y-41643333D02*
X64872375Y-41595714D01*
X64872375Y-41595714D02*
X65015232Y-41595714D01*
X65015232Y-41595714D02*
X65110470Y-41643333D01*
X65110470Y-41643333D02*
X65158089Y-41690952D01*
X63872375Y-42214761D02*
X63967613Y-42262380D01*
X63967613Y-42262380D02*
X64158089Y-42262380D01*
X64158089Y-42262380D02*
X64253327Y-42214761D01*
X64253327Y-42214761D02*
X64300946Y-42119523D01*
X64300946Y-42119523D02*
X64300946Y-41738571D01*
X64300946Y-41738571D02*
X64253327Y-41643333D01*
X64253327Y-41643333D02*
X64158089Y-41595714D01*
X64158089Y-41595714D02*
X63967613Y-41595714D01*
X63967613Y-41595714D02*
X63872375Y-41643333D01*
X63872375Y-41643333D02*
X63824756Y-41738571D01*
X63824756Y-41738571D02*
X63824756Y-41833809D01*
X63824756Y-41833809D02*
X64300946Y-41929047D01*
X62796184Y-41595714D02*
X62796184Y-42595714D01*
X62796184Y-41643333D02*
X62700946Y-41595714D01*
X62700946Y-41595714D02*
X62510470Y-41595714D01*
X62510470Y-41595714D02*
X62415232Y-41643333D01*
X62415232Y-41643333D02*
X62367613Y-41690952D01*
X62367613Y-41690952D02*
X62319994Y-41786190D01*
X62319994Y-41786190D02*
X62319994Y-42071904D01*
X62319994Y-42071904D02*
X62367613Y-42167142D01*
X62367613Y-42167142D02*
X62415232Y-42214761D01*
X62415232Y-42214761D02*
X62510470Y-42262380D01*
X62510470Y-42262380D02*
X62700946Y-42262380D01*
X62700946Y-42262380D02*
X62796184Y-42214761D01*
X61748565Y-42262380D02*
X61843803Y-42214761D01*
X61843803Y-42214761D02*
X61891422Y-42167142D01*
X61891422Y-42167142D02*
X61939041Y-42071904D01*
X61939041Y-42071904D02*
X61939041Y-41786190D01*
X61939041Y-41786190D02*
X61891422Y-41690952D01*
X61891422Y-41690952D02*
X61843803Y-41643333D01*
X61843803Y-41643333D02*
X61748565Y-41595714D01*
X61748565Y-41595714D02*
X61605708Y-41595714D01*
X61605708Y-41595714D02*
X61510470Y-41643333D01*
X61510470Y-41643333D02*
X61462851Y-41690952D01*
X61462851Y-41690952D02*
X61415232Y-41786190D01*
X61415232Y-41786190D02*
X61415232Y-42071904D01*
X61415232Y-42071904D02*
X61462851Y-42167142D01*
X61462851Y-42167142D02*
X61510470Y-42214761D01*
X61510470Y-42214761D02*
X61605708Y-42262380D01*
X61605708Y-42262380D02*
X61748565Y-42262380D01*
X61081898Y-41595714D02*
X60891422Y-42262380D01*
X60891422Y-42262380D02*
X60700946Y-41786190D01*
X60700946Y-41786190D02*
X60510470Y-42262380D01*
X60510470Y-42262380D02*
X60319994Y-41595714D01*
X59558089Y-42214761D02*
X59653327Y-42262380D01*
X59653327Y-42262380D02*
X59843803Y-42262380D01*
X59843803Y-42262380D02*
X59939041Y-42214761D01*
X59939041Y-42214761D02*
X59986660Y-42119523D01*
X59986660Y-42119523D02*
X59986660Y-41738571D01*
X59986660Y-41738571D02*
X59939041Y-41643333D01*
X59939041Y-41643333D02*
X59843803Y-41595714D01*
X59843803Y-41595714D02*
X59653327Y-41595714D01*
X59653327Y-41595714D02*
X59558089Y-41643333D01*
X59558089Y-41643333D02*
X59510470Y-41738571D01*
X59510470Y-41738571D02*
X59510470Y-41833809D01*
X59510470Y-41833809D02*
X59986660Y-41929047D01*
X59081898Y-42262380D02*
X59081898Y-41595714D01*
X59081898Y-41786190D02*
X59034279Y-41690952D01*
X59034279Y-41690952D02*
X58986660Y-41643333D01*
X58986660Y-41643333D02*
X58891422Y-41595714D01*
X58891422Y-41595714D02*
X58796184Y-41595714D01*
X57719993Y-42262380D02*
X57815231Y-42214761D01*
X57815231Y-42214761D02*
X57862850Y-42119523D01*
X57862850Y-42119523D02*
X57862850Y-41262380D01*
X56958088Y-42214761D02*
X57053326Y-42262380D01*
X57053326Y-42262380D02*
X57243802Y-42262380D01*
X57243802Y-42262380D02*
X57339040Y-42214761D01*
X57339040Y-42214761D02*
X57386659Y-42119523D01*
X57386659Y-42119523D02*
X57386659Y-41738571D01*
X57386659Y-41738571D02*
X57339040Y-41643333D01*
X57339040Y-41643333D02*
X57243802Y-41595714D01*
X57243802Y-41595714D02*
X57053326Y-41595714D01*
X57053326Y-41595714D02*
X56958088Y-41643333D01*
X56958088Y-41643333D02*
X56910469Y-41738571D01*
X56910469Y-41738571D02*
X56910469Y-41833809D01*
X56910469Y-41833809D02*
X57386659Y-41929047D01*
X56577135Y-41595714D02*
X56339040Y-42262380D01*
X56339040Y-42262380D02*
X56100945Y-41595714D01*
X55339040Y-42214761D02*
X55434278Y-42262380D01*
X55434278Y-42262380D02*
X55624754Y-42262380D01*
X55624754Y-42262380D02*
X55719992Y-42214761D01*
X55719992Y-42214761D02*
X55767611Y-42119523D01*
X55767611Y-42119523D02*
X55767611Y-41738571D01*
X55767611Y-41738571D02*
X55719992Y-41643333D01*
X55719992Y-41643333D02*
X55624754Y-41595714D01*
X55624754Y-41595714D02*
X55434278Y-41595714D01*
X55434278Y-41595714D02*
X55339040Y-41643333D01*
X55339040Y-41643333D02*
X55291421Y-41738571D01*
X55291421Y-41738571D02*
X55291421Y-41833809D01*
X55291421Y-41833809D02*
X55767611Y-41929047D01*
X54719992Y-42262380D02*
X54815230Y-42214761D01*
X54815230Y-42214761D02*
X54862849Y-42119523D01*
X54862849Y-42119523D02*
X54862849Y-41262380D01*
X54386658Y-42214761D02*
X54291420Y-42262380D01*
X54291420Y-42262380D02*
X54100944Y-42262380D01*
X54100944Y-42262380D02*
X54005706Y-42214761D01*
X54005706Y-42214761D02*
X53958087Y-42119523D01*
X53958087Y-42119523D02*
X53958087Y-42071904D01*
X53958087Y-42071904D02*
X54005706Y-41976666D01*
X54005706Y-41976666D02*
X54100944Y-41929047D01*
X54100944Y-41929047D02*
X54243801Y-41929047D01*
X54243801Y-41929047D02*
X54339039Y-41881428D01*
X54339039Y-41881428D02*
X54386658Y-41786190D01*
X54386658Y-41786190D02*
X54386658Y-41738571D01*
X54386658Y-41738571D02*
X54339039Y-41643333D01*
X54339039Y-41643333D02*
X54243801Y-41595714D01*
X54243801Y-41595714D02*
X54100944Y-41595714D01*
X54100944Y-41595714D02*
X54005706Y-41643333D01*
X53072372Y-41595714D02*
X52691420Y-41595714D01*
X52929515Y-42262380D02*
X52929515Y-41405238D01*
X52929515Y-41405238D02*
X52881896Y-41310000D01*
X52881896Y-41310000D02*
X52786658Y-41262380D01*
X52786658Y-41262380D02*
X52691420Y-41262380D01*
X52215229Y-42262380D02*
X52310467Y-42214761D01*
X52310467Y-42214761D02*
X52358086Y-42167142D01*
X52358086Y-42167142D02*
X52405705Y-42071904D01*
X52405705Y-42071904D02*
X52405705Y-41786190D01*
X52405705Y-41786190D02*
X52358086Y-41690952D01*
X52358086Y-41690952D02*
X52310467Y-41643333D01*
X52310467Y-41643333D02*
X52215229Y-41595714D01*
X52215229Y-41595714D02*
X52072372Y-41595714D01*
X52072372Y-41595714D02*
X51977134Y-41643333D01*
X51977134Y-41643333D02*
X51929515Y-41690952D01*
X51929515Y-41690952D02*
X51881896Y-41786190D01*
X51881896Y-41786190D02*
X51881896Y-42071904D01*
X51881896Y-42071904D02*
X51929515Y-42167142D01*
X51929515Y-42167142D02*
X51977134Y-42214761D01*
X51977134Y-42214761D02*
X52072372Y-42262380D01*
X52072372Y-42262380D02*
X52215229Y-42262380D01*
X51453324Y-42262380D02*
X51453324Y-41595714D01*
X51453324Y-41786190D02*
X51405705Y-41690952D01*
X51405705Y-41690952D02*
X51358086Y-41643333D01*
X51358086Y-41643333D02*
X51262848Y-41595714D01*
X51262848Y-41595714D02*
X51167610Y-41595714D01*
X50234276Y-41262380D02*
X50234276Y-42071904D01*
X50234276Y-42071904D02*
X50186657Y-42167142D01*
X50186657Y-42167142D02*
X50139038Y-42214761D01*
X50139038Y-42214761D02*
X50043800Y-42262380D01*
X50043800Y-42262380D02*
X49853324Y-42262380D01*
X49853324Y-42262380D02*
X49758086Y-42214761D01*
X49758086Y-42214761D02*
X49710467Y-42167142D01*
X49710467Y-42167142D02*
X49662848Y-42071904D01*
X49662848Y-42071904D02*
X49662848Y-41262380D01*
X49234276Y-41976666D02*
X48758086Y-41976666D01*
X49329514Y-42262380D02*
X48996181Y-41262380D01*
X48996181Y-41262380D02*
X48662848Y-42262380D01*
X47758086Y-42262380D02*
X48091419Y-41786190D01*
X48329514Y-42262380D02*
X48329514Y-41262380D01*
X48329514Y-41262380D02*
X47948562Y-41262380D01*
X47948562Y-41262380D02*
X47853324Y-41310000D01*
X47853324Y-41310000D02*
X47805705Y-41357619D01*
X47805705Y-41357619D02*
X47758086Y-41452857D01*
X47758086Y-41452857D02*
X47758086Y-41595714D01*
X47758086Y-41595714D02*
X47805705Y-41690952D01*
X47805705Y-41690952D02*
X47853324Y-41738571D01*
X47853324Y-41738571D02*
X47948562Y-41786190D01*
X47948562Y-41786190D02*
X48329514Y-41786190D01*
X47472371Y-41262380D02*
X46900943Y-41262380D01*
X47186657Y-42262380D02*
X47186657Y-41262380D01*
X46110466Y-41262380D02*
X45539038Y-41262380D01*
X45824752Y-42262380D02*
X45824752Y-41262380D01*
X45300942Y-41262380D02*
X44634276Y-42262380D01*
X44634276Y-41262380D02*
X45300942Y-42262380D01*
X43539038Y-41214761D02*
X44396180Y-42500476D01*
X42634276Y-42262380D02*
X42967609Y-41786190D01*
X43205704Y-42262380D02*
X43205704Y-41262380D01*
X43205704Y-41262380D02*
X42824752Y-41262380D01*
X42824752Y-41262380D02*
X42729514Y-41310000D01*
X42729514Y-41310000D02*
X42681895Y-41357619D01*
X42681895Y-41357619D02*
X42634276Y-41452857D01*
X42634276Y-41452857D02*
X42634276Y-41595714D01*
X42634276Y-41595714D02*
X42681895Y-41690952D01*
X42681895Y-41690952D02*
X42729514Y-41738571D01*
X42729514Y-41738571D02*
X42824752Y-41786190D01*
X42824752Y-41786190D02*
X43205704Y-41786190D01*
X42300942Y-41262380D02*
X41634276Y-42262380D01*
X41634276Y-41262380D02*
X42300942Y-42262380D01*
X121777142Y-43215714D02*
X121586666Y-43882380D01*
X121586666Y-43882380D02*
X121396190Y-43406190D01*
X121396190Y-43406190D02*
X121205714Y-43882380D01*
X121205714Y-43882380D02*
X121015238Y-43215714D01*
X120634285Y-43882380D02*
X120634285Y-42882380D01*
X120205714Y-43882380D02*
X120205714Y-43358571D01*
X120205714Y-43358571D02*
X120253333Y-43263333D01*
X120253333Y-43263333D02*
X120348571Y-43215714D01*
X120348571Y-43215714D02*
X120491428Y-43215714D01*
X120491428Y-43215714D02*
X120586666Y-43263333D01*
X120586666Y-43263333D02*
X120634285Y-43310952D01*
X119729523Y-43882380D02*
X119729523Y-43215714D01*
X119729523Y-42882380D02*
X119777142Y-42930000D01*
X119777142Y-42930000D02*
X119729523Y-42977619D01*
X119729523Y-42977619D02*
X119681904Y-42930000D01*
X119681904Y-42930000D02*
X119729523Y-42882380D01*
X119729523Y-42882380D02*
X119729523Y-42977619D01*
X118824762Y-43834761D02*
X118920000Y-43882380D01*
X118920000Y-43882380D02*
X119110476Y-43882380D01*
X119110476Y-43882380D02*
X119205714Y-43834761D01*
X119205714Y-43834761D02*
X119253333Y-43787142D01*
X119253333Y-43787142D02*
X119300952Y-43691904D01*
X119300952Y-43691904D02*
X119300952Y-43406190D01*
X119300952Y-43406190D02*
X119253333Y-43310952D01*
X119253333Y-43310952D02*
X119205714Y-43263333D01*
X119205714Y-43263333D02*
X119110476Y-43215714D01*
X119110476Y-43215714D02*
X118920000Y-43215714D01*
X118920000Y-43215714D02*
X118824762Y-43263333D01*
X118396190Y-43882380D02*
X118396190Y-42882380D01*
X117967619Y-43882380D02*
X117967619Y-43358571D01*
X117967619Y-43358571D02*
X118015238Y-43263333D01*
X118015238Y-43263333D02*
X118110476Y-43215714D01*
X118110476Y-43215714D02*
X118253333Y-43215714D01*
X118253333Y-43215714D02*
X118348571Y-43263333D01*
X118348571Y-43263333D02*
X118396190Y-43310952D01*
X116986666Y-43215714D02*
X116796190Y-43882380D01*
X116796190Y-43882380D02*
X116605714Y-43406190D01*
X116605714Y-43406190D02*
X116415238Y-43882380D01*
X116415238Y-43882380D02*
X116224762Y-43215714D01*
X115843809Y-43882380D02*
X115843809Y-43215714D01*
X115843809Y-42882380D02*
X115891428Y-42930000D01*
X115891428Y-42930000D02*
X115843809Y-42977619D01*
X115843809Y-42977619D02*
X115796190Y-42930000D01*
X115796190Y-42930000D02*
X115843809Y-42882380D01*
X115843809Y-42882380D02*
X115843809Y-42977619D01*
X115224762Y-43882380D02*
X115320000Y-43834761D01*
X115320000Y-43834761D02*
X115367619Y-43739523D01*
X115367619Y-43739523D02*
X115367619Y-42882380D01*
X114700952Y-43882380D02*
X114796190Y-43834761D01*
X114796190Y-43834761D02*
X114843809Y-43739523D01*
X114843809Y-43739523D02*
X114843809Y-42882380D01*
X113577142Y-43882380D02*
X113672380Y-43834761D01*
X113672380Y-43834761D02*
X113719999Y-43787142D01*
X113719999Y-43787142D02*
X113767618Y-43691904D01*
X113767618Y-43691904D02*
X113767618Y-43406190D01*
X113767618Y-43406190D02*
X113719999Y-43310952D01*
X113719999Y-43310952D02*
X113672380Y-43263333D01*
X113672380Y-43263333D02*
X113577142Y-43215714D01*
X113577142Y-43215714D02*
X113434285Y-43215714D01*
X113434285Y-43215714D02*
X113339047Y-43263333D01*
X113339047Y-43263333D02*
X113291428Y-43310952D01*
X113291428Y-43310952D02*
X113243809Y-43406190D01*
X113243809Y-43406190D02*
X113243809Y-43691904D01*
X113243809Y-43691904D02*
X113291428Y-43787142D01*
X113291428Y-43787142D02*
X113339047Y-43834761D01*
X113339047Y-43834761D02*
X113434285Y-43882380D01*
X113434285Y-43882380D02*
X113577142Y-43882380D01*
X112815237Y-43215714D02*
X112815237Y-44215714D01*
X112815237Y-43263333D02*
X112719999Y-43215714D01*
X112719999Y-43215714D02*
X112529523Y-43215714D01*
X112529523Y-43215714D02*
X112434285Y-43263333D01*
X112434285Y-43263333D02*
X112386666Y-43310952D01*
X112386666Y-43310952D02*
X112339047Y-43406190D01*
X112339047Y-43406190D02*
X112339047Y-43691904D01*
X112339047Y-43691904D02*
X112386666Y-43787142D01*
X112386666Y-43787142D02*
X112434285Y-43834761D01*
X112434285Y-43834761D02*
X112529523Y-43882380D01*
X112529523Y-43882380D02*
X112719999Y-43882380D01*
X112719999Y-43882380D02*
X112815237Y-43834761D01*
X111529523Y-43834761D02*
X111624761Y-43882380D01*
X111624761Y-43882380D02*
X111815237Y-43882380D01*
X111815237Y-43882380D02*
X111910475Y-43834761D01*
X111910475Y-43834761D02*
X111958094Y-43739523D01*
X111958094Y-43739523D02*
X111958094Y-43358571D01*
X111958094Y-43358571D02*
X111910475Y-43263333D01*
X111910475Y-43263333D02*
X111815237Y-43215714D01*
X111815237Y-43215714D02*
X111624761Y-43215714D01*
X111624761Y-43215714D02*
X111529523Y-43263333D01*
X111529523Y-43263333D02*
X111481904Y-43358571D01*
X111481904Y-43358571D02*
X111481904Y-43453809D01*
X111481904Y-43453809D02*
X111958094Y-43549047D01*
X111053332Y-43882380D02*
X111053332Y-43215714D01*
X111053332Y-43406190D02*
X111005713Y-43310952D01*
X111005713Y-43310952D02*
X110958094Y-43263333D01*
X110958094Y-43263333D02*
X110862856Y-43215714D01*
X110862856Y-43215714D02*
X110767618Y-43215714D01*
X110005713Y-43882380D02*
X110005713Y-43358571D01*
X110005713Y-43358571D02*
X110053332Y-43263333D01*
X110053332Y-43263333D02*
X110148570Y-43215714D01*
X110148570Y-43215714D02*
X110339046Y-43215714D01*
X110339046Y-43215714D02*
X110434284Y-43263333D01*
X110005713Y-43834761D02*
X110100951Y-43882380D01*
X110100951Y-43882380D02*
X110339046Y-43882380D01*
X110339046Y-43882380D02*
X110434284Y-43834761D01*
X110434284Y-43834761D02*
X110481903Y-43739523D01*
X110481903Y-43739523D02*
X110481903Y-43644285D01*
X110481903Y-43644285D02*
X110434284Y-43549047D01*
X110434284Y-43549047D02*
X110339046Y-43501428D01*
X110339046Y-43501428D02*
X110100951Y-43501428D01*
X110100951Y-43501428D02*
X110005713Y-43453809D01*
X109672379Y-43215714D02*
X109291427Y-43215714D01*
X109529522Y-42882380D02*
X109529522Y-43739523D01*
X109529522Y-43739523D02*
X109481903Y-43834761D01*
X109481903Y-43834761D02*
X109386665Y-43882380D01*
X109386665Y-43882380D02*
X109291427Y-43882380D01*
X108577141Y-43834761D02*
X108672379Y-43882380D01*
X108672379Y-43882380D02*
X108862855Y-43882380D01*
X108862855Y-43882380D02*
X108958093Y-43834761D01*
X108958093Y-43834761D02*
X109005712Y-43739523D01*
X109005712Y-43739523D02*
X109005712Y-43358571D01*
X109005712Y-43358571D02*
X108958093Y-43263333D01*
X108958093Y-43263333D02*
X108862855Y-43215714D01*
X108862855Y-43215714D02*
X108672379Y-43215714D01*
X108672379Y-43215714D02*
X108577141Y-43263333D01*
X108577141Y-43263333D02*
X108529522Y-43358571D01*
X108529522Y-43358571D02*
X108529522Y-43453809D01*
X108529522Y-43453809D02*
X109005712Y-43549047D01*
X107072379Y-43882380D02*
X107072379Y-43358571D01*
X107072379Y-43358571D02*
X107119998Y-43263333D01*
X107119998Y-43263333D02*
X107215236Y-43215714D01*
X107215236Y-43215714D02*
X107405712Y-43215714D01*
X107405712Y-43215714D02*
X107500950Y-43263333D01*
X107072379Y-43834761D02*
X107167617Y-43882380D01*
X107167617Y-43882380D02*
X107405712Y-43882380D01*
X107405712Y-43882380D02*
X107500950Y-43834761D01*
X107500950Y-43834761D02*
X107548569Y-43739523D01*
X107548569Y-43739523D02*
X107548569Y-43644285D01*
X107548569Y-43644285D02*
X107500950Y-43549047D01*
X107500950Y-43549047D02*
X107405712Y-43501428D01*
X107405712Y-43501428D02*
X107167617Y-43501428D01*
X107167617Y-43501428D02*
X107072379Y-43453809D01*
X106739045Y-43215714D02*
X106358093Y-43215714D01*
X106596188Y-42882380D02*
X106596188Y-43739523D01*
X106596188Y-43739523D02*
X106548569Y-43834761D01*
X106548569Y-43834761D02*
X106453331Y-43882380D01*
X106453331Y-43882380D02*
X106358093Y-43882380D01*
X105519997Y-42882380D02*
X104900950Y-42882380D01*
X104900950Y-42882380D02*
X105234283Y-43263333D01*
X105234283Y-43263333D02*
X105091426Y-43263333D01*
X105091426Y-43263333D02*
X104996188Y-43310952D01*
X104996188Y-43310952D02*
X104948569Y-43358571D01*
X104948569Y-43358571D02*
X104900950Y-43453809D01*
X104900950Y-43453809D02*
X104900950Y-43691904D01*
X104900950Y-43691904D02*
X104948569Y-43787142D01*
X104948569Y-43787142D02*
X104996188Y-43834761D01*
X104996188Y-43834761D02*
X105091426Y-43882380D01*
X105091426Y-43882380D02*
X105377140Y-43882380D01*
X105377140Y-43882380D02*
X105472378Y-43834761D01*
X105472378Y-43834761D02*
X105519997Y-43787142D01*
X104472378Y-43787142D02*
X104424759Y-43834761D01*
X104424759Y-43834761D02*
X104472378Y-43882380D01*
X104472378Y-43882380D02*
X104519997Y-43834761D01*
X104519997Y-43834761D02*
X104472378Y-43787142D01*
X104472378Y-43787142D02*
X104472378Y-43882380D01*
X104091426Y-42882380D02*
X103472379Y-42882380D01*
X103472379Y-42882380D02*
X103805712Y-43263333D01*
X103805712Y-43263333D02*
X103662855Y-43263333D01*
X103662855Y-43263333D02*
X103567617Y-43310952D01*
X103567617Y-43310952D02*
X103519998Y-43358571D01*
X103519998Y-43358571D02*
X103472379Y-43453809D01*
X103472379Y-43453809D02*
X103472379Y-43691904D01*
X103472379Y-43691904D02*
X103519998Y-43787142D01*
X103519998Y-43787142D02*
X103567617Y-43834761D01*
X103567617Y-43834761D02*
X103662855Y-43882380D01*
X103662855Y-43882380D02*
X103948569Y-43882380D01*
X103948569Y-43882380D02*
X104043807Y-43834761D01*
X104043807Y-43834761D02*
X104091426Y-43787142D01*
X103186664Y-42882380D02*
X102853331Y-43882380D01*
X102853331Y-43882380D02*
X102519998Y-42882380D01*
X102139045Y-43834761D02*
X102139045Y-43882380D01*
X102139045Y-43882380D02*
X102186664Y-43977619D01*
X102186664Y-43977619D02*
X102234283Y-44025238D01*
X101110474Y-43882380D02*
X101110474Y-42882380D01*
X101110474Y-42882380D02*
X100729522Y-42882380D01*
X100729522Y-42882380D02*
X100634284Y-42930000D01*
X100634284Y-42930000D02*
X100586665Y-42977619D01*
X100586665Y-42977619D02*
X100539046Y-43072857D01*
X100539046Y-43072857D02*
X100539046Y-43215714D01*
X100539046Y-43215714D02*
X100586665Y-43310952D01*
X100586665Y-43310952D02*
X100634284Y-43358571D01*
X100634284Y-43358571D02*
X100729522Y-43406190D01*
X100729522Y-43406190D02*
X101110474Y-43406190D01*
X99967617Y-43882380D02*
X100062855Y-43834761D01*
X100062855Y-43834761D02*
X100110474Y-43739523D01*
X100110474Y-43739523D02*
X100110474Y-42882380D01*
X99205712Y-43834761D02*
X99300950Y-43882380D01*
X99300950Y-43882380D02*
X99491426Y-43882380D01*
X99491426Y-43882380D02*
X99586664Y-43834761D01*
X99586664Y-43834761D02*
X99634283Y-43739523D01*
X99634283Y-43739523D02*
X99634283Y-43358571D01*
X99634283Y-43358571D02*
X99586664Y-43263333D01*
X99586664Y-43263333D02*
X99491426Y-43215714D01*
X99491426Y-43215714D02*
X99300950Y-43215714D01*
X99300950Y-43215714D02*
X99205712Y-43263333D01*
X99205712Y-43263333D02*
X99158093Y-43358571D01*
X99158093Y-43358571D02*
X99158093Y-43453809D01*
X99158093Y-43453809D02*
X99634283Y-43549047D01*
X98300950Y-43882380D02*
X98300950Y-43358571D01*
X98300950Y-43358571D02*
X98348569Y-43263333D01*
X98348569Y-43263333D02*
X98443807Y-43215714D01*
X98443807Y-43215714D02*
X98634283Y-43215714D01*
X98634283Y-43215714D02*
X98729521Y-43263333D01*
X98300950Y-43834761D02*
X98396188Y-43882380D01*
X98396188Y-43882380D02*
X98634283Y-43882380D01*
X98634283Y-43882380D02*
X98729521Y-43834761D01*
X98729521Y-43834761D02*
X98777140Y-43739523D01*
X98777140Y-43739523D02*
X98777140Y-43644285D01*
X98777140Y-43644285D02*
X98729521Y-43549047D01*
X98729521Y-43549047D02*
X98634283Y-43501428D01*
X98634283Y-43501428D02*
X98396188Y-43501428D01*
X98396188Y-43501428D02*
X98300950Y-43453809D01*
X97872378Y-43834761D02*
X97777140Y-43882380D01*
X97777140Y-43882380D02*
X97586664Y-43882380D01*
X97586664Y-43882380D02*
X97491426Y-43834761D01*
X97491426Y-43834761D02*
X97443807Y-43739523D01*
X97443807Y-43739523D02*
X97443807Y-43691904D01*
X97443807Y-43691904D02*
X97491426Y-43596666D01*
X97491426Y-43596666D02*
X97586664Y-43549047D01*
X97586664Y-43549047D02*
X97729521Y-43549047D01*
X97729521Y-43549047D02*
X97824759Y-43501428D01*
X97824759Y-43501428D02*
X97872378Y-43406190D01*
X97872378Y-43406190D02*
X97872378Y-43358571D01*
X97872378Y-43358571D02*
X97824759Y-43263333D01*
X97824759Y-43263333D02*
X97729521Y-43215714D01*
X97729521Y-43215714D02*
X97586664Y-43215714D01*
X97586664Y-43215714D02*
X97491426Y-43263333D01*
X96634283Y-43834761D02*
X96729521Y-43882380D01*
X96729521Y-43882380D02*
X96919997Y-43882380D01*
X96919997Y-43882380D02*
X97015235Y-43834761D01*
X97015235Y-43834761D02*
X97062854Y-43739523D01*
X97062854Y-43739523D02*
X97062854Y-43358571D01*
X97062854Y-43358571D02*
X97015235Y-43263333D01*
X97015235Y-43263333D02*
X96919997Y-43215714D01*
X96919997Y-43215714D02*
X96729521Y-43215714D01*
X96729521Y-43215714D02*
X96634283Y-43263333D01*
X96634283Y-43263333D02*
X96586664Y-43358571D01*
X96586664Y-43358571D02*
X96586664Y-43453809D01*
X96586664Y-43453809D02*
X97062854Y-43549047D01*
X95558092Y-43882380D02*
X95558092Y-43215714D01*
X95558092Y-43310952D02*
X95510473Y-43263333D01*
X95510473Y-43263333D02*
X95415235Y-43215714D01*
X95415235Y-43215714D02*
X95272378Y-43215714D01*
X95272378Y-43215714D02*
X95177140Y-43263333D01*
X95177140Y-43263333D02*
X95129521Y-43358571D01*
X95129521Y-43358571D02*
X95129521Y-43882380D01*
X95129521Y-43358571D02*
X95081902Y-43263333D01*
X95081902Y-43263333D02*
X94986664Y-43215714D01*
X94986664Y-43215714D02*
X94843807Y-43215714D01*
X94843807Y-43215714D02*
X94748568Y-43263333D01*
X94748568Y-43263333D02*
X94700949Y-43358571D01*
X94700949Y-43358571D02*
X94700949Y-43882380D01*
X93843807Y-43834761D02*
X93939045Y-43882380D01*
X93939045Y-43882380D02*
X94129521Y-43882380D01*
X94129521Y-43882380D02*
X94224759Y-43834761D01*
X94224759Y-43834761D02*
X94272378Y-43739523D01*
X94272378Y-43739523D02*
X94272378Y-43358571D01*
X94272378Y-43358571D02*
X94224759Y-43263333D01*
X94224759Y-43263333D02*
X94129521Y-43215714D01*
X94129521Y-43215714D02*
X93939045Y-43215714D01*
X93939045Y-43215714D02*
X93843807Y-43263333D01*
X93843807Y-43263333D02*
X93796188Y-43358571D01*
X93796188Y-43358571D02*
X93796188Y-43453809D01*
X93796188Y-43453809D02*
X94272378Y-43549047D01*
X92939045Y-43882380D02*
X92939045Y-43358571D01*
X92939045Y-43358571D02*
X92986664Y-43263333D01*
X92986664Y-43263333D02*
X93081902Y-43215714D01*
X93081902Y-43215714D02*
X93272378Y-43215714D01*
X93272378Y-43215714D02*
X93367616Y-43263333D01*
X92939045Y-43834761D02*
X93034283Y-43882380D01*
X93034283Y-43882380D02*
X93272378Y-43882380D01*
X93272378Y-43882380D02*
X93367616Y-43834761D01*
X93367616Y-43834761D02*
X93415235Y-43739523D01*
X93415235Y-43739523D02*
X93415235Y-43644285D01*
X93415235Y-43644285D02*
X93367616Y-43549047D01*
X93367616Y-43549047D02*
X93272378Y-43501428D01*
X93272378Y-43501428D02*
X93034283Y-43501428D01*
X93034283Y-43501428D02*
X92939045Y-43453809D01*
X92510473Y-43834761D02*
X92415235Y-43882380D01*
X92415235Y-43882380D02*
X92224759Y-43882380D01*
X92224759Y-43882380D02*
X92129521Y-43834761D01*
X92129521Y-43834761D02*
X92081902Y-43739523D01*
X92081902Y-43739523D02*
X92081902Y-43691904D01*
X92081902Y-43691904D02*
X92129521Y-43596666D01*
X92129521Y-43596666D02*
X92224759Y-43549047D01*
X92224759Y-43549047D02*
X92367616Y-43549047D01*
X92367616Y-43549047D02*
X92462854Y-43501428D01*
X92462854Y-43501428D02*
X92510473Y-43406190D01*
X92510473Y-43406190D02*
X92510473Y-43358571D01*
X92510473Y-43358571D02*
X92462854Y-43263333D01*
X92462854Y-43263333D02*
X92367616Y-43215714D01*
X92367616Y-43215714D02*
X92224759Y-43215714D01*
X92224759Y-43215714D02*
X92129521Y-43263333D01*
X91224759Y-43215714D02*
X91224759Y-43882380D01*
X91653330Y-43215714D02*
X91653330Y-43739523D01*
X91653330Y-43739523D02*
X91605711Y-43834761D01*
X91605711Y-43834761D02*
X91510473Y-43882380D01*
X91510473Y-43882380D02*
X91367616Y-43882380D01*
X91367616Y-43882380D02*
X91272378Y-43834761D01*
X91272378Y-43834761D02*
X91224759Y-43787142D01*
X90748568Y-43882380D02*
X90748568Y-43215714D01*
X90748568Y-43406190D02*
X90700949Y-43310952D01*
X90700949Y-43310952D02*
X90653330Y-43263333D01*
X90653330Y-43263333D02*
X90558092Y-43215714D01*
X90558092Y-43215714D02*
X90462854Y-43215714D01*
X89748568Y-43834761D02*
X89843806Y-43882380D01*
X89843806Y-43882380D02*
X90034282Y-43882380D01*
X90034282Y-43882380D02*
X90129520Y-43834761D01*
X90129520Y-43834761D02*
X90177139Y-43739523D01*
X90177139Y-43739523D02*
X90177139Y-43358571D01*
X90177139Y-43358571D02*
X90129520Y-43263333D01*
X90129520Y-43263333D02*
X90034282Y-43215714D01*
X90034282Y-43215714D02*
X89843806Y-43215714D01*
X89843806Y-43215714D02*
X89748568Y-43263333D01*
X89748568Y-43263333D02*
X89700949Y-43358571D01*
X89700949Y-43358571D02*
X89700949Y-43453809D01*
X89700949Y-43453809D02*
X90177139Y-43549047D01*
X88767615Y-43215714D02*
X88529520Y-43882380D01*
X88529520Y-43882380D02*
X88291425Y-43215714D01*
X87767615Y-43882380D02*
X87862853Y-43834761D01*
X87862853Y-43834761D02*
X87910472Y-43787142D01*
X87910472Y-43787142D02*
X87958091Y-43691904D01*
X87958091Y-43691904D02*
X87958091Y-43406190D01*
X87958091Y-43406190D02*
X87910472Y-43310952D01*
X87910472Y-43310952D02*
X87862853Y-43263333D01*
X87862853Y-43263333D02*
X87767615Y-43215714D01*
X87767615Y-43215714D02*
X87624758Y-43215714D01*
X87624758Y-43215714D02*
X87529520Y-43263333D01*
X87529520Y-43263333D02*
X87481901Y-43310952D01*
X87481901Y-43310952D02*
X87434282Y-43406190D01*
X87434282Y-43406190D02*
X87434282Y-43691904D01*
X87434282Y-43691904D02*
X87481901Y-43787142D01*
X87481901Y-43787142D02*
X87529520Y-43834761D01*
X87529520Y-43834761D02*
X87624758Y-43882380D01*
X87624758Y-43882380D02*
X87767615Y-43882380D01*
X86862853Y-43882380D02*
X86958091Y-43834761D01*
X86958091Y-43834761D02*
X87005710Y-43739523D01*
X87005710Y-43739523D02*
X87005710Y-42882380D01*
X86624757Y-43215714D02*
X86243805Y-43215714D01*
X86481900Y-42882380D02*
X86481900Y-43739523D01*
X86481900Y-43739523D02*
X86434281Y-43834761D01*
X86434281Y-43834761D02*
X86339043Y-43882380D01*
X86339043Y-43882380D02*
X86243805Y-43882380D01*
X85481900Y-43882380D02*
X85481900Y-43358571D01*
X85481900Y-43358571D02*
X85529519Y-43263333D01*
X85529519Y-43263333D02*
X85624757Y-43215714D01*
X85624757Y-43215714D02*
X85815233Y-43215714D01*
X85815233Y-43215714D02*
X85910471Y-43263333D01*
X85481900Y-43834761D02*
X85577138Y-43882380D01*
X85577138Y-43882380D02*
X85815233Y-43882380D01*
X85815233Y-43882380D02*
X85910471Y-43834761D01*
X85910471Y-43834761D02*
X85958090Y-43739523D01*
X85958090Y-43739523D02*
X85958090Y-43644285D01*
X85958090Y-43644285D02*
X85910471Y-43549047D01*
X85910471Y-43549047D02*
X85815233Y-43501428D01*
X85815233Y-43501428D02*
X85577138Y-43501428D01*
X85577138Y-43501428D02*
X85481900Y-43453809D01*
X84577138Y-43215714D02*
X84577138Y-44025238D01*
X84577138Y-44025238D02*
X84624757Y-44120476D01*
X84624757Y-44120476D02*
X84672376Y-44168095D01*
X84672376Y-44168095D02*
X84767614Y-44215714D01*
X84767614Y-44215714D02*
X84910471Y-44215714D01*
X84910471Y-44215714D02*
X85005709Y-44168095D01*
X84577138Y-43834761D02*
X84672376Y-43882380D01*
X84672376Y-43882380D02*
X84862852Y-43882380D01*
X84862852Y-43882380D02*
X84958090Y-43834761D01*
X84958090Y-43834761D02*
X85005709Y-43787142D01*
X85005709Y-43787142D02*
X85053328Y-43691904D01*
X85053328Y-43691904D02*
X85053328Y-43406190D01*
X85053328Y-43406190D02*
X85005709Y-43310952D01*
X85005709Y-43310952D02*
X84958090Y-43263333D01*
X84958090Y-43263333D02*
X84862852Y-43215714D01*
X84862852Y-43215714D02*
X84672376Y-43215714D01*
X84672376Y-43215714D02*
X84577138Y-43263333D01*
X83719995Y-43834761D02*
X83815233Y-43882380D01*
X83815233Y-43882380D02*
X84005709Y-43882380D01*
X84005709Y-43882380D02*
X84100947Y-43834761D01*
X84100947Y-43834761D02*
X84148566Y-43739523D01*
X84148566Y-43739523D02*
X84148566Y-43358571D01*
X84148566Y-43358571D02*
X84100947Y-43263333D01*
X84100947Y-43263333D02*
X84005709Y-43215714D01*
X84005709Y-43215714D02*
X83815233Y-43215714D01*
X83815233Y-43215714D02*
X83719995Y-43263333D01*
X83719995Y-43263333D02*
X83672376Y-43358571D01*
X83672376Y-43358571D02*
X83672376Y-43453809D01*
X83672376Y-43453809D02*
X84148566Y-43549047D01*
X82215233Y-43215714D02*
X82215233Y-43882380D01*
X82643804Y-43215714D02*
X82643804Y-43739523D01*
X82643804Y-43739523D02*
X82596185Y-43834761D01*
X82596185Y-43834761D02*
X82500947Y-43882380D01*
X82500947Y-43882380D02*
X82358090Y-43882380D01*
X82358090Y-43882380D02*
X82262852Y-43834761D01*
X82262852Y-43834761D02*
X82215233Y-43787142D01*
X81786661Y-43834761D02*
X81691423Y-43882380D01*
X81691423Y-43882380D02*
X81500947Y-43882380D01*
X81500947Y-43882380D02*
X81405709Y-43834761D01*
X81405709Y-43834761D02*
X81358090Y-43739523D01*
X81358090Y-43739523D02*
X81358090Y-43691904D01*
X81358090Y-43691904D02*
X81405709Y-43596666D01*
X81405709Y-43596666D02*
X81500947Y-43549047D01*
X81500947Y-43549047D02*
X81643804Y-43549047D01*
X81643804Y-43549047D02*
X81739042Y-43501428D01*
X81739042Y-43501428D02*
X81786661Y-43406190D01*
X81786661Y-43406190D02*
X81786661Y-43358571D01*
X81786661Y-43358571D02*
X81739042Y-43263333D01*
X81739042Y-43263333D02*
X81643804Y-43215714D01*
X81643804Y-43215714D02*
X81500947Y-43215714D01*
X81500947Y-43215714D02*
X81405709Y-43263333D01*
X80929518Y-43882380D02*
X80929518Y-43215714D01*
X80929518Y-42882380D02*
X80977137Y-42930000D01*
X80977137Y-42930000D02*
X80929518Y-42977619D01*
X80929518Y-42977619D02*
X80881899Y-42930000D01*
X80881899Y-42930000D02*
X80929518Y-42882380D01*
X80929518Y-42882380D02*
X80929518Y-42977619D01*
X80453328Y-43215714D02*
X80453328Y-43882380D01*
X80453328Y-43310952D02*
X80405709Y-43263333D01*
X80405709Y-43263333D02*
X80310471Y-43215714D01*
X80310471Y-43215714D02*
X80167614Y-43215714D01*
X80167614Y-43215714D02*
X80072376Y-43263333D01*
X80072376Y-43263333D02*
X80024757Y-43358571D01*
X80024757Y-43358571D02*
X80024757Y-43882380D01*
X79119995Y-43215714D02*
X79119995Y-44025238D01*
X79119995Y-44025238D02*
X79167614Y-44120476D01*
X79167614Y-44120476D02*
X79215233Y-44168095D01*
X79215233Y-44168095D02*
X79310471Y-44215714D01*
X79310471Y-44215714D02*
X79453328Y-44215714D01*
X79453328Y-44215714D02*
X79548566Y-44168095D01*
X79119995Y-43834761D02*
X79215233Y-43882380D01*
X79215233Y-43882380D02*
X79405709Y-43882380D01*
X79405709Y-43882380D02*
X79500947Y-43834761D01*
X79500947Y-43834761D02*
X79548566Y-43787142D01*
X79548566Y-43787142D02*
X79596185Y-43691904D01*
X79596185Y-43691904D02*
X79596185Y-43406190D01*
X79596185Y-43406190D02*
X79548566Y-43310952D01*
X79548566Y-43310952D02*
X79500947Y-43263333D01*
X79500947Y-43263333D02*
X79405709Y-43215714D01*
X79405709Y-43215714D02*
X79215233Y-43215714D01*
X79215233Y-43215714D02*
X79119995Y-43263333D01*
X77615233Y-43882380D02*
X77615233Y-43358571D01*
X77615233Y-43358571D02*
X77662852Y-43263333D01*
X77662852Y-43263333D02*
X77758090Y-43215714D01*
X77758090Y-43215714D02*
X77948566Y-43215714D01*
X77948566Y-43215714D02*
X78043804Y-43263333D01*
X77615233Y-43834761D02*
X77710471Y-43882380D01*
X77710471Y-43882380D02*
X77948566Y-43882380D01*
X77948566Y-43882380D02*
X78043804Y-43834761D01*
X78043804Y-43834761D02*
X78091423Y-43739523D01*
X78091423Y-43739523D02*
X78091423Y-43644285D01*
X78091423Y-43644285D02*
X78043804Y-43549047D01*
X78043804Y-43549047D02*
X77948566Y-43501428D01*
X77948566Y-43501428D02*
X77710471Y-43501428D01*
X77710471Y-43501428D02*
X77615233Y-43453809D01*
X76539042Y-43882380D02*
X76539042Y-43215714D01*
X76539042Y-43310952D02*
X76491423Y-43263333D01*
X76491423Y-43263333D02*
X76396185Y-43215714D01*
X76396185Y-43215714D02*
X76253328Y-43215714D01*
X76253328Y-43215714D02*
X76158090Y-43263333D01*
X76158090Y-43263333D02*
X76110471Y-43358571D01*
X76110471Y-43358571D02*
X76110471Y-43882380D01*
X76110471Y-43358571D02*
X76062852Y-43263333D01*
X76062852Y-43263333D02*
X75967614Y-43215714D01*
X75967614Y-43215714D02*
X75824757Y-43215714D01*
X75824757Y-43215714D02*
X75729518Y-43263333D01*
X75729518Y-43263333D02*
X75681899Y-43358571D01*
X75681899Y-43358571D02*
X75681899Y-43882380D01*
X74777138Y-43215714D02*
X74777138Y-43882380D01*
X75205709Y-43215714D02*
X75205709Y-43739523D01*
X75205709Y-43739523D02*
X75158090Y-43834761D01*
X75158090Y-43834761D02*
X75062852Y-43882380D01*
X75062852Y-43882380D02*
X74919995Y-43882380D01*
X74919995Y-43882380D02*
X74824757Y-43834761D01*
X74824757Y-43834761D02*
X74777138Y-43787142D01*
X74158090Y-43882380D02*
X74253328Y-43834761D01*
X74253328Y-43834761D02*
X74300947Y-43739523D01*
X74300947Y-43739523D02*
X74300947Y-42882380D01*
X73919994Y-43215714D02*
X73539042Y-43215714D01*
X73777137Y-42882380D02*
X73777137Y-43739523D01*
X73777137Y-43739523D02*
X73729518Y-43834761D01*
X73729518Y-43834761D02*
X73634280Y-43882380D01*
X73634280Y-43882380D02*
X73539042Y-43882380D01*
X73205708Y-43882380D02*
X73205708Y-43215714D01*
X73205708Y-42882380D02*
X73253327Y-42930000D01*
X73253327Y-42930000D02*
X73205708Y-42977619D01*
X73205708Y-42977619D02*
X73158089Y-42930000D01*
X73158089Y-42930000D02*
X73205708Y-42882380D01*
X73205708Y-42882380D02*
X73205708Y-42977619D01*
X72729518Y-43882380D02*
X72729518Y-43215714D01*
X72729518Y-43310952D02*
X72681899Y-43263333D01*
X72681899Y-43263333D02*
X72586661Y-43215714D01*
X72586661Y-43215714D02*
X72443804Y-43215714D01*
X72443804Y-43215714D02*
X72348566Y-43263333D01*
X72348566Y-43263333D02*
X72300947Y-43358571D01*
X72300947Y-43358571D02*
X72300947Y-43882380D01*
X72300947Y-43358571D02*
X72253328Y-43263333D01*
X72253328Y-43263333D02*
X72158090Y-43215714D01*
X72158090Y-43215714D02*
X72015233Y-43215714D01*
X72015233Y-43215714D02*
X71919994Y-43263333D01*
X71919994Y-43263333D02*
X71872375Y-43358571D01*
X71872375Y-43358571D02*
X71872375Y-43882380D01*
X71015233Y-43834761D02*
X71110471Y-43882380D01*
X71110471Y-43882380D02*
X71300947Y-43882380D01*
X71300947Y-43882380D02*
X71396185Y-43834761D01*
X71396185Y-43834761D02*
X71443804Y-43739523D01*
X71443804Y-43739523D02*
X71443804Y-43358571D01*
X71443804Y-43358571D02*
X71396185Y-43263333D01*
X71396185Y-43263333D02*
X71300947Y-43215714D01*
X71300947Y-43215714D02*
X71110471Y-43215714D01*
X71110471Y-43215714D02*
X71015233Y-43263333D01*
X71015233Y-43263333D02*
X70967614Y-43358571D01*
X70967614Y-43358571D02*
X70967614Y-43453809D01*
X70967614Y-43453809D02*
X71443804Y-43549047D01*
X70681899Y-43215714D02*
X70300947Y-43215714D01*
X70539042Y-42882380D02*
X70539042Y-43739523D01*
X70539042Y-43739523D02*
X70491423Y-43834761D01*
X70491423Y-43834761D02*
X70396185Y-43882380D01*
X70396185Y-43882380D02*
X70300947Y-43882380D01*
X69586661Y-43834761D02*
X69681899Y-43882380D01*
X69681899Y-43882380D02*
X69872375Y-43882380D01*
X69872375Y-43882380D02*
X69967613Y-43834761D01*
X69967613Y-43834761D02*
X70015232Y-43739523D01*
X70015232Y-43739523D02*
X70015232Y-43358571D01*
X70015232Y-43358571D02*
X69967613Y-43263333D01*
X69967613Y-43263333D02*
X69872375Y-43215714D01*
X69872375Y-43215714D02*
X69681899Y-43215714D01*
X69681899Y-43215714D02*
X69586661Y-43263333D01*
X69586661Y-43263333D02*
X69539042Y-43358571D01*
X69539042Y-43358571D02*
X69539042Y-43453809D01*
X69539042Y-43453809D02*
X70015232Y-43549047D01*
X69110470Y-43882380D02*
X69110470Y-43215714D01*
X69110470Y-43406190D02*
X69062851Y-43310952D01*
X69062851Y-43310952D02*
X69015232Y-43263333D01*
X69015232Y-43263333D02*
X68919994Y-43215714D01*
X68919994Y-43215714D02*
X68824756Y-43215714D01*
X67748565Y-43882380D02*
X67843803Y-43834761D01*
X67843803Y-43834761D02*
X67891422Y-43787142D01*
X67891422Y-43787142D02*
X67939041Y-43691904D01*
X67939041Y-43691904D02*
X67939041Y-43406190D01*
X67939041Y-43406190D02*
X67891422Y-43310952D01*
X67891422Y-43310952D02*
X67843803Y-43263333D01*
X67843803Y-43263333D02*
X67748565Y-43215714D01*
X67748565Y-43215714D02*
X67605708Y-43215714D01*
X67605708Y-43215714D02*
X67510470Y-43263333D01*
X67510470Y-43263333D02*
X67462851Y-43310952D01*
X67462851Y-43310952D02*
X67415232Y-43406190D01*
X67415232Y-43406190D02*
X67415232Y-43691904D01*
X67415232Y-43691904D02*
X67462851Y-43787142D01*
X67462851Y-43787142D02*
X67510470Y-43834761D01*
X67510470Y-43834761D02*
X67605708Y-43882380D01*
X67605708Y-43882380D02*
X67748565Y-43882380D01*
X66986660Y-43215714D02*
X66986660Y-43882380D01*
X66986660Y-43310952D02*
X66939041Y-43263333D01*
X66939041Y-43263333D02*
X66843803Y-43215714D01*
X66843803Y-43215714D02*
X66700946Y-43215714D01*
X66700946Y-43215714D02*
X66605708Y-43263333D01*
X66605708Y-43263333D02*
X66558089Y-43358571D01*
X66558089Y-43358571D02*
X66558089Y-43882380D01*
X65577136Y-43215714D02*
X65339041Y-43882380D01*
X65100946Y-43215714D02*
X65339041Y-43882380D01*
X65339041Y-43882380D02*
X65434279Y-44120476D01*
X65434279Y-44120476D02*
X65481898Y-44168095D01*
X65481898Y-44168095D02*
X65577136Y-44215714D01*
X64577136Y-43882380D02*
X64672374Y-43834761D01*
X64672374Y-43834761D02*
X64719993Y-43787142D01*
X64719993Y-43787142D02*
X64767612Y-43691904D01*
X64767612Y-43691904D02*
X64767612Y-43406190D01*
X64767612Y-43406190D02*
X64719993Y-43310952D01*
X64719993Y-43310952D02*
X64672374Y-43263333D01*
X64672374Y-43263333D02*
X64577136Y-43215714D01*
X64577136Y-43215714D02*
X64434279Y-43215714D01*
X64434279Y-43215714D02*
X64339041Y-43263333D01*
X64339041Y-43263333D02*
X64291422Y-43310952D01*
X64291422Y-43310952D02*
X64243803Y-43406190D01*
X64243803Y-43406190D02*
X64243803Y-43691904D01*
X64243803Y-43691904D02*
X64291422Y-43787142D01*
X64291422Y-43787142D02*
X64339041Y-43834761D01*
X64339041Y-43834761D02*
X64434279Y-43882380D01*
X64434279Y-43882380D02*
X64577136Y-43882380D01*
X63386660Y-43215714D02*
X63386660Y-43882380D01*
X63815231Y-43215714D02*
X63815231Y-43739523D01*
X63815231Y-43739523D02*
X63767612Y-43834761D01*
X63767612Y-43834761D02*
X63672374Y-43882380D01*
X63672374Y-43882380D02*
X63529517Y-43882380D01*
X63529517Y-43882380D02*
X63434279Y-43834761D01*
X63434279Y-43834761D02*
X63386660Y-43787142D01*
X62910469Y-43882380D02*
X62910469Y-43215714D01*
X62910469Y-43406190D02*
X62862850Y-43310952D01*
X62862850Y-43310952D02*
X62815231Y-43263333D01*
X62815231Y-43263333D02*
X62719993Y-43215714D01*
X62719993Y-43215714D02*
X62624755Y-43215714D01*
X61691421Y-42882380D02*
X61691421Y-43691904D01*
X61691421Y-43691904D02*
X61643802Y-43787142D01*
X61643802Y-43787142D02*
X61596183Y-43834761D01*
X61596183Y-43834761D02*
X61500945Y-43882380D01*
X61500945Y-43882380D02*
X61310469Y-43882380D01*
X61310469Y-43882380D02*
X61215231Y-43834761D01*
X61215231Y-43834761D02*
X61167612Y-43787142D01*
X61167612Y-43787142D02*
X61119993Y-43691904D01*
X61119993Y-43691904D02*
X61119993Y-42882380D01*
X60691421Y-43596666D02*
X60215231Y-43596666D01*
X60786659Y-43882380D02*
X60453326Y-42882380D01*
X60453326Y-42882380D02*
X60119993Y-43882380D01*
X59215231Y-43882380D02*
X59548564Y-43406190D01*
X59786659Y-43882380D02*
X59786659Y-42882380D01*
X59786659Y-42882380D02*
X59405707Y-42882380D01*
X59405707Y-42882380D02*
X59310469Y-42930000D01*
X59310469Y-42930000D02*
X59262850Y-42977619D01*
X59262850Y-42977619D02*
X59215231Y-43072857D01*
X59215231Y-43072857D02*
X59215231Y-43215714D01*
X59215231Y-43215714D02*
X59262850Y-43310952D01*
X59262850Y-43310952D02*
X59310469Y-43358571D01*
X59310469Y-43358571D02*
X59405707Y-43406190D01*
X59405707Y-43406190D02*
X59786659Y-43406190D01*
X58929516Y-42882380D02*
X58358088Y-42882380D01*
X58643802Y-43882380D02*
X58643802Y-42882380D01*
X57424754Y-43882380D02*
X57424754Y-43215714D01*
X57424754Y-43310952D02*
X57377135Y-43263333D01*
X57377135Y-43263333D02*
X57281897Y-43215714D01*
X57281897Y-43215714D02*
X57139040Y-43215714D01*
X57139040Y-43215714D02*
X57043802Y-43263333D01*
X57043802Y-43263333D02*
X56996183Y-43358571D01*
X56996183Y-43358571D02*
X56996183Y-43882380D01*
X56996183Y-43358571D02*
X56948564Y-43263333D01*
X56948564Y-43263333D02*
X56853326Y-43215714D01*
X56853326Y-43215714D02*
X56710469Y-43215714D01*
X56710469Y-43215714D02*
X56615230Y-43263333D01*
X56615230Y-43263333D02*
X56567611Y-43358571D01*
X56567611Y-43358571D02*
X56567611Y-43882380D01*
X55948564Y-43882380D02*
X56043802Y-43834761D01*
X56043802Y-43834761D02*
X56091421Y-43787142D01*
X56091421Y-43787142D02*
X56139040Y-43691904D01*
X56139040Y-43691904D02*
X56139040Y-43406190D01*
X56139040Y-43406190D02*
X56091421Y-43310952D01*
X56091421Y-43310952D02*
X56043802Y-43263333D01*
X56043802Y-43263333D02*
X55948564Y-43215714D01*
X55948564Y-43215714D02*
X55805707Y-43215714D01*
X55805707Y-43215714D02*
X55710469Y-43263333D01*
X55710469Y-43263333D02*
X55662850Y-43310952D01*
X55662850Y-43310952D02*
X55615231Y-43406190D01*
X55615231Y-43406190D02*
X55615231Y-43691904D01*
X55615231Y-43691904D02*
X55662850Y-43787142D01*
X55662850Y-43787142D02*
X55710469Y-43834761D01*
X55710469Y-43834761D02*
X55805707Y-43882380D01*
X55805707Y-43882380D02*
X55948564Y-43882380D01*
X54758088Y-43882380D02*
X54758088Y-42882380D01*
X54758088Y-43834761D02*
X54853326Y-43882380D01*
X54853326Y-43882380D02*
X55043802Y-43882380D01*
X55043802Y-43882380D02*
X55139040Y-43834761D01*
X55139040Y-43834761D02*
X55186659Y-43787142D01*
X55186659Y-43787142D02*
X55234278Y-43691904D01*
X55234278Y-43691904D02*
X55234278Y-43406190D01*
X55234278Y-43406190D02*
X55186659Y-43310952D01*
X55186659Y-43310952D02*
X55139040Y-43263333D01*
X55139040Y-43263333D02*
X55043802Y-43215714D01*
X55043802Y-43215714D02*
X54853326Y-43215714D01*
X54853326Y-43215714D02*
X54758088Y-43263333D01*
X53853326Y-43215714D02*
X53853326Y-43882380D01*
X54281897Y-43215714D02*
X54281897Y-43739523D01*
X54281897Y-43739523D02*
X54234278Y-43834761D01*
X54234278Y-43834761D02*
X54139040Y-43882380D01*
X54139040Y-43882380D02*
X53996183Y-43882380D01*
X53996183Y-43882380D02*
X53900945Y-43834761D01*
X53900945Y-43834761D02*
X53853326Y-43787142D01*
X53234278Y-43882380D02*
X53329516Y-43834761D01*
X53329516Y-43834761D02*
X53377135Y-43739523D01*
X53377135Y-43739523D02*
X53377135Y-42882380D01*
X52472373Y-43834761D02*
X52567611Y-43882380D01*
X52567611Y-43882380D02*
X52758087Y-43882380D01*
X52758087Y-43882380D02*
X52853325Y-43834761D01*
X52853325Y-43834761D02*
X52900944Y-43739523D01*
X52900944Y-43739523D02*
X52900944Y-43358571D01*
X52900944Y-43358571D02*
X52853325Y-43263333D01*
X52853325Y-43263333D02*
X52758087Y-43215714D01*
X52758087Y-43215714D02*
X52567611Y-43215714D01*
X52567611Y-43215714D02*
X52472373Y-43263333D01*
X52472373Y-43263333D02*
X52424754Y-43358571D01*
X52424754Y-43358571D02*
X52424754Y-43453809D01*
X52424754Y-43453809D02*
X52900944Y-43549047D01*
X51396182Y-43882380D02*
X51396182Y-42882380D01*
X51396182Y-43263333D02*
X51300944Y-43215714D01*
X51300944Y-43215714D02*
X51110468Y-43215714D01*
X51110468Y-43215714D02*
X51015230Y-43263333D01*
X51015230Y-43263333D02*
X50967611Y-43310952D01*
X50967611Y-43310952D02*
X50919992Y-43406190D01*
X50919992Y-43406190D02*
X50919992Y-43691904D01*
X50919992Y-43691904D02*
X50967611Y-43787142D01*
X50967611Y-43787142D02*
X51015230Y-43834761D01*
X51015230Y-43834761D02*
X51110468Y-43882380D01*
X51110468Y-43882380D02*
X51300944Y-43882380D01*
X51300944Y-43882380D02*
X51396182Y-43834761D01*
X50110468Y-43834761D02*
X50205706Y-43882380D01*
X50205706Y-43882380D02*
X50396182Y-43882380D01*
X50396182Y-43882380D02*
X50491420Y-43834761D01*
X50491420Y-43834761D02*
X50539039Y-43739523D01*
X50539039Y-43739523D02*
X50539039Y-43358571D01*
X50539039Y-43358571D02*
X50491420Y-43263333D01*
X50491420Y-43263333D02*
X50396182Y-43215714D01*
X50396182Y-43215714D02*
X50205706Y-43215714D01*
X50205706Y-43215714D02*
X50110468Y-43263333D01*
X50110468Y-43263333D02*
X50062849Y-43358571D01*
X50062849Y-43358571D02*
X50062849Y-43453809D01*
X50062849Y-43453809D02*
X50539039Y-43549047D01*
X49777134Y-43215714D02*
X49396182Y-43215714D01*
X49634277Y-42882380D02*
X49634277Y-43739523D01*
X49634277Y-43739523D02*
X49586658Y-43834761D01*
X49586658Y-43834761D02*
X49491420Y-43882380D01*
X49491420Y-43882380D02*
X49396182Y-43882380D01*
X49158086Y-43215714D02*
X48967610Y-43882380D01*
X48967610Y-43882380D02*
X48777134Y-43406190D01*
X48777134Y-43406190D02*
X48586658Y-43882380D01*
X48586658Y-43882380D02*
X48396182Y-43215714D01*
X47634277Y-43834761D02*
X47729515Y-43882380D01*
X47729515Y-43882380D02*
X47919991Y-43882380D01*
X47919991Y-43882380D02*
X48015229Y-43834761D01*
X48015229Y-43834761D02*
X48062848Y-43739523D01*
X48062848Y-43739523D02*
X48062848Y-43358571D01*
X48062848Y-43358571D02*
X48015229Y-43263333D01*
X48015229Y-43263333D02*
X47919991Y-43215714D01*
X47919991Y-43215714D02*
X47729515Y-43215714D01*
X47729515Y-43215714D02*
X47634277Y-43263333D01*
X47634277Y-43263333D02*
X47586658Y-43358571D01*
X47586658Y-43358571D02*
X47586658Y-43453809D01*
X47586658Y-43453809D02*
X48062848Y-43549047D01*
X46777134Y-43834761D02*
X46872372Y-43882380D01*
X46872372Y-43882380D02*
X47062848Y-43882380D01*
X47062848Y-43882380D02*
X47158086Y-43834761D01*
X47158086Y-43834761D02*
X47205705Y-43739523D01*
X47205705Y-43739523D02*
X47205705Y-43358571D01*
X47205705Y-43358571D02*
X47158086Y-43263333D01*
X47158086Y-43263333D02*
X47062848Y-43215714D01*
X47062848Y-43215714D02*
X46872372Y-43215714D01*
X46872372Y-43215714D02*
X46777134Y-43263333D01*
X46777134Y-43263333D02*
X46729515Y-43358571D01*
X46729515Y-43358571D02*
X46729515Y-43453809D01*
X46729515Y-43453809D02*
X47205705Y-43549047D01*
X46300943Y-43215714D02*
X46300943Y-43882380D01*
X46300943Y-43310952D02*
X46253324Y-43263333D01*
X46253324Y-43263333D02*
X46158086Y-43215714D01*
X46158086Y-43215714D02*
X46015229Y-43215714D01*
X46015229Y-43215714D02*
X45919991Y-43263333D01*
X45919991Y-43263333D02*
X45872372Y-43358571D01*
X45872372Y-43358571D02*
X45872372Y-43882380D01*
X44939038Y-42882380D02*
X44367610Y-42882380D01*
X44653324Y-43882380D02*
X44653324Y-42882380D01*
X44129514Y-42882380D02*
X43462848Y-43882380D01*
X43462848Y-42882380D02*
X44129514Y-43882380D01*
X42053324Y-43882380D02*
X42053324Y-43358571D01*
X42053324Y-43358571D02*
X42100943Y-43263333D01*
X42100943Y-43263333D02*
X42196181Y-43215714D01*
X42196181Y-43215714D02*
X42386657Y-43215714D01*
X42386657Y-43215714D02*
X42481895Y-43263333D01*
X42053324Y-43834761D02*
X42148562Y-43882380D01*
X42148562Y-43882380D02*
X42386657Y-43882380D01*
X42386657Y-43882380D02*
X42481895Y-43834761D01*
X42481895Y-43834761D02*
X42529514Y-43739523D01*
X42529514Y-43739523D02*
X42529514Y-43644285D01*
X42529514Y-43644285D02*
X42481895Y-43549047D01*
X42481895Y-43549047D02*
X42386657Y-43501428D01*
X42386657Y-43501428D02*
X42148562Y-43501428D01*
X42148562Y-43501428D02*
X42053324Y-43453809D01*
X41577133Y-43215714D02*
X41577133Y-43882380D01*
X41577133Y-43310952D02*
X41529514Y-43263333D01*
X41529514Y-43263333D02*
X41434276Y-43215714D01*
X41434276Y-43215714D02*
X41291419Y-43215714D01*
X41291419Y-43215714D02*
X41196181Y-43263333D01*
X41196181Y-43263333D02*
X41148562Y-43358571D01*
X41148562Y-43358571D02*
X41148562Y-43882380D01*
X40243800Y-43882380D02*
X40243800Y-42882380D01*
X40243800Y-43834761D02*
X40339038Y-43882380D01*
X40339038Y-43882380D02*
X40529514Y-43882380D01*
X40529514Y-43882380D02*
X40624752Y-43834761D01*
X40624752Y-43834761D02*
X40672371Y-43787142D01*
X40672371Y-43787142D02*
X40719990Y-43691904D01*
X40719990Y-43691904D02*
X40719990Y-43406190D01*
X40719990Y-43406190D02*
X40672371Y-43310952D01*
X40672371Y-43310952D02*
X40624752Y-43263333D01*
X40624752Y-43263333D02*
X40529514Y-43215714D01*
X40529514Y-43215714D02*
X40339038Y-43215714D01*
X40339038Y-43215714D02*
X40243800Y-43263333D01*
X38643800Y-42930000D02*
X38739038Y-42882380D01*
X38739038Y-42882380D02*
X38881895Y-42882380D01*
X38881895Y-42882380D02*
X39024752Y-42930000D01*
X39024752Y-42930000D02*
X39119990Y-43025238D01*
X39119990Y-43025238D02*
X39167609Y-43120476D01*
X39167609Y-43120476D02*
X39215228Y-43310952D01*
X39215228Y-43310952D02*
X39215228Y-43453809D01*
X39215228Y-43453809D02*
X39167609Y-43644285D01*
X39167609Y-43644285D02*
X39119990Y-43739523D01*
X39119990Y-43739523D02*
X39024752Y-43834761D01*
X39024752Y-43834761D02*
X38881895Y-43882380D01*
X38881895Y-43882380D02*
X38786657Y-43882380D01*
X38786657Y-43882380D02*
X38643800Y-43834761D01*
X38643800Y-43834761D02*
X38596181Y-43787142D01*
X38596181Y-43787142D02*
X38596181Y-43453809D01*
X38596181Y-43453809D02*
X38786657Y-43453809D01*
X38167609Y-43882380D02*
X38167609Y-42882380D01*
X38167609Y-42882380D02*
X37596181Y-43882380D01*
X37596181Y-43882380D02*
X37596181Y-42882380D01*
X37119990Y-43882380D02*
X37119990Y-42882380D01*
X37119990Y-42882380D02*
X36881895Y-42882380D01*
X36881895Y-42882380D02*
X36739038Y-42930000D01*
X36739038Y-42930000D02*
X36643800Y-43025238D01*
X36643800Y-43025238D02*
X36596181Y-43120476D01*
X36596181Y-43120476D02*
X36548562Y-43310952D01*
X36548562Y-43310952D02*
X36548562Y-43453809D01*
X36548562Y-43453809D02*
X36596181Y-43644285D01*
X36596181Y-43644285D02*
X36643800Y-43739523D01*
X36643800Y-43739523D02*
X36739038Y-43834761D01*
X36739038Y-43834761D02*
X36881895Y-43882380D01*
X36881895Y-43882380D02*
X37119990Y-43882380D01*
X36119990Y-43787142D02*
X36072371Y-43834761D01*
X36072371Y-43834761D02*
X36119990Y-43882380D01*
X36119990Y-43882380D02*
X36167609Y-43834761D01*
X36167609Y-43834761D02*
X36119990Y-43787142D01*
X36119990Y-43787142D02*
X36119990Y-43882380D01*
X121681904Y-45502380D02*
X121681904Y-44835714D01*
X121681904Y-44502380D02*
X121729523Y-44550000D01*
X121729523Y-44550000D02*
X121681904Y-44597619D01*
X121681904Y-44597619D02*
X121634285Y-44550000D01*
X121634285Y-44550000D02*
X121681904Y-44502380D01*
X121681904Y-44502380D02*
X121681904Y-44597619D01*
X121348571Y-44835714D02*
X120967619Y-44835714D01*
X121205714Y-45502380D02*
X121205714Y-44645238D01*
X121205714Y-44645238D02*
X121158095Y-44550000D01*
X121158095Y-44550000D02*
X121062857Y-44502380D01*
X121062857Y-44502380D02*
X120967619Y-44502380D01*
X120034285Y-45502380D02*
X120034285Y-44835714D01*
X120034285Y-44502380D02*
X120081904Y-44550000D01*
X120081904Y-44550000D02*
X120034285Y-44597619D01*
X120034285Y-44597619D02*
X119986666Y-44550000D01*
X119986666Y-44550000D02*
X120034285Y-44502380D01*
X120034285Y-44502380D02*
X120034285Y-44597619D01*
X119700952Y-44835714D02*
X119320000Y-44835714D01*
X119558095Y-44502380D02*
X119558095Y-45359523D01*
X119558095Y-45359523D02*
X119510476Y-45454761D01*
X119510476Y-45454761D02*
X119415238Y-45502380D01*
X119415238Y-45502380D02*
X119320000Y-45502380D01*
X118386666Y-45502380D02*
X118386666Y-44835714D01*
X118386666Y-45026190D02*
X118339047Y-44930952D01*
X118339047Y-44930952D02*
X118291428Y-44883333D01*
X118291428Y-44883333D02*
X118196190Y-44835714D01*
X118196190Y-44835714D02*
X118100952Y-44835714D01*
X117339047Y-44835714D02*
X117339047Y-45502380D01*
X117767618Y-44835714D02*
X117767618Y-45359523D01*
X117767618Y-45359523D02*
X117719999Y-45454761D01*
X117719999Y-45454761D02*
X117624761Y-45502380D01*
X117624761Y-45502380D02*
X117481904Y-45502380D01*
X117481904Y-45502380D02*
X117386666Y-45454761D01*
X117386666Y-45454761D02*
X117339047Y-45407142D01*
X116862856Y-44835714D02*
X116862856Y-45502380D01*
X116862856Y-44930952D02*
X116815237Y-44883333D01*
X116815237Y-44883333D02*
X116719999Y-44835714D01*
X116719999Y-44835714D02*
X116577142Y-44835714D01*
X116577142Y-44835714D02*
X116481904Y-44883333D01*
X116481904Y-44883333D02*
X116434285Y-44978571D01*
X116434285Y-44978571D02*
X116434285Y-45502380D01*
X116005713Y-45454761D02*
X115910475Y-45502380D01*
X115910475Y-45502380D02*
X115719999Y-45502380D01*
X115719999Y-45502380D02*
X115624761Y-45454761D01*
X115624761Y-45454761D02*
X115577142Y-45359523D01*
X115577142Y-45359523D02*
X115577142Y-45311904D01*
X115577142Y-45311904D02*
X115624761Y-45216666D01*
X115624761Y-45216666D02*
X115719999Y-45169047D01*
X115719999Y-45169047D02*
X115862856Y-45169047D01*
X115862856Y-45169047D02*
X115958094Y-45121428D01*
X115958094Y-45121428D02*
X116005713Y-45026190D01*
X116005713Y-45026190D02*
X116005713Y-44978571D01*
X116005713Y-44978571D02*
X115958094Y-44883333D01*
X115958094Y-44883333D02*
X115862856Y-44835714D01*
X115862856Y-44835714D02*
X115719999Y-44835714D01*
X115719999Y-44835714D02*
X115624761Y-44883333D01*
X114119999Y-45502380D02*
X114119999Y-44978571D01*
X114119999Y-44978571D02*
X114167618Y-44883333D01*
X114167618Y-44883333D02*
X114262856Y-44835714D01*
X114262856Y-44835714D02*
X114453332Y-44835714D01*
X114453332Y-44835714D02*
X114548570Y-44883333D01*
X114119999Y-45454761D02*
X114215237Y-45502380D01*
X114215237Y-45502380D02*
X114453332Y-45502380D01*
X114453332Y-45502380D02*
X114548570Y-45454761D01*
X114548570Y-45454761D02*
X114596189Y-45359523D01*
X114596189Y-45359523D02*
X114596189Y-45264285D01*
X114596189Y-45264285D02*
X114548570Y-45169047D01*
X114548570Y-45169047D02*
X114453332Y-45121428D01*
X114453332Y-45121428D02*
X114215237Y-45121428D01*
X114215237Y-45121428D02*
X114119999Y-45073809D01*
X113786665Y-44835714D02*
X113405713Y-44835714D01*
X113643808Y-44502380D02*
X113643808Y-45359523D01*
X113643808Y-45359523D02*
X113596189Y-45454761D01*
X113596189Y-45454761D02*
X113500951Y-45502380D01*
X113500951Y-45502380D02*
X113405713Y-45502380D01*
X112567617Y-44502380D02*
X111948570Y-44502380D01*
X111948570Y-44502380D02*
X112281903Y-44883333D01*
X112281903Y-44883333D02*
X112139046Y-44883333D01*
X112139046Y-44883333D02*
X112043808Y-44930952D01*
X112043808Y-44930952D02*
X111996189Y-44978571D01*
X111996189Y-44978571D02*
X111948570Y-45073809D01*
X111948570Y-45073809D02*
X111948570Y-45311904D01*
X111948570Y-45311904D02*
X111996189Y-45407142D01*
X111996189Y-45407142D02*
X112043808Y-45454761D01*
X112043808Y-45454761D02*
X112139046Y-45502380D01*
X112139046Y-45502380D02*
X112424760Y-45502380D01*
X112424760Y-45502380D02*
X112519998Y-45454761D01*
X112519998Y-45454761D02*
X112567617Y-45407142D01*
X111519998Y-45407142D02*
X111472379Y-45454761D01*
X111472379Y-45454761D02*
X111519998Y-45502380D01*
X111519998Y-45502380D02*
X111567617Y-45454761D01*
X111567617Y-45454761D02*
X111519998Y-45407142D01*
X111519998Y-45407142D02*
X111519998Y-45502380D01*
X111139046Y-44502380D02*
X110519999Y-44502380D01*
X110519999Y-44502380D02*
X110853332Y-44883333D01*
X110853332Y-44883333D02*
X110710475Y-44883333D01*
X110710475Y-44883333D02*
X110615237Y-44930952D01*
X110615237Y-44930952D02*
X110567618Y-44978571D01*
X110567618Y-44978571D02*
X110519999Y-45073809D01*
X110519999Y-45073809D02*
X110519999Y-45311904D01*
X110519999Y-45311904D02*
X110567618Y-45407142D01*
X110567618Y-45407142D02*
X110615237Y-45454761D01*
X110615237Y-45454761D02*
X110710475Y-45502380D01*
X110710475Y-45502380D02*
X110996189Y-45502380D01*
X110996189Y-45502380D02*
X111091427Y-45454761D01*
X111091427Y-45454761D02*
X111139046Y-45407142D01*
X110234284Y-44502380D02*
X109900951Y-45502380D01*
X109900951Y-45502380D02*
X109567618Y-44502380D01*
X108062856Y-45502380D02*
X108396189Y-45026190D01*
X108634284Y-45502380D02*
X108634284Y-44502380D01*
X108634284Y-44502380D02*
X108253332Y-44502380D01*
X108253332Y-44502380D02*
X108158094Y-44550000D01*
X108158094Y-44550000D02*
X108110475Y-44597619D01*
X108110475Y-44597619D02*
X108062856Y-44692857D01*
X108062856Y-44692857D02*
X108062856Y-44835714D01*
X108062856Y-44835714D02*
X108110475Y-44930952D01*
X108110475Y-44930952D02*
X108158094Y-44978571D01*
X108158094Y-44978571D02*
X108253332Y-45026190D01*
X108253332Y-45026190D02*
X108634284Y-45026190D01*
X107253332Y-45454761D02*
X107348570Y-45502380D01*
X107348570Y-45502380D02*
X107539046Y-45502380D01*
X107539046Y-45502380D02*
X107634284Y-45454761D01*
X107634284Y-45454761D02*
X107681903Y-45359523D01*
X107681903Y-45359523D02*
X107681903Y-44978571D01*
X107681903Y-44978571D02*
X107634284Y-44883333D01*
X107634284Y-44883333D02*
X107539046Y-44835714D01*
X107539046Y-44835714D02*
X107348570Y-44835714D01*
X107348570Y-44835714D02*
X107253332Y-44883333D01*
X107253332Y-44883333D02*
X107205713Y-44978571D01*
X107205713Y-44978571D02*
X107205713Y-45073809D01*
X107205713Y-45073809D02*
X107681903Y-45169047D01*
X106777141Y-44835714D02*
X106777141Y-45835714D01*
X106777141Y-44883333D02*
X106681903Y-44835714D01*
X106681903Y-44835714D02*
X106491427Y-44835714D01*
X106491427Y-44835714D02*
X106396189Y-44883333D01*
X106396189Y-44883333D02*
X106348570Y-44930952D01*
X106348570Y-44930952D02*
X106300951Y-45026190D01*
X106300951Y-45026190D02*
X106300951Y-45311904D01*
X106300951Y-45311904D02*
X106348570Y-45407142D01*
X106348570Y-45407142D02*
X106396189Y-45454761D01*
X106396189Y-45454761D02*
X106491427Y-45502380D01*
X106491427Y-45502380D02*
X106681903Y-45502380D01*
X106681903Y-45502380D02*
X106777141Y-45454761D01*
X105729522Y-45502380D02*
X105824760Y-45454761D01*
X105824760Y-45454761D02*
X105872379Y-45359523D01*
X105872379Y-45359523D02*
X105872379Y-44502380D01*
X104919998Y-45502380D02*
X104919998Y-44978571D01*
X104919998Y-44978571D02*
X104967617Y-44883333D01*
X104967617Y-44883333D02*
X105062855Y-44835714D01*
X105062855Y-44835714D02*
X105253331Y-44835714D01*
X105253331Y-44835714D02*
X105348569Y-44883333D01*
X104919998Y-45454761D02*
X105015236Y-45502380D01*
X105015236Y-45502380D02*
X105253331Y-45502380D01*
X105253331Y-45502380D02*
X105348569Y-45454761D01*
X105348569Y-45454761D02*
X105396188Y-45359523D01*
X105396188Y-45359523D02*
X105396188Y-45264285D01*
X105396188Y-45264285D02*
X105348569Y-45169047D01*
X105348569Y-45169047D02*
X105253331Y-45121428D01*
X105253331Y-45121428D02*
X105015236Y-45121428D01*
X105015236Y-45121428D02*
X104919998Y-45073809D01*
X104015236Y-45454761D02*
X104110474Y-45502380D01*
X104110474Y-45502380D02*
X104300950Y-45502380D01*
X104300950Y-45502380D02*
X104396188Y-45454761D01*
X104396188Y-45454761D02*
X104443807Y-45407142D01*
X104443807Y-45407142D02*
X104491426Y-45311904D01*
X104491426Y-45311904D02*
X104491426Y-45026190D01*
X104491426Y-45026190D02*
X104443807Y-44930952D01*
X104443807Y-44930952D02*
X104396188Y-44883333D01*
X104396188Y-44883333D02*
X104300950Y-44835714D01*
X104300950Y-44835714D02*
X104110474Y-44835714D01*
X104110474Y-44835714D02*
X104015236Y-44883333D01*
X103205712Y-45454761D02*
X103300950Y-45502380D01*
X103300950Y-45502380D02*
X103491426Y-45502380D01*
X103491426Y-45502380D02*
X103586664Y-45454761D01*
X103586664Y-45454761D02*
X103634283Y-45359523D01*
X103634283Y-45359523D02*
X103634283Y-44978571D01*
X103634283Y-44978571D02*
X103586664Y-44883333D01*
X103586664Y-44883333D02*
X103491426Y-44835714D01*
X103491426Y-44835714D02*
X103300950Y-44835714D01*
X103300950Y-44835714D02*
X103205712Y-44883333D01*
X103205712Y-44883333D02*
X103158093Y-44978571D01*
X103158093Y-44978571D02*
X103158093Y-45073809D01*
X103158093Y-45073809D02*
X103634283Y-45169047D01*
X101558093Y-45502380D02*
X101891426Y-45026190D01*
X102129521Y-45502380D02*
X102129521Y-44502380D01*
X102129521Y-44502380D02*
X101748569Y-44502380D01*
X101748569Y-44502380D02*
X101653331Y-44550000D01*
X101653331Y-44550000D02*
X101605712Y-44597619D01*
X101605712Y-44597619D02*
X101558093Y-44692857D01*
X101558093Y-44692857D02*
X101558093Y-44835714D01*
X101558093Y-44835714D02*
X101605712Y-44930952D01*
X101605712Y-44930952D02*
X101653331Y-44978571D01*
X101653331Y-44978571D02*
X101748569Y-45026190D01*
X101748569Y-45026190D02*
X102129521Y-45026190D01*
X100605712Y-45502380D02*
X101177140Y-45502380D01*
X100891426Y-45502380D02*
X100891426Y-44502380D01*
X100891426Y-44502380D02*
X100986664Y-44645238D01*
X100986664Y-44645238D02*
X101081902Y-44740476D01*
X101081902Y-44740476D02*
X101177140Y-44788095D01*
X99719997Y-44835714D02*
X99339045Y-44835714D01*
X99577140Y-44502380D02*
X99577140Y-45359523D01*
X99577140Y-45359523D02*
X99529521Y-45454761D01*
X99529521Y-45454761D02*
X99434283Y-45502380D01*
X99434283Y-45502380D02*
X99339045Y-45502380D01*
X98862854Y-45502380D02*
X98958092Y-45454761D01*
X98958092Y-45454761D02*
X99005711Y-45407142D01*
X99005711Y-45407142D02*
X99053330Y-45311904D01*
X99053330Y-45311904D02*
X99053330Y-45026190D01*
X99053330Y-45026190D02*
X99005711Y-44930952D01*
X99005711Y-44930952D02*
X98958092Y-44883333D01*
X98958092Y-44883333D02*
X98862854Y-44835714D01*
X98862854Y-44835714D02*
X98719997Y-44835714D01*
X98719997Y-44835714D02*
X98624759Y-44883333D01*
X98624759Y-44883333D02*
X98577140Y-44930952D01*
X98577140Y-44930952D02*
X98529521Y-45026190D01*
X98529521Y-45026190D02*
X98529521Y-45311904D01*
X98529521Y-45311904D02*
X98577140Y-45407142D01*
X98577140Y-45407142D02*
X98624759Y-45454761D01*
X98624759Y-45454761D02*
X98719997Y-45502380D01*
X98719997Y-45502380D02*
X98862854Y-45502380D01*
X97072378Y-45502380D02*
X97072378Y-44978571D01*
X97072378Y-44978571D02*
X97119997Y-44883333D01*
X97119997Y-44883333D02*
X97215235Y-44835714D01*
X97215235Y-44835714D02*
X97405711Y-44835714D01*
X97405711Y-44835714D02*
X97500949Y-44883333D01*
X97072378Y-45454761D02*
X97167616Y-45502380D01*
X97167616Y-45502380D02*
X97405711Y-45502380D01*
X97405711Y-45502380D02*
X97500949Y-45454761D01*
X97500949Y-45454761D02*
X97548568Y-45359523D01*
X97548568Y-45359523D02*
X97548568Y-45264285D01*
X97548568Y-45264285D02*
X97500949Y-45169047D01*
X97500949Y-45169047D02*
X97405711Y-45121428D01*
X97405711Y-45121428D02*
X97167616Y-45121428D01*
X97167616Y-45121428D02*
X97072378Y-45073809D01*
X95472378Y-45502380D02*
X96043806Y-45502380D01*
X95758092Y-45502380D02*
X95758092Y-44502380D01*
X95758092Y-44502380D02*
X95853330Y-44645238D01*
X95853330Y-44645238D02*
X95948568Y-44740476D01*
X95948568Y-44740476D02*
X96043806Y-44788095D01*
X95043806Y-45502380D02*
X95043806Y-44502380D01*
X94472378Y-45502380D02*
X94900949Y-44930952D01*
X94472378Y-44502380D02*
X95043806Y-45073809D01*
X93300949Y-45502380D02*
X93396187Y-45454761D01*
X93396187Y-45454761D02*
X93443806Y-45407142D01*
X93443806Y-45407142D02*
X93491425Y-45311904D01*
X93491425Y-45311904D02*
X93491425Y-45026190D01*
X93491425Y-45026190D02*
X93443806Y-44930952D01*
X93443806Y-44930952D02*
X93396187Y-44883333D01*
X93396187Y-44883333D02*
X93300949Y-44835714D01*
X93300949Y-44835714D02*
X93158092Y-44835714D01*
X93158092Y-44835714D02*
X93062854Y-44883333D01*
X93062854Y-44883333D02*
X93015235Y-44930952D01*
X93015235Y-44930952D02*
X92967616Y-45026190D01*
X92967616Y-45026190D02*
X92967616Y-45311904D01*
X92967616Y-45311904D02*
X93015235Y-45407142D01*
X93015235Y-45407142D02*
X93062854Y-45454761D01*
X93062854Y-45454761D02*
X93158092Y-45502380D01*
X93158092Y-45502380D02*
X93300949Y-45502380D01*
X92539044Y-45502380D02*
X92539044Y-44502380D01*
X92110473Y-45502380D02*
X92110473Y-44978571D01*
X92110473Y-44978571D02*
X92158092Y-44883333D01*
X92158092Y-44883333D02*
X92253330Y-44835714D01*
X92253330Y-44835714D02*
X92396187Y-44835714D01*
X92396187Y-44835714D02*
X92491425Y-44883333D01*
X92491425Y-44883333D02*
X92539044Y-44930952D01*
X91634282Y-45502380D02*
X91634282Y-44835714D01*
X91634282Y-44930952D02*
X91586663Y-44883333D01*
X91586663Y-44883333D02*
X91491425Y-44835714D01*
X91491425Y-44835714D02*
X91348568Y-44835714D01*
X91348568Y-44835714D02*
X91253330Y-44883333D01*
X91253330Y-44883333D02*
X91205711Y-44978571D01*
X91205711Y-44978571D02*
X91205711Y-45502380D01*
X91205711Y-44978571D02*
X91158092Y-44883333D01*
X91158092Y-44883333D02*
X91062854Y-44835714D01*
X91062854Y-44835714D02*
X90919997Y-44835714D01*
X90919997Y-44835714D02*
X90824758Y-44883333D01*
X90824758Y-44883333D02*
X90777139Y-44978571D01*
X90777139Y-44978571D02*
X90777139Y-45502380D01*
X90348568Y-45454761D02*
X90253330Y-45502380D01*
X90253330Y-45502380D02*
X90062854Y-45502380D01*
X90062854Y-45502380D02*
X89967616Y-45454761D01*
X89967616Y-45454761D02*
X89919997Y-45359523D01*
X89919997Y-45359523D02*
X89919997Y-45311904D01*
X89919997Y-45311904D02*
X89967616Y-45216666D01*
X89967616Y-45216666D02*
X90062854Y-45169047D01*
X90062854Y-45169047D02*
X90205711Y-45169047D01*
X90205711Y-45169047D02*
X90300949Y-45121428D01*
X90300949Y-45121428D02*
X90348568Y-45026190D01*
X90348568Y-45026190D02*
X90348568Y-44978571D01*
X90348568Y-44978571D02*
X90300949Y-44883333D01*
X90300949Y-44883333D02*
X90205711Y-44835714D01*
X90205711Y-44835714D02*
X90062854Y-44835714D01*
X90062854Y-44835714D02*
X89967616Y-44883333D01*
X88891425Y-45502380D02*
X88891425Y-44835714D01*
X88891425Y-45026190D02*
X88843806Y-44930952D01*
X88843806Y-44930952D02*
X88796187Y-44883333D01*
X88796187Y-44883333D02*
X88700949Y-44835714D01*
X88700949Y-44835714D02*
X88605711Y-44835714D01*
X87891425Y-45454761D02*
X87986663Y-45502380D01*
X87986663Y-45502380D02*
X88177139Y-45502380D01*
X88177139Y-45502380D02*
X88272377Y-45454761D01*
X88272377Y-45454761D02*
X88319996Y-45359523D01*
X88319996Y-45359523D02*
X88319996Y-44978571D01*
X88319996Y-44978571D02*
X88272377Y-44883333D01*
X88272377Y-44883333D02*
X88177139Y-44835714D01*
X88177139Y-44835714D02*
X87986663Y-44835714D01*
X87986663Y-44835714D02*
X87891425Y-44883333D01*
X87891425Y-44883333D02*
X87843806Y-44978571D01*
X87843806Y-44978571D02*
X87843806Y-45073809D01*
X87843806Y-45073809D02*
X88319996Y-45169047D01*
X87462853Y-45454761D02*
X87367615Y-45502380D01*
X87367615Y-45502380D02*
X87177139Y-45502380D01*
X87177139Y-45502380D02*
X87081901Y-45454761D01*
X87081901Y-45454761D02*
X87034282Y-45359523D01*
X87034282Y-45359523D02*
X87034282Y-45311904D01*
X87034282Y-45311904D02*
X87081901Y-45216666D01*
X87081901Y-45216666D02*
X87177139Y-45169047D01*
X87177139Y-45169047D02*
X87319996Y-45169047D01*
X87319996Y-45169047D02*
X87415234Y-45121428D01*
X87415234Y-45121428D02*
X87462853Y-45026190D01*
X87462853Y-45026190D02*
X87462853Y-44978571D01*
X87462853Y-44978571D02*
X87415234Y-44883333D01*
X87415234Y-44883333D02*
X87319996Y-44835714D01*
X87319996Y-44835714D02*
X87177139Y-44835714D01*
X87177139Y-44835714D02*
X87081901Y-44883333D01*
X86605710Y-45502380D02*
X86605710Y-44835714D01*
X86605710Y-44502380D02*
X86653329Y-44550000D01*
X86653329Y-44550000D02*
X86605710Y-44597619D01*
X86605710Y-44597619D02*
X86558091Y-44550000D01*
X86558091Y-44550000D02*
X86605710Y-44502380D01*
X86605710Y-44502380D02*
X86605710Y-44597619D01*
X86177139Y-45454761D02*
X86081901Y-45502380D01*
X86081901Y-45502380D02*
X85891425Y-45502380D01*
X85891425Y-45502380D02*
X85796187Y-45454761D01*
X85796187Y-45454761D02*
X85748568Y-45359523D01*
X85748568Y-45359523D02*
X85748568Y-45311904D01*
X85748568Y-45311904D02*
X85796187Y-45216666D01*
X85796187Y-45216666D02*
X85891425Y-45169047D01*
X85891425Y-45169047D02*
X86034282Y-45169047D01*
X86034282Y-45169047D02*
X86129520Y-45121428D01*
X86129520Y-45121428D02*
X86177139Y-45026190D01*
X86177139Y-45026190D02*
X86177139Y-44978571D01*
X86177139Y-44978571D02*
X86129520Y-44883333D01*
X86129520Y-44883333D02*
X86034282Y-44835714D01*
X86034282Y-44835714D02*
X85891425Y-44835714D01*
X85891425Y-44835714D02*
X85796187Y-44883333D01*
X85462853Y-44835714D02*
X85081901Y-44835714D01*
X85319996Y-44502380D02*
X85319996Y-45359523D01*
X85319996Y-45359523D02*
X85272377Y-45454761D01*
X85272377Y-45454761D02*
X85177139Y-45502380D01*
X85177139Y-45502380D02*
X85081901Y-45502380D01*
X84605710Y-45502380D02*
X84700948Y-45454761D01*
X84700948Y-45454761D02*
X84748567Y-45407142D01*
X84748567Y-45407142D02*
X84796186Y-45311904D01*
X84796186Y-45311904D02*
X84796186Y-45026190D01*
X84796186Y-45026190D02*
X84748567Y-44930952D01*
X84748567Y-44930952D02*
X84700948Y-44883333D01*
X84700948Y-44883333D02*
X84605710Y-44835714D01*
X84605710Y-44835714D02*
X84462853Y-44835714D01*
X84462853Y-44835714D02*
X84367615Y-44883333D01*
X84367615Y-44883333D02*
X84319996Y-44930952D01*
X84319996Y-44930952D02*
X84272377Y-45026190D01*
X84272377Y-45026190D02*
X84272377Y-45311904D01*
X84272377Y-45311904D02*
X84319996Y-45407142D01*
X84319996Y-45407142D02*
X84367615Y-45454761D01*
X84367615Y-45454761D02*
X84462853Y-45502380D01*
X84462853Y-45502380D02*
X84605710Y-45502380D01*
X83843805Y-45502380D02*
X83843805Y-44835714D01*
X83843805Y-45026190D02*
X83796186Y-44930952D01*
X83796186Y-44930952D02*
X83748567Y-44883333D01*
X83748567Y-44883333D02*
X83653329Y-44835714D01*
X83653329Y-44835714D02*
X83558091Y-44835714D01*
X83224757Y-45407142D02*
X83177138Y-45454761D01*
X83177138Y-45454761D02*
X83224757Y-45502380D01*
X83224757Y-45502380D02*
X83272376Y-45454761D01*
X83272376Y-45454761D02*
X83224757Y-45407142D01*
X83224757Y-45407142D02*
X83224757Y-45502380D01*
M02*
