%TF.GenerationSoftware,KiCad,Pcbnew,(7.0.0)*%
%TF.CreationDate,2023-08-25T10:25:36+02:00*%
%TF.ProjectId,PCH-1000JIG_0805_Nano_5V,5043482d-3130-4303-904a-49475f303830,rev?*%
%TF.SameCoordinates,Original*%
%TF.FileFunction,Legend,Top*%
%TF.FilePolarity,Positive*%
%FSLAX46Y46*%
G04 Gerber Fmt 4.6, Leading zero omitted, Abs format (unit mm)*
G04 Created by KiCad (PCBNEW (7.0.0)) date 2023-08-25 10:25:36*
%MOMM*%
%LPD*%
G01*
G04 APERTURE LIST*
%ADD10C,0.125000*%
%ADD11C,0.120000*%
G04 APERTURE END LIST*
D10*
%TO.C,UDC12*%
X48983690Y-36679047D02*
X49388452Y-36679047D01*
X49388452Y-36679047D02*
X49436071Y-36655237D01*
X49436071Y-36655237D02*
X49459880Y-36631428D01*
X49459880Y-36631428D02*
X49483690Y-36583809D01*
X49483690Y-36583809D02*
X49483690Y-36488571D01*
X49483690Y-36488571D02*
X49459880Y-36440952D01*
X49459880Y-36440952D02*
X49436071Y-36417142D01*
X49436071Y-36417142D02*
X49388452Y-36393333D01*
X49388452Y-36393333D02*
X48983690Y-36393333D01*
X49483690Y-36155237D02*
X48983690Y-36155237D01*
X48983690Y-36155237D02*
X48983690Y-36036189D01*
X48983690Y-36036189D02*
X49007500Y-35964761D01*
X49007500Y-35964761D02*
X49055119Y-35917142D01*
X49055119Y-35917142D02*
X49102738Y-35893332D01*
X49102738Y-35893332D02*
X49197976Y-35869523D01*
X49197976Y-35869523D02*
X49269404Y-35869523D01*
X49269404Y-35869523D02*
X49364642Y-35893332D01*
X49364642Y-35893332D02*
X49412261Y-35917142D01*
X49412261Y-35917142D02*
X49459880Y-35964761D01*
X49459880Y-35964761D02*
X49483690Y-36036189D01*
X49483690Y-36036189D02*
X49483690Y-36155237D01*
X49436071Y-35369523D02*
X49459880Y-35393332D01*
X49459880Y-35393332D02*
X49483690Y-35464761D01*
X49483690Y-35464761D02*
X49483690Y-35512380D01*
X49483690Y-35512380D02*
X49459880Y-35583808D01*
X49459880Y-35583808D02*
X49412261Y-35631427D01*
X49412261Y-35631427D02*
X49364642Y-35655237D01*
X49364642Y-35655237D02*
X49269404Y-35679046D01*
X49269404Y-35679046D02*
X49197976Y-35679046D01*
X49197976Y-35679046D02*
X49102738Y-35655237D01*
X49102738Y-35655237D02*
X49055119Y-35631427D01*
X49055119Y-35631427D02*
X49007500Y-35583808D01*
X49007500Y-35583808D02*
X48983690Y-35512380D01*
X48983690Y-35512380D02*
X48983690Y-35464761D01*
X48983690Y-35464761D02*
X49007500Y-35393332D01*
X49007500Y-35393332D02*
X49031309Y-35369523D01*
X49483690Y-34893332D02*
X49483690Y-35179046D01*
X49483690Y-35036189D02*
X48983690Y-35036189D01*
X48983690Y-35036189D02*
X49055119Y-35083808D01*
X49055119Y-35083808D02*
X49102738Y-35131427D01*
X49102738Y-35131427D02*
X49126547Y-35179046D01*
X49031309Y-34702856D02*
X49007500Y-34679047D01*
X49007500Y-34679047D02*
X48983690Y-34631428D01*
X48983690Y-34631428D02*
X48983690Y-34512380D01*
X48983690Y-34512380D02*
X49007500Y-34464761D01*
X49007500Y-34464761D02*
X49031309Y-34440952D01*
X49031309Y-34440952D02*
X49078928Y-34417142D01*
X49078928Y-34417142D02*
X49126547Y-34417142D01*
X49126547Y-34417142D02*
X49197976Y-34440952D01*
X49197976Y-34440952D02*
X49483690Y-34726666D01*
X49483690Y-34726666D02*
X49483690Y-34417142D01*
%TO.C,1K*%
X45612857Y-37743690D02*
X45327143Y-37743690D01*
X45470000Y-37743690D02*
X45470000Y-37243690D01*
X45470000Y-37243690D02*
X45422381Y-37315119D01*
X45422381Y-37315119D02*
X45374762Y-37362738D01*
X45374762Y-37362738D02*
X45327143Y-37386547D01*
X45827142Y-37743690D02*
X45827142Y-37243690D01*
X46112856Y-37743690D02*
X45898571Y-37457976D01*
X46112856Y-37243690D02*
X45827142Y-37529404D01*
X43072857Y-37683690D02*
X42787143Y-37683690D01*
X42930000Y-37683690D02*
X42930000Y-37183690D01*
X42930000Y-37183690D02*
X42882381Y-37255119D01*
X42882381Y-37255119D02*
X42834762Y-37302738D01*
X42834762Y-37302738D02*
X42787143Y-37326547D01*
X43287142Y-37683690D02*
X43287142Y-37183690D01*
X43572856Y-37683690D02*
X43358571Y-37397976D01*
X43572856Y-37183690D02*
X43287142Y-37469404D01*
%TO.C,150*%
X48606667Y-37743690D02*
X48320953Y-37743690D01*
X48463810Y-37743690D02*
X48463810Y-37243690D01*
X48463810Y-37243690D02*
X48416191Y-37315119D01*
X48416191Y-37315119D02*
X48368572Y-37362738D01*
X48368572Y-37362738D02*
X48320953Y-37386547D01*
X49059047Y-37243690D02*
X48820952Y-37243690D01*
X48820952Y-37243690D02*
X48797143Y-37481785D01*
X48797143Y-37481785D02*
X48820952Y-37457976D01*
X48820952Y-37457976D02*
X48868571Y-37434166D01*
X48868571Y-37434166D02*
X48987619Y-37434166D01*
X48987619Y-37434166D02*
X49035238Y-37457976D01*
X49035238Y-37457976D02*
X49059047Y-37481785D01*
X49059047Y-37481785D02*
X49082857Y-37529404D01*
X49082857Y-37529404D02*
X49082857Y-37648452D01*
X49082857Y-37648452D02*
X49059047Y-37696071D01*
X49059047Y-37696071D02*
X49035238Y-37719880D01*
X49035238Y-37719880D02*
X48987619Y-37743690D01*
X48987619Y-37743690D02*
X48868571Y-37743690D01*
X48868571Y-37743690D02*
X48820952Y-37719880D01*
X48820952Y-37719880D02*
X48797143Y-37696071D01*
X49392380Y-37243690D02*
X49439999Y-37243690D01*
X49439999Y-37243690D02*
X49487618Y-37267500D01*
X49487618Y-37267500D02*
X49511428Y-37291309D01*
X49511428Y-37291309D02*
X49535237Y-37338928D01*
X49535237Y-37338928D02*
X49559047Y-37434166D01*
X49559047Y-37434166D02*
X49559047Y-37553214D01*
X49559047Y-37553214D02*
X49535237Y-37648452D01*
X49535237Y-37648452D02*
X49511428Y-37696071D01*
X49511428Y-37696071D02*
X49487618Y-37719880D01*
X49487618Y-37719880D02*
X49439999Y-37743690D01*
X49439999Y-37743690D02*
X49392380Y-37743690D01*
X49392380Y-37743690D02*
X49344761Y-37719880D01*
X49344761Y-37719880D02*
X49320952Y-37696071D01*
X49320952Y-37696071D02*
X49297142Y-37648452D01*
X49297142Y-37648452D02*
X49273333Y-37553214D01*
X49273333Y-37553214D02*
X49273333Y-37434166D01*
X49273333Y-37434166D02*
X49297142Y-37338928D01*
X49297142Y-37338928D02*
X49320952Y-37291309D01*
X49320952Y-37291309D02*
X49344761Y-37267500D01*
X49344761Y-37267500D02*
X49392380Y-37243690D01*
%TO.C,UDC11*%
X45983690Y-36679047D02*
X46388452Y-36679047D01*
X46388452Y-36679047D02*
X46436071Y-36655237D01*
X46436071Y-36655237D02*
X46459880Y-36631428D01*
X46459880Y-36631428D02*
X46483690Y-36583809D01*
X46483690Y-36583809D02*
X46483690Y-36488571D01*
X46483690Y-36488571D02*
X46459880Y-36440952D01*
X46459880Y-36440952D02*
X46436071Y-36417142D01*
X46436071Y-36417142D02*
X46388452Y-36393333D01*
X46388452Y-36393333D02*
X45983690Y-36393333D01*
X46483690Y-36155237D02*
X45983690Y-36155237D01*
X45983690Y-36155237D02*
X45983690Y-36036189D01*
X45983690Y-36036189D02*
X46007500Y-35964761D01*
X46007500Y-35964761D02*
X46055119Y-35917142D01*
X46055119Y-35917142D02*
X46102738Y-35893332D01*
X46102738Y-35893332D02*
X46197976Y-35869523D01*
X46197976Y-35869523D02*
X46269404Y-35869523D01*
X46269404Y-35869523D02*
X46364642Y-35893332D01*
X46364642Y-35893332D02*
X46412261Y-35917142D01*
X46412261Y-35917142D02*
X46459880Y-35964761D01*
X46459880Y-35964761D02*
X46483690Y-36036189D01*
X46483690Y-36036189D02*
X46483690Y-36155237D01*
X46436071Y-35369523D02*
X46459880Y-35393332D01*
X46459880Y-35393332D02*
X46483690Y-35464761D01*
X46483690Y-35464761D02*
X46483690Y-35512380D01*
X46483690Y-35512380D02*
X46459880Y-35583808D01*
X46459880Y-35583808D02*
X46412261Y-35631427D01*
X46412261Y-35631427D02*
X46364642Y-35655237D01*
X46364642Y-35655237D02*
X46269404Y-35679046D01*
X46269404Y-35679046D02*
X46197976Y-35679046D01*
X46197976Y-35679046D02*
X46102738Y-35655237D01*
X46102738Y-35655237D02*
X46055119Y-35631427D01*
X46055119Y-35631427D02*
X46007500Y-35583808D01*
X46007500Y-35583808D02*
X45983690Y-35512380D01*
X45983690Y-35512380D02*
X45983690Y-35464761D01*
X45983690Y-35464761D02*
X46007500Y-35393332D01*
X46007500Y-35393332D02*
X46031309Y-35369523D01*
X46483690Y-34893332D02*
X46483690Y-35179046D01*
X46483690Y-35036189D02*
X45983690Y-35036189D01*
X45983690Y-35036189D02*
X46055119Y-35083808D01*
X46055119Y-35083808D02*
X46102738Y-35131427D01*
X46102738Y-35131427D02*
X46126547Y-35179046D01*
X46483690Y-34417142D02*
X46483690Y-34702856D01*
X46483690Y-34559999D02*
X45983690Y-34559999D01*
X45983690Y-34559999D02*
X46055119Y-34607618D01*
X46055119Y-34607618D02*
X46102738Y-34655237D01*
X46102738Y-34655237D02*
X46126547Y-34702856D01*
%TO.C,2K*%
X40247143Y-37231309D02*
X40270952Y-37207500D01*
X40270952Y-37207500D02*
X40318571Y-37183690D01*
X40318571Y-37183690D02*
X40437619Y-37183690D01*
X40437619Y-37183690D02*
X40485238Y-37207500D01*
X40485238Y-37207500D02*
X40509047Y-37231309D01*
X40509047Y-37231309D02*
X40532857Y-37278928D01*
X40532857Y-37278928D02*
X40532857Y-37326547D01*
X40532857Y-37326547D02*
X40509047Y-37397976D01*
X40509047Y-37397976D02*
X40223333Y-37683690D01*
X40223333Y-37683690D02*
X40532857Y-37683690D01*
X40747142Y-37683690D02*
X40747142Y-37183690D01*
X41032856Y-37683690D02*
X40818571Y-37397976D01*
X41032856Y-37183690D02*
X40747142Y-37469404D01*
%TO.C,5V*%
X49704762Y-43007380D02*
X49466667Y-43007380D01*
X49466667Y-43007380D02*
X49442858Y-43483571D01*
X49442858Y-43483571D02*
X49466667Y-43435952D01*
X49466667Y-43435952D02*
X49514286Y-43388333D01*
X49514286Y-43388333D02*
X49633334Y-43388333D01*
X49633334Y-43388333D02*
X49680953Y-43435952D01*
X49680953Y-43435952D02*
X49704762Y-43483571D01*
X49704762Y-43483571D02*
X49728572Y-43578809D01*
X49728572Y-43578809D02*
X49728572Y-43816904D01*
X49728572Y-43816904D02*
X49704762Y-43912142D01*
X49704762Y-43912142D02*
X49680953Y-43959761D01*
X49680953Y-43959761D02*
X49633334Y-44007380D01*
X49633334Y-44007380D02*
X49514286Y-44007380D01*
X49514286Y-44007380D02*
X49466667Y-43959761D01*
X49466667Y-43959761D02*
X49442858Y-43912142D01*
X49871429Y-43007380D02*
X50038095Y-44007380D01*
X50038095Y-44007380D02*
X50204762Y-43007380D01*
%TO.C,UDC7/TX*%
X43083690Y-37131428D02*
X43488452Y-37131428D01*
X43488452Y-37131428D02*
X43536071Y-37107618D01*
X43536071Y-37107618D02*
X43559880Y-37083809D01*
X43559880Y-37083809D02*
X43583690Y-37036190D01*
X43583690Y-37036190D02*
X43583690Y-36940952D01*
X43583690Y-36940952D02*
X43559880Y-36893333D01*
X43559880Y-36893333D02*
X43536071Y-36869523D01*
X43536071Y-36869523D02*
X43488452Y-36845714D01*
X43488452Y-36845714D02*
X43083690Y-36845714D01*
X43583690Y-36607618D02*
X43083690Y-36607618D01*
X43083690Y-36607618D02*
X43083690Y-36488570D01*
X43083690Y-36488570D02*
X43107500Y-36417142D01*
X43107500Y-36417142D02*
X43155119Y-36369523D01*
X43155119Y-36369523D02*
X43202738Y-36345713D01*
X43202738Y-36345713D02*
X43297976Y-36321904D01*
X43297976Y-36321904D02*
X43369404Y-36321904D01*
X43369404Y-36321904D02*
X43464642Y-36345713D01*
X43464642Y-36345713D02*
X43512261Y-36369523D01*
X43512261Y-36369523D02*
X43559880Y-36417142D01*
X43559880Y-36417142D02*
X43583690Y-36488570D01*
X43583690Y-36488570D02*
X43583690Y-36607618D01*
X43536071Y-35821904D02*
X43559880Y-35845713D01*
X43559880Y-35845713D02*
X43583690Y-35917142D01*
X43583690Y-35917142D02*
X43583690Y-35964761D01*
X43583690Y-35964761D02*
X43559880Y-36036189D01*
X43559880Y-36036189D02*
X43512261Y-36083808D01*
X43512261Y-36083808D02*
X43464642Y-36107618D01*
X43464642Y-36107618D02*
X43369404Y-36131427D01*
X43369404Y-36131427D02*
X43297976Y-36131427D01*
X43297976Y-36131427D02*
X43202738Y-36107618D01*
X43202738Y-36107618D02*
X43155119Y-36083808D01*
X43155119Y-36083808D02*
X43107500Y-36036189D01*
X43107500Y-36036189D02*
X43083690Y-35964761D01*
X43083690Y-35964761D02*
X43083690Y-35917142D01*
X43083690Y-35917142D02*
X43107500Y-35845713D01*
X43107500Y-35845713D02*
X43131309Y-35821904D01*
X43083690Y-35655237D02*
X43083690Y-35321904D01*
X43083690Y-35321904D02*
X43583690Y-35536189D01*
X43059880Y-34774285D02*
X43702738Y-35202856D01*
X43083690Y-34679046D02*
X43083690Y-34393332D01*
X43583690Y-34536189D02*
X43083690Y-34536189D01*
X43083690Y-34274285D02*
X43583690Y-33940952D01*
X43083690Y-33940952D02*
X43583690Y-34274285D01*
%TO.C,PC RX*%
X45320952Y-44007380D02*
X45320952Y-43007380D01*
X45320952Y-43007380D02*
X45511428Y-43007380D01*
X45511428Y-43007380D02*
X45559047Y-43055000D01*
X45559047Y-43055000D02*
X45582857Y-43102619D01*
X45582857Y-43102619D02*
X45606666Y-43197857D01*
X45606666Y-43197857D02*
X45606666Y-43340714D01*
X45606666Y-43340714D02*
X45582857Y-43435952D01*
X45582857Y-43435952D02*
X45559047Y-43483571D01*
X45559047Y-43483571D02*
X45511428Y-43531190D01*
X45511428Y-43531190D02*
X45320952Y-43531190D01*
X46106666Y-43912142D02*
X46082857Y-43959761D01*
X46082857Y-43959761D02*
X46011428Y-44007380D01*
X46011428Y-44007380D02*
X45963809Y-44007380D01*
X45963809Y-44007380D02*
X45892381Y-43959761D01*
X45892381Y-43959761D02*
X45844762Y-43864523D01*
X45844762Y-43864523D02*
X45820952Y-43769285D01*
X45820952Y-43769285D02*
X45797143Y-43578809D01*
X45797143Y-43578809D02*
X45797143Y-43435952D01*
X45797143Y-43435952D02*
X45820952Y-43245476D01*
X45820952Y-43245476D02*
X45844762Y-43150238D01*
X45844762Y-43150238D02*
X45892381Y-43055000D01*
X45892381Y-43055000D02*
X45963809Y-43007380D01*
X45963809Y-43007380D02*
X46011428Y-43007380D01*
X46011428Y-43007380D02*
X46082857Y-43055000D01*
X46082857Y-43055000D02*
X46106666Y-43102619D01*
X46906666Y-44007380D02*
X46740000Y-43531190D01*
X46620952Y-44007380D02*
X46620952Y-43007380D01*
X46620952Y-43007380D02*
X46811428Y-43007380D01*
X46811428Y-43007380D02*
X46859047Y-43055000D01*
X46859047Y-43055000D02*
X46882857Y-43102619D01*
X46882857Y-43102619D02*
X46906666Y-43197857D01*
X46906666Y-43197857D02*
X46906666Y-43340714D01*
X46906666Y-43340714D02*
X46882857Y-43435952D01*
X46882857Y-43435952D02*
X46859047Y-43483571D01*
X46859047Y-43483571D02*
X46811428Y-43531190D01*
X46811428Y-43531190D02*
X46620952Y-43531190D01*
X47073333Y-43007380D02*
X47406666Y-44007380D01*
X47406666Y-43007380D02*
X47073333Y-44007380D01*
%TO.C,GND*%
X52619047Y-43055000D02*
X52571428Y-43007380D01*
X52571428Y-43007380D02*
X52499999Y-43007380D01*
X52499999Y-43007380D02*
X52428571Y-43055000D01*
X52428571Y-43055000D02*
X52380952Y-43150238D01*
X52380952Y-43150238D02*
X52357142Y-43245476D01*
X52357142Y-43245476D02*
X52333333Y-43435952D01*
X52333333Y-43435952D02*
X52333333Y-43578809D01*
X52333333Y-43578809D02*
X52357142Y-43769285D01*
X52357142Y-43769285D02*
X52380952Y-43864523D01*
X52380952Y-43864523D02*
X52428571Y-43959761D01*
X52428571Y-43959761D02*
X52499999Y-44007380D01*
X52499999Y-44007380D02*
X52547618Y-44007380D01*
X52547618Y-44007380D02*
X52619047Y-43959761D01*
X52619047Y-43959761D02*
X52642856Y-43912142D01*
X52642856Y-43912142D02*
X52642856Y-43578809D01*
X52642856Y-43578809D02*
X52547618Y-43578809D01*
X52857142Y-44007380D02*
X52857142Y-43007380D01*
X52857142Y-43007380D02*
X53142856Y-44007380D01*
X53142856Y-44007380D02*
X53142856Y-43007380D01*
X53380952Y-44007380D02*
X53380952Y-43007380D01*
X53380952Y-43007380D02*
X53500000Y-43007380D01*
X53500000Y-43007380D02*
X53571428Y-43055000D01*
X53571428Y-43055000D02*
X53619047Y-43150238D01*
X53619047Y-43150238D02*
X53642857Y-43245476D01*
X53642857Y-43245476D02*
X53666666Y-43435952D01*
X53666666Y-43435952D02*
X53666666Y-43578809D01*
X53666666Y-43578809D02*
X53642857Y-43769285D01*
X53642857Y-43769285D02*
X53619047Y-43864523D01*
X53619047Y-43864523D02*
X53571428Y-43959761D01*
X53571428Y-43959761D02*
X53500000Y-44007380D01*
X53500000Y-44007380D02*
X53380952Y-44007380D01*
%TO.C,UDC6/RX*%
X41483690Y-37190952D02*
X41888452Y-37190952D01*
X41888452Y-37190952D02*
X41936071Y-37167142D01*
X41936071Y-37167142D02*
X41959880Y-37143333D01*
X41959880Y-37143333D02*
X41983690Y-37095714D01*
X41983690Y-37095714D02*
X41983690Y-37000476D01*
X41983690Y-37000476D02*
X41959880Y-36952857D01*
X41959880Y-36952857D02*
X41936071Y-36929047D01*
X41936071Y-36929047D02*
X41888452Y-36905238D01*
X41888452Y-36905238D02*
X41483690Y-36905238D01*
X41983690Y-36667142D02*
X41483690Y-36667142D01*
X41483690Y-36667142D02*
X41483690Y-36548094D01*
X41483690Y-36548094D02*
X41507500Y-36476666D01*
X41507500Y-36476666D02*
X41555119Y-36429047D01*
X41555119Y-36429047D02*
X41602738Y-36405237D01*
X41602738Y-36405237D02*
X41697976Y-36381428D01*
X41697976Y-36381428D02*
X41769404Y-36381428D01*
X41769404Y-36381428D02*
X41864642Y-36405237D01*
X41864642Y-36405237D02*
X41912261Y-36429047D01*
X41912261Y-36429047D02*
X41959880Y-36476666D01*
X41959880Y-36476666D02*
X41983690Y-36548094D01*
X41983690Y-36548094D02*
X41983690Y-36667142D01*
X41936071Y-35881428D02*
X41959880Y-35905237D01*
X41959880Y-35905237D02*
X41983690Y-35976666D01*
X41983690Y-35976666D02*
X41983690Y-36024285D01*
X41983690Y-36024285D02*
X41959880Y-36095713D01*
X41959880Y-36095713D02*
X41912261Y-36143332D01*
X41912261Y-36143332D02*
X41864642Y-36167142D01*
X41864642Y-36167142D02*
X41769404Y-36190951D01*
X41769404Y-36190951D02*
X41697976Y-36190951D01*
X41697976Y-36190951D02*
X41602738Y-36167142D01*
X41602738Y-36167142D02*
X41555119Y-36143332D01*
X41555119Y-36143332D02*
X41507500Y-36095713D01*
X41507500Y-36095713D02*
X41483690Y-36024285D01*
X41483690Y-36024285D02*
X41483690Y-35976666D01*
X41483690Y-35976666D02*
X41507500Y-35905237D01*
X41507500Y-35905237D02*
X41531309Y-35881428D01*
X41483690Y-35452856D02*
X41483690Y-35548094D01*
X41483690Y-35548094D02*
X41507500Y-35595713D01*
X41507500Y-35595713D02*
X41531309Y-35619523D01*
X41531309Y-35619523D02*
X41602738Y-35667142D01*
X41602738Y-35667142D02*
X41697976Y-35690951D01*
X41697976Y-35690951D02*
X41888452Y-35690951D01*
X41888452Y-35690951D02*
X41936071Y-35667142D01*
X41936071Y-35667142D02*
X41959880Y-35643332D01*
X41959880Y-35643332D02*
X41983690Y-35595713D01*
X41983690Y-35595713D02*
X41983690Y-35500475D01*
X41983690Y-35500475D02*
X41959880Y-35452856D01*
X41959880Y-35452856D02*
X41936071Y-35429047D01*
X41936071Y-35429047D02*
X41888452Y-35405237D01*
X41888452Y-35405237D02*
X41769404Y-35405237D01*
X41769404Y-35405237D02*
X41721785Y-35429047D01*
X41721785Y-35429047D02*
X41697976Y-35452856D01*
X41697976Y-35452856D02*
X41674166Y-35500475D01*
X41674166Y-35500475D02*
X41674166Y-35595713D01*
X41674166Y-35595713D02*
X41697976Y-35643332D01*
X41697976Y-35643332D02*
X41721785Y-35667142D01*
X41721785Y-35667142D02*
X41769404Y-35690951D01*
X41459880Y-34833809D02*
X42102738Y-35262380D01*
X41983690Y-34381428D02*
X41745595Y-34548094D01*
X41983690Y-34667142D02*
X41483690Y-34667142D01*
X41483690Y-34667142D02*
X41483690Y-34476666D01*
X41483690Y-34476666D02*
X41507500Y-34429047D01*
X41507500Y-34429047D02*
X41531309Y-34405237D01*
X41531309Y-34405237D02*
X41578928Y-34381428D01*
X41578928Y-34381428D02*
X41650357Y-34381428D01*
X41650357Y-34381428D02*
X41697976Y-34405237D01*
X41697976Y-34405237D02*
X41721785Y-34429047D01*
X41721785Y-34429047D02*
X41745595Y-34476666D01*
X41745595Y-34476666D02*
X41745595Y-34667142D01*
X41483690Y-34214761D02*
X41983690Y-33881428D01*
X41483690Y-33881428D02*
X41983690Y-34214761D01*
%TO.C,UDC3*%
X52063690Y-36440952D02*
X52468452Y-36440952D01*
X52468452Y-36440952D02*
X52516071Y-36417142D01*
X52516071Y-36417142D02*
X52539880Y-36393333D01*
X52539880Y-36393333D02*
X52563690Y-36345714D01*
X52563690Y-36345714D02*
X52563690Y-36250476D01*
X52563690Y-36250476D02*
X52539880Y-36202857D01*
X52539880Y-36202857D02*
X52516071Y-36179047D01*
X52516071Y-36179047D02*
X52468452Y-36155238D01*
X52468452Y-36155238D02*
X52063690Y-36155238D01*
X52563690Y-35917142D02*
X52063690Y-35917142D01*
X52063690Y-35917142D02*
X52063690Y-35798094D01*
X52063690Y-35798094D02*
X52087500Y-35726666D01*
X52087500Y-35726666D02*
X52135119Y-35679047D01*
X52135119Y-35679047D02*
X52182738Y-35655237D01*
X52182738Y-35655237D02*
X52277976Y-35631428D01*
X52277976Y-35631428D02*
X52349404Y-35631428D01*
X52349404Y-35631428D02*
X52444642Y-35655237D01*
X52444642Y-35655237D02*
X52492261Y-35679047D01*
X52492261Y-35679047D02*
X52539880Y-35726666D01*
X52539880Y-35726666D02*
X52563690Y-35798094D01*
X52563690Y-35798094D02*
X52563690Y-35917142D01*
X52516071Y-35131428D02*
X52539880Y-35155237D01*
X52539880Y-35155237D02*
X52563690Y-35226666D01*
X52563690Y-35226666D02*
X52563690Y-35274285D01*
X52563690Y-35274285D02*
X52539880Y-35345713D01*
X52539880Y-35345713D02*
X52492261Y-35393332D01*
X52492261Y-35393332D02*
X52444642Y-35417142D01*
X52444642Y-35417142D02*
X52349404Y-35440951D01*
X52349404Y-35440951D02*
X52277976Y-35440951D01*
X52277976Y-35440951D02*
X52182738Y-35417142D01*
X52182738Y-35417142D02*
X52135119Y-35393332D01*
X52135119Y-35393332D02*
X52087500Y-35345713D01*
X52087500Y-35345713D02*
X52063690Y-35274285D01*
X52063690Y-35274285D02*
X52063690Y-35226666D01*
X52063690Y-35226666D02*
X52087500Y-35155237D01*
X52087500Y-35155237D02*
X52111309Y-35131428D01*
X52063690Y-34964761D02*
X52063690Y-34655237D01*
X52063690Y-34655237D02*
X52254166Y-34821904D01*
X52254166Y-34821904D02*
X52254166Y-34750475D01*
X52254166Y-34750475D02*
X52277976Y-34702856D01*
X52277976Y-34702856D02*
X52301785Y-34679047D01*
X52301785Y-34679047D02*
X52349404Y-34655237D01*
X52349404Y-34655237D02*
X52468452Y-34655237D01*
X52468452Y-34655237D02*
X52516071Y-34679047D01*
X52516071Y-34679047D02*
X52539880Y-34702856D01*
X52539880Y-34702856D02*
X52563690Y-34750475D01*
X52563690Y-34750475D02*
X52563690Y-34893332D01*
X52563690Y-34893332D02*
X52539880Y-34940951D01*
X52539880Y-34940951D02*
X52516071Y-34964761D01*
%TO.C,PC TX*%
X41740476Y-44007380D02*
X41740476Y-43007380D01*
X41740476Y-43007380D02*
X41930952Y-43007380D01*
X41930952Y-43007380D02*
X41978571Y-43055000D01*
X41978571Y-43055000D02*
X42002381Y-43102619D01*
X42002381Y-43102619D02*
X42026190Y-43197857D01*
X42026190Y-43197857D02*
X42026190Y-43340714D01*
X42026190Y-43340714D02*
X42002381Y-43435952D01*
X42002381Y-43435952D02*
X41978571Y-43483571D01*
X41978571Y-43483571D02*
X41930952Y-43531190D01*
X41930952Y-43531190D02*
X41740476Y-43531190D01*
X42526190Y-43912142D02*
X42502381Y-43959761D01*
X42502381Y-43959761D02*
X42430952Y-44007380D01*
X42430952Y-44007380D02*
X42383333Y-44007380D01*
X42383333Y-44007380D02*
X42311905Y-43959761D01*
X42311905Y-43959761D02*
X42264286Y-43864523D01*
X42264286Y-43864523D02*
X42240476Y-43769285D01*
X42240476Y-43769285D02*
X42216667Y-43578809D01*
X42216667Y-43578809D02*
X42216667Y-43435952D01*
X42216667Y-43435952D02*
X42240476Y-43245476D01*
X42240476Y-43245476D02*
X42264286Y-43150238D01*
X42264286Y-43150238D02*
X42311905Y-43055000D01*
X42311905Y-43055000D02*
X42383333Y-43007380D01*
X42383333Y-43007380D02*
X42430952Y-43007380D01*
X42430952Y-43007380D02*
X42502381Y-43055000D01*
X42502381Y-43055000D02*
X42526190Y-43102619D01*
X42969048Y-43007380D02*
X43254762Y-43007380D01*
X43111905Y-44007380D02*
X43111905Y-43007380D01*
X43373809Y-43007380D02*
X43707142Y-44007380D01*
X43707142Y-43007380D02*
X43373809Y-44007380D01*
D11*
%TO.C,1K*%
X44985000Y-39927064D02*
X44985000Y-39472936D01*
X46455000Y-39927064D02*
X46455000Y-39472936D01*
X39905000Y-39927064D02*
X39905000Y-39472936D01*
X41375000Y-39927064D02*
X41375000Y-39472936D01*
%TO.C,150*%
X48265000Y-39927064D02*
X48265000Y-39472936D01*
X49735000Y-39927064D02*
X49735000Y-39472936D01*
%TO.C,2K*%
X42445000Y-39927064D02*
X42445000Y-39472936D01*
X43915000Y-39927064D02*
X43915000Y-39472936D01*
%TD*%
M02*
