M48
; DRILL file {KiCad (7.0.0)} date Thu Aug 10 15:45:03 2023
; FORMAT={-:-/ absolute / inch / decimal}
; #@! TF.CreationDate,2023-08-10T15:45:03+02:00
; #@! TF.GenerationSoftware,Kicad,Pcbnew,(7.0.0)
; #@! TF.FileFunction,Plated,1,2,PTH
FMAT,2
INCH
; #@! TA.AperFunction,Plated,PTH,ViaDrill
T1C0.0118
; #@! TA.AperFunction,Plated,PTH,ViaDrill
T2C0.0120
; #@! TA.AperFunction,Plated,PTH,ViaDrill
T3C0.0157
; #@! TA.AperFunction,Plated,PTH,ComponentDrill
T4C0.0295
; #@! TA.AperFunction,Plated,PTH,ComponentDrill
T5C0.0315
; #@! TA.AperFunction,Plated,PTH,ComponentDrill
T6C0.0360
%
G90
G05
T1
X1.7Y-4.0
X1.9Y-2.5
X1.9Y-2.7
X2.3154Y-1.6
X2.65Y-2.5
X2.75Y-2.5
X2.85Y-2.6
X2.95Y-2.4
X3.25Y-2.4
X3.25Y-2.8
X3.55Y-2.4
X3.55Y-2.6
T2
X3.2Y-3.215
X3.485Y-3.2
X3.485Y-3.385
X3.65Y-3.43
T3
X2.4Y-1.7
X2.4Y-1.7
X2.4Y-1.9
X2.4Y-1.9
X3.1Y-2.2
T5
X1.7Y-1.6
X1.7Y-1.8
X2.2Y-1.6
X2.2Y-1.8
X2.3Y-3.9
X2.4Y-1.6
X2.8Y-2.0
X2.8Y-3.9
X2.9Y-1.6
X3.1Y-3.9
X3.3Y-2.0
X3.6Y-3.9
T6
X2.75Y-2.9
X2.75Y-3.5
X2.85Y-2.9
X2.85Y-3.5
X2.95Y-2.9
X2.95Y-3.5
X3.05Y-2.9
X3.05Y-3.5
X3.15Y-2.9
X3.15Y-3.5
X3.25Y-2.9
X3.25Y-3.5
X3.35Y-2.9
X3.35Y-3.5
X3.45Y-2.9
X3.45Y-3.5
X3.55Y-2.9
X3.55Y-3.5
X3.65Y-2.9
X3.65Y-3.5
X3.75Y-2.9
X3.75Y-3.5
X3.85Y-2.9
X3.85Y-3.5
T4
G00X3.0806Y-3.1833
M15
G01X3.0806Y-3.2227
M16
G05
G00X3.12Y-3.1203
M15
G01X3.12Y-3.1597
M16
G05
G00X3.12Y-3.2424
M15
G01X3.12Y-3.2817
M16
G05
G00X3.5334Y-3.1203
M15
G01X3.5334Y-3.1597
M16
G05
G00X3.5334Y-3.2424
M15
G01X3.5334Y-3.2817
M16
G05
G00X3.5728Y-3.1794
M15
G01X3.5728Y-3.2187
M16
G05
T0
M30
