%TF.GenerationSoftware,KiCad,Pcbnew,(7.0.0)*%
%TF.CreationDate,2023-08-25T10:54:56+02:00*%
%TF.ProjectId,JIG_MULTI,4a49475f-4d55-44c5-9449-2e6b69636164,rev?*%
%TF.SameCoordinates,Original*%
%TF.FileFunction,Legend,Bot*%
%TF.FilePolarity,Positive*%
%FSLAX46Y46*%
G04 Gerber Fmt 4.6, Leading zero omitted, Abs format (unit mm)*
G04 Created by KiCad (PCBNEW (7.0.0)) date 2023-08-25 10:54:56*
%MOMM*%
%LPD*%
G01*
G04 APERTURE LIST*
%ADD10C,0.200000*%
%ADD11C,0.400000*%
G04 APERTURE END LIST*
D10*
X33500000Y-43180000D02*
X114780000Y-43180000D01*
X114780000Y-43180000D02*
X114780000Y-55880000D01*
X114780000Y-55880000D02*
X33500000Y-55880000D01*
X33500000Y-55880000D02*
X33500000Y-43180000D01*
D11*
X105251428Y-75064761D02*
X106203809Y-75064761D01*
X106203809Y-75064761D02*
X106299047Y-76017142D01*
X106299047Y-76017142D02*
X106203809Y-75921904D01*
X106203809Y-75921904D02*
X106013333Y-75826666D01*
X106013333Y-75826666D02*
X105537142Y-75826666D01*
X105537142Y-75826666D02*
X105346666Y-75921904D01*
X105346666Y-75921904D02*
X105251428Y-76017142D01*
X105251428Y-76017142D02*
X105156190Y-76207619D01*
X105156190Y-76207619D02*
X105156190Y-76683809D01*
X105156190Y-76683809D02*
X105251428Y-76874285D01*
X105251428Y-76874285D02*
X105346666Y-76969523D01*
X105346666Y-76969523D02*
X105537142Y-77064761D01*
X105537142Y-77064761D02*
X106013333Y-77064761D01*
X106013333Y-77064761D02*
X106203809Y-76969523D01*
X106203809Y-76969523D02*
X106299047Y-76874285D01*
X104584761Y-75064761D02*
X103918095Y-77064761D01*
X103918095Y-77064761D02*
X103251428Y-75064761D01*
D10*
X113919047Y-44022380D02*
X113919047Y-44260476D01*
X114157142Y-44165238D02*
X113919047Y-44260476D01*
X113919047Y-44260476D02*
X113680952Y-44165238D01*
X114061904Y-44450952D02*
X113919047Y-44260476D01*
X113919047Y-44260476D02*
X113776190Y-44450952D01*
X113157142Y-44022380D02*
X113157142Y-44260476D01*
X113395237Y-44165238D02*
X113157142Y-44260476D01*
X113157142Y-44260476D02*
X112919047Y-44165238D01*
X113299999Y-44450952D02*
X113157142Y-44260476D01*
X113157142Y-44260476D02*
X113014285Y-44450952D01*
X111366666Y-44927142D02*
X111414285Y-44974761D01*
X111414285Y-44974761D02*
X111557142Y-45022380D01*
X111557142Y-45022380D02*
X111652380Y-45022380D01*
X111652380Y-45022380D02*
X111795237Y-44974761D01*
X111795237Y-44974761D02*
X111890475Y-44879523D01*
X111890475Y-44879523D02*
X111938094Y-44784285D01*
X111938094Y-44784285D02*
X111985713Y-44593809D01*
X111985713Y-44593809D02*
X111985713Y-44450952D01*
X111985713Y-44450952D02*
X111938094Y-44260476D01*
X111938094Y-44260476D02*
X111890475Y-44165238D01*
X111890475Y-44165238D02*
X111795237Y-44070000D01*
X111795237Y-44070000D02*
X111652380Y-44022380D01*
X111652380Y-44022380D02*
X111557142Y-44022380D01*
X111557142Y-44022380D02*
X111414285Y-44070000D01*
X111414285Y-44070000D02*
X111366666Y-44117619D01*
X110985713Y-44736666D02*
X110509523Y-44736666D01*
X111080951Y-45022380D02*
X110747618Y-44022380D01*
X110747618Y-44022380D02*
X110414285Y-45022380D01*
X110080951Y-44022380D02*
X110080951Y-44831904D01*
X110080951Y-44831904D02*
X110033332Y-44927142D01*
X110033332Y-44927142D02*
X109985713Y-44974761D01*
X109985713Y-44974761D02*
X109890475Y-45022380D01*
X109890475Y-45022380D02*
X109699999Y-45022380D01*
X109699999Y-45022380D02*
X109604761Y-44974761D01*
X109604761Y-44974761D02*
X109557142Y-44927142D01*
X109557142Y-44927142D02*
X109509523Y-44831904D01*
X109509523Y-44831904D02*
X109509523Y-44022380D01*
X109176189Y-44022380D02*
X108604761Y-44022380D01*
X108890475Y-45022380D02*
X108890475Y-44022380D01*
X108271427Y-45022380D02*
X108271427Y-44022380D01*
X107604761Y-44022380D02*
X107414285Y-44022380D01*
X107414285Y-44022380D02*
X107319047Y-44070000D01*
X107319047Y-44070000D02*
X107223809Y-44165238D01*
X107223809Y-44165238D02*
X107176190Y-44355714D01*
X107176190Y-44355714D02*
X107176190Y-44689047D01*
X107176190Y-44689047D02*
X107223809Y-44879523D01*
X107223809Y-44879523D02*
X107319047Y-44974761D01*
X107319047Y-44974761D02*
X107414285Y-45022380D01*
X107414285Y-45022380D02*
X107604761Y-45022380D01*
X107604761Y-45022380D02*
X107699999Y-44974761D01*
X107699999Y-44974761D02*
X107795237Y-44879523D01*
X107795237Y-44879523D02*
X107842856Y-44689047D01*
X107842856Y-44689047D02*
X107842856Y-44355714D01*
X107842856Y-44355714D02*
X107795237Y-44165238D01*
X107795237Y-44165238D02*
X107699999Y-44070000D01*
X107699999Y-44070000D02*
X107604761Y-44022380D01*
X106747618Y-45022380D02*
X106747618Y-44022380D01*
X106747618Y-44022380D02*
X106176190Y-45022380D01*
X106176190Y-45022380D02*
X106176190Y-44022380D01*
X104957142Y-44022380D02*
X104957142Y-44260476D01*
X105195237Y-44165238D02*
X104957142Y-44260476D01*
X104957142Y-44260476D02*
X104719047Y-44165238D01*
X105099999Y-44450952D02*
X104957142Y-44260476D01*
X104957142Y-44260476D02*
X104814285Y-44450952D01*
X104195237Y-44022380D02*
X104195237Y-44260476D01*
X104433332Y-44165238D02*
X104195237Y-44260476D01*
X104195237Y-44260476D02*
X103957142Y-44165238D01*
X104338094Y-44450952D02*
X104195237Y-44260476D01*
X104195237Y-44260476D02*
X104052380Y-44450952D01*
X114109523Y-49834761D02*
X113966666Y-49882380D01*
X113966666Y-49882380D02*
X113728571Y-49882380D01*
X113728571Y-49882380D02*
X113633333Y-49834761D01*
X113633333Y-49834761D02*
X113585714Y-49787142D01*
X113585714Y-49787142D02*
X113538095Y-49691904D01*
X113538095Y-49691904D02*
X113538095Y-49596666D01*
X113538095Y-49596666D02*
X113585714Y-49501428D01*
X113585714Y-49501428D02*
X113633333Y-49453809D01*
X113633333Y-49453809D02*
X113728571Y-49406190D01*
X113728571Y-49406190D02*
X113919047Y-49358571D01*
X113919047Y-49358571D02*
X114014285Y-49310952D01*
X114014285Y-49310952D02*
X114061904Y-49263333D01*
X114061904Y-49263333D02*
X114109523Y-49168095D01*
X114109523Y-49168095D02*
X114109523Y-49072857D01*
X114109523Y-49072857D02*
X114061904Y-48977619D01*
X114061904Y-48977619D02*
X114014285Y-48930000D01*
X114014285Y-48930000D02*
X113919047Y-48882380D01*
X113919047Y-48882380D02*
X113680952Y-48882380D01*
X113680952Y-48882380D02*
X113538095Y-48930000D01*
X112966666Y-49882380D02*
X113061904Y-49834761D01*
X113061904Y-49834761D02*
X113109523Y-49787142D01*
X113109523Y-49787142D02*
X113157142Y-49691904D01*
X113157142Y-49691904D02*
X113157142Y-49406190D01*
X113157142Y-49406190D02*
X113109523Y-49310952D01*
X113109523Y-49310952D02*
X113061904Y-49263333D01*
X113061904Y-49263333D02*
X112966666Y-49215714D01*
X112966666Y-49215714D02*
X112823809Y-49215714D01*
X112823809Y-49215714D02*
X112728571Y-49263333D01*
X112728571Y-49263333D02*
X112680952Y-49310952D01*
X112680952Y-49310952D02*
X112633333Y-49406190D01*
X112633333Y-49406190D02*
X112633333Y-49691904D01*
X112633333Y-49691904D02*
X112680952Y-49787142D01*
X112680952Y-49787142D02*
X112728571Y-49834761D01*
X112728571Y-49834761D02*
X112823809Y-49882380D01*
X112823809Y-49882380D02*
X112966666Y-49882380D01*
X112204761Y-49882380D02*
X112204761Y-49215714D01*
X112204761Y-49310952D02*
X112157142Y-49263333D01*
X112157142Y-49263333D02*
X112061904Y-49215714D01*
X112061904Y-49215714D02*
X111919047Y-49215714D01*
X111919047Y-49215714D02*
X111823809Y-49263333D01*
X111823809Y-49263333D02*
X111776190Y-49358571D01*
X111776190Y-49358571D02*
X111776190Y-49882380D01*
X111776190Y-49358571D02*
X111728571Y-49263333D01*
X111728571Y-49263333D02*
X111633333Y-49215714D01*
X111633333Y-49215714D02*
X111490476Y-49215714D01*
X111490476Y-49215714D02*
X111395237Y-49263333D01*
X111395237Y-49263333D02*
X111347618Y-49358571D01*
X111347618Y-49358571D02*
X111347618Y-49882380D01*
X110490476Y-49834761D02*
X110585714Y-49882380D01*
X110585714Y-49882380D02*
X110776190Y-49882380D01*
X110776190Y-49882380D02*
X110871428Y-49834761D01*
X110871428Y-49834761D02*
X110919047Y-49739523D01*
X110919047Y-49739523D02*
X110919047Y-49358571D01*
X110919047Y-49358571D02*
X110871428Y-49263333D01*
X110871428Y-49263333D02*
X110776190Y-49215714D01*
X110776190Y-49215714D02*
X110585714Y-49215714D01*
X110585714Y-49215714D02*
X110490476Y-49263333D01*
X110490476Y-49263333D02*
X110442857Y-49358571D01*
X110442857Y-49358571D02*
X110442857Y-49453809D01*
X110442857Y-49453809D02*
X110919047Y-49549047D01*
X109414285Y-48882380D02*
X109414285Y-49691904D01*
X109414285Y-49691904D02*
X109366666Y-49787142D01*
X109366666Y-49787142D02*
X109319047Y-49834761D01*
X109319047Y-49834761D02*
X109223809Y-49882380D01*
X109223809Y-49882380D02*
X109033333Y-49882380D01*
X109033333Y-49882380D02*
X108938095Y-49834761D01*
X108938095Y-49834761D02*
X108890476Y-49787142D01*
X108890476Y-49787142D02*
X108842857Y-49691904D01*
X108842857Y-49691904D02*
X108842857Y-48882380D01*
X108414285Y-49596666D02*
X107938095Y-49596666D01*
X108509523Y-49882380D02*
X108176190Y-48882380D01*
X108176190Y-48882380D02*
X107842857Y-49882380D01*
X106938095Y-49882380D02*
X107271428Y-49406190D01*
X107509523Y-49882380D02*
X107509523Y-48882380D01*
X107509523Y-48882380D02*
X107128571Y-48882380D01*
X107128571Y-48882380D02*
X107033333Y-48930000D01*
X107033333Y-48930000D02*
X106985714Y-48977619D01*
X106985714Y-48977619D02*
X106938095Y-49072857D01*
X106938095Y-49072857D02*
X106938095Y-49215714D01*
X106938095Y-49215714D02*
X106985714Y-49310952D01*
X106985714Y-49310952D02*
X107033333Y-49358571D01*
X107033333Y-49358571D02*
X107128571Y-49406190D01*
X107128571Y-49406190D02*
X107509523Y-49406190D01*
X106652380Y-48882380D02*
X106080952Y-48882380D01*
X106366666Y-49882380D02*
X106366666Y-48882380D01*
X105147618Y-49882380D02*
X105147618Y-49215714D01*
X105147618Y-49310952D02*
X105099999Y-49263333D01*
X105099999Y-49263333D02*
X105004761Y-49215714D01*
X105004761Y-49215714D02*
X104861904Y-49215714D01*
X104861904Y-49215714D02*
X104766666Y-49263333D01*
X104766666Y-49263333D02*
X104719047Y-49358571D01*
X104719047Y-49358571D02*
X104719047Y-49882380D01*
X104719047Y-49358571D02*
X104671428Y-49263333D01*
X104671428Y-49263333D02*
X104576190Y-49215714D01*
X104576190Y-49215714D02*
X104433333Y-49215714D01*
X104433333Y-49215714D02*
X104338094Y-49263333D01*
X104338094Y-49263333D02*
X104290475Y-49358571D01*
X104290475Y-49358571D02*
X104290475Y-49882380D01*
X103671428Y-49882380D02*
X103766666Y-49834761D01*
X103766666Y-49834761D02*
X103814285Y-49787142D01*
X103814285Y-49787142D02*
X103861904Y-49691904D01*
X103861904Y-49691904D02*
X103861904Y-49406190D01*
X103861904Y-49406190D02*
X103814285Y-49310952D01*
X103814285Y-49310952D02*
X103766666Y-49263333D01*
X103766666Y-49263333D02*
X103671428Y-49215714D01*
X103671428Y-49215714D02*
X103528571Y-49215714D01*
X103528571Y-49215714D02*
X103433333Y-49263333D01*
X103433333Y-49263333D02*
X103385714Y-49310952D01*
X103385714Y-49310952D02*
X103338095Y-49406190D01*
X103338095Y-49406190D02*
X103338095Y-49691904D01*
X103338095Y-49691904D02*
X103385714Y-49787142D01*
X103385714Y-49787142D02*
X103433333Y-49834761D01*
X103433333Y-49834761D02*
X103528571Y-49882380D01*
X103528571Y-49882380D02*
X103671428Y-49882380D01*
X102480952Y-49882380D02*
X102480952Y-48882380D01*
X102480952Y-49834761D02*
X102576190Y-49882380D01*
X102576190Y-49882380D02*
X102766666Y-49882380D01*
X102766666Y-49882380D02*
X102861904Y-49834761D01*
X102861904Y-49834761D02*
X102909523Y-49787142D01*
X102909523Y-49787142D02*
X102957142Y-49691904D01*
X102957142Y-49691904D02*
X102957142Y-49406190D01*
X102957142Y-49406190D02*
X102909523Y-49310952D01*
X102909523Y-49310952D02*
X102861904Y-49263333D01*
X102861904Y-49263333D02*
X102766666Y-49215714D01*
X102766666Y-49215714D02*
X102576190Y-49215714D01*
X102576190Y-49215714D02*
X102480952Y-49263333D01*
X101576190Y-49215714D02*
X101576190Y-49882380D01*
X102004761Y-49215714D02*
X102004761Y-49739523D01*
X102004761Y-49739523D02*
X101957142Y-49834761D01*
X101957142Y-49834761D02*
X101861904Y-49882380D01*
X101861904Y-49882380D02*
X101719047Y-49882380D01*
X101719047Y-49882380D02*
X101623809Y-49834761D01*
X101623809Y-49834761D02*
X101576190Y-49787142D01*
X100957142Y-49882380D02*
X101052380Y-49834761D01*
X101052380Y-49834761D02*
X101099999Y-49739523D01*
X101099999Y-49739523D02*
X101099999Y-48882380D01*
X100195237Y-49834761D02*
X100290475Y-49882380D01*
X100290475Y-49882380D02*
X100480951Y-49882380D01*
X100480951Y-49882380D02*
X100576189Y-49834761D01*
X100576189Y-49834761D02*
X100623808Y-49739523D01*
X100623808Y-49739523D02*
X100623808Y-49358571D01*
X100623808Y-49358571D02*
X100576189Y-49263333D01*
X100576189Y-49263333D02*
X100480951Y-49215714D01*
X100480951Y-49215714D02*
X100290475Y-49215714D01*
X100290475Y-49215714D02*
X100195237Y-49263333D01*
X100195237Y-49263333D02*
X100147618Y-49358571D01*
X100147618Y-49358571D02*
X100147618Y-49453809D01*
X100147618Y-49453809D02*
X100623808Y-49549047D01*
X99766665Y-49834761D02*
X99671427Y-49882380D01*
X99671427Y-49882380D02*
X99480951Y-49882380D01*
X99480951Y-49882380D02*
X99385713Y-49834761D01*
X99385713Y-49834761D02*
X99338094Y-49739523D01*
X99338094Y-49739523D02*
X99338094Y-49691904D01*
X99338094Y-49691904D02*
X99385713Y-49596666D01*
X99385713Y-49596666D02*
X99480951Y-49549047D01*
X99480951Y-49549047D02*
X99623808Y-49549047D01*
X99623808Y-49549047D02*
X99719046Y-49501428D01*
X99719046Y-49501428D02*
X99766665Y-49406190D01*
X99766665Y-49406190D02*
X99766665Y-49358571D01*
X99766665Y-49358571D02*
X99719046Y-49263333D01*
X99719046Y-49263333D02*
X99623808Y-49215714D01*
X99623808Y-49215714D02*
X99480951Y-49215714D01*
X99480951Y-49215714D02*
X99385713Y-49263333D01*
X97880951Y-49882380D02*
X97880951Y-49358571D01*
X97880951Y-49358571D02*
X97928570Y-49263333D01*
X97928570Y-49263333D02*
X98023808Y-49215714D01*
X98023808Y-49215714D02*
X98214284Y-49215714D01*
X98214284Y-49215714D02*
X98309522Y-49263333D01*
X97880951Y-49834761D02*
X97976189Y-49882380D01*
X97976189Y-49882380D02*
X98214284Y-49882380D01*
X98214284Y-49882380D02*
X98309522Y-49834761D01*
X98309522Y-49834761D02*
X98357141Y-49739523D01*
X98357141Y-49739523D02*
X98357141Y-49644285D01*
X98357141Y-49644285D02*
X98309522Y-49549047D01*
X98309522Y-49549047D02*
X98214284Y-49501428D01*
X98214284Y-49501428D02*
X97976189Y-49501428D01*
X97976189Y-49501428D02*
X97880951Y-49453809D01*
X96976189Y-49882380D02*
X96976189Y-48882380D01*
X96976189Y-49834761D02*
X97071427Y-49882380D01*
X97071427Y-49882380D02*
X97261903Y-49882380D01*
X97261903Y-49882380D02*
X97357141Y-49834761D01*
X97357141Y-49834761D02*
X97404760Y-49787142D01*
X97404760Y-49787142D02*
X97452379Y-49691904D01*
X97452379Y-49691904D02*
X97452379Y-49406190D01*
X97452379Y-49406190D02*
X97404760Y-49310952D01*
X97404760Y-49310952D02*
X97357141Y-49263333D01*
X97357141Y-49263333D02*
X97261903Y-49215714D01*
X97261903Y-49215714D02*
X97071427Y-49215714D01*
X97071427Y-49215714D02*
X96976189Y-49263333D01*
X96595236Y-49215714D02*
X96357141Y-49882380D01*
X96357141Y-49882380D02*
X96119046Y-49215714D01*
X95357141Y-49834761D02*
X95452379Y-49882380D01*
X95452379Y-49882380D02*
X95642855Y-49882380D01*
X95642855Y-49882380D02*
X95738093Y-49834761D01*
X95738093Y-49834761D02*
X95785712Y-49739523D01*
X95785712Y-49739523D02*
X95785712Y-49358571D01*
X95785712Y-49358571D02*
X95738093Y-49263333D01*
X95738093Y-49263333D02*
X95642855Y-49215714D01*
X95642855Y-49215714D02*
X95452379Y-49215714D01*
X95452379Y-49215714D02*
X95357141Y-49263333D01*
X95357141Y-49263333D02*
X95309522Y-49358571D01*
X95309522Y-49358571D02*
X95309522Y-49453809D01*
X95309522Y-49453809D02*
X95785712Y-49549047D01*
X94880950Y-49882380D02*
X94880950Y-49215714D01*
X94880950Y-49406190D02*
X94833331Y-49310952D01*
X94833331Y-49310952D02*
X94785712Y-49263333D01*
X94785712Y-49263333D02*
X94690474Y-49215714D01*
X94690474Y-49215714D02*
X94595236Y-49215714D01*
X94404759Y-49215714D02*
X94023807Y-49215714D01*
X94261902Y-48882380D02*
X94261902Y-49739523D01*
X94261902Y-49739523D02*
X94214283Y-49834761D01*
X94214283Y-49834761D02*
X94119045Y-49882380D01*
X94119045Y-49882380D02*
X94023807Y-49882380D01*
X93690473Y-49882380D02*
X93690473Y-49215714D01*
X93690473Y-48882380D02*
X93738092Y-48930000D01*
X93738092Y-48930000D02*
X93690473Y-48977619D01*
X93690473Y-48977619D02*
X93642854Y-48930000D01*
X93642854Y-48930000D02*
X93690473Y-48882380D01*
X93690473Y-48882380D02*
X93690473Y-48977619D01*
X93261902Y-49834761D02*
X93166664Y-49882380D01*
X93166664Y-49882380D02*
X92976188Y-49882380D01*
X92976188Y-49882380D02*
X92880950Y-49834761D01*
X92880950Y-49834761D02*
X92833331Y-49739523D01*
X92833331Y-49739523D02*
X92833331Y-49691904D01*
X92833331Y-49691904D02*
X92880950Y-49596666D01*
X92880950Y-49596666D02*
X92976188Y-49549047D01*
X92976188Y-49549047D02*
X93119045Y-49549047D01*
X93119045Y-49549047D02*
X93214283Y-49501428D01*
X93214283Y-49501428D02*
X93261902Y-49406190D01*
X93261902Y-49406190D02*
X93261902Y-49358571D01*
X93261902Y-49358571D02*
X93214283Y-49263333D01*
X93214283Y-49263333D02*
X93119045Y-49215714D01*
X93119045Y-49215714D02*
X92976188Y-49215714D01*
X92976188Y-49215714D02*
X92880950Y-49263333D01*
X92023807Y-49834761D02*
X92119045Y-49882380D01*
X92119045Y-49882380D02*
X92309521Y-49882380D01*
X92309521Y-49882380D02*
X92404759Y-49834761D01*
X92404759Y-49834761D02*
X92452378Y-49739523D01*
X92452378Y-49739523D02*
X92452378Y-49358571D01*
X92452378Y-49358571D02*
X92404759Y-49263333D01*
X92404759Y-49263333D02*
X92309521Y-49215714D01*
X92309521Y-49215714D02*
X92119045Y-49215714D01*
X92119045Y-49215714D02*
X92023807Y-49263333D01*
X92023807Y-49263333D02*
X91976188Y-49358571D01*
X91976188Y-49358571D02*
X91976188Y-49453809D01*
X91976188Y-49453809D02*
X92452378Y-49549047D01*
X91119045Y-49882380D02*
X91119045Y-48882380D01*
X91119045Y-49834761D02*
X91214283Y-49882380D01*
X91214283Y-49882380D02*
X91404759Y-49882380D01*
X91404759Y-49882380D02*
X91499997Y-49834761D01*
X91499997Y-49834761D02*
X91547616Y-49787142D01*
X91547616Y-49787142D02*
X91595235Y-49691904D01*
X91595235Y-49691904D02*
X91595235Y-49406190D01*
X91595235Y-49406190D02*
X91547616Y-49310952D01*
X91547616Y-49310952D02*
X91499997Y-49263333D01*
X91499997Y-49263333D02*
X91404759Y-49215714D01*
X91404759Y-49215714D02*
X91214283Y-49215714D01*
X91214283Y-49215714D02*
X91119045Y-49263333D01*
X89614283Y-49882380D02*
X89614283Y-49358571D01*
X89614283Y-49358571D02*
X89661902Y-49263333D01*
X89661902Y-49263333D02*
X89757140Y-49215714D01*
X89757140Y-49215714D02*
X89947616Y-49215714D01*
X89947616Y-49215714D02*
X90042854Y-49263333D01*
X89614283Y-49834761D02*
X89709521Y-49882380D01*
X89709521Y-49882380D02*
X89947616Y-49882380D01*
X89947616Y-49882380D02*
X90042854Y-49834761D01*
X90042854Y-49834761D02*
X90090473Y-49739523D01*
X90090473Y-49739523D02*
X90090473Y-49644285D01*
X90090473Y-49644285D02*
X90042854Y-49549047D01*
X90042854Y-49549047D02*
X89947616Y-49501428D01*
X89947616Y-49501428D02*
X89709521Y-49501428D01*
X89709521Y-49501428D02*
X89614283Y-49453809D01*
X89185711Y-49834761D02*
X89090473Y-49882380D01*
X89090473Y-49882380D02*
X88899997Y-49882380D01*
X88899997Y-49882380D02*
X88804759Y-49834761D01*
X88804759Y-49834761D02*
X88757140Y-49739523D01*
X88757140Y-49739523D02*
X88757140Y-49691904D01*
X88757140Y-49691904D02*
X88804759Y-49596666D01*
X88804759Y-49596666D02*
X88899997Y-49549047D01*
X88899997Y-49549047D02*
X89042854Y-49549047D01*
X89042854Y-49549047D02*
X89138092Y-49501428D01*
X89138092Y-49501428D02*
X89185711Y-49406190D01*
X89185711Y-49406190D02*
X89185711Y-49358571D01*
X89185711Y-49358571D02*
X89138092Y-49263333D01*
X89138092Y-49263333D02*
X89042854Y-49215714D01*
X89042854Y-49215714D02*
X88899997Y-49215714D01*
X88899997Y-49215714D02*
X88804759Y-49263333D01*
X87252378Y-48882380D02*
X87728568Y-48882380D01*
X87728568Y-48882380D02*
X87776187Y-49358571D01*
X87776187Y-49358571D02*
X87728568Y-49310952D01*
X87728568Y-49310952D02*
X87633330Y-49263333D01*
X87633330Y-49263333D02*
X87395235Y-49263333D01*
X87395235Y-49263333D02*
X87299997Y-49310952D01*
X87299997Y-49310952D02*
X87252378Y-49358571D01*
X87252378Y-49358571D02*
X87204759Y-49453809D01*
X87204759Y-49453809D02*
X87204759Y-49691904D01*
X87204759Y-49691904D02*
X87252378Y-49787142D01*
X87252378Y-49787142D02*
X87299997Y-49834761D01*
X87299997Y-49834761D02*
X87395235Y-49882380D01*
X87395235Y-49882380D02*
X87633330Y-49882380D01*
X87633330Y-49882380D02*
X87728568Y-49834761D01*
X87728568Y-49834761D02*
X87776187Y-49787142D01*
X86919044Y-48882380D02*
X86585711Y-49882380D01*
X86585711Y-49882380D02*
X86252378Y-48882380D01*
X85176187Y-49882380D02*
X85271425Y-49834761D01*
X85271425Y-49834761D02*
X85319044Y-49787142D01*
X85319044Y-49787142D02*
X85366663Y-49691904D01*
X85366663Y-49691904D02*
X85366663Y-49406190D01*
X85366663Y-49406190D02*
X85319044Y-49310952D01*
X85319044Y-49310952D02*
X85271425Y-49263333D01*
X85271425Y-49263333D02*
X85176187Y-49215714D01*
X85176187Y-49215714D02*
X85033330Y-49215714D01*
X85033330Y-49215714D02*
X84938092Y-49263333D01*
X84938092Y-49263333D02*
X84890473Y-49310952D01*
X84890473Y-49310952D02*
X84842854Y-49406190D01*
X84842854Y-49406190D02*
X84842854Y-49691904D01*
X84842854Y-49691904D02*
X84890473Y-49787142D01*
X84890473Y-49787142D02*
X84938092Y-49834761D01*
X84938092Y-49834761D02*
X85033330Y-49882380D01*
X85033330Y-49882380D02*
X85176187Y-49882380D01*
X84414282Y-49882380D02*
X84414282Y-49215714D01*
X84414282Y-49406190D02*
X84366663Y-49310952D01*
X84366663Y-49310952D02*
X84319044Y-49263333D01*
X84319044Y-49263333D02*
X84223806Y-49215714D01*
X84223806Y-49215714D02*
X84128568Y-49215714D01*
X83290472Y-49215714D02*
X83099996Y-49882380D01*
X83099996Y-49882380D02*
X82909520Y-49406190D01*
X82909520Y-49406190D02*
X82719044Y-49882380D01*
X82719044Y-49882380D02*
X82528568Y-49215714D01*
X82147615Y-49882380D02*
X82147615Y-49215714D01*
X82147615Y-48882380D02*
X82195234Y-48930000D01*
X82195234Y-48930000D02*
X82147615Y-48977619D01*
X82147615Y-48977619D02*
X82099996Y-48930000D01*
X82099996Y-48930000D02*
X82147615Y-48882380D01*
X82147615Y-48882380D02*
X82147615Y-48977619D01*
X81814282Y-49215714D02*
X81433330Y-49215714D01*
X81671425Y-48882380D02*
X81671425Y-49739523D01*
X81671425Y-49739523D02*
X81623806Y-49834761D01*
X81623806Y-49834761D02*
X81528568Y-49882380D01*
X81528568Y-49882380D02*
X81433330Y-49882380D01*
X81099996Y-49882380D02*
X81099996Y-48882380D01*
X80671425Y-49882380D02*
X80671425Y-49358571D01*
X80671425Y-49358571D02*
X80719044Y-49263333D01*
X80719044Y-49263333D02*
X80814282Y-49215714D01*
X80814282Y-49215714D02*
X80957139Y-49215714D01*
X80957139Y-49215714D02*
X81052377Y-49263333D01*
X81052377Y-49263333D02*
X81099996Y-49310952D01*
X79166663Y-49882380D02*
X79166663Y-49358571D01*
X79166663Y-49358571D02*
X79214282Y-49263333D01*
X79214282Y-49263333D02*
X79309520Y-49215714D01*
X79309520Y-49215714D02*
X79499996Y-49215714D01*
X79499996Y-49215714D02*
X79595234Y-49263333D01*
X79166663Y-49834761D02*
X79261901Y-49882380D01*
X79261901Y-49882380D02*
X79499996Y-49882380D01*
X79499996Y-49882380D02*
X79595234Y-49834761D01*
X79595234Y-49834761D02*
X79642853Y-49739523D01*
X79642853Y-49739523D02*
X79642853Y-49644285D01*
X79642853Y-49644285D02*
X79595234Y-49549047D01*
X79595234Y-49549047D02*
X79499996Y-49501428D01*
X79499996Y-49501428D02*
X79261901Y-49501428D01*
X79261901Y-49501428D02*
X79166663Y-49453809D01*
X78090472Y-49215714D02*
X78090472Y-50072857D01*
X78090472Y-50072857D02*
X78138091Y-50168095D01*
X78138091Y-50168095D02*
X78233329Y-50215714D01*
X78233329Y-50215714D02*
X78280948Y-50215714D01*
X78090472Y-48882380D02*
X78138091Y-48930000D01*
X78138091Y-48930000D02*
X78090472Y-48977619D01*
X78090472Y-48977619D02*
X78042853Y-48930000D01*
X78042853Y-48930000D02*
X78090472Y-48882380D01*
X78090472Y-48882380D02*
X78090472Y-48977619D01*
X77185711Y-49215714D02*
X77185711Y-49882380D01*
X77614282Y-49215714D02*
X77614282Y-49739523D01*
X77614282Y-49739523D02*
X77566663Y-49834761D01*
X77566663Y-49834761D02*
X77471425Y-49882380D01*
X77471425Y-49882380D02*
X77328568Y-49882380D01*
X77328568Y-49882380D02*
X77233330Y-49834761D01*
X77233330Y-49834761D02*
X77185711Y-49787142D01*
X76709520Y-49882380D02*
X76709520Y-49215714D01*
X76709520Y-49310952D02*
X76661901Y-49263333D01*
X76661901Y-49263333D02*
X76566663Y-49215714D01*
X76566663Y-49215714D02*
X76423806Y-49215714D01*
X76423806Y-49215714D02*
X76328568Y-49263333D01*
X76328568Y-49263333D02*
X76280949Y-49358571D01*
X76280949Y-49358571D02*
X76280949Y-49882380D01*
X76280949Y-49358571D02*
X76233330Y-49263333D01*
X76233330Y-49263333D02*
X76138092Y-49215714D01*
X76138092Y-49215714D02*
X75995235Y-49215714D01*
X75995235Y-49215714D02*
X75899996Y-49263333D01*
X75899996Y-49263333D02*
X75852377Y-49358571D01*
X75852377Y-49358571D02*
X75852377Y-49882380D01*
X75376187Y-49215714D02*
X75376187Y-50215714D01*
X75376187Y-49263333D02*
X75280949Y-49215714D01*
X75280949Y-49215714D02*
X75090473Y-49215714D01*
X75090473Y-49215714D02*
X74995235Y-49263333D01*
X74995235Y-49263333D02*
X74947616Y-49310952D01*
X74947616Y-49310952D02*
X74899997Y-49406190D01*
X74899997Y-49406190D02*
X74899997Y-49691904D01*
X74899997Y-49691904D02*
X74947616Y-49787142D01*
X74947616Y-49787142D02*
X74995235Y-49834761D01*
X74995235Y-49834761D02*
X75090473Y-49882380D01*
X75090473Y-49882380D02*
X75280949Y-49882380D01*
X75280949Y-49882380D02*
X75376187Y-49834761D01*
X74090473Y-49834761D02*
X74185711Y-49882380D01*
X74185711Y-49882380D02*
X74376187Y-49882380D01*
X74376187Y-49882380D02*
X74471425Y-49834761D01*
X74471425Y-49834761D02*
X74519044Y-49739523D01*
X74519044Y-49739523D02*
X74519044Y-49358571D01*
X74519044Y-49358571D02*
X74471425Y-49263333D01*
X74471425Y-49263333D02*
X74376187Y-49215714D01*
X74376187Y-49215714D02*
X74185711Y-49215714D01*
X74185711Y-49215714D02*
X74090473Y-49263333D01*
X74090473Y-49263333D02*
X74042854Y-49358571D01*
X74042854Y-49358571D02*
X74042854Y-49453809D01*
X74042854Y-49453809D02*
X74519044Y-49549047D01*
X73614282Y-49882380D02*
X73614282Y-49215714D01*
X73614282Y-49406190D02*
X73566663Y-49310952D01*
X73566663Y-49310952D02*
X73519044Y-49263333D01*
X73519044Y-49263333D02*
X73423806Y-49215714D01*
X73423806Y-49215714D02*
X73328568Y-49215714D01*
X72538091Y-49215714D02*
X72157139Y-49215714D01*
X72395234Y-48882380D02*
X72395234Y-49739523D01*
X72395234Y-49739523D02*
X72347615Y-49834761D01*
X72347615Y-49834761D02*
X72252377Y-49882380D01*
X72252377Y-49882380D02*
X72157139Y-49882380D01*
X71680948Y-49882380D02*
X71776186Y-49834761D01*
X71776186Y-49834761D02*
X71823805Y-49787142D01*
X71823805Y-49787142D02*
X71871424Y-49691904D01*
X71871424Y-49691904D02*
X71871424Y-49406190D01*
X71871424Y-49406190D02*
X71823805Y-49310952D01*
X71823805Y-49310952D02*
X71776186Y-49263333D01*
X71776186Y-49263333D02*
X71680948Y-49215714D01*
X71680948Y-49215714D02*
X71538091Y-49215714D01*
X71538091Y-49215714D02*
X71442853Y-49263333D01*
X71442853Y-49263333D02*
X71395234Y-49310952D01*
X71395234Y-49310952D02*
X71347615Y-49406190D01*
X71347615Y-49406190D02*
X71347615Y-49691904D01*
X71347615Y-49691904D02*
X71395234Y-49787142D01*
X71395234Y-49787142D02*
X71442853Y-49834761D01*
X71442853Y-49834761D02*
X71538091Y-49882380D01*
X71538091Y-49882380D02*
X71680948Y-49882380D01*
X69842853Y-48882380D02*
X70319043Y-48882380D01*
X70319043Y-48882380D02*
X70366662Y-49358571D01*
X70366662Y-49358571D02*
X70319043Y-49310952D01*
X70319043Y-49310952D02*
X70223805Y-49263333D01*
X70223805Y-49263333D02*
X69985710Y-49263333D01*
X69985710Y-49263333D02*
X69890472Y-49310952D01*
X69890472Y-49310952D02*
X69842853Y-49358571D01*
X69842853Y-49358571D02*
X69795234Y-49453809D01*
X69795234Y-49453809D02*
X69795234Y-49691904D01*
X69795234Y-49691904D02*
X69842853Y-49787142D01*
X69842853Y-49787142D02*
X69890472Y-49834761D01*
X69890472Y-49834761D02*
X69985710Y-49882380D01*
X69985710Y-49882380D02*
X70223805Y-49882380D01*
X70223805Y-49882380D02*
X70319043Y-49834761D01*
X70319043Y-49834761D02*
X70366662Y-49787142D01*
X69509519Y-48882380D02*
X69176186Y-49882380D01*
X69176186Y-49882380D02*
X68842853Y-48882380D01*
X67480948Y-49882380D02*
X67480948Y-48882380D01*
X67480948Y-49834761D02*
X67576186Y-49882380D01*
X67576186Y-49882380D02*
X67766662Y-49882380D01*
X67766662Y-49882380D02*
X67861900Y-49834761D01*
X67861900Y-49834761D02*
X67909519Y-49787142D01*
X67909519Y-49787142D02*
X67957138Y-49691904D01*
X67957138Y-49691904D02*
X67957138Y-49406190D01*
X67957138Y-49406190D02*
X67909519Y-49310952D01*
X67909519Y-49310952D02*
X67861900Y-49263333D01*
X67861900Y-49263333D02*
X67766662Y-49215714D01*
X67766662Y-49215714D02*
X67576186Y-49215714D01*
X67576186Y-49215714D02*
X67480948Y-49263333D01*
X66861900Y-49882380D02*
X66957138Y-49834761D01*
X66957138Y-49834761D02*
X67004757Y-49787142D01*
X67004757Y-49787142D02*
X67052376Y-49691904D01*
X67052376Y-49691904D02*
X67052376Y-49406190D01*
X67052376Y-49406190D02*
X67004757Y-49310952D01*
X67004757Y-49310952D02*
X66957138Y-49263333D01*
X66957138Y-49263333D02*
X66861900Y-49215714D01*
X66861900Y-49215714D02*
X66719043Y-49215714D01*
X66719043Y-49215714D02*
X66623805Y-49263333D01*
X66623805Y-49263333D02*
X66576186Y-49310952D01*
X66576186Y-49310952D02*
X66528567Y-49406190D01*
X66528567Y-49406190D02*
X66528567Y-49691904D01*
X66528567Y-49691904D02*
X66576186Y-49787142D01*
X66576186Y-49787142D02*
X66623805Y-49834761D01*
X66623805Y-49834761D02*
X66719043Y-49882380D01*
X66719043Y-49882380D02*
X66861900Y-49882380D01*
X65499995Y-49882380D02*
X65499995Y-48882380D01*
X65499995Y-48882380D02*
X64928567Y-49882380D01*
X64928567Y-49882380D02*
X64928567Y-48882380D01*
X64261900Y-48882380D02*
X64071424Y-48882380D01*
X64071424Y-48882380D02*
X63976186Y-48930000D01*
X63976186Y-48930000D02*
X63880948Y-49025238D01*
X63880948Y-49025238D02*
X63833329Y-49215714D01*
X63833329Y-49215714D02*
X63833329Y-49549047D01*
X63833329Y-49549047D02*
X63880948Y-49739523D01*
X63880948Y-49739523D02*
X63976186Y-49834761D01*
X63976186Y-49834761D02*
X64071424Y-49882380D01*
X64071424Y-49882380D02*
X64261900Y-49882380D01*
X64261900Y-49882380D02*
X64357138Y-49834761D01*
X64357138Y-49834761D02*
X64452376Y-49739523D01*
X64452376Y-49739523D02*
X64499995Y-49549047D01*
X64499995Y-49549047D02*
X64499995Y-49215714D01*
X64499995Y-49215714D02*
X64452376Y-49025238D01*
X64452376Y-49025238D02*
X64357138Y-48930000D01*
X64357138Y-48930000D02*
X64261900Y-48882380D01*
X63547614Y-48882380D02*
X62976186Y-48882380D01*
X63261900Y-49882380D02*
X63261900Y-48882380D01*
X62090471Y-49834761D02*
X61995233Y-49882380D01*
X61995233Y-49882380D02*
X61804757Y-49882380D01*
X61804757Y-49882380D02*
X61709519Y-49834761D01*
X61709519Y-49834761D02*
X61661900Y-49739523D01*
X61661900Y-49739523D02*
X61661900Y-49691904D01*
X61661900Y-49691904D02*
X61709519Y-49596666D01*
X61709519Y-49596666D02*
X61804757Y-49549047D01*
X61804757Y-49549047D02*
X61947614Y-49549047D01*
X61947614Y-49549047D02*
X62042852Y-49501428D01*
X62042852Y-49501428D02*
X62090471Y-49406190D01*
X62090471Y-49406190D02*
X62090471Y-49358571D01*
X62090471Y-49358571D02*
X62042852Y-49263333D01*
X62042852Y-49263333D02*
X61947614Y-49215714D01*
X61947614Y-49215714D02*
X61804757Y-49215714D01*
X61804757Y-49215714D02*
X61709519Y-49263333D01*
X61233328Y-49882380D02*
X61233328Y-48882380D01*
X60804757Y-49882380D02*
X60804757Y-49358571D01*
X60804757Y-49358571D02*
X60852376Y-49263333D01*
X60852376Y-49263333D02*
X60947614Y-49215714D01*
X60947614Y-49215714D02*
X61090471Y-49215714D01*
X61090471Y-49215714D02*
X61185709Y-49263333D01*
X61185709Y-49263333D02*
X61233328Y-49310952D01*
X60328566Y-49882380D02*
X60328566Y-49215714D01*
X60328566Y-48882380D02*
X60376185Y-48930000D01*
X60376185Y-48930000D02*
X60328566Y-48977619D01*
X60328566Y-48977619D02*
X60280947Y-48930000D01*
X60280947Y-48930000D02*
X60328566Y-48882380D01*
X60328566Y-48882380D02*
X60328566Y-48977619D01*
X59995233Y-49215714D02*
X59614281Y-49215714D01*
X59852376Y-49882380D02*
X59852376Y-49025238D01*
X59852376Y-49025238D02*
X59804757Y-48930000D01*
X59804757Y-48930000D02*
X59709519Y-48882380D01*
X59709519Y-48882380D02*
X59614281Y-48882380D01*
X59423804Y-49215714D02*
X59042852Y-49215714D01*
X59280947Y-48882380D02*
X59280947Y-49739523D01*
X59280947Y-49739523D02*
X59233328Y-49834761D01*
X59233328Y-49834761D02*
X59138090Y-49882380D01*
X59138090Y-49882380D02*
X59042852Y-49882380D01*
X58252375Y-49215714D02*
X57871423Y-49215714D01*
X58109518Y-48882380D02*
X58109518Y-49739523D01*
X58109518Y-49739523D02*
X58061899Y-49834761D01*
X58061899Y-49834761D02*
X57966661Y-49882380D01*
X57966661Y-49882380D02*
X57871423Y-49882380D01*
X57538089Y-49882380D02*
X57538089Y-48882380D01*
X57109518Y-49882380D02*
X57109518Y-49358571D01*
X57109518Y-49358571D02*
X57157137Y-49263333D01*
X57157137Y-49263333D02*
X57252375Y-49215714D01*
X57252375Y-49215714D02*
X57395232Y-49215714D01*
X57395232Y-49215714D02*
X57490470Y-49263333D01*
X57490470Y-49263333D02*
X57538089Y-49310952D01*
X56252375Y-49834761D02*
X56347613Y-49882380D01*
X56347613Y-49882380D02*
X56538089Y-49882380D01*
X56538089Y-49882380D02*
X56633327Y-49834761D01*
X56633327Y-49834761D02*
X56680946Y-49739523D01*
X56680946Y-49739523D02*
X56680946Y-49358571D01*
X56680946Y-49358571D02*
X56633327Y-49263333D01*
X56633327Y-49263333D02*
X56538089Y-49215714D01*
X56538089Y-49215714D02*
X56347613Y-49215714D01*
X56347613Y-49215714D02*
X56252375Y-49263333D01*
X56252375Y-49263333D02*
X56204756Y-49358571D01*
X56204756Y-49358571D02*
X56204756Y-49453809D01*
X56204756Y-49453809D02*
X56680946Y-49549047D01*
X55176184Y-49215714D02*
X55176184Y-50215714D01*
X55176184Y-49263333D02*
X55080946Y-49215714D01*
X55080946Y-49215714D02*
X54890470Y-49215714D01*
X54890470Y-49215714D02*
X54795232Y-49263333D01*
X54795232Y-49263333D02*
X54747613Y-49310952D01*
X54747613Y-49310952D02*
X54699994Y-49406190D01*
X54699994Y-49406190D02*
X54699994Y-49691904D01*
X54699994Y-49691904D02*
X54747613Y-49787142D01*
X54747613Y-49787142D02*
X54795232Y-49834761D01*
X54795232Y-49834761D02*
X54890470Y-49882380D01*
X54890470Y-49882380D02*
X55080946Y-49882380D01*
X55080946Y-49882380D02*
X55176184Y-49834761D01*
X54128565Y-49882380D02*
X54223803Y-49834761D01*
X54223803Y-49834761D02*
X54271422Y-49787142D01*
X54271422Y-49787142D02*
X54319041Y-49691904D01*
X54319041Y-49691904D02*
X54319041Y-49406190D01*
X54319041Y-49406190D02*
X54271422Y-49310952D01*
X54271422Y-49310952D02*
X54223803Y-49263333D01*
X54223803Y-49263333D02*
X54128565Y-49215714D01*
X54128565Y-49215714D02*
X53985708Y-49215714D01*
X53985708Y-49215714D02*
X53890470Y-49263333D01*
X53890470Y-49263333D02*
X53842851Y-49310952D01*
X53842851Y-49310952D02*
X53795232Y-49406190D01*
X53795232Y-49406190D02*
X53795232Y-49691904D01*
X53795232Y-49691904D02*
X53842851Y-49787142D01*
X53842851Y-49787142D02*
X53890470Y-49834761D01*
X53890470Y-49834761D02*
X53985708Y-49882380D01*
X53985708Y-49882380D02*
X54128565Y-49882380D01*
X53461898Y-49215714D02*
X53271422Y-49882380D01*
X53271422Y-49882380D02*
X53080946Y-49406190D01*
X53080946Y-49406190D02*
X52890470Y-49882380D01*
X52890470Y-49882380D02*
X52699994Y-49215714D01*
X51938089Y-49834761D02*
X52033327Y-49882380D01*
X52033327Y-49882380D02*
X52223803Y-49882380D01*
X52223803Y-49882380D02*
X52319041Y-49834761D01*
X52319041Y-49834761D02*
X52366660Y-49739523D01*
X52366660Y-49739523D02*
X52366660Y-49358571D01*
X52366660Y-49358571D02*
X52319041Y-49263333D01*
X52319041Y-49263333D02*
X52223803Y-49215714D01*
X52223803Y-49215714D02*
X52033327Y-49215714D01*
X52033327Y-49215714D02*
X51938089Y-49263333D01*
X51938089Y-49263333D02*
X51890470Y-49358571D01*
X51890470Y-49358571D02*
X51890470Y-49453809D01*
X51890470Y-49453809D02*
X52366660Y-49549047D01*
X51461898Y-49882380D02*
X51461898Y-49215714D01*
X51461898Y-49406190D02*
X51414279Y-49310952D01*
X51414279Y-49310952D02*
X51366660Y-49263333D01*
X51366660Y-49263333D02*
X51271422Y-49215714D01*
X51271422Y-49215714D02*
X51176184Y-49215714D01*
X50099993Y-49882380D02*
X50195231Y-49834761D01*
X50195231Y-49834761D02*
X50242850Y-49739523D01*
X50242850Y-49739523D02*
X50242850Y-48882380D01*
X49338088Y-49834761D02*
X49433326Y-49882380D01*
X49433326Y-49882380D02*
X49623802Y-49882380D01*
X49623802Y-49882380D02*
X49719040Y-49834761D01*
X49719040Y-49834761D02*
X49766659Y-49739523D01*
X49766659Y-49739523D02*
X49766659Y-49358571D01*
X49766659Y-49358571D02*
X49719040Y-49263333D01*
X49719040Y-49263333D02*
X49623802Y-49215714D01*
X49623802Y-49215714D02*
X49433326Y-49215714D01*
X49433326Y-49215714D02*
X49338088Y-49263333D01*
X49338088Y-49263333D02*
X49290469Y-49358571D01*
X49290469Y-49358571D02*
X49290469Y-49453809D01*
X49290469Y-49453809D02*
X49766659Y-49549047D01*
X48957135Y-49215714D02*
X48719040Y-49882380D01*
X48719040Y-49882380D02*
X48480945Y-49215714D01*
X47719040Y-49834761D02*
X47814278Y-49882380D01*
X47814278Y-49882380D02*
X48004754Y-49882380D01*
X48004754Y-49882380D02*
X48099992Y-49834761D01*
X48099992Y-49834761D02*
X48147611Y-49739523D01*
X48147611Y-49739523D02*
X48147611Y-49358571D01*
X48147611Y-49358571D02*
X48099992Y-49263333D01*
X48099992Y-49263333D02*
X48004754Y-49215714D01*
X48004754Y-49215714D02*
X47814278Y-49215714D01*
X47814278Y-49215714D02*
X47719040Y-49263333D01*
X47719040Y-49263333D02*
X47671421Y-49358571D01*
X47671421Y-49358571D02*
X47671421Y-49453809D01*
X47671421Y-49453809D02*
X48147611Y-49549047D01*
X47099992Y-49882380D02*
X47195230Y-49834761D01*
X47195230Y-49834761D02*
X47242849Y-49739523D01*
X47242849Y-49739523D02*
X47242849Y-48882380D01*
X46766658Y-49834761D02*
X46671420Y-49882380D01*
X46671420Y-49882380D02*
X46480944Y-49882380D01*
X46480944Y-49882380D02*
X46385706Y-49834761D01*
X46385706Y-49834761D02*
X46338087Y-49739523D01*
X46338087Y-49739523D02*
X46338087Y-49691904D01*
X46338087Y-49691904D02*
X46385706Y-49596666D01*
X46385706Y-49596666D02*
X46480944Y-49549047D01*
X46480944Y-49549047D02*
X46623801Y-49549047D01*
X46623801Y-49549047D02*
X46719039Y-49501428D01*
X46719039Y-49501428D02*
X46766658Y-49406190D01*
X46766658Y-49406190D02*
X46766658Y-49358571D01*
X46766658Y-49358571D02*
X46719039Y-49263333D01*
X46719039Y-49263333D02*
X46623801Y-49215714D01*
X46623801Y-49215714D02*
X46480944Y-49215714D01*
X46480944Y-49215714D02*
X46385706Y-49263333D01*
X45452372Y-49215714D02*
X45071420Y-49215714D01*
X45309515Y-49882380D02*
X45309515Y-49025238D01*
X45309515Y-49025238D02*
X45261896Y-48930000D01*
X45261896Y-48930000D02*
X45166658Y-48882380D01*
X45166658Y-48882380D02*
X45071420Y-48882380D01*
X44595229Y-49882380D02*
X44690467Y-49834761D01*
X44690467Y-49834761D02*
X44738086Y-49787142D01*
X44738086Y-49787142D02*
X44785705Y-49691904D01*
X44785705Y-49691904D02*
X44785705Y-49406190D01*
X44785705Y-49406190D02*
X44738086Y-49310952D01*
X44738086Y-49310952D02*
X44690467Y-49263333D01*
X44690467Y-49263333D02*
X44595229Y-49215714D01*
X44595229Y-49215714D02*
X44452372Y-49215714D01*
X44452372Y-49215714D02*
X44357134Y-49263333D01*
X44357134Y-49263333D02*
X44309515Y-49310952D01*
X44309515Y-49310952D02*
X44261896Y-49406190D01*
X44261896Y-49406190D02*
X44261896Y-49691904D01*
X44261896Y-49691904D02*
X44309515Y-49787142D01*
X44309515Y-49787142D02*
X44357134Y-49834761D01*
X44357134Y-49834761D02*
X44452372Y-49882380D01*
X44452372Y-49882380D02*
X44595229Y-49882380D01*
X43833324Y-49882380D02*
X43833324Y-49215714D01*
X43833324Y-49406190D02*
X43785705Y-49310952D01*
X43785705Y-49310952D02*
X43738086Y-49263333D01*
X43738086Y-49263333D02*
X43642848Y-49215714D01*
X43642848Y-49215714D02*
X43547610Y-49215714D01*
X42614276Y-48882380D02*
X42614276Y-49691904D01*
X42614276Y-49691904D02*
X42566657Y-49787142D01*
X42566657Y-49787142D02*
X42519038Y-49834761D01*
X42519038Y-49834761D02*
X42423800Y-49882380D01*
X42423800Y-49882380D02*
X42233324Y-49882380D01*
X42233324Y-49882380D02*
X42138086Y-49834761D01*
X42138086Y-49834761D02*
X42090467Y-49787142D01*
X42090467Y-49787142D02*
X42042848Y-49691904D01*
X42042848Y-49691904D02*
X42042848Y-48882380D01*
X41614276Y-49596666D02*
X41138086Y-49596666D01*
X41709514Y-49882380D02*
X41376181Y-48882380D01*
X41376181Y-48882380D02*
X41042848Y-49882380D01*
X40138086Y-49882380D02*
X40471419Y-49406190D01*
X40709514Y-49882380D02*
X40709514Y-48882380D01*
X40709514Y-48882380D02*
X40328562Y-48882380D01*
X40328562Y-48882380D02*
X40233324Y-48930000D01*
X40233324Y-48930000D02*
X40185705Y-48977619D01*
X40185705Y-48977619D02*
X40138086Y-49072857D01*
X40138086Y-49072857D02*
X40138086Y-49215714D01*
X40138086Y-49215714D02*
X40185705Y-49310952D01*
X40185705Y-49310952D02*
X40233324Y-49358571D01*
X40233324Y-49358571D02*
X40328562Y-49406190D01*
X40328562Y-49406190D02*
X40709514Y-49406190D01*
X39852371Y-48882380D02*
X39280943Y-48882380D01*
X39566657Y-49882380D02*
X39566657Y-48882380D01*
X38490466Y-48882380D02*
X37919038Y-48882380D01*
X38204752Y-49882380D02*
X38204752Y-48882380D01*
X37680942Y-48882380D02*
X37014276Y-49882380D01*
X37014276Y-48882380D02*
X37680942Y-49882380D01*
X35919038Y-48834761D02*
X36776180Y-50120476D01*
X35014276Y-49882380D02*
X35347609Y-49406190D01*
X35585704Y-49882380D02*
X35585704Y-48882380D01*
X35585704Y-48882380D02*
X35204752Y-48882380D01*
X35204752Y-48882380D02*
X35109514Y-48930000D01*
X35109514Y-48930000D02*
X35061895Y-48977619D01*
X35061895Y-48977619D02*
X35014276Y-49072857D01*
X35014276Y-49072857D02*
X35014276Y-49215714D01*
X35014276Y-49215714D02*
X35061895Y-49310952D01*
X35061895Y-49310952D02*
X35109514Y-49358571D01*
X35109514Y-49358571D02*
X35204752Y-49406190D01*
X35204752Y-49406190D02*
X35585704Y-49406190D01*
X34680942Y-48882380D02*
X34014276Y-49882380D01*
X34014276Y-48882380D02*
X34680942Y-49882380D01*
X114157142Y-50835714D02*
X113966666Y-51502380D01*
X113966666Y-51502380D02*
X113776190Y-51026190D01*
X113776190Y-51026190D02*
X113585714Y-51502380D01*
X113585714Y-51502380D02*
X113395238Y-50835714D01*
X113014285Y-51502380D02*
X113014285Y-50502380D01*
X112585714Y-51502380D02*
X112585714Y-50978571D01*
X112585714Y-50978571D02*
X112633333Y-50883333D01*
X112633333Y-50883333D02*
X112728571Y-50835714D01*
X112728571Y-50835714D02*
X112871428Y-50835714D01*
X112871428Y-50835714D02*
X112966666Y-50883333D01*
X112966666Y-50883333D02*
X113014285Y-50930952D01*
X112109523Y-51502380D02*
X112109523Y-50835714D01*
X112109523Y-50502380D02*
X112157142Y-50550000D01*
X112157142Y-50550000D02*
X112109523Y-50597619D01*
X112109523Y-50597619D02*
X112061904Y-50550000D01*
X112061904Y-50550000D02*
X112109523Y-50502380D01*
X112109523Y-50502380D02*
X112109523Y-50597619D01*
X111204762Y-51454761D02*
X111300000Y-51502380D01*
X111300000Y-51502380D02*
X111490476Y-51502380D01*
X111490476Y-51502380D02*
X111585714Y-51454761D01*
X111585714Y-51454761D02*
X111633333Y-51407142D01*
X111633333Y-51407142D02*
X111680952Y-51311904D01*
X111680952Y-51311904D02*
X111680952Y-51026190D01*
X111680952Y-51026190D02*
X111633333Y-50930952D01*
X111633333Y-50930952D02*
X111585714Y-50883333D01*
X111585714Y-50883333D02*
X111490476Y-50835714D01*
X111490476Y-50835714D02*
X111300000Y-50835714D01*
X111300000Y-50835714D02*
X111204762Y-50883333D01*
X110776190Y-51502380D02*
X110776190Y-50502380D01*
X110347619Y-51502380D02*
X110347619Y-50978571D01*
X110347619Y-50978571D02*
X110395238Y-50883333D01*
X110395238Y-50883333D02*
X110490476Y-50835714D01*
X110490476Y-50835714D02*
X110633333Y-50835714D01*
X110633333Y-50835714D02*
X110728571Y-50883333D01*
X110728571Y-50883333D02*
X110776190Y-50930952D01*
X109366666Y-50835714D02*
X109176190Y-51502380D01*
X109176190Y-51502380D02*
X108985714Y-51026190D01*
X108985714Y-51026190D02*
X108795238Y-51502380D01*
X108795238Y-51502380D02*
X108604762Y-50835714D01*
X108223809Y-51502380D02*
X108223809Y-50835714D01*
X108223809Y-50502380D02*
X108271428Y-50550000D01*
X108271428Y-50550000D02*
X108223809Y-50597619D01*
X108223809Y-50597619D02*
X108176190Y-50550000D01*
X108176190Y-50550000D02*
X108223809Y-50502380D01*
X108223809Y-50502380D02*
X108223809Y-50597619D01*
X107604762Y-51502380D02*
X107700000Y-51454761D01*
X107700000Y-51454761D02*
X107747619Y-51359523D01*
X107747619Y-51359523D02*
X107747619Y-50502380D01*
X107080952Y-51502380D02*
X107176190Y-51454761D01*
X107176190Y-51454761D02*
X107223809Y-51359523D01*
X107223809Y-51359523D02*
X107223809Y-50502380D01*
X105957142Y-51502380D02*
X106052380Y-51454761D01*
X106052380Y-51454761D02*
X106099999Y-51407142D01*
X106099999Y-51407142D02*
X106147618Y-51311904D01*
X106147618Y-51311904D02*
X106147618Y-51026190D01*
X106147618Y-51026190D02*
X106099999Y-50930952D01*
X106099999Y-50930952D02*
X106052380Y-50883333D01*
X106052380Y-50883333D02*
X105957142Y-50835714D01*
X105957142Y-50835714D02*
X105814285Y-50835714D01*
X105814285Y-50835714D02*
X105719047Y-50883333D01*
X105719047Y-50883333D02*
X105671428Y-50930952D01*
X105671428Y-50930952D02*
X105623809Y-51026190D01*
X105623809Y-51026190D02*
X105623809Y-51311904D01*
X105623809Y-51311904D02*
X105671428Y-51407142D01*
X105671428Y-51407142D02*
X105719047Y-51454761D01*
X105719047Y-51454761D02*
X105814285Y-51502380D01*
X105814285Y-51502380D02*
X105957142Y-51502380D01*
X105195237Y-50835714D02*
X105195237Y-51835714D01*
X105195237Y-50883333D02*
X105099999Y-50835714D01*
X105099999Y-50835714D02*
X104909523Y-50835714D01*
X104909523Y-50835714D02*
X104814285Y-50883333D01*
X104814285Y-50883333D02*
X104766666Y-50930952D01*
X104766666Y-50930952D02*
X104719047Y-51026190D01*
X104719047Y-51026190D02*
X104719047Y-51311904D01*
X104719047Y-51311904D02*
X104766666Y-51407142D01*
X104766666Y-51407142D02*
X104814285Y-51454761D01*
X104814285Y-51454761D02*
X104909523Y-51502380D01*
X104909523Y-51502380D02*
X105099999Y-51502380D01*
X105099999Y-51502380D02*
X105195237Y-51454761D01*
X103909523Y-51454761D02*
X104004761Y-51502380D01*
X104004761Y-51502380D02*
X104195237Y-51502380D01*
X104195237Y-51502380D02*
X104290475Y-51454761D01*
X104290475Y-51454761D02*
X104338094Y-51359523D01*
X104338094Y-51359523D02*
X104338094Y-50978571D01*
X104338094Y-50978571D02*
X104290475Y-50883333D01*
X104290475Y-50883333D02*
X104195237Y-50835714D01*
X104195237Y-50835714D02*
X104004761Y-50835714D01*
X104004761Y-50835714D02*
X103909523Y-50883333D01*
X103909523Y-50883333D02*
X103861904Y-50978571D01*
X103861904Y-50978571D02*
X103861904Y-51073809D01*
X103861904Y-51073809D02*
X104338094Y-51169047D01*
X103433332Y-51502380D02*
X103433332Y-50835714D01*
X103433332Y-51026190D02*
X103385713Y-50930952D01*
X103385713Y-50930952D02*
X103338094Y-50883333D01*
X103338094Y-50883333D02*
X103242856Y-50835714D01*
X103242856Y-50835714D02*
X103147618Y-50835714D01*
X102385713Y-51502380D02*
X102385713Y-50978571D01*
X102385713Y-50978571D02*
X102433332Y-50883333D01*
X102433332Y-50883333D02*
X102528570Y-50835714D01*
X102528570Y-50835714D02*
X102719046Y-50835714D01*
X102719046Y-50835714D02*
X102814284Y-50883333D01*
X102385713Y-51454761D02*
X102480951Y-51502380D01*
X102480951Y-51502380D02*
X102719046Y-51502380D01*
X102719046Y-51502380D02*
X102814284Y-51454761D01*
X102814284Y-51454761D02*
X102861903Y-51359523D01*
X102861903Y-51359523D02*
X102861903Y-51264285D01*
X102861903Y-51264285D02*
X102814284Y-51169047D01*
X102814284Y-51169047D02*
X102719046Y-51121428D01*
X102719046Y-51121428D02*
X102480951Y-51121428D01*
X102480951Y-51121428D02*
X102385713Y-51073809D01*
X102052379Y-50835714D02*
X101671427Y-50835714D01*
X101909522Y-50502380D02*
X101909522Y-51359523D01*
X101909522Y-51359523D02*
X101861903Y-51454761D01*
X101861903Y-51454761D02*
X101766665Y-51502380D01*
X101766665Y-51502380D02*
X101671427Y-51502380D01*
X100957141Y-51454761D02*
X101052379Y-51502380D01*
X101052379Y-51502380D02*
X101242855Y-51502380D01*
X101242855Y-51502380D02*
X101338093Y-51454761D01*
X101338093Y-51454761D02*
X101385712Y-51359523D01*
X101385712Y-51359523D02*
X101385712Y-50978571D01*
X101385712Y-50978571D02*
X101338093Y-50883333D01*
X101338093Y-50883333D02*
X101242855Y-50835714D01*
X101242855Y-50835714D02*
X101052379Y-50835714D01*
X101052379Y-50835714D02*
X100957141Y-50883333D01*
X100957141Y-50883333D02*
X100909522Y-50978571D01*
X100909522Y-50978571D02*
X100909522Y-51073809D01*
X100909522Y-51073809D02*
X101385712Y-51169047D01*
X99452379Y-51502380D02*
X99452379Y-50978571D01*
X99452379Y-50978571D02*
X99499998Y-50883333D01*
X99499998Y-50883333D02*
X99595236Y-50835714D01*
X99595236Y-50835714D02*
X99785712Y-50835714D01*
X99785712Y-50835714D02*
X99880950Y-50883333D01*
X99452379Y-51454761D02*
X99547617Y-51502380D01*
X99547617Y-51502380D02*
X99785712Y-51502380D01*
X99785712Y-51502380D02*
X99880950Y-51454761D01*
X99880950Y-51454761D02*
X99928569Y-51359523D01*
X99928569Y-51359523D02*
X99928569Y-51264285D01*
X99928569Y-51264285D02*
X99880950Y-51169047D01*
X99880950Y-51169047D02*
X99785712Y-51121428D01*
X99785712Y-51121428D02*
X99547617Y-51121428D01*
X99547617Y-51121428D02*
X99452379Y-51073809D01*
X99119045Y-50835714D02*
X98738093Y-50835714D01*
X98976188Y-50502380D02*
X98976188Y-51359523D01*
X98976188Y-51359523D02*
X98928569Y-51454761D01*
X98928569Y-51454761D02*
X98833331Y-51502380D01*
X98833331Y-51502380D02*
X98738093Y-51502380D01*
X97899997Y-50502380D02*
X97280950Y-50502380D01*
X97280950Y-50502380D02*
X97614283Y-50883333D01*
X97614283Y-50883333D02*
X97471426Y-50883333D01*
X97471426Y-50883333D02*
X97376188Y-50930952D01*
X97376188Y-50930952D02*
X97328569Y-50978571D01*
X97328569Y-50978571D02*
X97280950Y-51073809D01*
X97280950Y-51073809D02*
X97280950Y-51311904D01*
X97280950Y-51311904D02*
X97328569Y-51407142D01*
X97328569Y-51407142D02*
X97376188Y-51454761D01*
X97376188Y-51454761D02*
X97471426Y-51502380D01*
X97471426Y-51502380D02*
X97757140Y-51502380D01*
X97757140Y-51502380D02*
X97852378Y-51454761D01*
X97852378Y-51454761D02*
X97899997Y-51407142D01*
X96852378Y-51407142D02*
X96804759Y-51454761D01*
X96804759Y-51454761D02*
X96852378Y-51502380D01*
X96852378Y-51502380D02*
X96899997Y-51454761D01*
X96899997Y-51454761D02*
X96852378Y-51407142D01*
X96852378Y-51407142D02*
X96852378Y-51502380D01*
X96471426Y-50502380D02*
X95852379Y-50502380D01*
X95852379Y-50502380D02*
X96185712Y-50883333D01*
X96185712Y-50883333D02*
X96042855Y-50883333D01*
X96042855Y-50883333D02*
X95947617Y-50930952D01*
X95947617Y-50930952D02*
X95899998Y-50978571D01*
X95899998Y-50978571D02*
X95852379Y-51073809D01*
X95852379Y-51073809D02*
X95852379Y-51311904D01*
X95852379Y-51311904D02*
X95899998Y-51407142D01*
X95899998Y-51407142D02*
X95947617Y-51454761D01*
X95947617Y-51454761D02*
X96042855Y-51502380D01*
X96042855Y-51502380D02*
X96328569Y-51502380D01*
X96328569Y-51502380D02*
X96423807Y-51454761D01*
X96423807Y-51454761D02*
X96471426Y-51407142D01*
X95566664Y-50502380D02*
X95233331Y-51502380D01*
X95233331Y-51502380D02*
X94899998Y-50502380D01*
X94519045Y-51454761D02*
X94519045Y-51502380D01*
X94519045Y-51502380D02*
X94566664Y-51597619D01*
X94566664Y-51597619D02*
X94614283Y-51645238D01*
X93490474Y-51502380D02*
X93490474Y-50502380D01*
X93490474Y-50502380D02*
X93109522Y-50502380D01*
X93109522Y-50502380D02*
X93014284Y-50550000D01*
X93014284Y-50550000D02*
X92966665Y-50597619D01*
X92966665Y-50597619D02*
X92919046Y-50692857D01*
X92919046Y-50692857D02*
X92919046Y-50835714D01*
X92919046Y-50835714D02*
X92966665Y-50930952D01*
X92966665Y-50930952D02*
X93014284Y-50978571D01*
X93014284Y-50978571D02*
X93109522Y-51026190D01*
X93109522Y-51026190D02*
X93490474Y-51026190D01*
X92347617Y-51502380D02*
X92442855Y-51454761D01*
X92442855Y-51454761D02*
X92490474Y-51359523D01*
X92490474Y-51359523D02*
X92490474Y-50502380D01*
X91585712Y-51454761D02*
X91680950Y-51502380D01*
X91680950Y-51502380D02*
X91871426Y-51502380D01*
X91871426Y-51502380D02*
X91966664Y-51454761D01*
X91966664Y-51454761D02*
X92014283Y-51359523D01*
X92014283Y-51359523D02*
X92014283Y-50978571D01*
X92014283Y-50978571D02*
X91966664Y-50883333D01*
X91966664Y-50883333D02*
X91871426Y-50835714D01*
X91871426Y-50835714D02*
X91680950Y-50835714D01*
X91680950Y-50835714D02*
X91585712Y-50883333D01*
X91585712Y-50883333D02*
X91538093Y-50978571D01*
X91538093Y-50978571D02*
X91538093Y-51073809D01*
X91538093Y-51073809D02*
X92014283Y-51169047D01*
X90680950Y-51502380D02*
X90680950Y-50978571D01*
X90680950Y-50978571D02*
X90728569Y-50883333D01*
X90728569Y-50883333D02*
X90823807Y-50835714D01*
X90823807Y-50835714D02*
X91014283Y-50835714D01*
X91014283Y-50835714D02*
X91109521Y-50883333D01*
X90680950Y-51454761D02*
X90776188Y-51502380D01*
X90776188Y-51502380D02*
X91014283Y-51502380D01*
X91014283Y-51502380D02*
X91109521Y-51454761D01*
X91109521Y-51454761D02*
X91157140Y-51359523D01*
X91157140Y-51359523D02*
X91157140Y-51264285D01*
X91157140Y-51264285D02*
X91109521Y-51169047D01*
X91109521Y-51169047D02*
X91014283Y-51121428D01*
X91014283Y-51121428D02*
X90776188Y-51121428D01*
X90776188Y-51121428D02*
X90680950Y-51073809D01*
X90252378Y-51454761D02*
X90157140Y-51502380D01*
X90157140Y-51502380D02*
X89966664Y-51502380D01*
X89966664Y-51502380D02*
X89871426Y-51454761D01*
X89871426Y-51454761D02*
X89823807Y-51359523D01*
X89823807Y-51359523D02*
X89823807Y-51311904D01*
X89823807Y-51311904D02*
X89871426Y-51216666D01*
X89871426Y-51216666D02*
X89966664Y-51169047D01*
X89966664Y-51169047D02*
X90109521Y-51169047D01*
X90109521Y-51169047D02*
X90204759Y-51121428D01*
X90204759Y-51121428D02*
X90252378Y-51026190D01*
X90252378Y-51026190D02*
X90252378Y-50978571D01*
X90252378Y-50978571D02*
X90204759Y-50883333D01*
X90204759Y-50883333D02*
X90109521Y-50835714D01*
X90109521Y-50835714D02*
X89966664Y-50835714D01*
X89966664Y-50835714D02*
X89871426Y-50883333D01*
X89014283Y-51454761D02*
X89109521Y-51502380D01*
X89109521Y-51502380D02*
X89299997Y-51502380D01*
X89299997Y-51502380D02*
X89395235Y-51454761D01*
X89395235Y-51454761D02*
X89442854Y-51359523D01*
X89442854Y-51359523D02*
X89442854Y-50978571D01*
X89442854Y-50978571D02*
X89395235Y-50883333D01*
X89395235Y-50883333D02*
X89299997Y-50835714D01*
X89299997Y-50835714D02*
X89109521Y-50835714D01*
X89109521Y-50835714D02*
X89014283Y-50883333D01*
X89014283Y-50883333D02*
X88966664Y-50978571D01*
X88966664Y-50978571D02*
X88966664Y-51073809D01*
X88966664Y-51073809D02*
X89442854Y-51169047D01*
X87938092Y-51502380D02*
X87938092Y-50835714D01*
X87938092Y-50930952D02*
X87890473Y-50883333D01*
X87890473Y-50883333D02*
X87795235Y-50835714D01*
X87795235Y-50835714D02*
X87652378Y-50835714D01*
X87652378Y-50835714D02*
X87557140Y-50883333D01*
X87557140Y-50883333D02*
X87509521Y-50978571D01*
X87509521Y-50978571D02*
X87509521Y-51502380D01*
X87509521Y-50978571D02*
X87461902Y-50883333D01*
X87461902Y-50883333D02*
X87366664Y-50835714D01*
X87366664Y-50835714D02*
X87223807Y-50835714D01*
X87223807Y-50835714D02*
X87128568Y-50883333D01*
X87128568Y-50883333D02*
X87080949Y-50978571D01*
X87080949Y-50978571D02*
X87080949Y-51502380D01*
X86223807Y-51454761D02*
X86319045Y-51502380D01*
X86319045Y-51502380D02*
X86509521Y-51502380D01*
X86509521Y-51502380D02*
X86604759Y-51454761D01*
X86604759Y-51454761D02*
X86652378Y-51359523D01*
X86652378Y-51359523D02*
X86652378Y-50978571D01*
X86652378Y-50978571D02*
X86604759Y-50883333D01*
X86604759Y-50883333D02*
X86509521Y-50835714D01*
X86509521Y-50835714D02*
X86319045Y-50835714D01*
X86319045Y-50835714D02*
X86223807Y-50883333D01*
X86223807Y-50883333D02*
X86176188Y-50978571D01*
X86176188Y-50978571D02*
X86176188Y-51073809D01*
X86176188Y-51073809D02*
X86652378Y-51169047D01*
X85319045Y-51502380D02*
X85319045Y-50978571D01*
X85319045Y-50978571D02*
X85366664Y-50883333D01*
X85366664Y-50883333D02*
X85461902Y-50835714D01*
X85461902Y-50835714D02*
X85652378Y-50835714D01*
X85652378Y-50835714D02*
X85747616Y-50883333D01*
X85319045Y-51454761D02*
X85414283Y-51502380D01*
X85414283Y-51502380D02*
X85652378Y-51502380D01*
X85652378Y-51502380D02*
X85747616Y-51454761D01*
X85747616Y-51454761D02*
X85795235Y-51359523D01*
X85795235Y-51359523D02*
X85795235Y-51264285D01*
X85795235Y-51264285D02*
X85747616Y-51169047D01*
X85747616Y-51169047D02*
X85652378Y-51121428D01*
X85652378Y-51121428D02*
X85414283Y-51121428D01*
X85414283Y-51121428D02*
X85319045Y-51073809D01*
X84890473Y-51454761D02*
X84795235Y-51502380D01*
X84795235Y-51502380D02*
X84604759Y-51502380D01*
X84604759Y-51502380D02*
X84509521Y-51454761D01*
X84509521Y-51454761D02*
X84461902Y-51359523D01*
X84461902Y-51359523D02*
X84461902Y-51311904D01*
X84461902Y-51311904D02*
X84509521Y-51216666D01*
X84509521Y-51216666D02*
X84604759Y-51169047D01*
X84604759Y-51169047D02*
X84747616Y-51169047D01*
X84747616Y-51169047D02*
X84842854Y-51121428D01*
X84842854Y-51121428D02*
X84890473Y-51026190D01*
X84890473Y-51026190D02*
X84890473Y-50978571D01*
X84890473Y-50978571D02*
X84842854Y-50883333D01*
X84842854Y-50883333D02*
X84747616Y-50835714D01*
X84747616Y-50835714D02*
X84604759Y-50835714D01*
X84604759Y-50835714D02*
X84509521Y-50883333D01*
X83604759Y-50835714D02*
X83604759Y-51502380D01*
X84033330Y-50835714D02*
X84033330Y-51359523D01*
X84033330Y-51359523D02*
X83985711Y-51454761D01*
X83985711Y-51454761D02*
X83890473Y-51502380D01*
X83890473Y-51502380D02*
X83747616Y-51502380D01*
X83747616Y-51502380D02*
X83652378Y-51454761D01*
X83652378Y-51454761D02*
X83604759Y-51407142D01*
X83128568Y-51502380D02*
X83128568Y-50835714D01*
X83128568Y-51026190D02*
X83080949Y-50930952D01*
X83080949Y-50930952D02*
X83033330Y-50883333D01*
X83033330Y-50883333D02*
X82938092Y-50835714D01*
X82938092Y-50835714D02*
X82842854Y-50835714D01*
X82128568Y-51454761D02*
X82223806Y-51502380D01*
X82223806Y-51502380D02*
X82414282Y-51502380D01*
X82414282Y-51502380D02*
X82509520Y-51454761D01*
X82509520Y-51454761D02*
X82557139Y-51359523D01*
X82557139Y-51359523D02*
X82557139Y-50978571D01*
X82557139Y-50978571D02*
X82509520Y-50883333D01*
X82509520Y-50883333D02*
X82414282Y-50835714D01*
X82414282Y-50835714D02*
X82223806Y-50835714D01*
X82223806Y-50835714D02*
X82128568Y-50883333D01*
X82128568Y-50883333D02*
X82080949Y-50978571D01*
X82080949Y-50978571D02*
X82080949Y-51073809D01*
X82080949Y-51073809D02*
X82557139Y-51169047D01*
X81147615Y-50835714D02*
X80909520Y-51502380D01*
X80909520Y-51502380D02*
X80671425Y-50835714D01*
X80147615Y-51502380D02*
X80242853Y-51454761D01*
X80242853Y-51454761D02*
X80290472Y-51407142D01*
X80290472Y-51407142D02*
X80338091Y-51311904D01*
X80338091Y-51311904D02*
X80338091Y-51026190D01*
X80338091Y-51026190D02*
X80290472Y-50930952D01*
X80290472Y-50930952D02*
X80242853Y-50883333D01*
X80242853Y-50883333D02*
X80147615Y-50835714D01*
X80147615Y-50835714D02*
X80004758Y-50835714D01*
X80004758Y-50835714D02*
X79909520Y-50883333D01*
X79909520Y-50883333D02*
X79861901Y-50930952D01*
X79861901Y-50930952D02*
X79814282Y-51026190D01*
X79814282Y-51026190D02*
X79814282Y-51311904D01*
X79814282Y-51311904D02*
X79861901Y-51407142D01*
X79861901Y-51407142D02*
X79909520Y-51454761D01*
X79909520Y-51454761D02*
X80004758Y-51502380D01*
X80004758Y-51502380D02*
X80147615Y-51502380D01*
X79242853Y-51502380D02*
X79338091Y-51454761D01*
X79338091Y-51454761D02*
X79385710Y-51359523D01*
X79385710Y-51359523D02*
X79385710Y-50502380D01*
X79004757Y-50835714D02*
X78623805Y-50835714D01*
X78861900Y-50502380D02*
X78861900Y-51359523D01*
X78861900Y-51359523D02*
X78814281Y-51454761D01*
X78814281Y-51454761D02*
X78719043Y-51502380D01*
X78719043Y-51502380D02*
X78623805Y-51502380D01*
X77861900Y-51502380D02*
X77861900Y-50978571D01*
X77861900Y-50978571D02*
X77909519Y-50883333D01*
X77909519Y-50883333D02*
X78004757Y-50835714D01*
X78004757Y-50835714D02*
X78195233Y-50835714D01*
X78195233Y-50835714D02*
X78290471Y-50883333D01*
X77861900Y-51454761D02*
X77957138Y-51502380D01*
X77957138Y-51502380D02*
X78195233Y-51502380D01*
X78195233Y-51502380D02*
X78290471Y-51454761D01*
X78290471Y-51454761D02*
X78338090Y-51359523D01*
X78338090Y-51359523D02*
X78338090Y-51264285D01*
X78338090Y-51264285D02*
X78290471Y-51169047D01*
X78290471Y-51169047D02*
X78195233Y-51121428D01*
X78195233Y-51121428D02*
X77957138Y-51121428D01*
X77957138Y-51121428D02*
X77861900Y-51073809D01*
X76957138Y-50835714D02*
X76957138Y-51645238D01*
X76957138Y-51645238D02*
X77004757Y-51740476D01*
X77004757Y-51740476D02*
X77052376Y-51788095D01*
X77052376Y-51788095D02*
X77147614Y-51835714D01*
X77147614Y-51835714D02*
X77290471Y-51835714D01*
X77290471Y-51835714D02*
X77385709Y-51788095D01*
X76957138Y-51454761D02*
X77052376Y-51502380D01*
X77052376Y-51502380D02*
X77242852Y-51502380D01*
X77242852Y-51502380D02*
X77338090Y-51454761D01*
X77338090Y-51454761D02*
X77385709Y-51407142D01*
X77385709Y-51407142D02*
X77433328Y-51311904D01*
X77433328Y-51311904D02*
X77433328Y-51026190D01*
X77433328Y-51026190D02*
X77385709Y-50930952D01*
X77385709Y-50930952D02*
X77338090Y-50883333D01*
X77338090Y-50883333D02*
X77242852Y-50835714D01*
X77242852Y-50835714D02*
X77052376Y-50835714D01*
X77052376Y-50835714D02*
X76957138Y-50883333D01*
X76099995Y-51454761D02*
X76195233Y-51502380D01*
X76195233Y-51502380D02*
X76385709Y-51502380D01*
X76385709Y-51502380D02*
X76480947Y-51454761D01*
X76480947Y-51454761D02*
X76528566Y-51359523D01*
X76528566Y-51359523D02*
X76528566Y-50978571D01*
X76528566Y-50978571D02*
X76480947Y-50883333D01*
X76480947Y-50883333D02*
X76385709Y-50835714D01*
X76385709Y-50835714D02*
X76195233Y-50835714D01*
X76195233Y-50835714D02*
X76099995Y-50883333D01*
X76099995Y-50883333D02*
X76052376Y-50978571D01*
X76052376Y-50978571D02*
X76052376Y-51073809D01*
X76052376Y-51073809D02*
X76528566Y-51169047D01*
X74880947Y-51502380D02*
X74976185Y-51454761D01*
X74976185Y-51454761D02*
X75023804Y-51407142D01*
X75023804Y-51407142D02*
X75071423Y-51311904D01*
X75071423Y-51311904D02*
X75071423Y-51026190D01*
X75071423Y-51026190D02*
X75023804Y-50930952D01*
X75023804Y-50930952D02*
X74976185Y-50883333D01*
X74976185Y-50883333D02*
X74880947Y-50835714D01*
X74880947Y-50835714D02*
X74738090Y-50835714D01*
X74738090Y-50835714D02*
X74642852Y-50883333D01*
X74642852Y-50883333D02*
X74595233Y-50930952D01*
X74595233Y-50930952D02*
X74547614Y-51026190D01*
X74547614Y-51026190D02*
X74547614Y-51311904D01*
X74547614Y-51311904D02*
X74595233Y-51407142D01*
X74595233Y-51407142D02*
X74642852Y-51454761D01*
X74642852Y-51454761D02*
X74738090Y-51502380D01*
X74738090Y-51502380D02*
X74880947Y-51502380D01*
X74119042Y-50835714D02*
X74119042Y-51502380D01*
X74119042Y-50930952D02*
X74071423Y-50883333D01*
X74071423Y-50883333D02*
X73976185Y-50835714D01*
X73976185Y-50835714D02*
X73833328Y-50835714D01*
X73833328Y-50835714D02*
X73738090Y-50883333D01*
X73738090Y-50883333D02*
X73690471Y-50978571D01*
X73690471Y-50978571D02*
X73690471Y-51502380D01*
X72709518Y-50835714D02*
X72471423Y-51502380D01*
X72233328Y-50835714D02*
X72471423Y-51502380D01*
X72471423Y-51502380D02*
X72566661Y-51740476D01*
X72566661Y-51740476D02*
X72614280Y-51788095D01*
X72614280Y-51788095D02*
X72709518Y-51835714D01*
X71709518Y-51502380D02*
X71804756Y-51454761D01*
X71804756Y-51454761D02*
X71852375Y-51407142D01*
X71852375Y-51407142D02*
X71899994Y-51311904D01*
X71899994Y-51311904D02*
X71899994Y-51026190D01*
X71899994Y-51026190D02*
X71852375Y-50930952D01*
X71852375Y-50930952D02*
X71804756Y-50883333D01*
X71804756Y-50883333D02*
X71709518Y-50835714D01*
X71709518Y-50835714D02*
X71566661Y-50835714D01*
X71566661Y-50835714D02*
X71471423Y-50883333D01*
X71471423Y-50883333D02*
X71423804Y-50930952D01*
X71423804Y-50930952D02*
X71376185Y-51026190D01*
X71376185Y-51026190D02*
X71376185Y-51311904D01*
X71376185Y-51311904D02*
X71423804Y-51407142D01*
X71423804Y-51407142D02*
X71471423Y-51454761D01*
X71471423Y-51454761D02*
X71566661Y-51502380D01*
X71566661Y-51502380D02*
X71709518Y-51502380D01*
X70519042Y-50835714D02*
X70519042Y-51502380D01*
X70947613Y-50835714D02*
X70947613Y-51359523D01*
X70947613Y-51359523D02*
X70899994Y-51454761D01*
X70899994Y-51454761D02*
X70804756Y-51502380D01*
X70804756Y-51502380D02*
X70661899Y-51502380D01*
X70661899Y-51502380D02*
X70566661Y-51454761D01*
X70566661Y-51454761D02*
X70519042Y-51407142D01*
X70042851Y-51502380D02*
X70042851Y-50835714D01*
X70042851Y-51026190D02*
X69995232Y-50930952D01*
X69995232Y-50930952D02*
X69947613Y-50883333D01*
X69947613Y-50883333D02*
X69852375Y-50835714D01*
X69852375Y-50835714D02*
X69757137Y-50835714D01*
X68823803Y-50502380D02*
X68823803Y-51311904D01*
X68823803Y-51311904D02*
X68776184Y-51407142D01*
X68776184Y-51407142D02*
X68728565Y-51454761D01*
X68728565Y-51454761D02*
X68633327Y-51502380D01*
X68633327Y-51502380D02*
X68442851Y-51502380D01*
X68442851Y-51502380D02*
X68347613Y-51454761D01*
X68347613Y-51454761D02*
X68299994Y-51407142D01*
X68299994Y-51407142D02*
X68252375Y-51311904D01*
X68252375Y-51311904D02*
X68252375Y-50502380D01*
X67823803Y-51216666D02*
X67347613Y-51216666D01*
X67919041Y-51502380D02*
X67585708Y-50502380D01*
X67585708Y-50502380D02*
X67252375Y-51502380D01*
X66347613Y-51502380D02*
X66680946Y-51026190D01*
X66919041Y-51502380D02*
X66919041Y-50502380D01*
X66919041Y-50502380D02*
X66538089Y-50502380D01*
X66538089Y-50502380D02*
X66442851Y-50550000D01*
X66442851Y-50550000D02*
X66395232Y-50597619D01*
X66395232Y-50597619D02*
X66347613Y-50692857D01*
X66347613Y-50692857D02*
X66347613Y-50835714D01*
X66347613Y-50835714D02*
X66395232Y-50930952D01*
X66395232Y-50930952D02*
X66442851Y-50978571D01*
X66442851Y-50978571D02*
X66538089Y-51026190D01*
X66538089Y-51026190D02*
X66919041Y-51026190D01*
X66061898Y-50502380D02*
X65490470Y-50502380D01*
X65776184Y-51502380D02*
X65776184Y-50502380D01*
X64557136Y-51502380D02*
X64557136Y-50835714D01*
X64557136Y-50930952D02*
X64509517Y-50883333D01*
X64509517Y-50883333D02*
X64414279Y-50835714D01*
X64414279Y-50835714D02*
X64271422Y-50835714D01*
X64271422Y-50835714D02*
X64176184Y-50883333D01*
X64176184Y-50883333D02*
X64128565Y-50978571D01*
X64128565Y-50978571D02*
X64128565Y-51502380D01*
X64128565Y-50978571D02*
X64080946Y-50883333D01*
X64080946Y-50883333D02*
X63985708Y-50835714D01*
X63985708Y-50835714D02*
X63842851Y-50835714D01*
X63842851Y-50835714D02*
X63747612Y-50883333D01*
X63747612Y-50883333D02*
X63699993Y-50978571D01*
X63699993Y-50978571D02*
X63699993Y-51502380D01*
X63080946Y-51502380D02*
X63176184Y-51454761D01*
X63176184Y-51454761D02*
X63223803Y-51407142D01*
X63223803Y-51407142D02*
X63271422Y-51311904D01*
X63271422Y-51311904D02*
X63271422Y-51026190D01*
X63271422Y-51026190D02*
X63223803Y-50930952D01*
X63223803Y-50930952D02*
X63176184Y-50883333D01*
X63176184Y-50883333D02*
X63080946Y-50835714D01*
X63080946Y-50835714D02*
X62938089Y-50835714D01*
X62938089Y-50835714D02*
X62842851Y-50883333D01*
X62842851Y-50883333D02*
X62795232Y-50930952D01*
X62795232Y-50930952D02*
X62747613Y-51026190D01*
X62747613Y-51026190D02*
X62747613Y-51311904D01*
X62747613Y-51311904D02*
X62795232Y-51407142D01*
X62795232Y-51407142D02*
X62842851Y-51454761D01*
X62842851Y-51454761D02*
X62938089Y-51502380D01*
X62938089Y-51502380D02*
X63080946Y-51502380D01*
X61890470Y-51502380D02*
X61890470Y-50502380D01*
X61890470Y-51454761D02*
X61985708Y-51502380D01*
X61985708Y-51502380D02*
X62176184Y-51502380D01*
X62176184Y-51502380D02*
X62271422Y-51454761D01*
X62271422Y-51454761D02*
X62319041Y-51407142D01*
X62319041Y-51407142D02*
X62366660Y-51311904D01*
X62366660Y-51311904D02*
X62366660Y-51026190D01*
X62366660Y-51026190D02*
X62319041Y-50930952D01*
X62319041Y-50930952D02*
X62271422Y-50883333D01*
X62271422Y-50883333D02*
X62176184Y-50835714D01*
X62176184Y-50835714D02*
X61985708Y-50835714D01*
X61985708Y-50835714D02*
X61890470Y-50883333D01*
X60985708Y-50835714D02*
X60985708Y-51502380D01*
X61414279Y-50835714D02*
X61414279Y-51359523D01*
X61414279Y-51359523D02*
X61366660Y-51454761D01*
X61366660Y-51454761D02*
X61271422Y-51502380D01*
X61271422Y-51502380D02*
X61128565Y-51502380D01*
X61128565Y-51502380D02*
X61033327Y-51454761D01*
X61033327Y-51454761D02*
X60985708Y-51407142D01*
X60366660Y-51502380D02*
X60461898Y-51454761D01*
X60461898Y-51454761D02*
X60509517Y-51359523D01*
X60509517Y-51359523D02*
X60509517Y-50502380D01*
X59604755Y-51454761D02*
X59699993Y-51502380D01*
X59699993Y-51502380D02*
X59890469Y-51502380D01*
X59890469Y-51502380D02*
X59985707Y-51454761D01*
X59985707Y-51454761D02*
X60033326Y-51359523D01*
X60033326Y-51359523D02*
X60033326Y-50978571D01*
X60033326Y-50978571D02*
X59985707Y-50883333D01*
X59985707Y-50883333D02*
X59890469Y-50835714D01*
X59890469Y-50835714D02*
X59699993Y-50835714D01*
X59699993Y-50835714D02*
X59604755Y-50883333D01*
X59604755Y-50883333D02*
X59557136Y-50978571D01*
X59557136Y-50978571D02*
X59557136Y-51073809D01*
X59557136Y-51073809D02*
X60033326Y-51169047D01*
X58528564Y-51502380D02*
X58528564Y-50502380D01*
X58528564Y-50883333D02*
X58433326Y-50835714D01*
X58433326Y-50835714D02*
X58242850Y-50835714D01*
X58242850Y-50835714D02*
X58147612Y-50883333D01*
X58147612Y-50883333D02*
X58099993Y-50930952D01*
X58099993Y-50930952D02*
X58052374Y-51026190D01*
X58052374Y-51026190D02*
X58052374Y-51311904D01*
X58052374Y-51311904D02*
X58099993Y-51407142D01*
X58099993Y-51407142D02*
X58147612Y-51454761D01*
X58147612Y-51454761D02*
X58242850Y-51502380D01*
X58242850Y-51502380D02*
X58433326Y-51502380D01*
X58433326Y-51502380D02*
X58528564Y-51454761D01*
X57242850Y-51454761D02*
X57338088Y-51502380D01*
X57338088Y-51502380D02*
X57528564Y-51502380D01*
X57528564Y-51502380D02*
X57623802Y-51454761D01*
X57623802Y-51454761D02*
X57671421Y-51359523D01*
X57671421Y-51359523D02*
X57671421Y-50978571D01*
X57671421Y-50978571D02*
X57623802Y-50883333D01*
X57623802Y-50883333D02*
X57528564Y-50835714D01*
X57528564Y-50835714D02*
X57338088Y-50835714D01*
X57338088Y-50835714D02*
X57242850Y-50883333D01*
X57242850Y-50883333D02*
X57195231Y-50978571D01*
X57195231Y-50978571D02*
X57195231Y-51073809D01*
X57195231Y-51073809D02*
X57671421Y-51169047D01*
X56909516Y-50835714D02*
X56528564Y-50835714D01*
X56766659Y-50502380D02*
X56766659Y-51359523D01*
X56766659Y-51359523D02*
X56719040Y-51454761D01*
X56719040Y-51454761D02*
X56623802Y-51502380D01*
X56623802Y-51502380D02*
X56528564Y-51502380D01*
X56290468Y-50835714D02*
X56099992Y-51502380D01*
X56099992Y-51502380D02*
X55909516Y-51026190D01*
X55909516Y-51026190D02*
X55719040Y-51502380D01*
X55719040Y-51502380D02*
X55528564Y-50835714D01*
X54766659Y-51454761D02*
X54861897Y-51502380D01*
X54861897Y-51502380D02*
X55052373Y-51502380D01*
X55052373Y-51502380D02*
X55147611Y-51454761D01*
X55147611Y-51454761D02*
X55195230Y-51359523D01*
X55195230Y-51359523D02*
X55195230Y-50978571D01*
X55195230Y-50978571D02*
X55147611Y-50883333D01*
X55147611Y-50883333D02*
X55052373Y-50835714D01*
X55052373Y-50835714D02*
X54861897Y-50835714D01*
X54861897Y-50835714D02*
X54766659Y-50883333D01*
X54766659Y-50883333D02*
X54719040Y-50978571D01*
X54719040Y-50978571D02*
X54719040Y-51073809D01*
X54719040Y-51073809D02*
X55195230Y-51169047D01*
X53909516Y-51454761D02*
X54004754Y-51502380D01*
X54004754Y-51502380D02*
X54195230Y-51502380D01*
X54195230Y-51502380D02*
X54290468Y-51454761D01*
X54290468Y-51454761D02*
X54338087Y-51359523D01*
X54338087Y-51359523D02*
X54338087Y-50978571D01*
X54338087Y-50978571D02*
X54290468Y-50883333D01*
X54290468Y-50883333D02*
X54195230Y-50835714D01*
X54195230Y-50835714D02*
X54004754Y-50835714D01*
X54004754Y-50835714D02*
X53909516Y-50883333D01*
X53909516Y-50883333D02*
X53861897Y-50978571D01*
X53861897Y-50978571D02*
X53861897Y-51073809D01*
X53861897Y-51073809D02*
X54338087Y-51169047D01*
X53433325Y-50835714D02*
X53433325Y-51502380D01*
X53433325Y-50930952D02*
X53385706Y-50883333D01*
X53385706Y-50883333D02*
X53290468Y-50835714D01*
X53290468Y-50835714D02*
X53147611Y-50835714D01*
X53147611Y-50835714D02*
X53052373Y-50883333D01*
X53052373Y-50883333D02*
X53004754Y-50978571D01*
X53004754Y-50978571D02*
X53004754Y-51502380D01*
X52071420Y-50502380D02*
X51499992Y-50502380D01*
X51785706Y-51502380D02*
X51785706Y-50502380D01*
X51261896Y-50502380D02*
X50595230Y-51502380D01*
X50595230Y-50502380D02*
X51261896Y-51502380D01*
X49185706Y-51502380D02*
X49185706Y-50978571D01*
X49185706Y-50978571D02*
X49233325Y-50883333D01*
X49233325Y-50883333D02*
X49328563Y-50835714D01*
X49328563Y-50835714D02*
X49519039Y-50835714D01*
X49519039Y-50835714D02*
X49614277Y-50883333D01*
X49185706Y-51454761D02*
X49280944Y-51502380D01*
X49280944Y-51502380D02*
X49519039Y-51502380D01*
X49519039Y-51502380D02*
X49614277Y-51454761D01*
X49614277Y-51454761D02*
X49661896Y-51359523D01*
X49661896Y-51359523D02*
X49661896Y-51264285D01*
X49661896Y-51264285D02*
X49614277Y-51169047D01*
X49614277Y-51169047D02*
X49519039Y-51121428D01*
X49519039Y-51121428D02*
X49280944Y-51121428D01*
X49280944Y-51121428D02*
X49185706Y-51073809D01*
X48709515Y-50835714D02*
X48709515Y-51502380D01*
X48709515Y-50930952D02*
X48661896Y-50883333D01*
X48661896Y-50883333D02*
X48566658Y-50835714D01*
X48566658Y-50835714D02*
X48423801Y-50835714D01*
X48423801Y-50835714D02*
X48328563Y-50883333D01*
X48328563Y-50883333D02*
X48280944Y-50978571D01*
X48280944Y-50978571D02*
X48280944Y-51502380D01*
X47376182Y-51502380D02*
X47376182Y-50502380D01*
X47376182Y-51454761D02*
X47471420Y-51502380D01*
X47471420Y-51502380D02*
X47661896Y-51502380D01*
X47661896Y-51502380D02*
X47757134Y-51454761D01*
X47757134Y-51454761D02*
X47804753Y-51407142D01*
X47804753Y-51407142D02*
X47852372Y-51311904D01*
X47852372Y-51311904D02*
X47852372Y-51026190D01*
X47852372Y-51026190D02*
X47804753Y-50930952D01*
X47804753Y-50930952D02*
X47757134Y-50883333D01*
X47757134Y-50883333D02*
X47661896Y-50835714D01*
X47661896Y-50835714D02*
X47471420Y-50835714D01*
X47471420Y-50835714D02*
X47376182Y-50883333D01*
X45776182Y-50550000D02*
X45871420Y-50502380D01*
X45871420Y-50502380D02*
X46014277Y-50502380D01*
X46014277Y-50502380D02*
X46157134Y-50550000D01*
X46157134Y-50550000D02*
X46252372Y-50645238D01*
X46252372Y-50645238D02*
X46299991Y-50740476D01*
X46299991Y-50740476D02*
X46347610Y-50930952D01*
X46347610Y-50930952D02*
X46347610Y-51073809D01*
X46347610Y-51073809D02*
X46299991Y-51264285D01*
X46299991Y-51264285D02*
X46252372Y-51359523D01*
X46252372Y-51359523D02*
X46157134Y-51454761D01*
X46157134Y-51454761D02*
X46014277Y-51502380D01*
X46014277Y-51502380D02*
X45919039Y-51502380D01*
X45919039Y-51502380D02*
X45776182Y-51454761D01*
X45776182Y-51454761D02*
X45728563Y-51407142D01*
X45728563Y-51407142D02*
X45728563Y-51073809D01*
X45728563Y-51073809D02*
X45919039Y-51073809D01*
X45299991Y-51502380D02*
X45299991Y-50502380D01*
X45299991Y-50502380D02*
X44728563Y-51502380D01*
X44728563Y-51502380D02*
X44728563Y-50502380D01*
X44252372Y-51502380D02*
X44252372Y-50502380D01*
X44252372Y-50502380D02*
X44014277Y-50502380D01*
X44014277Y-50502380D02*
X43871420Y-50550000D01*
X43871420Y-50550000D02*
X43776182Y-50645238D01*
X43776182Y-50645238D02*
X43728563Y-50740476D01*
X43728563Y-50740476D02*
X43680944Y-50930952D01*
X43680944Y-50930952D02*
X43680944Y-51073809D01*
X43680944Y-51073809D02*
X43728563Y-51264285D01*
X43728563Y-51264285D02*
X43776182Y-51359523D01*
X43776182Y-51359523D02*
X43871420Y-51454761D01*
X43871420Y-51454761D02*
X44014277Y-51502380D01*
X44014277Y-51502380D02*
X44252372Y-51502380D01*
X43252372Y-51407142D02*
X43204753Y-51454761D01*
X43204753Y-51454761D02*
X43252372Y-51502380D01*
X43252372Y-51502380D02*
X43299991Y-51454761D01*
X43299991Y-51454761D02*
X43252372Y-51407142D01*
X43252372Y-51407142D02*
X43252372Y-51502380D01*
X114061904Y-53122380D02*
X114061904Y-52455714D01*
X114061904Y-52122380D02*
X114109523Y-52170000D01*
X114109523Y-52170000D02*
X114061904Y-52217619D01*
X114061904Y-52217619D02*
X114014285Y-52170000D01*
X114014285Y-52170000D02*
X114061904Y-52122380D01*
X114061904Y-52122380D02*
X114061904Y-52217619D01*
X113728571Y-52455714D02*
X113347619Y-52455714D01*
X113585714Y-53122380D02*
X113585714Y-52265238D01*
X113585714Y-52265238D02*
X113538095Y-52170000D01*
X113538095Y-52170000D02*
X113442857Y-52122380D01*
X113442857Y-52122380D02*
X113347619Y-52122380D01*
X112414285Y-53122380D02*
X112414285Y-52455714D01*
X112414285Y-52122380D02*
X112461904Y-52170000D01*
X112461904Y-52170000D02*
X112414285Y-52217619D01*
X112414285Y-52217619D02*
X112366666Y-52170000D01*
X112366666Y-52170000D02*
X112414285Y-52122380D01*
X112414285Y-52122380D02*
X112414285Y-52217619D01*
X112080952Y-52455714D02*
X111700000Y-52455714D01*
X111938095Y-52122380D02*
X111938095Y-52979523D01*
X111938095Y-52979523D02*
X111890476Y-53074761D01*
X111890476Y-53074761D02*
X111795238Y-53122380D01*
X111795238Y-53122380D02*
X111700000Y-53122380D01*
X110766666Y-53122380D02*
X110766666Y-52455714D01*
X110766666Y-52646190D02*
X110719047Y-52550952D01*
X110719047Y-52550952D02*
X110671428Y-52503333D01*
X110671428Y-52503333D02*
X110576190Y-52455714D01*
X110576190Y-52455714D02*
X110480952Y-52455714D01*
X109719047Y-52455714D02*
X109719047Y-53122380D01*
X110147618Y-52455714D02*
X110147618Y-52979523D01*
X110147618Y-52979523D02*
X110099999Y-53074761D01*
X110099999Y-53074761D02*
X110004761Y-53122380D01*
X110004761Y-53122380D02*
X109861904Y-53122380D01*
X109861904Y-53122380D02*
X109766666Y-53074761D01*
X109766666Y-53074761D02*
X109719047Y-53027142D01*
X109242856Y-52455714D02*
X109242856Y-53122380D01*
X109242856Y-52550952D02*
X109195237Y-52503333D01*
X109195237Y-52503333D02*
X109099999Y-52455714D01*
X109099999Y-52455714D02*
X108957142Y-52455714D01*
X108957142Y-52455714D02*
X108861904Y-52503333D01*
X108861904Y-52503333D02*
X108814285Y-52598571D01*
X108814285Y-52598571D02*
X108814285Y-53122380D01*
X108385713Y-53074761D02*
X108290475Y-53122380D01*
X108290475Y-53122380D02*
X108099999Y-53122380D01*
X108099999Y-53122380D02*
X108004761Y-53074761D01*
X108004761Y-53074761D02*
X107957142Y-52979523D01*
X107957142Y-52979523D02*
X107957142Y-52931904D01*
X107957142Y-52931904D02*
X108004761Y-52836666D01*
X108004761Y-52836666D02*
X108099999Y-52789047D01*
X108099999Y-52789047D02*
X108242856Y-52789047D01*
X108242856Y-52789047D02*
X108338094Y-52741428D01*
X108338094Y-52741428D02*
X108385713Y-52646190D01*
X108385713Y-52646190D02*
X108385713Y-52598571D01*
X108385713Y-52598571D02*
X108338094Y-52503333D01*
X108338094Y-52503333D02*
X108242856Y-52455714D01*
X108242856Y-52455714D02*
X108099999Y-52455714D01*
X108099999Y-52455714D02*
X108004761Y-52503333D01*
X106499999Y-53122380D02*
X106499999Y-52598571D01*
X106499999Y-52598571D02*
X106547618Y-52503333D01*
X106547618Y-52503333D02*
X106642856Y-52455714D01*
X106642856Y-52455714D02*
X106833332Y-52455714D01*
X106833332Y-52455714D02*
X106928570Y-52503333D01*
X106499999Y-53074761D02*
X106595237Y-53122380D01*
X106595237Y-53122380D02*
X106833332Y-53122380D01*
X106833332Y-53122380D02*
X106928570Y-53074761D01*
X106928570Y-53074761D02*
X106976189Y-52979523D01*
X106976189Y-52979523D02*
X106976189Y-52884285D01*
X106976189Y-52884285D02*
X106928570Y-52789047D01*
X106928570Y-52789047D02*
X106833332Y-52741428D01*
X106833332Y-52741428D02*
X106595237Y-52741428D01*
X106595237Y-52741428D02*
X106499999Y-52693809D01*
X106166665Y-52455714D02*
X105785713Y-52455714D01*
X106023808Y-52122380D02*
X106023808Y-52979523D01*
X106023808Y-52979523D02*
X105976189Y-53074761D01*
X105976189Y-53074761D02*
X105880951Y-53122380D01*
X105880951Y-53122380D02*
X105785713Y-53122380D01*
X104947617Y-52122380D02*
X104328570Y-52122380D01*
X104328570Y-52122380D02*
X104661903Y-52503333D01*
X104661903Y-52503333D02*
X104519046Y-52503333D01*
X104519046Y-52503333D02*
X104423808Y-52550952D01*
X104423808Y-52550952D02*
X104376189Y-52598571D01*
X104376189Y-52598571D02*
X104328570Y-52693809D01*
X104328570Y-52693809D02*
X104328570Y-52931904D01*
X104328570Y-52931904D02*
X104376189Y-53027142D01*
X104376189Y-53027142D02*
X104423808Y-53074761D01*
X104423808Y-53074761D02*
X104519046Y-53122380D01*
X104519046Y-53122380D02*
X104804760Y-53122380D01*
X104804760Y-53122380D02*
X104899998Y-53074761D01*
X104899998Y-53074761D02*
X104947617Y-53027142D01*
X103899998Y-53027142D02*
X103852379Y-53074761D01*
X103852379Y-53074761D02*
X103899998Y-53122380D01*
X103899998Y-53122380D02*
X103947617Y-53074761D01*
X103947617Y-53074761D02*
X103899998Y-53027142D01*
X103899998Y-53027142D02*
X103899998Y-53122380D01*
X103519046Y-52122380D02*
X102899999Y-52122380D01*
X102899999Y-52122380D02*
X103233332Y-52503333D01*
X103233332Y-52503333D02*
X103090475Y-52503333D01*
X103090475Y-52503333D02*
X102995237Y-52550952D01*
X102995237Y-52550952D02*
X102947618Y-52598571D01*
X102947618Y-52598571D02*
X102899999Y-52693809D01*
X102899999Y-52693809D02*
X102899999Y-52931904D01*
X102899999Y-52931904D02*
X102947618Y-53027142D01*
X102947618Y-53027142D02*
X102995237Y-53074761D01*
X102995237Y-53074761D02*
X103090475Y-53122380D01*
X103090475Y-53122380D02*
X103376189Y-53122380D01*
X103376189Y-53122380D02*
X103471427Y-53074761D01*
X103471427Y-53074761D02*
X103519046Y-53027142D01*
X102614284Y-52122380D02*
X102280951Y-53122380D01*
X102280951Y-53122380D02*
X101947618Y-52122380D01*
X100442856Y-53122380D02*
X100776189Y-52646190D01*
X101014284Y-53122380D02*
X101014284Y-52122380D01*
X101014284Y-52122380D02*
X100633332Y-52122380D01*
X100633332Y-52122380D02*
X100538094Y-52170000D01*
X100538094Y-52170000D02*
X100490475Y-52217619D01*
X100490475Y-52217619D02*
X100442856Y-52312857D01*
X100442856Y-52312857D02*
X100442856Y-52455714D01*
X100442856Y-52455714D02*
X100490475Y-52550952D01*
X100490475Y-52550952D02*
X100538094Y-52598571D01*
X100538094Y-52598571D02*
X100633332Y-52646190D01*
X100633332Y-52646190D02*
X101014284Y-52646190D01*
X99633332Y-53074761D02*
X99728570Y-53122380D01*
X99728570Y-53122380D02*
X99919046Y-53122380D01*
X99919046Y-53122380D02*
X100014284Y-53074761D01*
X100014284Y-53074761D02*
X100061903Y-52979523D01*
X100061903Y-52979523D02*
X100061903Y-52598571D01*
X100061903Y-52598571D02*
X100014284Y-52503333D01*
X100014284Y-52503333D02*
X99919046Y-52455714D01*
X99919046Y-52455714D02*
X99728570Y-52455714D01*
X99728570Y-52455714D02*
X99633332Y-52503333D01*
X99633332Y-52503333D02*
X99585713Y-52598571D01*
X99585713Y-52598571D02*
X99585713Y-52693809D01*
X99585713Y-52693809D02*
X100061903Y-52789047D01*
X99157141Y-52455714D02*
X99157141Y-53455714D01*
X99157141Y-52503333D02*
X99061903Y-52455714D01*
X99061903Y-52455714D02*
X98871427Y-52455714D01*
X98871427Y-52455714D02*
X98776189Y-52503333D01*
X98776189Y-52503333D02*
X98728570Y-52550952D01*
X98728570Y-52550952D02*
X98680951Y-52646190D01*
X98680951Y-52646190D02*
X98680951Y-52931904D01*
X98680951Y-52931904D02*
X98728570Y-53027142D01*
X98728570Y-53027142D02*
X98776189Y-53074761D01*
X98776189Y-53074761D02*
X98871427Y-53122380D01*
X98871427Y-53122380D02*
X99061903Y-53122380D01*
X99061903Y-53122380D02*
X99157141Y-53074761D01*
X98109522Y-53122380D02*
X98204760Y-53074761D01*
X98204760Y-53074761D02*
X98252379Y-52979523D01*
X98252379Y-52979523D02*
X98252379Y-52122380D01*
X97299998Y-53122380D02*
X97299998Y-52598571D01*
X97299998Y-52598571D02*
X97347617Y-52503333D01*
X97347617Y-52503333D02*
X97442855Y-52455714D01*
X97442855Y-52455714D02*
X97633331Y-52455714D01*
X97633331Y-52455714D02*
X97728569Y-52503333D01*
X97299998Y-53074761D02*
X97395236Y-53122380D01*
X97395236Y-53122380D02*
X97633331Y-53122380D01*
X97633331Y-53122380D02*
X97728569Y-53074761D01*
X97728569Y-53074761D02*
X97776188Y-52979523D01*
X97776188Y-52979523D02*
X97776188Y-52884285D01*
X97776188Y-52884285D02*
X97728569Y-52789047D01*
X97728569Y-52789047D02*
X97633331Y-52741428D01*
X97633331Y-52741428D02*
X97395236Y-52741428D01*
X97395236Y-52741428D02*
X97299998Y-52693809D01*
X96395236Y-53074761D02*
X96490474Y-53122380D01*
X96490474Y-53122380D02*
X96680950Y-53122380D01*
X96680950Y-53122380D02*
X96776188Y-53074761D01*
X96776188Y-53074761D02*
X96823807Y-53027142D01*
X96823807Y-53027142D02*
X96871426Y-52931904D01*
X96871426Y-52931904D02*
X96871426Y-52646190D01*
X96871426Y-52646190D02*
X96823807Y-52550952D01*
X96823807Y-52550952D02*
X96776188Y-52503333D01*
X96776188Y-52503333D02*
X96680950Y-52455714D01*
X96680950Y-52455714D02*
X96490474Y-52455714D01*
X96490474Y-52455714D02*
X96395236Y-52503333D01*
X95585712Y-53074761D02*
X95680950Y-53122380D01*
X95680950Y-53122380D02*
X95871426Y-53122380D01*
X95871426Y-53122380D02*
X95966664Y-53074761D01*
X95966664Y-53074761D02*
X96014283Y-52979523D01*
X96014283Y-52979523D02*
X96014283Y-52598571D01*
X96014283Y-52598571D02*
X95966664Y-52503333D01*
X95966664Y-52503333D02*
X95871426Y-52455714D01*
X95871426Y-52455714D02*
X95680950Y-52455714D01*
X95680950Y-52455714D02*
X95585712Y-52503333D01*
X95585712Y-52503333D02*
X95538093Y-52598571D01*
X95538093Y-52598571D02*
X95538093Y-52693809D01*
X95538093Y-52693809D02*
X96014283Y-52789047D01*
X93938093Y-53122380D02*
X94271426Y-52646190D01*
X94509521Y-53122380D02*
X94509521Y-52122380D01*
X94509521Y-52122380D02*
X94128569Y-52122380D01*
X94128569Y-52122380D02*
X94033331Y-52170000D01*
X94033331Y-52170000D02*
X93985712Y-52217619D01*
X93985712Y-52217619D02*
X93938093Y-52312857D01*
X93938093Y-52312857D02*
X93938093Y-52455714D01*
X93938093Y-52455714D02*
X93985712Y-52550952D01*
X93985712Y-52550952D02*
X94033331Y-52598571D01*
X94033331Y-52598571D02*
X94128569Y-52646190D01*
X94128569Y-52646190D02*
X94509521Y-52646190D01*
X93033331Y-52122380D02*
X93509521Y-52122380D01*
X93509521Y-52122380D02*
X93557140Y-52598571D01*
X93557140Y-52598571D02*
X93509521Y-52550952D01*
X93509521Y-52550952D02*
X93414283Y-52503333D01*
X93414283Y-52503333D02*
X93176188Y-52503333D01*
X93176188Y-52503333D02*
X93080950Y-52550952D01*
X93080950Y-52550952D02*
X93033331Y-52598571D01*
X93033331Y-52598571D02*
X92985712Y-52693809D01*
X92985712Y-52693809D02*
X92985712Y-52931904D01*
X92985712Y-52931904D02*
X93033331Y-53027142D01*
X93033331Y-53027142D02*
X93080950Y-53074761D01*
X93080950Y-53074761D02*
X93176188Y-53122380D01*
X93176188Y-53122380D02*
X93414283Y-53122380D01*
X93414283Y-53122380D02*
X93509521Y-53074761D01*
X93509521Y-53074761D02*
X93557140Y-53027142D01*
X92099997Y-52455714D02*
X91719045Y-52455714D01*
X91957140Y-52122380D02*
X91957140Y-52979523D01*
X91957140Y-52979523D02*
X91909521Y-53074761D01*
X91909521Y-53074761D02*
X91814283Y-53122380D01*
X91814283Y-53122380D02*
X91719045Y-53122380D01*
X91242854Y-53122380D02*
X91338092Y-53074761D01*
X91338092Y-53074761D02*
X91385711Y-53027142D01*
X91385711Y-53027142D02*
X91433330Y-52931904D01*
X91433330Y-52931904D02*
X91433330Y-52646190D01*
X91433330Y-52646190D02*
X91385711Y-52550952D01*
X91385711Y-52550952D02*
X91338092Y-52503333D01*
X91338092Y-52503333D02*
X91242854Y-52455714D01*
X91242854Y-52455714D02*
X91099997Y-52455714D01*
X91099997Y-52455714D02*
X91004759Y-52503333D01*
X91004759Y-52503333D02*
X90957140Y-52550952D01*
X90957140Y-52550952D02*
X90909521Y-52646190D01*
X90909521Y-52646190D02*
X90909521Y-52931904D01*
X90909521Y-52931904D02*
X90957140Y-53027142D01*
X90957140Y-53027142D02*
X91004759Y-53074761D01*
X91004759Y-53074761D02*
X91099997Y-53122380D01*
X91099997Y-53122380D02*
X91242854Y-53122380D01*
X89452378Y-53122380D02*
X89452378Y-52598571D01*
X89452378Y-52598571D02*
X89499997Y-52503333D01*
X89499997Y-52503333D02*
X89595235Y-52455714D01*
X89595235Y-52455714D02*
X89785711Y-52455714D01*
X89785711Y-52455714D02*
X89880949Y-52503333D01*
X89452378Y-53074761D02*
X89547616Y-53122380D01*
X89547616Y-53122380D02*
X89785711Y-53122380D01*
X89785711Y-53122380D02*
X89880949Y-53074761D01*
X89880949Y-53074761D02*
X89928568Y-52979523D01*
X89928568Y-52979523D02*
X89928568Y-52884285D01*
X89928568Y-52884285D02*
X89880949Y-52789047D01*
X89880949Y-52789047D02*
X89785711Y-52741428D01*
X89785711Y-52741428D02*
X89547616Y-52741428D01*
X89547616Y-52741428D02*
X89452378Y-52693809D01*
X87852378Y-53122380D02*
X88423806Y-53122380D01*
X88138092Y-53122380D02*
X88138092Y-52122380D01*
X88138092Y-52122380D02*
X88233330Y-52265238D01*
X88233330Y-52265238D02*
X88328568Y-52360476D01*
X88328568Y-52360476D02*
X88423806Y-52408095D01*
X87423806Y-53122380D02*
X87423806Y-52122380D01*
X86852378Y-53122380D02*
X87280949Y-52550952D01*
X86852378Y-52122380D02*
X87423806Y-52693809D01*
X85680949Y-53122380D02*
X85776187Y-53074761D01*
X85776187Y-53074761D02*
X85823806Y-53027142D01*
X85823806Y-53027142D02*
X85871425Y-52931904D01*
X85871425Y-52931904D02*
X85871425Y-52646190D01*
X85871425Y-52646190D02*
X85823806Y-52550952D01*
X85823806Y-52550952D02*
X85776187Y-52503333D01*
X85776187Y-52503333D02*
X85680949Y-52455714D01*
X85680949Y-52455714D02*
X85538092Y-52455714D01*
X85538092Y-52455714D02*
X85442854Y-52503333D01*
X85442854Y-52503333D02*
X85395235Y-52550952D01*
X85395235Y-52550952D02*
X85347616Y-52646190D01*
X85347616Y-52646190D02*
X85347616Y-52931904D01*
X85347616Y-52931904D02*
X85395235Y-53027142D01*
X85395235Y-53027142D02*
X85442854Y-53074761D01*
X85442854Y-53074761D02*
X85538092Y-53122380D01*
X85538092Y-53122380D02*
X85680949Y-53122380D01*
X84919044Y-53122380D02*
X84919044Y-52122380D01*
X84490473Y-53122380D02*
X84490473Y-52598571D01*
X84490473Y-52598571D02*
X84538092Y-52503333D01*
X84538092Y-52503333D02*
X84633330Y-52455714D01*
X84633330Y-52455714D02*
X84776187Y-52455714D01*
X84776187Y-52455714D02*
X84871425Y-52503333D01*
X84871425Y-52503333D02*
X84919044Y-52550952D01*
X84014282Y-53122380D02*
X84014282Y-52455714D01*
X84014282Y-52550952D02*
X83966663Y-52503333D01*
X83966663Y-52503333D02*
X83871425Y-52455714D01*
X83871425Y-52455714D02*
X83728568Y-52455714D01*
X83728568Y-52455714D02*
X83633330Y-52503333D01*
X83633330Y-52503333D02*
X83585711Y-52598571D01*
X83585711Y-52598571D02*
X83585711Y-53122380D01*
X83585711Y-52598571D02*
X83538092Y-52503333D01*
X83538092Y-52503333D02*
X83442854Y-52455714D01*
X83442854Y-52455714D02*
X83299997Y-52455714D01*
X83299997Y-52455714D02*
X83204758Y-52503333D01*
X83204758Y-52503333D02*
X83157139Y-52598571D01*
X83157139Y-52598571D02*
X83157139Y-53122380D01*
X82728568Y-53074761D02*
X82633330Y-53122380D01*
X82633330Y-53122380D02*
X82442854Y-53122380D01*
X82442854Y-53122380D02*
X82347616Y-53074761D01*
X82347616Y-53074761D02*
X82299997Y-52979523D01*
X82299997Y-52979523D02*
X82299997Y-52931904D01*
X82299997Y-52931904D02*
X82347616Y-52836666D01*
X82347616Y-52836666D02*
X82442854Y-52789047D01*
X82442854Y-52789047D02*
X82585711Y-52789047D01*
X82585711Y-52789047D02*
X82680949Y-52741428D01*
X82680949Y-52741428D02*
X82728568Y-52646190D01*
X82728568Y-52646190D02*
X82728568Y-52598571D01*
X82728568Y-52598571D02*
X82680949Y-52503333D01*
X82680949Y-52503333D02*
X82585711Y-52455714D01*
X82585711Y-52455714D02*
X82442854Y-52455714D01*
X82442854Y-52455714D02*
X82347616Y-52503333D01*
X81271425Y-53122380D02*
X81271425Y-52455714D01*
X81271425Y-52646190D02*
X81223806Y-52550952D01*
X81223806Y-52550952D02*
X81176187Y-52503333D01*
X81176187Y-52503333D02*
X81080949Y-52455714D01*
X81080949Y-52455714D02*
X80985711Y-52455714D01*
X80271425Y-53074761D02*
X80366663Y-53122380D01*
X80366663Y-53122380D02*
X80557139Y-53122380D01*
X80557139Y-53122380D02*
X80652377Y-53074761D01*
X80652377Y-53074761D02*
X80699996Y-52979523D01*
X80699996Y-52979523D02*
X80699996Y-52598571D01*
X80699996Y-52598571D02*
X80652377Y-52503333D01*
X80652377Y-52503333D02*
X80557139Y-52455714D01*
X80557139Y-52455714D02*
X80366663Y-52455714D01*
X80366663Y-52455714D02*
X80271425Y-52503333D01*
X80271425Y-52503333D02*
X80223806Y-52598571D01*
X80223806Y-52598571D02*
X80223806Y-52693809D01*
X80223806Y-52693809D02*
X80699996Y-52789047D01*
X79842853Y-53074761D02*
X79747615Y-53122380D01*
X79747615Y-53122380D02*
X79557139Y-53122380D01*
X79557139Y-53122380D02*
X79461901Y-53074761D01*
X79461901Y-53074761D02*
X79414282Y-52979523D01*
X79414282Y-52979523D02*
X79414282Y-52931904D01*
X79414282Y-52931904D02*
X79461901Y-52836666D01*
X79461901Y-52836666D02*
X79557139Y-52789047D01*
X79557139Y-52789047D02*
X79699996Y-52789047D01*
X79699996Y-52789047D02*
X79795234Y-52741428D01*
X79795234Y-52741428D02*
X79842853Y-52646190D01*
X79842853Y-52646190D02*
X79842853Y-52598571D01*
X79842853Y-52598571D02*
X79795234Y-52503333D01*
X79795234Y-52503333D02*
X79699996Y-52455714D01*
X79699996Y-52455714D02*
X79557139Y-52455714D01*
X79557139Y-52455714D02*
X79461901Y-52503333D01*
X78985710Y-53122380D02*
X78985710Y-52455714D01*
X78985710Y-52122380D02*
X79033329Y-52170000D01*
X79033329Y-52170000D02*
X78985710Y-52217619D01*
X78985710Y-52217619D02*
X78938091Y-52170000D01*
X78938091Y-52170000D02*
X78985710Y-52122380D01*
X78985710Y-52122380D02*
X78985710Y-52217619D01*
X78557139Y-53074761D02*
X78461901Y-53122380D01*
X78461901Y-53122380D02*
X78271425Y-53122380D01*
X78271425Y-53122380D02*
X78176187Y-53074761D01*
X78176187Y-53074761D02*
X78128568Y-52979523D01*
X78128568Y-52979523D02*
X78128568Y-52931904D01*
X78128568Y-52931904D02*
X78176187Y-52836666D01*
X78176187Y-52836666D02*
X78271425Y-52789047D01*
X78271425Y-52789047D02*
X78414282Y-52789047D01*
X78414282Y-52789047D02*
X78509520Y-52741428D01*
X78509520Y-52741428D02*
X78557139Y-52646190D01*
X78557139Y-52646190D02*
X78557139Y-52598571D01*
X78557139Y-52598571D02*
X78509520Y-52503333D01*
X78509520Y-52503333D02*
X78414282Y-52455714D01*
X78414282Y-52455714D02*
X78271425Y-52455714D01*
X78271425Y-52455714D02*
X78176187Y-52503333D01*
X77842853Y-52455714D02*
X77461901Y-52455714D01*
X77699996Y-52122380D02*
X77699996Y-52979523D01*
X77699996Y-52979523D02*
X77652377Y-53074761D01*
X77652377Y-53074761D02*
X77557139Y-53122380D01*
X77557139Y-53122380D02*
X77461901Y-53122380D01*
X76985710Y-53122380D02*
X77080948Y-53074761D01*
X77080948Y-53074761D02*
X77128567Y-53027142D01*
X77128567Y-53027142D02*
X77176186Y-52931904D01*
X77176186Y-52931904D02*
X77176186Y-52646190D01*
X77176186Y-52646190D02*
X77128567Y-52550952D01*
X77128567Y-52550952D02*
X77080948Y-52503333D01*
X77080948Y-52503333D02*
X76985710Y-52455714D01*
X76985710Y-52455714D02*
X76842853Y-52455714D01*
X76842853Y-52455714D02*
X76747615Y-52503333D01*
X76747615Y-52503333D02*
X76699996Y-52550952D01*
X76699996Y-52550952D02*
X76652377Y-52646190D01*
X76652377Y-52646190D02*
X76652377Y-52931904D01*
X76652377Y-52931904D02*
X76699996Y-53027142D01*
X76699996Y-53027142D02*
X76747615Y-53074761D01*
X76747615Y-53074761D02*
X76842853Y-53122380D01*
X76842853Y-53122380D02*
X76985710Y-53122380D01*
X76223805Y-53122380D02*
X76223805Y-52455714D01*
X76223805Y-52646190D02*
X76176186Y-52550952D01*
X76176186Y-52550952D02*
X76128567Y-52503333D01*
X76128567Y-52503333D02*
X76033329Y-52455714D01*
X76033329Y-52455714D02*
X75938091Y-52455714D01*
X75604757Y-53027142D02*
X75557138Y-53074761D01*
X75557138Y-53074761D02*
X75604757Y-53122380D01*
X75604757Y-53122380D02*
X75652376Y-53074761D01*
X75652376Y-53074761D02*
X75604757Y-53027142D01*
X75604757Y-53027142D02*
X75604757Y-53122380D01*
M02*
