M48
; DRILL file {KiCad (7.0.0)} date Fri Aug 25 10:54:54 2023
; FORMAT={-:-/ absolute / inch / decimal}
; #@! TF.CreationDate,2023-08-25T10:54:54+02:00
; #@! TF.GenerationSoftware,Kicad,Pcbnew,(7.0.0)
; #@! TF.FileFunction,Plated,1,2,PTH
FMAT,2
INCH
; #@! TA.AperFunction,Plated,PTH,ViaDrill
T1C0.0118
; #@! TA.AperFunction,Plated,PTH,ViaDrill
T2C0.0120
; #@! TA.AperFunction,Plated,PTH,ViaDrill
T3C0.0157
; #@! TA.AperFunction,Plated,PTH,ComponentDrill
T4C0.0295
; #@! TA.AperFunction,Plated,PTH,ComponentDrill
T5C0.0315
; #@! TA.AperFunction,Plated,PTH,ComponentDrill
T6C0.0360
%
G90
G05
T1
X1.7Y-4.0
X1.9Y-2.5
X1.9Y-2.7
X2.3154Y-1.6
X2.65Y-2.5
X2.75Y-2.5
X2.85Y-2.6
X2.95Y-2.4
X3.055Y-2.8
X3.3Y-2.3
X3.55Y-2.4
X3.55Y-2.6
X3.8Y-2.4
X3.9Y-2.4
X4.2Y-2.3
X4.2Y-2.6
T2
X3.005Y-3.215
X3.29Y-3.2
X3.29Y-3.385
X3.455Y-3.43
T3
X2.4Y-1.7
X2.4Y-1.7
X2.4Y-1.9
X2.4Y-1.9
T5
X1.7Y-1.6
X1.7Y-1.8
X2.2Y-1.6
X2.2Y-1.8
X2.3Y-3.9
X2.4Y-1.6
X2.7Y-1.8
X2.8Y-3.9
X2.9Y-1.6
X3.1Y-3.9
X3.2Y-1.8
X3.6Y-3.9
T6
X2.555Y-2.9
X2.555Y-3.5
X2.655Y-2.9
X2.655Y-3.5
X2.755Y-2.9
X2.755Y-3.5
X2.855Y-2.9
X2.855Y-3.5
X2.955Y-2.9
X2.955Y-3.5
X3.055Y-2.9
X3.055Y-3.5
X3.155Y-2.9
X3.155Y-3.5
X3.255Y-2.9
X3.255Y-3.5
X3.355Y-2.9
X3.355Y-3.5
X3.455Y-2.9
X3.455Y-3.5
X3.555Y-2.9
X3.555Y-3.5
X3.655Y-2.9
X3.655Y-3.5
T4
G00X2.8856Y-3.1833
M15
G01X2.8856Y-3.2227
M16
G05
G00X2.925Y-3.1203
M15
G01X2.925Y-3.1597
M16
G05
G00X2.925Y-3.2424
M15
G01X2.925Y-3.2817
M16
G05
G00X3.3384Y-3.1203
M15
G01X3.3384Y-3.1597
M16
G05
G00X3.3384Y-3.2424
M15
G01X3.3384Y-3.2817
M16
G05
G00X3.3778Y-3.1794
M15
G01X3.3778Y-3.2187
M16
G05
T0
M30
