%TF.GenerationSoftware,KiCad,Pcbnew,(7.0.0)*%
%TF.CreationDate,2023-08-10T15:18:18+02:00*%
%TF.ProjectId,JIG_MULTI,4a49475f-4d55-44c5-9449-2e6b69636164,rev?*%
%TF.SameCoordinates,Original*%
%TF.FileFunction,Soldermask,Bot*%
%TF.FilePolarity,Negative*%
%FSLAX46Y46*%
G04 Gerber Fmt 4.6, Leading zero omitted, Abs format (unit mm)*
G04 Created by KiCad (PCBNEW (7.0.0)) date 2023-08-10 15:18:18*
%MOMM*%
%LPD*%
G01*
G04 APERTURE LIST*
%ADD10C,1.600000*%
%ADD11O,1.600000X1.600000*%
%ADD12C,1.524000*%
%ADD13O,1.000000X2.000000*%
G04 APERTURE END LIST*
D10*
%TO.C,R6*%
X78740000Y-99060000D03*
D11*
X91439999Y-99059999D03*
%TD*%
D10*
%TO.C,R5*%
X58420000Y-99060000D03*
D11*
X71119999Y-99059999D03*
%TD*%
D12*
%TO.C,U2*%
X69850000Y-73660000D03*
X72390000Y-73660000D03*
X74930000Y-73660000D03*
X77470000Y-73660000D03*
X80010000Y-73660000D03*
X82550000Y-73660000D03*
X85090000Y-73660000D03*
X87630000Y-73660000D03*
X90170000Y-73660000D03*
X92710000Y-73660000D03*
X95250000Y-73660000D03*
X97790000Y-73660000D03*
%TD*%
D13*
%TO.C,U1*%
X79247999Y-79755999D03*
X79247999Y-82855999D03*
X78247999Y-81355999D03*
X89747999Y-82855999D03*
X89747999Y-79755999D03*
X90747999Y-81255999D03*
%TD*%
D12*
%TO.C,U3*%
X69850000Y-88900000D03*
X72390000Y-88900000D03*
X74930000Y-88900000D03*
X77470000Y-88900000D03*
X80010000Y-88900000D03*
X82550000Y-88900000D03*
X85090000Y-88900000D03*
X87630000Y-88900000D03*
X90170000Y-88900000D03*
X92710000Y-88900000D03*
X95250000Y-88900000D03*
X97790000Y-88900000D03*
%TD*%
D10*
%TO.C,R3*%
X60960000Y-40640000D03*
D11*
X73659999Y-40639999D03*
%TD*%
D10*
%TO.C,R4*%
X71120000Y-50800000D03*
D11*
X83819999Y-50799999D03*
%TD*%
%TO.C,R2*%
X55879999Y-45719999D03*
D10*
X43180000Y-45720000D03*
%TD*%
%TO.C,R1*%
X43180000Y-40640000D03*
D11*
X55879999Y-40639999D03*
%TD*%
M02*
