%TF.GenerationSoftware,KiCad,Pcbnew,(7.0.0)*%
%TF.CreationDate,2023-08-10T15:30:16+02:00*%
%TF.ProjectId,JIG_MULTI,4a49475f-4d55-44c5-9449-2e6b69636164,rev?*%
%TF.SameCoordinates,Original*%
%TF.FileFunction,Legend,Bot*%
%TF.FilePolarity,Positive*%
%FSLAX46Y46*%
G04 Gerber Fmt 4.6, Leading zero omitted, Abs format (unit mm)*
G04 Created by KiCad (PCBNEW (7.0.0)) date 2023-08-10 15:30:16*
%MOMM*%
%LPD*%
G01*
G04 APERTURE LIST*
%ADD10C,0.100000*%
G04 APERTURE END LIST*
D10*
X105251428Y-72104761D02*
X106203809Y-72104761D01*
X106203809Y-72104761D02*
X106299047Y-73057142D01*
X106299047Y-73057142D02*
X106203809Y-72961904D01*
X106203809Y-72961904D02*
X106013333Y-72866666D01*
X106013333Y-72866666D02*
X105537142Y-72866666D01*
X105537142Y-72866666D02*
X105346666Y-72961904D01*
X105346666Y-72961904D02*
X105251428Y-73057142D01*
X105251428Y-73057142D02*
X105156190Y-73247619D01*
X105156190Y-73247619D02*
X105156190Y-73723809D01*
X105156190Y-73723809D02*
X105251428Y-73914285D01*
X105251428Y-73914285D02*
X105346666Y-74009523D01*
X105346666Y-74009523D02*
X105537142Y-74104761D01*
X105537142Y-74104761D02*
X106013333Y-74104761D01*
X106013333Y-74104761D02*
X106203809Y-74009523D01*
X106203809Y-74009523D02*
X106299047Y-73914285D01*
X104584761Y-72104761D02*
X103918095Y-74104761D01*
X103918095Y-74104761D02*
X103251428Y-72104761D01*
X105060952Y-77344761D02*
X105727619Y-76392380D01*
X106203809Y-77344761D02*
X106203809Y-75344761D01*
X106203809Y-75344761D02*
X105441904Y-75344761D01*
X105441904Y-75344761D02*
X105251428Y-75440000D01*
X105251428Y-75440000D02*
X105156190Y-75535238D01*
X105156190Y-75535238D02*
X105060952Y-75725714D01*
X105060952Y-75725714D02*
X105060952Y-76011428D01*
X105060952Y-76011428D02*
X105156190Y-76201904D01*
X105156190Y-76201904D02*
X105251428Y-76297142D01*
X105251428Y-76297142D02*
X105441904Y-76392380D01*
X105441904Y-76392380D02*
X106203809Y-76392380D01*
X103156190Y-77344761D02*
X104299047Y-77344761D01*
X103727619Y-77344761D02*
X103727619Y-75344761D01*
X103727619Y-75344761D02*
X103918095Y-75630476D01*
X103918095Y-75630476D02*
X104108571Y-75820952D01*
X104108571Y-75820952D02*
X104299047Y-75916190D01*
X101099047Y-76297142D02*
X99575238Y-76297142D01*
X99575238Y-76868571D02*
X101099047Y-76868571D01*
X96375238Y-77344761D02*
X97518095Y-77344761D01*
X96946667Y-77344761D02*
X96946667Y-75344761D01*
X96946667Y-75344761D02*
X97137143Y-75630476D01*
X97137143Y-75630476D02*
X97327619Y-75820952D01*
X97327619Y-75820952D02*
X97518095Y-75916190D01*
X95518095Y-77344761D02*
X95518095Y-75344761D01*
X94375238Y-77344761D02*
X95232381Y-76201904D01*
X94375238Y-75344761D02*
X95518095Y-76487619D01*
X105060952Y-80584761D02*
X105727619Y-79632380D01*
X106203809Y-80584761D02*
X106203809Y-78584761D01*
X106203809Y-78584761D02*
X105441904Y-78584761D01*
X105441904Y-78584761D02*
X105251428Y-78680000D01*
X105251428Y-78680000D02*
X105156190Y-78775238D01*
X105156190Y-78775238D02*
X105060952Y-78965714D01*
X105060952Y-78965714D02*
X105060952Y-79251428D01*
X105060952Y-79251428D02*
X105156190Y-79441904D01*
X105156190Y-79441904D02*
X105251428Y-79537142D01*
X105251428Y-79537142D02*
X105441904Y-79632380D01*
X105441904Y-79632380D02*
X106203809Y-79632380D01*
X104299047Y-78775238D02*
X104203809Y-78680000D01*
X104203809Y-78680000D02*
X104013333Y-78584761D01*
X104013333Y-78584761D02*
X103537142Y-78584761D01*
X103537142Y-78584761D02*
X103346666Y-78680000D01*
X103346666Y-78680000D02*
X103251428Y-78775238D01*
X103251428Y-78775238D02*
X103156190Y-78965714D01*
X103156190Y-78965714D02*
X103156190Y-79156190D01*
X103156190Y-79156190D02*
X103251428Y-79441904D01*
X103251428Y-79441904D02*
X104394285Y-80584761D01*
X104394285Y-80584761D02*
X103156190Y-80584761D01*
X101099047Y-79537142D02*
X99575238Y-79537142D01*
X99575238Y-80108571D02*
X101099047Y-80108571D01*
X96375238Y-80584761D02*
X97518095Y-80584761D01*
X96946667Y-80584761D02*
X96946667Y-78584761D01*
X96946667Y-78584761D02*
X97137143Y-78870476D01*
X97137143Y-78870476D02*
X97327619Y-79060952D01*
X97327619Y-79060952D02*
X97518095Y-79156190D01*
X95518095Y-80584761D02*
X95518095Y-78584761D01*
X94375238Y-80584761D02*
X95232381Y-79441904D01*
X94375238Y-78584761D02*
X95518095Y-79727619D01*
X105060952Y-83824761D02*
X105727619Y-82872380D01*
X106203809Y-83824761D02*
X106203809Y-81824761D01*
X106203809Y-81824761D02*
X105441904Y-81824761D01*
X105441904Y-81824761D02*
X105251428Y-81920000D01*
X105251428Y-81920000D02*
X105156190Y-82015238D01*
X105156190Y-82015238D02*
X105060952Y-82205714D01*
X105060952Y-82205714D02*
X105060952Y-82491428D01*
X105060952Y-82491428D02*
X105156190Y-82681904D01*
X105156190Y-82681904D02*
X105251428Y-82777142D01*
X105251428Y-82777142D02*
X105441904Y-82872380D01*
X105441904Y-82872380D02*
X106203809Y-82872380D01*
X104394285Y-81824761D02*
X103156190Y-81824761D01*
X103156190Y-81824761D02*
X103822857Y-82586666D01*
X103822857Y-82586666D02*
X103537142Y-82586666D01*
X103537142Y-82586666D02*
X103346666Y-82681904D01*
X103346666Y-82681904D02*
X103251428Y-82777142D01*
X103251428Y-82777142D02*
X103156190Y-82967619D01*
X103156190Y-82967619D02*
X103156190Y-83443809D01*
X103156190Y-83443809D02*
X103251428Y-83634285D01*
X103251428Y-83634285D02*
X103346666Y-83729523D01*
X103346666Y-83729523D02*
X103537142Y-83824761D01*
X103537142Y-83824761D02*
X104108571Y-83824761D01*
X104108571Y-83824761D02*
X104299047Y-83729523D01*
X104299047Y-83729523D02*
X104394285Y-83634285D01*
X101099047Y-82777142D02*
X99575238Y-82777142D01*
X99575238Y-83348571D02*
X101099047Y-83348571D01*
X96375238Y-83824761D02*
X97518095Y-83824761D01*
X96946667Y-83824761D02*
X96946667Y-81824761D01*
X96946667Y-81824761D02*
X97137143Y-82110476D01*
X97137143Y-82110476D02*
X97327619Y-82300952D01*
X97327619Y-82300952D02*
X97518095Y-82396190D01*
X95518095Y-83824761D02*
X95518095Y-81824761D01*
X94375238Y-83824761D02*
X95232381Y-82681904D01*
X94375238Y-81824761D02*
X95518095Y-82967619D01*
X105060952Y-87064761D02*
X105727619Y-86112380D01*
X106203809Y-87064761D02*
X106203809Y-85064761D01*
X106203809Y-85064761D02*
X105441904Y-85064761D01*
X105441904Y-85064761D02*
X105251428Y-85160000D01*
X105251428Y-85160000D02*
X105156190Y-85255238D01*
X105156190Y-85255238D02*
X105060952Y-85445714D01*
X105060952Y-85445714D02*
X105060952Y-85731428D01*
X105060952Y-85731428D02*
X105156190Y-85921904D01*
X105156190Y-85921904D02*
X105251428Y-86017142D01*
X105251428Y-86017142D02*
X105441904Y-86112380D01*
X105441904Y-86112380D02*
X106203809Y-86112380D01*
X103346666Y-85731428D02*
X103346666Y-87064761D01*
X103822857Y-84969523D02*
X104299047Y-86398095D01*
X104299047Y-86398095D02*
X103060952Y-86398095D01*
X101099047Y-86017142D02*
X99575238Y-86017142D01*
X99575238Y-86588571D02*
X101099047Y-86588571D01*
X96375238Y-87064761D02*
X97518095Y-87064761D01*
X96946667Y-87064761D02*
X96946667Y-85064761D01*
X96946667Y-85064761D02*
X97137143Y-85350476D01*
X97137143Y-85350476D02*
X97327619Y-85540952D01*
X97327619Y-85540952D02*
X97518095Y-85636190D01*
X94565714Y-85064761D02*
X95518095Y-85064761D01*
X95518095Y-85064761D02*
X95613333Y-86017142D01*
X95613333Y-86017142D02*
X95518095Y-85921904D01*
X95518095Y-85921904D02*
X95327619Y-85826666D01*
X95327619Y-85826666D02*
X94851428Y-85826666D01*
X94851428Y-85826666D02*
X94660952Y-85921904D01*
X94660952Y-85921904D02*
X94565714Y-86017142D01*
X94565714Y-86017142D02*
X94470476Y-86207619D01*
X94470476Y-86207619D02*
X94470476Y-86683809D01*
X94470476Y-86683809D02*
X94565714Y-86874285D01*
X94565714Y-86874285D02*
X94660952Y-86969523D01*
X94660952Y-86969523D02*
X94851428Y-87064761D01*
X94851428Y-87064761D02*
X95327619Y-87064761D01*
X95327619Y-87064761D02*
X95518095Y-86969523D01*
X95518095Y-86969523D02*
X95613333Y-86874285D01*
X93232381Y-85064761D02*
X93041904Y-85064761D01*
X93041904Y-85064761D02*
X92851428Y-85160000D01*
X92851428Y-85160000D02*
X92756190Y-85255238D01*
X92756190Y-85255238D02*
X92660952Y-85445714D01*
X92660952Y-85445714D02*
X92565714Y-85826666D01*
X92565714Y-85826666D02*
X92565714Y-86302857D01*
X92565714Y-86302857D02*
X92660952Y-86683809D01*
X92660952Y-86683809D02*
X92756190Y-86874285D01*
X92756190Y-86874285D02*
X92851428Y-86969523D01*
X92851428Y-86969523D02*
X93041904Y-87064761D01*
X93041904Y-87064761D02*
X93232381Y-87064761D01*
X93232381Y-87064761D02*
X93422857Y-86969523D01*
X93422857Y-86969523D02*
X93518095Y-86874285D01*
X93518095Y-86874285D02*
X93613333Y-86683809D01*
X93613333Y-86683809D02*
X93708571Y-86302857D01*
X93708571Y-86302857D02*
X93708571Y-85826666D01*
X93708571Y-85826666D02*
X93613333Y-85445714D01*
X93613333Y-85445714D02*
X93518095Y-85255238D01*
X93518095Y-85255238D02*
X93422857Y-85160000D01*
X93422857Y-85160000D02*
X93232381Y-85064761D01*
X105060952Y-90304761D02*
X105727619Y-89352380D01*
X106203809Y-90304761D02*
X106203809Y-88304761D01*
X106203809Y-88304761D02*
X105441904Y-88304761D01*
X105441904Y-88304761D02*
X105251428Y-88400000D01*
X105251428Y-88400000D02*
X105156190Y-88495238D01*
X105156190Y-88495238D02*
X105060952Y-88685714D01*
X105060952Y-88685714D02*
X105060952Y-88971428D01*
X105060952Y-88971428D02*
X105156190Y-89161904D01*
X105156190Y-89161904D02*
X105251428Y-89257142D01*
X105251428Y-89257142D02*
X105441904Y-89352380D01*
X105441904Y-89352380D02*
X106203809Y-89352380D01*
X103251428Y-88304761D02*
X104203809Y-88304761D01*
X104203809Y-88304761D02*
X104299047Y-89257142D01*
X104299047Y-89257142D02*
X104203809Y-89161904D01*
X104203809Y-89161904D02*
X104013333Y-89066666D01*
X104013333Y-89066666D02*
X103537142Y-89066666D01*
X103537142Y-89066666D02*
X103346666Y-89161904D01*
X103346666Y-89161904D02*
X103251428Y-89257142D01*
X103251428Y-89257142D02*
X103156190Y-89447619D01*
X103156190Y-89447619D02*
X103156190Y-89923809D01*
X103156190Y-89923809D02*
X103251428Y-90114285D01*
X103251428Y-90114285D02*
X103346666Y-90209523D01*
X103346666Y-90209523D02*
X103537142Y-90304761D01*
X103537142Y-90304761D02*
X104013333Y-90304761D01*
X104013333Y-90304761D02*
X104203809Y-90209523D01*
X104203809Y-90209523D02*
X104299047Y-90114285D01*
X101099047Y-89257142D02*
X99575238Y-89257142D01*
X99575238Y-89828571D02*
X101099047Y-89828571D01*
X97518095Y-88495238D02*
X97422857Y-88400000D01*
X97422857Y-88400000D02*
X97232381Y-88304761D01*
X97232381Y-88304761D02*
X96756190Y-88304761D01*
X96756190Y-88304761D02*
X96565714Y-88400000D01*
X96565714Y-88400000D02*
X96470476Y-88495238D01*
X96470476Y-88495238D02*
X96375238Y-88685714D01*
X96375238Y-88685714D02*
X96375238Y-88876190D01*
X96375238Y-88876190D02*
X96470476Y-89161904D01*
X96470476Y-89161904D02*
X97613333Y-90304761D01*
X97613333Y-90304761D02*
X96375238Y-90304761D01*
X95518095Y-90304761D02*
X95518095Y-88304761D01*
X94375238Y-90304761D02*
X95232381Y-89161904D01*
X94375238Y-88304761D02*
X95518095Y-89447619D01*
X105060952Y-93544761D02*
X105727619Y-92592380D01*
X106203809Y-93544761D02*
X106203809Y-91544761D01*
X106203809Y-91544761D02*
X105441904Y-91544761D01*
X105441904Y-91544761D02*
X105251428Y-91640000D01*
X105251428Y-91640000D02*
X105156190Y-91735238D01*
X105156190Y-91735238D02*
X105060952Y-91925714D01*
X105060952Y-91925714D02*
X105060952Y-92211428D01*
X105060952Y-92211428D02*
X105156190Y-92401904D01*
X105156190Y-92401904D02*
X105251428Y-92497142D01*
X105251428Y-92497142D02*
X105441904Y-92592380D01*
X105441904Y-92592380D02*
X106203809Y-92592380D01*
X103346666Y-91544761D02*
X103727619Y-91544761D01*
X103727619Y-91544761D02*
X103918095Y-91640000D01*
X103918095Y-91640000D02*
X104013333Y-91735238D01*
X104013333Y-91735238D02*
X104203809Y-92020952D01*
X104203809Y-92020952D02*
X104299047Y-92401904D01*
X104299047Y-92401904D02*
X104299047Y-93163809D01*
X104299047Y-93163809D02*
X104203809Y-93354285D01*
X104203809Y-93354285D02*
X104108571Y-93449523D01*
X104108571Y-93449523D02*
X103918095Y-93544761D01*
X103918095Y-93544761D02*
X103537142Y-93544761D01*
X103537142Y-93544761D02*
X103346666Y-93449523D01*
X103346666Y-93449523D02*
X103251428Y-93354285D01*
X103251428Y-93354285D02*
X103156190Y-93163809D01*
X103156190Y-93163809D02*
X103156190Y-92687619D01*
X103156190Y-92687619D02*
X103251428Y-92497142D01*
X103251428Y-92497142D02*
X103346666Y-92401904D01*
X103346666Y-92401904D02*
X103537142Y-92306666D01*
X103537142Y-92306666D02*
X103918095Y-92306666D01*
X103918095Y-92306666D02*
X104108571Y-92401904D01*
X104108571Y-92401904D02*
X104203809Y-92497142D01*
X104203809Y-92497142D02*
X104299047Y-92687619D01*
X101099047Y-92497142D02*
X99575238Y-92497142D01*
X99575238Y-93068571D02*
X101099047Y-93068571D01*
X97613333Y-91544761D02*
X96280000Y-91544761D01*
X96280000Y-91544761D02*
X97137143Y-93544761D01*
X95518095Y-93354285D02*
X95422857Y-93449523D01*
X95422857Y-93449523D02*
X95518095Y-93544761D01*
X95518095Y-93544761D02*
X95613333Y-93449523D01*
X95613333Y-93449523D02*
X95518095Y-93354285D01*
X95518095Y-93354285D02*
X95518095Y-93544761D01*
X93613333Y-91544761D02*
X94565714Y-91544761D01*
X94565714Y-91544761D02*
X94660952Y-92497142D01*
X94660952Y-92497142D02*
X94565714Y-92401904D01*
X94565714Y-92401904D02*
X94375238Y-92306666D01*
X94375238Y-92306666D02*
X93899047Y-92306666D01*
X93899047Y-92306666D02*
X93708571Y-92401904D01*
X93708571Y-92401904D02*
X93613333Y-92497142D01*
X93613333Y-92497142D02*
X93518095Y-92687619D01*
X93518095Y-92687619D02*
X93518095Y-93163809D01*
X93518095Y-93163809D02*
X93613333Y-93354285D01*
X93613333Y-93354285D02*
X93708571Y-93449523D01*
X93708571Y-93449523D02*
X93899047Y-93544761D01*
X93899047Y-93544761D02*
X94375238Y-93544761D01*
X94375238Y-93544761D02*
X94565714Y-93449523D01*
X94565714Y-93449523D02*
X94660952Y-93354285D01*
X92660952Y-93544761D02*
X92660952Y-91544761D01*
X91518095Y-93544761D02*
X92375238Y-92401904D01*
X91518095Y-91544761D02*
X92660952Y-92687619D01*
X86074285Y-72104761D02*
X84836190Y-72104761D01*
X84836190Y-72104761D02*
X85502857Y-72866666D01*
X85502857Y-72866666D02*
X85217142Y-72866666D01*
X85217142Y-72866666D02*
X85026666Y-72961904D01*
X85026666Y-72961904D02*
X84931428Y-73057142D01*
X84931428Y-73057142D02*
X84836190Y-73247619D01*
X84836190Y-73247619D02*
X84836190Y-73723809D01*
X84836190Y-73723809D02*
X84931428Y-73914285D01*
X84931428Y-73914285D02*
X85026666Y-74009523D01*
X85026666Y-74009523D02*
X85217142Y-74104761D01*
X85217142Y-74104761D02*
X85788571Y-74104761D01*
X85788571Y-74104761D02*
X85979047Y-74009523D01*
X85979047Y-74009523D02*
X86074285Y-73914285D01*
X83979047Y-73914285D02*
X83883809Y-74009523D01*
X83883809Y-74009523D02*
X83979047Y-74104761D01*
X83979047Y-74104761D02*
X84074285Y-74009523D01*
X84074285Y-74009523D02*
X83979047Y-73914285D01*
X83979047Y-73914285D02*
X83979047Y-74104761D01*
X83217142Y-72104761D02*
X81979047Y-72104761D01*
X81979047Y-72104761D02*
X82645714Y-72866666D01*
X82645714Y-72866666D02*
X82359999Y-72866666D01*
X82359999Y-72866666D02*
X82169523Y-72961904D01*
X82169523Y-72961904D02*
X82074285Y-73057142D01*
X82074285Y-73057142D02*
X81979047Y-73247619D01*
X81979047Y-73247619D02*
X81979047Y-73723809D01*
X81979047Y-73723809D02*
X82074285Y-73914285D01*
X82074285Y-73914285D02*
X82169523Y-74009523D01*
X82169523Y-74009523D02*
X82359999Y-74104761D01*
X82359999Y-74104761D02*
X82931428Y-74104761D01*
X82931428Y-74104761D02*
X83121904Y-74009523D01*
X83121904Y-74009523D02*
X83217142Y-73914285D01*
X81407618Y-72104761D02*
X80740952Y-74104761D01*
X80740952Y-74104761D02*
X80074285Y-72104761D01*
X84740952Y-77344761D02*
X85407619Y-76392380D01*
X85883809Y-77344761D02*
X85883809Y-75344761D01*
X85883809Y-75344761D02*
X85121904Y-75344761D01*
X85121904Y-75344761D02*
X84931428Y-75440000D01*
X84931428Y-75440000D02*
X84836190Y-75535238D01*
X84836190Y-75535238D02*
X84740952Y-75725714D01*
X84740952Y-75725714D02*
X84740952Y-76011428D01*
X84740952Y-76011428D02*
X84836190Y-76201904D01*
X84836190Y-76201904D02*
X84931428Y-76297142D01*
X84931428Y-76297142D02*
X85121904Y-76392380D01*
X85121904Y-76392380D02*
X85883809Y-76392380D01*
X82836190Y-77344761D02*
X83979047Y-77344761D01*
X83407619Y-77344761D02*
X83407619Y-75344761D01*
X83407619Y-75344761D02*
X83598095Y-75630476D01*
X83598095Y-75630476D02*
X83788571Y-75820952D01*
X83788571Y-75820952D02*
X83979047Y-75916190D01*
X80779047Y-76297142D02*
X79255238Y-76297142D01*
X79255238Y-76868571D02*
X80779047Y-76868571D01*
X76055238Y-77344761D02*
X77198095Y-77344761D01*
X76626667Y-77344761D02*
X76626667Y-75344761D01*
X76626667Y-75344761D02*
X76817143Y-75630476D01*
X76817143Y-75630476D02*
X77007619Y-75820952D01*
X77007619Y-75820952D02*
X77198095Y-75916190D01*
X75198095Y-77344761D02*
X75198095Y-75344761D01*
X74055238Y-77344761D02*
X74912381Y-76201904D01*
X74055238Y-75344761D02*
X75198095Y-76487619D01*
X84740952Y-80584761D02*
X85407619Y-79632380D01*
X85883809Y-80584761D02*
X85883809Y-78584761D01*
X85883809Y-78584761D02*
X85121904Y-78584761D01*
X85121904Y-78584761D02*
X84931428Y-78680000D01*
X84931428Y-78680000D02*
X84836190Y-78775238D01*
X84836190Y-78775238D02*
X84740952Y-78965714D01*
X84740952Y-78965714D02*
X84740952Y-79251428D01*
X84740952Y-79251428D02*
X84836190Y-79441904D01*
X84836190Y-79441904D02*
X84931428Y-79537142D01*
X84931428Y-79537142D02*
X85121904Y-79632380D01*
X85121904Y-79632380D02*
X85883809Y-79632380D01*
X83979047Y-78775238D02*
X83883809Y-78680000D01*
X83883809Y-78680000D02*
X83693333Y-78584761D01*
X83693333Y-78584761D02*
X83217142Y-78584761D01*
X83217142Y-78584761D02*
X83026666Y-78680000D01*
X83026666Y-78680000D02*
X82931428Y-78775238D01*
X82931428Y-78775238D02*
X82836190Y-78965714D01*
X82836190Y-78965714D02*
X82836190Y-79156190D01*
X82836190Y-79156190D02*
X82931428Y-79441904D01*
X82931428Y-79441904D02*
X84074285Y-80584761D01*
X84074285Y-80584761D02*
X82836190Y-80584761D01*
X80779047Y-79537142D02*
X79255238Y-79537142D01*
X79255238Y-80108571D02*
X80779047Y-80108571D01*
X76055238Y-80584761D02*
X77198095Y-80584761D01*
X76626667Y-80584761D02*
X76626667Y-78584761D01*
X76626667Y-78584761D02*
X76817143Y-78870476D01*
X76817143Y-78870476D02*
X77007619Y-79060952D01*
X77007619Y-79060952D02*
X77198095Y-79156190D01*
X75198095Y-80584761D02*
X75198095Y-78584761D01*
X74055238Y-80584761D02*
X74912381Y-79441904D01*
X74055238Y-78584761D02*
X75198095Y-79727619D01*
X84740952Y-83824761D02*
X85407619Y-82872380D01*
X85883809Y-83824761D02*
X85883809Y-81824761D01*
X85883809Y-81824761D02*
X85121904Y-81824761D01*
X85121904Y-81824761D02*
X84931428Y-81920000D01*
X84931428Y-81920000D02*
X84836190Y-82015238D01*
X84836190Y-82015238D02*
X84740952Y-82205714D01*
X84740952Y-82205714D02*
X84740952Y-82491428D01*
X84740952Y-82491428D02*
X84836190Y-82681904D01*
X84836190Y-82681904D02*
X84931428Y-82777142D01*
X84931428Y-82777142D02*
X85121904Y-82872380D01*
X85121904Y-82872380D02*
X85883809Y-82872380D01*
X84074285Y-81824761D02*
X82836190Y-81824761D01*
X82836190Y-81824761D02*
X83502857Y-82586666D01*
X83502857Y-82586666D02*
X83217142Y-82586666D01*
X83217142Y-82586666D02*
X83026666Y-82681904D01*
X83026666Y-82681904D02*
X82931428Y-82777142D01*
X82931428Y-82777142D02*
X82836190Y-82967619D01*
X82836190Y-82967619D02*
X82836190Y-83443809D01*
X82836190Y-83443809D02*
X82931428Y-83634285D01*
X82931428Y-83634285D02*
X83026666Y-83729523D01*
X83026666Y-83729523D02*
X83217142Y-83824761D01*
X83217142Y-83824761D02*
X83788571Y-83824761D01*
X83788571Y-83824761D02*
X83979047Y-83729523D01*
X83979047Y-83729523D02*
X84074285Y-83634285D01*
X80779047Y-82777142D02*
X79255238Y-82777142D01*
X79255238Y-83348571D02*
X80779047Y-83348571D01*
X76055238Y-83824761D02*
X77198095Y-83824761D01*
X76626667Y-83824761D02*
X76626667Y-81824761D01*
X76626667Y-81824761D02*
X76817143Y-82110476D01*
X76817143Y-82110476D02*
X77007619Y-82300952D01*
X77007619Y-82300952D02*
X77198095Y-82396190D01*
X75198095Y-83824761D02*
X75198095Y-81824761D01*
X74055238Y-83824761D02*
X74912381Y-82681904D01*
X74055238Y-81824761D02*
X75198095Y-82967619D01*
X84740952Y-87064761D02*
X85407619Y-86112380D01*
X85883809Y-87064761D02*
X85883809Y-85064761D01*
X85883809Y-85064761D02*
X85121904Y-85064761D01*
X85121904Y-85064761D02*
X84931428Y-85160000D01*
X84931428Y-85160000D02*
X84836190Y-85255238D01*
X84836190Y-85255238D02*
X84740952Y-85445714D01*
X84740952Y-85445714D02*
X84740952Y-85731428D01*
X84740952Y-85731428D02*
X84836190Y-85921904D01*
X84836190Y-85921904D02*
X84931428Y-86017142D01*
X84931428Y-86017142D02*
X85121904Y-86112380D01*
X85121904Y-86112380D02*
X85883809Y-86112380D01*
X83026666Y-85731428D02*
X83026666Y-87064761D01*
X83502857Y-84969523D02*
X83979047Y-86398095D01*
X83979047Y-86398095D02*
X82740952Y-86398095D01*
X80779047Y-86017142D02*
X79255238Y-86017142D01*
X79255238Y-86588571D02*
X80779047Y-86588571D01*
X77198095Y-85255238D02*
X77102857Y-85160000D01*
X77102857Y-85160000D02*
X76912381Y-85064761D01*
X76912381Y-85064761D02*
X76436190Y-85064761D01*
X76436190Y-85064761D02*
X76245714Y-85160000D01*
X76245714Y-85160000D02*
X76150476Y-85255238D01*
X76150476Y-85255238D02*
X76055238Y-85445714D01*
X76055238Y-85445714D02*
X76055238Y-85636190D01*
X76055238Y-85636190D02*
X76150476Y-85921904D01*
X76150476Y-85921904D02*
X77293333Y-87064761D01*
X77293333Y-87064761D02*
X76055238Y-87064761D01*
X75293333Y-85255238D02*
X75198095Y-85160000D01*
X75198095Y-85160000D02*
X75007619Y-85064761D01*
X75007619Y-85064761D02*
X74531428Y-85064761D01*
X74531428Y-85064761D02*
X74340952Y-85160000D01*
X74340952Y-85160000D02*
X74245714Y-85255238D01*
X74245714Y-85255238D02*
X74150476Y-85445714D01*
X74150476Y-85445714D02*
X74150476Y-85636190D01*
X74150476Y-85636190D02*
X74245714Y-85921904D01*
X74245714Y-85921904D02*
X75388571Y-87064761D01*
X75388571Y-87064761D02*
X74150476Y-87064761D01*
X72912381Y-85064761D02*
X72721904Y-85064761D01*
X72721904Y-85064761D02*
X72531428Y-85160000D01*
X72531428Y-85160000D02*
X72436190Y-85255238D01*
X72436190Y-85255238D02*
X72340952Y-85445714D01*
X72340952Y-85445714D02*
X72245714Y-85826666D01*
X72245714Y-85826666D02*
X72245714Y-86302857D01*
X72245714Y-86302857D02*
X72340952Y-86683809D01*
X72340952Y-86683809D02*
X72436190Y-86874285D01*
X72436190Y-86874285D02*
X72531428Y-86969523D01*
X72531428Y-86969523D02*
X72721904Y-87064761D01*
X72721904Y-87064761D02*
X72912381Y-87064761D01*
X72912381Y-87064761D02*
X73102857Y-86969523D01*
X73102857Y-86969523D02*
X73198095Y-86874285D01*
X73198095Y-86874285D02*
X73293333Y-86683809D01*
X73293333Y-86683809D02*
X73388571Y-86302857D01*
X73388571Y-86302857D02*
X73388571Y-85826666D01*
X73388571Y-85826666D02*
X73293333Y-85445714D01*
X73293333Y-85445714D02*
X73198095Y-85255238D01*
X73198095Y-85255238D02*
X73102857Y-85160000D01*
X73102857Y-85160000D02*
X72912381Y-85064761D01*
X84740952Y-90304761D02*
X85407619Y-89352380D01*
X85883809Y-90304761D02*
X85883809Y-88304761D01*
X85883809Y-88304761D02*
X85121904Y-88304761D01*
X85121904Y-88304761D02*
X84931428Y-88400000D01*
X84931428Y-88400000D02*
X84836190Y-88495238D01*
X84836190Y-88495238D02*
X84740952Y-88685714D01*
X84740952Y-88685714D02*
X84740952Y-88971428D01*
X84740952Y-88971428D02*
X84836190Y-89161904D01*
X84836190Y-89161904D02*
X84931428Y-89257142D01*
X84931428Y-89257142D02*
X85121904Y-89352380D01*
X85121904Y-89352380D02*
X85883809Y-89352380D01*
X82931428Y-88304761D02*
X83883809Y-88304761D01*
X83883809Y-88304761D02*
X83979047Y-89257142D01*
X83979047Y-89257142D02*
X83883809Y-89161904D01*
X83883809Y-89161904D02*
X83693333Y-89066666D01*
X83693333Y-89066666D02*
X83217142Y-89066666D01*
X83217142Y-89066666D02*
X83026666Y-89161904D01*
X83026666Y-89161904D02*
X82931428Y-89257142D01*
X82931428Y-89257142D02*
X82836190Y-89447619D01*
X82836190Y-89447619D02*
X82836190Y-89923809D01*
X82836190Y-89923809D02*
X82931428Y-90114285D01*
X82931428Y-90114285D02*
X83026666Y-90209523D01*
X83026666Y-90209523D02*
X83217142Y-90304761D01*
X83217142Y-90304761D02*
X83693333Y-90304761D01*
X83693333Y-90304761D02*
X83883809Y-90209523D01*
X83883809Y-90209523D02*
X83979047Y-90114285D01*
X80779047Y-89257142D02*
X79255238Y-89257142D01*
X79255238Y-89828571D02*
X80779047Y-89828571D01*
X76055238Y-90304761D02*
X77198095Y-90304761D01*
X76626667Y-90304761D02*
X76626667Y-88304761D01*
X76626667Y-88304761D02*
X76817143Y-88590476D01*
X76817143Y-88590476D02*
X77007619Y-88780952D01*
X77007619Y-88780952D02*
X77198095Y-88876190D01*
X75198095Y-90304761D02*
X75198095Y-88304761D01*
X74055238Y-90304761D02*
X74912381Y-89161904D01*
X74055238Y-88304761D02*
X75198095Y-89447619D01*
X84740952Y-93544761D02*
X85407619Y-92592380D01*
X85883809Y-93544761D02*
X85883809Y-91544761D01*
X85883809Y-91544761D02*
X85121904Y-91544761D01*
X85121904Y-91544761D02*
X84931428Y-91640000D01*
X84931428Y-91640000D02*
X84836190Y-91735238D01*
X84836190Y-91735238D02*
X84740952Y-91925714D01*
X84740952Y-91925714D02*
X84740952Y-92211428D01*
X84740952Y-92211428D02*
X84836190Y-92401904D01*
X84836190Y-92401904D02*
X84931428Y-92497142D01*
X84931428Y-92497142D02*
X85121904Y-92592380D01*
X85121904Y-92592380D02*
X85883809Y-92592380D01*
X83026666Y-91544761D02*
X83407619Y-91544761D01*
X83407619Y-91544761D02*
X83598095Y-91640000D01*
X83598095Y-91640000D02*
X83693333Y-91735238D01*
X83693333Y-91735238D02*
X83883809Y-92020952D01*
X83883809Y-92020952D02*
X83979047Y-92401904D01*
X83979047Y-92401904D02*
X83979047Y-93163809D01*
X83979047Y-93163809D02*
X83883809Y-93354285D01*
X83883809Y-93354285D02*
X83788571Y-93449523D01*
X83788571Y-93449523D02*
X83598095Y-93544761D01*
X83598095Y-93544761D02*
X83217142Y-93544761D01*
X83217142Y-93544761D02*
X83026666Y-93449523D01*
X83026666Y-93449523D02*
X82931428Y-93354285D01*
X82931428Y-93354285D02*
X82836190Y-93163809D01*
X82836190Y-93163809D02*
X82836190Y-92687619D01*
X82836190Y-92687619D02*
X82931428Y-92497142D01*
X82931428Y-92497142D02*
X83026666Y-92401904D01*
X83026666Y-92401904D02*
X83217142Y-92306666D01*
X83217142Y-92306666D02*
X83598095Y-92306666D01*
X83598095Y-92306666D02*
X83788571Y-92401904D01*
X83788571Y-92401904D02*
X83883809Y-92497142D01*
X83883809Y-92497142D02*
X83979047Y-92687619D01*
X80779047Y-92497142D02*
X79255238Y-92497142D01*
X79255238Y-93068571D02*
X80779047Y-93068571D01*
X77198095Y-91735238D02*
X77102857Y-91640000D01*
X77102857Y-91640000D02*
X76912381Y-91544761D01*
X76912381Y-91544761D02*
X76436190Y-91544761D01*
X76436190Y-91544761D02*
X76245714Y-91640000D01*
X76245714Y-91640000D02*
X76150476Y-91735238D01*
X76150476Y-91735238D02*
X76055238Y-91925714D01*
X76055238Y-91925714D02*
X76055238Y-92116190D01*
X76055238Y-92116190D02*
X76150476Y-92401904D01*
X76150476Y-92401904D02*
X77293333Y-93544761D01*
X77293333Y-93544761D02*
X76055238Y-93544761D01*
X75198095Y-93354285D02*
X75102857Y-93449523D01*
X75102857Y-93449523D02*
X75198095Y-93544761D01*
X75198095Y-93544761D02*
X75293333Y-93449523D01*
X75293333Y-93449523D02*
X75198095Y-93354285D01*
X75198095Y-93354285D02*
X75198095Y-93544761D01*
X74340952Y-91735238D02*
X74245714Y-91640000D01*
X74245714Y-91640000D02*
X74055238Y-91544761D01*
X74055238Y-91544761D02*
X73579047Y-91544761D01*
X73579047Y-91544761D02*
X73388571Y-91640000D01*
X73388571Y-91640000D02*
X73293333Y-91735238D01*
X73293333Y-91735238D02*
X73198095Y-91925714D01*
X73198095Y-91925714D02*
X73198095Y-92116190D01*
X73198095Y-92116190D02*
X73293333Y-92401904D01*
X73293333Y-92401904D02*
X74436190Y-93544761D01*
X74436190Y-93544761D02*
X73198095Y-93544761D01*
X72340952Y-93544761D02*
X72340952Y-91544761D01*
X71198095Y-93544761D02*
X72055238Y-92401904D01*
X71198095Y-91544761D02*
X72340952Y-92687619D01*
M02*
