%TF.GenerationSoftware,KiCad,Pcbnew,(7.0.0)*%
%TF.CreationDate,2023-08-25T10:54:55+02:00*%
%TF.ProjectId,JIG_MULTI,4a49475f-4d55-44c5-9449-2e6b69636164,rev?*%
%TF.SameCoordinates,Original*%
%TF.FileFunction,Copper,L2,Bot*%
%TF.FilePolarity,Positive*%
%FSLAX46Y46*%
G04 Gerber Fmt 4.6, Leading zero omitted, Abs format (unit mm)*
G04 Created by KiCad (PCBNEW (7.0.0)) date 2023-08-25 10:54:55*
%MOMM*%
%LPD*%
G01*
G04 APERTURE LIST*
%TA.AperFunction,ComponentPad*%
%ADD10C,1.524000*%
%TD*%
%TA.AperFunction,ComponentPad*%
%ADD11C,1.600000*%
%TD*%
%TA.AperFunction,ComponentPad*%
%ADD12O,1.600000X1.600000*%
%TD*%
%TA.AperFunction,ComponentPad*%
%ADD13O,1.000000X2.000000*%
%TD*%
%TA.AperFunction,ViaPad*%
%ADD14C,0.600000*%
%TD*%
%TA.AperFunction,ViaPad*%
%ADD15C,0.610000*%
%TD*%
%TA.AperFunction,ViaPad*%
%ADD16C,0.800000*%
%TD*%
%TA.AperFunction,Conductor*%
%ADD17C,0.250000*%
%TD*%
%TA.AperFunction,Conductor*%
%ADD18C,0.150000*%
%TD*%
G04 APERTURE END LIST*
D10*
%TO.P,U1,1*%
%TO.N,N/C*%
X64897000Y-88900000D03*
%TO.P,U1,2*%
X67437000Y-88900000D03*
%TO.P,U1,3*%
X69977000Y-88900000D03*
%TO.P,U1,4*%
X72517000Y-88900000D03*
%TO.P,U1,5*%
X75057000Y-88900000D03*
%TO.P,U1,6*%
X77597000Y-88900000D03*
%TO.P,U1,7*%
X80137000Y-88900000D03*
%TO.P,U1,8*%
X82677000Y-88900000D03*
%TO.P,U1,9*%
X85217000Y-88900000D03*
%TO.P,U1,10*%
X87757000Y-88900000D03*
%TO.P,U1,11*%
X90297000Y-88900000D03*
%TO.P,U1,12*%
X92837000Y-88900000D03*
%TD*%
D11*
%TO.P,R3,1*%
%TO.N,N/C*%
X60960000Y-40640000D03*
D12*
%TO.P,R3,2*%
X73659999Y-40639999D03*
%TD*%
D11*
%TO.P,R5,1*%
%TO.N,N/C*%
X58420000Y-99060000D03*
D12*
%TO.P,R5,2*%
X71119999Y-99059999D03*
%TD*%
D11*
%TO.P,R4,1*%
%TO.N,N/C*%
X68580000Y-45720000D03*
D12*
%TO.P,R4,2*%
X81279999Y-45719999D03*
%TD*%
D11*
%TO.P,R2,1*%
%TO.N,N/C*%
X43180000Y-45720000D03*
D12*
%TO.P,R2,2*%
X55879999Y-45719999D03*
%TD*%
D11*
%TO.P,R1,1*%
%TO.N,N/C*%
X43180000Y-40640000D03*
D12*
%TO.P,R1,2*%
X55879999Y-40639999D03*
%TD*%
D10*
%TO.P,U0,1*%
%TO.N,N/C*%
X64897000Y-73660000D03*
%TO.P,U0,2*%
X67437000Y-73660000D03*
%TO.P,U0,3*%
X69977000Y-73660000D03*
%TO.P,U0,4*%
X72517000Y-73660000D03*
%TO.P,U0,5*%
X75057000Y-73660000D03*
%TO.P,U0,6*%
X77597000Y-73660000D03*
%TO.P,U0,7*%
X80137000Y-73660000D03*
%TO.P,U0,8*%
X82677000Y-73660000D03*
%TO.P,U0,9*%
X85217000Y-73660000D03*
%TO.P,U0,10*%
X87757000Y-73660000D03*
%TO.P,U0,11*%
X90297000Y-73660000D03*
%TO.P,U0,12*%
X92837000Y-73660000D03*
%TD*%
D13*
%TO.P,UDC,24*%
%TO.N,N/C*%
X74294999Y-79755999D03*
%TO.P,UDC,25*%
X74294999Y-82855999D03*
%TO.P,UDC,26*%
X73294999Y-81355999D03*
%TO.P,UDC,27*%
X84794999Y-82855999D03*
%TO.P,UDC,28*%
X84794999Y-79755999D03*
%TO.P,UDC,29*%
X85794999Y-81255999D03*
%TD*%
D11*
%TO.P,R6,1*%
%TO.N,N/C*%
X78740000Y-99060000D03*
D12*
%TO.P,R6,2*%
X91439999Y-99059999D03*
%TD*%
D14*
%TO.N,*%
X77597000Y-71120000D03*
X69850000Y-63500000D03*
X58810000Y-40640000D03*
D15*
X87757000Y-87122000D03*
D14*
X99060000Y-60960000D03*
X67310000Y-63500000D03*
D15*
X83566000Y-81280000D03*
D14*
X72390000Y-66040000D03*
D16*
X60960000Y-48260000D03*
D15*
X83566000Y-85979000D03*
D16*
X60960000Y-43180000D03*
D14*
X83820000Y-58420000D03*
X96520000Y-60960000D03*
X48260000Y-68580000D03*
X48260000Y-63500000D03*
D15*
X76327000Y-81661000D03*
D14*
X106680000Y-58420000D03*
X90170000Y-66040000D03*
D16*
X60960000Y-43180000D03*
D14*
X106680000Y-66040000D03*
D16*
X60960000Y-48260000D03*
D14*
X43180000Y-101600000D03*
X74930000Y-60960000D03*
X90170000Y-60960000D03*
%TD*%
D17*
%TO.N,*%
X45720000Y-55880000D02*
X50800000Y-55880000D01*
X106680000Y-66040000D02*
X104140000Y-68580000D01*
D18*
X83947000Y-75692000D02*
X84963000Y-76708000D01*
D17*
X78740000Y-69977000D02*
X78740000Y-55880000D01*
X67310000Y-63500000D02*
X69850000Y-63500000D01*
D18*
X75565000Y-75692000D02*
X83947000Y-75692000D01*
X77216000Y-87122000D02*
X87757000Y-87122000D01*
D17*
X83820000Y-58420000D02*
X106680000Y-58420000D01*
X77597000Y-71120000D02*
X78740000Y-69977000D01*
X58810000Y-38100000D02*
X58810000Y-40640000D01*
X90170000Y-60960000D02*
X90170000Y-66040000D01*
X78740000Y-57150000D02*
X78740000Y-55880000D01*
X66040000Y-55880000D02*
X78740000Y-55880000D01*
X60960000Y-48260000D02*
X60960000Y-43180000D01*
D18*
X83566000Y-85979000D02*
X83566000Y-81280000D01*
X84963000Y-76708000D02*
X84795000Y-76876000D01*
D17*
X99060000Y-60960000D02*
X96520000Y-60960000D01*
D18*
X74295000Y-76962000D02*
X75565000Y-75692000D01*
D17*
X66040000Y-38100000D02*
X58810000Y-38100000D01*
X80137000Y-68580000D02*
X77597000Y-71120000D01*
D18*
X74295000Y-79756000D02*
X74295000Y-76962000D01*
D17*
X50800000Y-93980000D02*
X43180000Y-101600000D01*
D18*
X84795000Y-76876000D02*
X84795000Y-79756000D01*
D17*
X50800000Y-55880000D02*
X50800000Y-93980000D01*
X74930000Y-60960000D02*
X72390000Y-63500000D01*
X43180000Y-45720000D02*
X45720000Y-45720000D01*
X66040000Y-38100000D02*
X66040000Y-55880000D01*
D18*
X76327000Y-86233000D02*
X77216000Y-87122000D01*
D17*
X104140000Y-68580000D02*
X80137000Y-68580000D01*
X48260000Y-63500000D02*
X48260000Y-68580000D01*
X45720000Y-45720000D02*
X45720000Y-55880000D01*
X72390000Y-63500000D02*
X72390000Y-66040000D01*
D18*
X76327000Y-81661000D02*
X76327000Y-86233000D01*
%TD*%
M02*
