%TF.GenerationSoftware,KiCad,Pcbnew,(7.0.0)*%
%TF.CreationDate,2023-08-25T10:54:55+02:00*%
%TF.ProjectId,JIG_MULTI,4a49475f-4d55-44c5-9449-2e6b69636164,rev?*%
%TF.SameCoordinates,Original*%
%TF.FileFunction,Copper,L1,Top*%
%TF.FilePolarity,Positive*%
%FSLAX46Y46*%
G04 Gerber Fmt 4.6, Leading zero omitted, Abs format (unit mm)*
G04 Created by KiCad (PCBNEW (7.0.0)) date 2023-08-25 10:54:55*
%MOMM*%
%LPD*%
G01*
G04 APERTURE LIST*
%TA.AperFunction,NonConductor*%
%ADD10C,0.250000*%
%TD*%
%TA.AperFunction,SMDPad,CuDef*%
%ADD11C,2.000000*%
%TD*%
%TA.AperFunction,ComponentPad*%
%ADD12C,1.524000*%
%TD*%
%TA.AperFunction,ComponentPad*%
%ADD13C,1.600000*%
%TD*%
%TA.AperFunction,ComponentPad*%
%ADD14O,1.600000X1.600000*%
%TD*%
%TA.AperFunction,SMDPad,CuDef*%
%ADD15R,0.200000X1.800000*%
%TD*%
%TA.AperFunction,ComponentPad*%
%ADD16O,1.000000X2.000000*%
%TD*%
%TA.AperFunction,ViaPad*%
%ADD17C,0.600000*%
%TD*%
%TA.AperFunction,ViaPad*%
%ADD18C,0.610000*%
%TD*%
%TA.AperFunction,ViaPad*%
%ADD19C,0.800000*%
%TD*%
%TA.AperFunction,Conductor*%
%ADD20C,0.150000*%
%TD*%
%TA.AperFunction,Conductor*%
%ADD21C,0.250000*%
%TD*%
G04 APERTURE END LIST*
D10*
X109220000Y-93980000D02*
X58420000Y-93980000D01*
X58420000Y-93980000D02*
X58420000Y-99060000D01*
D11*
%TO.P,VCC,4*%
%TO.N,N/C*%
X38100000Y-103637944D03*
%TD*%
%TO.P,PC GND,3*%
%TO.N,N/C*%
X38100000Y-93980000D03*
%TD*%
%TO.P,PC TX,2*%
%TO.N,N/C*%
X38100000Y-83820000D03*
%TD*%
%TO.P,PC RX,1*%
%TO.N,N/C*%
X38100000Y-73660000D03*
%TD*%
%TO.P,UDC 11,7*%
%TO.N,N/C*%
X109220000Y-73660000D03*
%TD*%
D12*
%TO.P,U1,1*%
%TO.N,N/C*%
X64897000Y-88900000D03*
%TO.P,U1,2*%
X67437000Y-88900000D03*
%TO.P,U1,3*%
X69977000Y-88900000D03*
%TO.P,U1,4*%
X72517000Y-88900000D03*
%TO.P,U1,5*%
X75057000Y-88900000D03*
%TO.P,U1,6*%
X77597000Y-88900000D03*
%TO.P,U1,7*%
X80137000Y-88900000D03*
%TO.P,U1,8*%
X82677000Y-88900000D03*
%TO.P,U1,9*%
X85217000Y-88900000D03*
%TO.P,U1,10*%
X87757000Y-88900000D03*
%TO.P,U1,11*%
X90297000Y-88900000D03*
%TO.P,U1,12*%
X92837000Y-88900000D03*
%TD*%
D13*
%TO.P,R3,1*%
%TO.N,N/C*%
X60960000Y-40640000D03*
D14*
%TO.P,R3,2*%
X73659999Y-40639999D03*
%TD*%
D11*
%TO.P,UDC 12,8*%
%TO.N,N/C*%
X109220000Y-78740000D03*
%TD*%
D13*
%TO.P,R5,1*%
%TO.N,N/C*%
X58420000Y-99060000D03*
D14*
%TO.P,R5,2*%
X71119999Y-99059999D03*
%TD*%
D11*
%TO.P,UDC7,5*%
%TO.N,N/C*%
X109220000Y-58420000D03*
%TD*%
%TO.P,ID,9*%
%TO.N,N/C*%
X109220000Y-93980000D03*
%TD*%
%TO.P,UDC 3,9*%
%TO.N,N/C*%
X109220000Y-83820000D03*
%TD*%
D13*
%TO.P,R4,1*%
%TO.N,N/C*%
X68580000Y-45720000D03*
D14*
%TO.P,R4,2*%
X81279999Y-45719999D03*
%TD*%
D11*
%TO.P,UDC6,6*%
%TO.N,N/C*%
X109220000Y-66040000D03*
%TD*%
D13*
%TO.P,R2,1*%
%TO.N,N/C*%
X43180000Y-45720000D03*
D14*
%TO.P,R2,2*%
X55879999Y-45719999D03*
%TD*%
D13*
%TO.P,R1,1*%
%TO.N,N/C*%
X43180000Y-40640000D03*
D14*
%TO.P,R1,2*%
X55879999Y-40639999D03*
%TD*%
D12*
%TO.P,U0,1*%
%TO.N,N/C*%
X64897000Y-73660000D03*
%TO.P,U0,2*%
X67437000Y-73660000D03*
%TO.P,U0,3*%
X69977000Y-73660000D03*
%TO.P,U0,4*%
X72517000Y-73660000D03*
%TO.P,U0,5*%
X75057000Y-73660000D03*
%TO.P,U0,6*%
X77597000Y-73660000D03*
%TO.P,U0,7*%
X80137000Y-73660000D03*
%TO.P,U0,8*%
X82677000Y-73660000D03*
%TO.P,U0,9*%
X85217000Y-73660000D03*
%TO.P,U0,10*%
X87757000Y-73660000D03*
%TO.P,U0,11*%
X90297000Y-73660000D03*
%TO.P,U0,12*%
X92837000Y-73660000D03*
%TD*%
D15*
%TO.P,UDC,1*%
%TO.N,N/C*%
X75294999Y-79355999D03*
%TO.P,UDC,2*%
X75694999Y-79355999D03*
%TO.P,UDC,3*%
X76094999Y-79355999D03*
%TO.P,UDC,4*%
X76494999Y-79355999D03*
%TO.P,UDC,5*%
X76894999Y-79355999D03*
%TO.P,UDC,6*%
X77294999Y-79355999D03*
%TO.P,UDC,7*%
X77694999Y-79355999D03*
%TO.P,UDC,8*%
X78094999Y-79355999D03*
%TO.P,UDC,9*%
X78494999Y-79355999D03*
%TO.P,UDC,10*%
X78894999Y-79355999D03*
%TO.P,UDC,11*%
X79294999Y-79355999D03*
%TO.P,UDC,12*%
X79694999Y-79355999D03*
%TO.P,UDC,13*%
X80094999Y-79355999D03*
%TO.P,UDC,14*%
X80494999Y-79355999D03*
%TO.P,UDC,15*%
X80894999Y-79355999D03*
%TO.P,UDC,16*%
X81294999Y-79355999D03*
%TO.P,UDC,17*%
X81694999Y-79355999D03*
%TO.P,UDC,18*%
X82094999Y-79355999D03*
%TO.P,UDC,19*%
X82494999Y-79355999D03*
%TO.P,UDC,20*%
X82894999Y-79355999D03*
%TO.P,UDC,21*%
X83294999Y-79355999D03*
%TO.P,UDC,22*%
X75494999Y-83355999D03*
%TO.P,UDC,23*%
X83494999Y-83355999D03*
D16*
%TO.P,UDC,24*%
X74294999Y-79755999D03*
%TO.P,UDC,25*%
X74294999Y-82855999D03*
%TO.P,UDC,26*%
X73294999Y-81355999D03*
%TO.P,UDC,27*%
X84794999Y-82855999D03*
%TO.P,UDC,28*%
X84794999Y-79755999D03*
%TO.P,UDC,29*%
X85794999Y-81255999D03*
%TD*%
D13*
%TO.P,R6,1*%
%TO.N,N/C*%
X78740000Y-99060000D03*
D14*
%TO.P,R6,2*%
X91439999Y-99059999D03*
%TD*%
D17*
%TO.N,*%
X77597000Y-71120000D03*
X69850000Y-63500000D03*
X58810000Y-40640000D03*
D18*
X87757000Y-87122000D03*
D17*
X99060000Y-60960000D03*
X67310000Y-63500000D03*
D18*
X83566000Y-81280000D03*
D17*
X72390000Y-66040000D03*
D19*
X60960000Y-48260000D03*
D18*
X83566000Y-85979000D03*
D19*
X60960000Y-43180000D03*
D17*
X83820000Y-58420000D03*
X96520000Y-60960000D03*
X48260000Y-68580000D03*
X48260000Y-63500000D03*
D18*
X76327000Y-81661000D03*
D17*
X106680000Y-58420000D03*
X90170000Y-66040000D03*
D19*
X60960000Y-43180000D03*
D17*
X106680000Y-66040000D03*
D19*
X60960000Y-48260000D03*
D17*
X43180000Y-101600000D03*
X74930000Y-60960000D03*
X90170000Y-60960000D03*
%TD*%
D20*
%TO.N,*%
X76835000Y-86233000D02*
X73025000Y-86233000D01*
X76095000Y-77343000D02*
X75841000Y-77089000D01*
X82095000Y-79356000D02*
X82095000Y-82624000D01*
X82895000Y-88682000D02*
X82677000Y-88900000D01*
X76200000Y-85344000D02*
X68199000Y-85344000D01*
X76581000Y-85725000D02*
X70739000Y-85725000D01*
X79121000Y-77216000D02*
X82550000Y-77216000D01*
X64897000Y-86106000D02*
X64897000Y-88900000D01*
D21*
X68580000Y-45720000D02*
X69850000Y-45720000D01*
D20*
X83947000Y-84201000D02*
X89789000Y-84201000D01*
X81695000Y-82169000D02*
X81661000Y-82169000D01*
X84795000Y-82256000D02*
X84795000Y-82856000D01*
D21*
X48260000Y-58420000D02*
X48260000Y-46990000D01*
X69850000Y-64770000D02*
X40640000Y-93980000D01*
D20*
X68199000Y-85344000D02*
X67437000Y-86106000D01*
X69215000Y-77978000D02*
X64897000Y-73660000D01*
D21*
X101600000Y-83820000D02*
X109220000Y-83820000D01*
D20*
X84795000Y-82856000D02*
X92000000Y-82856000D01*
X81295000Y-79357000D02*
X81280000Y-81788000D01*
X77695000Y-75340000D02*
X77851000Y-75184000D01*
X76454000Y-77216000D02*
X75946000Y-76708000D01*
X79695000Y-79356000D02*
X79695000Y-78293000D01*
X75495000Y-82493000D02*
X76327000Y-81661000D01*
X84328000Y-77089000D02*
X87757000Y-73660000D01*
D21*
X48260000Y-58420000D02*
X48260000Y-63500000D01*
X38100000Y-78740000D02*
X38100000Y-83820000D01*
X48260000Y-60960000D02*
X48260000Y-58420000D01*
X66040000Y-66040000D02*
X71120000Y-60960000D01*
D20*
X73025000Y-86233000D02*
X72517000Y-86741000D01*
X76095000Y-79356000D02*
X76095000Y-77343000D01*
D21*
X81280000Y-60960000D02*
X83820000Y-58420000D01*
D20*
X82895000Y-79356000D02*
X82895000Y-88682000D01*
X70612000Y-77089000D02*
X70358000Y-76835000D01*
X80095000Y-79356000D02*
X80095000Y-80814000D01*
D21*
X90170000Y-60960000D02*
X74930000Y-45720000D01*
D20*
X73295000Y-81856000D02*
X73295000Y-81356000D01*
D21*
X59690000Y-40640000D02*
X60960000Y-40640000D01*
D20*
X75819000Y-86741000D02*
X75057000Y-87503000D01*
X83495000Y-83749000D02*
X83947000Y-84201000D01*
X75295000Y-77978000D02*
X69215000Y-77978000D01*
X82495000Y-83367000D02*
X80010000Y-85852000D01*
X80495000Y-81049000D02*
X76200000Y-85344000D01*
X78895000Y-79356000D02*
X78895000Y-77442000D01*
D21*
X97790000Y-57150000D02*
X97790000Y-63500000D01*
X74930000Y-60960000D02*
X81280000Y-60960000D01*
D20*
X77695000Y-79356000D02*
X77695000Y-75340000D01*
D21*
X58420000Y-58420000D02*
X60960000Y-55880000D01*
D20*
X75495000Y-83356000D02*
X75495000Y-82493000D01*
X81280000Y-81788000D02*
X76835000Y-86233000D01*
X77089000Y-86741000D02*
X75819000Y-86741000D01*
X75695000Y-79356000D02*
X75695000Y-77724000D01*
X80010000Y-85852000D02*
X80010000Y-88773000D01*
X75295000Y-79356000D02*
X75295000Y-77978000D01*
X79295000Y-77931000D02*
X79629000Y-77597000D01*
X66167000Y-84836000D02*
X64897000Y-86106000D01*
X83295000Y-81009000D02*
X83566000Y-81280000D01*
X81661000Y-82169000D02*
X77089000Y-86741000D01*
X87757000Y-87122000D02*
X87757000Y-88900000D01*
X76895000Y-77022000D02*
X76200000Y-76327000D01*
D21*
X85090000Y-68580000D02*
X72390000Y-68580000D01*
D20*
X84795000Y-79756000D02*
X85795000Y-80756000D01*
X75695000Y-77724000D02*
X75568000Y-77597000D01*
D21*
X40640000Y-93980000D02*
X38100000Y-93980000D01*
D20*
X82095000Y-82624000D02*
X77851000Y-86868000D01*
D21*
X90170000Y-60960000D02*
X96520000Y-60960000D01*
D20*
X79883000Y-78105000D02*
X88392000Y-78105000D01*
D21*
X48260000Y-46990000D02*
X43180000Y-41910000D01*
X43180000Y-101600000D02*
X41142056Y-103637944D01*
D20*
X88392000Y-78105000D02*
X92837000Y-73660000D01*
D21*
X48260000Y-68580000D02*
X38100000Y-78740000D01*
D20*
X69723000Y-75946000D02*
X67437000Y-73660000D01*
D21*
X91440000Y-99060000D02*
X91440000Y-106680000D01*
D20*
X80495000Y-79356000D02*
X80495000Y-81049000D01*
D21*
X63500000Y-40640000D02*
X73660000Y-40640000D01*
X97790000Y-63500000D02*
X97790000Y-73660000D01*
D20*
X77851000Y-88646000D02*
X77597000Y-88900000D01*
D21*
X60960000Y-55880000D02*
X60960000Y-48260000D01*
D20*
X77851000Y-86868000D02*
X77851000Y-88646000D01*
D21*
X41142056Y-106680000D02*
X38100000Y-103637944D01*
X77597000Y-71120000D02*
X77597000Y-73660000D01*
X86360000Y-45720000D02*
X81280000Y-45720000D01*
D20*
X67437000Y-86106000D02*
X67437000Y-88900000D01*
X81695000Y-79356000D02*
X81695000Y-82169000D01*
X78486000Y-76200000D02*
X80137000Y-76200000D01*
X77295000Y-73962000D02*
X77597000Y-73660000D01*
X78495000Y-79356000D02*
X78495000Y-76826000D01*
X83495000Y-83356000D02*
X83495000Y-83749000D01*
X89789000Y-84201000D02*
X90297000Y-84709000D01*
D21*
X69850000Y-63500000D02*
X97790000Y-63500000D01*
D20*
X82495000Y-79356000D02*
X82495000Y-83367000D01*
X83566000Y-87249000D02*
X85217000Y-88900000D01*
X80137000Y-76200000D02*
X82677000Y-73660000D01*
X90297000Y-84709000D02*
X90297000Y-88900000D01*
X74295000Y-82856000D02*
X73295000Y-81856000D01*
D21*
X41142056Y-103637944D02*
X38100000Y-103637944D01*
X48260000Y-104140000D02*
X38100000Y-93980000D01*
X91440000Y-106680000D02*
X88900000Y-106680000D01*
X90170000Y-66040000D02*
X90297000Y-66167000D01*
D20*
X77295000Y-79356000D02*
X77295000Y-73962000D01*
X79629000Y-77597000D02*
X86360000Y-77597000D01*
X85795000Y-81256000D02*
X84795000Y-82256000D01*
X80895000Y-81411000D02*
X76581000Y-85725000D01*
X82550000Y-77216000D02*
X82677000Y-77089000D01*
D21*
X106680000Y-66040000D02*
X109220000Y-66040000D01*
X55880000Y-40640000D02*
X59690000Y-40640000D01*
X109220000Y-78740000D02*
X109220000Y-83820000D01*
X68580000Y-63500000D02*
X71120000Y-60960000D01*
X63500000Y-99060000D02*
X58420000Y-104140000D01*
D20*
X83295000Y-79356000D02*
X83295000Y-81009000D01*
D21*
X101600000Y-83820000D02*
X92837000Y-75057000D01*
D20*
X82677000Y-77089000D02*
X84328000Y-77089000D01*
X75841000Y-77089000D02*
X70612000Y-77089000D01*
D21*
X106680000Y-58420000D02*
X109220000Y-58420000D01*
X91440000Y-50800000D02*
X97790000Y-57150000D01*
D20*
X69723000Y-77597000D02*
X69723000Y-75946000D01*
D21*
X91440000Y-50800000D02*
X86360000Y-45720000D01*
D20*
X78895000Y-77442000D02*
X79121000Y-77216000D01*
D21*
X99060000Y-60960000D02*
X109220000Y-71120000D01*
D20*
X92837000Y-83693000D02*
X92837000Y-88900000D01*
X69977000Y-86487000D02*
X69977000Y-88900000D01*
D21*
X72390000Y-68580000D02*
X72390000Y-66040000D01*
X38100000Y-71120000D02*
X38100000Y-73660000D01*
D20*
X76495000Y-79356000D02*
X76495000Y-77216000D01*
X72517000Y-76708000D02*
X72517000Y-73660000D01*
X75184000Y-76327000D02*
X75184000Y-73787000D01*
X75946000Y-76708000D02*
X72517000Y-76708000D01*
X78095000Y-79356000D02*
X78095000Y-76591000D01*
D21*
X85090000Y-73660000D02*
X85090000Y-68580000D01*
D20*
X86360000Y-77597000D02*
X90297000Y-73660000D01*
D21*
X55880000Y-45720000D02*
X68580000Y-45720000D01*
D20*
X80895000Y-79356000D02*
X80895000Y-81411000D01*
D21*
X78740000Y-99060000D02*
X78740000Y-93980000D01*
D20*
X75568000Y-77597000D02*
X69723000Y-77597000D01*
X78495000Y-76826000D02*
X78613000Y-76708000D01*
X92000000Y-82856000D02*
X92837000Y-83693000D01*
D21*
X43180000Y-41910000D02*
X43180000Y-40640000D01*
D20*
X83566000Y-85979000D02*
X83566000Y-87249000D01*
X78613000Y-76708000D02*
X82169000Y-76708000D01*
X92837000Y-73660000D02*
X97790000Y-73660000D01*
X75057000Y-87503000D02*
X75057000Y-88900000D01*
X70358000Y-76835000D02*
X70358000Y-74041000D01*
D21*
X58420000Y-104140000D02*
X48260000Y-104140000D01*
X43180000Y-66040000D02*
X66040000Y-66040000D01*
D20*
X70358000Y-74041000D02*
X69977000Y-73660000D01*
X78613000Y-75184000D02*
X80137000Y-73660000D01*
D21*
X58420000Y-63500000D02*
X67310000Y-63500000D01*
X92837000Y-75057000D02*
X92837000Y-73660000D01*
D20*
X85795000Y-80756000D02*
X85795000Y-81256000D01*
X74295000Y-80356000D02*
X74295000Y-79756000D01*
X82169000Y-76708000D02*
X85217000Y-73660000D01*
X79295000Y-79356000D02*
X79295000Y-77931000D01*
D21*
X71120000Y-99060000D02*
X63500000Y-99060000D01*
X88900000Y-106680000D02*
X41142056Y-106680000D01*
D20*
X80095000Y-80814000D02*
X76073000Y-84836000D01*
X80010000Y-88773000D02*
X80137000Y-88900000D01*
X75184000Y-73787000D02*
X75057000Y-73660000D01*
D21*
X109220000Y-71120000D02*
X109220000Y-73660000D01*
X90297000Y-66167000D02*
X90297000Y-73660000D01*
D20*
X73295000Y-81356000D02*
X74295000Y-80356000D01*
X70739000Y-85725000D02*
X69977000Y-86487000D01*
X76073000Y-84836000D02*
X66167000Y-84836000D01*
D21*
X71120000Y-60960000D02*
X74930000Y-60960000D01*
D20*
X77851000Y-75184000D02*
X78613000Y-75184000D01*
D21*
X58420000Y-63500000D02*
X58420000Y-58420000D01*
X69850000Y-45720000D02*
X74930000Y-45720000D01*
X60960000Y-43180000D02*
X63500000Y-40640000D01*
D20*
X79695000Y-78293000D02*
X79883000Y-78105000D01*
X76895000Y-79356000D02*
X76895000Y-77022000D01*
D21*
X43180000Y-66040000D02*
X38100000Y-71120000D01*
D20*
X72517000Y-86741000D02*
X72517000Y-88900000D01*
X76200000Y-76327000D02*
X75184000Y-76327000D01*
D21*
X69850000Y-63500000D02*
X69850000Y-64770000D01*
D20*
X76495000Y-77216000D02*
X76454000Y-77216000D01*
X78095000Y-76591000D02*
X78486000Y-76200000D01*
%TD*%
M02*
