%TF.GenerationSoftware,KiCad,Pcbnew,(7.0.0)*%
%TF.CreationDate,2023-08-10T15:30:15+02:00*%
%TF.ProjectId,JIG_MULTI,4a49475f-4d55-44c5-9449-2e6b69636164,rev?*%
%TF.SameCoordinates,Original*%
%TF.FileFunction,Copper,L1,Top*%
%TF.FilePolarity,Positive*%
%FSLAX46Y46*%
G04 Gerber Fmt 4.6, Leading zero omitted, Abs format (unit mm)*
G04 Created by KiCad (PCBNEW (7.0.0)) date 2023-08-10 15:30:15*
%MOMM*%
%LPD*%
G01*
G04 APERTURE LIST*
%TA.AperFunction,NonConductor*%
%ADD10C,0.250000*%
%TD*%
%TA.AperFunction,SMDPad,CuDef*%
%ADD11C,2.000000*%
%TD*%
%TA.AperFunction,ComponentPad*%
%ADD12C,1.524000*%
%TD*%
%TA.AperFunction,ComponentPad*%
%ADD13C,1.600000*%
%TD*%
%TA.AperFunction,ComponentPad*%
%ADD14O,1.600000X1.600000*%
%TD*%
%TA.AperFunction,SMDPad,CuDef*%
%ADD15R,0.200000X1.800000*%
%TD*%
%TA.AperFunction,ComponentPad*%
%ADD16O,1.000000X2.000000*%
%TD*%
%TA.AperFunction,ViaPad*%
%ADD17C,0.600000*%
%TD*%
%TA.AperFunction,ViaPad*%
%ADD18C,0.610000*%
%TD*%
%TA.AperFunction,ViaPad*%
%ADD19C,0.800000*%
%TD*%
%TA.AperFunction,Conductor*%
%ADD20C,0.150000*%
%TD*%
%TA.AperFunction,Conductor*%
%ADD21C,0.250000*%
%TD*%
G04 APERTURE END LIST*
D10*
X109220000Y-93980000D02*
X58420000Y-93980000D01*
X109220000Y-60960000D02*
X109220000Y-93980000D01*
X58420000Y-93980000D02*
X58420000Y-99060000D01*
D11*
%TO.P,UDC7/D-,5*%
%TO.N,N/C*%
X71120000Y-60960000D03*
%TD*%
D12*
%TO.P,U3,1*%
%TO.N,N/C*%
X69850000Y-88900000D03*
%TO.P,U3,2*%
X72390000Y-88900000D03*
%TO.P,U3,3*%
X74930000Y-88900000D03*
%TO.P,U3,4*%
X77470000Y-88900000D03*
%TO.P,U3,5*%
X80010000Y-88900000D03*
%TO.P,U3,6*%
X82550000Y-88900000D03*
%TO.P,U3,7*%
X85090000Y-88900000D03*
%TO.P,U3,8*%
X87630000Y-88900000D03*
%TO.P,U3,9*%
X90170000Y-88900000D03*
%TO.P,U3,10*%
X92710000Y-88900000D03*
%TO.P,U3,11*%
X95250000Y-88900000D03*
%TO.P,U3,12*%
X97790000Y-88900000D03*
%TD*%
D13*
%TO.P,R3,1*%
%TO.N,N/C*%
X60960000Y-40640000D03*
D14*
%TO.P,R3,2*%
X73659999Y-40639999D03*
%TD*%
D11*
%TO.P,UDC 12,8*%
%TO.N,N/C*%
X93980000Y-60960000D03*
%TD*%
%TO.P,,4*%
%TO.N,N/C*%
X38100000Y-103637944D03*
%TD*%
%TO.P,UDC 11,7*%
%TO.N,N/C*%
X86360000Y-60960000D03*
%TD*%
D13*
%TO.P,R5,1*%
%TO.N,N/C*%
X58420000Y-99060000D03*
D14*
%TO.P,R5,2*%
X71119999Y-99059999D03*
%TD*%
D11*
%TO.P,UDC6/D+,6*%
%TO.N,N/C*%
X78740000Y-60960000D03*
%TD*%
%TO.P,ID,9*%
%TO.N,N/C*%
X109220000Y-60960000D03*
%TD*%
%TO.P,UDC 3/GND,9*%
%TO.N,N/C*%
X101600000Y-60960000D03*
%TD*%
D13*
%TO.P,R4,1*%
%TO.N,N/C*%
X71120000Y-50800000D03*
D14*
%TO.P,R4,2*%
X83819999Y-50799999D03*
%TD*%
D13*
%TO.P,R2,1*%
%TO.N,N/C*%
X43180000Y-45720000D03*
D14*
%TO.P,R2,2*%
X55879999Y-45719999D03*
%TD*%
D13*
%TO.P,R1,1*%
%TO.N,N/C*%
X43180000Y-40640000D03*
D14*
%TO.P,R1,2*%
X55879999Y-40639999D03*
%TD*%
D12*
%TO.P,U2,1*%
%TO.N,N/C*%
X69850000Y-73660000D03*
%TO.P,U2,2*%
X72390000Y-73660000D03*
%TO.P,U2,3*%
X74930000Y-73660000D03*
%TO.P,U2,4*%
X77470000Y-73660000D03*
%TO.P,U2,5*%
X80010000Y-73660000D03*
%TO.P,U2,6*%
X82550000Y-73660000D03*
%TO.P,U2,7*%
X85090000Y-73660000D03*
%TO.P,U2,8*%
X87630000Y-73660000D03*
%TO.P,U2,9*%
X90170000Y-73660000D03*
%TO.P,U2,10*%
X92710000Y-73660000D03*
%TO.P,U2,11*%
X95250000Y-73660000D03*
%TO.P,U2,12*%
X97790000Y-73660000D03*
%TD*%
D15*
%TO.P,U1,1*%
%TO.N,N/C*%
X80247999Y-79355999D03*
%TO.P,U1,2*%
X80647999Y-79355999D03*
%TO.P,U1,3*%
X81047999Y-79355999D03*
%TO.P,U1,4*%
X81447999Y-79355999D03*
%TO.P,U1,5*%
X81847999Y-79355999D03*
%TO.P,U1,6*%
X82247999Y-79355999D03*
%TO.P,U1,7*%
X82647999Y-79355999D03*
%TO.P,U1,8*%
X83047999Y-79355999D03*
%TO.P,U1,9*%
X83447999Y-79355999D03*
%TO.P,U1,10*%
X83847999Y-79355999D03*
%TO.P,U1,11*%
X84247999Y-79355999D03*
%TO.P,U1,12*%
X84647999Y-79355999D03*
%TO.P,U1,13*%
X85047999Y-79355999D03*
%TO.P,U1,14*%
X85447999Y-79355999D03*
%TO.P,U1,15*%
X85847999Y-79355999D03*
%TO.P,U1,16*%
X86247999Y-79355999D03*
%TO.P,U1,17*%
X86647999Y-79355999D03*
%TO.P,U1,18*%
X87047999Y-79355999D03*
%TO.P,U1,19*%
X87447999Y-79355999D03*
%TO.P,U1,20*%
X87847999Y-79355999D03*
%TO.P,U1,21*%
X88247999Y-79355999D03*
%TO.P,U1,22*%
X80447999Y-83355999D03*
%TO.P,U1,23*%
X88447999Y-83355999D03*
D16*
%TO.P,U1,24*%
X79247999Y-79755999D03*
%TO.P,U1,25*%
X79247999Y-82855999D03*
%TO.P,U1,26*%
X78247999Y-81355999D03*
%TO.P,U1,27*%
X89747999Y-82855999D03*
%TO.P,U1,28*%
X89747999Y-79755999D03*
%TO.P,U1,29*%
X90747999Y-81255999D03*
%TD*%
D11*
%TO.P,,1*%
%TO.N,N/C*%
X38100000Y-73660000D03*
%TD*%
%TO.P,,3*%
%TO.N,N/C*%
X38100000Y-93980000D03*
%TD*%
D13*
%TO.P,R6,1*%
%TO.N,N/C*%
X78740000Y-99060000D03*
D14*
%TO.P,R6,2*%
X91439999Y-99059999D03*
%TD*%
D11*
%TO.P,,2*%
%TO.N,N/C*%
X38100000Y-83820000D03*
%TD*%
D17*
%TO.N,*%
X82550000Y-71120000D03*
X69850000Y-63500000D03*
X58810000Y-40640000D03*
D18*
X92710000Y-87122000D03*
D17*
X67310000Y-63500000D03*
D18*
X88519000Y-81280000D03*
D17*
X72390000Y-66040000D03*
D19*
X60960000Y-48260000D03*
D18*
X88519000Y-85979000D03*
D19*
X60960000Y-43180000D03*
D17*
X48260000Y-68580000D03*
X48260000Y-63500000D03*
D18*
X81280000Y-81661000D03*
D17*
X90170000Y-66040000D03*
D19*
X60960000Y-43180000D03*
X60960000Y-48260000D03*
D17*
X43180000Y-101600000D03*
X74930000Y-60960000D03*
X82550000Y-60960000D03*
X90170000Y-60960000D03*
D19*
X78740000Y-55880000D03*
%TD*%
D20*
%TO.N,*%
X81788000Y-86233000D02*
X77978000Y-86233000D01*
X81048000Y-77343000D02*
X80794000Y-77089000D01*
X87048000Y-79356000D02*
X87048000Y-82624000D01*
X87848000Y-88682000D02*
X87630000Y-88900000D01*
X81153000Y-85344000D02*
X73152000Y-85344000D01*
X81534000Y-85725000D02*
X75692000Y-85725000D01*
X84074000Y-77216000D02*
X87503000Y-77216000D01*
X69850000Y-86106000D02*
X69850000Y-88900000D01*
D21*
X68580000Y-45720000D02*
X69850000Y-45720000D01*
D20*
X88900000Y-84201000D02*
X94742000Y-84201000D01*
X86648000Y-82169000D02*
X86614000Y-82169000D01*
X89748000Y-82256000D02*
X89748000Y-82856000D01*
D21*
X48260000Y-58420000D02*
X48260000Y-46990000D01*
X69850000Y-64770000D02*
X40640000Y-93980000D01*
D20*
X73152000Y-85344000D02*
X72390000Y-86106000D01*
X74168000Y-77978000D02*
X69850000Y-73660000D01*
X89748000Y-82856000D02*
X96953000Y-82856000D01*
D21*
X74930000Y-49530000D02*
X74930000Y-45720000D01*
D20*
X86248000Y-79357000D02*
X86233000Y-81788000D01*
X82648000Y-75340000D02*
X82804000Y-75184000D01*
X81407000Y-77216000D02*
X80899000Y-76708000D01*
X84648000Y-79356000D02*
X84648000Y-78293000D01*
X80448000Y-82493000D02*
X81280000Y-81661000D01*
X89281000Y-77089000D02*
X92710000Y-73660000D01*
D21*
X48260000Y-58420000D02*
X48260000Y-63500000D01*
X86360000Y-60960000D02*
X87630000Y-60960000D01*
X38100000Y-78740000D02*
X38100000Y-83820000D01*
X48260000Y-60960000D02*
X48260000Y-58420000D01*
X66040000Y-66040000D02*
X71120000Y-60960000D01*
D20*
X77978000Y-86233000D02*
X77470000Y-86741000D01*
X81048000Y-79356000D02*
X81048000Y-77343000D01*
X87848000Y-79356000D02*
X87848000Y-88682000D01*
X75565000Y-77089000D02*
X75311000Y-76835000D01*
X85048000Y-79356000D02*
X85048000Y-80814000D01*
X78248000Y-81856000D02*
X78248000Y-81356000D01*
D21*
X59690000Y-40640000D02*
X60960000Y-40640000D01*
D20*
X80772000Y-86741000D02*
X80010000Y-87503000D01*
X88448000Y-83749000D02*
X88900000Y-84201000D01*
X80248000Y-77978000D02*
X74168000Y-77978000D01*
X87448000Y-83367000D02*
X84963000Y-85852000D01*
X85448000Y-81049000D02*
X81153000Y-85344000D01*
D21*
X69850000Y-45720000D02*
X71120000Y-46990000D01*
D20*
X83848000Y-79356000D02*
X83848000Y-77442000D01*
X82648000Y-79356000D02*
X82648000Y-75340000D01*
D21*
X58420000Y-58420000D02*
X60960000Y-55880000D01*
D20*
X80448000Y-83356000D02*
X80448000Y-82493000D01*
X86233000Y-81788000D02*
X81788000Y-86233000D01*
X82042000Y-86741000D02*
X80772000Y-86741000D01*
X80648000Y-79356000D02*
X80648000Y-77724000D01*
X84963000Y-85852000D02*
X84963000Y-88773000D01*
X80248000Y-79356000D02*
X80248000Y-77978000D01*
X84248000Y-77931000D02*
X84582000Y-77597000D01*
X71120000Y-84836000D02*
X69850000Y-86106000D01*
X88248000Y-81009000D02*
X88519000Y-81280000D01*
D21*
X90170000Y-66040000D02*
X95250000Y-71120000D01*
D20*
X86614000Y-82169000D02*
X82042000Y-86741000D01*
X92710000Y-87122000D02*
X92710000Y-88900000D01*
X81848000Y-77022000D02*
X81153000Y-76327000D01*
D21*
X85090000Y-68580000D02*
X72390000Y-68580000D01*
X83820000Y-50800000D02*
X91440000Y-50800000D01*
D20*
X89748000Y-79756000D02*
X90748000Y-80756000D01*
X80648000Y-77724000D02*
X80521000Y-77597000D01*
D21*
X40640000Y-93980000D02*
X38100000Y-93980000D01*
D20*
X87048000Y-82624000D02*
X82804000Y-86868000D01*
X84836000Y-78105000D02*
X93345000Y-78105000D01*
D21*
X48260000Y-46990000D02*
X43180000Y-41910000D01*
X97790000Y-63500000D02*
X99060000Y-63500000D01*
X43180000Y-101600000D02*
X41142056Y-103637944D01*
D20*
X93345000Y-78105000D02*
X97790000Y-73660000D01*
D21*
X48260000Y-68580000D02*
X38100000Y-78740000D01*
D20*
X74676000Y-75946000D02*
X72390000Y-73660000D01*
D21*
X99060000Y-63500000D02*
X101600000Y-60960000D01*
X91440000Y-99060000D02*
X91440000Y-106680000D01*
D20*
X85448000Y-79356000D02*
X85448000Y-81049000D01*
D21*
X63500000Y-40640000D02*
X73660000Y-40640000D01*
X97790000Y-63500000D02*
X97790000Y-73660000D01*
D20*
X82804000Y-88646000D02*
X82550000Y-88900000D01*
D21*
X60960000Y-55880000D02*
X60960000Y-48260000D01*
D20*
X82804000Y-86868000D02*
X82804000Y-88646000D01*
D21*
X41142056Y-106680000D02*
X38100000Y-103637944D01*
X93980000Y-60960000D02*
X101600000Y-60960000D01*
X82550000Y-71120000D02*
X82550000Y-73660000D01*
D20*
X72390000Y-86106000D02*
X72390000Y-88900000D01*
X86648000Y-79356000D02*
X86648000Y-82169000D01*
X83439000Y-76200000D02*
X85090000Y-76200000D01*
X82248000Y-73962000D02*
X82550000Y-73660000D01*
X83448000Y-79356000D02*
X83448000Y-76826000D01*
X88448000Y-83356000D02*
X88448000Y-83749000D01*
X94742000Y-84201000D02*
X95250000Y-84709000D01*
D21*
X69850000Y-63500000D02*
X97790000Y-63500000D01*
D20*
X87448000Y-79356000D02*
X87448000Y-83367000D01*
X88519000Y-87249000D02*
X90170000Y-88900000D01*
D21*
X91440000Y-106680000D02*
X41142056Y-106680000D01*
X86360000Y-60960000D02*
X74930000Y-49530000D01*
D20*
X85090000Y-76200000D02*
X87630000Y-73660000D01*
X95250000Y-84709000D02*
X95250000Y-88900000D01*
X79248000Y-82856000D02*
X78248000Y-81856000D01*
D21*
X41142056Y-103637944D02*
X38100000Y-103637944D01*
X48260000Y-104140000D02*
X38100000Y-93980000D01*
D20*
X82248000Y-79356000D02*
X82248000Y-73962000D01*
X84582000Y-77597000D02*
X91313000Y-77597000D01*
X90748000Y-81256000D02*
X89748000Y-82256000D01*
D21*
X71120000Y-46990000D02*
X71120000Y-50800000D01*
X78740000Y-55880000D02*
X78740000Y-60960000D01*
D20*
X85848000Y-81411000D02*
X81534000Y-85725000D01*
X87503000Y-77216000D02*
X87630000Y-77089000D01*
D21*
X55880000Y-40640000D02*
X59690000Y-40640000D01*
X68580000Y-63500000D02*
X71120000Y-60960000D01*
X63500000Y-99060000D02*
X58420000Y-104140000D01*
D20*
X88248000Y-79356000D02*
X88248000Y-81009000D01*
X87630000Y-77089000D02*
X89281000Y-77089000D01*
X80794000Y-77089000D02*
X75565000Y-77089000D01*
X74676000Y-77597000D02*
X74676000Y-75946000D01*
X83848000Y-77442000D02*
X84074000Y-77216000D01*
X97790000Y-83693000D02*
X97790000Y-88900000D01*
X74930000Y-86487000D02*
X74930000Y-88900000D01*
D21*
X91440000Y-50800000D02*
X101600000Y-60960000D01*
X72390000Y-68580000D02*
X72390000Y-66040000D01*
X38100000Y-71120000D02*
X38100000Y-73660000D01*
D20*
X81448000Y-79356000D02*
X81448000Y-77216000D01*
X77470000Y-76708000D02*
X77470000Y-73660000D01*
X80137000Y-76327000D02*
X80137000Y-73787000D01*
X80899000Y-76708000D02*
X77470000Y-76708000D01*
X83048000Y-79356000D02*
X83048000Y-76591000D01*
D21*
X85090000Y-73660000D02*
X85090000Y-68580000D01*
D20*
X91313000Y-77597000D02*
X95250000Y-73660000D01*
D21*
X55880000Y-45720000D02*
X68580000Y-45720000D01*
D20*
X85848000Y-79356000D02*
X85848000Y-81411000D01*
D21*
X78740000Y-99060000D02*
X78740000Y-93980000D01*
D20*
X80521000Y-77597000D02*
X74676000Y-77597000D01*
X83448000Y-76826000D02*
X83566000Y-76708000D01*
X96953000Y-82856000D02*
X97790000Y-83693000D01*
D21*
X43180000Y-41910000D02*
X43180000Y-40640000D01*
D20*
X88519000Y-85979000D02*
X88519000Y-87249000D01*
X83566000Y-76708000D02*
X87122000Y-76708000D01*
X80010000Y-87503000D02*
X80010000Y-88900000D01*
X75311000Y-76835000D02*
X75311000Y-74041000D01*
D21*
X58420000Y-104140000D02*
X48260000Y-104140000D01*
X86360000Y-60960000D02*
X90170000Y-60960000D01*
X43180000Y-66040000D02*
X66040000Y-66040000D01*
D20*
X75311000Y-74041000D02*
X74930000Y-73660000D01*
D21*
X95250000Y-71120000D02*
X95250000Y-73660000D01*
D20*
X83566000Y-75184000D02*
X85090000Y-73660000D01*
D21*
X58420000Y-63500000D02*
X67310000Y-63500000D01*
D20*
X90748000Y-80756000D02*
X90748000Y-81256000D01*
X79248000Y-80356000D02*
X79248000Y-79756000D01*
X87122000Y-76708000D02*
X90170000Y-73660000D01*
X84248000Y-79356000D02*
X84248000Y-77931000D01*
D21*
X71120000Y-99060000D02*
X63500000Y-99060000D01*
X78740000Y-60960000D02*
X82550000Y-60960000D01*
D20*
X85048000Y-80814000D02*
X81026000Y-84836000D01*
X84963000Y-88773000D02*
X85090000Y-88900000D01*
X80137000Y-73787000D02*
X80010000Y-73660000D01*
X78248000Y-81356000D02*
X79248000Y-80356000D01*
X75692000Y-85725000D02*
X74930000Y-86487000D01*
X81026000Y-84836000D02*
X71120000Y-84836000D01*
D21*
X71120000Y-60960000D02*
X74930000Y-60960000D01*
D20*
X82804000Y-75184000D02*
X83566000Y-75184000D01*
D21*
X58420000Y-63500000D02*
X58420000Y-58420000D01*
X69850000Y-45720000D02*
X74930000Y-45720000D01*
X60960000Y-43180000D02*
X63500000Y-40640000D01*
D20*
X84648000Y-78293000D02*
X84836000Y-78105000D01*
X81848000Y-79356000D02*
X81848000Y-77022000D01*
D21*
X43180000Y-66040000D02*
X38100000Y-71120000D01*
D20*
X77470000Y-86741000D02*
X77470000Y-88900000D01*
X81153000Y-76327000D02*
X80137000Y-76327000D01*
D21*
X69850000Y-63500000D02*
X69850000Y-64770000D01*
D20*
X81448000Y-77216000D02*
X81407000Y-77216000D01*
X83048000Y-76591000D02*
X83439000Y-76200000D01*
%TD*%
M02*
