%TF.GenerationSoftware,KiCad,Pcbnew,(7.0.0)*%
%TF.CreationDate,2023-08-10T15:26:26+02:00*%
%TF.ProjectId,JIG_MULTI,4a49475f-4d55-44c5-9449-2e6b69636164,rev?*%
%TF.SameCoordinates,Original*%
%TF.FileFunction,Legend,Bot*%
%TF.FilePolarity,Positive*%
%FSLAX46Y46*%
G04 Gerber Fmt 4.6, Leading zero omitted, Abs format (unit mm)*
G04 Created by KiCad (PCBNEW (7.0.0)) date 2023-08-10 15:26:26*
%MOMM*%
%LPD*%
G01*
G04 APERTURE LIST*
%ADD10C,0.100000*%
G04 APERTURE END LIST*
D10*
X133191428Y-34004761D02*
X134143809Y-34004761D01*
X134143809Y-34004761D02*
X134239047Y-34957142D01*
X134239047Y-34957142D02*
X134143809Y-34861904D01*
X134143809Y-34861904D02*
X133953333Y-34766666D01*
X133953333Y-34766666D02*
X133477142Y-34766666D01*
X133477142Y-34766666D02*
X133286666Y-34861904D01*
X133286666Y-34861904D02*
X133191428Y-34957142D01*
X133191428Y-34957142D02*
X133096190Y-35147619D01*
X133096190Y-35147619D02*
X133096190Y-35623809D01*
X133096190Y-35623809D02*
X133191428Y-35814285D01*
X133191428Y-35814285D02*
X133286666Y-35909523D01*
X133286666Y-35909523D02*
X133477142Y-36004761D01*
X133477142Y-36004761D02*
X133953333Y-36004761D01*
X133953333Y-36004761D02*
X134143809Y-35909523D01*
X134143809Y-35909523D02*
X134239047Y-35814285D01*
X132524761Y-34004761D02*
X131858095Y-36004761D01*
X131858095Y-36004761D02*
X131191428Y-34004761D01*
X133000952Y-39244761D02*
X133667619Y-38292380D01*
X134143809Y-39244761D02*
X134143809Y-37244761D01*
X134143809Y-37244761D02*
X133381904Y-37244761D01*
X133381904Y-37244761D02*
X133191428Y-37340000D01*
X133191428Y-37340000D02*
X133096190Y-37435238D01*
X133096190Y-37435238D02*
X133000952Y-37625714D01*
X133000952Y-37625714D02*
X133000952Y-37911428D01*
X133000952Y-37911428D02*
X133096190Y-38101904D01*
X133096190Y-38101904D02*
X133191428Y-38197142D01*
X133191428Y-38197142D02*
X133381904Y-38292380D01*
X133381904Y-38292380D02*
X134143809Y-38292380D01*
X131096190Y-39244761D02*
X132239047Y-39244761D01*
X131667619Y-39244761D02*
X131667619Y-37244761D01*
X131667619Y-37244761D02*
X131858095Y-37530476D01*
X131858095Y-37530476D02*
X132048571Y-37720952D01*
X132048571Y-37720952D02*
X132239047Y-37816190D01*
X129039047Y-38197142D02*
X127515238Y-38197142D01*
X127515238Y-38768571D02*
X129039047Y-38768571D01*
X124315238Y-39244761D02*
X125458095Y-39244761D01*
X124886667Y-39244761D02*
X124886667Y-37244761D01*
X124886667Y-37244761D02*
X125077143Y-37530476D01*
X125077143Y-37530476D02*
X125267619Y-37720952D01*
X125267619Y-37720952D02*
X125458095Y-37816190D01*
X123458095Y-39244761D02*
X123458095Y-37244761D01*
X122315238Y-39244761D02*
X123172381Y-38101904D01*
X122315238Y-37244761D02*
X123458095Y-38387619D01*
X133000952Y-42484761D02*
X133667619Y-41532380D01*
X134143809Y-42484761D02*
X134143809Y-40484761D01*
X134143809Y-40484761D02*
X133381904Y-40484761D01*
X133381904Y-40484761D02*
X133191428Y-40580000D01*
X133191428Y-40580000D02*
X133096190Y-40675238D01*
X133096190Y-40675238D02*
X133000952Y-40865714D01*
X133000952Y-40865714D02*
X133000952Y-41151428D01*
X133000952Y-41151428D02*
X133096190Y-41341904D01*
X133096190Y-41341904D02*
X133191428Y-41437142D01*
X133191428Y-41437142D02*
X133381904Y-41532380D01*
X133381904Y-41532380D02*
X134143809Y-41532380D01*
X132239047Y-40675238D02*
X132143809Y-40580000D01*
X132143809Y-40580000D02*
X131953333Y-40484761D01*
X131953333Y-40484761D02*
X131477142Y-40484761D01*
X131477142Y-40484761D02*
X131286666Y-40580000D01*
X131286666Y-40580000D02*
X131191428Y-40675238D01*
X131191428Y-40675238D02*
X131096190Y-40865714D01*
X131096190Y-40865714D02*
X131096190Y-41056190D01*
X131096190Y-41056190D02*
X131191428Y-41341904D01*
X131191428Y-41341904D02*
X132334285Y-42484761D01*
X132334285Y-42484761D02*
X131096190Y-42484761D01*
X129039047Y-41437142D02*
X127515238Y-41437142D01*
X127515238Y-42008571D02*
X129039047Y-42008571D01*
X124315238Y-42484761D02*
X125458095Y-42484761D01*
X124886667Y-42484761D02*
X124886667Y-40484761D01*
X124886667Y-40484761D02*
X125077143Y-40770476D01*
X125077143Y-40770476D02*
X125267619Y-40960952D01*
X125267619Y-40960952D02*
X125458095Y-41056190D01*
X123458095Y-42484761D02*
X123458095Y-40484761D01*
X122315238Y-42484761D02*
X123172381Y-41341904D01*
X122315238Y-40484761D02*
X123458095Y-41627619D01*
X133000952Y-45724761D02*
X133667619Y-44772380D01*
X134143809Y-45724761D02*
X134143809Y-43724761D01*
X134143809Y-43724761D02*
X133381904Y-43724761D01*
X133381904Y-43724761D02*
X133191428Y-43820000D01*
X133191428Y-43820000D02*
X133096190Y-43915238D01*
X133096190Y-43915238D02*
X133000952Y-44105714D01*
X133000952Y-44105714D02*
X133000952Y-44391428D01*
X133000952Y-44391428D02*
X133096190Y-44581904D01*
X133096190Y-44581904D02*
X133191428Y-44677142D01*
X133191428Y-44677142D02*
X133381904Y-44772380D01*
X133381904Y-44772380D02*
X134143809Y-44772380D01*
X132334285Y-43724761D02*
X131096190Y-43724761D01*
X131096190Y-43724761D02*
X131762857Y-44486666D01*
X131762857Y-44486666D02*
X131477142Y-44486666D01*
X131477142Y-44486666D02*
X131286666Y-44581904D01*
X131286666Y-44581904D02*
X131191428Y-44677142D01*
X131191428Y-44677142D02*
X131096190Y-44867619D01*
X131096190Y-44867619D02*
X131096190Y-45343809D01*
X131096190Y-45343809D02*
X131191428Y-45534285D01*
X131191428Y-45534285D02*
X131286666Y-45629523D01*
X131286666Y-45629523D02*
X131477142Y-45724761D01*
X131477142Y-45724761D02*
X132048571Y-45724761D01*
X132048571Y-45724761D02*
X132239047Y-45629523D01*
X132239047Y-45629523D02*
X132334285Y-45534285D01*
X129039047Y-44677142D02*
X127515238Y-44677142D01*
X127515238Y-45248571D02*
X129039047Y-45248571D01*
X124315238Y-45724761D02*
X125458095Y-45724761D01*
X124886667Y-45724761D02*
X124886667Y-43724761D01*
X124886667Y-43724761D02*
X125077143Y-44010476D01*
X125077143Y-44010476D02*
X125267619Y-44200952D01*
X125267619Y-44200952D02*
X125458095Y-44296190D01*
X123458095Y-45724761D02*
X123458095Y-43724761D01*
X122315238Y-45724761D02*
X123172381Y-44581904D01*
X122315238Y-43724761D02*
X123458095Y-44867619D01*
X133000952Y-48964761D02*
X133667619Y-48012380D01*
X134143809Y-48964761D02*
X134143809Y-46964761D01*
X134143809Y-46964761D02*
X133381904Y-46964761D01*
X133381904Y-46964761D02*
X133191428Y-47060000D01*
X133191428Y-47060000D02*
X133096190Y-47155238D01*
X133096190Y-47155238D02*
X133000952Y-47345714D01*
X133000952Y-47345714D02*
X133000952Y-47631428D01*
X133000952Y-47631428D02*
X133096190Y-47821904D01*
X133096190Y-47821904D02*
X133191428Y-47917142D01*
X133191428Y-47917142D02*
X133381904Y-48012380D01*
X133381904Y-48012380D02*
X134143809Y-48012380D01*
X131286666Y-47631428D02*
X131286666Y-48964761D01*
X131762857Y-46869523D02*
X132239047Y-48298095D01*
X132239047Y-48298095D02*
X131000952Y-48298095D01*
X129039047Y-47917142D02*
X127515238Y-47917142D01*
X127515238Y-48488571D02*
X129039047Y-48488571D01*
X124315238Y-48964761D02*
X125458095Y-48964761D01*
X124886667Y-48964761D02*
X124886667Y-46964761D01*
X124886667Y-46964761D02*
X125077143Y-47250476D01*
X125077143Y-47250476D02*
X125267619Y-47440952D01*
X125267619Y-47440952D02*
X125458095Y-47536190D01*
X122505714Y-46964761D02*
X123458095Y-46964761D01*
X123458095Y-46964761D02*
X123553333Y-47917142D01*
X123553333Y-47917142D02*
X123458095Y-47821904D01*
X123458095Y-47821904D02*
X123267619Y-47726666D01*
X123267619Y-47726666D02*
X122791428Y-47726666D01*
X122791428Y-47726666D02*
X122600952Y-47821904D01*
X122600952Y-47821904D02*
X122505714Y-47917142D01*
X122505714Y-47917142D02*
X122410476Y-48107619D01*
X122410476Y-48107619D02*
X122410476Y-48583809D01*
X122410476Y-48583809D02*
X122505714Y-48774285D01*
X122505714Y-48774285D02*
X122600952Y-48869523D01*
X122600952Y-48869523D02*
X122791428Y-48964761D01*
X122791428Y-48964761D02*
X123267619Y-48964761D01*
X123267619Y-48964761D02*
X123458095Y-48869523D01*
X123458095Y-48869523D02*
X123553333Y-48774285D01*
X121172381Y-46964761D02*
X120981904Y-46964761D01*
X120981904Y-46964761D02*
X120791428Y-47060000D01*
X120791428Y-47060000D02*
X120696190Y-47155238D01*
X120696190Y-47155238D02*
X120600952Y-47345714D01*
X120600952Y-47345714D02*
X120505714Y-47726666D01*
X120505714Y-47726666D02*
X120505714Y-48202857D01*
X120505714Y-48202857D02*
X120600952Y-48583809D01*
X120600952Y-48583809D02*
X120696190Y-48774285D01*
X120696190Y-48774285D02*
X120791428Y-48869523D01*
X120791428Y-48869523D02*
X120981904Y-48964761D01*
X120981904Y-48964761D02*
X121172381Y-48964761D01*
X121172381Y-48964761D02*
X121362857Y-48869523D01*
X121362857Y-48869523D02*
X121458095Y-48774285D01*
X121458095Y-48774285D02*
X121553333Y-48583809D01*
X121553333Y-48583809D02*
X121648571Y-48202857D01*
X121648571Y-48202857D02*
X121648571Y-47726666D01*
X121648571Y-47726666D02*
X121553333Y-47345714D01*
X121553333Y-47345714D02*
X121458095Y-47155238D01*
X121458095Y-47155238D02*
X121362857Y-47060000D01*
X121362857Y-47060000D02*
X121172381Y-46964761D01*
X133000952Y-52204761D02*
X133667619Y-51252380D01*
X134143809Y-52204761D02*
X134143809Y-50204761D01*
X134143809Y-50204761D02*
X133381904Y-50204761D01*
X133381904Y-50204761D02*
X133191428Y-50300000D01*
X133191428Y-50300000D02*
X133096190Y-50395238D01*
X133096190Y-50395238D02*
X133000952Y-50585714D01*
X133000952Y-50585714D02*
X133000952Y-50871428D01*
X133000952Y-50871428D02*
X133096190Y-51061904D01*
X133096190Y-51061904D02*
X133191428Y-51157142D01*
X133191428Y-51157142D02*
X133381904Y-51252380D01*
X133381904Y-51252380D02*
X134143809Y-51252380D01*
X131191428Y-50204761D02*
X132143809Y-50204761D01*
X132143809Y-50204761D02*
X132239047Y-51157142D01*
X132239047Y-51157142D02*
X132143809Y-51061904D01*
X132143809Y-51061904D02*
X131953333Y-50966666D01*
X131953333Y-50966666D02*
X131477142Y-50966666D01*
X131477142Y-50966666D02*
X131286666Y-51061904D01*
X131286666Y-51061904D02*
X131191428Y-51157142D01*
X131191428Y-51157142D02*
X131096190Y-51347619D01*
X131096190Y-51347619D02*
X131096190Y-51823809D01*
X131096190Y-51823809D02*
X131191428Y-52014285D01*
X131191428Y-52014285D02*
X131286666Y-52109523D01*
X131286666Y-52109523D02*
X131477142Y-52204761D01*
X131477142Y-52204761D02*
X131953333Y-52204761D01*
X131953333Y-52204761D02*
X132143809Y-52109523D01*
X132143809Y-52109523D02*
X132239047Y-52014285D01*
X129039047Y-51157142D02*
X127515238Y-51157142D01*
X127515238Y-51728571D02*
X129039047Y-51728571D01*
X125458095Y-50395238D02*
X125362857Y-50300000D01*
X125362857Y-50300000D02*
X125172381Y-50204761D01*
X125172381Y-50204761D02*
X124696190Y-50204761D01*
X124696190Y-50204761D02*
X124505714Y-50300000D01*
X124505714Y-50300000D02*
X124410476Y-50395238D01*
X124410476Y-50395238D02*
X124315238Y-50585714D01*
X124315238Y-50585714D02*
X124315238Y-50776190D01*
X124315238Y-50776190D02*
X124410476Y-51061904D01*
X124410476Y-51061904D02*
X125553333Y-52204761D01*
X125553333Y-52204761D02*
X124315238Y-52204761D01*
X123458095Y-52204761D02*
X123458095Y-50204761D01*
X122315238Y-52204761D02*
X123172381Y-51061904D01*
X122315238Y-50204761D02*
X123458095Y-51347619D01*
X133000952Y-55444761D02*
X133667619Y-54492380D01*
X134143809Y-55444761D02*
X134143809Y-53444761D01*
X134143809Y-53444761D02*
X133381904Y-53444761D01*
X133381904Y-53444761D02*
X133191428Y-53540000D01*
X133191428Y-53540000D02*
X133096190Y-53635238D01*
X133096190Y-53635238D02*
X133000952Y-53825714D01*
X133000952Y-53825714D02*
X133000952Y-54111428D01*
X133000952Y-54111428D02*
X133096190Y-54301904D01*
X133096190Y-54301904D02*
X133191428Y-54397142D01*
X133191428Y-54397142D02*
X133381904Y-54492380D01*
X133381904Y-54492380D02*
X134143809Y-54492380D01*
X131286666Y-53444761D02*
X131667619Y-53444761D01*
X131667619Y-53444761D02*
X131858095Y-53540000D01*
X131858095Y-53540000D02*
X131953333Y-53635238D01*
X131953333Y-53635238D02*
X132143809Y-53920952D01*
X132143809Y-53920952D02*
X132239047Y-54301904D01*
X132239047Y-54301904D02*
X132239047Y-55063809D01*
X132239047Y-55063809D02*
X132143809Y-55254285D01*
X132143809Y-55254285D02*
X132048571Y-55349523D01*
X132048571Y-55349523D02*
X131858095Y-55444761D01*
X131858095Y-55444761D02*
X131477142Y-55444761D01*
X131477142Y-55444761D02*
X131286666Y-55349523D01*
X131286666Y-55349523D02*
X131191428Y-55254285D01*
X131191428Y-55254285D02*
X131096190Y-55063809D01*
X131096190Y-55063809D02*
X131096190Y-54587619D01*
X131096190Y-54587619D02*
X131191428Y-54397142D01*
X131191428Y-54397142D02*
X131286666Y-54301904D01*
X131286666Y-54301904D02*
X131477142Y-54206666D01*
X131477142Y-54206666D02*
X131858095Y-54206666D01*
X131858095Y-54206666D02*
X132048571Y-54301904D01*
X132048571Y-54301904D02*
X132143809Y-54397142D01*
X132143809Y-54397142D02*
X132239047Y-54587619D01*
X129039047Y-54397142D02*
X127515238Y-54397142D01*
X127515238Y-54968571D02*
X129039047Y-54968571D01*
X125553333Y-53444761D02*
X124220000Y-53444761D01*
X124220000Y-53444761D02*
X125077143Y-55444761D01*
X123458095Y-55254285D02*
X123362857Y-55349523D01*
X123362857Y-55349523D02*
X123458095Y-55444761D01*
X123458095Y-55444761D02*
X123553333Y-55349523D01*
X123553333Y-55349523D02*
X123458095Y-55254285D01*
X123458095Y-55254285D02*
X123458095Y-55444761D01*
X121553333Y-53444761D02*
X122505714Y-53444761D01*
X122505714Y-53444761D02*
X122600952Y-54397142D01*
X122600952Y-54397142D02*
X122505714Y-54301904D01*
X122505714Y-54301904D02*
X122315238Y-54206666D01*
X122315238Y-54206666D02*
X121839047Y-54206666D01*
X121839047Y-54206666D02*
X121648571Y-54301904D01*
X121648571Y-54301904D02*
X121553333Y-54397142D01*
X121553333Y-54397142D02*
X121458095Y-54587619D01*
X121458095Y-54587619D02*
X121458095Y-55063809D01*
X121458095Y-55063809D02*
X121553333Y-55254285D01*
X121553333Y-55254285D02*
X121648571Y-55349523D01*
X121648571Y-55349523D02*
X121839047Y-55444761D01*
X121839047Y-55444761D02*
X122315238Y-55444761D01*
X122315238Y-55444761D02*
X122505714Y-55349523D01*
X122505714Y-55349523D02*
X122600952Y-55254285D01*
X120600952Y-55444761D02*
X120600952Y-53444761D01*
X119458095Y-55444761D02*
X120315238Y-54301904D01*
X119458095Y-53444761D02*
X120600952Y-54587619D01*
X114014285Y-34004761D02*
X112776190Y-34004761D01*
X112776190Y-34004761D02*
X113442857Y-34766666D01*
X113442857Y-34766666D02*
X113157142Y-34766666D01*
X113157142Y-34766666D02*
X112966666Y-34861904D01*
X112966666Y-34861904D02*
X112871428Y-34957142D01*
X112871428Y-34957142D02*
X112776190Y-35147619D01*
X112776190Y-35147619D02*
X112776190Y-35623809D01*
X112776190Y-35623809D02*
X112871428Y-35814285D01*
X112871428Y-35814285D02*
X112966666Y-35909523D01*
X112966666Y-35909523D02*
X113157142Y-36004761D01*
X113157142Y-36004761D02*
X113728571Y-36004761D01*
X113728571Y-36004761D02*
X113919047Y-35909523D01*
X113919047Y-35909523D02*
X114014285Y-35814285D01*
X111919047Y-35814285D02*
X111823809Y-35909523D01*
X111823809Y-35909523D02*
X111919047Y-36004761D01*
X111919047Y-36004761D02*
X112014285Y-35909523D01*
X112014285Y-35909523D02*
X111919047Y-35814285D01*
X111919047Y-35814285D02*
X111919047Y-36004761D01*
X111157142Y-34004761D02*
X109919047Y-34004761D01*
X109919047Y-34004761D02*
X110585714Y-34766666D01*
X110585714Y-34766666D02*
X110299999Y-34766666D01*
X110299999Y-34766666D02*
X110109523Y-34861904D01*
X110109523Y-34861904D02*
X110014285Y-34957142D01*
X110014285Y-34957142D02*
X109919047Y-35147619D01*
X109919047Y-35147619D02*
X109919047Y-35623809D01*
X109919047Y-35623809D02*
X110014285Y-35814285D01*
X110014285Y-35814285D02*
X110109523Y-35909523D01*
X110109523Y-35909523D02*
X110299999Y-36004761D01*
X110299999Y-36004761D02*
X110871428Y-36004761D01*
X110871428Y-36004761D02*
X111061904Y-35909523D01*
X111061904Y-35909523D02*
X111157142Y-35814285D01*
X109347618Y-34004761D02*
X108680952Y-36004761D01*
X108680952Y-36004761D02*
X108014285Y-34004761D01*
X112680952Y-39244761D02*
X113347619Y-38292380D01*
X113823809Y-39244761D02*
X113823809Y-37244761D01*
X113823809Y-37244761D02*
X113061904Y-37244761D01*
X113061904Y-37244761D02*
X112871428Y-37340000D01*
X112871428Y-37340000D02*
X112776190Y-37435238D01*
X112776190Y-37435238D02*
X112680952Y-37625714D01*
X112680952Y-37625714D02*
X112680952Y-37911428D01*
X112680952Y-37911428D02*
X112776190Y-38101904D01*
X112776190Y-38101904D02*
X112871428Y-38197142D01*
X112871428Y-38197142D02*
X113061904Y-38292380D01*
X113061904Y-38292380D02*
X113823809Y-38292380D01*
X110776190Y-39244761D02*
X111919047Y-39244761D01*
X111347619Y-39244761D02*
X111347619Y-37244761D01*
X111347619Y-37244761D02*
X111538095Y-37530476D01*
X111538095Y-37530476D02*
X111728571Y-37720952D01*
X111728571Y-37720952D02*
X111919047Y-37816190D01*
X108719047Y-38197142D02*
X107195238Y-38197142D01*
X107195238Y-38768571D02*
X108719047Y-38768571D01*
X103995238Y-39244761D02*
X105138095Y-39244761D01*
X104566667Y-39244761D02*
X104566667Y-37244761D01*
X104566667Y-37244761D02*
X104757143Y-37530476D01*
X104757143Y-37530476D02*
X104947619Y-37720952D01*
X104947619Y-37720952D02*
X105138095Y-37816190D01*
X103138095Y-39244761D02*
X103138095Y-37244761D01*
X101995238Y-39244761D02*
X102852381Y-38101904D01*
X101995238Y-37244761D02*
X103138095Y-38387619D01*
X112680952Y-42484761D02*
X113347619Y-41532380D01*
X113823809Y-42484761D02*
X113823809Y-40484761D01*
X113823809Y-40484761D02*
X113061904Y-40484761D01*
X113061904Y-40484761D02*
X112871428Y-40580000D01*
X112871428Y-40580000D02*
X112776190Y-40675238D01*
X112776190Y-40675238D02*
X112680952Y-40865714D01*
X112680952Y-40865714D02*
X112680952Y-41151428D01*
X112680952Y-41151428D02*
X112776190Y-41341904D01*
X112776190Y-41341904D02*
X112871428Y-41437142D01*
X112871428Y-41437142D02*
X113061904Y-41532380D01*
X113061904Y-41532380D02*
X113823809Y-41532380D01*
X111919047Y-40675238D02*
X111823809Y-40580000D01*
X111823809Y-40580000D02*
X111633333Y-40484761D01*
X111633333Y-40484761D02*
X111157142Y-40484761D01*
X111157142Y-40484761D02*
X110966666Y-40580000D01*
X110966666Y-40580000D02*
X110871428Y-40675238D01*
X110871428Y-40675238D02*
X110776190Y-40865714D01*
X110776190Y-40865714D02*
X110776190Y-41056190D01*
X110776190Y-41056190D02*
X110871428Y-41341904D01*
X110871428Y-41341904D02*
X112014285Y-42484761D01*
X112014285Y-42484761D02*
X110776190Y-42484761D01*
X108719047Y-41437142D02*
X107195238Y-41437142D01*
X107195238Y-42008571D02*
X108719047Y-42008571D01*
X103995238Y-42484761D02*
X105138095Y-42484761D01*
X104566667Y-42484761D02*
X104566667Y-40484761D01*
X104566667Y-40484761D02*
X104757143Y-40770476D01*
X104757143Y-40770476D02*
X104947619Y-40960952D01*
X104947619Y-40960952D02*
X105138095Y-41056190D01*
X103138095Y-42484761D02*
X103138095Y-40484761D01*
X101995238Y-42484761D02*
X102852381Y-41341904D01*
X101995238Y-40484761D02*
X103138095Y-41627619D01*
X112680952Y-45724761D02*
X113347619Y-44772380D01*
X113823809Y-45724761D02*
X113823809Y-43724761D01*
X113823809Y-43724761D02*
X113061904Y-43724761D01*
X113061904Y-43724761D02*
X112871428Y-43820000D01*
X112871428Y-43820000D02*
X112776190Y-43915238D01*
X112776190Y-43915238D02*
X112680952Y-44105714D01*
X112680952Y-44105714D02*
X112680952Y-44391428D01*
X112680952Y-44391428D02*
X112776190Y-44581904D01*
X112776190Y-44581904D02*
X112871428Y-44677142D01*
X112871428Y-44677142D02*
X113061904Y-44772380D01*
X113061904Y-44772380D02*
X113823809Y-44772380D01*
X112014285Y-43724761D02*
X110776190Y-43724761D01*
X110776190Y-43724761D02*
X111442857Y-44486666D01*
X111442857Y-44486666D02*
X111157142Y-44486666D01*
X111157142Y-44486666D02*
X110966666Y-44581904D01*
X110966666Y-44581904D02*
X110871428Y-44677142D01*
X110871428Y-44677142D02*
X110776190Y-44867619D01*
X110776190Y-44867619D02*
X110776190Y-45343809D01*
X110776190Y-45343809D02*
X110871428Y-45534285D01*
X110871428Y-45534285D02*
X110966666Y-45629523D01*
X110966666Y-45629523D02*
X111157142Y-45724761D01*
X111157142Y-45724761D02*
X111728571Y-45724761D01*
X111728571Y-45724761D02*
X111919047Y-45629523D01*
X111919047Y-45629523D02*
X112014285Y-45534285D01*
X108719047Y-44677142D02*
X107195238Y-44677142D01*
X107195238Y-45248571D02*
X108719047Y-45248571D01*
X103995238Y-45724761D02*
X105138095Y-45724761D01*
X104566667Y-45724761D02*
X104566667Y-43724761D01*
X104566667Y-43724761D02*
X104757143Y-44010476D01*
X104757143Y-44010476D02*
X104947619Y-44200952D01*
X104947619Y-44200952D02*
X105138095Y-44296190D01*
X103138095Y-45724761D02*
X103138095Y-43724761D01*
X101995238Y-45724761D02*
X102852381Y-44581904D01*
X101995238Y-43724761D02*
X103138095Y-44867619D01*
X112680952Y-48964761D02*
X113347619Y-48012380D01*
X113823809Y-48964761D02*
X113823809Y-46964761D01*
X113823809Y-46964761D02*
X113061904Y-46964761D01*
X113061904Y-46964761D02*
X112871428Y-47060000D01*
X112871428Y-47060000D02*
X112776190Y-47155238D01*
X112776190Y-47155238D02*
X112680952Y-47345714D01*
X112680952Y-47345714D02*
X112680952Y-47631428D01*
X112680952Y-47631428D02*
X112776190Y-47821904D01*
X112776190Y-47821904D02*
X112871428Y-47917142D01*
X112871428Y-47917142D02*
X113061904Y-48012380D01*
X113061904Y-48012380D02*
X113823809Y-48012380D01*
X110966666Y-47631428D02*
X110966666Y-48964761D01*
X111442857Y-46869523D02*
X111919047Y-48298095D01*
X111919047Y-48298095D02*
X110680952Y-48298095D01*
X108719047Y-47917142D02*
X107195238Y-47917142D01*
X107195238Y-48488571D02*
X108719047Y-48488571D01*
X105138095Y-47155238D02*
X105042857Y-47060000D01*
X105042857Y-47060000D02*
X104852381Y-46964761D01*
X104852381Y-46964761D02*
X104376190Y-46964761D01*
X104376190Y-46964761D02*
X104185714Y-47060000D01*
X104185714Y-47060000D02*
X104090476Y-47155238D01*
X104090476Y-47155238D02*
X103995238Y-47345714D01*
X103995238Y-47345714D02*
X103995238Y-47536190D01*
X103995238Y-47536190D02*
X104090476Y-47821904D01*
X104090476Y-47821904D02*
X105233333Y-48964761D01*
X105233333Y-48964761D02*
X103995238Y-48964761D01*
X103233333Y-47155238D02*
X103138095Y-47060000D01*
X103138095Y-47060000D02*
X102947619Y-46964761D01*
X102947619Y-46964761D02*
X102471428Y-46964761D01*
X102471428Y-46964761D02*
X102280952Y-47060000D01*
X102280952Y-47060000D02*
X102185714Y-47155238D01*
X102185714Y-47155238D02*
X102090476Y-47345714D01*
X102090476Y-47345714D02*
X102090476Y-47536190D01*
X102090476Y-47536190D02*
X102185714Y-47821904D01*
X102185714Y-47821904D02*
X103328571Y-48964761D01*
X103328571Y-48964761D02*
X102090476Y-48964761D01*
X100852381Y-46964761D02*
X100661904Y-46964761D01*
X100661904Y-46964761D02*
X100471428Y-47060000D01*
X100471428Y-47060000D02*
X100376190Y-47155238D01*
X100376190Y-47155238D02*
X100280952Y-47345714D01*
X100280952Y-47345714D02*
X100185714Y-47726666D01*
X100185714Y-47726666D02*
X100185714Y-48202857D01*
X100185714Y-48202857D02*
X100280952Y-48583809D01*
X100280952Y-48583809D02*
X100376190Y-48774285D01*
X100376190Y-48774285D02*
X100471428Y-48869523D01*
X100471428Y-48869523D02*
X100661904Y-48964761D01*
X100661904Y-48964761D02*
X100852381Y-48964761D01*
X100852381Y-48964761D02*
X101042857Y-48869523D01*
X101042857Y-48869523D02*
X101138095Y-48774285D01*
X101138095Y-48774285D02*
X101233333Y-48583809D01*
X101233333Y-48583809D02*
X101328571Y-48202857D01*
X101328571Y-48202857D02*
X101328571Y-47726666D01*
X101328571Y-47726666D02*
X101233333Y-47345714D01*
X101233333Y-47345714D02*
X101138095Y-47155238D01*
X101138095Y-47155238D02*
X101042857Y-47060000D01*
X101042857Y-47060000D02*
X100852381Y-46964761D01*
X112680952Y-52204761D02*
X113347619Y-51252380D01*
X113823809Y-52204761D02*
X113823809Y-50204761D01*
X113823809Y-50204761D02*
X113061904Y-50204761D01*
X113061904Y-50204761D02*
X112871428Y-50300000D01*
X112871428Y-50300000D02*
X112776190Y-50395238D01*
X112776190Y-50395238D02*
X112680952Y-50585714D01*
X112680952Y-50585714D02*
X112680952Y-50871428D01*
X112680952Y-50871428D02*
X112776190Y-51061904D01*
X112776190Y-51061904D02*
X112871428Y-51157142D01*
X112871428Y-51157142D02*
X113061904Y-51252380D01*
X113061904Y-51252380D02*
X113823809Y-51252380D01*
X110871428Y-50204761D02*
X111823809Y-50204761D01*
X111823809Y-50204761D02*
X111919047Y-51157142D01*
X111919047Y-51157142D02*
X111823809Y-51061904D01*
X111823809Y-51061904D02*
X111633333Y-50966666D01*
X111633333Y-50966666D02*
X111157142Y-50966666D01*
X111157142Y-50966666D02*
X110966666Y-51061904D01*
X110966666Y-51061904D02*
X110871428Y-51157142D01*
X110871428Y-51157142D02*
X110776190Y-51347619D01*
X110776190Y-51347619D02*
X110776190Y-51823809D01*
X110776190Y-51823809D02*
X110871428Y-52014285D01*
X110871428Y-52014285D02*
X110966666Y-52109523D01*
X110966666Y-52109523D02*
X111157142Y-52204761D01*
X111157142Y-52204761D02*
X111633333Y-52204761D01*
X111633333Y-52204761D02*
X111823809Y-52109523D01*
X111823809Y-52109523D02*
X111919047Y-52014285D01*
X108719047Y-51157142D02*
X107195238Y-51157142D01*
X107195238Y-51728571D02*
X108719047Y-51728571D01*
X103995238Y-52204761D02*
X105138095Y-52204761D01*
X104566667Y-52204761D02*
X104566667Y-50204761D01*
X104566667Y-50204761D02*
X104757143Y-50490476D01*
X104757143Y-50490476D02*
X104947619Y-50680952D01*
X104947619Y-50680952D02*
X105138095Y-50776190D01*
X103138095Y-52204761D02*
X103138095Y-50204761D01*
X101995238Y-52204761D02*
X102852381Y-51061904D01*
X101995238Y-50204761D02*
X103138095Y-51347619D01*
X112680952Y-55444761D02*
X113347619Y-54492380D01*
X113823809Y-55444761D02*
X113823809Y-53444761D01*
X113823809Y-53444761D02*
X113061904Y-53444761D01*
X113061904Y-53444761D02*
X112871428Y-53540000D01*
X112871428Y-53540000D02*
X112776190Y-53635238D01*
X112776190Y-53635238D02*
X112680952Y-53825714D01*
X112680952Y-53825714D02*
X112680952Y-54111428D01*
X112680952Y-54111428D02*
X112776190Y-54301904D01*
X112776190Y-54301904D02*
X112871428Y-54397142D01*
X112871428Y-54397142D02*
X113061904Y-54492380D01*
X113061904Y-54492380D02*
X113823809Y-54492380D01*
X110966666Y-53444761D02*
X111347619Y-53444761D01*
X111347619Y-53444761D02*
X111538095Y-53540000D01*
X111538095Y-53540000D02*
X111633333Y-53635238D01*
X111633333Y-53635238D02*
X111823809Y-53920952D01*
X111823809Y-53920952D02*
X111919047Y-54301904D01*
X111919047Y-54301904D02*
X111919047Y-55063809D01*
X111919047Y-55063809D02*
X111823809Y-55254285D01*
X111823809Y-55254285D02*
X111728571Y-55349523D01*
X111728571Y-55349523D02*
X111538095Y-55444761D01*
X111538095Y-55444761D02*
X111157142Y-55444761D01*
X111157142Y-55444761D02*
X110966666Y-55349523D01*
X110966666Y-55349523D02*
X110871428Y-55254285D01*
X110871428Y-55254285D02*
X110776190Y-55063809D01*
X110776190Y-55063809D02*
X110776190Y-54587619D01*
X110776190Y-54587619D02*
X110871428Y-54397142D01*
X110871428Y-54397142D02*
X110966666Y-54301904D01*
X110966666Y-54301904D02*
X111157142Y-54206666D01*
X111157142Y-54206666D02*
X111538095Y-54206666D01*
X111538095Y-54206666D02*
X111728571Y-54301904D01*
X111728571Y-54301904D02*
X111823809Y-54397142D01*
X111823809Y-54397142D02*
X111919047Y-54587619D01*
X108719047Y-54397142D02*
X107195238Y-54397142D01*
X107195238Y-54968571D02*
X108719047Y-54968571D01*
X105138095Y-53635238D02*
X105042857Y-53540000D01*
X105042857Y-53540000D02*
X104852381Y-53444761D01*
X104852381Y-53444761D02*
X104376190Y-53444761D01*
X104376190Y-53444761D02*
X104185714Y-53540000D01*
X104185714Y-53540000D02*
X104090476Y-53635238D01*
X104090476Y-53635238D02*
X103995238Y-53825714D01*
X103995238Y-53825714D02*
X103995238Y-54016190D01*
X103995238Y-54016190D02*
X104090476Y-54301904D01*
X104090476Y-54301904D02*
X105233333Y-55444761D01*
X105233333Y-55444761D02*
X103995238Y-55444761D01*
X103138095Y-55254285D02*
X103042857Y-55349523D01*
X103042857Y-55349523D02*
X103138095Y-55444761D01*
X103138095Y-55444761D02*
X103233333Y-55349523D01*
X103233333Y-55349523D02*
X103138095Y-55254285D01*
X103138095Y-55254285D02*
X103138095Y-55444761D01*
X102280952Y-53635238D02*
X102185714Y-53540000D01*
X102185714Y-53540000D02*
X101995238Y-53444761D01*
X101995238Y-53444761D02*
X101519047Y-53444761D01*
X101519047Y-53444761D02*
X101328571Y-53540000D01*
X101328571Y-53540000D02*
X101233333Y-53635238D01*
X101233333Y-53635238D02*
X101138095Y-53825714D01*
X101138095Y-53825714D02*
X101138095Y-54016190D01*
X101138095Y-54016190D02*
X101233333Y-54301904D01*
X101233333Y-54301904D02*
X102376190Y-55444761D01*
X102376190Y-55444761D02*
X101138095Y-55444761D01*
X100280952Y-55444761D02*
X100280952Y-53444761D01*
X99138095Y-55444761D02*
X99995238Y-54301904D01*
X99138095Y-53444761D02*
X100280952Y-54587619D01*
M02*
