%TF.GenerationSoftware,KiCad,Pcbnew,(7.0.0)*%
%TF.CreationDate,2023-08-10T15:30:16+02:00*%
%TF.ProjectId,JIG_MULTI,4a49475f-4d55-44c5-9449-2e6b69636164,rev?*%
%TF.SameCoordinates,Original*%
%TF.FileFunction,Soldermask,Top*%
%TF.FilePolarity,Negative*%
%FSLAX46Y46*%
G04 Gerber Fmt 4.6, Leading zero omitted, Abs format (unit mm)*
G04 Created by KiCad (PCBNEW (7.0.0)) date 2023-08-10 15:30:16*
%MOMM*%
%LPD*%
G01*
G04 APERTURE LIST*
%ADD10C,2.000000*%
%ADD11C,1.524000*%
%ADD12C,1.600000*%
%ADD13O,1.600000X1.600000*%
%ADD14R,0.200000X1.800000*%
%ADD15O,1.000000X2.000000*%
G04 APERTURE END LIST*
D10*
%TO.C,UDC7/D-*%
X71120000Y-60960000D03*
%TD*%
D11*
%TO.C,U3*%
X69850000Y-88900000D03*
X72390000Y-88900000D03*
X74930000Y-88900000D03*
X77470000Y-88900000D03*
X80010000Y-88900000D03*
X82550000Y-88900000D03*
X85090000Y-88900000D03*
X87630000Y-88900000D03*
X90170000Y-88900000D03*
X92710000Y-88900000D03*
X95250000Y-88900000D03*
X97790000Y-88900000D03*
%TD*%
D12*
%TO.C,R3*%
X60960000Y-40640000D03*
D13*
X73659999Y-40639999D03*
%TD*%
D10*
%TO.C,UDC 12*%
X93980000Y-60960000D03*
%TD*%
%TO.C,*%
X38100000Y-103637944D03*
%TD*%
%TO.C,UDC 11*%
X86360000Y-60960000D03*
%TD*%
D12*
%TO.C,R5*%
X58420000Y-99060000D03*
D13*
X71119999Y-99059999D03*
%TD*%
D10*
%TO.C,UDC6/D+*%
X78740000Y-60960000D03*
%TD*%
%TO.C,ID*%
X109220000Y-60960000D03*
%TD*%
%TO.C,UDC 3/GND*%
X101600000Y-60960000D03*
%TD*%
D12*
%TO.C,R4*%
X71120000Y-50800000D03*
D13*
X83819999Y-50799999D03*
%TD*%
D12*
%TO.C,R2*%
X43180000Y-45720000D03*
D13*
X55879999Y-45719999D03*
%TD*%
D12*
%TO.C,R1*%
X43180000Y-40640000D03*
D13*
X55879999Y-40639999D03*
%TD*%
D11*
%TO.C,U2*%
X69850000Y-73660000D03*
X72390000Y-73660000D03*
X74930000Y-73660000D03*
X77470000Y-73660000D03*
X80010000Y-73660000D03*
X82550000Y-73660000D03*
X85090000Y-73660000D03*
X87630000Y-73660000D03*
X90170000Y-73660000D03*
X92710000Y-73660000D03*
X95250000Y-73660000D03*
X97790000Y-73660000D03*
%TD*%
D14*
%TO.C,U1*%
X80247999Y-79355999D03*
X80647999Y-79355999D03*
X81047999Y-79355999D03*
X81447999Y-79355999D03*
X81847999Y-79355999D03*
X82247999Y-79355999D03*
X82647999Y-79355999D03*
X83047999Y-79355999D03*
X83447999Y-79355999D03*
X83847999Y-79355999D03*
X84247999Y-79355999D03*
X84647999Y-79355999D03*
X85047999Y-79355999D03*
X85447999Y-79355999D03*
X85847999Y-79355999D03*
X86247999Y-79355999D03*
X86647999Y-79355999D03*
X87047999Y-79355999D03*
X87447999Y-79355999D03*
X87847999Y-79355999D03*
X88247999Y-79355999D03*
X80447999Y-83355999D03*
X88447999Y-83355999D03*
D15*
X79247999Y-79755999D03*
X79247999Y-82855999D03*
X78247999Y-81355999D03*
X89747999Y-82855999D03*
X89747999Y-79755999D03*
X90747999Y-81255999D03*
%TD*%
D10*
%TO.C,*%
X38100000Y-73660000D03*
%TD*%
%TO.C,*%
X38100000Y-93980000D03*
%TD*%
D12*
%TO.C,R6*%
X78740000Y-99060000D03*
D13*
X91439999Y-99059999D03*
%TD*%
D10*
%TO.C,*%
X38100000Y-83820000D03*
%TD*%
M02*
