%TF.GenerationSoftware,KiCad,Pcbnew,(7.0.0)*%
%TF.CreationDate,2023-08-10T15:45:04+02:00*%
%TF.ProjectId,JIG_MULTI,4a49475f-4d55-44c5-9449-2e6b69636164,rev?*%
%TF.SameCoordinates,Original*%
%TF.FileFunction,Legend,Bot*%
%TF.FilePolarity,Positive*%
%FSLAX46Y46*%
G04 Gerber Fmt 4.6, Leading zero omitted, Abs format (unit mm)*
G04 Created by KiCad (PCBNEW (7.0.0)) date 2023-08-10 15:45:04*
%MOMM*%
%LPD*%
G01*
G04 APERTURE LIST*
%ADD10C,0.400000*%
%ADD11C,0.200000*%
%ADD12C,0.100000*%
G04 APERTURE END LIST*
D10*
X106394285Y-49564761D02*
X105156190Y-49564761D01*
X105156190Y-49564761D02*
X105822857Y-50326666D01*
X105822857Y-50326666D02*
X105537142Y-50326666D01*
X105537142Y-50326666D02*
X105346666Y-50421904D01*
X105346666Y-50421904D02*
X105251428Y-50517142D01*
X105251428Y-50517142D02*
X105156190Y-50707619D01*
X105156190Y-50707619D02*
X105156190Y-51183809D01*
X105156190Y-51183809D02*
X105251428Y-51374285D01*
X105251428Y-51374285D02*
X105346666Y-51469523D01*
X105346666Y-51469523D02*
X105537142Y-51564761D01*
X105537142Y-51564761D02*
X106108571Y-51564761D01*
X106108571Y-51564761D02*
X106299047Y-51469523D01*
X106299047Y-51469523D02*
X106394285Y-51374285D01*
X104299047Y-51374285D02*
X104203809Y-51469523D01*
X104203809Y-51469523D02*
X104299047Y-51564761D01*
X104299047Y-51564761D02*
X104394285Y-51469523D01*
X104394285Y-51469523D02*
X104299047Y-51374285D01*
X104299047Y-51374285D02*
X104299047Y-51564761D01*
X103537142Y-49564761D02*
X102299047Y-49564761D01*
X102299047Y-49564761D02*
X102965714Y-50326666D01*
X102965714Y-50326666D02*
X102679999Y-50326666D01*
X102679999Y-50326666D02*
X102489523Y-50421904D01*
X102489523Y-50421904D02*
X102394285Y-50517142D01*
X102394285Y-50517142D02*
X102299047Y-50707619D01*
X102299047Y-50707619D02*
X102299047Y-51183809D01*
X102299047Y-51183809D02*
X102394285Y-51374285D01*
X102394285Y-51374285D02*
X102489523Y-51469523D01*
X102489523Y-51469523D02*
X102679999Y-51564761D01*
X102679999Y-51564761D02*
X103251428Y-51564761D01*
X103251428Y-51564761D02*
X103441904Y-51469523D01*
X103441904Y-51469523D02*
X103537142Y-51374285D01*
X101727618Y-49564761D02*
X101060952Y-51564761D01*
X101060952Y-51564761D02*
X100394285Y-49564761D01*
X105251428Y-75064761D02*
X106203809Y-75064761D01*
X106203809Y-75064761D02*
X106299047Y-76017142D01*
X106299047Y-76017142D02*
X106203809Y-75921904D01*
X106203809Y-75921904D02*
X106013333Y-75826666D01*
X106013333Y-75826666D02*
X105537142Y-75826666D01*
X105537142Y-75826666D02*
X105346666Y-75921904D01*
X105346666Y-75921904D02*
X105251428Y-76017142D01*
X105251428Y-76017142D02*
X105156190Y-76207619D01*
X105156190Y-76207619D02*
X105156190Y-76683809D01*
X105156190Y-76683809D02*
X105251428Y-76874285D01*
X105251428Y-76874285D02*
X105346666Y-76969523D01*
X105346666Y-76969523D02*
X105537142Y-77064761D01*
X105537142Y-77064761D02*
X106013333Y-77064761D01*
X106013333Y-77064761D02*
X106203809Y-76969523D01*
X106203809Y-76969523D02*
X106299047Y-76874285D01*
X104584761Y-75064761D02*
X103918095Y-77064761D01*
X103918095Y-77064761D02*
X103251428Y-75064761D01*
D11*
X91440000Y-48260000D02*
X106680000Y-48260000D01*
X106680000Y-48260000D02*
X106680000Y-71120000D01*
X106680000Y-71120000D02*
X91440000Y-71120000D01*
X91440000Y-71120000D02*
X91440000Y-48260000D01*
X91440000Y-73660000D02*
X106680000Y-73660000D01*
X106680000Y-73660000D02*
X106680000Y-96520000D01*
X106680000Y-96520000D02*
X91440000Y-96520000D01*
X91440000Y-96520000D02*
X91440000Y-73660000D01*
D12*
X105060952Y-79884761D02*
X105727619Y-78932380D01*
X106203809Y-79884761D02*
X106203809Y-77884761D01*
X106203809Y-77884761D02*
X105441904Y-77884761D01*
X105441904Y-77884761D02*
X105251428Y-77980000D01*
X105251428Y-77980000D02*
X105156190Y-78075238D01*
X105156190Y-78075238D02*
X105060952Y-78265714D01*
X105060952Y-78265714D02*
X105060952Y-78551428D01*
X105060952Y-78551428D02*
X105156190Y-78741904D01*
X105156190Y-78741904D02*
X105251428Y-78837142D01*
X105251428Y-78837142D02*
X105441904Y-78932380D01*
X105441904Y-78932380D02*
X106203809Y-78932380D01*
X103156190Y-79884761D02*
X104299047Y-79884761D01*
X103727619Y-79884761D02*
X103727619Y-77884761D01*
X103727619Y-77884761D02*
X103918095Y-78170476D01*
X103918095Y-78170476D02*
X104108571Y-78360952D01*
X104108571Y-78360952D02*
X104299047Y-78456190D01*
X101099047Y-78837142D02*
X99575238Y-78837142D01*
X99575238Y-79408571D02*
X101099047Y-79408571D01*
X96375238Y-79884761D02*
X97518095Y-79884761D01*
X96946667Y-79884761D02*
X96946667Y-77884761D01*
X96946667Y-77884761D02*
X97137143Y-78170476D01*
X97137143Y-78170476D02*
X97327619Y-78360952D01*
X97327619Y-78360952D02*
X97518095Y-78456190D01*
X95518095Y-79884761D02*
X95518095Y-77884761D01*
X94375238Y-79884761D02*
X95232381Y-78741904D01*
X94375238Y-77884761D02*
X95518095Y-79027619D01*
X105060952Y-83124761D02*
X105727619Y-82172380D01*
X106203809Y-83124761D02*
X106203809Y-81124761D01*
X106203809Y-81124761D02*
X105441904Y-81124761D01*
X105441904Y-81124761D02*
X105251428Y-81220000D01*
X105251428Y-81220000D02*
X105156190Y-81315238D01*
X105156190Y-81315238D02*
X105060952Y-81505714D01*
X105060952Y-81505714D02*
X105060952Y-81791428D01*
X105060952Y-81791428D02*
X105156190Y-81981904D01*
X105156190Y-81981904D02*
X105251428Y-82077142D01*
X105251428Y-82077142D02*
X105441904Y-82172380D01*
X105441904Y-82172380D02*
X106203809Y-82172380D01*
X104299047Y-81315238D02*
X104203809Y-81220000D01*
X104203809Y-81220000D02*
X104013333Y-81124761D01*
X104013333Y-81124761D02*
X103537142Y-81124761D01*
X103537142Y-81124761D02*
X103346666Y-81220000D01*
X103346666Y-81220000D02*
X103251428Y-81315238D01*
X103251428Y-81315238D02*
X103156190Y-81505714D01*
X103156190Y-81505714D02*
X103156190Y-81696190D01*
X103156190Y-81696190D02*
X103251428Y-81981904D01*
X103251428Y-81981904D02*
X104394285Y-83124761D01*
X104394285Y-83124761D02*
X103156190Y-83124761D01*
X101099047Y-82077142D02*
X99575238Y-82077142D01*
X99575238Y-82648571D02*
X101099047Y-82648571D01*
X96375238Y-83124761D02*
X97518095Y-83124761D01*
X96946667Y-83124761D02*
X96946667Y-81124761D01*
X96946667Y-81124761D02*
X97137143Y-81410476D01*
X97137143Y-81410476D02*
X97327619Y-81600952D01*
X97327619Y-81600952D02*
X97518095Y-81696190D01*
X95518095Y-83124761D02*
X95518095Y-81124761D01*
X94375238Y-83124761D02*
X95232381Y-81981904D01*
X94375238Y-81124761D02*
X95518095Y-82267619D01*
X105060952Y-86364761D02*
X105727619Y-85412380D01*
X106203809Y-86364761D02*
X106203809Y-84364761D01*
X106203809Y-84364761D02*
X105441904Y-84364761D01*
X105441904Y-84364761D02*
X105251428Y-84460000D01*
X105251428Y-84460000D02*
X105156190Y-84555238D01*
X105156190Y-84555238D02*
X105060952Y-84745714D01*
X105060952Y-84745714D02*
X105060952Y-85031428D01*
X105060952Y-85031428D02*
X105156190Y-85221904D01*
X105156190Y-85221904D02*
X105251428Y-85317142D01*
X105251428Y-85317142D02*
X105441904Y-85412380D01*
X105441904Y-85412380D02*
X106203809Y-85412380D01*
X104394285Y-84364761D02*
X103156190Y-84364761D01*
X103156190Y-84364761D02*
X103822857Y-85126666D01*
X103822857Y-85126666D02*
X103537142Y-85126666D01*
X103537142Y-85126666D02*
X103346666Y-85221904D01*
X103346666Y-85221904D02*
X103251428Y-85317142D01*
X103251428Y-85317142D02*
X103156190Y-85507619D01*
X103156190Y-85507619D02*
X103156190Y-85983809D01*
X103156190Y-85983809D02*
X103251428Y-86174285D01*
X103251428Y-86174285D02*
X103346666Y-86269523D01*
X103346666Y-86269523D02*
X103537142Y-86364761D01*
X103537142Y-86364761D02*
X104108571Y-86364761D01*
X104108571Y-86364761D02*
X104299047Y-86269523D01*
X104299047Y-86269523D02*
X104394285Y-86174285D01*
X101099047Y-85317142D02*
X99575238Y-85317142D01*
X99575238Y-85888571D02*
X101099047Y-85888571D01*
X96375238Y-86364761D02*
X97518095Y-86364761D01*
X96946667Y-86364761D02*
X96946667Y-84364761D01*
X96946667Y-84364761D02*
X97137143Y-84650476D01*
X97137143Y-84650476D02*
X97327619Y-84840952D01*
X97327619Y-84840952D02*
X97518095Y-84936190D01*
X95518095Y-86364761D02*
X95518095Y-84364761D01*
X94375238Y-86364761D02*
X95232381Y-85221904D01*
X94375238Y-84364761D02*
X95518095Y-85507619D01*
X105060952Y-89604761D02*
X105727619Y-88652380D01*
X106203809Y-89604761D02*
X106203809Y-87604761D01*
X106203809Y-87604761D02*
X105441904Y-87604761D01*
X105441904Y-87604761D02*
X105251428Y-87700000D01*
X105251428Y-87700000D02*
X105156190Y-87795238D01*
X105156190Y-87795238D02*
X105060952Y-87985714D01*
X105060952Y-87985714D02*
X105060952Y-88271428D01*
X105060952Y-88271428D02*
X105156190Y-88461904D01*
X105156190Y-88461904D02*
X105251428Y-88557142D01*
X105251428Y-88557142D02*
X105441904Y-88652380D01*
X105441904Y-88652380D02*
X106203809Y-88652380D01*
X103346666Y-88271428D02*
X103346666Y-89604761D01*
X103822857Y-87509523D02*
X104299047Y-88938095D01*
X104299047Y-88938095D02*
X103060952Y-88938095D01*
X101099047Y-88557142D02*
X99575238Y-88557142D01*
X99575238Y-89128571D02*
X101099047Y-89128571D01*
X96375238Y-89604761D02*
X97518095Y-89604761D01*
X96946667Y-89604761D02*
X96946667Y-87604761D01*
X96946667Y-87604761D02*
X97137143Y-87890476D01*
X97137143Y-87890476D02*
X97327619Y-88080952D01*
X97327619Y-88080952D02*
X97518095Y-88176190D01*
X94565714Y-87604761D02*
X95518095Y-87604761D01*
X95518095Y-87604761D02*
X95613333Y-88557142D01*
X95613333Y-88557142D02*
X95518095Y-88461904D01*
X95518095Y-88461904D02*
X95327619Y-88366666D01*
X95327619Y-88366666D02*
X94851428Y-88366666D01*
X94851428Y-88366666D02*
X94660952Y-88461904D01*
X94660952Y-88461904D02*
X94565714Y-88557142D01*
X94565714Y-88557142D02*
X94470476Y-88747619D01*
X94470476Y-88747619D02*
X94470476Y-89223809D01*
X94470476Y-89223809D02*
X94565714Y-89414285D01*
X94565714Y-89414285D02*
X94660952Y-89509523D01*
X94660952Y-89509523D02*
X94851428Y-89604761D01*
X94851428Y-89604761D02*
X95327619Y-89604761D01*
X95327619Y-89604761D02*
X95518095Y-89509523D01*
X95518095Y-89509523D02*
X95613333Y-89414285D01*
X93232381Y-87604761D02*
X93041904Y-87604761D01*
X93041904Y-87604761D02*
X92851428Y-87700000D01*
X92851428Y-87700000D02*
X92756190Y-87795238D01*
X92756190Y-87795238D02*
X92660952Y-87985714D01*
X92660952Y-87985714D02*
X92565714Y-88366666D01*
X92565714Y-88366666D02*
X92565714Y-88842857D01*
X92565714Y-88842857D02*
X92660952Y-89223809D01*
X92660952Y-89223809D02*
X92756190Y-89414285D01*
X92756190Y-89414285D02*
X92851428Y-89509523D01*
X92851428Y-89509523D02*
X93041904Y-89604761D01*
X93041904Y-89604761D02*
X93232381Y-89604761D01*
X93232381Y-89604761D02*
X93422857Y-89509523D01*
X93422857Y-89509523D02*
X93518095Y-89414285D01*
X93518095Y-89414285D02*
X93613333Y-89223809D01*
X93613333Y-89223809D02*
X93708571Y-88842857D01*
X93708571Y-88842857D02*
X93708571Y-88366666D01*
X93708571Y-88366666D02*
X93613333Y-87985714D01*
X93613333Y-87985714D02*
X93518095Y-87795238D01*
X93518095Y-87795238D02*
X93422857Y-87700000D01*
X93422857Y-87700000D02*
X93232381Y-87604761D01*
X105060952Y-92844761D02*
X105727619Y-91892380D01*
X106203809Y-92844761D02*
X106203809Y-90844761D01*
X106203809Y-90844761D02*
X105441904Y-90844761D01*
X105441904Y-90844761D02*
X105251428Y-90940000D01*
X105251428Y-90940000D02*
X105156190Y-91035238D01*
X105156190Y-91035238D02*
X105060952Y-91225714D01*
X105060952Y-91225714D02*
X105060952Y-91511428D01*
X105060952Y-91511428D02*
X105156190Y-91701904D01*
X105156190Y-91701904D02*
X105251428Y-91797142D01*
X105251428Y-91797142D02*
X105441904Y-91892380D01*
X105441904Y-91892380D02*
X106203809Y-91892380D01*
X103251428Y-90844761D02*
X104203809Y-90844761D01*
X104203809Y-90844761D02*
X104299047Y-91797142D01*
X104299047Y-91797142D02*
X104203809Y-91701904D01*
X104203809Y-91701904D02*
X104013333Y-91606666D01*
X104013333Y-91606666D02*
X103537142Y-91606666D01*
X103537142Y-91606666D02*
X103346666Y-91701904D01*
X103346666Y-91701904D02*
X103251428Y-91797142D01*
X103251428Y-91797142D02*
X103156190Y-91987619D01*
X103156190Y-91987619D02*
X103156190Y-92463809D01*
X103156190Y-92463809D02*
X103251428Y-92654285D01*
X103251428Y-92654285D02*
X103346666Y-92749523D01*
X103346666Y-92749523D02*
X103537142Y-92844761D01*
X103537142Y-92844761D02*
X104013333Y-92844761D01*
X104013333Y-92844761D02*
X104203809Y-92749523D01*
X104203809Y-92749523D02*
X104299047Y-92654285D01*
X101099047Y-91797142D02*
X99575238Y-91797142D01*
X99575238Y-92368571D02*
X101099047Y-92368571D01*
X97518095Y-91035238D02*
X97422857Y-90940000D01*
X97422857Y-90940000D02*
X97232381Y-90844761D01*
X97232381Y-90844761D02*
X96756190Y-90844761D01*
X96756190Y-90844761D02*
X96565714Y-90940000D01*
X96565714Y-90940000D02*
X96470476Y-91035238D01*
X96470476Y-91035238D02*
X96375238Y-91225714D01*
X96375238Y-91225714D02*
X96375238Y-91416190D01*
X96375238Y-91416190D02*
X96470476Y-91701904D01*
X96470476Y-91701904D02*
X97613333Y-92844761D01*
X97613333Y-92844761D02*
X96375238Y-92844761D01*
X95518095Y-92844761D02*
X95518095Y-90844761D01*
X94375238Y-92844761D02*
X95232381Y-91701904D01*
X94375238Y-90844761D02*
X95518095Y-91987619D01*
X105060952Y-96084761D02*
X105727619Y-95132380D01*
X106203809Y-96084761D02*
X106203809Y-94084761D01*
X106203809Y-94084761D02*
X105441904Y-94084761D01*
X105441904Y-94084761D02*
X105251428Y-94180000D01*
X105251428Y-94180000D02*
X105156190Y-94275238D01*
X105156190Y-94275238D02*
X105060952Y-94465714D01*
X105060952Y-94465714D02*
X105060952Y-94751428D01*
X105060952Y-94751428D02*
X105156190Y-94941904D01*
X105156190Y-94941904D02*
X105251428Y-95037142D01*
X105251428Y-95037142D02*
X105441904Y-95132380D01*
X105441904Y-95132380D02*
X106203809Y-95132380D01*
X103346666Y-94084761D02*
X103727619Y-94084761D01*
X103727619Y-94084761D02*
X103918095Y-94180000D01*
X103918095Y-94180000D02*
X104013333Y-94275238D01*
X104013333Y-94275238D02*
X104203809Y-94560952D01*
X104203809Y-94560952D02*
X104299047Y-94941904D01*
X104299047Y-94941904D02*
X104299047Y-95703809D01*
X104299047Y-95703809D02*
X104203809Y-95894285D01*
X104203809Y-95894285D02*
X104108571Y-95989523D01*
X104108571Y-95989523D02*
X103918095Y-96084761D01*
X103918095Y-96084761D02*
X103537142Y-96084761D01*
X103537142Y-96084761D02*
X103346666Y-95989523D01*
X103346666Y-95989523D02*
X103251428Y-95894285D01*
X103251428Y-95894285D02*
X103156190Y-95703809D01*
X103156190Y-95703809D02*
X103156190Y-95227619D01*
X103156190Y-95227619D02*
X103251428Y-95037142D01*
X103251428Y-95037142D02*
X103346666Y-94941904D01*
X103346666Y-94941904D02*
X103537142Y-94846666D01*
X103537142Y-94846666D02*
X103918095Y-94846666D01*
X103918095Y-94846666D02*
X104108571Y-94941904D01*
X104108571Y-94941904D02*
X104203809Y-95037142D01*
X104203809Y-95037142D02*
X104299047Y-95227619D01*
X101099047Y-95037142D02*
X99575238Y-95037142D01*
X99575238Y-95608571D02*
X101099047Y-95608571D01*
X97613333Y-94084761D02*
X96280000Y-94084761D01*
X96280000Y-94084761D02*
X97137143Y-96084761D01*
X95518095Y-95894285D02*
X95422857Y-95989523D01*
X95422857Y-95989523D02*
X95518095Y-96084761D01*
X95518095Y-96084761D02*
X95613333Y-95989523D01*
X95613333Y-95989523D02*
X95518095Y-95894285D01*
X95518095Y-95894285D02*
X95518095Y-96084761D01*
X93613333Y-94084761D02*
X94565714Y-94084761D01*
X94565714Y-94084761D02*
X94660952Y-95037142D01*
X94660952Y-95037142D02*
X94565714Y-94941904D01*
X94565714Y-94941904D02*
X94375238Y-94846666D01*
X94375238Y-94846666D02*
X93899047Y-94846666D01*
X93899047Y-94846666D02*
X93708571Y-94941904D01*
X93708571Y-94941904D02*
X93613333Y-95037142D01*
X93613333Y-95037142D02*
X93518095Y-95227619D01*
X93518095Y-95227619D02*
X93518095Y-95703809D01*
X93518095Y-95703809D02*
X93613333Y-95894285D01*
X93613333Y-95894285D02*
X93708571Y-95989523D01*
X93708571Y-95989523D02*
X93899047Y-96084761D01*
X93899047Y-96084761D02*
X94375238Y-96084761D01*
X94375238Y-96084761D02*
X94565714Y-95989523D01*
X94565714Y-95989523D02*
X94660952Y-95894285D01*
X92660952Y-96084761D02*
X92660952Y-94084761D01*
X91518095Y-96084761D02*
X92375238Y-94941904D01*
X91518095Y-94084761D02*
X92660952Y-95227619D01*
X105060952Y-54484761D02*
X105727619Y-53532380D01*
X106203809Y-54484761D02*
X106203809Y-52484761D01*
X106203809Y-52484761D02*
X105441904Y-52484761D01*
X105441904Y-52484761D02*
X105251428Y-52580000D01*
X105251428Y-52580000D02*
X105156190Y-52675238D01*
X105156190Y-52675238D02*
X105060952Y-52865714D01*
X105060952Y-52865714D02*
X105060952Y-53151428D01*
X105060952Y-53151428D02*
X105156190Y-53341904D01*
X105156190Y-53341904D02*
X105251428Y-53437142D01*
X105251428Y-53437142D02*
X105441904Y-53532380D01*
X105441904Y-53532380D02*
X106203809Y-53532380D01*
X103156190Y-54484761D02*
X104299047Y-54484761D01*
X103727619Y-54484761D02*
X103727619Y-52484761D01*
X103727619Y-52484761D02*
X103918095Y-52770476D01*
X103918095Y-52770476D02*
X104108571Y-52960952D01*
X104108571Y-52960952D02*
X104299047Y-53056190D01*
X101099047Y-53437142D02*
X99575238Y-53437142D01*
X99575238Y-54008571D02*
X101099047Y-54008571D01*
X96375238Y-54484761D02*
X97518095Y-54484761D01*
X96946667Y-54484761D02*
X96946667Y-52484761D01*
X96946667Y-52484761D02*
X97137143Y-52770476D01*
X97137143Y-52770476D02*
X97327619Y-52960952D01*
X97327619Y-52960952D02*
X97518095Y-53056190D01*
X95518095Y-54484761D02*
X95518095Y-52484761D01*
X94375238Y-54484761D02*
X95232381Y-53341904D01*
X94375238Y-52484761D02*
X95518095Y-53627619D01*
X105060952Y-57724761D02*
X105727619Y-56772380D01*
X106203809Y-57724761D02*
X106203809Y-55724761D01*
X106203809Y-55724761D02*
X105441904Y-55724761D01*
X105441904Y-55724761D02*
X105251428Y-55820000D01*
X105251428Y-55820000D02*
X105156190Y-55915238D01*
X105156190Y-55915238D02*
X105060952Y-56105714D01*
X105060952Y-56105714D02*
X105060952Y-56391428D01*
X105060952Y-56391428D02*
X105156190Y-56581904D01*
X105156190Y-56581904D02*
X105251428Y-56677142D01*
X105251428Y-56677142D02*
X105441904Y-56772380D01*
X105441904Y-56772380D02*
X106203809Y-56772380D01*
X104299047Y-55915238D02*
X104203809Y-55820000D01*
X104203809Y-55820000D02*
X104013333Y-55724761D01*
X104013333Y-55724761D02*
X103537142Y-55724761D01*
X103537142Y-55724761D02*
X103346666Y-55820000D01*
X103346666Y-55820000D02*
X103251428Y-55915238D01*
X103251428Y-55915238D02*
X103156190Y-56105714D01*
X103156190Y-56105714D02*
X103156190Y-56296190D01*
X103156190Y-56296190D02*
X103251428Y-56581904D01*
X103251428Y-56581904D02*
X104394285Y-57724761D01*
X104394285Y-57724761D02*
X103156190Y-57724761D01*
X101099047Y-56677142D02*
X99575238Y-56677142D01*
X99575238Y-57248571D02*
X101099047Y-57248571D01*
X96375238Y-57724761D02*
X97518095Y-57724761D01*
X96946667Y-57724761D02*
X96946667Y-55724761D01*
X96946667Y-55724761D02*
X97137143Y-56010476D01*
X97137143Y-56010476D02*
X97327619Y-56200952D01*
X97327619Y-56200952D02*
X97518095Y-56296190D01*
X95518095Y-57724761D02*
X95518095Y-55724761D01*
X94375238Y-57724761D02*
X95232381Y-56581904D01*
X94375238Y-55724761D02*
X95518095Y-56867619D01*
X105060952Y-60964761D02*
X105727619Y-60012380D01*
X106203809Y-60964761D02*
X106203809Y-58964761D01*
X106203809Y-58964761D02*
X105441904Y-58964761D01*
X105441904Y-58964761D02*
X105251428Y-59060000D01*
X105251428Y-59060000D02*
X105156190Y-59155238D01*
X105156190Y-59155238D02*
X105060952Y-59345714D01*
X105060952Y-59345714D02*
X105060952Y-59631428D01*
X105060952Y-59631428D02*
X105156190Y-59821904D01*
X105156190Y-59821904D02*
X105251428Y-59917142D01*
X105251428Y-59917142D02*
X105441904Y-60012380D01*
X105441904Y-60012380D02*
X106203809Y-60012380D01*
X104394285Y-58964761D02*
X103156190Y-58964761D01*
X103156190Y-58964761D02*
X103822857Y-59726666D01*
X103822857Y-59726666D02*
X103537142Y-59726666D01*
X103537142Y-59726666D02*
X103346666Y-59821904D01*
X103346666Y-59821904D02*
X103251428Y-59917142D01*
X103251428Y-59917142D02*
X103156190Y-60107619D01*
X103156190Y-60107619D02*
X103156190Y-60583809D01*
X103156190Y-60583809D02*
X103251428Y-60774285D01*
X103251428Y-60774285D02*
X103346666Y-60869523D01*
X103346666Y-60869523D02*
X103537142Y-60964761D01*
X103537142Y-60964761D02*
X104108571Y-60964761D01*
X104108571Y-60964761D02*
X104299047Y-60869523D01*
X104299047Y-60869523D02*
X104394285Y-60774285D01*
X101099047Y-59917142D02*
X99575238Y-59917142D01*
X99575238Y-60488571D02*
X101099047Y-60488571D01*
X96375238Y-60964761D02*
X97518095Y-60964761D01*
X96946667Y-60964761D02*
X96946667Y-58964761D01*
X96946667Y-58964761D02*
X97137143Y-59250476D01*
X97137143Y-59250476D02*
X97327619Y-59440952D01*
X97327619Y-59440952D02*
X97518095Y-59536190D01*
X95518095Y-60964761D02*
X95518095Y-58964761D01*
X94375238Y-60964761D02*
X95232381Y-59821904D01*
X94375238Y-58964761D02*
X95518095Y-60107619D01*
X105060952Y-64204761D02*
X105727619Y-63252380D01*
X106203809Y-64204761D02*
X106203809Y-62204761D01*
X106203809Y-62204761D02*
X105441904Y-62204761D01*
X105441904Y-62204761D02*
X105251428Y-62300000D01*
X105251428Y-62300000D02*
X105156190Y-62395238D01*
X105156190Y-62395238D02*
X105060952Y-62585714D01*
X105060952Y-62585714D02*
X105060952Y-62871428D01*
X105060952Y-62871428D02*
X105156190Y-63061904D01*
X105156190Y-63061904D02*
X105251428Y-63157142D01*
X105251428Y-63157142D02*
X105441904Y-63252380D01*
X105441904Y-63252380D02*
X106203809Y-63252380D01*
X103346666Y-62871428D02*
X103346666Y-64204761D01*
X103822857Y-62109523D02*
X104299047Y-63538095D01*
X104299047Y-63538095D02*
X103060952Y-63538095D01*
X101099047Y-63157142D02*
X99575238Y-63157142D01*
X99575238Y-63728571D02*
X101099047Y-63728571D01*
X97518095Y-62395238D02*
X97422857Y-62300000D01*
X97422857Y-62300000D02*
X97232381Y-62204761D01*
X97232381Y-62204761D02*
X96756190Y-62204761D01*
X96756190Y-62204761D02*
X96565714Y-62300000D01*
X96565714Y-62300000D02*
X96470476Y-62395238D01*
X96470476Y-62395238D02*
X96375238Y-62585714D01*
X96375238Y-62585714D02*
X96375238Y-62776190D01*
X96375238Y-62776190D02*
X96470476Y-63061904D01*
X96470476Y-63061904D02*
X97613333Y-64204761D01*
X97613333Y-64204761D02*
X96375238Y-64204761D01*
X95613333Y-62395238D02*
X95518095Y-62300000D01*
X95518095Y-62300000D02*
X95327619Y-62204761D01*
X95327619Y-62204761D02*
X94851428Y-62204761D01*
X94851428Y-62204761D02*
X94660952Y-62300000D01*
X94660952Y-62300000D02*
X94565714Y-62395238D01*
X94565714Y-62395238D02*
X94470476Y-62585714D01*
X94470476Y-62585714D02*
X94470476Y-62776190D01*
X94470476Y-62776190D02*
X94565714Y-63061904D01*
X94565714Y-63061904D02*
X95708571Y-64204761D01*
X95708571Y-64204761D02*
X94470476Y-64204761D01*
X93232381Y-62204761D02*
X93041904Y-62204761D01*
X93041904Y-62204761D02*
X92851428Y-62300000D01*
X92851428Y-62300000D02*
X92756190Y-62395238D01*
X92756190Y-62395238D02*
X92660952Y-62585714D01*
X92660952Y-62585714D02*
X92565714Y-62966666D01*
X92565714Y-62966666D02*
X92565714Y-63442857D01*
X92565714Y-63442857D02*
X92660952Y-63823809D01*
X92660952Y-63823809D02*
X92756190Y-64014285D01*
X92756190Y-64014285D02*
X92851428Y-64109523D01*
X92851428Y-64109523D02*
X93041904Y-64204761D01*
X93041904Y-64204761D02*
X93232381Y-64204761D01*
X93232381Y-64204761D02*
X93422857Y-64109523D01*
X93422857Y-64109523D02*
X93518095Y-64014285D01*
X93518095Y-64014285D02*
X93613333Y-63823809D01*
X93613333Y-63823809D02*
X93708571Y-63442857D01*
X93708571Y-63442857D02*
X93708571Y-62966666D01*
X93708571Y-62966666D02*
X93613333Y-62585714D01*
X93613333Y-62585714D02*
X93518095Y-62395238D01*
X93518095Y-62395238D02*
X93422857Y-62300000D01*
X93422857Y-62300000D02*
X93232381Y-62204761D01*
X105060952Y-67444761D02*
X105727619Y-66492380D01*
X106203809Y-67444761D02*
X106203809Y-65444761D01*
X106203809Y-65444761D02*
X105441904Y-65444761D01*
X105441904Y-65444761D02*
X105251428Y-65540000D01*
X105251428Y-65540000D02*
X105156190Y-65635238D01*
X105156190Y-65635238D02*
X105060952Y-65825714D01*
X105060952Y-65825714D02*
X105060952Y-66111428D01*
X105060952Y-66111428D02*
X105156190Y-66301904D01*
X105156190Y-66301904D02*
X105251428Y-66397142D01*
X105251428Y-66397142D02*
X105441904Y-66492380D01*
X105441904Y-66492380D02*
X106203809Y-66492380D01*
X103251428Y-65444761D02*
X104203809Y-65444761D01*
X104203809Y-65444761D02*
X104299047Y-66397142D01*
X104299047Y-66397142D02*
X104203809Y-66301904D01*
X104203809Y-66301904D02*
X104013333Y-66206666D01*
X104013333Y-66206666D02*
X103537142Y-66206666D01*
X103537142Y-66206666D02*
X103346666Y-66301904D01*
X103346666Y-66301904D02*
X103251428Y-66397142D01*
X103251428Y-66397142D02*
X103156190Y-66587619D01*
X103156190Y-66587619D02*
X103156190Y-67063809D01*
X103156190Y-67063809D02*
X103251428Y-67254285D01*
X103251428Y-67254285D02*
X103346666Y-67349523D01*
X103346666Y-67349523D02*
X103537142Y-67444761D01*
X103537142Y-67444761D02*
X104013333Y-67444761D01*
X104013333Y-67444761D02*
X104203809Y-67349523D01*
X104203809Y-67349523D02*
X104299047Y-67254285D01*
X101099047Y-66397142D02*
X99575238Y-66397142D01*
X99575238Y-66968571D02*
X101099047Y-66968571D01*
X96375238Y-67444761D02*
X97518095Y-67444761D01*
X96946667Y-67444761D02*
X96946667Y-65444761D01*
X96946667Y-65444761D02*
X97137143Y-65730476D01*
X97137143Y-65730476D02*
X97327619Y-65920952D01*
X97327619Y-65920952D02*
X97518095Y-66016190D01*
X95518095Y-67444761D02*
X95518095Y-65444761D01*
X94375238Y-67444761D02*
X95232381Y-66301904D01*
X94375238Y-65444761D02*
X95518095Y-66587619D01*
X105060952Y-70684761D02*
X105727619Y-69732380D01*
X106203809Y-70684761D02*
X106203809Y-68684761D01*
X106203809Y-68684761D02*
X105441904Y-68684761D01*
X105441904Y-68684761D02*
X105251428Y-68780000D01*
X105251428Y-68780000D02*
X105156190Y-68875238D01*
X105156190Y-68875238D02*
X105060952Y-69065714D01*
X105060952Y-69065714D02*
X105060952Y-69351428D01*
X105060952Y-69351428D02*
X105156190Y-69541904D01*
X105156190Y-69541904D02*
X105251428Y-69637142D01*
X105251428Y-69637142D02*
X105441904Y-69732380D01*
X105441904Y-69732380D02*
X106203809Y-69732380D01*
X103346666Y-68684761D02*
X103727619Y-68684761D01*
X103727619Y-68684761D02*
X103918095Y-68780000D01*
X103918095Y-68780000D02*
X104013333Y-68875238D01*
X104013333Y-68875238D02*
X104203809Y-69160952D01*
X104203809Y-69160952D02*
X104299047Y-69541904D01*
X104299047Y-69541904D02*
X104299047Y-70303809D01*
X104299047Y-70303809D02*
X104203809Y-70494285D01*
X104203809Y-70494285D02*
X104108571Y-70589523D01*
X104108571Y-70589523D02*
X103918095Y-70684761D01*
X103918095Y-70684761D02*
X103537142Y-70684761D01*
X103537142Y-70684761D02*
X103346666Y-70589523D01*
X103346666Y-70589523D02*
X103251428Y-70494285D01*
X103251428Y-70494285D02*
X103156190Y-70303809D01*
X103156190Y-70303809D02*
X103156190Y-69827619D01*
X103156190Y-69827619D02*
X103251428Y-69637142D01*
X103251428Y-69637142D02*
X103346666Y-69541904D01*
X103346666Y-69541904D02*
X103537142Y-69446666D01*
X103537142Y-69446666D02*
X103918095Y-69446666D01*
X103918095Y-69446666D02*
X104108571Y-69541904D01*
X104108571Y-69541904D02*
X104203809Y-69637142D01*
X104203809Y-69637142D02*
X104299047Y-69827619D01*
X101099047Y-69637142D02*
X99575238Y-69637142D01*
X99575238Y-70208571D02*
X101099047Y-70208571D01*
X97518095Y-68875238D02*
X97422857Y-68780000D01*
X97422857Y-68780000D02*
X97232381Y-68684761D01*
X97232381Y-68684761D02*
X96756190Y-68684761D01*
X96756190Y-68684761D02*
X96565714Y-68780000D01*
X96565714Y-68780000D02*
X96470476Y-68875238D01*
X96470476Y-68875238D02*
X96375238Y-69065714D01*
X96375238Y-69065714D02*
X96375238Y-69256190D01*
X96375238Y-69256190D02*
X96470476Y-69541904D01*
X96470476Y-69541904D02*
X97613333Y-70684761D01*
X97613333Y-70684761D02*
X96375238Y-70684761D01*
X95518095Y-70494285D02*
X95422857Y-70589523D01*
X95422857Y-70589523D02*
X95518095Y-70684761D01*
X95518095Y-70684761D02*
X95613333Y-70589523D01*
X95613333Y-70589523D02*
X95518095Y-70494285D01*
X95518095Y-70494285D02*
X95518095Y-70684761D01*
X94660952Y-68875238D02*
X94565714Y-68780000D01*
X94565714Y-68780000D02*
X94375238Y-68684761D01*
X94375238Y-68684761D02*
X93899047Y-68684761D01*
X93899047Y-68684761D02*
X93708571Y-68780000D01*
X93708571Y-68780000D02*
X93613333Y-68875238D01*
X93613333Y-68875238D02*
X93518095Y-69065714D01*
X93518095Y-69065714D02*
X93518095Y-69256190D01*
X93518095Y-69256190D02*
X93613333Y-69541904D01*
X93613333Y-69541904D02*
X94756190Y-70684761D01*
X94756190Y-70684761D02*
X93518095Y-70684761D01*
X92660952Y-70684761D02*
X92660952Y-68684761D01*
X91518095Y-70684761D02*
X92375238Y-69541904D01*
X91518095Y-68684761D02*
X92660952Y-69827619D01*
M02*
