%TF.GenerationSoftware,KiCad,Pcbnew,(7.0.0)*%
%TF.CreationDate,2023-08-25T10:54:55+02:00*%
%TF.ProjectId,JIG_MULTI,4a49475f-4d55-44c5-9449-2e6b69636164,rev?*%
%TF.SameCoordinates,Original*%
%TF.FileFunction,Paste,Top*%
%TF.FilePolarity,Positive*%
%FSLAX46Y46*%
G04 Gerber Fmt 4.6, Leading zero omitted, Abs format (unit mm)*
G04 Created by KiCad (PCBNEW (7.0.0)) date 2023-08-25 10:54:55*
%MOMM*%
%LPD*%
G01*
G04 APERTURE LIST*
%ADD10C,1.524000*%
%ADD11R,0.200000X1.800000*%
%ADD12O,1.000000X2.000000*%
G04 APERTURE END LIST*
D10*
%TO.C,U1*%
X64897000Y-88900000D03*
X67437000Y-88900000D03*
X69977000Y-88900000D03*
X72517000Y-88900000D03*
X75057000Y-88900000D03*
X77597000Y-88900000D03*
X80137000Y-88900000D03*
X82677000Y-88900000D03*
X85217000Y-88900000D03*
X87757000Y-88900000D03*
X90297000Y-88900000D03*
X92837000Y-88900000D03*
%TD*%
%TO.C,U0*%
X64897000Y-73660000D03*
X67437000Y-73660000D03*
X69977000Y-73660000D03*
X72517000Y-73660000D03*
X75057000Y-73660000D03*
X77597000Y-73660000D03*
X80137000Y-73660000D03*
X82677000Y-73660000D03*
X85217000Y-73660000D03*
X87757000Y-73660000D03*
X90297000Y-73660000D03*
X92837000Y-73660000D03*
%TD*%
D11*
%TO.C,UDC*%
X75294999Y-79355999D03*
X75694999Y-79355999D03*
X76094999Y-79355999D03*
X76494999Y-79355999D03*
X76894999Y-79355999D03*
X77294999Y-79355999D03*
X77694999Y-79355999D03*
X78094999Y-79355999D03*
X78494999Y-79355999D03*
X78894999Y-79355999D03*
X79294999Y-79355999D03*
X79694999Y-79355999D03*
X80094999Y-79355999D03*
X80494999Y-79355999D03*
X80894999Y-79355999D03*
X81294999Y-79355999D03*
X81694999Y-79355999D03*
X82094999Y-79355999D03*
X82494999Y-79355999D03*
X82894999Y-79355999D03*
X83294999Y-79355999D03*
X75494999Y-83355999D03*
X83494999Y-83355999D03*
D12*
X74294999Y-79755999D03*
X74294999Y-82855999D03*
X73294999Y-81355999D03*
X84794999Y-82855999D03*
X84794999Y-79755999D03*
X85794999Y-81255999D03*
%TD*%
M02*
