%TF.GenerationSoftware,KiCad,Pcbnew,(7.0.0)*%
%TF.CreationDate,2023-08-25T10:54:56+02:00*%
%TF.ProjectId,JIG_MULTI,4a49475f-4d55-44c5-9449-2e6b69636164,rev?*%
%TF.SameCoordinates,Original*%
%TF.FileFunction,Soldermask,Bot*%
%TF.FilePolarity,Negative*%
%FSLAX46Y46*%
G04 Gerber Fmt 4.6, Leading zero omitted, Abs format (unit mm)*
G04 Created by KiCad (PCBNEW (7.0.0)) date 2023-08-25 10:54:56*
%MOMM*%
%LPD*%
G01*
G04 APERTURE LIST*
%ADD10C,1.524000*%
%ADD11C,1.600000*%
%ADD12O,1.600000X1.600000*%
%ADD13O,1.000000X2.000000*%
G04 APERTURE END LIST*
D10*
%TO.C,U1*%
X64897000Y-88900000D03*
X67437000Y-88900000D03*
X69977000Y-88900000D03*
X72517000Y-88900000D03*
X75057000Y-88900000D03*
X77597000Y-88900000D03*
X80137000Y-88900000D03*
X82677000Y-88900000D03*
X85217000Y-88900000D03*
X87757000Y-88900000D03*
X90297000Y-88900000D03*
X92837000Y-88900000D03*
%TD*%
D11*
%TO.C,R3*%
X60960000Y-40640000D03*
D12*
X73659999Y-40639999D03*
%TD*%
D11*
%TO.C,R5*%
X58420000Y-99060000D03*
D12*
X71119999Y-99059999D03*
%TD*%
D11*
%TO.C,R4*%
X68580000Y-45720000D03*
D12*
X81279999Y-45719999D03*
%TD*%
D11*
%TO.C,R2*%
X43180000Y-45720000D03*
D12*
X55879999Y-45719999D03*
%TD*%
D11*
%TO.C,R1*%
X43180000Y-40640000D03*
D12*
X55879999Y-40639999D03*
%TD*%
D10*
%TO.C,U0*%
X64897000Y-73660000D03*
X67437000Y-73660000D03*
X69977000Y-73660000D03*
X72517000Y-73660000D03*
X75057000Y-73660000D03*
X77597000Y-73660000D03*
X80137000Y-73660000D03*
X82677000Y-73660000D03*
X85217000Y-73660000D03*
X87757000Y-73660000D03*
X90297000Y-73660000D03*
X92837000Y-73660000D03*
%TD*%
D13*
%TO.C,UDC*%
X74294999Y-79755999D03*
X74294999Y-82855999D03*
X73294999Y-81355999D03*
X84794999Y-82855999D03*
X84794999Y-79755999D03*
X85794999Y-81255999D03*
%TD*%
D11*
%TO.C,R6*%
X78740000Y-99060000D03*
D12*
X91439999Y-99059999D03*
%TD*%
M02*
