%TF.GenerationSoftware,KiCad,Pcbnew,(7.0.0)*%
%TF.CreationDate,2023-08-04T15:50:35+02:00*%
%TF.ProjectId,PCH-1xxxJIG_THT_1.4,5043482d-3178-4787-984a-49475f544854,rev?*%
%TF.SameCoordinates,Original*%
%TF.FileFunction,Copper,L1,Top*%
%TF.FilePolarity,Positive*%
%FSLAX46Y46*%
G04 Gerber Fmt 4.6, Leading zero omitted, Abs format (unit mm)*
G04 Created by KiCad (PCBNEW (7.0.0)) date 2023-08-04 15:50:35*
%MOMM*%
%LPD*%
G01*
G04 APERTURE LIST*
%TA.AperFunction,SMDPad,CuDef*%
%ADD10R,0.200000X1.800000*%
%TD*%
%TA.AperFunction,ComponentPad*%
%ADD11O,1.000000X2.000000*%
%TD*%
%TA.AperFunction,ComponentPad*%
%ADD12R,1.350000X1.350000*%
%TD*%
%TA.AperFunction,ComponentPad*%
%ADD13O,1.350000X1.350000*%
%TD*%
%TA.AperFunction,SMDPad,CuDef*%
%ADD14C,2.000000*%
%TD*%
%TA.AperFunction,ComponentPad*%
%ADD15C,1.600000*%
%TD*%
%TA.AperFunction,ComponentPad*%
%ADD16O,1.600000X1.600000*%
%TD*%
%TA.AperFunction,ViaPad*%
%ADD17C,0.600000*%
%TD*%
%TA.AperFunction,ViaPad*%
%ADD18C,0.800000*%
%TD*%
%TA.AperFunction,Conductor*%
%ADD19C,0.200000*%
%TD*%
%TA.AperFunction,Conductor*%
%ADD20C,0.150000*%
%TD*%
%TA.AperFunction,Conductor*%
%ADD21C,0.250000*%
%TD*%
%TA.AperFunction,Conductor*%
%ADD22C,0.254000*%
%TD*%
G04 APERTURE END LIST*
D10*
%TO.P,U1,1*%
%TO.N,N/C*%
X88359999Y-83859999D03*
%TO.P,U1,2*%
X88759999Y-83859999D03*
%TO.P,U1,3*%
X89159999Y-83859999D03*
%TO.P,U1,4*%
X89559999Y-83859999D03*
%TO.P,U1,5*%
X89959999Y-83859999D03*
%TO.P,U1,6*%
X90359999Y-83859999D03*
%TO.P,U1,7*%
X90759999Y-83859999D03*
%TO.P,U1,8*%
X91159999Y-83859999D03*
%TO.P,U1,9*%
X91559999Y-83859999D03*
%TO.P,U1,10*%
X91959999Y-83859999D03*
%TO.P,U1,11*%
X92359999Y-83859999D03*
%TO.P,U1,12*%
X92759999Y-83859999D03*
%TO.P,U1,13*%
X93159999Y-83859999D03*
%TO.P,U1,14*%
X93559999Y-83859999D03*
%TO.P,U1,15*%
X93959999Y-83859999D03*
%TO.P,U1,16*%
X94359999Y-83859999D03*
%TO.P,U1,17*%
X94759999Y-83859999D03*
%TO.P,U1,18*%
X95159999Y-83859999D03*
%TO.P,U1,19*%
X95559999Y-83859999D03*
%TO.P,U1,20*%
X95959999Y-83859999D03*
%TO.P,U1,21*%
X96359999Y-83859999D03*
%TO.P,U1,22*%
X88559999Y-87859999D03*
%TO.P,U1,23*%
X96559999Y-87859999D03*
D11*
%TO.P,U1,24*%
X87359999Y-84259999D03*
%TO.P,U1,25*%
X87359999Y-87359999D03*
%TO.P,U1,26*%
X86359999Y-85859999D03*
%TO.P,U1,27*%
X97859999Y-87359999D03*
%TO.P,U1,28*%
X97859999Y-84259999D03*
%TO.P,U1,29*%
X98859999Y-85759999D03*
%TD*%
D12*
%TO.P,Pin Header,1*%
%TO.N,N/C*%
X36829999Y-80739999D03*
D13*
%TO.P,Pin Header,2*%
X36829999Y-78739999D03*
%TO.P,Pin Header,3*%
X38829999Y-80739999D03*
%TO.P,Pin Header,4*%
X38829999Y-78739999D03*
%TO.P,Pin Header,5*%
X40829999Y-80739999D03*
%TO.P,Pin Header,6*%
X40829999Y-78739999D03*
%TO.P,Pin Header,7*%
X42829999Y-80739999D03*
%TO.P,Pin Header,8*%
X42829999Y-78739999D03*
%TO.P,Pin Header,9*%
X44829999Y-80739999D03*
%TO.P,Pin Header,10*%
X44829999Y-78739999D03*
%TD*%
D14*
%TO.P,Vita TX/7,1*%
%TO.N,N/C*%
X67310000Y-68580000D03*
%TD*%
D15*
%TO.P,220 Ohms,1*%
%TO.N,N/C*%
X82550000Y-53340000D03*
D16*
%TO.P,220 Ohms,2*%
X95249999Y-53339999D03*
%TD*%
D14*
%TO.P,Vita RX/6,1*%
%TO.N,N/C*%
X74930000Y-68580000D03*
%TD*%
%TO.P,PC TX,1*%
%TO.N,N/C*%
X44450000Y-68580000D03*
%TD*%
%TO.P,UDC 11,1*%
%TO.N,N/C*%
X82550000Y-68580000D03*
%TD*%
D15*
%TO.P,1k Ohms,1*%
%TO.N,N/C*%
X59690000Y-38100000D03*
D16*
%TO.P,1k Ohms,2*%
X72389999Y-38099999D03*
%TD*%
D14*
%TO.P,PC GND,1*%
%TO.N,N/C*%
X52070000Y-68580000D03*
%TD*%
%TO.P,UDC 3/GND,1*%
%TO.N,N/C*%
X97790000Y-68580000D03*
%TD*%
%TO.P,UDC 12,1*%
%TO.N,N/C*%
X90170000Y-68580000D03*
%TD*%
%TO.P,PC RX,1*%
%TO.N,N/C*%
X36830000Y-68580000D03*
%TD*%
%TO.P,3v3 VCC,1*%
%TO.N,N/C*%
X59690000Y-68580000D03*
%TD*%
D15*
%TO.P,1k Ohms,1*%
%TO.N,N/C*%
X38100000Y-38100000D03*
D16*
%TO.P,1k Ohms,2*%
X50799999Y-38099999D03*
%TD*%
D15*
%TO.P,1k Ohms,1*%
%TO.N,N/C*%
X39370000Y-53340000D03*
D16*
%TO.P,1k Ohms,2*%
X52069999Y-53339999D03*
%TD*%
D17*
%TO.N,*%
X74930000Y-81280000D03*
X83820000Y-81280000D03*
X90360000Y-79820000D03*
X90760000Y-79200000D03*
X93200000Y-81280000D03*
D18*
X57150000Y-55880000D03*
X57150000Y-72840000D03*
X39370000Y-76200000D03*
X36830000Y-76200000D03*
X57150000Y-55880000D03*
X74930000Y-73660000D03*
X74930000Y-63500000D03*
X57150000Y-50800000D03*
X54610000Y-38100000D03*
X57150000Y-50800000D03*
X64770000Y-71120000D03*
X82550000Y-73660000D03*
X41910000Y-76200000D03*
%TD*%
D19*
%TO.N,*%
X83820000Y-81280000D02*
X74930000Y-81280000D01*
D20*
X90760000Y-81280000D02*
X90760000Y-79200000D01*
X90760000Y-83860000D02*
X90760000Y-81280000D01*
D21*
X88900000Y-78740000D02*
X44830000Y-78740000D01*
D20*
X90360000Y-83860000D02*
X90360000Y-79820000D01*
X92760000Y-80060000D02*
X92760000Y-78740000D01*
X89160000Y-81020000D02*
X89160000Y-78740000D01*
X93160000Y-81320000D02*
X93200000Y-81280000D01*
X93160000Y-83860000D02*
X93160000Y-81320000D01*
X92760000Y-83860000D02*
X92760000Y-80060000D01*
D21*
X91440000Y-78740000D02*
X88900000Y-78740000D01*
X97790000Y-78740000D02*
X91440000Y-78740000D01*
D20*
X89160000Y-83860000D02*
X89160000Y-81020000D01*
D22*
X98860000Y-85760000D02*
X97860000Y-84760000D01*
X87360000Y-87360000D02*
X87860000Y-87860000D01*
X97860000Y-87360000D02*
X98860000Y-86360000D01*
X97060000Y-87360000D02*
X97860000Y-87360000D01*
X87360000Y-87360000D02*
X86360000Y-86360000D01*
X98860000Y-86360000D02*
X98860000Y-85760000D01*
X86360000Y-85260000D02*
X86360000Y-85860000D01*
X87360000Y-84260000D02*
X86360000Y-85260000D01*
X97860000Y-84760000D02*
X97860000Y-84260000D01*
X96560000Y-87860000D02*
X97060000Y-87360000D01*
X88560000Y-87860000D02*
X96560000Y-87860000D01*
X86360000Y-86360000D02*
X86360000Y-85860000D01*
X87860000Y-87860000D02*
X88560000Y-87860000D01*
D21*
X77470000Y-53340000D02*
X80010000Y-53340000D01*
X52070000Y-53340000D02*
X64770000Y-53340000D01*
X82550000Y-53340000D02*
X80010000Y-53340000D01*
X90170000Y-68580000D02*
X97790000Y-68580000D01*
X36830000Y-76200000D02*
X36830000Y-73660000D01*
X39370000Y-76200000D02*
X39370000Y-73660000D01*
X36830000Y-76200000D02*
X34415000Y-78615000D01*
X69850000Y-38100000D02*
X72390000Y-38100000D01*
X57150000Y-71120000D02*
X59690000Y-68580000D01*
X95250000Y-66040000D02*
X97790000Y-68580000D01*
X36830000Y-73660000D02*
X36830000Y-68580000D01*
X64770000Y-53340000D02*
X72390000Y-53340000D01*
X49530000Y-68580000D02*
X52070000Y-68580000D01*
X54610000Y-38100000D02*
X50800000Y-38100000D01*
X39370000Y-73660000D02*
X44450000Y-68580000D01*
X34415000Y-78615000D02*
X34415000Y-83820000D01*
X42830000Y-78740000D02*
X40830000Y-78740000D01*
X57150000Y-63500000D02*
X57150000Y-55880000D01*
X54610000Y-38100000D02*
X59690000Y-38100000D01*
X57150000Y-72840000D02*
X57150000Y-71120000D01*
X44830000Y-78740000D02*
X42830000Y-78740000D01*
X34415000Y-83820000D02*
X37750000Y-83820000D01*
X44450000Y-68580000D02*
X44450000Y-38100000D01*
X64770000Y-71120000D02*
X67310000Y-68580000D01*
X41910000Y-76200000D02*
X49530000Y-68580000D01*
X97790000Y-68580000D02*
X97790000Y-78740000D01*
X44450000Y-38100000D02*
X38100000Y-38100000D01*
X82550000Y-63500000D02*
X72390000Y-53340000D01*
X82550000Y-73660000D02*
X82550000Y-68580000D01*
X74930000Y-63500000D02*
X74930000Y-68580000D01*
X82550000Y-68580000D02*
X82550000Y-63500000D01*
X72390000Y-53340000D02*
X79190000Y-53340000D01*
X37750000Y-83820000D02*
X40830000Y-80740000D01*
X57150000Y-50800000D02*
X69850000Y-38100000D01*
X74930000Y-73660000D02*
X74930000Y-68580000D01*
X38830000Y-80740000D02*
X40830000Y-78740000D01*
X95250000Y-53340000D02*
X95250000Y-66040000D01*
X52070000Y-68580000D02*
X57150000Y-63500000D01*
%TD*%
M02*
