%TF.GenerationSoftware,KiCad,Pcbnew,(7.0.0)*%
%TF.CreationDate,2023-08-04T16:20:27+02:00*%
%TF.ProjectId,PCH-1xxxJIG_THT_1.5,5043482d-3178-4787-984a-49475f544854,rev?*%
%TF.SameCoordinates,Original*%
%TF.FileFunction,Soldermask,Top*%
%TF.FilePolarity,Negative*%
%FSLAX46Y46*%
G04 Gerber Fmt 4.6, Leading zero omitted, Abs format (unit mm)*
G04 Created by KiCad (PCBNEW (7.0.0)) date 2023-08-04 16:20:27*
%MOMM*%
%LPD*%
G01*
G04 APERTURE LIST*
%ADD10R,0.200000X1.800000*%
%ADD11O,1.000000X2.000000*%
%ADD12C,2.000000*%
%ADD13C,1.600000*%
%ADD14O,1.600000X1.600000*%
%ADD15R,1.350000X1.350000*%
%ADD16O,1.350000X1.350000*%
G04 APERTURE END LIST*
D10*
%TO.C,UDC*%
X75539999Y-59379999D03*
X75139999Y-59379999D03*
X74739999Y-59379999D03*
X74339999Y-59379999D03*
X73939999Y-59379999D03*
X73539999Y-59379999D03*
X73139999Y-59379999D03*
X72739999Y-59379999D03*
X72339999Y-59379999D03*
X71939999Y-59379999D03*
X71539999Y-59379999D03*
X71139999Y-59379999D03*
X70739999Y-59379999D03*
X70339999Y-59379999D03*
X69939999Y-59379999D03*
X69539999Y-59379999D03*
X69139999Y-59379999D03*
X68739999Y-59379999D03*
X68339999Y-59379999D03*
X67939999Y-59379999D03*
X67539999Y-59379999D03*
X75339999Y-55379999D03*
X67339999Y-55379999D03*
D11*
X76539999Y-58979999D03*
X76539999Y-55879999D03*
X77539999Y-57379999D03*
X66039999Y-55879999D03*
X66039999Y-58979999D03*
X65039999Y-57479999D03*
%TD*%
D12*
%TO.C,Vita TX/7*%
X67310000Y-68580000D03*
%TD*%
D13*
%TO.C,1k Ohms*%
X59690000Y-38100000D03*
D14*
X72389999Y-38099999D03*
%TD*%
D12*
%TO.C,PC TX*%
X44450000Y-68580000D03*
%TD*%
%TO.C,UDC 12*%
X90170000Y-68580000D03*
%TD*%
%TO.C,UDC 11*%
X82550000Y-68580000D03*
%TD*%
%TO.C,Vita RX/6*%
X74930000Y-68580000D03*
%TD*%
%TO.C,PC RX*%
X36830000Y-68580000D03*
%TD*%
%TO.C,UDC 3/GND*%
X97790000Y-68580000D03*
%TD*%
%TO.C,3v3 VCC*%
X59690000Y-68580000D03*
%TD*%
D13*
%TO.C,220 Ohms*%
X82550000Y-53340000D03*
D14*
X95249999Y-53339999D03*
%TD*%
D12*
%TO.C,PC GND*%
X52070000Y-68580000D03*
%TD*%
D13*
%TO.C,1k Ohms*%
X39370000Y-53340000D03*
D14*
X52069999Y-53339999D03*
%TD*%
D13*
%TO.C,1k Ohms*%
X38100000Y-38100000D03*
D14*
X50799999Y-38099999D03*
%TD*%
D15*
%TO.C,Pin Header*%
X36829999Y-80739999D03*
D16*
X36829999Y-78739999D03*
X38829999Y-80739999D03*
X38829999Y-78739999D03*
X40829999Y-80739999D03*
X40829999Y-78739999D03*
X42829999Y-80739999D03*
X42829999Y-78739999D03*
X44829999Y-80739999D03*
X44829999Y-78739999D03*
%TD*%
M02*
