M48
; DRILL file {KiCad (7.0.0)} date Fri Aug  4 15:50:33 2023
; FORMAT={-:-/ absolute / inch / decimal}
; #@! TF.CreationDate,2023-08-04T15:50:33+02:00
; #@! TF.GenerationSoftware,Kicad,Pcbnew,(7.0.0)
; #@! TF.FileFunction,Plated,1,2,PTH
FMAT,2
INCH
; #@! TA.AperFunction,Plated,PTH,ViaDrill
T1C0.0118
; #@! TA.AperFunction,Plated,PTH,ViaDrill
T2C0.0157
; #@! TA.AperFunction,Plated,PTH,ComponentDrill
T3C0.0295
; #@! TA.AperFunction,Plated,PTH,ComponentDrill
T4C0.0315
%
G90
G05
T1
X2.95Y-3.2
X3.3Y-3.2
X3.5575Y-3.1425
X3.5732Y-3.1181
X3.6693Y-3.2
T2
X1.45Y-3.0
X1.55Y-3.0
X1.65Y-3.0
X2.15Y-1.5
X2.25Y-2.0
X2.25Y-2.0
X2.25Y-2.2
X2.25Y-2.2
X2.25Y-2.8677
X2.55Y-2.8
X2.95Y-2.5
X2.95Y-2.9
X3.25Y-2.9
T4
X1.45Y-3.1
X1.45Y-3.1787
X1.5Y-1.5
X1.5287Y-3.1
X1.5287Y-3.1787
X1.55Y-2.1
X1.6075Y-3.1
X1.6075Y-3.1787
X1.6862Y-3.1
X1.6862Y-3.1787
X1.765Y-3.1
X1.765Y-3.1787
X2.0Y-1.5
X2.05Y-2.1
X2.35Y-1.5
X2.85Y-1.5
X3.25Y-2.1
X3.75Y-2.1
T3
G00X3.4Y-3.3606
M15
G01X3.4Y-3.4
M16
G05
G00X3.4394Y-3.2976
M15
G01X3.4394Y-3.337
M16
G05
G00X3.4394Y-3.4197
M15
G01X3.4394Y-3.4591
M16
G05
G00X3.8528Y-3.2976
M15
G01X3.8528Y-3.337
M16
G05
G00X3.8528Y-3.4197
M15
G01X3.8528Y-3.4591
M16
G05
G00X3.8921Y-3.3567
M15
G01X3.8921Y-3.3961
M16
G05
T0
M30
