%TF.GenerationSoftware,KiCad,Pcbnew,(7.0.0)*%
%TF.CreationDate,2023-08-04T16:20:27+02:00*%
%TF.ProjectId,PCH-1xxxJIG_THT_1.5,5043482d-3178-4787-984a-49475f544854,rev?*%
%TF.SameCoordinates,Original*%
%TF.FileFunction,Legend,Top*%
%TF.FilePolarity,Positive*%
%FSLAX46Y46*%
G04 Gerber Fmt 4.6, Leading zero omitted, Abs format (unit mm)*
G04 Created by KiCad (PCBNEW (7.0.0)) date 2023-08-04 16:20:27*
%MOMM*%
%LPD*%
G01*
G04 APERTURE LIST*
%ADD10C,0.300000*%
%ADD11C,0.152000*%
%ADD12C,0.150000*%
%ADD13C,0.120000*%
G04 APERTURE END LIST*
D10*
X72747142Y-44683571D02*
X72747142Y-43183571D01*
X72747142Y-43183571D02*
X73318571Y-43183571D01*
X73318571Y-43183571D02*
X73461428Y-43255000D01*
X73461428Y-43255000D02*
X73532857Y-43326428D01*
X73532857Y-43326428D02*
X73604285Y-43469285D01*
X73604285Y-43469285D02*
X73604285Y-43683571D01*
X73604285Y-43683571D02*
X73532857Y-43826428D01*
X73532857Y-43826428D02*
X73461428Y-43897857D01*
X73461428Y-43897857D02*
X73318571Y-43969285D01*
X73318571Y-43969285D02*
X72747142Y-43969285D01*
X75104285Y-44540714D02*
X75032857Y-44612142D01*
X75032857Y-44612142D02*
X74818571Y-44683571D01*
X74818571Y-44683571D02*
X74675714Y-44683571D01*
X74675714Y-44683571D02*
X74461428Y-44612142D01*
X74461428Y-44612142D02*
X74318571Y-44469285D01*
X74318571Y-44469285D02*
X74247142Y-44326428D01*
X74247142Y-44326428D02*
X74175714Y-44040714D01*
X74175714Y-44040714D02*
X74175714Y-43826428D01*
X74175714Y-43826428D02*
X74247142Y-43540714D01*
X74247142Y-43540714D02*
X74318571Y-43397857D01*
X74318571Y-43397857D02*
X74461428Y-43255000D01*
X74461428Y-43255000D02*
X74675714Y-43183571D01*
X74675714Y-43183571D02*
X74818571Y-43183571D01*
X74818571Y-43183571D02*
X75032857Y-43255000D01*
X75032857Y-43255000D02*
X75104285Y-43326428D01*
X75747142Y-44683571D02*
X75747142Y-43183571D01*
X75747142Y-43897857D02*
X76604285Y-43897857D01*
X76604285Y-44683571D02*
X76604285Y-43183571D01*
X77318571Y-44112142D02*
X78461429Y-44112142D01*
X79961429Y-44683571D02*
X79104286Y-44683571D01*
X79532857Y-44683571D02*
X79532857Y-43183571D01*
X79532857Y-43183571D02*
X79390000Y-43397857D01*
X79390000Y-43397857D02*
X79247143Y-43540714D01*
X79247143Y-43540714D02*
X79104286Y-43612142D01*
X80461428Y-44683571D02*
X81247143Y-43683571D01*
X80461428Y-43683571D02*
X81247143Y-44683571D01*
X81675714Y-44683571D02*
X82461429Y-43683571D01*
X81675714Y-43683571D02*
X82461429Y-44683571D01*
X82890000Y-44683571D02*
X83675715Y-43683571D01*
X82890000Y-43683571D02*
X83675715Y-44683571D01*
X85575715Y-43183571D02*
X85575715Y-44255000D01*
X85575715Y-44255000D02*
X85504286Y-44469285D01*
X85504286Y-44469285D02*
X85361429Y-44612142D01*
X85361429Y-44612142D02*
X85147143Y-44683571D01*
X85147143Y-44683571D02*
X85004286Y-44683571D01*
X86290000Y-44683571D02*
X86290000Y-43183571D01*
X87790001Y-43255000D02*
X87647144Y-43183571D01*
X87647144Y-43183571D02*
X87432858Y-43183571D01*
X87432858Y-43183571D02*
X87218572Y-43255000D01*
X87218572Y-43255000D02*
X87075715Y-43397857D01*
X87075715Y-43397857D02*
X87004286Y-43540714D01*
X87004286Y-43540714D02*
X86932858Y-43826428D01*
X86932858Y-43826428D02*
X86932858Y-44040714D01*
X86932858Y-44040714D02*
X87004286Y-44326428D01*
X87004286Y-44326428D02*
X87075715Y-44469285D01*
X87075715Y-44469285D02*
X87218572Y-44612142D01*
X87218572Y-44612142D02*
X87432858Y-44683571D01*
X87432858Y-44683571D02*
X87575715Y-44683571D01*
X87575715Y-44683571D02*
X87790001Y-44612142D01*
X87790001Y-44612142D02*
X87861429Y-44540714D01*
X87861429Y-44540714D02*
X87861429Y-44040714D01*
X87861429Y-44040714D02*
X87575715Y-44040714D01*
X89904286Y-43897857D02*
X90118572Y-43969285D01*
X90118572Y-43969285D02*
X90190001Y-44040714D01*
X90190001Y-44040714D02*
X90261429Y-44183571D01*
X90261429Y-44183571D02*
X90261429Y-44397857D01*
X90261429Y-44397857D02*
X90190001Y-44540714D01*
X90190001Y-44540714D02*
X90118572Y-44612142D01*
X90118572Y-44612142D02*
X89975715Y-44683571D01*
X89975715Y-44683571D02*
X89404286Y-44683571D01*
X89404286Y-44683571D02*
X89404286Y-43183571D01*
X89404286Y-43183571D02*
X89904286Y-43183571D01*
X89904286Y-43183571D02*
X90047144Y-43255000D01*
X90047144Y-43255000D02*
X90118572Y-43326428D01*
X90118572Y-43326428D02*
X90190001Y-43469285D01*
X90190001Y-43469285D02*
X90190001Y-43612142D01*
X90190001Y-43612142D02*
X90118572Y-43755000D01*
X90118572Y-43755000D02*
X90047144Y-43826428D01*
X90047144Y-43826428D02*
X89904286Y-43897857D01*
X89904286Y-43897857D02*
X89404286Y-43897857D01*
X91190001Y-43183571D02*
X91475715Y-43183571D01*
X91475715Y-43183571D02*
X91618572Y-43255000D01*
X91618572Y-43255000D02*
X91761429Y-43397857D01*
X91761429Y-43397857D02*
X91832858Y-43683571D01*
X91832858Y-43683571D02*
X91832858Y-44183571D01*
X91832858Y-44183571D02*
X91761429Y-44469285D01*
X91761429Y-44469285D02*
X91618572Y-44612142D01*
X91618572Y-44612142D02*
X91475715Y-44683571D01*
X91475715Y-44683571D02*
X91190001Y-44683571D01*
X91190001Y-44683571D02*
X91047144Y-44612142D01*
X91047144Y-44612142D02*
X90904286Y-44469285D01*
X90904286Y-44469285D02*
X90832858Y-44183571D01*
X90832858Y-44183571D02*
X90832858Y-43683571D01*
X90832858Y-43683571D02*
X90904286Y-43397857D01*
X90904286Y-43397857D02*
X91047144Y-43255000D01*
X91047144Y-43255000D02*
X91190001Y-43183571D01*
X92404287Y-44255000D02*
X93118573Y-44255000D01*
X92261430Y-44683571D02*
X92761430Y-43183571D01*
X92761430Y-43183571D02*
X93261430Y-44683571D01*
X94618572Y-44683571D02*
X94118572Y-43969285D01*
X93761429Y-44683571D02*
X93761429Y-43183571D01*
X93761429Y-43183571D02*
X94332858Y-43183571D01*
X94332858Y-43183571D02*
X94475715Y-43255000D01*
X94475715Y-43255000D02*
X94547144Y-43326428D01*
X94547144Y-43326428D02*
X94618572Y-43469285D01*
X94618572Y-43469285D02*
X94618572Y-43683571D01*
X94618572Y-43683571D02*
X94547144Y-43826428D01*
X94547144Y-43826428D02*
X94475715Y-43897857D01*
X94475715Y-43897857D02*
X94332858Y-43969285D01*
X94332858Y-43969285D02*
X93761429Y-43969285D01*
X95261429Y-44683571D02*
X95261429Y-43183571D01*
X95261429Y-43183571D02*
X95618572Y-43183571D01*
X95618572Y-43183571D02*
X95832858Y-43255000D01*
X95832858Y-43255000D02*
X95975715Y-43397857D01*
X95975715Y-43397857D02*
X96047144Y-43540714D01*
X96047144Y-43540714D02*
X96118572Y-43826428D01*
X96118572Y-43826428D02*
X96118572Y-44040714D01*
X96118572Y-44040714D02*
X96047144Y-44326428D01*
X96047144Y-44326428D02*
X95975715Y-44469285D01*
X95975715Y-44469285D02*
X95832858Y-44612142D01*
X95832858Y-44612142D02*
X95618572Y-44683571D01*
X95618572Y-44683571D02*
X95261429Y-44683571D01*
X98447144Y-44683571D02*
X97590001Y-44683571D01*
X98018572Y-44683571D02*
X98018572Y-43183571D01*
X98018572Y-43183571D02*
X97875715Y-43397857D01*
X97875715Y-43397857D02*
X97732858Y-43540714D01*
X97732858Y-43540714D02*
X97590001Y-43612142D01*
X99090000Y-44540714D02*
X99161429Y-44612142D01*
X99161429Y-44612142D02*
X99090000Y-44683571D01*
X99090000Y-44683571D02*
X99018572Y-44612142D01*
X99018572Y-44612142D02*
X99090000Y-44540714D01*
X99090000Y-44540714D02*
X99090000Y-44683571D01*
X100518572Y-43183571D02*
X99804286Y-43183571D01*
X99804286Y-43183571D02*
X99732858Y-43897857D01*
X99732858Y-43897857D02*
X99804286Y-43826428D01*
X99804286Y-43826428D02*
X99947144Y-43755000D01*
X99947144Y-43755000D02*
X100304286Y-43755000D01*
X100304286Y-43755000D02*
X100447144Y-43826428D01*
X100447144Y-43826428D02*
X100518572Y-43897857D01*
X100518572Y-43897857D02*
X100590001Y-44040714D01*
X100590001Y-44040714D02*
X100590001Y-44397857D01*
X100590001Y-44397857D02*
X100518572Y-44540714D01*
X100518572Y-44540714D02*
X100447144Y-44612142D01*
X100447144Y-44612142D02*
X100304286Y-44683571D01*
X100304286Y-44683571D02*
X99947144Y-44683571D01*
X99947144Y-44683571D02*
X99804286Y-44612142D01*
X99804286Y-44612142D02*
X99732858Y-44540714D01*
X73247142Y-46327857D02*
X73461428Y-46399285D01*
X73461428Y-46399285D02*
X73532857Y-46470714D01*
X73532857Y-46470714D02*
X73604285Y-46613571D01*
X73604285Y-46613571D02*
X73604285Y-46827857D01*
X73604285Y-46827857D02*
X73532857Y-46970714D01*
X73532857Y-46970714D02*
X73461428Y-47042142D01*
X73461428Y-47042142D02*
X73318571Y-47113571D01*
X73318571Y-47113571D02*
X72747142Y-47113571D01*
X72747142Y-47113571D02*
X72747142Y-45613571D01*
X72747142Y-45613571D02*
X73247142Y-45613571D01*
X73247142Y-45613571D02*
X73390000Y-45685000D01*
X73390000Y-45685000D02*
X73461428Y-45756428D01*
X73461428Y-45756428D02*
X73532857Y-45899285D01*
X73532857Y-45899285D02*
X73532857Y-46042142D01*
X73532857Y-46042142D02*
X73461428Y-46185000D01*
X73461428Y-46185000D02*
X73390000Y-46256428D01*
X73390000Y-46256428D02*
X73247142Y-46327857D01*
X73247142Y-46327857D02*
X72747142Y-46327857D01*
X74104285Y-46113571D02*
X74461428Y-47113571D01*
X74818571Y-46113571D02*
X74461428Y-47113571D01*
X74461428Y-47113571D02*
X74318571Y-47470714D01*
X74318571Y-47470714D02*
X74247142Y-47542142D01*
X74247142Y-47542142D02*
X74104285Y-47613571D01*
X76289999Y-47113571D02*
X76289999Y-45613571D01*
X76289999Y-45613571D02*
X76789999Y-46685000D01*
X76789999Y-46685000D02*
X77289999Y-45613571D01*
X77289999Y-45613571D02*
X77289999Y-47113571D01*
X78647143Y-47113571D02*
X78647143Y-46327857D01*
X78647143Y-46327857D02*
X78575714Y-46185000D01*
X78575714Y-46185000D02*
X78432857Y-46113571D01*
X78432857Y-46113571D02*
X78147143Y-46113571D01*
X78147143Y-46113571D02*
X78004285Y-46185000D01*
X78647143Y-47042142D02*
X78504285Y-47113571D01*
X78504285Y-47113571D02*
X78147143Y-47113571D01*
X78147143Y-47113571D02*
X78004285Y-47042142D01*
X78004285Y-47042142D02*
X77932857Y-46899285D01*
X77932857Y-46899285D02*
X77932857Y-46756428D01*
X77932857Y-46756428D02*
X78004285Y-46613571D01*
X78004285Y-46613571D02*
X78147143Y-46542142D01*
X78147143Y-46542142D02*
X78504285Y-46542142D01*
X78504285Y-46542142D02*
X78647143Y-46470714D01*
X79147143Y-46113571D02*
X79718571Y-46113571D01*
X79361428Y-45613571D02*
X79361428Y-46899285D01*
X79361428Y-46899285D02*
X79432857Y-47042142D01*
X79432857Y-47042142D02*
X79575714Y-47113571D01*
X79575714Y-47113571D02*
X79718571Y-47113571D01*
X80218571Y-47113571D02*
X80218571Y-45613571D01*
X80861429Y-47113571D02*
X80861429Y-46327857D01*
X80861429Y-46327857D02*
X80790000Y-46185000D01*
X80790000Y-46185000D02*
X80647143Y-46113571D01*
X80647143Y-46113571D02*
X80432857Y-46113571D01*
X80432857Y-46113571D02*
X80290000Y-46185000D01*
X80290000Y-46185000D02*
X80218571Y-46256428D01*
X81575714Y-47113571D02*
X81575714Y-46113571D01*
X81575714Y-45613571D02*
X81504286Y-45685000D01*
X81504286Y-45685000D02*
X81575714Y-45756428D01*
X81575714Y-45756428D02*
X81647143Y-45685000D01*
X81647143Y-45685000D02*
X81575714Y-45613571D01*
X81575714Y-45613571D02*
X81575714Y-45756428D01*
X82861429Y-47042142D02*
X82718572Y-47113571D01*
X82718572Y-47113571D02*
X82432858Y-47113571D01*
X82432858Y-47113571D02*
X82290000Y-47042142D01*
X82290000Y-47042142D02*
X82218572Y-46899285D01*
X82218572Y-46899285D02*
X82218572Y-46327857D01*
X82218572Y-46327857D02*
X82290000Y-46185000D01*
X82290000Y-46185000D02*
X82432858Y-46113571D01*
X82432858Y-46113571D02*
X82718572Y-46113571D01*
X82718572Y-46113571D02*
X82861429Y-46185000D01*
X82861429Y-46185000D02*
X82932858Y-46327857D01*
X82932858Y-46327857D02*
X82932858Y-46470714D01*
X82932858Y-46470714D02*
X82218572Y-46613571D01*
X84218572Y-46113571D02*
X84218572Y-47113571D01*
X83575714Y-46113571D02*
X83575714Y-46899285D01*
X83575714Y-46899285D02*
X83647143Y-47042142D01*
X83647143Y-47042142D02*
X83790000Y-47113571D01*
X83790000Y-47113571D02*
X84004286Y-47113571D01*
X84004286Y-47113571D02*
X84147143Y-47042142D01*
X84147143Y-47042142D02*
X84218572Y-46970714D01*
X85147143Y-47113571D02*
X85004286Y-47042142D01*
X85004286Y-47042142D02*
X84932857Y-46899285D01*
X84932857Y-46899285D02*
X84932857Y-45613571D01*
X85718571Y-47113571D02*
X85718571Y-45613571D01*
X86361429Y-47113571D02*
X86361429Y-46327857D01*
X86361429Y-46327857D02*
X86290000Y-46185000D01*
X86290000Y-46185000D02*
X86147143Y-46113571D01*
X86147143Y-46113571D02*
X85932857Y-46113571D01*
X85932857Y-46113571D02*
X85790000Y-46185000D01*
X85790000Y-46185000D02*
X85718571Y-46256428D01*
D11*
%TO.C,UDC*%
X70288713Y-60776916D02*
X70288713Y-61702202D01*
X70288713Y-61702202D02*
X70343142Y-61811059D01*
X70343142Y-61811059D02*
X70397571Y-61865487D01*
X70397571Y-61865487D02*
X70506428Y-61919916D01*
X70506428Y-61919916D02*
X70724142Y-61919916D01*
X70724142Y-61919916D02*
X70832999Y-61865487D01*
X70832999Y-61865487D02*
X70887428Y-61811059D01*
X70887428Y-61811059D02*
X70941856Y-61702202D01*
X70941856Y-61702202D02*
X70941856Y-60776916D01*
X71486142Y-61919916D02*
X71486142Y-60776916D01*
X71486142Y-60776916D02*
X71758285Y-60776916D01*
X71758285Y-60776916D02*
X71921571Y-60831345D01*
X71921571Y-60831345D02*
X72030428Y-60940202D01*
X72030428Y-60940202D02*
X72084857Y-61049059D01*
X72084857Y-61049059D02*
X72139285Y-61266773D01*
X72139285Y-61266773D02*
X72139285Y-61430059D01*
X72139285Y-61430059D02*
X72084857Y-61647773D01*
X72084857Y-61647773D02*
X72030428Y-61756630D01*
X72030428Y-61756630D02*
X71921571Y-61865487D01*
X71921571Y-61865487D02*
X71758285Y-61919916D01*
X71758285Y-61919916D02*
X71486142Y-61919916D01*
X73282285Y-61811059D02*
X73227857Y-61865487D01*
X73227857Y-61865487D02*
X73064571Y-61919916D01*
X73064571Y-61919916D02*
X72955714Y-61919916D01*
X72955714Y-61919916D02*
X72792428Y-61865487D01*
X72792428Y-61865487D02*
X72683571Y-61756630D01*
X72683571Y-61756630D02*
X72629142Y-61647773D01*
X72629142Y-61647773D02*
X72574714Y-61430059D01*
X72574714Y-61430059D02*
X72574714Y-61266773D01*
X72574714Y-61266773D02*
X72629142Y-61049059D01*
X72629142Y-61049059D02*
X72683571Y-60940202D01*
X72683571Y-60940202D02*
X72792428Y-60831345D01*
X72792428Y-60831345D02*
X72955714Y-60776916D01*
X72955714Y-60776916D02*
X73064571Y-60776916D01*
X73064571Y-60776916D02*
X73227857Y-60831345D01*
X73227857Y-60831345D02*
X73282285Y-60885773D01*
D12*
%TO.C,Vita TX/7*%
X63843333Y-65949380D02*
X64176666Y-66949380D01*
X64176666Y-66949380D02*
X64509999Y-65949380D01*
X64843333Y-66949380D02*
X64843333Y-66282714D01*
X64843333Y-65949380D02*
X64795714Y-65997000D01*
X64795714Y-65997000D02*
X64843333Y-66044619D01*
X64843333Y-66044619D02*
X64890952Y-65997000D01*
X64890952Y-65997000D02*
X64843333Y-65949380D01*
X64843333Y-65949380D02*
X64843333Y-66044619D01*
X65176666Y-66282714D02*
X65557618Y-66282714D01*
X65319523Y-65949380D02*
X65319523Y-66806523D01*
X65319523Y-66806523D02*
X65367142Y-66901761D01*
X65367142Y-66901761D02*
X65462380Y-66949380D01*
X65462380Y-66949380D02*
X65557618Y-66949380D01*
X66319523Y-66949380D02*
X66319523Y-66425571D01*
X66319523Y-66425571D02*
X66271904Y-66330333D01*
X66271904Y-66330333D02*
X66176666Y-66282714D01*
X66176666Y-66282714D02*
X65986190Y-66282714D01*
X65986190Y-66282714D02*
X65890952Y-66330333D01*
X66319523Y-66901761D02*
X66224285Y-66949380D01*
X66224285Y-66949380D02*
X65986190Y-66949380D01*
X65986190Y-66949380D02*
X65890952Y-66901761D01*
X65890952Y-66901761D02*
X65843333Y-66806523D01*
X65843333Y-66806523D02*
X65843333Y-66711285D01*
X65843333Y-66711285D02*
X65890952Y-66616047D01*
X65890952Y-66616047D02*
X65986190Y-66568428D01*
X65986190Y-66568428D02*
X66224285Y-66568428D01*
X66224285Y-66568428D02*
X66319523Y-66520809D01*
X67252857Y-65949380D02*
X67824285Y-65949380D01*
X67538571Y-66949380D02*
X67538571Y-65949380D01*
X68062381Y-65949380D02*
X68729047Y-66949380D01*
X68729047Y-65949380D02*
X68062381Y-66949380D01*
X69824285Y-65901761D02*
X68967143Y-67187476D01*
X70062381Y-65949380D02*
X70729047Y-65949380D01*
X70729047Y-65949380D02*
X70300476Y-66949380D01*
%TO.C,1k Ohms*%
X63573333Y-35747380D02*
X63001905Y-35747380D01*
X63287619Y-35747380D02*
X63287619Y-34747380D01*
X63287619Y-34747380D02*
X63192381Y-34890238D01*
X63192381Y-34890238D02*
X63097143Y-34985476D01*
X63097143Y-34985476D02*
X63001905Y-35033095D01*
X64001905Y-35747380D02*
X64001905Y-34747380D01*
X64097143Y-35366428D02*
X64382857Y-35747380D01*
X64382857Y-35080714D02*
X64001905Y-35461666D01*
X65601905Y-34747380D02*
X65792381Y-34747380D01*
X65792381Y-34747380D02*
X65887619Y-34795000D01*
X65887619Y-34795000D02*
X65982857Y-34890238D01*
X65982857Y-34890238D02*
X66030476Y-35080714D01*
X66030476Y-35080714D02*
X66030476Y-35414047D01*
X66030476Y-35414047D02*
X65982857Y-35604523D01*
X65982857Y-35604523D02*
X65887619Y-35699761D01*
X65887619Y-35699761D02*
X65792381Y-35747380D01*
X65792381Y-35747380D02*
X65601905Y-35747380D01*
X65601905Y-35747380D02*
X65506667Y-35699761D01*
X65506667Y-35699761D02*
X65411429Y-35604523D01*
X65411429Y-35604523D02*
X65363810Y-35414047D01*
X65363810Y-35414047D02*
X65363810Y-35080714D01*
X65363810Y-35080714D02*
X65411429Y-34890238D01*
X65411429Y-34890238D02*
X65506667Y-34795000D01*
X65506667Y-34795000D02*
X65601905Y-34747380D01*
X66459048Y-35747380D02*
X66459048Y-34747380D01*
X66887619Y-35747380D02*
X66887619Y-35223571D01*
X66887619Y-35223571D02*
X66840000Y-35128333D01*
X66840000Y-35128333D02*
X66744762Y-35080714D01*
X66744762Y-35080714D02*
X66601905Y-35080714D01*
X66601905Y-35080714D02*
X66506667Y-35128333D01*
X66506667Y-35128333D02*
X66459048Y-35175952D01*
X67363810Y-35747380D02*
X67363810Y-35080714D01*
X67363810Y-35175952D02*
X67411429Y-35128333D01*
X67411429Y-35128333D02*
X67506667Y-35080714D01*
X67506667Y-35080714D02*
X67649524Y-35080714D01*
X67649524Y-35080714D02*
X67744762Y-35128333D01*
X67744762Y-35128333D02*
X67792381Y-35223571D01*
X67792381Y-35223571D02*
X67792381Y-35747380D01*
X67792381Y-35223571D02*
X67840000Y-35128333D01*
X67840000Y-35128333D02*
X67935238Y-35080714D01*
X67935238Y-35080714D02*
X68078095Y-35080714D01*
X68078095Y-35080714D02*
X68173334Y-35128333D01*
X68173334Y-35128333D02*
X68220953Y-35223571D01*
X68220953Y-35223571D02*
X68220953Y-35747380D01*
X68649524Y-35699761D02*
X68744762Y-35747380D01*
X68744762Y-35747380D02*
X68935238Y-35747380D01*
X68935238Y-35747380D02*
X69030476Y-35699761D01*
X69030476Y-35699761D02*
X69078095Y-35604523D01*
X69078095Y-35604523D02*
X69078095Y-35556904D01*
X69078095Y-35556904D02*
X69030476Y-35461666D01*
X69030476Y-35461666D02*
X68935238Y-35414047D01*
X68935238Y-35414047D02*
X68792381Y-35414047D01*
X68792381Y-35414047D02*
X68697143Y-35366428D01*
X68697143Y-35366428D02*
X68649524Y-35271190D01*
X68649524Y-35271190D02*
X68649524Y-35223571D01*
X68649524Y-35223571D02*
X68697143Y-35128333D01*
X68697143Y-35128333D02*
X68792381Y-35080714D01*
X68792381Y-35080714D02*
X68935238Y-35080714D01*
X68935238Y-35080714D02*
X69030476Y-35128333D01*
%TO.C,PC TX*%
X42530952Y-66949380D02*
X42530952Y-65949380D01*
X42530952Y-65949380D02*
X42911904Y-65949380D01*
X42911904Y-65949380D02*
X43007142Y-65997000D01*
X43007142Y-65997000D02*
X43054761Y-66044619D01*
X43054761Y-66044619D02*
X43102380Y-66139857D01*
X43102380Y-66139857D02*
X43102380Y-66282714D01*
X43102380Y-66282714D02*
X43054761Y-66377952D01*
X43054761Y-66377952D02*
X43007142Y-66425571D01*
X43007142Y-66425571D02*
X42911904Y-66473190D01*
X42911904Y-66473190D02*
X42530952Y-66473190D01*
X44102380Y-66854142D02*
X44054761Y-66901761D01*
X44054761Y-66901761D02*
X43911904Y-66949380D01*
X43911904Y-66949380D02*
X43816666Y-66949380D01*
X43816666Y-66949380D02*
X43673809Y-66901761D01*
X43673809Y-66901761D02*
X43578571Y-66806523D01*
X43578571Y-66806523D02*
X43530952Y-66711285D01*
X43530952Y-66711285D02*
X43483333Y-66520809D01*
X43483333Y-66520809D02*
X43483333Y-66377952D01*
X43483333Y-66377952D02*
X43530952Y-66187476D01*
X43530952Y-66187476D02*
X43578571Y-66092238D01*
X43578571Y-66092238D02*
X43673809Y-65997000D01*
X43673809Y-65997000D02*
X43816666Y-65949380D01*
X43816666Y-65949380D02*
X43911904Y-65949380D01*
X43911904Y-65949380D02*
X44054761Y-65997000D01*
X44054761Y-65997000D02*
X44102380Y-66044619D01*
X44988095Y-65949380D02*
X45559523Y-65949380D01*
X45273809Y-66949380D02*
X45273809Y-65949380D01*
X45797619Y-65949380D02*
X46464285Y-66949380D01*
X46464285Y-65949380D02*
X45797619Y-66949380D01*
%TO.C,UDC 12*%
X87631905Y-65949380D02*
X87631905Y-66758904D01*
X87631905Y-66758904D02*
X87679524Y-66854142D01*
X87679524Y-66854142D02*
X87727143Y-66901761D01*
X87727143Y-66901761D02*
X87822381Y-66949380D01*
X87822381Y-66949380D02*
X88012857Y-66949380D01*
X88012857Y-66949380D02*
X88108095Y-66901761D01*
X88108095Y-66901761D02*
X88155714Y-66854142D01*
X88155714Y-66854142D02*
X88203333Y-66758904D01*
X88203333Y-66758904D02*
X88203333Y-65949380D01*
X88679524Y-66949380D02*
X88679524Y-65949380D01*
X88679524Y-65949380D02*
X88917619Y-65949380D01*
X88917619Y-65949380D02*
X89060476Y-65997000D01*
X89060476Y-65997000D02*
X89155714Y-66092238D01*
X89155714Y-66092238D02*
X89203333Y-66187476D01*
X89203333Y-66187476D02*
X89250952Y-66377952D01*
X89250952Y-66377952D02*
X89250952Y-66520809D01*
X89250952Y-66520809D02*
X89203333Y-66711285D01*
X89203333Y-66711285D02*
X89155714Y-66806523D01*
X89155714Y-66806523D02*
X89060476Y-66901761D01*
X89060476Y-66901761D02*
X88917619Y-66949380D01*
X88917619Y-66949380D02*
X88679524Y-66949380D01*
X90250952Y-66854142D02*
X90203333Y-66901761D01*
X90203333Y-66901761D02*
X90060476Y-66949380D01*
X90060476Y-66949380D02*
X89965238Y-66949380D01*
X89965238Y-66949380D02*
X89822381Y-66901761D01*
X89822381Y-66901761D02*
X89727143Y-66806523D01*
X89727143Y-66806523D02*
X89679524Y-66711285D01*
X89679524Y-66711285D02*
X89631905Y-66520809D01*
X89631905Y-66520809D02*
X89631905Y-66377952D01*
X89631905Y-66377952D02*
X89679524Y-66187476D01*
X89679524Y-66187476D02*
X89727143Y-66092238D01*
X89727143Y-66092238D02*
X89822381Y-65997000D01*
X89822381Y-65997000D02*
X89965238Y-65949380D01*
X89965238Y-65949380D02*
X90060476Y-65949380D01*
X90060476Y-65949380D02*
X90203333Y-65997000D01*
X90203333Y-65997000D02*
X90250952Y-66044619D01*
X91803333Y-66949380D02*
X91231905Y-66949380D01*
X91517619Y-66949380D02*
X91517619Y-65949380D01*
X91517619Y-65949380D02*
X91422381Y-66092238D01*
X91422381Y-66092238D02*
X91327143Y-66187476D01*
X91327143Y-66187476D02*
X91231905Y-66235095D01*
X92184286Y-66044619D02*
X92231905Y-65997000D01*
X92231905Y-65997000D02*
X92327143Y-65949380D01*
X92327143Y-65949380D02*
X92565238Y-65949380D01*
X92565238Y-65949380D02*
X92660476Y-65997000D01*
X92660476Y-65997000D02*
X92708095Y-66044619D01*
X92708095Y-66044619D02*
X92755714Y-66139857D01*
X92755714Y-66139857D02*
X92755714Y-66235095D01*
X92755714Y-66235095D02*
X92708095Y-66377952D01*
X92708095Y-66377952D02*
X92136667Y-66949380D01*
X92136667Y-66949380D02*
X92755714Y-66949380D01*
%TO.C,UDC 11*%
X80011905Y-65949380D02*
X80011905Y-66758904D01*
X80011905Y-66758904D02*
X80059524Y-66854142D01*
X80059524Y-66854142D02*
X80107143Y-66901761D01*
X80107143Y-66901761D02*
X80202381Y-66949380D01*
X80202381Y-66949380D02*
X80392857Y-66949380D01*
X80392857Y-66949380D02*
X80488095Y-66901761D01*
X80488095Y-66901761D02*
X80535714Y-66854142D01*
X80535714Y-66854142D02*
X80583333Y-66758904D01*
X80583333Y-66758904D02*
X80583333Y-65949380D01*
X81059524Y-66949380D02*
X81059524Y-65949380D01*
X81059524Y-65949380D02*
X81297619Y-65949380D01*
X81297619Y-65949380D02*
X81440476Y-65997000D01*
X81440476Y-65997000D02*
X81535714Y-66092238D01*
X81535714Y-66092238D02*
X81583333Y-66187476D01*
X81583333Y-66187476D02*
X81630952Y-66377952D01*
X81630952Y-66377952D02*
X81630952Y-66520809D01*
X81630952Y-66520809D02*
X81583333Y-66711285D01*
X81583333Y-66711285D02*
X81535714Y-66806523D01*
X81535714Y-66806523D02*
X81440476Y-66901761D01*
X81440476Y-66901761D02*
X81297619Y-66949380D01*
X81297619Y-66949380D02*
X81059524Y-66949380D01*
X82630952Y-66854142D02*
X82583333Y-66901761D01*
X82583333Y-66901761D02*
X82440476Y-66949380D01*
X82440476Y-66949380D02*
X82345238Y-66949380D01*
X82345238Y-66949380D02*
X82202381Y-66901761D01*
X82202381Y-66901761D02*
X82107143Y-66806523D01*
X82107143Y-66806523D02*
X82059524Y-66711285D01*
X82059524Y-66711285D02*
X82011905Y-66520809D01*
X82011905Y-66520809D02*
X82011905Y-66377952D01*
X82011905Y-66377952D02*
X82059524Y-66187476D01*
X82059524Y-66187476D02*
X82107143Y-66092238D01*
X82107143Y-66092238D02*
X82202381Y-65997000D01*
X82202381Y-65997000D02*
X82345238Y-65949380D01*
X82345238Y-65949380D02*
X82440476Y-65949380D01*
X82440476Y-65949380D02*
X82583333Y-65997000D01*
X82583333Y-65997000D02*
X82630952Y-66044619D01*
X84183333Y-66949380D02*
X83611905Y-66949380D01*
X83897619Y-66949380D02*
X83897619Y-65949380D01*
X83897619Y-65949380D02*
X83802381Y-66092238D01*
X83802381Y-66092238D02*
X83707143Y-66187476D01*
X83707143Y-66187476D02*
X83611905Y-66235095D01*
X85135714Y-66949380D02*
X84564286Y-66949380D01*
X84850000Y-66949380D02*
X84850000Y-65949380D01*
X84850000Y-65949380D02*
X84754762Y-66092238D01*
X84754762Y-66092238D02*
X84659524Y-66187476D01*
X84659524Y-66187476D02*
X84564286Y-66235095D01*
%TO.C,Vita RX/6*%
X71344286Y-65949380D02*
X71677619Y-66949380D01*
X71677619Y-66949380D02*
X72010952Y-65949380D01*
X72344286Y-66949380D02*
X72344286Y-66282714D01*
X72344286Y-65949380D02*
X72296667Y-65997000D01*
X72296667Y-65997000D02*
X72344286Y-66044619D01*
X72344286Y-66044619D02*
X72391905Y-65997000D01*
X72391905Y-65997000D02*
X72344286Y-65949380D01*
X72344286Y-65949380D02*
X72344286Y-66044619D01*
X72677619Y-66282714D02*
X73058571Y-66282714D01*
X72820476Y-65949380D02*
X72820476Y-66806523D01*
X72820476Y-66806523D02*
X72868095Y-66901761D01*
X72868095Y-66901761D02*
X72963333Y-66949380D01*
X72963333Y-66949380D02*
X73058571Y-66949380D01*
X73820476Y-66949380D02*
X73820476Y-66425571D01*
X73820476Y-66425571D02*
X73772857Y-66330333D01*
X73772857Y-66330333D02*
X73677619Y-66282714D01*
X73677619Y-66282714D02*
X73487143Y-66282714D01*
X73487143Y-66282714D02*
X73391905Y-66330333D01*
X73820476Y-66901761D02*
X73725238Y-66949380D01*
X73725238Y-66949380D02*
X73487143Y-66949380D01*
X73487143Y-66949380D02*
X73391905Y-66901761D01*
X73391905Y-66901761D02*
X73344286Y-66806523D01*
X73344286Y-66806523D02*
X73344286Y-66711285D01*
X73344286Y-66711285D02*
X73391905Y-66616047D01*
X73391905Y-66616047D02*
X73487143Y-66568428D01*
X73487143Y-66568428D02*
X73725238Y-66568428D01*
X73725238Y-66568428D02*
X73820476Y-66520809D01*
X75468095Y-66949380D02*
X75134762Y-66473190D01*
X74896667Y-66949380D02*
X74896667Y-65949380D01*
X74896667Y-65949380D02*
X75277619Y-65949380D01*
X75277619Y-65949380D02*
X75372857Y-65997000D01*
X75372857Y-65997000D02*
X75420476Y-66044619D01*
X75420476Y-66044619D02*
X75468095Y-66139857D01*
X75468095Y-66139857D02*
X75468095Y-66282714D01*
X75468095Y-66282714D02*
X75420476Y-66377952D01*
X75420476Y-66377952D02*
X75372857Y-66425571D01*
X75372857Y-66425571D02*
X75277619Y-66473190D01*
X75277619Y-66473190D02*
X74896667Y-66473190D01*
X75801429Y-65949380D02*
X76468095Y-66949380D01*
X76468095Y-65949380D02*
X75801429Y-66949380D01*
X77563333Y-65901761D02*
X76706191Y-67187476D01*
X78325238Y-65949380D02*
X78134762Y-65949380D01*
X78134762Y-65949380D02*
X78039524Y-65997000D01*
X78039524Y-65997000D02*
X77991905Y-66044619D01*
X77991905Y-66044619D02*
X77896667Y-66187476D01*
X77896667Y-66187476D02*
X77849048Y-66377952D01*
X77849048Y-66377952D02*
X77849048Y-66758904D01*
X77849048Y-66758904D02*
X77896667Y-66854142D01*
X77896667Y-66854142D02*
X77944286Y-66901761D01*
X77944286Y-66901761D02*
X78039524Y-66949380D01*
X78039524Y-66949380D02*
X78230000Y-66949380D01*
X78230000Y-66949380D02*
X78325238Y-66901761D01*
X78325238Y-66901761D02*
X78372857Y-66854142D01*
X78372857Y-66854142D02*
X78420476Y-66758904D01*
X78420476Y-66758904D02*
X78420476Y-66520809D01*
X78420476Y-66520809D02*
X78372857Y-66425571D01*
X78372857Y-66425571D02*
X78325238Y-66377952D01*
X78325238Y-66377952D02*
X78230000Y-66330333D01*
X78230000Y-66330333D02*
X78039524Y-66330333D01*
X78039524Y-66330333D02*
X77944286Y-66377952D01*
X77944286Y-66377952D02*
X77896667Y-66425571D01*
X77896667Y-66425571D02*
X77849048Y-66520809D01*
%TO.C,PC RX*%
X34791905Y-66949380D02*
X34791905Y-65949380D01*
X34791905Y-65949380D02*
X35172857Y-65949380D01*
X35172857Y-65949380D02*
X35268095Y-65997000D01*
X35268095Y-65997000D02*
X35315714Y-66044619D01*
X35315714Y-66044619D02*
X35363333Y-66139857D01*
X35363333Y-66139857D02*
X35363333Y-66282714D01*
X35363333Y-66282714D02*
X35315714Y-66377952D01*
X35315714Y-66377952D02*
X35268095Y-66425571D01*
X35268095Y-66425571D02*
X35172857Y-66473190D01*
X35172857Y-66473190D02*
X34791905Y-66473190D01*
X36363333Y-66854142D02*
X36315714Y-66901761D01*
X36315714Y-66901761D02*
X36172857Y-66949380D01*
X36172857Y-66949380D02*
X36077619Y-66949380D01*
X36077619Y-66949380D02*
X35934762Y-66901761D01*
X35934762Y-66901761D02*
X35839524Y-66806523D01*
X35839524Y-66806523D02*
X35791905Y-66711285D01*
X35791905Y-66711285D02*
X35744286Y-66520809D01*
X35744286Y-66520809D02*
X35744286Y-66377952D01*
X35744286Y-66377952D02*
X35791905Y-66187476D01*
X35791905Y-66187476D02*
X35839524Y-66092238D01*
X35839524Y-66092238D02*
X35934762Y-65997000D01*
X35934762Y-65997000D02*
X36077619Y-65949380D01*
X36077619Y-65949380D02*
X36172857Y-65949380D01*
X36172857Y-65949380D02*
X36315714Y-65997000D01*
X36315714Y-65997000D02*
X36363333Y-66044619D01*
X37963333Y-66949380D02*
X37630000Y-66473190D01*
X37391905Y-66949380D02*
X37391905Y-65949380D01*
X37391905Y-65949380D02*
X37772857Y-65949380D01*
X37772857Y-65949380D02*
X37868095Y-65997000D01*
X37868095Y-65997000D02*
X37915714Y-66044619D01*
X37915714Y-66044619D02*
X37963333Y-66139857D01*
X37963333Y-66139857D02*
X37963333Y-66282714D01*
X37963333Y-66282714D02*
X37915714Y-66377952D01*
X37915714Y-66377952D02*
X37868095Y-66425571D01*
X37868095Y-66425571D02*
X37772857Y-66473190D01*
X37772857Y-66473190D02*
X37391905Y-66473190D01*
X38296667Y-65949380D02*
X38963333Y-66949380D01*
X38963333Y-65949380D02*
X38296667Y-66949380D01*
%TO.C,UDC 3/GND*%
X93680476Y-65949380D02*
X93680476Y-66758904D01*
X93680476Y-66758904D02*
X93728095Y-66854142D01*
X93728095Y-66854142D02*
X93775714Y-66901761D01*
X93775714Y-66901761D02*
X93870952Y-66949380D01*
X93870952Y-66949380D02*
X94061428Y-66949380D01*
X94061428Y-66949380D02*
X94156666Y-66901761D01*
X94156666Y-66901761D02*
X94204285Y-66854142D01*
X94204285Y-66854142D02*
X94251904Y-66758904D01*
X94251904Y-66758904D02*
X94251904Y-65949380D01*
X94728095Y-66949380D02*
X94728095Y-65949380D01*
X94728095Y-65949380D02*
X94966190Y-65949380D01*
X94966190Y-65949380D02*
X95109047Y-65997000D01*
X95109047Y-65997000D02*
X95204285Y-66092238D01*
X95204285Y-66092238D02*
X95251904Y-66187476D01*
X95251904Y-66187476D02*
X95299523Y-66377952D01*
X95299523Y-66377952D02*
X95299523Y-66520809D01*
X95299523Y-66520809D02*
X95251904Y-66711285D01*
X95251904Y-66711285D02*
X95204285Y-66806523D01*
X95204285Y-66806523D02*
X95109047Y-66901761D01*
X95109047Y-66901761D02*
X94966190Y-66949380D01*
X94966190Y-66949380D02*
X94728095Y-66949380D01*
X96299523Y-66854142D02*
X96251904Y-66901761D01*
X96251904Y-66901761D02*
X96109047Y-66949380D01*
X96109047Y-66949380D02*
X96013809Y-66949380D01*
X96013809Y-66949380D02*
X95870952Y-66901761D01*
X95870952Y-66901761D02*
X95775714Y-66806523D01*
X95775714Y-66806523D02*
X95728095Y-66711285D01*
X95728095Y-66711285D02*
X95680476Y-66520809D01*
X95680476Y-66520809D02*
X95680476Y-66377952D01*
X95680476Y-66377952D02*
X95728095Y-66187476D01*
X95728095Y-66187476D02*
X95775714Y-66092238D01*
X95775714Y-66092238D02*
X95870952Y-65997000D01*
X95870952Y-65997000D02*
X96013809Y-65949380D01*
X96013809Y-65949380D02*
X96109047Y-65949380D01*
X96109047Y-65949380D02*
X96251904Y-65997000D01*
X96251904Y-65997000D02*
X96299523Y-66044619D01*
X97232857Y-65949380D02*
X97851904Y-65949380D01*
X97851904Y-65949380D02*
X97518571Y-66330333D01*
X97518571Y-66330333D02*
X97661428Y-66330333D01*
X97661428Y-66330333D02*
X97756666Y-66377952D01*
X97756666Y-66377952D02*
X97804285Y-66425571D01*
X97804285Y-66425571D02*
X97851904Y-66520809D01*
X97851904Y-66520809D02*
X97851904Y-66758904D01*
X97851904Y-66758904D02*
X97804285Y-66854142D01*
X97804285Y-66854142D02*
X97756666Y-66901761D01*
X97756666Y-66901761D02*
X97661428Y-66949380D01*
X97661428Y-66949380D02*
X97375714Y-66949380D01*
X97375714Y-66949380D02*
X97280476Y-66901761D01*
X97280476Y-66901761D02*
X97232857Y-66854142D01*
X98994761Y-65901761D02*
X98137619Y-67187476D01*
X99851904Y-65997000D02*
X99756666Y-65949380D01*
X99756666Y-65949380D02*
X99613809Y-65949380D01*
X99613809Y-65949380D02*
X99470952Y-65997000D01*
X99470952Y-65997000D02*
X99375714Y-66092238D01*
X99375714Y-66092238D02*
X99328095Y-66187476D01*
X99328095Y-66187476D02*
X99280476Y-66377952D01*
X99280476Y-66377952D02*
X99280476Y-66520809D01*
X99280476Y-66520809D02*
X99328095Y-66711285D01*
X99328095Y-66711285D02*
X99375714Y-66806523D01*
X99375714Y-66806523D02*
X99470952Y-66901761D01*
X99470952Y-66901761D02*
X99613809Y-66949380D01*
X99613809Y-66949380D02*
X99709047Y-66949380D01*
X99709047Y-66949380D02*
X99851904Y-66901761D01*
X99851904Y-66901761D02*
X99899523Y-66854142D01*
X99899523Y-66854142D02*
X99899523Y-66520809D01*
X99899523Y-66520809D02*
X99709047Y-66520809D01*
X100328095Y-66949380D02*
X100328095Y-65949380D01*
X100328095Y-65949380D02*
X100899523Y-66949380D01*
X100899523Y-66949380D02*
X100899523Y-65949380D01*
X101375714Y-66949380D02*
X101375714Y-65949380D01*
X101375714Y-65949380D02*
X101613809Y-65949380D01*
X101613809Y-65949380D02*
X101756666Y-65997000D01*
X101756666Y-65997000D02*
X101851904Y-66092238D01*
X101851904Y-66092238D02*
X101899523Y-66187476D01*
X101899523Y-66187476D02*
X101947142Y-66377952D01*
X101947142Y-66377952D02*
X101947142Y-66520809D01*
X101947142Y-66520809D02*
X101899523Y-66711285D01*
X101899523Y-66711285D02*
X101851904Y-66806523D01*
X101851904Y-66806523D02*
X101756666Y-66901761D01*
X101756666Y-66901761D02*
X101613809Y-66949380D01*
X101613809Y-66949380D02*
X101375714Y-66949380D01*
%TO.C,3v3 VCC*%
X56770952Y-65949380D02*
X57389999Y-65949380D01*
X57389999Y-65949380D02*
X57056666Y-66330333D01*
X57056666Y-66330333D02*
X57199523Y-66330333D01*
X57199523Y-66330333D02*
X57294761Y-66377952D01*
X57294761Y-66377952D02*
X57342380Y-66425571D01*
X57342380Y-66425571D02*
X57389999Y-66520809D01*
X57389999Y-66520809D02*
X57389999Y-66758904D01*
X57389999Y-66758904D02*
X57342380Y-66854142D01*
X57342380Y-66854142D02*
X57294761Y-66901761D01*
X57294761Y-66901761D02*
X57199523Y-66949380D01*
X57199523Y-66949380D02*
X56913809Y-66949380D01*
X56913809Y-66949380D02*
X56818571Y-66901761D01*
X56818571Y-66901761D02*
X56770952Y-66854142D01*
X57723333Y-66282714D02*
X57961428Y-66949380D01*
X57961428Y-66949380D02*
X58199523Y-66282714D01*
X58485238Y-65949380D02*
X59104285Y-65949380D01*
X59104285Y-65949380D02*
X58770952Y-66330333D01*
X58770952Y-66330333D02*
X58913809Y-66330333D01*
X58913809Y-66330333D02*
X59009047Y-66377952D01*
X59009047Y-66377952D02*
X59056666Y-66425571D01*
X59056666Y-66425571D02*
X59104285Y-66520809D01*
X59104285Y-66520809D02*
X59104285Y-66758904D01*
X59104285Y-66758904D02*
X59056666Y-66854142D01*
X59056666Y-66854142D02*
X59009047Y-66901761D01*
X59009047Y-66901761D02*
X58913809Y-66949380D01*
X58913809Y-66949380D02*
X58628095Y-66949380D01*
X58628095Y-66949380D02*
X58532857Y-66901761D01*
X58532857Y-66901761D02*
X58485238Y-66854142D01*
X59990000Y-65949380D02*
X60323333Y-66949380D01*
X60323333Y-66949380D02*
X60656666Y-65949380D01*
X61561428Y-66854142D02*
X61513809Y-66901761D01*
X61513809Y-66901761D02*
X61370952Y-66949380D01*
X61370952Y-66949380D02*
X61275714Y-66949380D01*
X61275714Y-66949380D02*
X61132857Y-66901761D01*
X61132857Y-66901761D02*
X61037619Y-66806523D01*
X61037619Y-66806523D02*
X60990000Y-66711285D01*
X60990000Y-66711285D02*
X60942381Y-66520809D01*
X60942381Y-66520809D02*
X60942381Y-66377952D01*
X60942381Y-66377952D02*
X60990000Y-66187476D01*
X60990000Y-66187476D02*
X61037619Y-66092238D01*
X61037619Y-66092238D02*
X61132857Y-65997000D01*
X61132857Y-65997000D02*
X61275714Y-65949380D01*
X61275714Y-65949380D02*
X61370952Y-65949380D01*
X61370952Y-65949380D02*
X61513809Y-65997000D01*
X61513809Y-65997000D02*
X61561428Y-66044619D01*
X62561428Y-66854142D02*
X62513809Y-66901761D01*
X62513809Y-66901761D02*
X62370952Y-66949380D01*
X62370952Y-66949380D02*
X62275714Y-66949380D01*
X62275714Y-66949380D02*
X62132857Y-66901761D01*
X62132857Y-66901761D02*
X62037619Y-66806523D01*
X62037619Y-66806523D02*
X61990000Y-66711285D01*
X61990000Y-66711285D02*
X61942381Y-66520809D01*
X61942381Y-66520809D02*
X61942381Y-66377952D01*
X61942381Y-66377952D02*
X61990000Y-66187476D01*
X61990000Y-66187476D02*
X62037619Y-66092238D01*
X62037619Y-66092238D02*
X62132857Y-65997000D01*
X62132857Y-65997000D02*
X62275714Y-65949380D01*
X62275714Y-65949380D02*
X62370952Y-65949380D01*
X62370952Y-65949380D02*
X62513809Y-65997000D01*
X62513809Y-65997000D02*
X62561428Y-66044619D01*
%TO.C,220 Ohms*%
X85314286Y-50082619D02*
X85361905Y-50035000D01*
X85361905Y-50035000D02*
X85457143Y-49987380D01*
X85457143Y-49987380D02*
X85695238Y-49987380D01*
X85695238Y-49987380D02*
X85790476Y-50035000D01*
X85790476Y-50035000D02*
X85838095Y-50082619D01*
X85838095Y-50082619D02*
X85885714Y-50177857D01*
X85885714Y-50177857D02*
X85885714Y-50273095D01*
X85885714Y-50273095D02*
X85838095Y-50415952D01*
X85838095Y-50415952D02*
X85266667Y-50987380D01*
X85266667Y-50987380D02*
X85885714Y-50987380D01*
X86266667Y-50082619D02*
X86314286Y-50035000D01*
X86314286Y-50035000D02*
X86409524Y-49987380D01*
X86409524Y-49987380D02*
X86647619Y-49987380D01*
X86647619Y-49987380D02*
X86742857Y-50035000D01*
X86742857Y-50035000D02*
X86790476Y-50082619D01*
X86790476Y-50082619D02*
X86838095Y-50177857D01*
X86838095Y-50177857D02*
X86838095Y-50273095D01*
X86838095Y-50273095D02*
X86790476Y-50415952D01*
X86790476Y-50415952D02*
X86219048Y-50987380D01*
X86219048Y-50987380D02*
X86838095Y-50987380D01*
X87457143Y-49987380D02*
X87552381Y-49987380D01*
X87552381Y-49987380D02*
X87647619Y-50035000D01*
X87647619Y-50035000D02*
X87695238Y-50082619D01*
X87695238Y-50082619D02*
X87742857Y-50177857D01*
X87742857Y-50177857D02*
X87790476Y-50368333D01*
X87790476Y-50368333D02*
X87790476Y-50606428D01*
X87790476Y-50606428D02*
X87742857Y-50796904D01*
X87742857Y-50796904D02*
X87695238Y-50892142D01*
X87695238Y-50892142D02*
X87647619Y-50939761D01*
X87647619Y-50939761D02*
X87552381Y-50987380D01*
X87552381Y-50987380D02*
X87457143Y-50987380D01*
X87457143Y-50987380D02*
X87361905Y-50939761D01*
X87361905Y-50939761D02*
X87314286Y-50892142D01*
X87314286Y-50892142D02*
X87266667Y-50796904D01*
X87266667Y-50796904D02*
X87219048Y-50606428D01*
X87219048Y-50606428D02*
X87219048Y-50368333D01*
X87219048Y-50368333D02*
X87266667Y-50177857D01*
X87266667Y-50177857D02*
X87314286Y-50082619D01*
X87314286Y-50082619D02*
X87361905Y-50035000D01*
X87361905Y-50035000D02*
X87457143Y-49987380D01*
X89009524Y-49987380D02*
X89200000Y-49987380D01*
X89200000Y-49987380D02*
X89295238Y-50035000D01*
X89295238Y-50035000D02*
X89390476Y-50130238D01*
X89390476Y-50130238D02*
X89438095Y-50320714D01*
X89438095Y-50320714D02*
X89438095Y-50654047D01*
X89438095Y-50654047D02*
X89390476Y-50844523D01*
X89390476Y-50844523D02*
X89295238Y-50939761D01*
X89295238Y-50939761D02*
X89200000Y-50987380D01*
X89200000Y-50987380D02*
X89009524Y-50987380D01*
X89009524Y-50987380D02*
X88914286Y-50939761D01*
X88914286Y-50939761D02*
X88819048Y-50844523D01*
X88819048Y-50844523D02*
X88771429Y-50654047D01*
X88771429Y-50654047D02*
X88771429Y-50320714D01*
X88771429Y-50320714D02*
X88819048Y-50130238D01*
X88819048Y-50130238D02*
X88914286Y-50035000D01*
X88914286Y-50035000D02*
X89009524Y-49987380D01*
X89866667Y-50987380D02*
X89866667Y-49987380D01*
X90295238Y-50987380D02*
X90295238Y-50463571D01*
X90295238Y-50463571D02*
X90247619Y-50368333D01*
X90247619Y-50368333D02*
X90152381Y-50320714D01*
X90152381Y-50320714D02*
X90009524Y-50320714D01*
X90009524Y-50320714D02*
X89914286Y-50368333D01*
X89914286Y-50368333D02*
X89866667Y-50415952D01*
X90771429Y-50987380D02*
X90771429Y-50320714D01*
X90771429Y-50415952D02*
X90819048Y-50368333D01*
X90819048Y-50368333D02*
X90914286Y-50320714D01*
X90914286Y-50320714D02*
X91057143Y-50320714D01*
X91057143Y-50320714D02*
X91152381Y-50368333D01*
X91152381Y-50368333D02*
X91200000Y-50463571D01*
X91200000Y-50463571D02*
X91200000Y-50987380D01*
X91200000Y-50463571D02*
X91247619Y-50368333D01*
X91247619Y-50368333D02*
X91342857Y-50320714D01*
X91342857Y-50320714D02*
X91485714Y-50320714D01*
X91485714Y-50320714D02*
X91580953Y-50368333D01*
X91580953Y-50368333D02*
X91628572Y-50463571D01*
X91628572Y-50463571D02*
X91628572Y-50987380D01*
X92057143Y-50939761D02*
X92152381Y-50987380D01*
X92152381Y-50987380D02*
X92342857Y-50987380D01*
X92342857Y-50987380D02*
X92438095Y-50939761D01*
X92438095Y-50939761D02*
X92485714Y-50844523D01*
X92485714Y-50844523D02*
X92485714Y-50796904D01*
X92485714Y-50796904D02*
X92438095Y-50701666D01*
X92438095Y-50701666D02*
X92342857Y-50654047D01*
X92342857Y-50654047D02*
X92200000Y-50654047D01*
X92200000Y-50654047D02*
X92104762Y-50606428D01*
X92104762Y-50606428D02*
X92057143Y-50511190D01*
X92057143Y-50511190D02*
X92057143Y-50463571D01*
X92057143Y-50463571D02*
X92104762Y-50368333D01*
X92104762Y-50368333D02*
X92200000Y-50320714D01*
X92200000Y-50320714D02*
X92342857Y-50320714D01*
X92342857Y-50320714D02*
X92438095Y-50368333D01*
%TO.C,PC GND*%
X49484286Y-66949380D02*
X49484286Y-65949380D01*
X49484286Y-65949380D02*
X49865238Y-65949380D01*
X49865238Y-65949380D02*
X49960476Y-65997000D01*
X49960476Y-65997000D02*
X50008095Y-66044619D01*
X50008095Y-66044619D02*
X50055714Y-66139857D01*
X50055714Y-66139857D02*
X50055714Y-66282714D01*
X50055714Y-66282714D02*
X50008095Y-66377952D01*
X50008095Y-66377952D02*
X49960476Y-66425571D01*
X49960476Y-66425571D02*
X49865238Y-66473190D01*
X49865238Y-66473190D02*
X49484286Y-66473190D01*
X51055714Y-66854142D02*
X51008095Y-66901761D01*
X51008095Y-66901761D02*
X50865238Y-66949380D01*
X50865238Y-66949380D02*
X50770000Y-66949380D01*
X50770000Y-66949380D02*
X50627143Y-66901761D01*
X50627143Y-66901761D02*
X50531905Y-66806523D01*
X50531905Y-66806523D02*
X50484286Y-66711285D01*
X50484286Y-66711285D02*
X50436667Y-66520809D01*
X50436667Y-66520809D02*
X50436667Y-66377952D01*
X50436667Y-66377952D02*
X50484286Y-66187476D01*
X50484286Y-66187476D02*
X50531905Y-66092238D01*
X50531905Y-66092238D02*
X50627143Y-65997000D01*
X50627143Y-65997000D02*
X50770000Y-65949380D01*
X50770000Y-65949380D02*
X50865238Y-65949380D01*
X50865238Y-65949380D02*
X51008095Y-65997000D01*
X51008095Y-65997000D02*
X51055714Y-66044619D01*
X52608095Y-65997000D02*
X52512857Y-65949380D01*
X52512857Y-65949380D02*
X52370000Y-65949380D01*
X52370000Y-65949380D02*
X52227143Y-65997000D01*
X52227143Y-65997000D02*
X52131905Y-66092238D01*
X52131905Y-66092238D02*
X52084286Y-66187476D01*
X52084286Y-66187476D02*
X52036667Y-66377952D01*
X52036667Y-66377952D02*
X52036667Y-66520809D01*
X52036667Y-66520809D02*
X52084286Y-66711285D01*
X52084286Y-66711285D02*
X52131905Y-66806523D01*
X52131905Y-66806523D02*
X52227143Y-66901761D01*
X52227143Y-66901761D02*
X52370000Y-66949380D01*
X52370000Y-66949380D02*
X52465238Y-66949380D01*
X52465238Y-66949380D02*
X52608095Y-66901761D01*
X52608095Y-66901761D02*
X52655714Y-66854142D01*
X52655714Y-66854142D02*
X52655714Y-66520809D01*
X52655714Y-66520809D02*
X52465238Y-66520809D01*
X53084286Y-66949380D02*
X53084286Y-65949380D01*
X53084286Y-65949380D02*
X53655714Y-66949380D01*
X53655714Y-66949380D02*
X53655714Y-65949380D01*
X54131905Y-66949380D02*
X54131905Y-65949380D01*
X54131905Y-65949380D02*
X54370000Y-65949380D01*
X54370000Y-65949380D02*
X54512857Y-65997000D01*
X54512857Y-65997000D02*
X54608095Y-66092238D01*
X54608095Y-66092238D02*
X54655714Y-66187476D01*
X54655714Y-66187476D02*
X54703333Y-66377952D01*
X54703333Y-66377952D02*
X54703333Y-66520809D01*
X54703333Y-66520809D02*
X54655714Y-66711285D01*
X54655714Y-66711285D02*
X54608095Y-66806523D01*
X54608095Y-66806523D02*
X54512857Y-66901761D01*
X54512857Y-66901761D02*
X54370000Y-66949380D01*
X54370000Y-66949380D02*
X54131905Y-66949380D01*
%TO.C,1k Ohms*%
X43253333Y-50987380D02*
X42681905Y-50987380D01*
X42967619Y-50987380D02*
X42967619Y-49987380D01*
X42967619Y-49987380D02*
X42872381Y-50130238D01*
X42872381Y-50130238D02*
X42777143Y-50225476D01*
X42777143Y-50225476D02*
X42681905Y-50273095D01*
X43681905Y-50987380D02*
X43681905Y-49987380D01*
X43777143Y-50606428D02*
X44062857Y-50987380D01*
X44062857Y-50320714D02*
X43681905Y-50701666D01*
X45281905Y-49987380D02*
X45472381Y-49987380D01*
X45472381Y-49987380D02*
X45567619Y-50035000D01*
X45567619Y-50035000D02*
X45662857Y-50130238D01*
X45662857Y-50130238D02*
X45710476Y-50320714D01*
X45710476Y-50320714D02*
X45710476Y-50654047D01*
X45710476Y-50654047D02*
X45662857Y-50844523D01*
X45662857Y-50844523D02*
X45567619Y-50939761D01*
X45567619Y-50939761D02*
X45472381Y-50987380D01*
X45472381Y-50987380D02*
X45281905Y-50987380D01*
X45281905Y-50987380D02*
X45186667Y-50939761D01*
X45186667Y-50939761D02*
X45091429Y-50844523D01*
X45091429Y-50844523D02*
X45043810Y-50654047D01*
X45043810Y-50654047D02*
X45043810Y-50320714D01*
X45043810Y-50320714D02*
X45091429Y-50130238D01*
X45091429Y-50130238D02*
X45186667Y-50035000D01*
X45186667Y-50035000D02*
X45281905Y-49987380D01*
X46139048Y-50987380D02*
X46139048Y-49987380D01*
X46567619Y-50987380D02*
X46567619Y-50463571D01*
X46567619Y-50463571D02*
X46520000Y-50368333D01*
X46520000Y-50368333D02*
X46424762Y-50320714D01*
X46424762Y-50320714D02*
X46281905Y-50320714D01*
X46281905Y-50320714D02*
X46186667Y-50368333D01*
X46186667Y-50368333D02*
X46139048Y-50415952D01*
X47043810Y-50987380D02*
X47043810Y-50320714D01*
X47043810Y-50415952D02*
X47091429Y-50368333D01*
X47091429Y-50368333D02*
X47186667Y-50320714D01*
X47186667Y-50320714D02*
X47329524Y-50320714D01*
X47329524Y-50320714D02*
X47424762Y-50368333D01*
X47424762Y-50368333D02*
X47472381Y-50463571D01*
X47472381Y-50463571D02*
X47472381Y-50987380D01*
X47472381Y-50463571D02*
X47520000Y-50368333D01*
X47520000Y-50368333D02*
X47615238Y-50320714D01*
X47615238Y-50320714D02*
X47758095Y-50320714D01*
X47758095Y-50320714D02*
X47853334Y-50368333D01*
X47853334Y-50368333D02*
X47900953Y-50463571D01*
X47900953Y-50463571D02*
X47900953Y-50987380D01*
X48329524Y-50939761D02*
X48424762Y-50987380D01*
X48424762Y-50987380D02*
X48615238Y-50987380D01*
X48615238Y-50987380D02*
X48710476Y-50939761D01*
X48710476Y-50939761D02*
X48758095Y-50844523D01*
X48758095Y-50844523D02*
X48758095Y-50796904D01*
X48758095Y-50796904D02*
X48710476Y-50701666D01*
X48710476Y-50701666D02*
X48615238Y-50654047D01*
X48615238Y-50654047D02*
X48472381Y-50654047D01*
X48472381Y-50654047D02*
X48377143Y-50606428D01*
X48377143Y-50606428D02*
X48329524Y-50511190D01*
X48329524Y-50511190D02*
X48329524Y-50463571D01*
X48329524Y-50463571D02*
X48377143Y-50368333D01*
X48377143Y-50368333D02*
X48472381Y-50320714D01*
X48472381Y-50320714D02*
X48615238Y-50320714D01*
X48615238Y-50320714D02*
X48710476Y-50368333D01*
X41983333Y-35747380D02*
X41411905Y-35747380D01*
X41697619Y-35747380D02*
X41697619Y-34747380D01*
X41697619Y-34747380D02*
X41602381Y-34890238D01*
X41602381Y-34890238D02*
X41507143Y-34985476D01*
X41507143Y-34985476D02*
X41411905Y-35033095D01*
X42411905Y-35747380D02*
X42411905Y-34747380D01*
X42507143Y-35366428D02*
X42792857Y-35747380D01*
X42792857Y-35080714D02*
X42411905Y-35461666D01*
X44011905Y-34747380D02*
X44202381Y-34747380D01*
X44202381Y-34747380D02*
X44297619Y-34795000D01*
X44297619Y-34795000D02*
X44392857Y-34890238D01*
X44392857Y-34890238D02*
X44440476Y-35080714D01*
X44440476Y-35080714D02*
X44440476Y-35414047D01*
X44440476Y-35414047D02*
X44392857Y-35604523D01*
X44392857Y-35604523D02*
X44297619Y-35699761D01*
X44297619Y-35699761D02*
X44202381Y-35747380D01*
X44202381Y-35747380D02*
X44011905Y-35747380D01*
X44011905Y-35747380D02*
X43916667Y-35699761D01*
X43916667Y-35699761D02*
X43821429Y-35604523D01*
X43821429Y-35604523D02*
X43773810Y-35414047D01*
X43773810Y-35414047D02*
X43773810Y-35080714D01*
X43773810Y-35080714D02*
X43821429Y-34890238D01*
X43821429Y-34890238D02*
X43916667Y-34795000D01*
X43916667Y-34795000D02*
X44011905Y-34747380D01*
X44869048Y-35747380D02*
X44869048Y-34747380D01*
X45297619Y-35747380D02*
X45297619Y-35223571D01*
X45297619Y-35223571D02*
X45250000Y-35128333D01*
X45250000Y-35128333D02*
X45154762Y-35080714D01*
X45154762Y-35080714D02*
X45011905Y-35080714D01*
X45011905Y-35080714D02*
X44916667Y-35128333D01*
X44916667Y-35128333D02*
X44869048Y-35175952D01*
X45773810Y-35747380D02*
X45773810Y-35080714D01*
X45773810Y-35175952D02*
X45821429Y-35128333D01*
X45821429Y-35128333D02*
X45916667Y-35080714D01*
X45916667Y-35080714D02*
X46059524Y-35080714D01*
X46059524Y-35080714D02*
X46154762Y-35128333D01*
X46154762Y-35128333D02*
X46202381Y-35223571D01*
X46202381Y-35223571D02*
X46202381Y-35747380D01*
X46202381Y-35223571D02*
X46250000Y-35128333D01*
X46250000Y-35128333D02*
X46345238Y-35080714D01*
X46345238Y-35080714D02*
X46488095Y-35080714D01*
X46488095Y-35080714D02*
X46583334Y-35128333D01*
X46583334Y-35128333D02*
X46630953Y-35223571D01*
X46630953Y-35223571D02*
X46630953Y-35747380D01*
X47059524Y-35699761D02*
X47154762Y-35747380D01*
X47154762Y-35747380D02*
X47345238Y-35747380D01*
X47345238Y-35747380D02*
X47440476Y-35699761D01*
X47440476Y-35699761D02*
X47488095Y-35604523D01*
X47488095Y-35604523D02*
X47488095Y-35556904D01*
X47488095Y-35556904D02*
X47440476Y-35461666D01*
X47440476Y-35461666D02*
X47345238Y-35414047D01*
X47345238Y-35414047D02*
X47202381Y-35414047D01*
X47202381Y-35414047D02*
X47107143Y-35366428D01*
X47107143Y-35366428D02*
X47059524Y-35271190D01*
X47059524Y-35271190D02*
X47059524Y-35223571D01*
X47059524Y-35223571D02*
X47107143Y-35128333D01*
X47107143Y-35128333D02*
X47202381Y-35080714D01*
X47202381Y-35080714D02*
X47345238Y-35080714D01*
X47345238Y-35080714D02*
X47440476Y-35128333D01*
%TO.C,Pin Header*%
X35137380Y-83587618D02*
X34137380Y-83587618D01*
X34137380Y-83587618D02*
X34137380Y-83206666D01*
X34137380Y-83206666D02*
X34185000Y-83111428D01*
X34185000Y-83111428D02*
X34232619Y-83063809D01*
X34232619Y-83063809D02*
X34327857Y-83016190D01*
X34327857Y-83016190D02*
X34470714Y-83016190D01*
X34470714Y-83016190D02*
X34565952Y-83063809D01*
X34565952Y-83063809D02*
X34613571Y-83111428D01*
X34613571Y-83111428D02*
X34661190Y-83206666D01*
X34661190Y-83206666D02*
X34661190Y-83587618D01*
X35137380Y-82587618D02*
X34470714Y-82587618D01*
X34137380Y-82587618D02*
X34185000Y-82635237D01*
X34185000Y-82635237D02*
X34232619Y-82587618D01*
X34232619Y-82587618D02*
X34185000Y-82539999D01*
X34185000Y-82539999D02*
X34137380Y-82587618D01*
X34137380Y-82587618D02*
X34232619Y-82587618D01*
X34470714Y-82111428D02*
X35137380Y-82111428D01*
X34565952Y-82111428D02*
X34518333Y-82063809D01*
X34518333Y-82063809D02*
X34470714Y-81968571D01*
X34470714Y-81968571D02*
X34470714Y-81825714D01*
X34470714Y-81825714D02*
X34518333Y-81730476D01*
X34518333Y-81730476D02*
X34613571Y-81682857D01*
X34613571Y-81682857D02*
X35137380Y-81682857D01*
X35137380Y-80606666D02*
X34137380Y-80606666D01*
X34613571Y-80606666D02*
X34613571Y-80035238D01*
X35137380Y-80035238D02*
X34137380Y-80035238D01*
X35089761Y-79178095D02*
X35137380Y-79273333D01*
X35137380Y-79273333D02*
X35137380Y-79463809D01*
X35137380Y-79463809D02*
X35089761Y-79559047D01*
X35089761Y-79559047D02*
X34994523Y-79606666D01*
X34994523Y-79606666D02*
X34613571Y-79606666D01*
X34613571Y-79606666D02*
X34518333Y-79559047D01*
X34518333Y-79559047D02*
X34470714Y-79463809D01*
X34470714Y-79463809D02*
X34470714Y-79273333D01*
X34470714Y-79273333D02*
X34518333Y-79178095D01*
X34518333Y-79178095D02*
X34613571Y-79130476D01*
X34613571Y-79130476D02*
X34708809Y-79130476D01*
X34708809Y-79130476D02*
X34804047Y-79606666D01*
X35137380Y-78273333D02*
X34613571Y-78273333D01*
X34613571Y-78273333D02*
X34518333Y-78320952D01*
X34518333Y-78320952D02*
X34470714Y-78416190D01*
X34470714Y-78416190D02*
X34470714Y-78606666D01*
X34470714Y-78606666D02*
X34518333Y-78701904D01*
X35089761Y-78273333D02*
X35137380Y-78368571D01*
X35137380Y-78368571D02*
X35137380Y-78606666D01*
X35137380Y-78606666D02*
X35089761Y-78701904D01*
X35089761Y-78701904D02*
X34994523Y-78749523D01*
X34994523Y-78749523D02*
X34899285Y-78749523D01*
X34899285Y-78749523D02*
X34804047Y-78701904D01*
X34804047Y-78701904D02*
X34756428Y-78606666D01*
X34756428Y-78606666D02*
X34756428Y-78368571D01*
X34756428Y-78368571D02*
X34708809Y-78273333D01*
X35137380Y-77368571D02*
X34137380Y-77368571D01*
X35089761Y-77368571D02*
X35137380Y-77463809D01*
X35137380Y-77463809D02*
X35137380Y-77654285D01*
X35137380Y-77654285D02*
X35089761Y-77749523D01*
X35089761Y-77749523D02*
X35042142Y-77797142D01*
X35042142Y-77797142D02*
X34946904Y-77844761D01*
X34946904Y-77844761D02*
X34661190Y-77844761D01*
X34661190Y-77844761D02*
X34565952Y-77797142D01*
X34565952Y-77797142D02*
X34518333Y-77749523D01*
X34518333Y-77749523D02*
X34470714Y-77654285D01*
X34470714Y-77654285D02*
X34470714Y-77463809D01*
X34470714Y-77463809D02*
X34518333Y-77368571D01*
X35089761Y-76511428D02*
X35137380Y-76606666D01*
X35137380Y-76606666D02*
X35137380Y-76797142D01*
X35137380Y-76797142D02*
X35089761Y-76892380D01*
X35089761Y-76892380D02*
X34994523Y-76939999D01*
X34994523Y-76939999D02*
X34613571Y-76939999D01*
X34613571Y-76939999D02*
X34518333Y-76892380D01*
X34518333Y-76892380D02*
X34470714Y-76797142D01*
X34470714Y-76797142D02*
X34470714Y-76606666D01*
X34470714Y-76606666D02*
X34518333Y-76511428D01*
X34518333Y-76511428D02*
X34613571Y-76463809D01*
X34613571Y-76463809D02*
X34708809Y-76463809D01*
X34708809Y-76463809D02*
X34804047Y-76939999D01*
X35137380Y-76035237D02*
X34470714Y-76035237D01*
X34661190Y-76035237D02*
X34565952Y-75987618D01*
X34565952Y-75987618D02*
X34518333Y-75939999D01*
X34518333Y-75939999D02*
X34470714Y-75844761D01*
X34470714Y-75844761D02*
X34470714Y-75749523D01*
D13*
%TO.C,Vita TX/7*%
X68510000Y-68580000D02*
G75*
G03*
X68510000Y-68580000I-1200000J0D01*
G01*
%TO.C,1k Ohms*%
X60730000Y-38100000D02*
X61420000Y-38100000D01*
X61420000Y-36380000D02*
X61420000Y-39820000D01*
X61420000Y-39820000D02*
X70660000Y-39820000D01*
X70660000Y-36380000D02*
X61420000Y-36380000D01*
X70660000Y-39820000D02*
X70660000Y-36380000D01*
X71350000Y-38100000D02*
X70660000Y-38100000D01*
%TO.C,PC TX*%
X45650000Y-68580000D02*
G75*
G03*
X45650000Y-68580000I-1200000J0D01*
G01*
%TO.C,UDC 12*%
X91370000Y-68580000D02*
G75*
G03*
X91370000Y-68580000I-1200000J0D01*
G01*
%TO.C,UDC 11*%
X83750000Y-68580000D02*
G75*
G03*
X83750000Y-68580000I-1200000J0D01*
G01*
%TO.C,Vita RX/6*%
X76130000Y-68580000D02*
G75*
G03*
X76130000Y-68580000I-1200000J0D01*
G01*
%TO.C,PC RX*%
X38030000Y-68580000D02*
G75*
G03*
X38030000Y-68580000I-1200000J0D01*
G01*
%TO.C,UDC 3/GND*%
X98990000Y-68580000D02*
G75*
G03*
X98990000Y-68580000I-1200000J0D01*
G01*
%TO.C,3v3 VCC*%
X60890000Y-68580000D02*
G75*
G03*
X60890000Y-68580000I-1200000J0D01*
G01*
%TO.C,220 Ohms*%
X83590000Y-53340000D02*
X84280000Y-53340000D01*
X84280000Y-51620000D02*
X84280000Y-55060000D01*
X84280000Y-55060000D02*
X93520000Y-55060000D01*
X93520000Y-51620000D02*
X84280000Y-51620000D01*
X93520000Y-55060000D02*
X93520000Y-51620000D01*
X94210000Y-53340000D02*
X93520000Y-53340000D01*
%TO.C,PC GND*%
X53270000Y-68580000D02*
G75*
G03*
X53270000Y-68580000I-1200000J0D01*
G01*
%TO.C,1k Ohms*%
X40410000Y-53340000D02*
X41100000Y-53340000D01*
X41100000Y-51620000D02*
X41100000Y-55060000D01*
X41100000Y-55060000D02*
X50340000Y-55060000D01*
X50340000Y-51620000D02*
X41100000Y-51620000D01*
X50340000Y-55060000D02*
X50340000Y-51620000D01*
X51030000Y-53340000D02*
X50340000Y-53340000D01*
X39140000Y-38100000D02*
X39830000Y-38100000D01*
X39830000Y-36380000D02*
X39830000Y-39820000D01*
X39830000Y-39820000D02*
X49070000Y-39820000D01*
X49070000Y-36380000D02*
X39830000Y-36380000D01*
X49070000Y-39820000D02*
X49070000Y-36380000D01*
X49760000Y-38100000D02*
X49070000Y-38100000D01*
%TO.C,Pin Header*%
X35770000Y-81800000D02*
X35770000Y-80740000D01*
X36830000Y-81800000D02*
X35770000Y-81800000D01*
X37830000Y-81800000D02*
X45890000Y-81800000D01*
X37830000Y-81800000D02*
X37830000Y-79740000D01*
X45890000Y-81800000D02*
X45890000Y-77680000D01*
X35770000Y-79740000D02*
X35770000Y-77680000D01*
X37830000Y-79740000D02*
X35770000Y-79740000D01*
X35770000Y-77680000D02*
X45890000Y-77680000D01*
%TD*%
M02*
